<svg width="232" height="108" viewBox="0 0 232 108" fill="none" xmlns="http://www.w3.org/2000/svg">
<rect width="231" height="108" transform="translate(0.5)" fill="#C6F56F"/>
<path d="M20.8828 28.793V29.7305H17.0625V28.793H20.8828ZM24.9375 24.2695V33H23.9063V25.3828H23.8477L21.7266 26.8008V25.7227L23.9063 24.2695H24.9375ZM29.2031 24.2695V33H28.1719V25.3828H28.1133L25.9922 26.8008V25.7227L28.1719 24.2695H29.2031ZM31.4004 31.8398C31.1895 31.8398 31.0078 31.7656 30.8555 31.6172C30.707 31.4648 30.6328 31.2832 30.6328 31.0723C30.6328 30.8613 30.707 30.6816 30.8555 30.5332C31.0078 30.3809 31.1895 30.3047 31.4004 30.3047C31.6113 30.3047 31.791 30.3809 31.9395 30.5332C32.0918 30.6816 32.168 30.8613 32.168 31.0723C32.168 31.2832 32.0918 31.4648 31.9395 31.6172C31.791 31.7656 31.6113 31.8398 31.4004 31.8398ZM31.4004 27.0996C31.1895 27.0996 31.0078 27.0254 30.8555 26.877C30.707 26.7246 30.6328 26.543 30.6328 26.332C30.6328 26.1211 30.707 25.9414 30.8555 25.793C31.0078 25.6406 31.1895 25.5645 31.4004 25.5645C31.6113 25.5645 31.791 25.6406 31.9395 25.793C32.0918 25.9414 32.168 26.1211 32.168 26.332C32.168 26.543 32.0918 26.7246 31.9395 26.877C31.791 27.0254 31.6113 27.0996 31.4004 27.0996ZM36.3984 33.1172C35.832 33.1172 35.3301 33.0215 34.8926 32.8301C34.4551 32.6387 34.1074 32.3711 33.8496 32.0273C33.5918 31.6797 33.4531 31.2773 33.4336 30.8203H34.5C34.5234 31.1016 34.6191 31.3438 34.7871 31.5469C34.959 31.75 35.1816 31.9063 35.4551 32.0156C35.7324 32.125 36.0391 32.1797 36.375 32.1797C36.75 32.1797 37.082 32.1152 37.3711 31.9863C37.6641 31.8535 37.8926 31.6719 38.0566 31.4414C38.2246 31.207 38.3086 30.9375 38.3086 30.6328C38.3086 30.3086 38.2285 30.0234 38.0684 29.7773C37.9082 29.5313 37.6738 29.3398 37.3652 29.2031C37.0605 29.0625 36.6875 28.9922 36.2461 28.9922H35.543V28.0547H36.2461C36.5898 28.0547 36.8926 27.9922 37.1543 27.8672C37.416 27.7422 37.6211 27.5664 37.7695 27.3398C37.918 27.1133 37.9922 26.8477 37.9922 26.543C37.9922 26.2461 37.9277 25.9883 37.7988 25.7695C37.6699 25.5508 37.4863 25.3809 37.248 25.2598C37.0137 25.1387 36.7344 25.0781 36.4102 25.0781C36.1094 25.0781 35.8262 25.1328 35.5605 25.2422C35.2949 25.3516 35.0781 25.5078 34.9102 25.7109C34.7422 25.9141 34.6523 26.1602 34.6406 26.4492H33.6211C33.6367 25.9922 33.7734 25.5918 34.0313 25.248C34.2891 24.9043 34.627 24.6367 35.0449 24.4453C35.4668 24.25 35.9297 24.1523 36.4336 24.1523C36.9727 24.1523 37.4355 24.2617 37.8223 24.4805C38.209 24.6953 38.5059 24.9805 38.7129 25.3359C38.9199 25.6914 39.0234 26.0742 39.0234 26.4844C39.0234 26.9805 38.8945 27.4004 38.6367 27.7441C38.3828 28.0879 38.0352 28.3281 37.5938 28.4648V28.5352C38.1406 28.625 38.5684 28.8594 38.877 29.2383C39.1855 29.6133 39.3398 30.0781 39.3398 30.6328C39.3398 31.1055 39.2109 31.5293 38.9531 31.9043C38.6992 32.2793 38.3496 32.5762 37.9043 32.7949C37.4629 33.0098 36.9609 33.1172 36.3984 33.1172ZM43.3711 33.1172C42.7305 33.1172 42.1836 32.9414 41.7305 32.5898C41.2773 32.2383 40.9316 31.7305 40.6934 31.0664C40.4551 30.3984 40.3359 29.5898 40.3359 28.6406C40.3359 27.6953 40.4551 26.8887 40.6934 26.2207C40.9355 25.5488 41.2832 25.0371 41.7363 24.6855C42.1895 24.3301 42.7344 24.1523 43.3711 24.1523C44.0078 24.1523 44.5527 24.3301 45.0059 24.6855C45.459 25.0371 45.8047 25.5488 46.043 26.2207C46.2852 26.8887 46.4063 27.6953 46.4063 28.6406C46.4063 29.5898 46.2871 30.3984 46.0488 31.0664C45.8106 31.7305 45.4648 32.2383 45.0117 32.5898C44.5625 32.9414 44.0156 33.1172 43.3711 33.1172ZM43.3711 32.1914C43.8047 32.1914 44.1719 32.0527 44.4727 31.7754C44.7734 31.4941 45.002 31.0879 45.1582 30.5566C45.3184 30.0254 45.3984 29.3867 45.3984 28.6406C45.3984 27.8906 45.3184 27.25 45.1582 26.7188C45.002 26.1875 44.7734 25.7813 44.4727 25.5C44.1719 25.2188 43.8047 25.0781 43.3711 25.0781C42.7227 25.0781 42.2227 25.3906 41.8711 26.0156C41.5195 26.6406 41.3438 27.5156 41.3438 28.6406C41.3438 29.3867 41.4219 30.0254 41.5781 30.5566C41.7383 31.0879 41.9688 31.4941 42.2695 31.7754C42.5742 32.0527 42.9414 32.1914 43.3711 32.1914Z" fill="#1A1A1C"/>
<rect x="47.5" y="16" width="73" height="26" rx="13" fill="#1A1A1C"/>
<path d="M71.2109 24.2695V33H70.168L65.4219 26.1445H65.3281V33H64.2734V24.2695H65.293L70.0742 31.1367H70.1563V24.2695H71.2109ZM75.3711 33.1406C74.7422 33.1406 74.1973 33 73.7363 32.7188C73.2793 32.4375 72.9277 32.0449 72.6816 31.541C72.4355 31.0332 72.3125 30.4453 72.3125 29.7773C72.3125 29.1055 72.4336 28.5137 72.6758 28.002C72.918 27.4902 73.2578 27.0898 73.6953 26.8008C74.1367 26.5117 74.6523 26.3672 75.2422 26.3672C75.582 26.3672 75.9199 26.4238 76.2559 26.5371C76.5918 26.6504 76.8965 26.834 77.1699 27.0879C77.4473 27.3418 77.668 27.6777 77.832 28.0957C77.9961 28.5137 78.0781 29.0273 78.0781 29.6367V30.0703H73.0273V29.2031H77.5332L77.0703 29.5313C77.0703 29.0938 77.002 28.7051 76.8652 28.3652C76.7285 28.0254 76.5234 27.7578 76.25 27.5625C75.9805 27.3672 75.6445 27.2695 75.2422 27.2695C74.8398 27.2695 74.4941 27.3691 74.2051 27.5684C73.9199 27.7637 73.7012 28.0195 73.5488 28.3359C73.3965 28.6523 73.3203 28.9922 73.3203 29.3555V29.9297C73.3203 30.4258 73.4063 30.8457 73.5781 31.1895C73.75 31.5332 73.9902 31.7949 74.2988 31.9746C74.6074 32.1504 74.9648 32.2383 75.3711 32.2383C75.6328 32.2383 75.8711 32.2012 76.0859 32.127C76.3008 32.0488 76.4863 31.9336 76.6426 31.7813C76.7988 31.625 76.918 31.4336 77 31.207L77.9727 31.4883C77.8711 31.8164 77.6992 32.1055 77.457 32.3555C77.2188 32.6016 76.9219 32.7949 76.5664 32.9355C76.2109 33.0723 75.8125 33.1406 75.3711 33.1406ZM80.9492 33.1523C80.5352 33.1523 80.1582 33.0742 79.8184 32.918C79.4785 32.7578 79.209 32.5273 79.0098 32.2266C78.8105 31.9258 78.7109 31.5625 78.7109 31.1367C78.7109 30.7617 78.7852 30.459 78.9336 30.2285C79.082 29.9941 79.2793 29.8105 79.5254 29.6777C79.7754 29.541 80.0488 29.4395 80.3457 29.373C80.6465 29.3066 80.9492 29.2539 81.2539 29.2148C81.6523 29.1641 81.9746 29.125 82.2207 29.0977C82.4707 29.0703 82.6523 29.0234 82.7656 28.957C82.8828 28.8906 82.9414 28.7773 82.9414 28.6172V28.582C82.9414 28.1641 82.8262 27.8398 82.5957 27.6094C82.3691 27.375 82.0234 27.2578 81.5586 27.2578C81.082 27.2578 80.707 27.3633 80.4336 27.5742C80.1602 27.7813 79.9688 28.0039 79.8594 28.2422L78.8984 27.9023C79.0703 27.5039 79.2988 27.1934 79.584 26.9707C79.873 26.748 80.1855 26.5918 80.5215 26.502C80.8613 26.4121 81.1953 26.3672 81.5234 26.3672C81.7344 26.3672 81.9766 26.3926 82.25 26.4434C82.5234 26.4902 82.7891 26.5918 83.0469 26.748C83.3086 26.9004 83.5234 27.1328 83.6914 27.4453C83.8633 27.7539 83.9492 28.168 83.9492 28.6875V33H82.9414V32.1094H82.8945C82.8281 32.25 82.7148 32.4023 82.5547 32.5664C82.3945 32.7266 82.1816 32.8652 81.916 32.9824C81.6543 33.0957 81.332 33.1523 80.9492 33.1523ZM81.1016 32.25C81.5 32.25 81.8359 32.1719 82.1094 32.0156C82.3828 31.8594 82.5898 31.6582 82.7305 31.4121C82.8711 31.1621 82.9414 30.9023 82.9414 30.6328V29.707C82.8984 29.7578 82.8047 29.8047 82.6602 29.8477C82.5195 29.8867 82.3555 29.9219 82.168 29.9531C81.9844 29.9844 81.8047 30.0117 81.6289 30.0352C81.4531 30.0547 81.3125 30.0703 81.207 30.082C80.9453 30.1172 80.7012 30.1738 80.4746 30.252C80.248 30.3262 80.0645 30.4375 79.9238 30.5859C79.7871 30.7344 79.7188 30.9375 79.7188 31.1953C79.7188 31.543 79.8477 31.8066 80.1055 31.9863C80.3672 32.1621 80.6992 32.25 81.1016 32.25ZM85.2383 33V26.4492H86.1992V27.4453H86.2695C86.3906 27.1211 86.6074 26.8594 86.9199 26.6602C87.2363 26.457 87.5898 26.3555 87.9805 26.3555C88.0547 26.3555 88.1465 26.3574 88.2559 26.3613C88.3652 26.3613 88.4492 26.3633 88.5078 26.3672V27.3867C88.4727 27.3789 88.3945 27.3672 88.2734 27.3516C88.1523 27.3359 88.0234 27.3281 87.8867 27.3281C87.5703 27.3281 87.2871 27.3945 87.0371 27.5273C86.7871 27.6602 86.5898 27.8418 86.4453 28.0723C86.3047 28.3027 86.2344 28.5664 86.2344 28.8633V33H85.2383ZM91.6836 33.1406C91.0547 33.1406 90.5098 33 90.0488 32.7188C89.5918 32.4375 89.2402 32.0449 88.9941 31.541C88.748 31.0332 88.625 30.4453 88.625 29.7773C88.625 29.1055 88.7461 28.5137 88.9883 28.002C89.2305 27.4902 89.5703 27.0898 90.0078 26.8008C90.4492 26.5117 90.9648 26.3672 91.5547 26.3672C91.8945 26.3672 92.2324 26.4238 92.5684 26.5371C92.9043 26.6504 93.209 26.834 93.4824 27.0879C93.7598 27.3418 93.9805 27.6777 94.1445 28.0957C94.3086 28.5137 94.3906 29.0273 94.3906 29.6367V30.0703H89.3398V29.2031H93.8457L93.3828 29.5313C93.3828 29.0938 93.3145 28.7051 93.1777 28.3652C93.041 28.0254 92.8359 27.7578 92.5625 27.5625C92.293 27.3672 91.957 27.2695 91.5547 27.2695C91.1523 27.2695 90.8066 27.3691 90.5176 27.5684C90.2324 27.7637 90.0137 28.0195 89.8613 28.3359C89.709 28.6523 89.6328 28.9922 89.6328 29.3555V29.9297C89.6328 30.4258 89.7188 30.8457 89.8906 31.1895C90.0625 31.5332 90.3027 31.7949 90.6113 31.9746C90.9199 32.1504 91.2773 32.2383 91.6836 32.2383C91.9453 32.2383 92.1836 32.2012 92.3984 32.127C92.6133 32.0488 92.7988 31.9336 92.9551 31.7813C93.1113 31.625 93.2305 31.4336 93.3125 31.207L94.2852 31.4883C94.1836 31.8164 94.0117 32.1055 93.7695 32.3555C93.5313 32.6016 93.2344 32.7949 92.8789 32.9355C92.5234 33.0723 92.125 33.1406 91.6836 33.1406ZM99.9688 27.9258L99.0664 28.1719C98.9805 27.9492 98.832 27.7383 98.6211 27.5391C98.4141 27.3359 98.0898 27.2344 97.6484 27.2344C97.25 27.2344 96.918 27.3281 96.6523 27.5156C96.3867 27.6992 96.2539 27.9297 96.2539 28.207C96.2539 28.457 96.3438 28.6563 96.5234 28.8047C96.707 28.9531 96.9922 29.0742 97.3789 29.168L98.3516 29.4023C98.9336 29.543 99.3672 29.7598 99.6523 30.0527C99.9414 30.3457 100.086 30.7188 100.086 31.1719C100.086 31.5469 99.9785 31.8828 99.7637 32.1797C99.5488 32.4766 99.25 32.7109 98.8672 32.8828C98.4844 33.0547 98.0391 33.1406 97.5313 33.1406C96.8633 33.1406 96.3106 32.9941 95.8731 32.7012C95.4395 32.4082 95.1641 31.9844 95.0469 31.4297L95.9961 31.1953C96.0859 31.5469 96.2578 31.8105 96.5117 31.9863C96.7695 32.1621 97.1055 32.25 97.5195 32.25C97.9844 32.25 98.3555 32.1504 98.6328 31.9512C98.9141 31.748 99.0547 31.5078 99.0547 31.2305C99.0547 30.7695 98.7305 30.4609 98.082 30.3047L96.9922 30.0469C96.3906 29.9023 95.9492 29.6816 95.668 29.3848C95.3867 29.0879 95.2461 28.7148 95.2461 28.2656C95.2461 27.8945 95.3496 27.5664 95.5566 27.2813C95.7676 26.9961 96.0547 26.7734 96.418 26.6133C96.7813 26.4492 97.1914 26.3672 97.6484 26.3672C98.3008 26.3672 98.8106 26.5117 99.1777 26.8008C99.5488 27.0859 99.8125 27.4609 99.9688 27.9258ZM103.883 26.4492V27.3047H100.496V26.4492H103.883ZM101.48 24.8906H102.477V31.125C102.477 31.4648 102.547 31.7148 102.688 31.875C102.828 32.0313 103.051 32.1094 103.355 32.1094C103.422 32.1094 103.49 32.1055 103.561 32.0977C103.635 32.0898 103.715 32.0781 103.801 32.0625L104.012 32.9648C103.918 33 103.803 33.0273 103.666 33.0469C103.533 33.0703 103.398 33.082 103.262 33.082C102.734 33.082 102.305 32.9258 101.973 32.6133C101.645 32.3008 101.48 31.8945 101.48 31.3945V24.8906Z" fill="white"/>
<path d="M21.5723 65.1367C20.6973 65.1367 19.9134 64.9271 19.2207 64.5078C18.528 64.0885 17.9834 63.4893 17.5869 62.71C17.1904 61.9261 16.9922 60.9941 16.9922 59.9141C16.9922 58.8249 17.1904 57.8906 17.5869 57.1113C17.988 56.3275 18.5326 55.7259 19.2207 55.3066C19.9134 54.8874 20.6973 54.6777 21.5723 54.6777C22.11 54.6777 22.6136 54.7552 23.083 54.9102C23.557 55.0651 23.9808 55.2907 24.3545 55.5869C24.7282 55.8831 25.0358 56.2454 25.2773 56.6738C25.5234 57.1022 25.6875 57.5876 25.7695 58.1299H24.2246C24.1654 57.7972 24.0537 57.5055 23.8896 57.2549C23.7301 56.9997 23.5319 56.7855 23.2949 56.6123C23.0625 56.4346 22.8005 56.3024 22.5088 56.2158C22.2217 56.1247 21.9163 56.0791 21.5928 56.0791C21.0094 56.0791 20.4831 56.2272 20.0137 56.5234C19.5488 56.8151 19.182 57.248 18.9131 57.8223C18.6488 58.3919 18.5166 59.0892 18.5166 59.9141C18.5166 60.7435 18.651 61.443 18.9199 62.0127C19.1888 62.5778 19.5557 63.0062 20.0205 63.2979C20.4854 63.5895 21.0072 63.7354 21.5859 63.7354C21.9095 63.7354 22.2148 63.6921 22.502 63.6055C22.7891 63.5189 23.0511 63.389 23.2881 63.2158C23.5251 63.0426 23.7233 62.833 23.8828 62.5869C24.0469 62.3363 24.1608 62.0469 24.2246 61.7188H25.7695C25.6921 62.2246 25.5348 62.6872 25.2979 63.1064C25.0609 63.5212 24.7578 63.8812 24.3887 64.1865C24.0195 64.4873 23.598 64.722 23.124 64.8906C22.6501 65.0547 22.1328 65.1367 21.5723 65.1367ZM29.1328 65.1641C28.6497 65.1641 28.2122 65.0752 27.8203 64.8975C27.4284 64.7152 27.1185 64.4508 26.8906 64.1045C26.6628 63.7581 26.5488 63.3366 26.5488 62.8398C26.5488 62.4069 26.6309 62.0537 26.7949 61.7803C26.9635 61.5023 27.1891 61.2813 27.4717 61.1172C27.7542 60.9531 28.0687 60.8301 28.415 60.748C28.7614 60.666 29.1169 60.6022 29.4814 60.5566C29.9417 60.5065 30.3132 60.4632 30.5957 60.4268C30.8783 60.3903 31.0833 60.3333 31.2109 60.2559C31.3431 60.1738 31.4092 60.0439 31.4092 59.8662V59.832C31.4092 59.3991 31.2861 59.0641 31.04 58.8271C30.7985 58.5902 30.4385 58.4717 29.96 58.4717C29.4632 58.4717 29.069 58.5811 28.7773 58.7998C28.4902 59.014 28.292 59.2578 28.1826 59.5313L26.7813 59.21C26.9499 58.7451 27.1937 58.3714 27.5127 58.0889C27.8363 57.8018 28.2054 57.5921 28.6201 57.46C29.0394 57.3278 29.4769 57.2617 29.9326 57.2617C30.238 57.2617 30.5615 57.2982 30.9033 57.3711C31.2451 57.4395 31.5664 57.5693 31.8672 57.7607C32.1725 57.9476 32.4209 58.2165 32.6123 58.5674C32.8037 58.9183 32.8994 59.3717 32.8994 59.9277V65H31.4434V63.9541H31.3887C31.2975 64.141 31.154 64.3278 30.958 64.5147C30.7666 64.7015 30.5205 64.8564 30.2197 64.9795C29.9189 65.1025 29.5566 65.1641 29.1328 65.1641ZM29.4541 63.9746C29.8688 63.9746 30.222 63.8949 30.5137 63.7354C30.8053 63.5713 31.0286 63.3571 31.1836 63.0928C31.3385 62.8285 31.416 62.5482 31.416 62.252V61.2607C31.3613 61.3109 31.2588 61.3587 31.1084 61.4043C30.958 61.4499 30.7871 61.4886 30.5957 61.5205C30.4043 61.5524 30.2174 61.582 30.0352 61.6094C29.8529 61.6322 29.7002 61.6504 29.5771 61.6641C29.29 61.7051 29.028 61.7689 28.791 61.8555C28.554 61.9375 28.3626 62.0605 28.2168 62.2246C28.0755 62.3841 28.0049 62.596 28.0049 62.8604C28.0049 63.2295 28.1416 63.5075 28.415 63.6943C28.6885 63.8812 29.0348 63.9746 29.4541 63.9746ZM34.3281 65V57.3574H35.7568V58.5811H35.8389C35.9801 58.1709 36.2262 57.8473 36.5772 57.6104C36.9326 57.3688 37.3337 57.248 37.7803 57.248C37.8714 57.248 37.9785 57.2526 38.1016 57.2617C38.2292 57.2663 38.3317 57.2731 38.4092 57.2822V58.7041C38.3499 58.6859 38.2428 58.6676 38.0879 58.6494C37.9375 58.6312 37.7848 58.6221 37.6299 58.6221C37.279 58.6221 36.9645 58.6973 36.6865 58.8477C36.4131 58.9935 36.1966 59.1963 36.0371 59.4561C35.8822 59.7113 35.8047 60.0075 35.8047 60.3447V65H34.3281ZM43.1328 57.3574V58.5537H38.9629V57.3574H43.1328ZM40.0772 55.5391H41.5605V62.7578C41.5605 63.1087 41.6335 63.3662 41.7793 63.5303C41.9251 63.6898 42.1598 63.7695 42.4834 63.7695C42.5609 63.7695 42.6429 63.765 42.7295 63.7559C42.8206 63.7467 42.9118 63.7331 43.0029 63.7148L43.2832 64.9453C43.1328 64.9954 42.9688 65.0342 42.791 65.0615C42.6133 65.0889 42.4355 65.1025 42.2578 65.1025C41.597 65.1025 41.0684 64.918 40.6719 64.5488C40.2754 64.1751 40.0772 63.6784 40.0772 63.0586V55.5391ZM47.4053 65.1572C46.6579 65.1572 46.0107 64.9954 45.4639 64.6719C44.917 64.3483 44.4954 63.8926 44.1992 63.3047C43.9076 62.7122 43.7617 62.0218 43.7617 61.2334C43.7617 60.4495 43.9053 59.7591 44.1924 59.1621C44.4841 58.5651 44.8919 58.1003 45.416 57.7676C45.9447 57.4303 46.5645 57.2617 47.2754 57.2617C47.7083 57.2617 48.1276 57.3324 48.5332 57.4736C48.9388 57.6149 49.3034 57.8382 49.627 58.1436C49.9505 58.4489 50.2057 58.8454 50.3926 59.333C50.584 59.8206 50.6797 60.4085 50.6797 61.0967V61.6299H44.6025V60.5156H49.9141L49.2236 60.8848C49.2236 60.4154 49.1507 60.0007 49.0049 59.6406C48.8591 59.2806 48.6403 59.0003 48.3486 58.7998C48.0615 58.5947 47.7038 58.4922 47.2754 58.4922C46.847 58.4922 46.4801 58.5947 46.1748 58.7998C45.874 59.0049 45.6439 59.276 45.4844 59.6133C45.3249 59.9505 45.2451 60.3197 45.2451 60.7207V61.4795C45.2451 62.0036 45.3363 62.4479 45.5186 62.8125C45.7008 63.1771 45.9538 63.4551 46.2773 63.6465C46.6055 63.8379 46.986 63.9336 47.4189 63.9336C47.7015 63.9336 47.9567 63.8926 48.1846 63.8105C48.417 63.7285 48.6175 63.6055 48.7861 63.4414C48.9548 63.2773 49.0824 63.0745 49.1689 62.833L50.5772 63.0996C50.4632 63.5098 50.2627 63.8698 49.9756 64.1797C49.6885 64.4896 49.3262 64.7311 48.8887 64.9043C48.4557 65.0729 47.9613 65.1572 47.4053 65.1572ZM51.7188 65V57.3574H53.1475V58.5811H53.2295C53.3708 58.1709 53.6169 57.8473 53.9678 57.6104C54.3232 57.3688 54.7243 57.248 55.1709 57.248C55.262 57.248 55.3691 57.2526 55.4922 57.2617C55.6198 57.2663 55.7223 57.2731 55.7998 57.2822V58.7041C55.7406 58.6859 55.6335 58.6676 55.4785 58.6494C55.3281 58.6312 55.1755 58.6221 55.0205 58.6221C54.6696 58.6221 54.3551 58.6973 54.0772 58.8477C53.8037 58.9935 53.5872 59.1963 53.4277 59.4561C53.2728 59.7113 53.1953 60.0075 53.1953 60.3447V65H51.7188ZM56.8525 58.7998L57.4541 54.8145H59.0537L57.9258 58.7998H56.8525ZM65.2539 59.2305L63.9072 59.4629C63.8206 59.2077 63.6589 58.973 63.4219 58.7588C63.1895 58.5446 62.8408 58.4375 62.376 58.4375C61.9567 58.4375 61.6058 58.5332 61.3232 58.7246C61.0453 58.9115 60.9063 59.1507 60.9063 59.4424C60.9063 59.6976 60.9997 59.9049 61.1865 60.0645C61.3779 60.224 61.681 60.3516 62.0957 60.4473L63.3193 60.7207C64.0166 60.8802 64.5384 61.1309 64.8848 61.4727C65.2311 61.8145 65.4043 62.252 65.4043 62.7852C65.4043 63.2454 65.2721 63.6556 65.0078 64.0156C64.7435 64.3711 64.3766 64.6514 63.9072 64.8564C63.4378 65.057 62.8955 65.1572 62.2803 65.1572C61.4235 65.1572 60.7262 64.9727 60.1885 64.6035C59.6507 64.2344 59.3203 63.7148 59.1973 63.0449L60.626 62.8262C60.7171 63.1999 60.9017 63.4824 61.1797 63.6738C61.4622 63.8652 61.8268 63.9609 62.2734 63.9609C62.7565 63.9609 63.1439 63.8584 63.4356 63.6533C63.7318 63.4482 63.8799 63.1999 63.8799 62.9082C63.8799 62.4251 63.5199 62.0993 62.7998 61.9307L61.5078 61.6436C60.7923 61.4795 60.2637 61.222 59.9219 60.8711C59.5846 60.5156 59.416 60.069 59.416 59.5313C59.416 59.0801 59.5413 58.6836 59.792 58.3418C60.0472 58 60.3958 57.7357 60.8379 57.5488C61.2845 57.3574 61.7926 57.2617 62.3623 57.2617C63.1917 57.2617 63.8412 57.4417 64.3106 57.8018C64.7845 58.1618 65.099 58.638 65.2539 59.2305ZM72.7666 65.1572C72.0329 65.1572 71.3994 64.9886 70.8662 64.6514C70.333 64.3141 69.9229 63.8493 69.6357 63.2568C69.3486 62.6644 69.2051 61.9854 69.2051 61.2197C69.2051 60.4404 69.3509 59.7546 69.6426 59.1621C69.9388 58.5651 70.3512 58.1003 70.8799 57.7676C71.4131 57.4303 72.0374 57.2617 72.7529 57.2617C73.3363 57.2617 73.8535 57.3688 74.3047 57.583C74.7604 57.7926 75.1273 58.0911 75.4053 58.4785C75.6878 58.8659 75.8542 59.3171 75.9043 59.832H74.4551C74.405 59.5905 74.307 59.3695 74.1611 59.1689C74.0199 58.9684 73.833 58.8089 73.6006 58.6904C73.3682 58.5719 73.0925 58.5127 72.7734 58.5127C72.3587 58.5127 71.9964 58.6221 71.6865 58.8408C71.3812 59.055 71.1419 59.3626 70.9688 59.7637C70.7956 60.1647 70.709 60.6387 70.709 61.1855C70.709 61.737 70.7933 62.2178 70.9619 62.6279C71.1305 63.0381 71.3698 63.3548 71.6797 63.5781C71.9941 63.7969 72.3587 63.9063 72.7734 63.9063C73.2018 63.9063 73.5664 63.7878 73.8672 63.5508C74.1725 63.3138 74.3685 62.9902 74.4551 62.5801H75.9043C75.8542 63.0768 75.6947 63.5189 75.4258 63.9063C75.1569 64.2936 74.7969 64.599 74.3457 64.8223C73.8945 65.0456 73.3682 65.1572 72.7666 65.1572ZM79.1719 65.1641C78.6888 65.1641 78.2513 65.0752 77.8594 64.8975C77.4675 64.7152 77.1576 64.4508 76.9297 64.1045C76.7018 63.7581 76.5879 63.3366 76.5879 62.8398C76.5879 62.4069 76.6699 62.0537 76.834 61.7803C77.0026 61.5023 77.2282 61.2813 77.5107 61.1172C77.7933 60.9531 78.1078 60.8301 78.4541 60.748C78.8005 60.666 79.1559 60.6022 79.5205 60.5566C79.9808 60.5065 80.3522 60.4632 80.6348 60.4268C80.9173 60.3903 81.1224 60.3333 81.25 60.2559C81.3822 60.1738 81.4482 60.0439 81.4482 59.8662V59.832C81.4482 59.3991 81.3252 59.0641 81.0791 58.8271C80.8376 58.5902 80.4775 58.4717 79.999 58.4717C79.5023 58.4717 79.1081 58.5811 78.8164 58.7998C78.5293 59.014 78.3311 59.2578 78.2217 59.5313L76.8203 59.21C76.9889 58.7451 77.2328 58.3714 77.5518 58.0889C77.8753 57.8018 78.2445 57.5921 78.6592 57.46C79.0785 57.3278 79.516 57.2617 79.9717 57.2617C80.277 57.2617 80.6006 57.2982 80.9424 57.3711C81.2842 57.4395 81.6055 57.5693 81.9063 57.7607C82.2116 57.9476 82.46 58.2165 82.6514 58.5674C82.8428 58.9183 82.9385 59.3717 82.9385 59.9277V65H81.4824V63.9541H81.4277C81.3366 64.141 81.193 64.3278 80.9971 64.5147C80.8057 64.7015 80.5596 64.8564 80.2588 64.9795C79.958 65.1025 79.5957 65.1641 79.1719 65.1641ZM79.4932 63.9746C79.9079 63.9746 80.2611 63.8949 80.5527 63.7354C80.8444 63.5713 81.0677 63.3571 81.2227 63.0928C81.3776 62.8285 81.4551 62.5482 81.4551 62.252V61.2607C81.4004 61.3109 81.2979 61.3587 81.1475 61.4043C80.9971 61.4499 80.8262 61.4886 80.6348 61.5205C80.4434 61.5524 80.2565 61.582 80.0742 61.6094C79.8919 61.6322 79.7393 61.6504 79.6162 61.6641C79.3291 61.7051 79.0671 61.7689 78.8301 61.8555C78.5931 61.9375 78.4017 62.0605 78.2559 62.2246C78.1146 62.3841 78.044 62.596 78.044 62.8604C78.044 63.2295 78.1807 63.5075 78.4541 63.6943C78.7275 63.8812 79.0739 63.9746 79.4932 63.9746ZM88.0039 57.3574V58.5537H83.6904V57.3574H88.0039ZM84.8662 65V56.4688C84.8662 55.9948 84.971 55.6006 85.1807 55.2861C85.3949 54.9671 85.6729 54.7301 86.0147 54.5752C86.361 54.4157 86.7324 54.3359 87.1289 54.3359C87.4343 54.3359 87.694 54.361 87.9082 54.4111C88.1224 54.4613 88.2796 54.5046 88.3799 54.541L88.0244 55.7441C87.9561 55.7214 87.8672 55.6963 87.7578 55.6689C87.653 55.6416 87.5208 55.6279 87.3613 55.6279C87.0013 55.6279 86.7415 55.7191 86.582 55.9014C86.4225 56.0791 86.3428 56.3389 86.3428 56.6807V65H84.8662ZM91.9346 65.1572C91.1872 65.1572 90.54 64.9954 89.9932 64.6719C89.4463 64.3483 89.0247 63.8926 88.7285 63.3047C88.4369 62.7122 88.291 62.0218 88.291 61.2334C88.291 60.4495 88.4346 59.7591 88.7217 59.1621C89.0134 58.5651 89.4212 58.1003 89.9453 57.7676C90.474 57.4303 91.0938 57.2617 91.8047 57.2617C92.2376 57.2617 92.6569 57.3324 93.0625 57.4736C93.4681 57.6149 93.8327 57.8382 94.1563 58.1436C94.4798 58.4489 94.735 58.8454 94.9219 59.333C95.1133 59.8206 95.209 60.4085 95.209 61.0967V61.6299H89.1318V60.5156H94.4434L93.7529 60.8848C93.7529 60.4154 93.68 60.0007 93.5342 59.6406C93.3884 59.2806 93.1696 59.0003 92.8779 58.7998C92.5908 58.5947 92.2331 58.4922 91.8047 58.4922C91.3763 58.4922 91.0094 58.5947 90.7041 58.7998C90.4033 59.0049 90.1732 59.276 90.0137 59.6133C89.8542 59.9505 89.7744 60.3197 89.7744 60.7207V61.4795C89.7744 62.0036 89.8656 62.4479 90.0479 62.8125C90.2302 63.1771 90.4831 63.4551 90.8066 63.6465C91.1348 63.8379 91.5153 63.9336 91.9483 63.9336C92.2308 63.9336 92.486 63.8926 92.7139 63.8105C92.9463 63.7285 93.1468 63.6055 93.3154 63.4414C93.4841 63.2773 93.6117 63.0745 93.6983 62.833L95.1065 63.0996C94.9925 63.5098 94.792 63.8698 94.5049 64.1797C94.2178 64.4896 93.8555 64.7311 93.418 64.9043C92.985 65.0729 92.4906 65.1572 91.9346 65.1572ZM91.1279 56.4004L92.085 54.459H93.6162L92.2695 56.4004H91.1279Z" fill="#1A1A1C"/>
<path d="M17.3906 87L21.293 79.2773V79.207H16.793V78.2695H22.3945V79.2656L18.5039 87H17.3906ZM25.9102 87.1172C25.3242 87.1172 24.8086 87.0137 24.3633 86.8066C23.918 86.5957 23.5703 86.3066 23.3203 85.9395C23.0703 85.5723 22.9453 85.1523 22.9453 84.6797C22.9453 84.3125 23.0176 83.9727 23.1621 83.6602C23.3105 83.3438 23.5117 83.0801 23.7656 82.8691C24.0234 82.6582 24.3125 82.5234 24.6328 82.4648V82.418C24.2148 82.3086 23.8809 82.0723 23.6309 81.709C23.3848 81.3457 23.2617 80.9336 23.2617 80.4727C23.2617 80.0273 23.375 79.6309 23.6016 79.2832C23.8281 78.9316 24.1406 78.6563 24.5391 78.457C24.9414 78.2539 25.3984 78.1523 25.9102 78.1523C26.4141 78.1523 26.8652 78.2539 27.2637 78.457C27.6621 78.6563 27.9746 78.9316 28.2012 79.2832C28.4316 79.6309 28.5469 80.0273 28.5469 80.4727C28.5469 80.9336 28.4219 81.3457 28.1719 81.709C27.9219 82.0723 27.5938 82.3086 27.1875 82.418V82.4648C27.5 82.5234 27.7832 82.6582 28.0371 82.8691C28.2949 83.0801 28.498 83.3438 28.6465 83.6602C28.7988 83.9727 28.875 84.3125 28.875 84.6797C28.875 85.1523 28.748 85.5723 28.4941 85.9395C28.2441 86.3066 27.8965 86.5957 27.4512 86.8066C27.0059 87.0137 26.4922 87.1172 25.9102 87.1172ZM25.9102 86.1797C26.3047 86.1797 26.6445 86.1172 26.9297 85.9922C27.2188 85.8633 27.4414 85.6836 27.5977 85.4531C27.7539 85.2188 27.832 84.9453 27.832 84.6328C27.832 84.3047 27.748 84.0137 27.5801 83.7598C27.4121 83.5059 27.1836 83.3066 26.8945 83.1621C26.6055 83.0176 26.2773 82.9453 25.9102 82.9453C25.5352 82.9453 25.2012 83.0176 24.9082 83.1621C24.6191 83.3066 24.3906 83.5059 24.2227 83.7598C24.0586 84.0137 23.9766 84.3047 23.9766 84.6328C23.9766 84.9453 24.0547 85.2188 24.2109 85.4531C24.3672 85.6836 24.5898 85.8633 24.8789 85.9922C25.168 86.1172 25.5117 86.1797 25.9102 86.1797ZM25.9102 82.043C26.2227 82.043 26.5 81.9805 26.7422 81.8555C26.9844 81.7305 27.1758 81.5566 27.3164 81.334C27.457 81.1074 27.5273 80.8438 27.5273 80.543C27.5273 80.2461 27.459 79.9883 27.3223 79.7695C27.1855 79.5508 26.9961 79.3809 26.7539 79.2598C26.5117 79.1387 26.2305 79.0781 25.9102 79.0781C25.582 79.0781 25.2949 79.1387 25.0488 79.2598C24.8066 79.3809 24.6172 79.5508 24.4805 79.7695C24.3477 79.9883 24.2813 80.2461 24.2813 80.543C24.2813 80.8438 24.3496 81.1074 24.4863 81.334C24.627 81.5566 24.8184 81.7305 25.0605 81.8555C25.3066 81.9805 25.5898 82.043 25.9102 82.043ZM32.6602 78.1523C33.0195 78.1563 33.377 78.2246 33.7324 78.3574C34.0918 78.4902 34.4199 78.7109 34.7168 79.0195C35.0137 79.3281 35.25 79.748 35.4258 80.2793C35.6055 80.8105 35.6953 81.4766 35.6953 82.2773C35.6953 83.0547 35.623 83.7441 35.4785 84.3457C35.334 84.9434 35.123 85.4492 34.8457 85.8633C34.5723 86.2734 34.2402 86.5859 33.8496 86.8008C33.459 87.0117 33.0195 87.1172 32.5313 87.1172C32.043 87.1172 31.6055 87.0195 31.2188 86.8242C30.8359 86.6289 30.5234 86.3574 30.2813 86.0098C30.0391 85.6621 29.8828 85.2578 29.8125 84.7969H30.8555C30.9492 85.1992 31.1367 85.5313 31.418 85.793C31.6992 86.0508 32.0703 86.1797 32.5313 86.1797C33.2031 86.1797 33.7324 85.8867 34.1191 85.3008C34.5098 84.7109 34.707 83.8789 34.7109 82.8047H34.6406C34.4805 83.043 34.291 83.25 34.0723 83.4258C33.8535 83.5977 33.6113 83.7305 33.3457 83.8242C33.0801 83.918 32.7969 83.9648 32.4961 83.9648C31.9961 83.9648 31.5371 83.8418 31.1191 83.5957C30.7012 83.3457 30.3672 83.0039 30.1172 82.5703C29.8711 82.1328 29.7461 81.6328 29.7422 81.0703C29.7461 80.5352 29.8672 80.0469 30.1055 79.6055C30.3477 79.1602 30.6855 78.8047 31.1191 78.5391C31.5566 78.2734 32.0703 78.1445 32.6602 78.1523ZM32.6602 79.0898C32.3047 79.0898 31.9824 79.1797 31.6934 79.3594C31.4082 79.5352 31.1836 79.7734 31.0195 80.0742C30.8555 80.3711 30.7734 80.7031 30.7734 81.0703C30.7734 81.4336 30.8516 81.7637 31.0078 82.0605C31.168 82.3574 31.3887 82.5938 31.6699 82.7695C31.9512 82.9414 32.2695 83.0273 32.625 83.0273C32.9844 83.0273 33.3086 82.9355 33.5977 82.752C33.8906 82.5645 34.123 82.3203 34.2949 82.0195C34.4707 81.7188 34.5586 81.3945 34.5586 81.0469C34.5586 80.707 34.4766 80.3887 34.3125 80.0918C34.1484 79.791 33.9238 79.5488 33.6387 79.3652C33.3535 79.1816 33.0273 79.0898 32.6602 79.0898ZM43.2363 87.1172C42.4941 87.1172 41.832 86.9355 41.25 86.5723C40.668 86.209 40.209 85.6934 39.873 85.0254C39.541 84.3535 39.375 83.5586 39.375 82.6406C39.375 81.7188 39.541 80.9219 39.873 80.25C40.209 79.5781 40.668 79.0605 41.25 78.6973C41.832 78.334 42.4941 78.1523 43.2363 78.1523C43.9824 78.1523 44.6445 78.334 45.2227 78.6973C45.8008 79.0605 46.2559 79.5781 46.5879 80.25C46.9199 80.9219 47.0859 81.7188 47.0859 82.6406C47.0859 83.5586 46.9199 84.3535 46.5879 85.0254C46.2559 85.6934 45.8008 86.209 45.2227 86.5723C44.6445 86.9355 43.9824 87.1172 43.2363 87.1172ZM43.2363 86.1328C43.7637 86.1328 44.2402 86 44.666 85.7344C45.0957 85.4648 45.4356 85.0703 45.6856 84.5508C45.9395 84.0313 46.0664 83.3945 46.0664 82.6406C46.0664 81.8828 45.9395 81.2441 45.6856 80.7246C45.4356 80.2012 45.0957 79.8066 44.666 79.541C44.2402 79.2715 43.7637 79.1367 43.2363 79.1367C42.709 79.1367 42.2305 79.2715 41.8008 79.541C41.3711 79.8066 41.0293 80.2012 40.7754 80.7246C40.5215 81.2441 40.3945 81.8828 40.3945 82.6406C40.3945 83.3945 40.5215 84.0313 40.7754 84.5508C41.0293 85.0703 41.3711 85.4648 41.8008 85.7344C42.2305 86 42.709 86.1328 43.2363 86.1328ZM50.0859 87.1523C49.6719 87.1523 49.2949 87.0742 48.9551 86.918C48.6152 86.7578 48.3457 86.5273 48.1465 86.2266C47.9473 85.9258 47.8477 85.5625 47.8477 85.1367C47.8477 84.7617 47.9219 84.459 48.0703 84.2285C48.2188 83.9941 48.416 83.8105 48.6621 83.6777C48.9121 83.541 49.1856 83.4395 49.4824 83.373C49.7832 83.3066 50.0859 83.2539 50.3906 83.2148C50.7891 83.1641 51.1113 83.125 51.3574 83.0977C51.6074 83.0703 51.7891 83.0234 51.9023 82.957C52.0195 82.8906 52.0781 82.7773 52.0781 82.6172V82.582C52.0781 82.1641 51.9629 81.8398 51.7324 81.6094C51.5059 81.375 51.1602 81.2578 50.6953 81.2578C50.2188 81.2578 49.8438 81.3633 49.5703 81.5742C49.2969 81.7813 49.1055 82.0039 48.9961 82.2422L48.0352 81.9023C48.207 81.5039 48.4356 81.1934 48.7207 80.9707C49.0098 80.748 49.3223 80.5918 49.6582 80.502C49.9981 80.4121 50.332 80.3672 50.6602 80.3672C50.8711 80.3672 51.1133 80.3926 51.3867 80.4434C51.6602 80.4902 51.9258 80.5918 52.1836 80.748C52.4453 80.9004 52.6602 81.1328 52.8281 81.4453C53 81.7539 53.0859 82.168 53.0859 82.6875V87H52.0781V86.1094H52.0313C51.9648 86.25 51.8516 86.4023 51.6914 86.5664C51.5313 86.7266 51.3184 86.8652 51.0527 86.9824C50.791 87.0957 50.4688 87.1523 50.0859 87.1523ZM50.2383 86.25C50.6367 86.25 50.9727 86.1719 51.2461 86.0156C51.5195 85.8594 51.7266 85.6582 51.8672 85.4121C52.0078 85.1621 52.0781 84.9023 52.0781 84.6328V83.707C52.0352 83.7578 51.9414 83.8047 51.7969 83.8477C51.6563 83.8867 51.4922 83.9219 51.3047 83.9531C51.1211 83.9844 50.9414 84.0117 50.7656 84.0352C50.5898 84.0547 50.4492 84.0703 50.3438 84.082C50.082 84.1172 49.8379 84.1738 49.6113 84.252C49.3848 84.3262 49.2012 84.4375 49.0606 84.5859C48.9238 84.7344 48.8555 84.9375 48.8555 85.1953C48.8555 85.543 48.9844 85.8066 49.2422 85.9863C49.5039 86.1621 49.8359 86.25 50.2383 86.25ZM55.3125 84.6094L55.2891 83.3672H55.5L58.3594 80.4492H59.6016L56.5547 83.543H56.4609L55.3125 84.6094ZM54.375 87V78.2695H55.3711V87H54.375ZM58.5234 87L55.9688 83.7656L56.6836 83.0625L59.8125 87H58.5234ZM61.8164 87L59.8242 80.4492H60.8789L62.2969 85.4648H62.3672L63.7617 80.4492H64.8398L66.2109 85.4531H66.2813L67.6992 80.4492H68.7539L66.7617 87H65.7773L64.3359 81.9727H64.2422L62.8008 87H61.8164ZM71.9531 87.1406C71.3633 87.1406 70.8457 87 70.4004 86.7188C69.9551 86.4375 69.6074 86.043 69.3574 85.5352C69.1113 85.0273 68.9883 84.4375 68.9883 83.7656C68.9883 83.082 69.1113 82.4863 69.3574 81.9785C69.6074 81.4668 69.9551 81.0703 70.4004 80.7891C70.8457 80.5078 71.3633 80.3672 71.9531 80.3672C72.5469 80.3672 73.0664 80.5078 73.5117 80.7891C73.957 81.0703 74.3047 81.4668 74.5547 81.9785C74.8047 82.4863 74.9297 83.082 74.9297 83.7656C74.9297 84.4375 74.8047 85.0273 74.5547 85.5352C74.3047 86.043 73.957 86.4375 73.5117 86.7188C73.0664 87 72.5469 87.1406 71.9531 87.1406ZM71.9531 86.2383C72.4063 86.2383 72.7774 86.123 73.0664 85.8926C73.3555 85.6621 73.5703 85.3594 73.7109 84.9844C73.8516 84.6055 73.9219 84.1992 73.9219 83.7656C73.9219 83.3242 73.8516 82.9141 73.7109 82.5352C73.5703 82.1563 73.3555 81.8516 73.0664 81.6211C72.7774 81.3867 72.4063 81.2695 71.9531 81.2695C71.5078 81.2695 71.1406 81.3867 70.8516 81.6211C70.5625 81.8516 70.3477 82.1563 70.207 82.5352C70.0664 82.9141 69.9961 83.3242 69.9961 83.7656C69.9961 84.1992 70.0664 84.6055 70.207 84.9844C70.3477 85.3594 70.5625 85.6621 70.8516 85.8926C71.1406 86.123 71.5078 86.2383 71.9531 86.2383ZM78.5508 87.1406C77.9609 87.1406 77.4434 87 76.9981 86.7188C76.5527 86.4375 76.2051 86.043 75.9551 85.5352C75.709 85.0273 75.5859 84.4375 75.5859 83.7656C75.5859 83.082 75.709 82.4863 75.9551 81.9785C76.2051 81.4668 76.5527 81.0703 76.9981 80.7891C77.4434 80.5078 77.9609 80.3672 78.5508 80.3672C79.1445 80.3672 79.6641 80.5078 80.1094 80.7891C80.5547 81.0703 80.9024 81.4668 81.1524 81.9785C81.4024 82.4863 81.5274 83.082 81.5274 83.7656C81.5274 84.4375 81.4024 85.0273 81.1524 85.5352C80.9024 86.043 80.5547 86.4375 80.1094 86.7188C79.6641 87 79.1445 87.1406 78.5508 87.1406ZM78.5508 86.2383C79.0039 86.2383 79.375 86.123 79.6641 85.8926C79.9531 85.6621 80.168 85.3594 80.3086 84.9844C80.4492 84.6055 80.5195 84.1992 80.5195 83.7656C80.5195 83.3242 80.4492 82.9141 80.3086 82.5352C80.168 82.1563 79.9531 81.8516 79.6641 81.6211C79.375 81.3867 79.0039 81.2695 78.5508 81.2695C78.1055 81.2695 77.7383 81.3867 77.4492 81.6211C77.1602 81.8516 76.9453 82.1563 76.8047 82.5352C76.6641 82.9141 76.5938 83.3242 76.5938 83.7656C76.5938 84.1992 76.6641 84.6055 76.8047 84.9844C76.9453 85.3594 77.1602 85.6621 77.4492 85.8926C77.7383 86.123 78.1055 86.2383 78.5508 86.2383ZM84.9609 87.1406C84.4141 87.1406 83.9316 87.002 83.5137 86.7246C83.0957 86.4473 82.7695 86.0547 82.5352 85.5469C82.3008 85.0352 82.1836 84.4336 82.1836 83.7422C82.1836 83.0547 82.3008 82.459 82.5352 81.9551C82.7734 81.4473 83.1016 81.0566 83.5195 80.7832C83.9375 80.5059 84.4219 80.3672 84.9727 80.3672C85.4024 80.3672 85.7402 80.4375 85.9863 80.5781C86.2363 80.7188 86.4277 80.8789 86.5606 81.0586C86.6934 81.2344 86.7969 81.3789 86.8711 81.4922H86.9531V78.2695H87.9492V87H86.9883V85.9922H86.8711C86.7969 86.1094 86.6914 86.2598 86.5547 86.4434C86.418 86.623 86.2227 86.7852 85.9688 86.9297C85.7188 87.0703 85.3828 87.1406 84.9609 87.1406ZM85.0899 86.2383C85.4961 86.2383 85.8379 86.1328 86.1152 85.9219C86.3926 85.707 86.6035 85.4121 86.7481 85.0371C86.8926 84.6582 86.9649 84.2227 86.9649 83.7305C86.9649 83.2383 86.8945 82.8086 86.7539 82.4414C86.6133 82.0703 86.4024 81.7832 86.1211 81.5801C85.8438 81.373 85.5 81.2695 85.0899 81.2695C84.668 81.2695 84.3164 81.3789 84.0352 81.5977C83.7539 81.8164 83.543 82.1113 83.4024 82.4824C83.2617 82.8535 83.1914 83.2695 83.1914 83.7305C83.1914 84.1953 83.2617 84.6172 83.4024 84.9961C83.5469 85.375 83.7598 85.6777 84.041 85.9043C84.3223 86.127 84.6719 86.2383 85.0899 86.2383ZM92.1797 87V78.2695H95.2383C95.8438 78.2695 96.3438 78.375 96.7383 78.5859C97.1328 78.793 97.4258 79.0723 97.6172 79.4238C97.8125 79.7754 97.9102 80.1641 97.9102 80.5898C97.9102 80.9648 97.8438 81.2754 97.7109 81.5215C97.5781 81.7637 97.4043 81.957 97.1895 82.1016C96.9746 82.2422 96.7422 82.3477 96.4922 82.418V82.5C96.7617 82.5156 97.0313 82.6094 97.3008 82.7813C97.5703 82.9531 97.7949 83.1973 97.9746 83.5137C98.1582 83.8301 98.25 84.2188 98.25 84.6797C98.25 85.1172 98.1504 85.5117 97.9512 85.8633C97.752 86.2109 97.4375 86.4883 97.0078 86.6953C96.582 86.8984 96.0234 87 95.332 87H92.1797ZM93.2344 86.0625H95.332C96.0234 86.0625 96.5137 85.9277 96.8027 85.6582C97.0957 85.3887 97.2422 85.0625 97.2422 84.6797C97.2422 84.3828 97.166 84.1094 97.0137 83.8594C96.8652 83.6094 96.6524 83.4082 96.375 83.2559C96.0977 83.1035 95.7695 83.0273 95.3906 83.0273H93.2344V86.0625ZM93.2344 82.1133H95.2031C95.5195 82.1133 95.8067 82.0508 96.0645 81.9258C96.3223 81.7969 96.5254 81.6191 96.6738 81.3926C96.8262 81.1621 96.9024 80.8945 96.9024 80.5898C96.9024 80.207 96.7695 79.8809 96.5039 79.6113C96.2383 79.3418 95.8164 79.207 95.2383 79.207H93.2344V82.1133ZM100.289 78.2695V87H99.293V78.2695H100.289ZM106.922 80.4492L104.508 87H103.477L101.063 80.4492H102.152L103.957 85.6758H104.027L105.832 80.4492H106.922ZM109.922 87.1406C109.375 87.1406 108.893 87.002 108.475 86.7246C108.057 86.4473 107.73 86.0547 107.496 85.5469C107.262 85.0352 107.145 84.4336 107.145 83.7422C107.145 83.0547 107.262 82.459 107.496 81.9551C107.734 81.4473 108.063 81.0566 108.48 80.7832C108.898 80.5059 109.383 80.3672 109.934 80.3672C110.363 80.3672 110.701 80.4375 110.947 80.5781C111.197 80.7188 111.389 80.8789 111.521 81.0586C111.654 81.2344 111.758 81.3789 111.832 81.4922H111.914V78.2695H112.91V87H111.949V85.9922H111.832C111.758 86.1094 111.652 86.2598 111.516 86.4434C111.379 86.623 111.184 86.7852 110.93 86.9297C110.68 87.0703 110.344 87.1406 109.922 87.1406ZM110.051 86.2383C110.457 86.2383 110.799 86.1328 111.076 85.9219C111.354 85.707 111.564 85.4121 111.709 85.0371C111.854 84.6582 111.926 84.2227 111.926 83.7305C111.926 83.2383 111.855 82.8086 111.715 82.4414C111.574 82.0703 111.363 81.7832 111.082 81.5801C110.805 81.373 110.461 81.2695 110.051 81.2695C109.629 81.2695 109.277 81.3789 108.996 81.5977C108.715 81.8164 108.504 82.1113 108.363 82.4824C108.223 82.8535 108.152 83.2695 108.152 83.7305C108.152 84.1953 108.223 84.6172 108.363 84.9961C108.508 85.375 108.721 85.6777 109.002 85.9043C109.283 86.127 109.633 86.2383 110.051 86.2383ZM114.979 87.0703C114.768 87.0703 114.586 86.9961 114.434 86.8477C114.285 86.6953 114.211 86.5137 114.211 86.3027C114.211 86.0918 114.285 85.9121 114.434 85.7637C114.586 85.6113 114.768 85.5352 114.979 85.5352C115.189 85.5352 115.369 85.6113 115.518 85.7637C115.67 85.9121 115.746 86.0918 115.746 86.3027C115.746 86.5137 115.67 86.6953 115.518 86.8477C115.369 86.9961 115.189 87.0703 114.979 87.0703Z" fill="#1A1A1C"/>
</svg>
