<svg width="232" height="108" viewBox="0 0 232 108" fill="none" xmlns="http://www.w3.org/2000/svg">
<rect width="231" height="108" transform="translate(0.5)" fill="#1A1A1C"/>
<rect width="231" height="108" transform="translate(0.5)" fill="black" fill-opacity="0.2"/>
<rect width="231" height="108" transform="translate(0.5)" fill="black" fill-opacity="0.2"/>
<rect width="231" height="108" transform="translate(0.5)" fill="black" fill-opacity="0.2"/>
<path d="M20.8828 28.793V29.7305H17.0625V28.793H20.8828ZM24.9375 24.2695V33H23.9063V25.3828H23.8477L21.7266 26.8008V25.7227L23.9063 24.2695H24.9375ZM29.2031 24.2695V33H28.1719V25.3828H28.1133L25.9922 26.8008V25.7227L28.1719 24.2695H29.2031ZM31.4004 31.8398C31.1895 31.8398 31.0078 31.7656 30.8555 31.6172C30.707 31.4648 30.6328 31.2832 30.6328 31.0723C30.6328 30.8613 30.707 30.6816 30.8555 30.5332C31.0078 30.3809 31.1895 30.3047 31.4004 30.3047C31.6113 30.3047 31.791 30.3809 31.9395 30.5332C32.0918 30.6816 32.168 30.8613 32.168 31.0723C32.168 31.2832 32.0918 31.4648 31.9395 31.6172C31.791 31.7656 31.6113 31.8398 31.4004 31.8398ZM31.4004 27.0996C31.1895 27.0996 31.0078 27.0254 30.8555 26.877C30.707 26.7246 30.6328 26.543 30.6328 26.332C30.6328 26.1211 30.707 25.9414 30.8555 25.793C31.0078 25.6406 31.1895 25.5645 31.4004 25.5645C31.6113 25.5645 31.791 25.6406 31.9395 25.793C32.0918 25.9414 32.168 26.1211 32.168 26.332C32.168 26.543 32.0918 26.7246 31.9395 26.877C31.791 27.0254 31.6113 27.0996 31.4004 27.0996ZM36.3984 33.1172C35.832 33.1172 35.3301 33.0215 34.8926 32.8301C34.4551 32.6387 34.1074 32.3711 33.8496 32.0273C33.5918 31.6797 33.4531 31.2773 33.4336 30.8203H34.5C34.5234 31.1016 34.6191 31.3438 34.7871 31.5469C34.959 31.75 35.1816 31.9063 35.4551 32.0156C35.7324 32.125 36.0391 32.1797 36.375 32.1797C36.75 32.1797 37.082 32.1152 37.3711 31.9863C37.6641 31.8535 37.8926 31.6719 38.0566 31.4414C38.2246 31.207 38.3086 30.9375 38.3086 30.6328C38.3086 30.3086 38.2285 30.0234 38.0684 29.7773C37.9082 29.5313 37.6738 29.3398 37.3652 29.2031C37.0605 29.0625 36.6875 28.9922 36.2461 28.9922H35.543V28.0547H36.2461C36.5898 28.0547 36.8926 27.9922 37.1543 27.8672C37.416 27.7422 37.6211 27.5664 37.7695 27.3398C37.918 27.1133 37.9922 26.8477 37.9922 26.543C37.9922 26.2461 37.9277 25.9883 37.7988 25.7695C37.6699 25.5508 37.4863 25.3809 37.248 25.2598C37.0137 25.1387 36.7344 25.0781 36.4102 25.0781C36.1094 25.0781 35.8262 25.1328 35.5605 25.2422C35.2949 25.3516 35.0781 25.5078 34.9102 25.7109C34.7422 25.9141 34.6523 26.1602 34.6406 26.4492H33.6211C33.6367 25.9922 33.7734 25.5918 34.0313 25.248C34.2891 24.9043 34.627 24.6367 35.0449 24.4453C35.4668 24.25 35.9297 24.1523 36.4336 24.1523C36.9727 24.1523 37.4355 24.2617 37.8223 24.4805C38.209 24.6953 38.5059 24.9805 38.7129 25.3359C38.9199 25.6914 39.0234 26.0742 39.0234 26.4844C39.0234 26.9805 38.8945 27.4004 38.6367 27.7441C38.3828 28.0879 38.0352 28.3281 37.5938 28.4648V28.5352C38.1406 28.625 38.5684 28.8594 38.877 29.2383C39.1855 29.6133 39.3398 30.0781 39.3398 30.6328C39.3398 31.1055 39.2109 31.5293 38.9531 31.9043C38.6992 32.2793 38.3496 32.5762 37.9043 32.7949C37.4629 33.0098 36.9609 33.1172 36.3984 33.1172ZM43.3711 33.1172C42.7305 33.1172 42.1836 32.9414 41.7305 32.5898C41.2773 32.2383 40.9316 31.7305 40.6934 31.0664C40.4551 30.3984 40.3359 29.5898 40.3359 28.6406C40.3359 27.6953 40.4551 26.8887 40.6934 26.2207C40.9355 25.5488 41.2832 25.0371 41.7363 24.6855C42.1895 24.3301 42.7344 24.1523 43.3711 24.1523C44.0078 24.1523 44.5527 24.3301 45.0059 24.6855C45.459 25.0371 45.8047 25.5488 46.043 26.2207C46.2852 26.8887 46.4063 27.6953 46.4063 28.6406C46.4063 29.5898 46.2871 30.3984 46.0488 31.0664C45.8106 31.7305 45.4648 32.2383 45.0117 32.5898C44.5625 32.9414 44.0156 33.1172 43.3711 33.1172ZM43.3711 32.1914C43.8047 32.1914 44.1719 32.0527 44.4727 31.7754C44.7734 31.4941 45.002 31.0879 45.1582 30.5566C45.3184 30.0254 45.3984 29.3867 45.3984 28.6406C45.3984 27.8906 45.3184 27.25 45.1582 26.7188C45.002 26.1875 44.7734 25.7813 44.4727 25.5C44.1719 25.2188 43.8047 25.0781 43.3711 25.0781C42.7227 25.0781 42.2227 25.3906 41.8711 26.0156C41.5195 26.6406 41.3438 27.5156 41.3438 28.6406C41.3438 29.3867 41.4219 30.0254 41.5781 30.5566C41.7383 31.0879 41.9688 31.4941 42.2695 31.7754C42.5742 32.0527 42.9414 32.1914 43.3711 32.1914Z" fill="#FCFCFC"/>
<rect x="142.5" y="16" width="73" height="26" rx="13" fill="#FCFCFC"/>
<path d="M166.211 24.2695V33H165.168L160.422 26.1445H160.328V33H159.273V24.2695H160.293L165.074 31.1367H165.156V24.2695H166.211ZM170.371 33.1406C169.742 33.1406 169.197 33 168.736 32.7188C168.279 32.4375 167.928 32.0449 167.682 31.541C167.436 31.0332 167.313 30.4453 167.313 29.7773C167.313 29.1055 167.434 28.5137 167.676 28.002C167.918 27.4902 168.258 27.0898 168.695 26.8008C169.137 26.5117 169.652 26.3672 170.242 26.3672C170.582 26.3672 170.92 26.4238 171.256 26.5371C171.592 26.6504 171.896 26.834 172.17 27.0879C172.447 27.3418 172.668 27.6777 172.832 28.0957C172.996 28.5137 173.078 29.0273 173.078 29.6367V30.0703H168.027V29.2031H172.533L172.07 29.5313C172.07 29.0938 172.002 28.7051 171.865 28.3652C171.729 28.0254 171.523 27.7578 171.25 27.5625C170.98 27.3672 170.645 27.2695 170.242 27.2695C169.84 27.2695 169.494 27.3691 169.205 27.5684C168.92 27.7637 168.701 28.0195 168.549 28.3359C168.396 28.6523 168.32 28.9922 168.32 29.3555V29.9297C168.32 30.4258 168.406 30.8457 168.578 31.1895C168.75 31.5332 168.99 31.7949 169.299 31.9746C169.607 32.1504 169.965 32.2383 170.371 32.2383C170.633 32.2383 170.871 32.2012 171.086 32.127C171.301 32.0488 171.486 31.9336 171.643 31.7813C171.799 31.625 171.918 31.4336 172 31.207L172.973 31.4883C172.871 31.8164 172.699 32.1055 172.457 32.3555C172.219 32.6016 171.922 32.7949 171.566 32.9355C171.211 33.0723 170.813 33.1406 170.371 33.1406ZM175.949 33.1523C175.535 33.1523 175.158 33.0742 174.818 32.918C174.479 32.7578 174.209 32.5273 174.01 32.2266C173.811 31.9258 173.711 31.5625 173.711 31.1367C173.711 30.7617 173.785 30.459 173.934 30.2285C174.082 29.9941 174.279 29.8105 174.525 29.6777C174.775 29.541 175.049 29.4395 175.346 29.373C175.646 29.3066 175.949 29.2539 176.254 29.2148C176.652 29.1641 176.975 29.125 177.221 29.0977C177.471 29.0703 177.652 29.0234 177.766 28.957C177.883 28.8906 177.941 28.7773 177.941 28.6172V28.582C177.941 28.1641 177.826 27.8398 177.596 27.6094C177.369 27.375 177.023 27.2578 176.559 27.2578C176.082 27.2578 175.707 27.3633 175.434 27.5742C175.16 27.7813 174.969 28.0039 174.859 28.2422L173.898 27.9023C174.07 27.5039 174.299 27.1934 174.584 26.9707C174.873 26.748 175.186 26.5918 175.521 26.502C175.861 26.4121 176.195 26.3672 176.523 26.3672C176.734 26.3672 176.977 26.3926 177.25 26.4434C177.523 26.4902 177.789 26.5918 178.047 26.748C178.309 26.9004 178.523 27.1328 178.691 27.4453C178.863 27.7539 178.949 28.168 178.949 28.6875V33H177.941V32.1094H177.895C177.828 32.25 177.715 32.4023 177.555 32.5664C177.395 32.7266 177.182 32.8652 176.916 32.9824C176.654 33.0957 176.332 33.1523 175.949 33.1523ZM176.102 32.25C176.5 32.25 176.836 32.1719 177.109 32.0156C177.383 31.8594 177.59 31.6582 177.73 31.4121C177.871 31.1621 177.941 30.9023 177.941 30.6328V29.707C177.898 29.7578 177.805 29.8047 177.66 29.8477C177.52 29.8867 177.355 29.9219 177.168 29.9531C176.984 29.9844 176.805 30.0117 176.629 30.0352C176.453 30.0547 176.313 30.0703 176.207 30.082C175.945 30.1172 175.701 30.1738 175.475 30.252C175.248 30.3262 175.064 30.4375 174.924 30.5859C174.787 30.7344 174.719 30.9375 174.719 31.1953C174.719 31.543 174.848 31.8066 175.105 31.9863C175.367 32.1621 175.699 32.25 176.102 32.25ZM180.238 33V26.4492H181.199V27.4453H181.27C181.391 27.1211 181.607 26.8594 181.92 26.6602C182.236 26.457 182.59 26.3555 182.98 26.3555C183.055 26.3555 183.146 26.3574 183.256 26.3613C183.365 26.3613 183.449 26.3633 183.508 26.3672V27.3867C183.473 27.3789 183.395 27.3672 183.273 27.3516C183.152 27.3359 183.023 27.3281 182.887 27.3281C182.57 27.3281 182.287 27.3945 182.037 27.5273C181.787 27.6602 181.59 27.8418 181.445 28.0723C181.305 28.3027 181.234 28.5664 181.234 28.8633V33H180.238ZM186.684 33.1406C186.055 33.1406 185.51 33 185.049 32.7188C184.592 32.4375 184.24 32.0449 183.994 31.541C183.748 31.0332 183.625 30.4453 183.625 29.7773C183.625 29.1055 183.746 28.5137 183.988 28.002C184.23 27.4902 184.57 27.0898 185.008 26.8008C185.449 26.5117 185.965 26.3672 186.555 26.3672C186.895 26.3672 187.232 26.4238 187.568 26.5371C187.904 26.6504 188.209 26.834 188.482 27.0879C188.76 27.3418 188.98 27.6777 189.145 28.0957C189.309 28.5137 189.391 29.0273 189.391 29.6367V30.0703H184.34V29.2031H188.846L188.383 29.5313C188.383 29.0938 188.314 28.7051 188.178 28.3652C188.041 28.0254 187.836 27.7578 187.563 27.5625C187.293 27.3672 186.957 27.2695 186.555 27.2695C186.152 27.2695 185.807 27.3691 185.518 27.5684C185.232 27.7637 185.014 28.0195 184.861 28.3359C184.709 28.6523 184.633 28.9922 184.633 29.3555V29.9297C184.633 30.4258 184.719 30.8457 184.891 31.1895C185.063 31.5332 185.303 31.7949 185.611 31.9746C185.92 32.1504 186.277 32.2383 186.684 32.2383C186.945 32.2383 187.184 32.2012 187.398 32.127C187.613 32.0488 187.799 31.9336 187.955 31.7813C188.111 31.625 188.23 31.4336 188.313 31.207L189.285 31.4883C189.184 31.8164 189.012 32.1055 188.77 32.3555C188.531 32.6016 188.234 32.7949 187.879 32.9355C187.523 33.0723 187.125 33.1406 186.684 33.1406ZM194.969 27.9258L194.066 28.1719C193.98 27.9492 193.832 27.7383 193.621 27.5391C193.414 27.3359 193.09 27.2344 192.648 27.2344C192.25 27.2344 191.918 27.3281 191.652 27.5156C191.387 27.6992 191.254 27.9297 191.254 28.207C191.254 28.457 191.344 28.6563 191.523 28.8047C191.707 28.9531 191.992 29.0742 192.379 29.168L193.352 29.4023C193.934 29.543 194.367 29.7598 194.652 30.0527C194.941 30.3457 195.086 30.7188 195.086 31.1719C195.086 31.5469 194.979 31.8828 194.764 32.1797C194.549 32.4766 194.25 32.7109 193.867 32.8828C193.484 33.0547 193.039 33.1406 192.531 33.1406C191.863 33.1406 191.311 32.9941 190.873 32.7012C190.439 32.4082 190.164 31.9844 190.047 31.4297L190.996 31.1953C191.086 31.5469 191.258 31.8105 191.512 31.9863C191.77 32.1621 192.105 32.25 192.52 32.25C192.984 32.25 193.355 32.1504 193.633 31.9512C193.914 31.748 194.055 31.5078 194.055 31.2305C194.055 30.7695 193.73 30.4609 193.082 30.3047L191.992 30.0469C191.391 29.9023 190.949 29.6816 190.668 29.3848C190.387 29.0879 190.246 28.7148 190.246 28.2656C190.246 27.8945 190.35 27.5664 190.557 27.2813C190.768 26.9961 191.055 26.7734 191.418 26.6133C191.781 26.4492 192.191 26.3672 192.648 26.3672C193.301 26.3672 193.811 26.5117 194.178 26.8008C194.549 27.0859 194.813 27.4609 194.969 27.9258ZM198.883 26.4492V27.3047H195.496V26.4492H198.883ZM196.48 24.8906H197.477V31.125C197.477 31.4648 197.547 31.7148 197.688 31.875C197.828 32.0313 198.051 32.1094 198.355 32.1094C198.422 32.1094 198.49 32.1055 198.561 32.0977C198.635 32.0898 198.715 32.0781 198.801 32.0625L199.012 32.9648C198.918 33 198.803 33.0273 198.666 33.0469C198.533 33.0703 198.398 33.082 198.262 33.082C197.734 33.082 197.305 32.9258 196.973 32.6133C196.645 32.3008 196.48 31.8945 196.48 31.3945V24.8906Z" fill="#1A1A1C"/>
<path d="M166.211 24.2695V33H165.168L160.422 26.1445H160.328V33H159.273V24.2695H160.293L165.074 31.1367H165.156V24.2695H166.211ZM170.371 33.1406C169.742 33.1406 169.197 33 168.736 32.7188C168.279 32.4375 167.928 32.0449 167.682 31.541C167.436 31.0332 167.313 30.4453 167.313 29.7773C167.313 29.1055 167.434 28.5137 167.676 28.002C167.918 27.4902 168.258 27.0898 168.695 26.8008C169.137 26.5117 169.652 26.3672 170.242 26.3672C170.582 26.3672 170.92 26.4238 171.256 26.5371C171.592 26.6504 171.896 26.834 172.17 27.0879C172.447 27.3418 172.668 27.6777 172.832 28.0957C172.996 28.5137 173.078 29.0273 173.078 29.6367V30.0703H168.027V29.2031H172.533L172.07 29.5313C172.07 29.0938 172.002 28.7051 171.865 28.3652C171.729 28.0254 171.523 27.7578 171.25 27.5625C170.98 27.3672 170.645 27.2695 170.242 27.2695C169.84 27.2695 169.494 27.3691 169.205 27.5684C168.92 27.7637 168.701 28.0195 168.549 28.3359C168.396 28.6523 168.32 28.9922 168.32 29.3555V29.9297C168.32 30.4258 168.406 30.8457 168.578 31.1895C168.75 31.5332 168.99 31.7949 169.299 31.9746C169.607 32.1504 169.965 32.2383 170.371 32.2383C170.633 32.2383 170.871 32.2012 171.086 32.127C171.301 32.0488 171.486 31.9336 171.643 31.7813C171.799 31.625 171.918 31.4336 172 31.207L172.973 31.4883C172.871 31.8164 172.699 32.1055 172.457 32.3555C172.219 32.6016 171.922 32.7949 171.566 32.9355C171.211 33.0723 170.813 33.1406 170.371 33.1406ZM175.949 33.1523C175.535 33.1523 175.158 33.0742 174.818 32.918C174.479 32.7578 174.209 32.5273 174.01 32.2266C173.811 31.9258 173.711 31.5625 173.711 31.1367C173.711 30.7617 173.785 30.459 173.934 30.2285C174.082 29.9941 174.279 29.8105 174.525 29.6777C174.775 29.541 175.049 29.4395 175.346 29.373C175.646 29.3066 175.949 29.2539 176.254 29.2148C176.652 29.1641 176.975 29.125 177.221 29.0977C177.471 29.0703 177.652 29.0234 177.766 28.957C177.883 28.8906 177.941 28.7773 177.941 28.6172V28.582C177.941 28.1641 177.826 27.8398 177.596 27.6094C177.369 27.375 177.023 27.2578 176.559 27.2578C176.082 27.2578 175.707 27.3633 175.434 27.5742C175.16 27.7813 174.969 28.0039 174.859 28.2422L173.898 27.9023C174.07 27.5039 174.299 27.1934 174.584 26.9707C174.873 26.748 175.186 26.5918 175.521 26.502C175.861 26.4121 176.195 26.3672 176.523 26.3672C176.734 26.3672 176.977 26.3926 177.25 26.4434C177.523 26.4902 177.789 26.5918 178.047 26.748C178.309 26.9004 178.523 27.1328 178.691 27.4453C178.863 27.7539 178.949 28.168 178.949 28.6875V33H177.941V32.1094H177.895C177.828 32.25 177.715 32.4023 177.555 32.5664C177.395 32.7266 177.182 32.8652 176.916 32.9824C176.654 33.0957 176.332 33.1523 175.949 33.1523ZM176.102 32.25C176.5 32.25 176.836 32.1719 177.109 32.0156C177.383 31.8594 177.59 31.6582 177.73 31.4121C177.871 31.1621 177.941 30.9023 177.941 30.6328V29.707C177.898 29.7578 177.805 29.8047 177.66 29.8477C177.52 29.8867 177.355 29.9219 177.168 29.9531C176.984 29.9844 176.805 30.0117 176.629 30.0352C176.453 30.0547 176.313 30.0703 176.207 30.082C175.945 30.1172 175.701 30.1738 175.475 30.252C175.248 30.3262 175.064 30.4375 174.924 30.5859C174.787 30.7344 174.719 30.9375 174.719 31.1953C174.719 31.543 174.848 31.8066 175.105 31.9863C175.367 32.1621 175.699 32.25 176.102 32.25ZM180.238 33V26.4492H181.199V27.4453H181.27C181.391 27.1211 181.607 26.8594 181.92 26.6602C182.236 26.457 182.59 26.3555 182.98 26.3555C183.055 26.3555 183.146 26.3574 183.256 26.3613C183.365 26.3613 183.449 26.3633 183.508 26.3672V27.3867C183.473 27.3789 183.395 27.3672 183.273 27.3516C183.152 27.3359 183.023 27.3281 182.887 27.3281C182.57 27.3281 182.287 27.3945 182.037 27.5273C181.787 27.6602 181.59 27.8418 181.445 28.0723C181.305 28.3027 181.234 28.5664 181.234 28.8633V33H180.238ZM186.684 33.1406C186.055 33.1406 185.51 33 185.049 32.7188C184.592 32.4375 184.24 32.0449 183.994 31.541C183.748 31.0332 183.625 30.4453 183.625 29.7773C183.625 29.1055 183.746 28.5137 183.988 28.002C184.23 27.4902 184.57 27.0898 185.008 26.8008C185.449 26.5117 185.965 26.3672 186.555 26.3672C186.895 26.3672 187.232 26.4238 187.568 26.5371C187.904 26.6504 188.209 26.834 188.482 27.0879C188.76 27.3418 188.98 27.6777 189.145 28.0957C189.309 28.5137 189.391 29.0273 189.391 29.6367V30.0703H184.34V29.2031H188.846L188.383 29.5313C188.383 29.0938 188.314 28.7051 188.178 28.3652C188.041 28.0254 187.836 27.7578 187.563 27.5625C187.293 27.3672 186.957 27.2695 186.555 27.2695C186.152 27.2695 185.807 27.3691 185.518 27.5684C185.232 27.7637 185.014 28.0195 184.861 28.3359C184.709 28.6523 184.633 28.9922 184.633 29.3555V29.9297C184.633 30.4258 184.719 30.8457 184.891 31.1895C185.063 31.5332 185.303 31.7949 185.611 31.9746C185.92 32.1504 186.277 32.2383 186.684 32.2383C186.945 32.2383 187.184 32.2012 187.398 32.127C187.613 32.0488 187.799 31.9336 187.955 31.7813C188.111 31.625 188.23 31.4336 188.313 31.207L189.285 31.4883C189.184 31.8164 189.012 32.1055 188.77 32.3555C188.531 32.6016 188.234 32.7949 187.879 32.9355C187.523 33.0723 187.125 33.1406 186.684 33.1406ZM194.969 27.9258L194.066 28.1719C193.98 27.9492 193.832 27.7383 193.621 27.5391C193.414 27.3359 193.09 27.2344 192.648 27.2344C192.25 27.2344 191.918 27.3281 191.652 27.5156C191.387 27.6992 191.254 27.9297 191.254 28.207C191.254 28.457 191.344 28.6563 191.523 28.8047C191.707 28.9531 191.992 29.0742 192.379 29.168L193.352 29.4023C193.934 29.543 194.367 29.7598 194.652 30.0527C194.941 30.3457 195.086 30.7188 195.086 31.1719C195.086 31.5469 194.979 31.8828 194.764 32.1797C194.549 32.4766 194.25 32.7109 193.867 32.8828C193.484 33.0547 193.039 33.1406 192.531 33.1406C191.863 33.1406 191.311 32.9941 190.873 32.7012C190.439 32.4082 190.164 31.9844 190.047 31.4297L190.996 31.1953C191.086 31.5469 191.258 31.8105 191.512 31.9863C191.77 32.1621 192.105 32.25 192.52 32.25C192.984 32.25 193.355 32.1504 193.633 31.9512C193.914 31.748 194.055 31.5078 194.055 31.2305C194.055 30.7695 193.73 30.4609 193.082 30.3047L191.992 30.0469C191.391 29.9023 190.949 29.6816 190.668 29.3848C190.387 29.0879 190.246 28.7148 190.246 28.2656C190.246 27.8945 190.35 27.5664 190.557 27.2813C190.768 26.9961 191.055 26.7734 191.418 26.6133C191.781 26.4492 192.191 26.3672 192.648 26.3672C193.301 26.3672 193.811 26.5117 194.178 26.8008C194.549 27.0859 194.813 27.4609 194.969 27.9258ZM198.883 26.4492V27.3047H195.496V26.4492H198.883ZM196.48 24.8906H197.477V31.125C197.477 31.4648 197.547 31.7148 197.688 31.875C197.828 32.0313 198.051 32.1094 198.355 32.1094C198.422 32.1094 198.49 32.1055 198.561 32.0977C198.635 32.0898 198.715 32.0781 198.801 32.0625L199.012 32.9648C198.918 33 198.803 33.0273 198.666 33.0469C198.533 33.0703 198.398 33.082 198.262 33.082C197.734 33.082 197.305 32.9258 196.973 32.6133C196.645 32.3008 196.48 31.8945 196.48 31.3945V24.8906Z" fill="black" fill-opacity="0.2"/>
<path d="M166.211 24.2695V33H165.168L160.422 26.1445H160.328V33H159.273V24.2695H160.293L165.074 31.1367H165.156V24.2695H166.211ZM170.371 33.1406C169.742 33.1406 169.197 33 168.736 32.7188C168.279 32.4375 167.928 32.0449 167.682 31.541C167.436 31.0332 167.313 30.4453 167.313 29.7773C167.313 29.1055 167.434 28.5137 167.676 28.002C167.918 27.4902 168.258 27.0898 168.695 26.8008C169.137 26.5117 169.652 26.3672 170.242 26.3672C170.582 26.3672 170.92 26.4238 171.256 26.5371C171.592 26.6504 171.896 26.834 172.17 27.0879C172.447 27.3418 172.668 27.6777 172.832 28.0957C172.996 28.5137 173.078 29.0273 173.078 29.6367V30.0703H168.027V29.2031H172.533L172.07 29.5313C172.07 29.0938 172.002 28.7051 171.865 28.3652C171.729 28.0254 171.523 27.7578 171.25 27.5625C170.98 27.3672 170.645 27.2695 170.242 27.2695C169.84 27.2695 169.494 27.3691 169.205 27.5684C168.92 27.7637 168.701 28.0195 168.549 28.3359C168.396 28.6523 168.32 28.9922 168.32 29.3555V29.9297C168.32 30.4258 168.406 30.8457 168.578 31.1895C168.75 31.5332 168.99 31.7949 169.299 31.9746C169.607 32.1504 169.965 32.2383 170.371 32.2383C170.633 32.2383 170.871 32.2012 171.086 32.127C171.301 32.0488 171.486 31.9336 171.643 31.7813C171.799 31.625 171.918 31.4336 172 31.207L172.973 31.4883C172.871 31.8164 172.699 32.1055 172.457 32.3555C172.219 32.6016 171.922 32.7949 171.566 32.9355C171.211 33.0723 170.813 33.1406 170.371 33.1406ZM175.949 33.1523C175.535 33.1523 175.158 33.0742 174.818 32.918C174.479 32.7578 174.209 32.5273 174.01 32.2266C173.811 31.9258 173.711 31.5625 173.711 31.1367C173.711 30.7617 173.785 30.459 173.934 30.2285C174.082 29.9941 174.279 29.8105 174.525 29.6777C174.775 29.541 175.049 29.4395 175.346 29.373C175.646 29.3066 175.949 29.2539 176.254 29.2148C176.652 29.1641 176.975 29.125 177.221 29.0977C177.471 29.0703 177.652 29.0234 177.766 28.957C177.883 28.8906 177.941 28.7773 177.941 28.6172V28.582C177.941 28.1641 177.826 27.8398 177.596 27.6094C177.369 27.375 177.023 27.2578 176.559 27.2578C176.082 27.2578 175.707 27.3633 175.434 27.5742C175.16 27.7813 174.969 28.0039 174.859 28.2422L173.898 27.9023C174.07 27.5039 174.299 27.1934 174.584 26.9707C174.873 26.748 175.186 26.5918 175.521 26.502C175.861 26.4121 176.195 26.3672 176.523 26.3672C176.734 26.3672 176.977 26.3926 177.25 26.4434C177.523 26.4902 177.789 26.5918 178.047 26.748C178.309 26.9004 178.523 27.1328 178.691 27.4453C178.863 27.7539 178.949 28.168 178.949 28.6875V33H177.941V32.1094H177.895C177.828 32.25 177.715 32.4023 177.555 32.5664C177.395 32.7266 177.182 32.8652 176.916 32.9824C176.654 33.0957 176.332 33.1523 175.949 33.1523ZM176.102 32.25C176.5 32.25 176.836 32.1719 177.109 32.0156C177.383 31.8594 177.59 31.6582 177.73 31.4121C177.871 31.1621 177.941 30.9023 177.941 30.6328V29.707C177.898 29.7578 177.805 29.8047 177.66 29.8477C177.52 29.8867 177.355 29.9219 177.168 29.9531C176.984 29.9844 176.805 30.0117 176.629 30.0352C176.453 30.0547 176.313 30.0703 176.207 30.082C175.945 30.1172 175.701 30.1738 175.475 30.252C175.248 30.3262 175.064 30.4375 174.924 30.5859C174.787 30.7344 174.719 30.9375 174.719 31.1953C174.719 31.543 174.848 31.8066 175.105 31.9863C175.367 32.1621 175.699 32.25 176.102 32.25ZM180.238 33V26.4492H181.199V27.4453H181.27C181.391 27.1211 181.607 26.8594 181.92 26.6602C182.236 26.457 182.59 26.3555 182.98 26.3555C183.055 26.3555 183.146 26.3574 183.256 26.3613C183.365 26.3613 183.449 26.3633 183.508 26.3672V27.3867C183.473 27.3789 183.395 27.3672 183.273 27.3516C183.152 27.3359 183.023 27.3281 182.887 27.3281C182.57 27.3281 182.287 27.3945 182.037 27.5273C181.787 27.6602 181.59 27.8418 181.445 28.0723C181.305 28.3027 181.234 28.5664 181.234 28.8633V33H180.238ZM186.684 33.1406C186.055 33.1406 185.51 33 185.049 32.7188C184.592 32.4375 184.24 32.0449 183.994 31.541C183.748 31.0332 183.625 30.4453 183.625 29.7773C183.625 29.1055 183.746 28.5137 183.988 28.002C184.23 27.4902 184.57 27.0898 185.008 26.8008C185.449 26.5117 185.965 26.3672 186.555 26.3672C186.895 26.3672 187.232 26.4238 187.568 26.5371C187.904 26.6504 188.209 26.834 188.482 27.0879C188.76 27.3418 188.98 27.6777 189.145 28.0957C189.309 28.5137 189.391 29.0273 189.391 29.6367V30.0703H184.34V29.2031H188.846L188.383 29.5313C188.383 29.0938 188.314 28.7051 188.178 28.3652C188.041 28.0254 187.836 27.7578 187.563 27.5625C187.293 27.3672 186.957 27.2695 186.555 27.2695C186.152 27.2695 185.807 27.3691 185.518 27.5684C185.232 27.7637 185.014 28.0195 184.861 28.3359C184.709 28.6523 184.633 28.9922 184.633 29.3555V29.9297C184.633 30.4258 184.719 30.8457 184.891 31.1895C185.063 31.5332 185.303 31.7949 185.611 31.9746C185.92 32.1504 186.277 32.2383 186.684 32.2383C186.945 32.2383 187.184 32.2012 187.398 32.127C187.613 32.0488 187.799 31.9336 187.955 31.7813C188.111 31.625 188.23 31.4336 188.313 31.207L189.285 31.4883C189.184 31.8164 189.012 32.1055 188.77 32.3555C188.531 32.6016 188.234 32.7949 187.879 32.9355C187.523 33.0723 187.125 33.1406 186.684 33.1406ZM194.969 27.9258L194.066 28.1719C193.98 27.9492 193.832 27.7383 193.621 27.5391C193.414 27.3359 193.09 27.2344 192.648 27.2344C192.25 27.2344 191.918 27.3281 191.652 27.5156C191.387 27.6992 191.254 27.9297 191.254 28.207C191.254 28.457 191.344 28.6563 191.523 28.8047C191.707 28.9531 191.992 29.0742 192.379 29.168L193.352 29.4023C193.934 29.543 194.367 29.7598 194.652 30.0527C194.941 30.3457 195.086 30.7188 195.086 31.1719C195.086 31.5469 194.979 31.8828 194.764 32.1797C194.549 32.4766 194.25 32.7109 193.867 32.8828C193.484 33.0547 193.039 33.1406 192.531 33.1406C191.863 33.1406 191.311 32.9941 190.873 32.7012C190.439 32.4082 190.164 31.9844 190.047 31.4297L190.996 31.1953C191.086 31.5469 191.258 31.8105 191.512 31.9863C191.77 32.1621 192.105 32.25 192.52 32.25C192.984 32.25 193.355 32.1504 193.633 31.9512C193.914 31.748 194.055 31.5078 194.055 31.2305C194.055 30.7695 193.73 30.4609 193.082 30.3047L191.992 30.0469C191.391 29.9023 190.949 29.6816 190.668 29.3848C190.387 29.0879 190.246 28.7148 190.246 28.2656C190.246 27.8945 190.35 27.5664 190.557 27.2813C190.768 26.9961 191.055 26.7734 191.418 26.6133C191.781 26.4492 192.191 26.3672 192.648 26.3672C193.301 26.3672 193.811 26.5117 194.178 26.8008C194.549 27.0859 194.813 27.4609 194.969 27.9258ZM198.883 26.4492V27.3047H195.496V26.4492H198.883ZM196.48 24.8906H197.477V31.125C197.477 31.4648 197.547 31.7148 197.688 31.875C197.828 32.0313 198.051 32.1094 198.355 32.1094C198.422 32.1094 198.49 32.1055 198.561 32.0977C198.635 32.0898 198.715 32.0781 198.801 32.0625L199.012 32.9648C198.918 33 198.803 33.0273 198.666 33.0469C198.533 33.0703 198.398 33.082 198.262 33.082C197.734 33.082 197.305 32.9258 196.973 32.6133C196.645 32.3008 196.48 31.8945 196.48 31.3945V24.8906Z" fill="black" fill-opacity="0.2"/>
<path d="M166.211 24.2695V33H165.168L160.422 26.1445H160.328V33H159.273V24.2695H160.293L165.074 31.1367H165.156V24.2695H166.211ZM170.371 33.1406C169.742 33.1406 169.197 33 168.736 32.7188C168.279 32.4375 167.928 32.0449 167.682 31.541C167.436 31.0332 167.313 30.4453 167.313 29.7773C167.313 29.1055 167.434 28.5137 167.676 28.002C167.918 27.4902 168.258 27.0898 168.695 26.8008C169.137 26.5117 169.652 26.3672 170.242 26.3672C170.582 26.3672 170.92 26.4238 171.256 26.5371C171.592 26.6504 171.896 26.834 172.17 27.0879C172.447 27.3418 172.668 27.6777 172.832 28.0957C172.996 28.5137 173.078 29.0273 173.078 29.6367V30.0703H168.027V29.2031H172.533L172.07 29.5313C172.07 29.0938 172.002 28.7051 171.865 28.3652C171.729 28.0254 171.523 27.7578 171.25 27.5625C170.98 27.3672 170.645 27.2695 170.242 27.2695C169.84 27.2695 169.494 27.3691 169.205 27.5684C168.92 27.7637 168.701 28.0195 168.549 28.3359C168.396 28.6523 168.32 28.9922 168.32 29.3555V29.9297C168.32 30.4258 168.406 30.8457 168.578 31.1895C168.75 31.5332 168.99 31.7949 169.299 31.9746C169.607 32.1504 169.965 32.2383 170.371 32.2383C170.633 32.2383 170.871 32.2012 171.086 32.127C171.301 32.0488 171.486 31.9336 171.643 31.7813C171.799 31.625 171.918 31.4336 172 31.207L172.973 31.4883C172.871 31.8164 172.699 32.1055 172.457 32.3555C172.219 32.6016 171.922 32.7949 171.566 32.9355C171.211 33.0723 170.813 33.1406 170.371 33.1406ZM175.949 33.1523C175.535 33.1523 175.158 33.0742 174.818 32.918C174.479 32.7578 174.209 32.5273 174.01 32.2266C173.811 31.9258 173.711 31.5625 173.711 31.1367C173.711 30.7617 173.785 30.459 173.934 30.2285C174.082 29.9941 174.279 29.8105 174.525 29.6777C174.775 29.541 175.049 29.4395 175.346 29.373C175.646 29.3066 175.949 29.2539 176.254 29.2148C176.652 29.1641 176.975 29.125 177.221 29.0977C177.471 29.0703 177.652 29.0234 177.766 28.957C177.883 28.8906 177.941 28.7773 177.941 28.6172V28.582C177.941 28.1641 177.826 27.8398 177.596 27.6094C177.369 27.375 177.023 27.2578 176.559 27.2578C176.082 27.2578 175.707 27.3633 175.434 27.5742C175.16 27.7813 174.969 28.0039 174.859 28.2422L173.898 27.9023C174.07 27.5039 174.299 27.1934 174.584 26.9707C174.873 26.748 175.186 26.5918 175.521 26.502C175.861 26.4121 176.195 26.3672 176.523 26.3672C176.734 26.3672 176.977 26.3926 177.25 26.4434C177.523 26.4902 177.789 26.5918 178.047 26.748C178.309 26.9004 178.523 27.1328 178.691 27.4453C178.863 27.7539 178.949 28.168 178.949 28.6875V33H177.941V32.1094H177.895C177.828 32.25 177.715 32.4023 177.555 32.5664C177.395 32.7266 177.182 32.8652 176.916 32.9824C176.654 33.0957 176.332 33.1523 175.949 33.1523ZM176.102 32.25C176.5 32.25 176.836 32.1719 177.109 32.0156C177.383 31.8594 177.59 31.6582 177.73 31.4121C177.871 31.1621 177.941 30.9023 177.941 30.6328V29.707C177.898 29.7578 177.805 29.8047 177.66 29.8477C177.52 29.8867 177.355 29.9219 177.168 29.9531C176.984 29.9844 176.805 30.0117 176.629 30.0352C176.453 30.0547 176.313 30.0703 176.207 30.082C175.945 30.1172 175.701 30.1738 175.475 30.252C175.248 30.3262 175.064 30.4375 174.924 30.5859C174.787 30.7344 174.719 30.9375 174.719 31.1953C174.719 31.543 174.848 31.8066 175.105 31.9863C175.367 32.1621 175.699 32.25 176.102 32.25ZM180.238 33V26.4492H181.199V27.4453H181.27C181.391 27.1211 181.607 26.8594 181.92 26.6602C182.236 26.457 182.59 26.3555 182.98 26.3555C183.055 26.3555 183.146 26.3574 183.256 26.3613C183.365 26.3613 183.449 26.3633 183.508 26.3672V27.3867C183.473 27.3789 183.395 27.3672 183.273 27.3516C183.152 27.3359 183.023 27.3281 182.887 27.3281C182.57 27.3281 182.287 27.3945 182.037 27.5273C181.787 27.6602 181.59 27.8418 181.445 28.0723C181.305 28.3027 181.234 28.5664 181.234 28.8633V33H180.238ZM186.684 33.1406C186.055 33.1406 185.51 33 185.049 32.7188C184.592 32.4375 184.24 32.0449 183.994 31.541C183.748 31.0332 183.625 30.4453 183.625 29.7773C183.625 29.1055 183.746 28.5137 183.988 28.002C184.23 27.4902 184.57 27.0898 185.008 26.8008C185.449 26.5117 185.965 26.3672 186.555 26.3672C186.895 26.3672 187.232 26.4238 187.568 26.5371C187.904 26.6504 188.209 26.834 188.482 27.0879C188.76 27.3418 188.98 27.6777 189.145 28.0957C189.309 28.5137 189.391 29.0273 189.391 29.6367V30.0703H184.34V29.2031H188.846L188.383 29.5313C188.383 29.0938 188.314 28.7051 188.178 28.3652C188.041 28.0254 187.836 27.7578 187.563 27.5625C187.293 27.3672 186.957 27.2695 186.555 27.2695C186.152 27.2695 185.807 27.3691 185.518 27.5684C185.232 27.7637 185.014 28.0195 184.861 28.3359C184.709 28.6523 184.633 28.9922 184.633 29.3555V29.9297C184.633 30.4258 184.719 30.8457 184.891 31.1895C185.063 31.5332 185.303 31.7949 185.611 31.9746C185.92 32.1504 186.277 32.2383 186.684 32.2383C186.945 32.2383 187.184 32.2012 187.398 32.127C187.613 32.0488 187.799 31.9336 187.955 31.7813C188.111 31.625 188.23 31.4336 188.313 31.207L189.285 31.4883C189.184 31.8164 189.012 32.1055 188.77 32.3555C188.531 32.6016 188.234 32.7949 187.879 32.9355C187.523 33.0723 187.125 33.1406 186.684 33.1406ZM194.969 27.9258L194.066 28.1719C193.98 27.9492 193.832 27.7383 193.621 27.5391C193.414 27.3359 193.09 27.2344 192.648 27.2344C192.25 27.2344 191.918 27.3281 191.652 27.5156C191.387 27.6992 191.254 27.9297 191.254 28.207C191.254 28.457 191.344 28.6563 191.523 28.8047C191.707 28.9531 191.992 29.0742 192.379 29.168L193.352 29.4023C193.934 29.543 194.367 29.7598 194.652 30.0527C194.941 30.3457 195.086 30.7188 195.086 31.1719C195.086 31.5469 194.979 31.8828 194.764 32.1797C194.549 32.4766 194.25 32.7109 193.867 32.8828C193.484 33.0547 193.039 33.1406 192.531 33.1406C191.863 33.1406 191.311 32.9941 190.873 32.7012C190.439 32.4082 190.164 31.9844 190.047 31.4297L190.996 31.1953C191.086 31.5469 191.258 31.8105 191.512 31.9863C191.77 32.1621 192.105 32.25 192.52 32.25C192.984 32.25 193.355 32.1504 193.633 31.9512C193.914 31.748 194.055 31.5078 194.055 31.2305C194.055 30.7695 193.73 30.4609 193.082 30.3047L191.992 30.0469C191.391 29.9023 190.949 29.6816 190.668 29.3848C190.387 29.0879 190.246 28.7148 190.246 28.2656C190.246 27.8945 190.35 27.5664 190.557 27.2813C190.768 26.9961 191.055 26.7734 191.418 26.6133C191.781 26.4492 192.191 26.3672 192.648 26.3672C193.301 26.3672 193.811 26.5117 194.178 26.8008C194.549 27.0859 194.813 27.4609 194.969 27.9258ZM198.883 26.4492V27.3047H195.496V26.4492H198.883ZM196.48 24.8906H197.477V31.125C197.477 31.4648 197.547 31.7148 197.688 31.875C197.828 32.0313 198.051 32.1094 198.355 32.1094C198.422 32.1094 198.49 32.1055 198.561 32.0977C198.635 32.0898 198.715 32.0781 198.801 32.0625L199.012 32.9648C198.918 33 198.803 33.0273 198.666 33.0469C198.533 33.0703 198.398 33.082 198.262 33.082C197.734 33.082 197.305 32.9258 196.973 32.6133C196.645 32.3008 196.48 31.8945 196.48 31.3945V24.8906Z" fill="black" fill-opacity="0.2"/>
<path d="M21.5723 65.1367C20.6973 65.1367 19.9134 64.9271 19.2207 64.5078C18.528 64.0885 17.9834 63.4893 17.5869 62.71C17.1904 61.9261 16.9922 60.9941 16.9922 59.9141C16.9922 58.8249 17.1904 57.8906 17.5869 57.1113C17.988 56.3275 18.5326 55.7259 19.2207 55.3066C19.9134 54.8874 20.6973 54.6777 21.5723 54.6777C22.11 54.6777 22.6136 54.7552 23.083 54.9102C23.557 55.0651 23.9808 55.2907 24.3545 55.5869C24.7282 55.8831 25.0358 56.2454 25.2773 56.6738C25.5234 57.1022 25.6875 57.5876 25.7695 58.1299H24.2246C24.1654 57.7972 24.0537 57.5055 23.8896 57.2549C23.7301 56.9997 23.5319 56.7855 23.2949 56.6123C23.0625 56.4346 22.8005 56.3024 22.5088 56.2158C22.2217 56.1247 21.9163 56.0791 21.5928 56.0791C21.0094 56.0791 20.4831 56.2272 20.0137 56.5234C19.5488 56.8151 19.182 57.248 18.9131 57.8223C18.6488 58.3919 18.5166 59.0892 18.5166 59.9141C18.5166 60.7435 18.651 61.443 18.9199 62.0127C19.1888 62.5778 19.5557 63.0062 20.0205 63.2979C20.4854 63.5895 21.0072 63.7354 21.5859 63.7354C21.9095 63.7354 22.2148 63.6921 22.502 63.6055C22.7891 63.5189 23.0511 63.389 23.2881 63.2158C23.5251 63.0426 23.7233 62.833 23.8828 62.5869C24.0469 62.3363 24.1608 62.0469 24.2246 61.7188H25.7695C25.6921 62.2246 25.5348 62.6872 25.2979 63.1064C25.0609 63.5212 24.7578 63.8812 24.3887 64.1865C24.0195 64.4873 23.598 64.722 23.124 64.8906C22.6501 65.0547 22.1328 65.1367 21.5723 65.1367ZM29.1328 65.1641C28.6497 65.1641 28.2122 65.0752 27.8203 64.8975C27.4284 64.7152 27.1185 64.4508 26.8906 64.1045C26.6628 63.7581 26.5488 63.3366 26.5488 62.8398C26.5488 62.4069 26.6309 62.0537 26.7949 61.7803C26.9635 61.5023 27.1891 61.2813 27.4717 61.1172C27.7542 60.9531 28.0687 60.8301 28.415 60.748C28.7614 60.666 29.1169 60.6022 29.4814 60.5566C29.9417 60.5065 30.3132 60.4632 30.5957 60.4268C30.8783 60.3903 31.0833 60.3333 31.2109 60.2559C31.3431 60.1738 31.4092 60.0439 31.4092 59.8662V59.832C31.4092 59.3991 31.2861 59.0641 31.04 58.8271C30.7985 58.5902 30.4385 58.4717 29.96 58.4717C29.4632 58.4717 29.069 58.5811 28.7773 58.7998C28.4902 59.014 28.292 59.2578 28.1826 59.5313L26.7813 59.21C26.9499 58.7451 27.1937 58.3714 27.5127 58.0889C27.8363 57.8018 28.2054 57.5921 28.6201 57.46C29.0394 57.3278 29.4769 57.2617 29.9326 57.2617C30.238 57.2617 30.5615 57.2982 30.9033 57.3711C31.2451 57.4395 31.5664 57.5693 31.8672 57.7607C32.1725 57.9476 32.4209 58.2165 32.6123 58.5674C32.8037 58.9183 32.8994 59.3717 32.8994 59.9277V65H31.4434V63.9541H31.3887C31.2975 64.141 31.154 64.3278 30.958 64.5147C30.7666 64.7015 30.5205 64.8564 30.2197 64.9795C29.9189 65.1025 29.5566 65.1641 29.1328 65.1641ZM29.4541 63.9746C29.8688 63.9746 30.222 63.8949 30.5137 63.7354C30.8053 63.5713 31.0286 63.3571 31.1836 63.0928C31.3385 62.8285 31.416 62.5482 31.416 62.252V61.2607C31.3613 61.3109 31.2588 61.3587 31.1084 61.4043C30.958 61.4499 30.7871 61.4886 30.5957 61.5205C30.4043 61.5524 30.2174 61.582 30.0352 61.6094C29.8529 61.6322 29.7002 61.6504 29.5771 61.6641C29.29 61.7051 29.028 61.7689 28.791 61.8555C28.554 61.9375 28.3626 62.0605 28.2168 62.2246C28.0755 62.3841 28.0049 62.596 28.0049 62.8604C28.0049 63.2295 28.1416 63.5075 28.415 63.6943C28.6885 63.8812 29.0348 63.9746 29.4541 63.9746ZM34.3281 65V57.3574H35.7568V58.5811H35.8389C35.9801 58.1709 36.2262 57.8473 36.5772 57.6104C36.9326 57.3688 37.3337 57.248 37.7803 57.248C37.8714 57.248 37.9785 57.2526 38.1016 57.2617C38.2292 57.2663 38.3317 57.2731 38.4092 57.2822V58.7041C38.3499 58.6859 38.2428 58.6676 38.0879 58.6494C37.9375 58.6312 37.7848 58.6221 37.6299 58.6221C37.279 58.6221 36.9645 58.6973 36.6865 58.8477C36.4131 58.9935 36.1966 59.1963 36.0371 59.4561C35.8822 59.7113 35.8047 60.0075 35.8047 60.3447V65H34.3281ZM43.1191 57.3574V58.5537H38.9492V57.3574H43.1191ZM40.0635 55.5391H41.5469V62.7578C41.5469 63.1087 41.6198 63.3662 41.7656 63.5303C41.9115 63.6898 42.1462 63.7695 42.4697 63.7695C42.5472 63.7695 42.6292 63.765 42.7158 63.7559C42.807 63.7467 42.8981 63.7331 42.9893 63.7148L43.2695 64.9453C43.1191 64.9954 42.9551 65.0342 42.7773 65.0615C42.5996 65.0889 42.4219 65.1025 42.2441 65.1025C41.5833 65.1025 41.0547 64.918 40.6582 64.5488C40.2617 64.1751 40.0635 63.6784 40.0635 63.0586V55.5391ZM47.3916 65.1572C46.6442 65.1572 45.9971 64.9954 45.4502 64.6719C44.9033 64.3483 44.4818 63.8926 44.1856 63.3047C43.8939 62.7122 43.7481 62.0218 43.7481 61.2334C43.7481 60.4495 43.8916 59.7591 44.1787 59.1621C44.4704 58.5651 44.8783 58.1003 45.4023 57.7676C45.931 57.4303 46.5508 57.2617 47.2617 57.2617C47.6947 57.2617 48.1139 57.3324 48.5195 57.4736C48.9251 57.6149 49.2897 57.8382 49.6133 58.1436C49.9369 58.4489 50.1921 58.8454 50.3789 59.333C50.5703 59.8206 50.666 60.4085 50.666 61.0967V61.6299H44.5889V60.5156H49.9004L49.21 60.8848C49.21 60.4154 49.137 60.0007 48.9912 59.6406C48.8454 59.2806 48.6266 59.0003 48.335 58.7998C48.0479 58.5947 47.6901 58.4922 47.2617 58.4922C46.8333 58.4922 46.4665 58.5947 46.1611 58.7998C45.8604 59.0049 45.6302 59.276 45.4707 59.6133C45.3112 59.9505 45.2314 60.3197 45.2314 60.7207V61.4795C45.2314 62.0036 45.3226 62.4479 45.5049 62.8125C45.6872 63.1771 45.9401 63.4551 46.2637 63.6465C46.5918 63.8379 46.9723 63.9336 47.4053 63.9336C47.6878 63.9336 47.943 63.8926 48.1709 63.8105C48.4033 63.7285 48.6038 63.6055 48.7725 63.4414C48.9411 63.2773 49.0687 63.0745 49.1553 62.833L50.5635 63.0996C50.4495 63.5098 50.249 63.8698 49.9619 64.1797C49.6748 64.4896 49.3125 64.7311 48.875 64.9043C48.4421 65.0729 47.9476 65.1572 47.3916 65.1572ZM51.7051 65V57.3574H53.1338V58.5811H53.2158C53.3571 58.1709 53.6032 57.8473 53.9541 57.6104C54.3096 57.3688 54.7106 57.248 55.1572 57.248C55.2484 57.248 55.3555 57.2526 55.4785 57.2617C55.6061 57.2663 55.7087 57.2731 55.7861 57.2822V58.7041C55.7269 58.6859 55.6198 58.6676 55.4648 58.6494C55.3145 58.6312 55.1618 58.6221 55.0068 58.6221C54.6559 58.6221 54.3415 58.6973 54.0635 58.8477C53.79 58.9935 53.5736 59.1963 53.4141 59.4561C53.2591 59.7113 53.1816 60.0075 53.1816 60.3447V65H51.7051ZM56.8389 58.7998L57.4404 54.8145H59.04L57.9121 58.7998H56.8389ZM65.2402 59.2305L63.8936 59.4629C63.807 59.2077 63.6452 58.973 63.4082 58.7588C63.1758 58.5446 62.8272 58.4375 62.3623 58.4375C61.943 58.4375 61.5921 58.5332 61.3096 58.7246C61.0316 58.9115 60.8926 59.1507 60.8926 59.4424C60.8926 59.6976 60.986 59.9049 61.1729 60.0645C61.3643 60.224 61.6673 60.3516 62.082 60.4473L63.3057 60.7207C64.0029 60.8802 64.5247 61.1309 64.8711 61.4727C65.2175 61.8145 65.3906 62.252 65.3906 62.7852C65.3906 63.2454 65.2585 63.6556 64.9941 64.0156C64.7298 64.3711 64.363 64.6514 63.8936 64.8564C63.4242 65.057 62.8818 65.1572 62.2666 65.1572C61.4098 65.1572 60.7126 64.9727 60.1748 64.6035C59.637 64.2344 59.3066 63.7148 59.1836 63.0449L60.6123 62.8262C60.7035 63.1999 60.888 63.4824 61.166 63.6738C61.4486 63.8652 61.8132 63.9609 62.2598 63.9609C62.7428 63.9609 63.1302 63.8584 63.4219 63.6533C63.7181 63.4482 63.8662 63.1999 63.8662 62.9082C63.8662 62.4251 63.5062 62.0993 62.7861 61.9307L61.4941 61.6436C60.7787 61.4795 60.25 61.222 59.9082 60.8711C59.571 60.5156 59.4023 60.069 59.4023 59.5313C59.4023 59.0801 59.5277 58.6836 59.7783 58.3418C60.0335 58 60.3822 57.7357 60.8242 57.5488C61.2708 57.3574 61.779 57.2617 62.3486 57.2617C63.1781 57.2617 63.8275 57.4417 64.2969 57.8018C64.7708 58.1618 65.0853 58.638 65.2402 59.2305ZM72.7529 65.1572C72.0192 65.1572 71.3857 64.9886 70.8525 64.6514C70.3193 64.3141 69.9092 63.8493 69.6221 63.2568C69.335 62.6644 69.1914 61.9854 69.1914 61.2197C69.1914 60.4404 69.3372 59.7546 69.6289 59.1621C69.9251 58.5651 70.3376 58.1003 70.8662 57.7676C71.3994 57.4303 72.0238 57.2617 72.7393 57.2617C73.3226 57.2617 73.8399 57.3688 74.291 57.583C74.7468 57.7926 75.1136 58.0911 75.3916 58.4785C75.6742 58.8659 75.8405 59.3171 75.8906 59.832H74.4414C74.3913 59.5905 74.2933 59.3695 74.1475 59.1689C74.0062 58.9684 73.8193 58.8089 73.5869 58.6904C73.3545 58.5719 73.0788 58.5127 72.7598 58.5127C72.3451 58.5127 71.9828 58.6221 71.6729 58.8408C71.3675 59.055 71.1283 59.3626 70.9551 59.7637C70.7819 60.1647 70.6953 60.6387 70.6953 61.1855C70.6953 61.737 70.7796 62.2178 70.9482 62.6279C71.1169 63.0381 71.3561 63.3548 71.666 63.5781C71.9805 63.7969 72.3451 63.9063 72.7598 63.9063C73.1882 63.9063 73.5527 63.7878 73.8535 63.5508C74.1589 63.3138 74.3548 62.9902 74.4414 62.5801H75.8906C75.8405 63.0768 75.681 63.5189 75.4121 63.9063C75.1432 64.2936 74.7832 64.599 74.332 64.8223C73.8809 65.0456 73.3545 65.1572 72.7529 65.1572ZM79.1582 65.1641C78.6751 65.1641 78.2376 65.0752 77.8457 64.8975C77.4538 64.7152 77.1439 64.4508 76.916 64.1045C76.6882 63.7581 76.5742 63.3366 76.5742 62.8398C76.5742 62.4069 76.6563 62.0537 76.8203 61.7803C76.9889 61.5023 77.2145 61.2813 77.4971 61.1172C77.7796 60.9531 78.0941 60.8301 78.4404 60.748C78.7868 60.666 79.1423 60.6022 79.5068 60.5566C79.9671 60.5065 80.3385 60.4632 80.6211 60.4268C80.9037 60.3903 81.1087 60.3333 81.2363 60.2559C81.3685 60.1738 81.4346 60.0439 81.4346 59.8662V59.832C81.4346 59.3991 81.3115 59.0641 81.0654 58.8271C80.8239 58.5902 80.4639 58.4717 79.9854 58.4717C79.4886 58.4717 79.0944 58.5811 78.8027 58.7998C78.5156 59.014 78.3174 59.2578 78.208 59.5313L76.8066 59.21C76.9753 58.7451 77.2191 58.3714 77.5381 58.0889C77.8617 57.8018 78.2308 57.5921 78.6455 57.46C79.0648 57.3278 79.5023 57.2617 79.958 57.2617C80.2634 57.2617 80.5869 57.2982 80.9287 57.3711C81.2705 57.4395 81.5918 57.5693 81.8926 57.7607C82.1979 57.9476 82.4463 58.2165 82.6377 58.5674C82.8291 58.9183 82.9248 59.3717 82.9248 59.9277V65H81.4688V63.9541H81.4141C81.3229 64.141 81.1794 64.3278 80.9834 64.5147C80.792 64.7015 80.5459 64.8564 80.2451 64.9795C79.9443 65.1025 79.582 65.1641 79.1582 65.1641ZM79.4795 63.9746C79.8942 63.9746 80.2474 63.8949 80.5391 63.7354C80.8307 63.5713 81.054 63.3571 81.209 63.0928C81.3639 62.8285 81.4414 62.5482 81.4414 62.252V61.2607C81.3867 61.3109 81.2842 61.3587 81.1338 61.4043C80.9834 61.4499 80.8125 61.4886 80.6211 61.5205C80.4297 61.5524 80.2428 61.582 80.0606 61.6094C79.8783 61.6322 79.7256 61.6504 79.6025 61.6641C79.3154 61.7051 79.0534 61.7689 78.8164 61.8555C78.5794 61.9375 78.388 62.0605 78.2422 62.2246C78.1009 62.3841 78.0303 62.596 78.0303 62.8604C78.0303 63.2295 78.167 63.5075 78.4404 63.6943C78.7139 63.8812 79.0602 63.9746 79.4795 63.9746ZM87.9902 57.3574V58.5537H83.6768V57.3574H87.9902ZM84.8525 65V56.4688C84.8525 55.9948 84.9574 55.6006 85.167 55.2861C85.3812 54.9671 85.6592 54.7301 86.001 54.5752C86.3473 54.4157 86.7188 54.3359 87.1152 54.3359C87.4206 54.3359 87.6803 54.361 87.8945 54.4111C88.1087 54.4613 88.266 54.5046 88.3662 54.541L88.0108 55.7441C87.9424 55.7214 87.8535 55.6963 87.7441 55.6689C87.6393 55.6416 87.5072 55.6279 87.3477 55.6279C86.9876 55.6279 86.7279 55.7191 86.5684 55.9014C86.4089 56.0791 86.3291 56.3389 86.3291 56.6807V65H84.8525ZM91.9209 65.1572C91.1735 65.1572 90.5264 64.9954 89.9795 64.6719C89.4326 64.3483 89.0111 63.8926 88.7149 63.3047C88.4232 62.7122 88.2774 62.0218 88.2774 61.2334C88.2774 60.4495 88.4209 59.7591 88.708 59.1621C88.9997 58.5651 89.4076 58.1003 89.9316 57.7676C90.4603 57.4303 91.0801 57.2617 91.791 57.2617C92.224 57.2617 92.6432 57.3324 93.0488 57.4736C93.4544 57.6149 93.819 57.8382 94.1426 58.1436C94.4662 58.4489 94.7214 58.8454 94.9082 59.333C95.0996 59.8206 95.1953 60.4085 95.1953 61.0967V61.6299H89.1182V60.5156H94.4297L93.7393 60.8848C93.7393 60.4154 93.6664 60.0007 93.5205 59.6406C93.3747 59.2806 93.1559 59.0003 92.8643 58.7998C92.5772 58.5947 92.2194 58.4922 91.791 58.4922C91.3626 58.4922 90.9958 58.5947 90.6904 58.7998C90.3897 59.0049 90.1595 59.276 90 59.6133C89.8405 59.9505 89.7608 60.3197 89.7608 60.7207V61.4795C89.7608 62.0036 89.8519 62.4479 90.0342 62.8125C90.2165 63.1771 90.4694 63.4551 90.793 63.6465C91.1211 63.8379 91.5016 63.9336 91.9346 63.9336C92.2171 63.9336 92.4723 63.8926 92.7002 63.8105C92.9326 63.7285 93.1331 63.6055 93.3018 63.4414C93.4704 63.2773 93.598 63.0745 93.6846 62.833L95.0928 63.0996C94.9789 63.5098 94.7783 63.8698 94.4912 64.1797C94.2041 64.4896 93.8418 64.7311 93.4043 64.9043C92.9714 65.0729 92.4769 65.1572 91.9209 65.1572ZM91.1143 56.4004L92.0713 54.459H93.6025L92.2559 56.4004H91.1143Z" fill="#FCFCFC"/>
<path d="M17.3906 87L21.293 79.2773V79.207H16.793V78.2695H22.3945V79.2656L18.5039 87H17.3906ZM25.9102 87.1172C25.3242 87.1172 24.8086 87.0137 24.3633 86.8066C23.918 86.5957 23.5703 86.3066 23.3203 85.9395C23.0703 85.5723 22.9453 85.1523 22.9453 84.6797C22.9453 84.3125 23.0176 83.9727 23.1621 83.6602C23.3105 83.3438 23.5117 83.0801 23.7656 82.8691C24.0234 82.6582 24.3125 82.5234 24.6328 82.4648V82.418C24.2148 82.3086 23.8809 82.0723 23.6309 81.709C23.3848 81.3457 23.2617 80.9336 23.2617 80.4727C23.2617 80.0273 23.375 79.6309 23.6016 79.2832C23.8281 78.9316 24.1406 78.6563 24.5391 78.457C24.9414 78.2539 25.3984 78.1523 25.9102 78.1523C26.4141 78.1523 26.8652 78.2539 27.2637 78.457C27.6621 78.6563 27.9746 78.9316 28.2012 79.2832C28.4316 79.6309 28.5469 80.0273 28.5469 80.4727C28.5469 80.9336 28.4219 81.3457 28.1719 81.709C27.9219 82.0723 27.5938 82.3086 27.1875 82.418V82.4648C27.5 82.5234 27.7832 82.6582 28.0371 82.8691C28.2949 83.0801 28.498 83.3438 28.6465 83.6602C28.7988 83.9727 28.875 84.3125 28.875 84.6797C28.875 85.1523 28.748 85.5723 28.4941 85.9395C28.2441 86.3066 27.8965 86.5957 27.4512 86.8066C27.0059 87.0137 26.4922 87.1172 25.9102 87.1172ZM25.9102 86.1797C26.3047 86.1797 26.6445 86.1172 26.9297 85.9922C27.2188 85.8633 27.4414 85.6836 27.5977 85.4531C27.7539 85.2188 27.832 84.9453 27.832 84.6328C27.832 84.3047 27.748 84.0137 27.5801 83.7598C27.4121 83.5059 27.1836 83.3066 26.8945 83.1621C26.6055 83.0176 26.2773 82.9453 25.9102 82.9453C25.5352 82.9453 25.2012 83.0176 24.9082 83.1621C24.6191 83.3066 24.3906 83.5059 24.2227 83.7598C24.0586 84.0137 23.9766 84.3047 23.9766 84.6328C23.9766 84.9453 24.0547 85.2188 24.2109 85.4531C24.3672 85.6836 24.5898 85.8633 24.8789 85.9922C25.168 86.1172 25.5117 86.1797 25.9102 86.1797ZM25.9102 82.043C26.2227 82.043 26.5 81.9805 26.7422 81.8555C26.9844 81.7305 27.1758 81.5566 27.3164 81.334C27.457 81.1074 27.5273 80.8438 27.5273 80.543C27.5273 80.2461 27.459 79.9883 27.3223 79.7695C27.1855 79.5508 26.9961 79.3809 26.7539 79.2598C26.5117 79.1387 26.2305 79.0781 25.9102 79.0781C25.582 79.0781 25.2949 79.1387 25.0488 79.2598C24.8066 79.3809 24.6172 79.5508 24.4805 79.7695C24.3477 79.9883 24.2813 80.2461 24.2813 80.543C24.2813 80.8438 24.3496 81.1074 24.4863 81.334C24.627 81.5566 24.8184 81.7305 25.0605 81.8555C25.3066 81.9805 25.5898 82.043 25.9102 82.043ZM32.6602 78.1523C33.0195 78.1563 33.377 78.2246 33.7324 78.3574C34.0918 78.4902 34.4199 78.7109 34.7168 79.0195C35.0137 79.3281 35.25 79.748 35.4258 80.2793C35.6055 80.8105 35.6953 81.4766 35.6953 82.2773C35.6953 83.0547 35.623 83.7441 35.4785 84.3457C35.334 84.9434 35.123 85.4492 34.8457 85.8633C34.5723 86.2734 34.2402 86.5859 33.8496 86.8008C33.459 87.0117 33.0195 87.1172 32.5313 87.1172C32.043 87.1172 31.6055 87.0195 31.2188 86.8242C30.8359 86.6289 30.5234 86.3574 30.2813 86.0098C30.0391 85.6621 29.8828 85.2578 29.8125 84.7969H30.8555C30.9492 85.1992 31.1367 85.5313 31.418 85.793C31.6992 86.0508 32.0703 86.1797 32.5313 86.1797C33.2031 86.1797 33.7324 85.8867 34.1191 85.3008C34.5098 84.7109 34.707 83.8789 34.7109 82.8047H34.6406C34.4805 83.043 34.291 83.25 34.0723 83.4258C33.8535 83.5977 33.6113 83.7305 33.3457 83.8242C33.0801 83.918 32.7969 83.9648 32.4961 83.9648C31.9961 83.9648 31.5371 83.8418 31.1191 83.5957C30.7012 83.3457 30.3672 83.0039 30.1172 82.5703C29.8711 82.1328 29.7461 81.6328 29.7422 81.0703C29.7461 80.5352 29.8672 80.0469 30.1055 79.6055C30.3477 79.1602 30.6855 78.8047 31.1191 78.5391C31.5566 78.2734 32.0703 78.1445 32.6602 78.1523ZM32.6602 79.0898C32.3047 79.0898 31.9824 79.1797 31.6934 79.3594C31.4082 79.5352 31.1836 79.7734 31.0195 80.0742C30.8555 80.3711 30.7734 80.7031 30.7734 81.0703C30.7734 81.4336 30.8516 81.7637 31.0078 82.0605C31.168 82.3574 31.3887 82.5938 31.6699 82.7695C31.9512 82.9414 32.2695 83.0273 32.625 83.0273C32.9844 83.0273 33.3086 82.9355 33.5977 82.752C33.8906 82.5645 34.123 82.3203 34.2949 82.0195C34.4707 81.7188 34.5586 81.3945 34.5586 81.0469C34.5586 80.707 34.4766 80.3887 34.3125 80.0918C34.1484 79.791 33.9238 79.5488 33.6387 79.3652C33.3535 79.1816 33.0273 79.0898 32.6602 79.0898ZM43.2363 87.1172C42.4941 87.1172 41.832 86.9355 41.25 86.5723C40.668 86.209 40.209 85.6934 39.873 85.0254C39.541 84.3535 39.375 83.5586 39.375 82.6406C39.375 81.7188 39.541 80.9219 39.873 80.25C40.209 79.5781 40.668 79.0605 41.25 78.6973C41.832 78.334 42.4941 78.1523 43.2363 78.1523C43.9824 78.1523 44.6445 78.334 45.2227 78.6973C45.8008 79.0605 46.2559 79.5781 46.5879 80.25C46.9199 80.9219 47.0859 81.7188 47.0859 82.6406C47.0859 83.5586 46.9199 84.3535 46.5879 85.0254C46.2559 85.6934 45.8008 86.209 45.2227 86.5723C44.6445 86.9355 43.9824 87.1172 43.2363 87.1172ZM43.2363 86.1328C43.7637 86.1328 44.2402 86 44.666 85.7344C45.0957 85.4648 45.4356 85.0703 45.6856 84.5508C45.9395 84.0313 46.0664 83.3945 46.0664 82.6406C46.0664 81.8828 45.9395 81.2441 45.6856 80.7246C45.4356 80.2012 45.0957 79.8066 44.666 79.541C44.2402 79.2715 43.7637 79.1367 43.2363 79.1367C42.709 79.1367 42.2305 79.2715 41.8008 79.541C41.3711 79.8066 41.0293 80.2012 40.7754 80.7246C40.5215 81.2441 40.3945 81.8828 40.3945 82.6406C40.3945 83.3945 40.5215 84.0313 40.7754 84.5508C41.0293 85.0703 41.3711 85.4648 41.8008 85.7344C42.2305 86 42.709 86.1328 43.2363 86.1328ZM50.0859 87.1523C49.6719 87.1523 49.2949 87.0742 48.9551 86.918C48.6152 86.7578 48.3457 86.5273 48.1465 86.2266C47.9473 85.9258 47.8477 85.5625 47.8477 85.1367C47.8477 84.7617 47.9219 84.459 48.0703 84.2285C48.2188 83.9941 48.416 83.8105 48.6621 83.6777C48.9121 83.541 49.1856 83.4395 49.4824 83.373C49.7832 83.3066 50.0859 83.2539 50.3906 83.2148C50.7891 83.1641 51.1113 83.125 51.3574 83.0977C51.6074 83.0703 51.7891 83.0234 51.9023 82.957C52.0195 82.8906 52.0781 82.7773 52.0781 82.6172V82.582C52.0781 82.1641 51.9629 81.8398 51.7324 81.6094C51.5059 81.375 51.1602 81.2578 50.6953 81.2578C50.2188 81.2578 49.8438 81.3633 49.5703 81.5742C49.2969 81.7813 49.1055 82.0039 48.9961 82.2422L48.0352 81.9023C48.207 81.5039 48.4356 81.1934 48.7207 80.9707C49.0098 80.748 49.3223 80.5918 49.6582 80.502C49.9981 80.4121 50.332 80.3672 50.6602 80.3672C50.8711 80.3672 51.1133 80.3926 51.3867 80.4434C51.6602 80.4902 51.9258 80.5918 52.1836 80.748C52.4453 80.9004 52.6602 81.1328 52.8281 81.4453C53 81.7539 53.0859 82.168 53.0859 82.6875V87H52.0781V86.1094H52.0313C51.9648 86.25 51.8516 86.4023 51.6914 86.5664C51.5313 86.7266 51.3184 86.8652 51.0527 86.9824C50.791 87.0957 50.4688 87.1523 50.0859 87.1523ZM50.2383 86.25C50.6367 86.25 50.9727 86.1719 51.2461 86.0156C51.5195 85.8594 51.7266 85.6582 51.8672 85.4121C52.0078 85.1621 52.0781 84.9023 52.0781 84.6328V83.707C52.0352 83.7578 51.9414 83.8047 51.7969 83.8477C51.6563 83.8867 51.4922 83.9219 51.3047 83.9531C51.1211 83.9844 50.9414 84.0117 50.7656 84.0352C50.5898 84.0547 50.4492 84.0703 50.3438 84.082C50.082 84.1172 49.8379 84.1738 49.6113 84.252C49.3848 84.3262 49.2012 84.4375 49.0606 84.5859C48.9238 84.7344 48.8555 84.9375 48.8555 85.1953C48.8555 85.543 48.9844 85.8066 49.2422 85.9863C49.5039 86.1621 49.8359 86.25 50.2383 86.25ZM55.3125 84.6094L55.2891 83.3672H55.5L58.3594 80.4492H59.6016L56.5547 83.543H56.4609L55.3125 84.6094ZM54.375 87V78.2695H55.3711V87H54.375ZM58.5234 87L55.9688 83.7656L56.6836 83.0625L59.8125 87H58.5234ZM61.8164 87L59.8242 80.4492H60.8789L62.2969 85.4648H62.3672L63.7617 80.4492H64.8398L66.2109 85.4531H66.2813L67.6992 80.4492H68.7539L66.7617 87H65.7773L64.3359 81.9727H64.2422L62.8008 87H61.8164ZM71.9531 87.1406C71.3633 87.1406 70.8457 87 70.4004 86.7188C69.9551 86.4375 69.6074 86.043 69.3574 85.5352C69.1113 85.0273 68.9883 84.4375 68.9883 83.7656C68.9883 83.082 69.1113 82.4863 69.3574 81.9785C69.6074 81.4668 69.9551 81.0703 70.4004 80.7891C70.8457 80.5078 71.3633 80.3672 71.9531 80.3672C72.5469 80.3672 73.0664 80.5078 73.5117 80.7891C73.957 81.0703 74.3047 81.4668 74.5547 81.9785C74.8047 82.4863 74.9297 83.082 74.9297 83.7656C74.9297 84.4375 74.8047 85.0273 74.5547 85.5352C74.3047 86.043 73.957 86.4375 73.5117 86.7188C73.0664 87 72.5469 87.1406 71.9531 87.1406ZM71.9531 86.2383C72.4063 86.2383 72.7774 86.123 73.0664 85.8926C73.3555 85.6621 73.5703 85.3594 73.7109 84.9844C73.8516 84.6055 73.9219 84.1992 73.9219 83.7656C73.9219 83.3242 73.8516 82.9141 73.7109 82.5352C73.5703 82.1563 73.3555 81.8516 73.0664 81.6211C72.7774 81.3867 72.4063 81.2695 71.9531 81.2695C71.5078 81.2695 71.1406 81.3867 70.8516 81.6211C70.5625 81.8516 70.3477 82.1563 70.207 82.5352C70.0664 82.9141 69.9961 83.3242 69.9961 83.7656C69.9961 84.1992 70.0664 84.6055 70.207 84.9844C70.3477 85.3594 70.5625 85.6621 70.8516 85.8926C71.1406 86.123 71.5078 86.2383 71.9531 86.2383ZM78.5508 87.1406C77.9609 87.1406 77.4434 87 76.9981 86.7188C76.5527 86.4375 76.2051 86.043 75.9551 85.5352C75.709 85.0273 75.5859 84.4375 75.5859 83.7656C75.5859 83.082 75.709 82.4863 75.9551 81.9785C76.2051 81.4668 76.5527 81.0703 76.9981 80.7891C77.4434 80.5078 77.9609 80.3672 78.5508 80.3672C79.1445 80.3672 79.6641 80.5078 80.1094 80.7891C80.5547 81.0703 80.9024 81.4668 81.1524 81.9785C81.4024 82.4863 81.5274 83.082 81.5274 83.7656C81.5274 84.4375 81.4024 85.0273 81.1524 85.5352C80.9024 86.043 80.5547 86.4375 80.1094 86.7188C79.6641 87 79.1445 87.1406 78.5508 87.1406ZM78.5508 86.2383C79.0039 86.2383 79.375 86.123 79.6641 85.8926C79.9531 85.6621 80.168 85.3594 80.3086 84.9844C80.4492 84.6055 80.5195 84.1992 80.5195 83.7656C80.5195 83.3242 80.4492 82.9141 80.3086 82.5352C80.168 82.1563 79.9531 81.8516 79.6641 81.6211C79.375 81.3867 79.0039 81.2695 78.5508 81.2695C78.1055 81.2695 77.7383 81.3867 77.4492 81.6211C77.1602 81.8516 76.9453 82.1563 76.8047 82.5352C76.6641 82.9141 76.5938 83.3242 76.5938 83.7656C76.5938 84.1992 76.6641 84.6055 76.8047 84.9844C76.9453 85.3594 77.1602 85.6621 77.4492 85.8926C77.7383 86.123 78.1055 86.2383 78.5508 86.2383ZM84.9609 87.1406C84.4141 87.1406 83.9316 87.002 83.5137 86.7246C83.0957 86.4473 82.7695 86.0547 82.5352 85.5469C82.3008 85.0352 82.1836 84.4336 82.1836 83.7422C82.1836 83.0547 82.3008 82.459 82.5352 81.9551C82.7734 81.4473 83.1016 81.0566 83.5195 80.7832C83.9375 80.5059 84.4219 80.3672 84.9727 80.3672C85.4024 80.3672 85.7402 80.4375 85.9863 80.5781C86.2363 80.7188 86.4277 80.8789 86.5606 81.0586C86.6934 81.2344 86.7969 81.3789 86.8711 81.4922H86.9531V78.2695H87.9492V87H86.9883V85.9922H86.8711C86.7969 86.1094 86.6914 86.2598 86.5547 86.4434C86.418 86.623 86.2227 86.7852 85.9688 86.9297C85.7188 87.0703 85.3828 87.1406 84.9609 87.1406ZM85.0899 86.2383C85.4961 86.2383 85.8379 86.1328 86.1152 85.9219C86.3926 85.707 86.6035 85.4121 86.7481 85.0371C86.8926 84.6582 86.9649 84.2227 86.9649 83.7305C86.9649 83.2383 86.8945 82.8086 86.7539 82.4414C86.6133 82.0703 86.4024 81.7832 86.1211 81.5801C85.8438 81.373 85.5 81.2695 85.0899 81.2695C84.668 81.2695 84.3164 81.3789 84.0352 81.5977C83.7539 81.8164 83.543 82.1113 83.4024 82.4824C83.2617 82.8535 83.1914 83.2695 83.1914 83.7305C83.1914 84.1953 83.2617 84.6172 83.4024 84.9961C83.5469 85.375 83.7598 85.6777 84.041 85.9043C84.3223 86.127 84.6719 86.2383 85.0899 86.2383ZM92.1797 87V78.2695H95.2383C95.8438 78.2695 96.3438 78.375 96.7383 78.5859C97.1328 78.793 97.4258 79.0723 97.6172 79.4238C97.8125 79.7754 97.9102 80.1641 97.9102 80.5898C97.9102 80.9648 97.8438 81.2754 97.7109 81.5215C97.5781 81.7637 97.4043 81.957 97.1895 82.1016C96.9746 82.2422 96.7422 82.3477 96.4922 82.418V82.5C96.7617 82.5156 97.0313 82.6094 97.3008 82.7813C97.5703 82.9531 97.7949 83.1973 97.9746 83.5137C98.1582 83.8301 98.25 84.2188 98.25 84.6797C98.25 85.1172 98.1504 85.5117 97.9512 85.8633C97.752 86.2109 97.4375 86.4883 97.0078 86.6953C96.582 86.8984 96.0234 87 95.332 87H92.1797ZM93.2344 86.0625H95.332C96.0234 86.0625 96.5137 85.9277 96.8027 85.6582C97.0957 85.3887 97.2422 85.0625 97.2422 84.6797C97.2422 84.3828 97.166 84.1094 97.0137 83.8594C96.8652 83.6094 96.6524 83.4082 96.375 83.2559C96.0977 83.1035 95.7695 83.0273 95.3906 83.0273H93.2344V86.0625ZM93.2344 82.1133H95.2031C95.5195 82.1133 95.8067 82.0508 96.0645 81.9258C96.3223 81.7969 96.5254 81.6191 96.6738 81.3926C96.8262 81.1621 96.9024 80.8945 96.9024 80.5898C96.9024 80.207 96.7695 79.8809 96.5039 79.6113C96.2383 79.3418 95.8164 79.207 95.2383 79.207H93.2344V82.1133ZM100.289 78.2695V87H99.293V78.2695H100.289ZM106.922 80.4492L104.508 87H103.477L101.063 80.4492H102.152L103.957 85.6758H104.027L105.832 80.4492H106.922ZM109.922 87.1406C109.375 87.1406 108.893 87.002 108.475 86.7246C108.057 86.4473 107.73 86.0547 107.496 85.5469C107.262 85.0352 107.145 84.4336 107.145 83.7422C107.145 83.0547 107.262 82.459 107.496 81.9551C107.734 81.4473 108.063 81.0566 108.48 80.7832C108.898 80.5059 109.383 80.3672 109.934 80.3672C110.363 80.3672 110.701 80.4375 110.947 80.5781C111.197 80.7188 111.389 80.8789 111.521 81.0586C111.654 81.2344 111.758 81.3789 111.832 81.4922H111.914V78.2695H112.91V87H111.949V85.9922H111.832C111.758 86.1094 111.652 86.2598 111.516 86.4434C111.379 86.623 111.184 86.7852 110.93 86.9297C110.68 87.0703 110.344 87.1406 109.922 87.1406ZM110.051 86.2383C110.457 86.2383 110.799 86.1328 111.076 85.9219C111.354 85.707 111.564 85.4121 111.709 85.0371C111.854 84.6582 111.926 84.2227 111.926 83.7305C111.926 83.2383 111.855 82.8086 111.715 82.4414C111.574 82.0703 111.363 81.7832 111.082 81.5801C110.805 81.373 110.461 81.2695 110.051 81.2695C109.629 81.2695 109.277 81.3789 108.996 81.5977C108.715 81.8164 108.504 82.1113 108.363 82.4824C108.223 82.8535 108.152 83.2695 108.152 83.7305C108.152 84.1953 108.223 84.6172 108.363 84.9961C108.508 85.375 108.721 85.6777 109.002 85.9043C109.283 86.127 109.633 86.2383 110.051 86.2383ZM114.979 87.0703C114.768 87.0703 114.586 86.9961 114.434 86.8477C114.285 86.6953 114.211 86.5137 114.211 86.3027C114.211 86.0918 114.285 85.9121 114.434 85.7637C114.586 85.6113 114.768 85.5352 114.979 85.5352C115.189 85.5352 115.369 85.6113 115.518 85.7637C115.67 85.9121 115.746 86.0918 115.746 86.3027C115.746 86.5137 115.67 86.6953 115.518 86.8477C115.369 86.9961 115.189 87.0703 114.979 87.0703Z" fill="#FCFCFC"/>
</svg>
