<svg width="246" height="244" viewBox="0 0 246 244" fill="none" xmlns="http://www.w3.org/2000/svg">
<rect width="246" height="244" fill="#F0F2F6"/>
<path d="M30.08 22H22V30H30.08V22Z" fill="#1A1A1C"/>
<path d="M38.16 22H30.08V30H38.16V22Z" fill="#1A1A1C"/>
<path d="M46.24 22H38.16V30H46.24V22Z" fill="#1A1A1C"/>
<path d="M54.32 22H46.24V30H54.32V22Z" fill="#1A1A1C"/>
<path d="M62.4 22H54.32V30H62.4V22Z" fill="#1A1A1C"/>
<path d="M70.48 22H62.4V30H70.48V22Z" fill="#1A1A1C"/>
<path d="M78.56 22H70.48V30H78.56V22Z" fill="#1A1A1C"/>
<path d="M94.72 22H86.64V30H94.72V22Z" fill="#1A1A1C"/>
<path d="M102.8 22H94.72V30H102.8V22Z" fill="#1A1A1C"/>
<path d="M135.12 22H127.04V30H135.12V22Z" fill="#1A1A1C"/>
<path d="M159.36 22H151.28V30H159.36V22Z" fill="#1A1A1C"/>
<path d="M175.52 22H167.44V30H175.52V22Z" fill="#1A1A1C"/>
<path d="M183.6 22H175.52V30H183.6V22Z" fill="#1A1A1C"/>
<path d="M191.68 22H183.6V30H191.68V22Z" fill="#1A1A1C"/>
<path d="M199.76 22H191.68V30H199.76V22Z" fill="#1A1A1C"/>
<path d="M207.84 22H199.76V30H207.84V22Z" fill="#1A1A1C"/>
<path d="M215.92 22H207.84V30H215.92V22Z" fill="#1A1A1C"/>
<path d="M224 22H215.92V30H224V22Z" fill="#1A1A1C"/>
<path d="M30.08 30H22V38H30.08V30Z" fill="#1A1A1C"/>
<path d="M78.56 30H70.48L70.48 38H78.56V30Z" fill="#1A1A1C"/>
<path d="M127.04 30H118.96V38H127.04V30Z" fill="#1A1A1C"/>
<path d="M135.12 30H127.04V38H135.12V30Z" fill="#1A1A1C"/>
<path d="M159.36 30H151.28V38H159.36V30Z" fill="#1A1A1C"/>
<path d="M175.52 30H167.44V38H175.52V30Z" fill="#1A1A1C"/>
<path d="M224 30H215.92V38H224V30Z" fill="#1A1A1C"/>
<path d="M30.08 38H22V46H30.08V38Z" fill="#1A1A1C"/>
<path d="M46.24 38H38.16V46H46.24V38Z" fill="#1A1A1C"/>
<path d="M54.32 38H46.24V46H54.32V38Z" fill="#1A1A1C"/>
<path d="M62.4 38H54.32V46H62.4V38Z" fill="#1A1A1C"/>
<path d="M78.56 38H70.48V46H78.56V38Z" fill="#1A1A1C"/>
<path d="M102.8 38H94.72V46H102.8V38Z" fill="#1A1A1C"/>
<path d="M110.88 38H102.8V46H110.88V38Z" fill="#1A1A1C"/>
<path d="M118.96 38H110.88V46H118.96V38Z" fill="#1A1A1C"/>
<path d="M127.04 38H118.96V46H127.04V38Z" fill="#1A1A1C"/>
<path d="M135.12 38H127.04V46H135.12V38Z" fill="#1A1A1C"/>
<path d="M159.36 38H151.28V46H159.36V38Z" fill="#1A1A1C"/>
<path d="M175.52 38H167.44V46H175.52V38Z" fill="#1A1A1C"/>
<path d="M191.68 38H183.6V46H191.68V38Z" fill="#1A1A1C"/>
<path d="M199.76 38H191.68V46H199.76V38Z" fill="#1A1A1C"/>
<path d="M207.84 38H199.76V46H207.84V38Z" fill="#1A1A1C"/>
<path d="M224 38H215.92V46H224V38Z" fill="#1A1A1C"/>
<path d="M30.08 46H22V54H30.08V46Z" fill="#1A1A1C"/>
<path d="M46.24 46H38.16V54H46.24V46Z" fill="#1A1A1C"/>
<path d="M54.32 46H46.24V54H54.32V46Z" fill="#1A1A1C"/>
<path d="M62.4 46H54.32V54H62.4V46Z" fill="#1A1A1C"/>
<path d="M78.56 46H70.48V54H78.56V46Z" fill="#1A1A1C"/>
<path d="M102.8 46H94.72V54H102.8V46Z" fill="#1A1A1C"/>
<path d="M110.88 46H102.8V54H110.88V46Z" fill="#1A1A1C"/>
<path d="M135.12 46H127.04V54H135.12V46Z" fill="#1A1A1C"/>
<path d="M175.52 46H167.44V54H175.52V46Z" fill="#1A1A1C"/>
<path d="M191.68 46H183.6V54H191.68V46Z" fill="#1A1A1C"/>
<path d="M199.76 46H191.68V54H199.76V46Z" fill="#1A1A1C"/>
<path d="M207.84 46H199.76V54H207.84V46Z" fill="#1A1A1C"/>
<path d="M224 46H215.92V54H224V46Z" fill="#1A1A1C"/>
<path d="M30.08 54H22V62H30.08V54Z" fill="#1A1A1C"/>
<path d="M46.24 54H38.16V62H46.24V54Z" fill="#1A1A1C"/>
<path d="M54.32 54H46.24V62H54.32V54Z" fill="#1A1A1C"/>
<path d="M62.4 54H54.32V62H62.4V54Z" fill="#1A1A1C"/>
<path d="M78.56 54H70.48V62H78.56V54Z" fill="#1A1A1C"/>
<path d="M94.72 54H86.64V62H94.72V54Z" fill="#1A1A1C"/>
<path d="M110.88 54H102.8V62H110.88V54Z" fill="#1A1A1C"/>
<path d="M118.96 54H110.88V62H118.96V54Z" fill="#1A1A1C"/>
<path d="M127.04 54H118.96V62H127.04V54Z" fill="#1A1A1C"/>
<path d="M143.2 54H135.12V62H143.2V54Z" fill="#1A1A1C"/>
<path d="M175.52 54H167.44V62H175.52V54Z" fill="#1A1A1C"/>
<path d="M191.68 54H183.6V62H191.68V54Z" fill="#1A1A1C"/>
<path d="M199.76 54H191.68V62H199.76V54Z" fill="#1A1A1C"/>
<path d="M207.84 54H199.76V62H207.84V54Z" fill="#1A1A1C"/>
<path d="M224 54H215.92V62H224V54Z" fill="#1A1A1C"/>
<path d="M30.08 62H22V70H30.08V62Z" fill="#1A1A1C"/>
<path d="M78.56 62H70.48V70H78.56V62Z" fill="#1A1A1C"/>
<path d="M143.2 62H135.12V70H143.2V62Z" fill="#1A1A1C"/>
<path d="M175.52 62H167.44V70H175.52V62Z" fill="#1A1A1C"/>
<path d="M224 62H215.92V70H224V62Z" fill="#1A1A1C"/>
<path d="M30.08 70H22V78H30.08V70Z" fill="#1A1A1C"/>
<path d="M38.16 70L30.08 70V78H38.16V70Z" fill="#1A1A1C"/>
<path d="M46.24 70H38.16V78H46.24V70Z" fill="#1A1A1C"/>
<path d="M54.32 70H46.24V78H54.32V70Z" fill="#1A1A1C"/>
<path d="M62.4 70H54.32V78H62.4V70Z" fill="#1A1A1C"/>
<path d="M70.48 70L62.4 70V78H70.48L70.48 70Z" fill="#1A1A1C"/>
<path d="M78.56 70H70.48L70.48 78H78.56V70Z" fill="#1A1A1C"/>
<path d="M94.72 70H86.64V78H94.72V70Z" fill="#1A1A1C"/>
<path d="M110.88 70H102.8V78H110.88V70Z" fill="#1A1A1C"/>
<path d="M127.04 70H118.96V78H127.04V70Z" fill="#1A1A1C"/>
<path d="M143.2 70H135.12V78H143.2V70Z" fill="#1A1A1C"/>
<path d="M159.36 70H151.28V78H159.36V70Z" fill="#1A1A1C"/>
<path d="M175.52 70H167.44V78H175.52V70Z" fill="#1A1A1C"/>
<path d="M183.6 70L175.52 70V78H183.6V70Z" fill="#1A1A1C"/>
<path d="M191.68 70H183.6V78H191.68V70Z" fill="#1A1A1C"/>
<path d="M199.76 70H191.68V78H199.76V70Z" fill="#1A1A1C"/>
<path d="M207.84 70H199.76V78H207.84V70Z" fill="#1A1A1C"/>
<path d="M215.92 70L207.84 70V78H215.92V70Z" fill="#1A1A1C"/>
<path d="M224 70H215.92V78H224V70Z" fill="#1A1A1C"/>
<path d="M94.72 78H86.64V86H94.72V78Z" fill="#1A1A1C"/>
<path d="M110.88 78H102.8V86H110.88V78Z" fill="#1A1A1C"/>
<path d="M127.04 78H118.96V86H127.04V78Z" fill="#1A1A1C"/>
<path d="M135.12 78H127.04V86H135.12V78Z" fill="#1A1A1C"/>
<path d="M151.28 78H143.2L143.2 86H151.28V78Z" fill="#1A1A1C"/>
<path d="M159.36 78H151.28V86H159.36V78Z" fill="#1A1A1C"/>
<path d="M30.08 86H22V94H30.08V86Z" fill="#1A1A1C"/>
<path d="M54.32 86H46.24V94H54.32V86Z" fill="#1A1A1C"/>
<path d="M62.4 86H54.32V94H62.4V86Z" fill="#1A1A1C"/>
<path d="M70.48 86H62.4V94H70.48V86Z" fill="#1A1A1C"/>
<path d="M78.56 86H70.48V94H78.56V86Z" fill="#1A1A1C"/>
<path d="M86.64 86H78.56V94H86.64V86Z" fill="#1A1A1C"/>
<path d="M94.72 86H86.64V94H94.72V86Z" fill="#1A1A1C"/>
<path d="M102.8 86H94.72V94H102.8V86Z" fill="#1A1A1C"/>
<path d="M135.12 86H127.04V94H135.12V86Z" fill="#1A1A1C"/>
<path d="M159.36 86H151.28V94H159.36V86Z" fill="#1A1A1C"/>
<path d="M167.44 86H159.36V94H167.44V86Z" fill="#1A1A1C"/>
<path d="M175.52 86H167.44V94H175.52V86Z" fill="#1A1A1C"/>
<path d="M191.68 86H183.6V94H191.68V86Z" fill="#1A1A1C"/>
<path d="M224 86H215.92V94H224V86Z" fill="#1A1A1C"/>
<path d="M38.16 94H30.08V102H38.16V94Z" fill="#1A1A1C"/>
<path d="M54.32 94H46.24V102H54.32V94Z" fill="#1A1A1C"/>
<path d="M62.4 94H54.32V102H62.4V94Z" fill="#1A1A1C"/>
<path d="M86.64 94H78.56V102H86.64V94Z" fill="#1A1A1C"/>
<path d="M94.72 94H86.64V102H94.72V94Z" fill="#1A1A1C"/>
<path d="M127.04 94H118.96V102H127.04V94Z" fill="#1A1A1C"/>
<path d="M151.28 94H143.2V102H151.28V94Z" fill="#1A1A1C"/>
<path d="M167.44 94H159.36V102H167.44V94Z" fill="#1A1A1C"/>
<path d="M175.52 94H167.44V102H175.52V94Z" fill="#1A1A1C"/>
<path d="M191.68 94H183.6V102H191.68V94Z" fill="#1A1A1C"/>
<path d="M199.76 94H191.68V102H199.76V94Z" fill="#1A1A1C"/>
<path d="M207.84 94H199.76V102H207.84V94Z" fill="#1A1A1C"/>
<path d="M215.92 94H207.84V102H215.92V94Z" fill="#1A1A1C"/>
<path d="M224 94H215.92V102H224V94Z" fill="#1A1A1C"/>
<path d="M30.08 102H22V110H30.08V102Z" fill="#1A1A1C"/>
<path d="M38.16 102H30.08V110H38.16V102Z" fill="#1A1A1C"/>
<path d="M54.32 102H46.24V110H54.32V102Z" fill="#1A1A1C"/>
<path d="M62.4 102H54.32V110H62.4V102Z" fill="#1A1A1C"/>
<path d="M70.48 102H62.4V110H70.48V102Z" fill="#1A1A1C"/>
<path d="M78.56 102H70.48V110H78.56V102Z" fill="#1A1A1C"/>
<path d="M86.64 102H78.56V110H86.64V102Z" fill="#1A1A1C"/>
<path d="M102.8 102H94.72V110H102.8V102Z" fill="#1A1A1C"/>
<path d="M118.96 102H110.88V110H118.96V102Z" fill="#1A1A1C"/>
<path d="M127.04 102H118.96V110H127.04V102Z" fill="#1A1A1C"/>
<path d="M143.2 102H135.12V110H143.2L143.2 102Z" fill="#1A1A1C"/>
<path d="M159.36 102H151.28V110H159.36V102Z" fill="#1A1A1C"/>
<path d="M167.44 102H159.36V110H167.44V102Z" fill="#1A1A1C"/>
<path d="M175.52 102H167.44V110H175.52V102Z" fill="#1A1A1C"/>
<path d="M183.6 102H175.52V110H183.6V102Z" fill="#1A1A1C"/>
<path d="M191.68 102H183.6V110H191.68V102Z" fill="#1A1A1C"/>
<path d="M199.76 102H191.68V110H199.76V102Z" fill="#1A1A1C"/>
<path d="M207.84 102H199.76V110H207.84V102Z" fill="#1A1A1C"/>
<path d="M215.92 102H207.84V110H215.92V102Z" fill="#1A1A1C"/>
<path d="M30.08 110H22V118H30.08V110Z" fill="#1A1A1C"/>
<path d="M62.4 110H54.32V118H62.4V110Z" fill="#1A1A1C"/>
<path d="M70.48 110H62.4V118H70.48V110Z" fill="#1A1A1C"/>
<path d="M86.64 110H78.56V118H86.64V110Z" fill="#1A1A1C"/>
<path d="M102.8 110H94.72V118H102.8V110Z" fill="#1A1A1C"/>
<path d="M110.88 110H102.8V118H110.88V110Z" fill="#1A1A1C"/>
<path d="M143.2 110H135.12V118H143.2V110Z" fill="#1A1A1C"/>
<path d="M151.28 110H143.2V118H151.28V110Z" fill="#1A1A1C"/>
<path d="M191.68 110H183.6V118H191.68V110Z" fill="#1A1A1C"/>
<path d="M207.84 110H199.76V118H207.84V110Z" fill="#1A1A1C"/>
<path d="M215.92 110H207.84V118H215.92V110Z" fill="#1A1A1C"/>
<path d="M30.08 118H22V126H30.08V118Z" fill="#1A1A1C"/>
<path d="M54.32 118H46.24V126H54.32V118Z" fill="#1A1A1C"/>
<path d="M62.4 118H54.32V126H62.4V118Z" fill="#1A1A1C"/>
<path d="M70.48 118H62.4V126H70.48V118Z" fill="#1A1A1C"/>
<path d="M78.56 118H70.48V126H78.56V118Z" fill="#1A1A1C"/>
<path d="M86.64 118H78.56V126H86.64V118Z" fill="#1A1A1C"/>
<path d="M94.72 118H86.64V126H94.72V118Z" fill="#1A1A1C"/>
<path d="M110.88 118H102.8V126H110.88V118Z" fill="#1A1A1C"/>
<path d="M118.96 118H110.88V126H118.96V118Z" fill="#1A1A1C"/>
<path d="M135.12 118H127.04V126H135.12V118Z" fill="#1A1A1C"/>
<path d="M143.2 118H135.12V126H143.2V118Z" fill="#1A1A1C"/>
<path d="M159.36 118H151.28V126H159.36V118Z" fill="#1A1A1C"/>
<path d="M183.6 118H175.52V126H183.6V118Z" fill="#1A1A1C"/>
<path d="M199.76 118H191.68V126H199.76V118Z" fill="#1A1A1C"/>
<path d="M207.84 118H199.76V126H207.84V118Z" fill="#1A1A1C"/>
<path d="M224 118H215.92V126H224V118Z" fill="#1A1A1C"/>
<path d="M30.08 126H22V134H30.08V126Z" fill="#1A1A1C"/>
<path d="M38.16 126H30.08V134H38.16V126Z" fill="#1A1A1C"/>
<path d="M86.64 126H78.56V134H86.64V126Z" fill="#1A1A1C"/>
<path d="M94.72 126H86.64V134H94.72V126Z" fill="#1A1A1C"/>
<path d="M102.8 126H94.72V134H102.8V126Z" fill="#1A1A1C"/>
<path d="M127.04 126H118.96V134H127.04V126Z" fill="#1A1A1C"/>
<path d="M143.2 126H135.12V134H143.2V126Z" fill="#1A1A1C"/>
<path d="M151.28 126H143.2V134H151.28V126Z" fill="#1A1A1C"/>
<path d="M159.36 126H151.28V134H159.36V126Z" fill="#1A1A1C"/>
<path d="M167.44 126H159.36V134H167.44V126Z" fill="#1A1A1C"/>
<path d="M191.68 126H183.6V134H191.68V126Z" fill="#1A1A1C"/>
<path d="M207.84 126H199.76V134H207.84V126Z" fill="#1A1A1C"/>
<path d="M215.92 126H207.84V134H215.92V126Z" fill="#1A1A1C"/>
<path d="M224 126H215.92V134H224V126Z" fill="#1A1A1C"/>
<path d="M30.08 134H22V142H30.08V134Z" fill="#1A1A1C"/>
<path d="M38.16 134H30.08V142H38.16V134Z" fill="#1A1A1C"/>
<path d="M46.24 134H38.16V142H46.24V134Z" fill="#1A1A1C"/>
<path d="M78.56 134H70.48V142H78.56V134Z" fill="#1A1A1C"/>
<path d="M102.8 134H94.72V142H102.8V134Z" fill="#1A1A1C"/>
<path d="M118.96 134H110.88V142H118.96V134Z" fill="#1A1A1C"/>
<path d="M127.04 134H118.96V142H127.04V134Z" fill="#1A1A1C"/>
<path d="M143.2 134H135.12V142H143.2V134Z" fill="#1A1A1C"/>
<path d="M167.44 134H159.36V142H167.44V134Z" fill="#1A1A1C"/>
<path d="M183.6 134H175.52V142H183.6V134Z" fill="#1A1A1C"/>
<path d="M191.68 134H183.6V142H191.68V134Z" fill="#1A1A1C"/>
<path d="M207.84 134H199.76V142H207.84V134Z" fill="#1A1A1C"/>
<path d="M38.16 142H30.08V150H38.16V142Z" fill="#1A1A1C"/>
<path d="M86.64 142L78.56 142V150H86.64V142Z" fill="#1A1A1C"/>
<path d="M127.04 142H118.96V150H127.04V142Z" fill="#1A1A1C"/>
<path d="M143.2 142H135.12V150H143.2V142Z" fill="#1A1A1C"/>
<path d="M151.28 142L143.2 142V150H151.28V142Z" fill="#1A1A1C"/>
<path d="M175.52 142H167.44V150H175.52V142Z" fill="#1A1A1C"/>
<path d="M191.68 142H183.6V150H191.68V142Z" fill="#1A1A1C"/>
<path d="M215.92 142L207.84 142V150H215.92V142Z" fill="#1A1A1C"/>
<path d="M30.08 150H22V158H30.08V150Z" fill="#1A1A1C"/>
<path d="M70.48 150H62.4V158H70.48V150Z" fill="#1A1A1C"/>
<path d="M78.56 150H70.48V158H78.56V150Z" fill="#1A1A1C"/>
<path d="M86.64 150H78.56V158H86.64V150Z" fill="#1A1A1C"/>
<path d="M102.8 150H94.72V158H102.8V150Z" fill="#1A1A1C"/>
<path d="M110.88 150H102.8V158H110.88V150Z" fill="#1A1A1C"/>
<path d="M127.04 150H118.96V158H127.04V150Z" fill="#1A1A1C"/>
<path d="M151.28 150H143.2L143.2 158H151.28V150Z" fill="#1A1A1C"/>
<path d="M159.36 150H151.28V158H159.36V150Z" fill="#1A1A1C"/>
<path d="M167.44 150H159.36V158H167.44V150Z" fill="#1A1A1C"/>
<path d="M175.52 150H167.44V158H175.52V150Z" fill="#1A1A1C"/>
<path d="M183.6 150H175.52V158H183.6V150Z" fill="#1A1A1C"/>
<path d="M191.68 150H183.6V158H191.68V150Z" fill="#1A1A1C"/>
<path d="M199.76 150H191.68V158H199.76V150Z" fill="#1A1A1C"/>
<path d="M215.92 150H207.84V158H215.92V150Z" fill="#1A1A1C"/>
<path d="M94.72 158H86.64V166H94.72V158Z" fill="#1A1A1C"/>
<path d="M110.88 158H102.8V166H110.88V158Z" fill="#1A1A1C"/>
<path d="M127.04 158H118.96V166H127.04V158Z" fill="#1A1A1C"/>
<path d="M151.28 158H143.2V166H151.28V158Z" fill="#1A1A1C"/>
<path d="M159.36 158H151.28V166H159.36V158Z" fill="#1A1A1C"/>
<path d="M191.68 158H183.6V166H191.68V158Z" fill="#1A1A1C"/>
<path d="M199.76 158H191.68V166H199.76V158Z" fill="#1A1A1C"/>
<path d="M207.84 158H199.76V166H207.84V158Z" fill="#1A1A1C"/>
<path d="M30.08 166H22V174H30.08V166Z" fill="#1A1A1C"/>
<path d="M38.16 166H30.08V174H38.16V166Z" fill="#1A1A1C"/>
<path d="M46.24 166H38.16V174H46.24V166Z" fill="#1A1A1C"/>
<path d="M54.32 166H46.24V174H54.32V166Z" fill="#1A1A1C"/>
<path d="M62.4 166H54.32V174H62.4V166Z" fill="#1A1A1C"/>
<path d="M70.48 166H62.4V174H70.48V166Z" fill="#1A1A1C"/>
<path d="M78.56 166H70.48V174H78.56V166Z" fill="#1A1A1C"/>
<path d="M94.72 166H86.64V174H94.72V166Z" fill="#1A1A1C"/>
<path d="M127.04 166H118.96V174H127.04V166Z" fill="#1A1A1C"/>
<path d="M151.28 166H143.2V174H151.28V166Z" fill="#1A1A1C"/>
<path d="M159.36 166H151.28V174H159.36V166Z" fill="#1A1A1C"/>
<path d="M175.52 166H167.44V174H175.52V166Z" fill="#1A1A1C"/>
<path d="M191.68 166H183.6V174H191.68V166Z" fill="#1A1A1C"/>
<path d="M199.76 166H191.68V174H199.76V166Z" fill="#1A1A1C"/>
<path d="M207.84 166H199.76V174H207.84V166Z" fill="#1A1A1C"/>
<path d="M224 166H215.92V174H224V166Z" fill="#1A1A1C"/>
<path d="M30.08 174H22V182H30.08V174Z" fill="#1A1A1C"/>
<path d="M78.56 174H70.48L70.48 182H78.56V174Z" fill="#1A1A1C"/>
<path d="M94.72 174H86.64V182H94.72V174Z" fill="#1A1A1C"/>
<path d="M110.88 174H102.8V182H110.88V174Z" fill="#1A1A1C"/>
<path d="M143.2 174H135.12V182H143.2L143.2 174Z" fill="#1A1A1C"/>
<path d="M159.36 174H151.28V182H159.36V174Z" fill="#1A1A1C"/>
<path d="M191.68 174H183.6V182H191.68V174Z" fill="#1A1A1C"/>
<path d="M207.84 174H199.76V182H207.84V174Z" fill="#1A1A1C"/>
<path d="M30.08 182H22V190H30.08V182Z" fill="#1A1A1C"/>
<path d="M46.24 182H38.16V190H46.24V182Z" fill="#1A1A1C"/>
<path d="M54.32 182H46.24V190H54.32V182Z" fill="#1A1A1C"/>
<path d="M62.4 182H54.32V190H62.4V182Z" fill="#1A1A1C"/>
<path d="M78.56 182H70.48V190H78.56V182Z" fill="#1A1A1C"/>
<path d="M94.72 182H86.64V190H94.72V182Z" fill="#1A1A1C"/>
<path d="M102.8 182H94.72V190H102.8V182Z" fill="#1A1A1C"/>
<path d="M110.88 182H102.8V190H110.88V182Z" fill="#1A1A1C"/>
<path d="M135.12 182H127.04V190H135.12V182Z" fill="#1A1A1C"/>
<path d="M143.2 182H135.12V190H143.2V182Z" fill="#1A1A1C"/>
<path d="M159.36 182H151.28V190H159.36V182Z" fill="#1A1A1C"/>
<path d="M167.44 182H159.36V190H167.44V182Z" fill="#1A1A1C"/>
<path d="M175.52 182H167.44V190H175.52V182Z" fill="#1A1A1C"/>
<path d="M183.6 182H175.52V190H183.6V182Z" fill="#1A1A1C"/>
<path d="M191.68 182H183.6V190H191.68V182Z" fill="#1A1A1C"/>
<path d="M224 182H215.92V190H224V182Z" fill="#1A1A1C"/>
<path d="M30.08 190H22V198H30.08V190Z" fill="#1A1A1C"/>
<path d="M46.24 190H38.16V198H46.24V190Z" fill="#1A1A1C"/>
<path d="M54.32 190H46.24V198H54.32V190Z" fill="#1A1A1C"/>
<path d="M62.4 190H54.32V198H62.4V190Z" fill="#1A1A1C"/>
<path d="M78.56 190H70.48V198H78.56V190Z" fill="#1A1A1C"/>
<path d="M94.72 190H86.64V198H94.72V190Z" fill="#1A1A1C"/>
<path d="M127.04 190H118.96V198H127.04V190Z" fill="#1A1A1C"/>
<path d="M159.36 190H151.28V198H159.36V190Z" fill="#1A1A1C"/>
<path d="M167.44 190H159.36V198H167.44V190Z" fill="#1A1A1C"/>
<path d="M199.76 190H191.68V198H199.76V190Z" fill="#1A1A1C"/>
<path d="M30.08 198H22V206H30.08V198Z" fill="#1A1A1C"/>
<path d="M46.24 198H38.16V206H46.24V198Z" fill="#1A1A1C"/>
<path d="M54.32 198H46.24V206H54.32V198Z" fill="#1A1A1C"/>
<path d="M62.4 198H54.32V206H62.4V198Z" fill="#1A1A1C"/>
<path d="M78.56 198H70.48V206H78.56V198Z" fill="#1A1A1C"/>
<path d="M118.96 198H110.88V206H118.96V198Z" fill="#1A1A1C"/>
<path d="M127.04 198H118.96V206H127.04V198Z" fill="#1A1A1C"/>
<path d="M143.2 198H135.12V206H143.2V198Z" fill="#1A1A1C"/>
<path d="M151.28 198H143.2V206H151.28V198Z" fill="#1A1A1C"/>
<path d="M159.36 198H151.28V206H159.36V198Z" fill="#1A1A1C"/>
<path d="M183.6 198H175.52V206H183.6V198Z" fill="#1A1A1C"/>
<path d="M191.68 198H183.6V206H191.68V198Z" fill="#1A1A1C"/>
<path d="M207.84 198H199.76V206H207.84V198Z" fill="#1A1A1C"/>
<path d="M215.92 198H207.84V206H215.92V198Z" fill="#1A1A1C"/>
<path d="M224 198H215.92V206H224V198Z" fill="#1A1A1C"/>
<path d="M30.08 206H22V214H30.08V206Z" fill="#1A1A1C"/>
<path d="M78.56 206H70.48V214H78.56V206Z" fill="#1A1A1C"/>
<path d="M102.8 206H94.72V214H102.8V206Z" fill="#1A1A1C"/>
<path d="M110.88 206H102.8V214H110.88V206Z" fill="#1A1A1C"/>
<path d="M118.96 206H110.88V214H118.96V206Z" fill="#1A1A1C"/>
<path d="M135.12 206H127.04V214H135.12V206Z" fill="#1A1A1C"/>
<path d="M143.2 206H135.12V214H143.2V206Z" fill="#1A1A1C"/>
<path d="M167.44 206H159.36V214H167.44V206Z" fill="#1A1A1C"/>
<path d="M175.52 206H167.44V214H175.52V206Z" fill="#1A1A1C"/>
<path d="M183.6 206H175.52V214H183.6V206Z" fill="#1A1A1C"/>
<path d="M191.68 206H183.6V214H191.68V206Z" fill="#1A1A1C"/>
<path d="M207.84 206H199.76V214H207.84V206Z" fill="#1A1A1C"/>
<path d="M215.92 206H207.84V214H215.92V206Z" fill="#1A1A1C"/>
<path d="M224 206H215.92V214H224V206Z" fill="#1A1A1C"/>
<path d="M30.08 214H22V222H30.08V214Z" fill="#1A1A1C"/>
<path d="M38.16 214H30.08V222H38.16V214Z" fill="#1A1A1C"/>
<path d="M46.24 214H38.16V222H46.24V214Z" fill="#1A1A1C"/>
<path d="M54.32 214H46.24V222H54.32V214Z" fill="#1A1A1C"/>
<path d="M62.4 214H54.32V222H62.4V214Z" fill="#1A1A1C"/>
<path d="M70.48 214H62.4V222H70.48L70.48 214Z" fill="#1A1A1C"/>
<path d="M78.56 214H70.48L70.48 222H78.56V214Z" fill="#1A1A1C"/>
<path d="M94.72 214H86.64V222H94.72V214Z" fill="#1A1A1C"/>
<path d="M118.96 214H110.88V222H118.96V214Z" fill="#1A1A1C"/>
<path d="M127.04 214H118.96V222H127.04V214Z" fill="#1A1A1C"/>
<path d="M159.36 214H151.28V222H159.36V214Z" fill="#1A1A1C"/>
<path d="M199.76 214H191.68V222H199.76V214Z" fill="#1A1A1C"/>
<path d="M224 214H215.92V222H224V214Z" fill="#1A1A1C"/>
<mask id="mask0_741_9827" style="mask-type:alpha" maskUnits="userSpaceOnUse" x="22" y="22" width="202" height="200">
<path d="M30.08 22H22V30H30.08V22Z" fill="black"/>
<path d="M38.16 22H30.08V30H38.16V22Z" fill="black"/>
<path d="M46.24 22H38.16V30H46.24V22Z" fill="black"/>
<path d="M54.32 22H46.24V30H54.32V22Z" fill="black"/>
<path d="M62.4 22H54.32V30H62.4V22Z" fill="black"/>
<path d="M70.48 22H62.4V30H70.48V22Z" fill="black"/>
<path d="M78.56 22H70.48V30H78.56V22Z" fill="black"/>
<path d="M94.72 22H86.64V30H94.72V22Z" fill="black"/>
<path d="M102.8 22H94.72V30H102.8V22Z" fill="black"/>
<path d="M135.12 22H127.04V30H135.12V22Z" fill="black"/>
<path d="M159.36 22H151.28V30H159.36V22Z" fill="black"/>
<path d="M175.52 22H167.44V30H175.52V22Z" fill="black"/>
<path d="M183.6 22H175.52V30H183.6V22Z" fill="black"/>
<path d="M191.68 22H183.6V30H191.68V22Z" fill="black"/>
<path d="M199.76 22H191.68V30H199.76V22Z" fill="black"/>
<path d="M207.84 22H199.76V30H207.84V22Z" fill="black"/>
<path d="M215.92 22H207.84V30H215.92V22Z" fill="black"/>
<path d="M224 22H215.92V30H224V22Z" fill="black"/>
<path d="M30.08 30H22V38H30.08V30Z" fill="black"/>
<path d="M78.56 30H70.48L70.48 38H78.56V30Z" fill="black"/>
<path d="M127.04 30H118.96V38H127.04V30Z" fill="black"/>
<path d="M135.12 30H127.04V38H135.12V30Z" fill="black"/>
<path d="M159.36 30H151.28V38H159.36V30Z" fill="black"/>
<path d="M175.52 30H167.44V38H175.52V30Z" fill="black"/>
<path d="M224 30H215.92V38H224V30Z" fill="black"/>
<path d="M30.08 38H22V46H30.08V38Z" fill="black"/>
<path d="M46.24 38H38.16V46H46.24V38Z" fill="black"/>
<path d="M54.32 38H46.24V46H54.32V38Z" fill="black"/>
<path d="M62.4 38H54.32V46H62.4V38Z" fill="black"/>
<path d="M78.56 38H70.48V46H78.56V38Z" fill="black"/>
<path d="M102.8 38H94.72V46H102.8V38Z" fill="black"/>
<path d="M110.88 38H102.8V46H110.88V38Z" fill="black"/>
<path d="M118.96 38H110.88V46H118.96V38Z" fill="black"/>
<path d="M127.04 38H118.96V46H127.04V38Z" fill="black"/>
<path d="M135.12 38H127.04V46H135.12V38Z" fill="black"/>
<path d="M159.36 38H151.28V46H159.36V38Z" fill="black"/>
<path d="M175.52 38H167.44V46H175.52V38Z" fill="black"/>
<path d="M191.68 38H183.6V46H191.68V38Z" fill="black"/>
<path d="M199.76 38H191.68V46H199.76V38Z" fill="black"/>
<path d="M207.84 38H199.76V46H207.84V38Z" fill="black"/>
<path d="M224 38H215.92V46H224V38Z" fill="black"/>
<path d="M30.08 46H22V54H30.08V46Z" fill="black"/>
<path d="M46.24 46H38.16V54H46.24V46Z" fill="black"/>
<path d="M54.32 46H46.24V54H54.32V46Z" fill="black"/>
<path d="M62.4 46H54.32V54H62.4V46Z" fill="black"/>
<path d="M78.56 46H70.48V54H78.56V46Z" fill="black"/>
<path d="M102.8 46H94.72V54H102.8V46Z" fill="black"/>
<path d="M110.88 46H102.8V54H110.88V46Z" fill="black"/>
<path d="M135.12 46H127.04V54H135.12V46Z" fill="black"/>
<path d="M175.52 46H167.44V54H175.52V46Z" fill="black"/>
<path d="M191.68 46H183.6V54H191.68V46Z" fill="black"/>
<path d="M199.76 46H191.68V54H199.76V46Z" fill="black"/>
<path d="M207.84 46H199.76V54H207.84V46Z" fill="black"/>
<path d="M224 46H215.92V54H224V46Z" fill="black"/>
<path d="M30.08 54H22V62H30.08V54Z" fill="black"/>
<path d="M46.24 54H38.16V62H46.24V54Z" fill="black"/>
<path d="M54.32 54H46.24V62H54.32V54Z" fill="black"/>
<path d="M62.4 54H54.32V62H62.4V54Z" fill="black"/>
<path d="M78.56 54H70.48V62H78.56V54Z" fill="black"/>
<path d="M94.72 54H86.64V62H94.72V54Z" fill="black"/>
<path d="M110.88 54H102.8V62H110.88V54Z" fill="black"/>
<path d="M118.96 54H110.88V62H118.96V54Z" fill="black"/>
<path d="M127.04 54H118.96V62H127.04V54Z" fill="black"/>
<path d="M143.2 54H135.12V62H143.2V54Z" fill="black"/>
<path d="M175.52 54H167.44V62H175.52V54Z" fill="black"/>
<path d="M191.68 54H183.6V62H191.68V54Z" fill="black"/>
<path d="M199.76 54H191.68V62H199.76V54Z" fill="black"/>
<path d="M207.84 54H199.76V62H207.84V54Z" fill="black"/>
<path d="M224 54H215.92V62H224V54Z" fill="black"/>
<path d="M30.08 62H22V70H30.08V62Z" fill="black"/>
<path d="M78.56 62H70.48V70H78.56V62Z" fill="black"/>
<path d="M143.2 62H135.12V70H143.2V62Z" fill="black"/>
<path d="M175.52 62H167.44V70H175.52V62Z" fill="black"/>
<path d="M224 62H215.92V70H224V62Z" fill="black"/>
<path d="M30.08 70H22V78H30.08V70Z" fill="black"/>
<path d="M38.16 70L30.08 70V78H38.16V70Z" fill="black"/>
<path d="M46.24 70H38.16V78H46.24V70Z" fill="black"/>
<path d="M54.32 70H46.24V78H54.32V70Z" fill="black"/>
<path d="M62.4 70H54.32V78H62.4V70Z" fill="black"/>
<path d="M70.48 70L62.4 70V78H70.48L70.48 70Z" fill="black"/>
<path d="M78.56 70H70.48L70.48 78H78.56V70Z" fill="black"/>
<path d="M94.72 70H86.64V78H94.72V70Z" fill="black"/>
<path d="M110.88 70H102.8V78H110.88V70Z" fill="black"/>
<path d="M127.04 70H118.96V78H127.04V70Z" fill="black"/>
<path d="M143.2 70H135.12V78H143.2V70Z" fill="black"/>
<path d="M159.36 70H151.28V78H159.36V70Z" fill="black"/>
<path d="M175.52 70H167.44V78H175.52V70Z" fill="black"/>
<path d="M183.6 70L175.52 70V78H183.6V70Z" fill="black"/>
<path d="M191.68 70H183.6V78H191.68V70Z" fill="black"/>
<path d="M199.76 70H191.68V78H199.76V70Z" fill="black"/>
<path d="M207.84 70H199.76V78H207.84V70Z" fill="black"/>
<path d="M215.92 70L207.84 70V78H215.92V70Z" fill="black"/>
<path d="M224 70H215.92V78H224V70Z" fill="black"/>
<path d="M94.72 78H86.64V86H94.72V78Z" fill="black"/>
<path d="M110.88 78H102.8V86H110.88V78Z" fill="black"/>
<path d="M127.04 78H118.96V86H127.04V78Z" fill="black"/>
<path d="M135.12 78H127.04V86H135.12V78Z" fill="black"/>
<path d="M151.28 78H143.2L143.2 86H151.28V78Z" fill="black"/>
<path d="M159.36 78H151.28V86H159.36V78Z" fill="black"/>
<path d="M30.08 86H22V94H30.08V86Z" fill="black"/>
<path d="M54.32 86H46.24V94H54.32V86Z" fill="black"/>
<path d="M62.4 86H54.32V94H62.4V86Z" fill="black"/>
<path d="M70.48 86H62.4V94H70.48V86Z" fill="black"/>
<path d="M78.56 86H70.48V94H78.56V86Z" fill="black"/>
<path d="M86.64 86H78.56V94H86.64V86Z" fill="black"/>
<path d="M94.72 86H86.64V94H94.72V86Z" fill="black"/>
<path d="M102.8 86H94.72V94H102.8V86Z" fill="black"/>
<path d="M135.12 86H127.04V94H135.12V86Z" fill="black"/>
<path d="M159.36 86H151.28V94H159.36V86Z" fill="black"/>
<path d="M167.44 86H159.36V94H167.44V86Z" fill="black"/>
<path d="M175.52 86H167.44V94H175.52V86Z" fill="black"/>
<path d="M191.68 86H183.6V94H191.68V86Z" fill="black"/>
<path d="M224 86H215.92V94H224V86Z" fill="black"/>
<path d="M38.16 94H30.08V102H38.16V94Z" fill="black"/>
<path d="M54.32 94H46.24V102H54.32V94Z" fill="black"/>
<path d="M62.4 94H54.32V102H62.4V94Z" fill="black"/>
<path d="M86.64 94H78.56V102H86.64V94Z" fill="black"/>
<path d="M94.72 94H86.64V102H94.72V94Z" fill="black"/>
<path d="M127.04 94H118.96V102H127.04V94Z" fill="black"/>
<path d="M151.28 94H143.2V102H151.28V94Z" fill="black"/>
<path d="M167.44 94H159.36V102H167.44V94Z" fill="black"/>
<path d="M175.52 94H167.44V102H175.52V94Z" fill="black"/>
<path d="M191.68 94H183.6V102H191.68V94Z" fill="black"/>
<path d="M199.76 94H191.68V102H199.76V94Z" fill="black"/>
<path d="M207.84 94H199.76V102H207.84V94Z" fill="black"/>
<path d="M215.92 94H207.84V102H215.92V94Z" fill="black"/>
<path d="M224 94H215.92V102H224V94Z" fill="black"/>
<path d="M30.08 102H22V110H30.08V102Z" fill="black"/>
<path d="M38.16 102H30.08V110H38.16V102Z" fill="black"/>
<path d="M54.32 102H46.24V110H54.32V102Z" fill="black"/>
<path d="M62.4 102H54.32V110H62.4V102Z" fill="black"/>
<path d="M70.48 102H62.4V110H70.48V102Z" fill="black"/>
<path d="M78.56 102H70.48V110H78.56V102Z" fill="black"/>
<path d="M86.64 102H78.56V110H86.64V102Z" fill="black"/>
<path d="M102.8 102H94.72V110H102.8V102Z" fill="black"/>
<path d="M118.96 102H110.88V110H118.96V102Z" fill="black"/>
<path d="M127.04 102H118.96V110H127.04V102Z" fill="black"/>
<path d="M143.2 102H135.12V110H143.2L143.2 102Z" fill="black"/>
<path d="M159.36 102H151.28V110H159.36V102Z" fill="black"/>
<path d="M167.44 102H159.36V110H167.44V102Z" fill="black"/>
<path d="M175.52 102H167.44V110H175.52V102Z" fill="black"/>
<path d="M183.6 102H175.52V110H183.6V102Z" fill="black"/>
<path d="M191.68 102H183.6V110H191.68V102Z" fill="black"/>
<path d="M199.76 102H191.68V110H199.76V102Z" fill="black"/>
<path d="M207.84 102H199.76V110H207.84V102Z" fill="black"/>
<path d="M215.92 102H207.84V110H215.92V102Z" fill="black"/>
<path d="M30.08 110H22V118H30.08V110Z" fill="black"/>
<path d="M62.4 110H54.32V118H62.4V110Z" fill="black"/>
<path d="M70.48 110H62.4V118H70.48V110Z" fill="black"/>
<path d="M86.64 110H78.56V118H86.64V110Z" fill="black"/>
<path d="M102.8 110H94.72V118H102.8V110Z" fill="black"/>
<path d="M110.88 110H102.8V118H110.88V110Z" fill="black"/>
<path d="M143.2 110H135.12V118H143.2V110Z" fill="black"/>
<path d="M151.28 110H143.2V118H151.28V110Z" fill="black"/>
<path d="M191.68 110H183.6V118H191.68V110Z" fill="black"/>
<path d="M207.84 110H199.76V118H207.84V110Z" fill="black"/>
<path d="M215.92 110H207.84V118H215.92V110Z" fill="black"/>
<path d="M30.08 118H22V126H30.08V118Z" fill="black"/>
<path d="M54.32 118H46.24V126H54.32V118Z" fill="black"/>
<path d="M62.4 118H54.32V126H62.4V118Z" fill="black"/>
<path d="M70.48 118H62.4V126H70.48V118Z" fill="black"/>
<path d="M78.56 118H70.48V126H78.56V118Z" fill="black"/>
<path d="M86.64 118H78.56V126H86.64V118Z" fill="black"/>
<path d="M94.72 118H86.64V126H94.72V118Z" fill="black"/>
<path d="M110.88 118H102.8V126H110.88V118Z" fill="black"/>
<path d="M118.96 118H110.88V126H118.96V118Z" fill="black"/>
<path d="M135.12 118H127.04V126H135.12V118Z" fill="black"/>
<path d="M143.2 118H135.12V126H143.2V118Z" fill="black"/>
<path d="M159.36 118H151.28V126H159.36V118Z" fill="black"/>
<path d="M183.6 118H175.52V126H183.6V118Z" fill="black"/>
<path d="M199.76 118H191.68V126H199.76V118Z" fill="black"/>
<path d="M207.84 118H199.76V126H207.84V118Z" fill="black"/>
<path d="M224 118H215.92V126H224V118Z" fill="black"/>
<path d="M30.08 126H22V134H30.08V126Z" fill="black"/>
<path d="M38.16 126H30.08V134H38.16V126Z" fill="black"/>
<path d="M86.64 126H78.56V134H86.64V126Z" fill="black"/>
<path d="M94.72 126H86.64V134H94.72V126Z" fill="black"/>
<path d="M102.8 126H94.72V134H102.8V126Z" fill="black"/>
<path d="M127.04 126H118.96V134H127.04V126Z" fill="black"/>
<path d="M143.2 126H135.12V134H143.2V126Z" fill="black"/>
<path d="M151.28 126H143.2V134H151.28V126Z" fill="black"/>
<path d="M159.36 126H151.28V134H159.36V126Z" fill="black"/>
<path d="M167.44 126H159.36V134H167.44V126Z" fill="black"/>
<path d="M191.68 126H183.6V134H191.68V126Z" fill="black"/>
<path d="M207.84 126H199.76V134H207.84V126Z" fill="black"/>
<path d="M215.92 126H207.84V134H215.92V126Z" fill="black"/>
<path d="M224 126H215.92V134H224V126Z" fill="black"/>
<path d="M30.08 134H22V142H30.08V134Z" fill="black"/>
<path d="M38.16 134H30.08V142H38.16V134Z" fill="black"/>
<path d="M46.24 134H38.16V142H46.24V134Z" fill="black"/>
<path d="M78.56 134H70.48V142H78.56V134Z" fill="black"/>
<path d="M102.8 134H94.72V142H102.8V134Z" fill="black"/>
<path d="M118.96 134H110.88V142H118.96V134Z" fill="black"/>
<path d="M127.04 134H118.96V142H127.04V134Z" fill="black"/>
<path d="M143.2 134H135.12V142H143.2V134Z" fill="black"/>
<path d="M167.44 134H159.36V142H167.44V134Z" fill="black"/>
<path d="M183.6 134H175.52V142H183.6V134Z" fill="black"/>
<path d="M191.68 134H183.6V142H191.68V134Z" fill="black"/>
<path d="M207.84 134H199.76V142H207.84V134Z" fill="black"/>
<path d="M38.16 142H30.08V150H38.16V142Z" fill="black"/>
<path d="M86.64 142L78.56 142V150H86.64V142Z" fill="black"/>
<path d="M127.04 142H118.96V150H127.04V142Z" fill="black"/>
<path d="M143.2 142H135.12V150H143.2V142Z" fill="black"/>
<path d="M151.28 142L143.2 142V150H151.28V142Z" fill="black"/>
<path d="M175.52 142H167.44V150H175.52V142Z" fill="black"/>
<path d="M191.68 142H183.6V150H191.68V142Z" fill="black"/>
<path d="M215.92 142L207.84 142V150H215.92V142Z" fill="black"/>
<path d="M30.08 150H22V158H30.08V150Z" fill="black"/>
<path d="M70.48 150H62.4V158H70.48V150Z" fill="black"/>
<path d="M78.56 150H70.48V158H78.56V150Z" fill="black"/>
<path d="M86.64 150H78.56V158H86.64V150Z" fill="black"/>
<path d="M102.8 150H94.72V158H102.8V150Z" fill="black"/>
<path d="M110.88 150H102.8V158H110.88V150Z" fill="black"/>
<path d="M127.04 150H118.96V158H127.04V150Z" fill="black"/>
<path d="M151.28 150H143.2L143.2 158H151.28V150Z" fill="black"/>
<path d="M159.36 150H151.28V158H159.36V150Z" fill="black"/>
<path d="M167.44 150H159.36V158H167.44V150Z" fill="black"/>
<path d="M175.52 150H167.44V158H175.52V150Z" fill="black"/>
<path d="M183.6 150H175.52V158H183.6V150Z" fill="black"/>
<path d="M191.68 150H183.6V158H191.68V150Z" fill="black"/>
<path d="M199.76 150H191.68V158H199.76V150Z" fill="black"/>
<path d="M215.92 150H207.84V158H215.92V150Z" fill="black"/>
<path d="M94.72 158H86.64V166H94.72V158Z" fill="black"/>
<path d="M110.88 158H102.8V166H110.88V158Z" fill="black"/>
<path d="M127.04 158H118.96V166H127.04V158Z" fill="black"/>
<path d="M151.28 158H143.2V166H151.28V158Z" fill="black"/>
<path d="M159.36 158H151.28V166H159.36V158Z" fill="black"/>
<path d="M191.68 158H183.6V166H191.68V158Z" fill="black"/>
<path d="M199.76 158H191.68V166H199.76V158Z" fill="black"/>
<path d="M207.84 158H199.76V166H207.84V158Z" fill="black"/>
<path d="M30.08 166H22V174H30.08V166Z" fill="black"/>
<path d="M38.16 166H30.08V174H38.16V166Z" fill="black"/>
<path d="M46.24 166H38.16V174H46.24V166Z" fill="black"/>
<path d="M54.32 166H46.24V174H54.32V166Z" fill="black"/>
<path d="M62.4 166H54.32V174H62.4V166Z" fill="black"/>
<path d="M70.48 166H62.4V174H70.48V166Z" fill="black"/>
<path d="M78.56 166H70.48V174H78.56V166Z" fill="black"/>
<path d="M94.72 166H86.64V174H94.72V166Z" fill="black"/>
<path d="M127.04 166H118.96V174H127.04V166Z" fill="black"/>
<path d="M151.28 166H143.2V174H151.28V166Z" fill="black"/>
<path d="M159.36 166H151.28V174H159.36V166Z" fill="black"/>
<path d="M175.52 166H167.44V174H175.52V166Z" fill="black"/>
<path d="M191.68 166H183.6V174H191.68V166Z" fill="black"/>
<path d="M199.76 166H191.68V174H199.76V166Z" fill="black"/>
<path d="M207.84 166H199.76V174H207.84V166Z" fill="black"/>
<path d="M224 166H215.92V174H224V166Z" fill="black"/>
<path d="M30.08 174H22V182H30.08V174Z" fill="black"/>
<path d="M78.56 174H70.48L70.48 182H78.56V174Z" fill="black"/>
<path d="M94.72 174H86.64V182H94.72V174Z" fill="black"/>
<path d="M110.88 174H102.8V182H110.88V174Z" fill="black"/>
<path d="M143.2 174H135.12V182H143.2L143.2 174Z" fill="black"/>
<path d="M159.36 174H151.28V182H159.36V174Z" fill="black"/>
<path d="M191.68 174H183.6V182H191.68V174Z" fill="black"/>
<path d="M207.84 174H199.76V182H207.84V174Z" fill="black"/>
<path d="M30.08 182H22V190H30.08V182Z" fill="black"/>
<path d="M46.24 182H38.16V190H46.24V182Z" fill="black"/>
<path d="M54.32 182H46.24V190H54.32V182Z" fill="black"/>
<path d="M62.4 182H54.32V190H62.4V182Z" fill="black"/>
<path d="M78.56 182H70.48V190H78.56V182Z" fill="black"/>
<path d="M94.72 182H86.64V190H94.72V182Z" fill="black"/>
<path d="M102.8 182H94.72V190H102.8V182Z" fill="black"/>
<path d="M110.88 182H102.8V190H110.88V182Z" fill="black"/>
<path d="M135.12 182H127.04V190H135.12V182Z" fill="black"/>
<path d="M143.2 182H135.12V190H143.2V182Z" fill="black"/>
<path d="M159.36 182H151.28V190H159.36V182Z" fill="black"/>
<path d="M167.44 182H159.36V190H167.44V182Z" fill="black"/>
<path d="M175.52 182H167.44V190H175.52V182Z" fill="black"/>
<path d="M183.6 182H175.52V190H183.6V182Z" fill="black"/>
<path d="M191.68 182H183.6V190H191.68V182Z" fill="black"/>
<path d="M224 182H215.92V190H224V182Z" fill="black"/>
<path d="M30.08 190H22V198H30.08V190Z" fill="black"/>
<path d="M46.24 190H38.16V198H46.24V190Z" fill="black"/>
<path d="M54.32 190H46.24V198H54.32V190Z" fill="black"/>
<path d="M62.4 190H54.32V198H62.4V190Z" fill="black"/>
<path d="M78.56 190H70.48V198H78.56V190Z" fill="black"/>
<path d="M94.72 190H86.64V198H94.72V190Z" fill="black"/>
<path d="M127.04 190H118.96V198H127.04V190Z" fill="black"/>
<path d="M159.36 190H151.28V198H159.36V190Z" fill="black"/>
<path d="M167.44 190H159.36V198H167.44V190Z" fill="black"/>
<path d="M199.76 190H191.68V198H199.76V190Z" fill="black"/>
<path d="M30.08 198H22V206H30.08V198Z" fill="black"/>
<path d="M46.24 198H38.16V206H46.24V198Z" fill="black"/>
<path d="M54.32 198H46.24V206H54.32V198Z" fill="black"/>
<path d="M62.4 198H54.32V206H62.4V198Z" fill="black"/>
<path d="M78.56 198H70.48V206H78.56V198Z" fill="black"/>
<path d="M118.96 198H110.88V206H118.96V198Z" fill="black"/>
<path d="M127.04 198H118.96V206H127.04V198Z" fill="black"/>
<path d="M143.2 198H135.12V206H143.2V198Z" fill="black"/>
<path d="M151.28 198H143.2V206H151.28V198Z" fill="black"/>
<path d="M159.36 198H151.28V206H159.36V198Z" fill="black"/>
<path d="M183.6 198H175.52V206H183.6V198Z" fill="black"/>
<path d="M191.68 198H183.6V206H191.68V198Z" fill="black"/>
<path d="M207.84 198H199.76V206H207.84V198Z" fill="black"/>
<path d="M215.92 198H207.84V206H215.92V198Z" fill="black"/>
<path d="M224 198H215.92V206H224V198Z" fill="black"/>
<path d="M30.08 206H22V214H30.08V206Z" fill="black"/>
<path d="M78.56 206H70.48V214H78.56V206Z" fill="black"/>
<path d="M102.8 206H94.72V214H102.8V206Z" fill="black"/>
<path d="M110.88 206H102.8V214H110.88V206Z" fill="black"/>
<path d="M118.96 206H110.88V214H118.96V206Z" fill="black"/>
<path d="M135.12 206H127.04V214H135.12V206Z" fill="black"/>
<path d="M143.2 206H135.12V214H143.2V206Z" fill="black"/>
<path d="M167.44 206H159.36V214H167.44V206Z" fill="black"/>
<path d="M175.52 206H167.44V214H175.52V206Z" fill="black"/>
<path d="M183.6 206H175.52V214H183.6V206Z" fill="black"/>
<path d="M191.68 206H183.6V214H191.68V206Z" fill="black"/>
<path d="M207.84 206H199.76V214H207.84V206Z" fill="black"/>
<path d="M215.92 206H207.84V214H215.92V206Z" fill="black"/>
<path d="M224 206H215.92V214H224V206Z" fill="black"/>
<path d="M30.08 214H22V222H30.08V214Z" fill="black"/>
<path d="M38.16 214H30.08V222H38.16V214Z" fill="black"/>
<path d="M46.24 214H38.16V222H46.24V214Z" fill="black"/>
<path d="M54.32 214H46.24V222H54.32V214Z" fill="black"/>
<path d="M62.4 214H54.32V222H62.4V214Z" fill="black"/>
<path d="M70.48 214H62.4V222H70.48L70.48 214Z" fill="black"/>
<path d="M78.56 214H70.48L70.48 222H78.56V214Z" fill="black"/>
<path d="M94.72 214H86.64V222H94.72V214Z" fill="black"/>
<path d="M118.96 214H110.88V222H118.96V214Z" fill="black"/>
<path d="M127.04 214H118.96V222H127.04V214Z" fill="black"/>
<path d="M159.36 214H151.28V222H159.36V214Z" fill="black"/>
<path d="M199.76 214H191.68V222H199.76V214Z" fill="black"/>
<path d="M224 214H215.92V222H224V214Z" fill="black"/>
</mask>
<g mask="url(#mask0_741_9827)">
</g>
</svg>
