<svg width="255" height="250" viewBox="0 0 255 250" fill="none" xmlns="http://www.w3.org/2000/svg">
<rect width="254.36" height="250" fill="black"/>
<path d="M23.8311 39.1064C22.8525 39.1064 22.0029 38.9541 21.2822 38.6494C20.5674 38.3389 20.0078 37.8965 19.6035 37.3223C19.1992 36.748 18.9736 36.0654 18.9268 35.2744H20.9131C20.9541 35.749 21.1064 36.1445 21.3701 36.4609C21.6396 36.7715 21.9883 37.0029 22.416 37.1553C22.8438 37.3076 23.3125 37.3838 23.8223 37.3838C24.3789 37.3838 24.877 37.2959 25.3164 37.1201C25.7559 36.9443 26.0986 36.6982 26.3447 36.3818C26.5967 36.0596 26.7227 35.6846 26.7227 35.2568C26.7227 34.8701 26.6113 34.5537 26.3887 34.3076C26.1719 34.0615 25.876 33.8594 25.501 33.7012C25.126 33.5371 24.7041 33.3936 24.2354 33.2705L22.6973 32.8486C21.6426 32.5674 20.8105 32.1484 20.2012 31.5918C19.5918 31.0293 19.2871 30.2939 19.2871 29.3857C19.2871 28.6299 19.4893 27.9707 19.8936 27.4082C20.3037 26.8457 20.8574 26.4092 21.5547 26.0986C22.2578 25.7822 23.0459 25.624 23.9189 25.624C24.8096 25.624 25.5918 25.7822 26.2656 26.0986C26.9453 26.4092 27.4814 26.8369 27.874 27.3818C28.2725 27.9209 28.4805 28.5391 28.498 29.2363H26.582C26.5117 28.6328 26.2305 28.1641 25.7383 27.8301C25.252 27.4961 24.6309 27.3291 23.875 27.3291C23.3477 27.3291 22.8848 27.4141 22.4863 27.584C22.0938 27.748 21.7891 27.9766 21.5723 28.2695C21.3613 28.5625 21.2559 28.8994 21.2559 29.2803C21.2559 29.6904 21.3818 30.0244 21.6338 30.2822C21.8916 30.54 22.2021 30.7451 22.5654 30.8975C22.9346 31.0439 23.2891 31.1641 23.6289 31.2578L24.9033 31.6006C25.3193 31.7061 25.7471 31.8467 26.1865 32.0225C26.626 32.1982 27.0332 32.4297 27.4082 32.7168C27.7891 32.998 28.0938 33.3496 28.3223 33.7715C28.5566 34.1875 28.6738 34.6914 28.6738 35.2832C28.6738 36.0156 28.4834 36.6719 28.1025 37.252C27.7217 37.8262 27.1709 38.2803 26.4502 38.6143C25.7295 38.9424 24.8564 39.1064 23.8311 39.1064ZM32.9805 39.1064C32.3594 39.1064 31.7969 38.9922 31.293 38.7637C30.7891 38.5293 30.3906 38.1895 30.0977 37.7441C29.8047 37.2988 29.6582 36.7568 29.6582 36.1182C29.6582 35.5615 29.7637 35.1074 29.9746 34.7559C30.1914 34.3984 30.4814 34.1143 30.8447 33.9033C31.208 33.6924 31.6123 33.5342 32.0576 33.4287C32.5029 33.3232 32.96 33.2412 33.4287 33.1826C34.0205 33.1182 34.498 33.0625 34.8613 33.0156C35.2246 32.9688 35.4883 32.8955 35.6523 32.7959C35.8223 32.6904 35.9072 32.5234 35.9072 32.2949V32.251C35.9072 31.6943 35.749 31.2637 35.4326 30.959C35.1221 30.6543 34.6592 30.502 34.0439 30.502C33.4053 30.502 32.8984 30.6426 32.5234 30.9238C32.1543 31.1992 31.8994 31.5127 31.7588 31.8643L29.957 31.4512C30.1738 30.8535 30.4873 30.373 30.8975 30.0098C31.3135 29.6406 31.7881 29.3711 32.3213 29.2012C32.8604 29.0312 33.4229 28.9463 34.0088 28.9463C34.4014 28.9463 34.8174 28.9932 35.2568 29.0869C35.6963 29.1748 36.1094 29.3418 36.4961 29.5879C36.8887 29.8281 37.208 30.1738 37.4541 30.625C37.7002 31.0762 37.8232 31.6592 37.8232 32.374V38.8955H35.9512V37.5508H35.8809C35.7637 37.791 35.5791 38.0312 35.3271 38.2715C35.0811 38.5117 34.7646 38.7109 34.3779 38.8691C33.9912 39.0273 33.5254 39.1064 32.9805 39.1064ZM33.3936 37.5771C33.9268 37.5771 34.3809 37.4746 34.7559 37.2695C35.1309 37.0586 35.418 36.7832 35.6172 36.4434C35.8164 36.1035 35.916 35.7432 35.916 35.3623V34.0879C35.8457 34.1523 35.7139 34.2139 35.5205 34.2725C35.3271 34.3311 35.1074 34.3809 34.8613 34.4219C34.6152 34.4629 34.375 34.501 34.1406 34.5361C33.9062 34.5654 33.71 34.5889 33.5518 34.6064C33.1826 34.6592 32.8457 34.7412 32.541 34.8525C32.2363 34.958 31.9902 35.1162 31.8027 35.3271C31.6211 35.5322 31.5303 35.8047 31.5303 36.1445C31.5303 36.6191 31.7061 36.9766 32.0576 37.2168C32.4092 37.457 32.8545 37.5771 33.3936 37.5771ZM41.5586 25.7998V38.8955H39.6602V25.7998H41.5586ZM47.6143 39.0977C46.6533 39.0977 45.8213 38.8896 45.1182 38.4736C44.415 38.0576 43.873 37.4717 43.4922 36.7158C43.1172 35.9541 42.9297 35.0664 42.9297 34.0527C42.9297 33.0449 43.1143 32.1572 43.4834 31.3896C43.8584 30.6221 44.3828 30.0244 45.0566 29.5967C45.7363 29.1631 46.5332 28.9463 47.4473 28.9463C48.0039 28.9463 48.543 29.0371 49.0645 29.2188C49.5859 29.4004 50.0547 29.6875 50.4707 30.0801C50.8867 30.4727 51.2148 30.9824 51.4551 31.6094C51.7012 32.2363 51.8242 32.9922 51.8242 33.877V34.5625H44.0107V33.1299H50.8398L49.9521 33.6045C49.9521 33.001 49.8584 32.4678 49.6709 32.0049C49.4834 31.542 49.2021 31.1816 48.8271 30.9238C48.458 30.6602 47.998 30.5283 47.4473 30.5283C46.8965 30.5283 46.4248 30.6602 46.0322 30.9238C45.6455 31.1875 45.3496 31.5361 45.1445 31.9697C44.9395 32.4033 44.8369 32.8779 44.8369 33.3936V34.3691C44.8369 35.043 44.9541 35.6143 45.1885 36.083C45.4229 36.5518 45.748 36.9092 46.1641 37.1553C46.5859 37.4014 47.0752 37.5244 47.6318 37.5244C47.9951 37.5244 48.3232 37.4717 48.6162 37.3662C48.915 37.2607 49.1729 37.1025 49.3896 36.8916C49.6064 36.6807 49.7705 36.4199 49.8818 36.1094L51.6924 36.4521C51.5459 36.9795 51.2881 37.4424 50.9189 37.8408C50.5498 38.2393 50.084 38.5498 49.5215 38.7725C48.9648 38.9893 48.3291 39.0977 47.6143 39.0977ZM60.5078 31.4775L58.7764 31.7764C58.665 31.4482 58.457 31.1465 58.1523 30.8711C57.8535 30.5957 57.4053 30.458 56.8076 30.458C56.2686 30.458 55.8174 30.5811 55.4541 30.8271C55.0967 31.0674 54.918 31.375 54.918 31.75C54.918 32.0781 55.0381 32.3447 55.2783 32.5498C55.5244 32.7549 55.9141 32.9189 56.4473 33.042L58.0205 33.3936C58.917 33.5986 59.5879 33.9209 60.0332 34.3604C60.4785 34.7998 60.7012 35.3623 60.7012 36.0479C60.7012 36.6396 60.5312 37.167 60.1914 37.6299C59.8516 38.0869 59.3799 38.4473 58.7764 38.7109C58.1729 38.9688 57.4756 39.0977 56.6846 39.0977C55.583 39.0977 54.6865 38.8604 53.9951 38.3857C53.3037 37.9111 52.8789 37.2432 52.7207 36.3818L54.5576 36.1006C54.6748 36.5811 54.9121 36.9443 55.2695 37.1904C55.6328 37.4365 56.1016 37.5596 56.6758 37.5596C57.2969 37.5596 57.7949 37.4277 58.1699 37.1641C58.5508 36.9004 58.7412 36.5811 58.7412 36.2061C58.7412 35.585 58.2783 35.166 57.3525 34.9492L55.6914 34.5801C54.7715 34.3691 54.0918 34.0381 53.6523 33.5869C53.2188 33.1299 53.002 32.5557 53.002 31.8643C53.002 31.2842 53.1631 30.7744 53.4854 30.335C53.8135 29.8955 54.2617 29.5557 54.8301 29.3154C55.4043 29.0693 56.0576 28.9463 56.79 28.9463C57.8564 28.9463 58.6914 29.1777 59.2949 29.6406C59.9043 30.1035 60.3086 30.7158 60.5078 31.4775ZM70.6152 29.0693V30.6074H65.2539V29.0693H70.6152ZM66.6865 26.7314H68.5938V36.0127C68.5938 36.4639 68.6875 36.7949 68.875 37.0059C69.0625 37.2109 69.3643 37.3135 69.7803 37.3135C69.8799 37.3135 69.9854 37.3076 70.0967 37.2959C70.2139 37.2842 70.3311 37.2666 70.4482 37.2432L70.8086 38.8252C70.6152 38.8896 70.4043 38.9395 70.1758 38.9746C69.9473 39.0098 69.7188 39.0273 69.4902 39.0273C68.6406 39.0273 67.9609 38.79 67.4512 38.3154C66.9414 37.835 66.6865 37.1963 66.6865 36.3994V26.7314ZM76.0029 39.0977C75.083 39.0977 74.2773 38.8867 73.5859 38.4648C72.9004 38.043 72.3672 37.4512 71.9863 36.6895C71.6113 35.9277 71.4238 35.043 71.4238 34.0352C71.4238 33.0156 71.6113 32.125 71.9863 31.3633C72.3672 30.5957 72.9004 30.001 73.5859 29.5791C74.2773 29.1572 75.083 28.9463 76.0029 28.9463C76.9287 28.9463 77.7344 29.1572 78.4199 29.5791C79.1055 30.001 79.6387 30.5957 80.0195 31.3633C80.4004 32.125 80.5908 33.0156 80.5908 34.0352C80.5908 35.043 80.4004 35.9277 80.0195 36.6895C79.6387 37.4512 79.1055 38.043 78.4199 38.4648C77.7344 38.8867 76.9287 39.0977 76.0029 39.0977ZM76.0029 37.4893C76.6064 37.4893 77.1045 37.3311 77.4971 37.0146C77.8896 36.6982 78.1797 36.2793 78.3672 35.7578C78.5605 35.2305 78.6572 34.6562 78.6572 34.0352C78.6572 33.4023 78.5605 32.8223 78.3672 32.2949C78.1797 31.7676 77.8896 31.3457 77.4971 31.0293C77.1045 30.7129 76.6064 30.5547 76.0029 30.5547C75.4053 30.5547 74.9102 30.7129 74.5176 31.0293C74.1309 31.3457 73.8408 31.7676 73.6475 32.2949C73.4541 32.8223 73.3574 33.4023 73.3574 34.0352C73.3574 34.6562 73.4541 35.2305 73.6475 35.7578C73.8408 36.2793 74.1309 36.6982 74.5176 37.0146C74.9102 37.3311 75.4053 37.4893 76.0029 37.4893ZM86.541 29.0693V30.6074H81.1797V29.0693H86.541ZM82.6123 26.7314H84.5195V36.0127C84.5195 36.4639 84.6133 36.7949 84.8008 37.0059C84.9883 37.2109 85.29 37.3135 85.7061 37.3135C85.8057 37.3135 85.9111 37.3076 86.0225 37.2959C86.1396 37.2842 86.2568 37.2666 86.374 37.2432L86.7344 38.8252C86.541 38.8896 86.3301 38.9395 86.1016 38.9746C85.873 39.0098 85.6445 39.0273 85.416 39.0273C84.5664 39.0273 83.8867 38.79 83.377 38.3154C82.8672 37.835 82.6123 37.1963 82.6123 36.3994V26.7314ZM90.7598 39.1064C90.1387 39.1064 89.5762 38.9922 89.0723 38.7637C88.5684 38.5293 88.1699 38.1895 87.877 37.7441C87.584 37.2988 87.4375 36.7568 87.4375 36.1182C87.4375 35.5615 87.543 35.1074 87.7539 34.7559C87.9707 34.3984 88.2607 34.1143 88.624 33.9033C88.9873 33.6924 89.3916 33.5342 89.8369 33.4287C90.2822 33.3232 90.7393 33.2412 91.208 33.1826C91.7998 33.1182 92.2773 33.0625 92.6406 33.0156C93.0039 32.9688 93.2676 32.8955 93.4316 32.7959C93.6016 32.6904 93.6865 32.5234 93.6865 32.2949V32.251C93.6865 31.6943 93.5283 31.2637 93.2119 30.959C92.9014 30.6543 92.4385 30.502 91.8232 30.502C91.1846 30.502 90.6777 30.6426 90.3027 30.9238C89.9336 31.1992 89.6787 31.5127 89.5381 31.8643L87.7363 31.4512C87.9531 30.8535 88.2666 30.373 88.6768 30.0098C89.0928 29.6406 89.5674 29.3711 90.1006 29.2012C90.6396 29.0312 91.2021 28.9463 91.7881 28.9463C92.1807 28.9463 92.5967 28.9932 93.0361 29.0869C93.4756 29.1748 93.8887 29.3418 94.2754 29.5879C94.668 29.8281 94.9873 30.1738 95.2334 30.625C95.4795 31.0762 95.6025 31.6592 95.6025 32.374V38.8955H93.7305V37.5508H93.6602C93.543 37.791 93.3584 38.0312 93.1064 38.2715C92.8604 38.5117 92.5439 38.7109 92.1572 38.8691C91.7705 39.0273 91.3047 39.1064 90.7598 39.1064ZM91.1729 37.5771C91.7061 37.5771 92.1602 37.4746 92.5352 37.2695C92.9102 37.0586 93.1973 36.7832 93.3965 36.4434C93.5957 36.1035 93.6953 35.7432 93.6953 35.3623V34.0879C93.625 34.1523 93.4932 34.2139 93.2998 34.2725C93.1064 34.3311 92.8867 34.3809 92.6406 34.4219C92.3945 34.4629 92.1543 34.501 91.9199 34.5361C91.6855 34.5654 91.4893 34.5889 91.3311 34.6064C90.9619 34.6592 90.625 34.7412 90.3203 34.8525C90.0156 34.958 89.7695 35.1162 89.582 35.3271C89.4004 35.5322 89.3096 35.8047 89.3096 36.1445C89.3096 36.6191 89.4854 36.9766 89.8369 37.2168C90.1885 37.457 90.6338 37.5771 91.1729 37.5771ZM99.3379 25.7998V38.8955H97.4395V25.7998H99.3379Z" fill="#FCFCFC"/>
<path d="M22.123 63.167V50.4385H22.9297V63.167H22.123ZM22.5195 62.0732C21.7904 62.0732 21.1592 61.957 20.626 61.7246C20.0928 61.4876 19.6735 61.1595 19.3682 60.7402C19.0674 60.3164 18.8965 59.8265 18.8555 59.2705H20.127C20.1634 59.6533 20.2933 59.9701 20.5166 60.2207C20.7445 60.4714 21.0339 60.6582 21.3848 60.7812C21.7357 60.9043 22.1139 60.9658 22.5195 60.9658C22.9889 60.9658 23.4105 60.8883 23.7842 60.7334C24.1624 60.5785 24.4609 60.362 24.6797 60.084C24.8984 59.806 25.0078 59.4801 25.0078 59.1064C25.0078 58.7692 24.9121 58.4958 24.7207 58.2861C24.5293 58.0765 24.2786 57.9056 23.9688 57.7734C23.6634 57.6413 23.3307 57.5251 22.9707 57.4248L21.7266 57.0693C20.929 56.8415 20.2979 56.5156 19.833 56.0918C19.3727 55.6634 19.1426 55.1051 19.1426 54.417C19.1426 53.8473 19.2952 53.3506 19.6006 52.9268C19.9105 52.4984 20.3275 52.1657 20.8516 51.9287C21.3802 51.6917 21.9681 51.5732 22.6152 51.5732C23.2715 51.5732 23.8548 51.6917 24.3652 51.9287C24.8757 52.1611 25.2812 52.4801 25.582 52.8857C25.8828 53.2868 26.0423 53.7425 26.0605 54.2529H24.8574C24.7982 53.7516 24.5566 53.362 24.1328 53.084C23.7135 52.806 23.194 52.667 22.5742 52.667C22.1276 52.667 21.7357 52.7399 21.3984 52.8857C21.0612 53.0316 20.7992 53.2321 20.6123 53.4873C20.4255 53.7425 20.332 54.0342 20.332 54.3623C20.332 54.7223 20.4437 55.014 20.667 55.2373C20.8903 55.4561 21.1546 55.627 21.46 55.75C21.7699 55.873 22.0501 55.971 22.3008 56.0439L23.3262 56.3311C23.5905 56.404 23.8844 56.502 24.208 56.625C24.5361 56.748 24.8506 56.9144 25.1514 57.124C25.4567 57.3337 25.7074 57.6025 25.9033 57.9307C26.0993 58.2542 26.1973 58.6553 26.1973 59.1338C26.1973 59.6807 26.0537 60.1774 25.7666 60.624C25.4795 61.0661 25.0625 61.4193 24.5156 61.6836C23.9688 61.9434 23.3034 62.0732 22.5195 62.0732ZM30.5723 62.0322C29.9889 62.0322 29.4626 61.9183 28.9932 61.6904C28.5283 61.458 28.1546 61.139 27.8721 60.7334C27.5895 60.3278 27.4368 59.8675 27.4141 59.3525H28.6035C28.6491 59.8083 28.8564 60.1865 29.2256 60.4873C29.5993 60.7881 30.0482 60.9385 30.5723 60.9385C30.9915 60.9385 31.363 60.8405 31.6865 60.6445C32.0101 60.4486 32.2653 60.1797 32.4521 59.8379C32.639 59.4961 32.7324 59.1064 32.7324 58.6689C32.7324 58.2269 32.6344 57.8304 32.4385 57.4795C32.2471 57.1286 31.9827 56.8529 31.6455 56.6523C31.3083 56.4473 30.9232 56.3447 30.4902 56.3447C30.1758 56.3447 29.8545 56.3949 29.5264 56.4951C29.2028 56.5908 28.9362 56.7139 28.7266 56.8643L27.5645 56.7275L28.1797 51.71H33.4707V52.8037H29.2188L28.8633 55.8115H28.918C29.1276 55.6429 29.3896 55.5062 29.7041 55.4014C30.0186 55.292 30.349 55.2373 30.6953 55.2373C31.3197 55.2373 31.8757 55.3854 32.3633 55.6816C32.8509 55.9779 33.2337 56.3835 33.5117 56.8984C33.7943 57.4089 33.9355 57.9945 33.9355 58.6553C33.9355 59.3024 33.7897 59.8812 33.498 60.3916C33.2064 60.902 32.8076 61.3031 32.3018 61.5947C31.7959 61.8864 31.2194 62.0322 30.5723 62.0322ZM35.166 61.8955V61.0068L38.5293 57.3154C38.9212 56.887 39.2425 56.5133 39.4932 56.1943C39.7484 55.8753 39.9375 55.5745 40.0605 55.292C40.1882 55.0094 40.252 54.7132 40.252 54.4033C40.252 54.0433 40.1654 53.7334 39.9922 53.4736C39.8236 53.2093 39.5934 53.0065 39.3018 52.8652C39.0101 52.724 38.6797 52.6533 38.3105 52.6533C37.9186 52.6533 37.5768 52.7331 37.2852 52.8926C36.998 53.0521 36.7747 53.2777 36.6152 53.5693C36.4603 53.8564 36.3828 54.1937 36.3828 54.5811H35.207C35.207 53.984 35.3438 53.46 35.6172 53.0088C35.8952 52.5576 36.2712 52.2067 36.7451 51.9561C37.2236 51.7008 37.7591 51.5732 38.3516 51.5732C38.9486 51.5732 39.4772 51.7008 39.9375 51.9561C40.3978 52.2067 40.7578 52.5462 41.0176 52.9746C41.2819 53.3984 41.4141 53.8747 41.4141 54.4033C41.4141 54.777 41.3457 55.1416 41.209 55.4971C41.0768 55.848 40.8444 56.2422 40.5117 56.6797C40.1836 57.1172 39.7279 57.6481 39.1445 58.2725L36.8613 60.7197V60.8018H41.5918V61.8955H35.166ZM46.4316 62.0322C45.7708 62.0322 45.1852 61.9206 44.6748 61.6973C44.1644 61.474 43.7588 61.1618 43.458 60.7607C43.1572 60.3551 42.9954 59.8857 42.9727 59.3525H44.2168C44.2441 59.6807 44.3558 59.9632 44.5518 60.2002C44.7523 60.4372 45.012 60.6195 45.3311 60.7471C45.6546 60.8747 46.0124 60.9385 46.4043 60.9385C46.8418 60.9385 47.2292 60.8633 47.5664 60.7129C47.9082 60.5579 48.1748 60.346 48.3662 60.0771C48.5622 59.8037 48.6602 59.4893 48.6602 59.1338C48.6602 58.7555 48.5667 58.4229 48.3799 58.1357C48.193 57.8486 47.9196 57.6253 47.5596 57.4658C47.2041 57.3018 46.7689 57.2197 46.2539 57.2197H45.4336V56.126H46.2539C46.6549 56.126 47.0081 56.0531 47.3135 55.9072C47.6188 55.7614 47.8581 55.5563 48.0312 55.292C48.2044 55.0277 48.291 54.7178 48.291 54.3623C48.291 54.016 48.2158 53.7152 48.0654 53.46C47.915 53.2048 47.7008 53.0065 47.4229 52.8652C47.1494 52.724 46.8236 52.6533 46.4453 52.6533C46.0944 52.6533 45.764 52.7171 45.4541 52.8447C45.1442 52.9723 44.8913 53.1546 44.6953 53.3916C44.4993 53.6286 44.3945 53.9157 44.3809 54.2529H43.1914C43.2096 53.7197 43.3691 53.2526 43.6699 52.8516C43.9707 52.4505 44.3649 52.1383 44.8525 51.915C45.3447 51.6872 45.8848 51.5732 46.4727 51.5732C47.1016 51.5732 47.6416 51.7008 48.0928 51.9561C48.5439 52.2067 48.8903 52.5394 49.1318 52.9541C49.3734 53.3688 49.4941 53.8154 49.4941 54.2939C49.4941 54.8727 49.3438 55.3626 49.043 55.7637C48.7467 56.1647 48.3411 56.445 47.8262 56.6045V56.6865C48.4642 56.7913 48.9632 57.0648 49.3232 57.5068C49.6833 57.9443 49.8633 58.4867 49.8633 59.1338C49.8633 59.6852 49.7129 60.1797 49.4121 60.6172C49.1159 61.0547 48.708 61.401 48.1885 61.6562C47.6735 61.9069 47.0879 62.0322 46.4316 62.0322ZM54.5664 62.0322C53.819 62.0322 53.181 61.8271 52.6523 61.417C52.1237 61.0068 51.7204 60.4144 51.4424 59.6396C51.1644 58.8604 51.0254 57.917 51.0254 56.8096C51.0254 55.7067 51.1644 54.7656 51.4424 53.9863C51.7249 53.2025 52.1305 52.6055 52.6592 52.1953C53.1878 51.7806 53.8236 51.5732 54.5664 51.5732C55.3092 51.5732 55.945 51.7806 56.4736 52.1953C57.0023 52.6055 57.4056 53.2025 57.6836 53.9863C57.9661 54.7656 58.1074 55.7067 58.1074 56.8096C58.1074 57.917 57.9684 58.8604 57.6904 59.6396C57.4124 60.4144 57.0091 61.0068 56.4805 61.417C55.9564 61.8271 55.3184 62.0322 54.5664 62.0322ZM54.5664 60.9521C55.0723 60.9521 55.5007 60.7904 55.8516 60.4668C56.2025 60.1387 56.4691 59.6647 56.6514 59.0449C56.8382 58.4251 56.9316 57.68 56.9316 56.8096C56.9316 55.9346 56.8382 55.1872 56.6514 54.5674C56.4691 53.9476 56.2025 53.4736 55.8516 53.1455C55.5007 52.8174 55.0723 52.6533 54.5664 52.6533C53.8099 52.6533 53.2266 53.0179 52.8164 53.7471C52.4062 54.4762 52.2012 55.4971 52.2012 56.8096C52.2012 57.68 52.2923 58.4251 52.4746 59.0449C52.6615 59.6647 52.9303 60.1387 53.2812 60.4668C53.6367 60.7904 54.0651 60.9521 54.5664 60.9521Z" fill="#FCFCFC"/>
<path d="M213.727 35.5293V34.7676L216.609 31.6035C216.945 31.2363 217.221 30.916 217.436 30.6426C217.654 30.3691 217.816 30.1113 217.922 29.8691C218.031 29.627 218.086 29.373 218.086 29.1074C218.086 28.7988 218.012 28.5332 217.863 28.3105C217.719 28.084 217.521 27.9102 217.271 27.7891C217.021 27.668 216.738 27.6074 216.422 27.6074C216.086 27.6074 215.793 27.6758 215.543 27.8125C215.297 27.9492 215.105 28.1426 214.969 28.3926C214.836 28.6387 214.77 28.9277 214.77 29.2598H213.762C213.762 28.748 213.879 28.2988 214.113 27.9121C214.352 27.5254 214.674 27.2246 215.08 27.0098C215.49 26.791 215.949 26.6816 216.457 26.6816C216.969 26.6816 217.422 26.791 217.816 27.0098C218.211 27.2246 218.52 27.5156 218.742 27.8828C218.969 28.2461 219.082 28.6543 219.082 29.1074C219.082 29.4277 219.023 29.7402 218.906 30.0449C218.793 30.3457 218.594 30.6836 218.309 31.0586C218.027 31.4336 217.637 31.8887 217.137 32.4238L215.18 34.5215V34.5918H219.234V35.5293H213.727ZM223.277 35.6465C222.637 35.6465 222.09 35.4707 221.637 35.1191C221.184 34.7676 220.838 34.2598 220.6 33.5957C220.361 32.9277 220.242 32.1191 220.242 31.1699C220.242 30.2246 220.361 29.418 220.6 28.75C220.842 28.0781 221.189 27.5664 221.643 27.2148C222.096 26.8594 222.641 26.6816 223.277 26.6816C223.914 26.6816 224.459 26.8594 224.912 27.2148C225.365 27.5664 225.711 28.0781 225.949 28.75C226.191 29.418 226.312 30.2246 226.312 31.1699C226.312 32.1191 226.193 32.9277 225.955 33.5957C225.717 34.2598 225.371 34.7676 224.918 35.1191C224.469 35.4707 223.922 35.6465 223.277 35.6465ZM223.277 34.7207C223.711 34.7207 224.078 34.582 224.379 34.3047C224.68 34.0234 224.908 33.6172 225.064 33.0859C225.225 32.5547 225.305 31.916 225.305 31.1699C225.305 30.4199 225.225 29.7793 225.064 29.248C224.908 28.7168 224.68 28.3105 224.379 28.0293C224.078 27.748 223.711 27.6074 223.277 27.6074C222.629 27.6074 222.129 27.9199 221.777 28.5449C221.426 29.1699 221.25 30.0449 221.25 31.1699C221.25 31.916 221.328 32.5547 221.484 33.0859C221.645 33.6172 221.875 34.0234 222.176 34.3047C222.48 34.582 222.848 34.7207 223.277 34.7207ZM231.82 33.8887V33.4316C231.82 33.1113 231.885 32.8184 232.014 32.5527C232.146 32.2871 232.34 32.0742 232.594 31.9141C232.848 31.7539 233.156 31.6738 233.52 31.6738C233.891 31.6738 234.201 31.7539 234.451 31.9141C234.701 32.0742 234.889 32.2871 235.014 32.5527C235.143 32.8184 235.207 33.1113 235.207 33.4316V33.8887C235.207 34.209 235.143 34.502 235.014 34.7676C234.885 35.0332 234.695 35.2461 234.445 35.4062C234.195 35.5664 233.887 35.6465 233.52 35.6465C233.152 35.6465 232.842 35.5664 232.588 35.4062C232.334 35.2461 232.143 35.0332 232.014 34.7676C231.885 34.502 231.82 34.209 231.82 33.8887ZM232.688 33.4316V33.8887C232.688 34.1543 232.75 34.3926 232.875 34.6035C233 34.8105 233.215 34.916 233.52 34.9199C233.82 34.916 234.031 34.8105 234.152 34.6035C234.277 34.3926 234.34 34.1543 234.34 33.8887V33.4316C234.34 33.166 234.279 32.9297 234.158 32.7227C234.041 32.5156 233.828 32.4121 233.52 32.4121C233.223 32.4121 233.01 32.5156 232.881 32.7227C232.752 32.9297 232.688 33.166 232.688 33.4316ZM227.473 28.8965V28.4395C227.473 28.1191 227.539 27.8262 227.672 27.5605C227.805 27.2949 227.996 27.082 228.246 26.9219C228.5 26.7617 228.809 26.6816 229.172 26.6816C229.543 26.6816 229.854 26.7617 230.104 26.9219C230.357 27.082 230.547 27.2949 230.672 27.5605C230.801 27.8262 230.863 28.1191 230.859 28.4395V28.8965C230.863 29.2129 230.799 29.5059 230.666 29.7754C230.537 30.041 230.348 30.2539 230.098 30.4141C229.848 30.5742 229.539 30.6543 229.172 30.6543C228.805 30.6543 228.494 30.5742 228.24 30.4141C227.986 30.2539 227.795 30.041 227.666 29.7754C227.537 29.5059 227.473 29.2129 227.473 28.8965ZM228.34 28.4395V28.8965C228.34 29.1621 228.402 29.4004 228.527 29.6113C228.652 29.8184 228.867 29.9199 229.172 29.916C229.473 29.9199 229.684 29.8184 229.805 29.6113C229.93 29.4004 229.992 29.1621 229.992 28.8965V28.4395C229.992 28.1738 229.932 27.9375 229.811 27.7305C229.693 27.5195 229.48 27.416 229.172 27.4199C228.875 27.416 228.662 27.5195 228.533 27.7305C228.404 27.9375 228.34 28.1738 228.34 28.4395ZM227.801 35.5293L233.801 26.7988H234.773L228.773 35.5293H227.801Z" fill="#FCFCFC" fill-opacity="0.6"/>
<path d="M222.383 212.936L222.383 189.611C222.383 186.356 225.022 183.717 228.277 183.717C231.532 183.717 234.171 186.356 234.171 189.611L234.171 212.936L222.383 212.936Z" fill="url(#paint0_linear_1158_25926)"/>
<path d="M188.953 212.936L188.953 107.638C188.953 104.383 191.592 101.744 194.847 101.744C198.103 101.744 200.741 104.383 200.741 107.638L200.741 212.936L188.953 212.936Z" fill="url(#paint1_linear_1158_25926)"/>
<path d="M155.523 212.936L155.523 134.421C155.523 131.166 158.162 128.527 161.418 128.527C164.673 128.527 167.312 131.166 167.312 134.421L167.312 212.936L155.523 212.936Z" fill="url(#paint2_linear_1158_25926)"/>
<path d="M122.094 212.936L122.094 155.523C122.094 152.268 124.733 149.629 127.988 149.629C131.243 149.629 133.882 152.268 133.882 155.523L133.882 212.936L122.094 212.936Z" fill="url(#paint3_linear_1158_25926)"/>
<path d="M88.6641 212.936L88.6641 118.189C88.6641 114.934 91.303 112.295 94.5582 112.295C97.8135 112.295 100.452 114.934 100.452 118.189L100.452 212.936L88.6641 212.936Z" fill="url(#paint4_linear_1158_25926)"/>
<path d="M55.2344 212.936L55.2344 167.698C55.2344 164.442 57.8733 161.804 61.1285 161.804C64.3838 161.804 67.0227 164.442 67.0227 167.698L67.0227 212.936L55.2344 212.936Z" fill="url(#paint5_linear_1158_25926)"/>
<path d="M21.8008 212.936L21.8008 146.596C21.8008 143.34 24.4397 140.701 27.6949 140.701C30.9502 140.701 33.5891 143.34 33.5891 146.596L33.5891 212.936L21.8008 212.936Z" fill="url(#paint6_linear_1158_25926)"/>
<path d="M26.9551 229.988C26.3301 229.988 25.7891 229.889 25.332 229.689C24.875 229.486 24.5156 229.205 24.2539 228.846C23.9961 228.482 23.8496 228.062 23.8145 227.586H24.9043C24.9355 227.914 25.0469 228.186 25.2383 228.4C25.4336 228.615 25.6816 228.775 25.9824 228.881C26.2832 228.986 26.6074 229.039 26.9551 229.039C27.3574 229.039 27.7188 228.973 28.0391 228.84C28.3633 228.707 28.6191 228.521 28.8066 228.283C28.9941 228.045 29.0879 227.766 29.0879 227.445C29.0879 227.156 29.0059 226.922 28.8418 226.742C28.6777 226.562 28.4629 226.416 28.1973 226.303C27.9355 226.189 27.6504 226.09 27.3418 226.004L26.2754 225.699C25.5918 225.504 25.0508 225.225 24.6523 224.861C24.2578 224.494 24.0605 224.016 24.0605 223.426C24.0605 222.938 24.1914 222.512 24.4531 222.148C24.7188 221.781 25.0762 221.496 25.5254 221.293C25.9785 221.09 26.4824 220.988 27.0371 220.988C27.5996 220.988 28.0996 221.09 28.5371 221.293C28.9746 221.492 29.3223 221.766 29.5801 222.113C29.8379 222.457 29.9746 222.848 29.9902 223.285H28.959C28.9082 222.855 28.7012 222.521 28.3379 222.283C27.9785 222.045 27.5332 221.926 27.002 221.926C26.6191 221.926 26.2832 221.988 25.9941 222.113C25.7051 222.238 25.4805 222.41 25.3203 222.629C25.1602 222.848 25.0801 223.098 25.0801 223.379C25.0801 223.688 25.1758 223.938 25.3672 224.129C25.5586 224.316 25.7852 224.463 26.0469 224.568C26.3125 224.674 26.5527 224.758 26.7676 224.82L27.6465 225.066C27.873 225.129 28.125 225.213 28.4023 225.318C28.6836 225.424 28.9531 225.566 29.2109 225.746C29.4727 225.926 29.6875 226.156 29.8555 226.438C30.0234 226.715 30.1074 227.059 30.1074 227.469C30.1074 227.938 29.9844 228.363 29.7383 228.746C29.4922 229.125 29.1348 229.428 28.666 229.654C28.1973 229.877 27.627 229.988 26.9551 229.988Z" fill="#FCFCFC" fill-opacity="0.6"/>
<path d="M56.8574 221.104H58.123L61.0879 228.347H61.1934L64.1582 221.104H65.4648V229.835H64.4277V223.202H64.3457L61.5977 229.835H60.6484L57.9355 223.202H57.8535V229.835H56.8574V221.104Z" fill="#FCFCFC" fill-opacity="0.6"/>
<path d="M90.2754 222.042V221.104H96.8262V222.042H94.084V229.835H93.0293V222.042H90.2754Z" fill="#FCFCFC" fill-opacity="0.6"/>
<path d="M124.242 229.835L121.863 221.104H122.93L124.758 228.218H124.84L126.703 221.104H127.898L129.75 228.218H129.844L131.66 221.104H132.738L130.348 229.835H129.258L127.336 222.886H127.266L125.344 229.835H124.242Z" fill="#FCFCFC" fill-opacity="0.6"/>
<path d="M157.135 222.042V221.104H163.686V222.042H160.943V229.835H159.889V222.042H157.135Z" fill="#FCFCFC" fill-opacity="0.6"/>
<path d="M192.146 229.835V221.104H197.385V222.042H193.201V225.089H196.986V226.026H193.201V229.835H192.146Z" fill="#FCFCFC" fill-opacity="0.6"/>
<path d="M227.537 229.987C226.912 229.987 226.371 229.888 225.914 229.688C225.457 229.485 225.098 229.204 224.836 228.845C224.578 228.481 224.432 228.062 224.396 227.585H225.486C225.518 227.913 225.629 228.185 225.82 228.399C226.016 228.614 226.264 228.774 226.564 228.88C226.865 228.985 227.189 229.038 227.537 229.038C227.939 229.038 228.301 228.972 228.621 228.839C228.945 228.706 229.201 228.521 229.389 228.282C229.576 228.044 229.67 227.765 229.67 227.444C229.67 227.155 229.588 226.921 229.424 226.741C229.26 226.562 229.045 226.415 228.779 226.302C228.518 226.188 228.232 226.089 227.924 226.003L226.857 225.698C226.174 225.503 225.633 225.224 225.234 224.86C224.84 224.493 224.643 224.015 224.643 223.425C224.643 222.937 224.773 222.511 225.035 222.147C225.301 221.78 225.658 221.495 226.107 221.292C226.561 221.089 227.064 220.987 227.619 220.987C228.182 220.987 228.682 221.089 229.119 221.292C229.557 221.491 229.904 221.765 230.162 222.112C230.42 222.456 230.557 222.847 230.572 223.284H229.541C229.49 222.854 229.283 222.521 228.92 222.282C228.561 222.044 228.115 221.925 227.584 221.925C227.201 221.925 226.865 221.987 226.576 222.112C226.287 222.237 226.062 222.409 225.902 222.628C225.742 222.847 225.662 223.097 225.662 223.378C225.662 223.687 225.758 223.937 225.949 224.128C226.141 224.315 226.367 224.462 226.629 224.567C226.895 224.673 227.135 224.757 227.35 224.819L228.229 225.065C228.455 225.128 228.707 225.212 228.984 225.317C229.266 225.423 229.535 225.565 229.793 225.745C230.055 225.925 230.27 226.155 230.438 226.437C230.605 226.714 230.689 227.058 230.689 227.468C230.689 227.937 230.566 228.362 230.32 228.745C230.074 229.124 229.717 229.427 229.248 229.653C228.779 229.876 228.209 229.987 227.537 229.987Z" fill="#FCFCFC" fill-opacity="0.6"/>
<defs>
<linearGradient id="paint0_linear_1158_25926" x1="228.277" y1="185.34" x2="228.277" y2="212.936" gradientUnits="userSpaceOnUse">
<stop stop-color="#864FFE"/>
<stop offset="1" stop-color="#864FFE" stop-opacity="0.28"/>
</linearGradient>
<linearGradient id="paint1_linear_1158_25926" x1="194.847" y1="107.921" x2="194.847" y2="212.936" gradientUnits="userSpaceOnUse">
<stop stop-color="#864FFE"/>
<stop offset="1" stop-color="#864FFE" stop-opacity="0.28"/>
</linearGradient>
<linearGradient id="paint2_linear_1158_25926" x1="161.417" y1="133.216" x2="161.417" y2="212.936" gradientUnits="userSpaceOnUse">
<stop stop-color="#864FFE"/>
<stop offset="1" stop-color="#864FFE" stop-opacity="0.28"/>
</linearGradient>
<linearGradient id="paint3_linear_1158_25926" x1="127.988" y1="153.146" x2="127.988" y2="212.936" gradientUnits="userSpaceOnUse">
<stop stop-color="#864FFE"/>
<stop offset="1" stop-color="#864FFE" stop-opacity="0.28"/>
</linearGradient>
<linearGradient id="paint4_linear_1158_25926" x1="94.558" y1="117.886" x2="94.5581" y2="212.936" gradientUnits="userSpaceOnUse">
<stop stop-color="#864FFE"/>
<stop offset="1" stop-color="#864FFE" stop-opacity="0.28"/>
</linearGradient>
<linearGradient id="paint5_linear_1158_25926" x1="61.1284" y1="164.644" x2="61.1284" y2="212.936" gradientUnits="userSpaceOnUse">
<stop stop-color="#864FFE"/>
<stop offset="1" stop-color="#864FFE" stop-opacity="0.28"/>
</linearGradient>
<linearGradient id="paint6_linear_1158_25926" x1="27.6948" y1="144.714" x2="27.6948" y2="212.936" gradientUnits="userSpaceOnUse">
<stop stop-color="#864FFE"/>
<stop offset="1" stop-color="#864FFE" stop-opacity="0.28"/>
</linearGradient>
</defs>
</svg>
