<svg width="198" height="45" viewBox="0 0 198 45" fill="none" xmlns="http://www.w3.org/2000/svg">
<path d="M197.613 27.4357C197.613 31.2157 195.063 33.4057 189.423 33.4057C183.003 33.4057 179.703 30.4357 179.703 25.1257H182.463C182.463 29.1757 184.833 31.0957 189.483 31.0957C193.143 31.0957 194.853 29.9257 194.853 27.5857C194.853 25.9357 193.773 24.6757 191.313 24.0457L185.403 22.5157C182.073 21.6457 180.693 19.7257 180.693 17.2057C180.693 13.5457 183.333 11.5957 188.193 11.5957C193.953 11.5957 196.983 14.3557 196.983 18.9157H194.193C194.193 15.5557 192.183 13.8757 188.193 13.8757C185.103 13.8757 183.453 14.9257 183.453 17.0857C183.453 18.5857 184.353 19.7257 186.663 20.3257L192.513 21.7957C195.933 22.6657 197.613 24.6457 197.613 27.4357Z" fill="#FCFCFC" fill-opacity="0.6"/>
<path d="M162.477 28.9352C162.477 26.5652 163.917 24.9152 167.457 24.5852L173.307 24.0152C173.187 21.3152 171.957 20.0252 169.317 20.0252C167.247 20.0252 165.687 20.9852 165.447 23.4752H162.807C163.137 20.0852 165.417 17.8652 169.287 17.8652C173.637 17.8652 175.977 20.5352 175.977 24.4652V30.7952H178.167V33.0752H175.437C174.297 33.0752 173.637 32.4152 173.637 31.2752V30.5552L174.057 28.9652H173.307C172.737 31.2452 171.147 33.3752 167.517 33.3752C163.137 33.3752 162.477 30.4952 162.477 28.9352ZM165.117 28.6052C165.117 30.3152 166.227 31.1852 167.937 31.1852C171.177 31.1852 173.307 28.9052 173.307 25.9052L167.907 26.4752C166.077 26.6552 165.117 27.1652 165.117 28.6052Z" fill="#FCFCFC" fill-opacity="0.6"/>
<path d="M144.609 28.9352C144.609 26.5652 146.049 24.9152 149.589 24.5852L155.439 24.0152C155.319 21.3152 154.089 20.0252 151.449 20.0252C149.379 20.0252 147.819 20.9852 147.579 23.4752H144.939C145.269 20.0852 147.549 17.8652 151.419 17.8652C155.769 17.8652 158.109 20.5352 158.109 24.4652V30.7952H160.299V33.0752H157.569C156.429 33.0752 155.769 32.4152 155.769 31.2752V30.5552L156.189 28.9652H155.439C154.869 31.2452 153.279 33.3752 149.649 33.3752C145.269 33.3752 144.609 30.4952 144.609 28.9352ZM147.249 28.6052C147.249 30.3152 148.359 31.1852 150.069 31.1852C153.309 31.1852 155.439 28.9052 155.439 25.9052L150.039 26.4752C148.209 26.6552 147.249 27.1652 147.249 28.6052Z" fill="#FCFCFC" fill-opacity="0.6"/>
<path d="M141.855 27.4357C141.855 31.2157 139.305 33.4057 133.665 33.4057C127.245 33.4057 123.945 30.4357 123.945 25.1257H126.705C126.705 29.1757 129.075 31.0957 133.725 31.0957C137.385 31.0957 139.095 29.9257 139.095 27.5857C139.095 25.9357 138.015 24.6757 135.555 24.0457L129.645 22.5157C126.315 21.6457 124.935 19.7257 124.935 17.2057C124.935 13.5457 127.575 11.5957 132.435 11.5957C138.195 11.5957 141.225 14.3557 141.225 18.9157H138.435C138.435 15.5557 136.425 13.8757 132.435 13.8757C129.345 13.8757 127.695 14.9257 127.695 17.0857C127.695 18.5857 128.595 19.7257 130.905 20.3257L136.755 21.7957C140.175 22.6657 141.855 24.6457 141.855 27.4357Z" fill="#FCFCFC" fill-opacity="0.6"/>
<path d="M121.969 30.7962V33.0762H116.119C114.709 33.0762 114.019 32.4162 114.019 30.9762V20.4462H110.719V18.1662H114.019V14.3862L116.689 13.5762V18.1662H121.369V20.4462H116.689V30.8262L121.969 30.7962Z" fill="#FCFCFC"/>
<path d="M93.9375 33.076L98.9775 25.576L93.9375 18.166H96.9675L101.228 24.556H101.768L106.028 18.166H109.058L104.048 25.576L109.058 33.076H106.028L101.768 26.686H101.228L96.9675 33.076H93.9375Z" fill="#FCFCFC"/>
<path d="M78.1328 25.4252C78.1328 20.5952 81.0128 17.8652 85.2728 17.8652C89.6828 17.8652 92.5628 20.5352 92.5628 25.1552V26.1152H80.7128C80.8028 29.0252 82.3328 31.2452 85.4228 31.2452C87.9728 31.2452 89.4728 29.9252 89.9828 27.8552H92.6228C92.0228 30.6152 90.0428 33.3752 85.4528 33.3752C80.5928 33.3752 78.1328 29.8352 78.1328 25.4252ZM80.7428 24.2252H89.9528C89.7728 21.5252 87.9428 19.9652 85.2728 19.9652C82.8128 19.9652 80.9528 21.5252 80.7428 24.2252Z" fill="#FCFCFC"/>
<path d="M56 33.0758V11.9258H61.46L71.54 32.3258H72.29L71.84 30.4358V11.9258H74.54V33.0758H69.08L59.03 12.6758H58.25L58.73 14.5658V33.0758H56Z" fill="#FCFCFC"/>
<rect y="0.5" width="44" height="44" rx="22" fill="#FCFCFC"/>
<path d="M27.4996 20.5L29.6209 22.6213L27.4996 24.7426L25.3782 22.6213L27.4996 20.5Z" fill="#1A1A1C"/>
<path d="M20.6235 31.6204L18.5022 33.7418L16.3809 31.6204L18.5022 29.4991L20.6235 31.6204Z" fill="#1A1A1C"/>
<path d="M24.4996 17.5L26.6209 19.6213L24.4996 21.7426L22.3782 19.6213L24.4996 17.5Z" fill="#1A1A1C"/>
<path d="M23.6235 28.6204L21.5022 30.7418L19.3809 28.6204L21.5022 26.4991L23.6235 28.6204Z" fill="#1A1A1C"/>
<path d="M21.4996 14.5L23.6209 16.6213L21.4996 18.7426L19.3782 16.6213L21.4996 14.5Z" fill="#1A1A1C"/>
<path d="M26.6235 25.6204L24.5022 27.7418L22.3809 25.6204L24.5022 23.4991L26.6235 25.6204Z" fill="#1A1A1C"/>
<path d="M18.4996 11.5L20.6209 13.6213L18.4996 15.7426L16.3782 13.6213L18.4996 11.5Z" fill="#1A1A1C"/>
<path d="M23.6235 22.6204L21.5022 24.7418L19.3809 22.6204L21.5022 20.4991L23.6235 22.6204Z" fill="#1A1A1C"/>
<path d="M18.2426 22.6204L16.1213 24.7418L14 22.6204L16.1213 20.4991L18.2426 22.6204Z" fill="#1A1A1C"/>
</svg>
