<svg width="198" height="44" viewBox="0 0 198 44" fill="none" xmlns="http://www.w3.org/2000/svg">
<path d="M197.613 26.9357C197.613 30.7157 195.063 32.9057 189.423 32.9057C183.003 32.9057 179.703 29.9357 179.703 24.6257H182.463C182.463 28.6757 184.833 30.5957 189.483 30.5957C193.143 30.5957 194.853 29.4257 194.853 27.0857C194.853 25.4357 193.773 24.1757 191.313 23.5457L185.403 22.0157C182.073 21.1457 180.693 19.2257 180.693 16.7057C180.693 13.0457 183.333 11.0957 188.193 11.0957C193.953 11.0957 196.983 13.8557 196.983 18.4157H194.193C194.193 15.0557 192.183 13.3757 188.193 13.3757C185.103 13.3757 183.453 14.4257 183.453 16.5857C183.453 18.0857 184.353 19.2257 186.663 19.8257L192.513 21.2957C195.933 22.1657 197.613 24.1457 197.613 26.9357Z" fill="#1A1A1C" fill-opacity="0.6"/>
<path d="M162.477 28.4352C162.477 26.0652 163.917 24.4152 167.457 24.0852L173.307 23.5152C173.187 20.8152 171.957 19.5252 169.317 19.5252C167.247 19.5252 165.687 20.4852 165.447 22.9752H162.807C163.137 19.5852 165.417 17.3652 169.287 17.3652C173.637 17.3652 175.977 20.0352 175.977 23.9652V30.2952H178.167V32.5752H175.437C174.297 32.5752 173.637 31.9152 173.637 30.7752V30.0552L174.057 28.4652H173.307C172.737 30.7452 171.147 32.8752 167.517 32.8752C163.137 32.8752 162.477 29.9952 162.477 28.4352ZM165.117 28.1052C165.117 29.8152 166.227 30.6852 167.937 30.6852C171.177 30.6852 173.307 28.4052 173.307 25.4052L167.907 25.9752C166.077 26.1552 165.117 26.6652 165.117 28.1052Z" fill="#1A1A1C" fill-opacity="0.6"/>
<path d="M144.609 28.4352C144.609 26.0652 146.049 24.4152 149.589 24.0852L155.439 23.5152C155.319 20.8152 154.089 19.5252 151.449 19.5252C149.379 19.5252 147.819 20.4852 147.579 22.9752H144.939C145.269 19.5852 147.549 17.3652 151.419 17.3652C155.769 17.3652 158.109 20.0352 158.109 23.9652V30.2952H160.299V32.5752H157.569C156.429 32.5752 155.769 31.9152 155.769 30.7752V30.0552L156.189 28.4652H155.439C154.869 30.7452 153.279 32.8752 149.649 32.8752C145.269 32.8752 144.609 29.9952 144.609 28.4352ZM147.249 28.1052C147.249 29.8152 148.359 30.6852 150.069 30.6852C153.309 30.6852 155.439 28.4052 155.439 25.4052L150.039 25.9752C148.209 26.1552 147.249 26.6652 147.249 28.1052Z" fill="#1A1A1C" fill-opacity="0.6"/>
<path d="M141.855 26.9357C141.855 30.7157 139.305 32.9057 133.665 32.9057C127.245 32.9057 123.945 29.9357 123.945 24.6257H126.705C126.705 28.6757 129.075 30.5957 133.725 30.5957C137.385 30.5957 139.095 29.4257 139.095 27.0857C139.095 25.4357 138.015 24.1757 135.555 23.5457L129.645 22.0157C126.315 21.1457 124.935 19.2257 124.935 16.7057C124.935 13.0457 127.575 11.0957 132.435 11.0957C138.195 11.0957 141.225 13.8557 141.225 18.4157H138.435C138.435 15.0557 136.425 13.3757 132.435 13.3757C129.345 13.3757 127.695 14.4257 127.695 16.5857C127.695 18.0857 128.595 19.2257 130.905 19.8257L136.755 21.2957C140.175 22.1657 141.855 24.1457 141.855 26.9357Z" fill="#1A1A1C" fill-opacity="0.6"/>
<path d="M121.969 30.2962V32.5762H116.119C114.709 32.5762 114.019 31.9162 114.019 30.4762V19.9462H110.719V17.6662H114.019V13.8862L116.689 13.0762V17.6662H121.369V19.9462H116.689V30.3262L121.969 30.2962Z" fill="#1A1A1C"/>
<path d="M93.9375 32.576L98.9775 25.076L93.9375 17.666H96.9675L101.228 24.056H101.768L106.028 17.666H109.058L104.048 25.076L109.058 32.576H106.028L101.768 26.186H101.228L96.9675 32.576H93.9375Z" fill="#1A1A1C"/>
<path d="M78.1328 24.9252C78.1328 20.0952 81.0128 17.3652 85.2728 17.3652C89.6828 17.3652 92.5628 20.0352 92.5628 24.6552V25.6152H80.7128C80.8028 28.5252 82.3328 30.7452 85.4228 30.7452C87.9728 30.7452 89.4728 29.4252 89.9828 27.3552H92.6228C92.0228 30.1152 90.0428 32.8752 85.4528 32.8752C80.5928 32.8752 78.1328 29.3352 78.1328 24.9252ZM80.7428 23.7252H89.9528C89.7728 21.0252 87.9428 19.4652 85.2728 19.4652C82.8128 19.4652 80.9528 21.0252 80.7428 23.7252Z" fill="#1A1A1C"/>
<path d="M56 32.5758V11.4258H61.46L71.54 31.8258H72.29L71.84 29.9358V11.4258H74.54V32.5758H69.08L59.03 12.1758H58.25L58.73 14.0658V32.5758H56Z" fill="#1A1A1C"/>
<rect width="44" height="44" rx="22" fill="#1A1A1C"/>
<path d="M27.4996 20L29.6209 22.1213L27.4996 24.2426L25.3782 22.1213L27.4996 20Z" fill="#F5F5F7"/>
<path d="M20.6235 31.1204L18.5022 33.2418L16.3809 31.1204L18.5022 28.9991L20.6235 31.1204Z" fill="#F5F5F7"/>
<path d="M24.4996 17L26.6209 19.1213L24.4996 21.2426L22.3782 19.1213L24.4996 17Z" fill="#F5F5F7"/>
<path d="M23.6235 28.1204L21.5022 30.2418L19.3809 28.1204L21.5022 25.9991L23.6235 28.1204Z" fill="#F5F5F7"/>
<path d="M21.4996 14L23.6209 16.1213L21.4996 18.2426L19.3782 16.1213L21.4996 14Z" fill="#F5F5F7"/>
<path d="M26.6235 25.1204L24.5022 27.2418L22.3809 25.1204L24.5022 22.9991L26.6235 25.1204Z" fill="#F5F5F7"/>
<path d="M18.4996 11L20.6209 13.1213L18.4996 15.2426L16.3782 13.1213L18.4996 11Z" fill="#F5F5F7"/>
<path d="M23.6235 22.1204L21.5022 24.2418L19.3809 22.1204L21.5022 19.9991L23.6235 22.1204Z" fill="#F5F5F7"/>
<path d="M18.2426 22.1204L16.1213 24.2418L14 22.1204L16.1213 19.9991L18.2426 22.1204Z" fill="#F5F5F7"/>
</svg>
