<svg width="198" height="44" viewBox="0 0 198 44" fill="none" xmlns="http://www.w3.org/2000/svg">
<path d="M197.609 26.9357C197.609 30.7157 195.059 32.9057 189.419 32.9057C182.999 32.9057 179.699 29.9357 179.699 24.6257H182.459C182.459 28.6757 184.829 30.5957 189.479 30.5957C193.139 30.5957 194.849 29.4257 194.849 27.0857C194.849 25.4357 193.769 24.1757 191.309 23.5457L185.399 22.0157C182.069 21.1457 180.689 19.2257 180.689 16.7057C180.689 13.0457 183.329 11.0957 188.189 11.0957C193.949 11.0957 196.979 13.8557 196.979 18.4157H194.189C194.189 15.0557 192.179 13.3757 188.189 13.3757C185.099 13.3757 183.449 14.4257 183.449 16.5857C183.449 18.0857 184.349 19.2257 186.659 19.8257L192.509 21.2957C195.929 22.1657 197.609 24.1457 197.609 26.9357Z" fill="#FCFCFC" fill-opacity="0.6"/>
<path d="M162.48 28.4352C162.48 26.0652 163.92 24.4152 167.46 24.0852L173.31 23.5152C173.19 20.8152 171.96 19.5252 169.32 19.5252C167.25 19.5252 165.69 20.4852 165.45 22.9752H162.81C163.14 19.5852 165.42 17.3652 169.29 17.3652C173.64 17.3652 175.98 20.0352 175.98 23.9652V30.2952H178.17V32.5752H175.44C174.3 32.5752 173.64 31.9152 173.64 30.7752V30.0552L174.06 28.4652H173.31C172.74 30.7452 171.15 32.8752 167.52 32.8752C163.14 32.8752 162.48 29.9952 162.48 28.4352ZM165.12 28.1052C165.12 29.8152 166.23 30.6852 167.94 30.6852C171.18 30.6852 173.31 28.4052 173.31 25.4052L167.91 25.9752C166.08 26.1552 165.12 26.6652 165.12 28.1052Z" fill="#FCFCFC" fill-opacity="0.6"/>
<path d="M144.609 28.4352C144.609 26.0652 146.049 24.4152 149.589 24.0852L155.439 23.5152C155.319 20.8152 154.089 19.5252 151.449 19.5252C149.379 19.5252 147.819 20.4852 147.579 22.9752H144.939C145.269 19.5852 147.549 17.3652 151.419 17.3652C155.769 17.3652 158.109 20.0352 158.109 23.9652V30.2952H160.299V32.5752H157.569C156.429 32.5752 155.769 31.9152 155.769 30.7752V30.0552L156.189 28.4652H155.439C154.869 30.7452 153.279 32.8752 149.649 32.8752C145.269 32.8752 144.609 29.9952 144.609 28.4352ZM147.249 28.1052C147.249 29.8152 148.359 30.6852 150.069 30.6852C153.309 30.6852 155.439 28.4052 155.439 25.4052L150.039 25.9752C148.209 26.1552 147.249 26.6652 147.249 28.1052Z" fill="#FCFCFC" fill-opacity="0.6"/>
<path d="M141.859 26.9357C141.859 30.7157 139.309 32.9057 133.669 32.9057C127.249 32.9057 123.949 29.9357 123.949 24.6257H126.709C126.709 28.6757 129.079 30.5957 133.729 30.5957C137.389 30.5957 139.099 29.4257 139.099 27.0857C139.099 25.4357 138.019 24.1757 135.559 23.5457L129.649 22.0157C126.319 21.1457 124.939 19.2257 124.939 16.7057C124.939 13.0457 127.579 11.0957 132.439 11.0957C138.199 11.0957 141.229 13.8557 141.229 18.4157H138.439C138.439 15.0557 136.429 13.3757 132.439 13.3757C129.349 13.3757 127.699 14.4257 127.699 16.5857C127.699 18.0857 128.599 19.2257 130.909 19.8257L136.759 21.2957C140.179 22.1657 141.859 24.1457 141.859 26.9357Z" fill="#FCFCFC" fill-opacity="0.6"/>
<path d="M121.969 30.2962V32.5762H116.119C114.709 32.5762 114.019 31.9162 114.019 30.4762V19.9462H110.719V17.6662H114.019V13.8862L116.689 13.0762V17.6662H121.369V19.9462H116.689V30.3262L121.969 30.2962Z" fill="#FCFCFC"/>
<path d="M93.9414 32.576L98.9814 25.076L93.9414 17.666H96.9714L101.231 24.056H101.771L106.031 17.666H109.061L104.051 25.076L109.061 32.576H106.031L101.771 26.186H101.231L96.9714 32.576H93.9414Z" fill="#FCFCFC"/>
<path d="M78.1328 24.9252C78.1328 20.0952 81.0128 17.3652 85.2728 17.3652C89.6828 17.3652 92.5628 20.0352 92.5628 24.6552V25.6152H80.7128C80.8028 28.5252 82.3328 30.7452 85.4228 30.7452C87.9728 30.7452 89.4728 29.4252 89.9828 27.3552H92.6228C92.0228 30.1152 90.0428 32.8752 85.4528 32.8752C80.5928 32.8752 78.1328 29.3352 78.1328 24.9252ZM80.7428 23.7252H89.9528C89.7728 21.0252 87.9428 19.4652 85.2728 19.4652C82.8128 19.4652 80.9528 21.0252 80.7428 23.7252Z" fill="#FCFCFC"/>
<path d="M56 32.5758V11.4258H61.46L71.54 31.8258H72.29L71.84 29.9358V11.4258H74.54V32.5758H69.08L59.03 12.1758H58.25L58.73 14.0658V32.5758H56Z" fill="#FCFCFC"/>
<rect width="44" height="44" rx="22" fill="#C6F56F"/>
<path d="M27.4996 20L29.6209 22.1213L27.4996 24.2426L25.3782 22.1213L27.4996 20Z" fill="#1A1A1C"/>
<path d="M20.6235 31.1204L18.5022 33.2418L16.3809 31.1204L18.5022 28.9991L20.6235 31.1204Z" fill="#1A1A1C"/>
<path d="M24.4996 17L26.6209 19.1213L24.4996 21.2426L22.3782 19.1213L24.4996 17Z" fill="#1A1A1C"/>
<path d="M23.6235 28.1204L21.5022 30.2418L19.3809 28.1204L21.5022 25.9991L23.6235 28.1204Z" fill="#1A1A1C"/>
<path d="M21.4996 14L23.6209 16.1213L21.4996 18.2426L19.3782 16.1213L21.4996 14Z" fill="#1A1A1C"/>
<path d="M26.6235 25.1204L24.5022 27.2418L22.3809 25.1204L24.5022 22.9991L26.6235 25.1204Z" fill="#1A1A1C"/>
<path d="M18.4996 11L20.6209 13.1213L18.4996 15.2426L16.3782 13.1213L18.4996 11Z" fill="#1A1A1C"/>
<path d="M23.6235 22.1204L21.5022 24.2418L19.3809 22.1204L21.5022 19.9991L23.6235 22.1204Z" fill="#1A1A1C"/>
<path d="M18.2426 22.1204L16.1213 24.2418L14 22.1204L16.1213 19.9991L18.2426 22.1204Z" fill="#1A1A1C"/>
</svg>
