<svg width="44" height="44" viewBox="0 0 44 44" fill="none" xmlns="http://www.w3.org/2000/svg">
<rect width="44" height="44" rx="22" fill="#1A1A1C"/>
<path d="M27.4996 20L29.6209 22.1213L27.4996 24.2426L25.3782 22.1213L27.4996 20Z" fill="#F5F5F7"/>
<path d="M20.6235 31.1204L18.5022 33.2418L16.3809 31.1204L18.5022 28.9991L20.6235 31.1204Z" fill="#F5F5F7"/>
<path d="M24.4996 17L26.6209 19.1213L24.4996 21.2426L22.3782 19.1213L24.4996 17Z" fill="#F5F5F7"/>
<path d="M23.6235 28.1204L21.5022 30.2418L19.3809 28.1204L21.5022 25.9991L23.6235 28.1204Z" fill="#F5F5F7"/>
<path d="M21.4996 14L23.6209 16.1213L21.4996 18.2426L19.3782 16.1213L21.4996 14Z" fill="#F5F5F7"/>
<path d="M26.6235 25.1204L24.5022 27.2418L22.3809 25.1204L24.5022 22.9991L26.6235 25.1204Z" fill="#F5F5F7"/>
<path d="M18.4996 11L20.6209 13.1213L18.4996 15.2426L16.3782 13.1213L18.4996 11Z" fill="#F5F5F7"/>
<path d="M23.6235 22.1204L21.5022 24.2418L19.3809 22.1204L21.5022 19.9991L23.6235 22.1204Z" fill="#F5F5F7"/>
<path d="M18.2426 22.1204L16.1213 24.2418L14 22.1204L16.1213 19.9991L18.2426 22.1204Z" fill="#F5F5F7"/>
</svg>
