<svg width="302" height="133" viewBox="0 0 302 133" fill="none" xmlns="http://www.w3.org/2000/svg">
<path d="M18.9785 76.7914C18.3896 76.7191 17.893 76.4969 17.4886 76.1248C17.0851 75.7462 16.7926 75.2569 16.611 74.6569C16.4368 74.0512 16.3965 73.3678 16.4899 72.6069C16.5842 71.8393 16.7886 71.186 17.1033 70.647C17.4247 70.1089 17.8232 69.7078 18.2989 69.4438C18.7812 69.1806 19.3169 69.0852 19.9058 69.1575C20.4947 69.2298 20.988 69.4516 21.3857 69.8228C21.7901 70.1948 22.0793 70.6837 22.2534 71.2895C22.435 71.8894 22.4791 72.5698 22.3857 73.3308C22.2922 74.0918 22.0877 74.745 21.7722 75.2907C21.4575 75.8297 21.0586 76.234 20.5755 76.5038C20.0997 76.7678 19.5674 76.8637 18.9785 76.7914ZM19.1101 75.7194C19.4741 75.7641 19.8022 75.6902 20.0945 75.4977C20.3868 75.3053 20.6309 75.0128 20.8269 74.6204C21.0228 74.2281 21.1553 73.7507 21.2244 73.1882C21.2934 72.6258 21.2804 72.1305 21.1852 71.7024C21.09 71.2742 20.9238 70.9314 20.6868 70.674C20.4497 70.4165 20.1459 70.265 19.7754 70.2195C19.4114 70.1748 19.0833 70.2487 18.791 70.4412C18.4987 70.6337 18.2546 70.9261 18.0586 71.3185C17.8627 71.7108 17.7302 72.1883 17.6611 72.7507C17.5929 73.3065 17.606 73.8018 17.7003 74.2366C17.7955 74.6647 17.9617 75.0075 18.1987 75.265C18.4424 75.5232 18.7462 75.6747 19.1101 75.7194Z" fill="#1A1A1C" fill-opacity="0.6"/>
<path d="M31.8922 100.542C31.429 100.485 31.0095 100.346 30.6336 100.125C30.2585 99.8978 29.9507 99.6149 29.7101 99.2764C29.4696 98.9379 29.3075 98.562 29.2239 98.1487L30.2677 97.8537C30.3903 98.3322 30.6086 98.715 30.9226 99.0021C31.2366 99.2892 31.6186 99.4603 32.0686 99.5156C32.3332 99.5481 32.5697 99.5368 32.778 99.4818C32.987 99.4201 33.1538 99.3197 33.2784 99.1805C33.4096 99.0421 33.4874 98.8737 33.5117 98.6752C33.545 98.4039 33.4954 98.1795 33.3627 98.002C33.23 97.8245 33.0204 97.6712 32.734 97.542L31.3981 96.9346C30.8634 96.6943 30.472 96.381 30.2239 95.9945C29.9766 95.6015 29.8823 95.1667 29.9408 94.6903C29.9919 94.2734 30.1392 93.9221 30.3825 93.6363C30.6266 93.3438 30.9383 93.1302 31.3176 92.9954C31.7034 92.8615 32.128 92.8229 32.5911 92.8798C33.0345 92.9342 33.4284 93.0632 33.7728 93.2667C34.1181 93.4636 34.4031 93.7135 34.6278 94.0165C34.8592 94.3203 35.0125 94.6581 35.0877 95.0301L34.0626 95.3374C33.965 94.9292 33.7736 94.6001 33.4887 94.3501C33.2103 94.101 32.8693 93.9517 32.4656 93.9021C32.2208 93.8721 32.0005 93.8887 31.8046 93.9519C31.6096 94.0086 31.4494 94.1098 31.324 94.2556C31.2061 94.3956 31.1345 94.5682 31.1093 94.7733C31.0801 95.0115 31.1302 95.2326 31.2596 95.4366C31.3891 95.6405 31.6036 95.8079 31.9032 95.9388L33.1436 96.5041C33.7105 96.7551 34.1222 97.0676 34.3785 97.4416C34.6357 97.809 34.7338 98.2409 34.6728 98.7371C34.6225 99.1474 34.4686 99.4979 34.2112 99.7887C33.9605 100.08 33.6352 100.296 33.2353 100.435C32.8361 100.567 32.3885 100.603 31.8922 100.542Z" fill="#1A1A1C" fill-opacity="0.6"/>
<path d="M69.8798 105.086L70.7877 97.6919L71.8795 97.826L74.1858 102.018L73.6399 101.951L76.8422 98.4353L77.934 98.5694L77.0261 105.964L75.8648 105.821L76.6033 99.8064L77.0254 99.9792L73.7684 103.448L73.6493 103.433L71.3878 99.287L71.7895 99.2154L71.051 105.23L69.8798 105.086Z" fill="#1A1A1C" fill-opacity="0.6"/>
<path d="M114.077 110.513L114.857 104.161L112.892 103.919L113.02 102.877L118.082 103.499L117.954 104.541L116.018 104.303L115.238 110.656L114.077 110.513Z" fill="#1A1A1C" fill-opacity="0.6"/>
<path d="M153.971 115.411L152.844 107.767L154.085 107.919L154.946 114.524L154.639 114.486L157.132 108.294L158.353 108.443L159.274 115.055L158.956 115.016L161.4 108.818L162.631 108.969L159.698 116.115L158.378 115.952L157.434 109.439L157.782 109.482L155.281 115.572L153.971 115.411Z" fill="#1A1A1C" fill-opacity="0.6"/>
<path d="M198.444 120.87L199.224 114.518L197.259 114.277L197.387 113.235L202.449 113.856L202.321 114.898L200.385 114.661L199.605 121.013L198.444 120.87Z" fill="#1A1A1C" fill-opacity="0.6"/>
<path d="M236.58 125.553L237.488 118.159L242.302 118.75L242.174 119.792L238.531 119.344L238.259 121.568L241.504 121.966L241.376 123.008L238.131 122.61L237.752 125.697L236.58 125.553Z" fill="#1A1A1C" fill-opacity="0.6"/>
<path d="M279.537 130.95C279.073 130.893 278.654 130.754 278.278 130.533C277.903 130.306 277.595 130.023 277.354 129.684C277.114 129.346 276.952 128.97 276.868 128.557L277.912 128.262C278.035 128.74 278.253 129.123 278.567 129.41C278.881 129.697 279.263 129.868 279.713 129.923C279.978 129.956 280.214 129.945 280.422 129.89C280.631 129.828 280.798 129.728 280.923 129.588C281.054 129.45 281.132 129.282 281.156 129.083C281.189 128.812 281.14 128.587 281.007 128.41C280.874 128.232 280.665 128.079 280.378 127.95L279.042 127.342C278.508 127.102 278.116 126.789 277.868 126.402C277.621 126.009 277.527 125.575 277.585 125.098C277.636 124.681 277.784 124.33 278.027 124.044C278.271 123.752 278.583 123.538 278.962 123.403C279.348 123.269 279.772 123.231 280.236 123.288C280.679 123.342 281.073 123.471 281.417 123.675C281.762 123.871 282.047 124.121 282.272 124.424C282.504 124.728 282.657 125.066 282.732 125.438L281.707 125.745C281.609 125.337 281.418 125.008 281.133 124.758C280.855 124.509 280.514 124.359 280.11 124.31C279.865 124.28 279.645 124.296 279.449 124.36C279.254 124.416 279.094 124.518 278.968 124.663C278.85 124.803 278.779 124.976 278.754 125.181C278.724 125.419 278.775 125.64 278.904 125.844C279.033 126.048 279.248 126.216 279.548 126.347L280.788 126.912C281.355 127.163 281.767 127.475 282.023 127.849C282.28 128.217 282.378 128.649 282.317 129.145C282.267 129.555 282.113 129.906 281.856 130.197C281.605 130.488 281.28 130.703 280.88 130.842C280.48 130.975 280.033 131.01 279.537 130.95Z" fill="#1A1A1C" fill-opacity="0.6"/>
<path d="M16.1828 44.2067C15.7924 44.1588 15.4336 44.0442 15.1066 43.863C14.7804 43.6752 14.5074 43.4368 14.2877 43.1479C14.0679 42.859 13.9274 42.526 13.8663 42.1491L14.8952 41.8926C14.9778 42.2587 15.1501 42.5519 15.4118 42.7721C15.6736 42.9923 15.9733 43.1231 16.3107 43.1646C16.5886 43.1987 16.8412 43.1659 17.0684 43.0662C17.2955 42.9664 17.4821 42.8147 17.628 42.611C17.7805 42.4081 17.8739 42.1676 17.908 41.8897C17.9429 41.6052 17.9105 41.3493 17.8108 41.1222C17.7185 40.8892 17.5738 40.7001 17.3767 40.555C17.1804 40.4033 16.9433 40.3104 16.6654 40.2763C16.3874 40.2421 16.125 40.2737 15.8779 40.371C15.6309 40.4683 15.4415 40.6163 15.3096 40.8151L14.3923 40.4908L15.4676 36.4921L19.408 36.9759L19.2861 37.9685L15.8023 37.5407L16.3087 37.1092L15.4992 40.1734L15.1624 39.8802C15.3951 39.6266 15.6614 39.4544 15.9613 39.3637C16.2613 39.2729 16.5932 39.2498 16.9572 39.2945C17.4402 39.3538 17.847 39.5146 18.1775 39.7768C18.5154 40.0333 18.7609 40.3589 18.9139 40.7539C19.0744 41.143 19.1261 41.5691 19.0693 42.0323C19.0116 42.5021 18.8471 42.9118 18.5758 43.2613C18.3045 43.6109 17.9603 43.8709 17.5431 44.0413C17.1325 44.2125 16.679 44.2677 16.1828 44.2067ZM22.8848 45.0297C22.2959 44.9573 21.7992 44.7352 21.3949 44.3631C20.9914 43.9844 20.6988 43.4951 20.5172 42.8952C20.3431 42.2895 20.3027 41.6061 20.3962 40.8452C20.4904 40.0776 20.6949 39.4243 21.0096 38.8853C21.3309 38.3471 21.7294 37.9461 22.2051 37.6821C22.6875 37.4189 23.2231 37.3234 23.812 37.3958C24.4009 37.4681 24.8942 37.6898 25.292 38.0611C25.6963 38.4331 25.9855 38.922 26.1597 39.5278C26.3413 40.1277 26.3853 40.8081 26.2919 41.5691C26.1985 42.33 25.994 42.9833 25.6785 43.5289C25.3638 44.0679 24.9649 44.4723 24.4817 44.7421C24.006 45.0061 23.4737 45.102 22.8848 45.0297ZM23.0164 43.9577C23.3803 44.0024 23.7084 43.9285 24.0007 43.736C24.293 43.5435 24.5372 43.2511 24.7331 42.8587C24.9291 42.4663 25.0616 41.9889 25.1306 41.4265C25.1997 40.8641 25.1866 40.3688 25.0914 39.9406C24.9962 39.5125 24.8301 39.1697 24.593 38.9122C24.356 38.6548 24.0522 38.5033 23.6816 38.4578C23.3177 38.4131 22.9896 38.487 22.6973 38.6795C22.405 38.8719 22.1608 39.1644 21.9649 39.5568C21.7689 39.9491 21.6364 40.4265 21.5674 40.989C21.4991 41.5448 21.5122 42.0401 21.6066 42.4748C21.7018 42.903 21.8679 43.2458 22.105 43.5032C22.3487 43.7615 22.6525 43.913 23.0164 43.9577Z" fill="#1A1A1C" fill-opacity="0.6"/>
<path d="M13.9919 11.5769L14.778 5.17502L13.3587 5.00075L13.4805 4.0082L16.0612 4.32506L15.1532 11.7195L13.9919 11.5769ZM19.6805 12.3963C19.0916 12.324 18.595 12.1018 18.1906 11.7298C17.7871 11.3511 17.4946 10.8618 17.313 10.2619C17.1388 9.65614 17.0985 8.97279 17.1919 8.21184C17.2862 7.44427 17.4906 6.79099 17.8053 6.25199C18.1267 5.7138 18.5252 5.31271 19.0009 5.04872C19.4832 4.78554 20.0188 4.69011 20.6078 4.76242C21.1967 4.83472 21.69 5.0565 22.0877 5.42773C22.492 5.79978 22.7813 6.28868 22.9554 6.89442C23.137 7.49435 23.1811 8.17479 23.0876 8.93574C22.9942 9.6967 22.7897 10.35 22.4742 10.8956C22.1595 11.4346 21.7606 11.839 21.2775 12.1088C20.8017 12.3728 20.2694 12.4686 19.6805 12.3963ZM19.8121 11.3244C20.1761 11.369 20.5042 11.2952 20.7965 11.1027C21.0888 10.9102 21.3329 10.6178 21.5289 10.2254C21.7248 9.83301 21.8573 9.3556 21.9264 8.79316C21.9954 8.23071 21.9824 7.73543 21.8872 7.3073C21.792 6.87918 21.6258 6.53638 21.3888 6.2789C21.1517 6.02142 20.8479 5.86994 20.4774 5.82444C20.1134 5.77975 19.7853 5.85365 19.493 6.04613C19.2007 6.23861 18.9566 6.53104 18.7606 6.92341C18.5647 7.31579 18.4322 7.7932 18.3631 8.35565C18.2949 8.91147 18.3079 9.40676 18.4023 9.8415C18.4975 10.2696 18.6637 10.6124 18.9007 10.8699C19.1444 11.1282 19.4482 11.2797 19.8121 11.3244ZM26.7854 13.2687C26.1964 13.1964 25.6998 12.9742 25.2955 12.6021C24.892 12.2235 24.5994 11.7342 24.4178 11.1342C24.2437 10.5285 24.2033 9.84516 24.2968 9.08421C24.391 8.31664 24.5955 7.66335 24.9102 7.12435C25.2315 6.58617 25.63 6.18508 26.1057 5.92109C26.5881 5.65791 27.1237 5.56247 27.7126 5.63478C28.3015 5.70709 28.7948 5.92886 29.1926 6.3001C29.5969 6.67215 29.8861 7.16104 30.0603 7.76678C30.2419 8.36672 30.2859 9.04716 30.1925 9.80811C30.0991 10.5691 29.8946 11.2223 29.5791 11.768C29.2644 12.307 28.8654 12.7114 28.3823 12.9812C27.9066 13.2451 27.3743 13.341 26.7854 13.2687ZM26.917 12.1967C27.2809 12.2414 27.609 12.1675 27.9013 11.975C28.1936 11.7826 28.4378 11.4901 28.6337 11.0978C28.8296 10.7054 28.9622 10.228 29.0312 9.66552C29.1003 9.10308 29.0872 8.6078 28.992 8.17967C28.8968 7.75154 28.7307 7.40874 28.4936 7.15127C28.2566 6.89379 27.9528 6.7423 27.5822 6.69681C27.2183 6.65212 26.8902 6.72602 26.5979 6.91849C26.3055 7.11097 26.0614 7.4034 25.8655 7.79578C25.6695 8.18816 25.537 8.66557 25.468 9.22801C25.3997 9.78384 25.4128 10.2791 25.5072 10.7139C25.6024 11.142 25.7685 11.4848 26.0056 11.7423C26.2492 12.0006 26.553 12.152 26.917 12.1967Z" fill="#1A1A1C" fill-opacity="0.6"/>
<path d="M42.2423 39.7306L72.0504 56.5129C77.9733 59.8476 85.4357 58.4462 89.7453 53.1899L103.284 36.6763C109.179 29.4871 120.569 30.9708 124.425 39.4302L125.914 42.6966C128.564 48.5098 135.986 50.2613 140.955 46.2461V46.2461C144.897 43.0604 150.621 43.4161 154.139 47.0656L164.582 57.9005C168.774 62.2488 175.281 63.4192 180.725 60.8039L183.755 59.3481C189.006 56.8251 195.272 57.8182 199.485 61.8414L205.782 67.8533C210.422 72.2835 217.48 72.993 222.909 69.575L239.074 59.398C244.888 55.7375 252.499 56.8371 257.04 61.9933L292.931 102.752" stroke="#864FFE" stroke-width="2"/>
<path d="M46.4925 46.1404L74.6706 61.9903C80.5906 65.3202 88.0469 63.9204 92.356 58.67L105.035 43.222C110.689 36.332 121.609 37.7544 125.31 45.8631L126.737 48.9901C129.28 54.5632 136.396 56.2426 141.163 52.3951V52.3951C144.945 49.3428 150.432 49.6839 153.807 53.181L163.542 63.2702C167.732 67.6122 174.233 68.7812 179.673 66.171L181.862 65.1205C187.11 62.6026 193.369 63.5945 197.581 67.6117L203.021 72.8006C207.66 77.2244 214.71 77.9332 220.136 74.5212L234.86 65.2628C240.671 61.6087 248.275 62.7071 252.814 67.8564L286.923 106.547" stroke="#F4F2FE" stroke-width="2"/>
<line x1="115.474" y1="13.4556" x2="106.416" y2="87.229" stroke="#864FFE" stroke-linecap="round" stroke-dasharray="8 8"/>
<g filter="url(#filter0_d_188_147025)">
<mask id="path-14-inside-1_188_147025" fill="white">
<ellipse cx="115.065" cy="20.8913" rx="4" ry="3.9646" transform="rotate(7 115.065 20.8913)"/>
</mask>
<ellipse cx="115.065" cy="20.8913" rx="4" ry="3.9646" transform="rotate(7 115.065 20.8913)" fill="#864FFE"/>
<path d="M113.08 20.6475C113.223 19.482 114.267 18.7426 115.313 18.8711L113.851 30.7816C119.282 31.4485 124.314 27.622 124.991 22.11L113.08 20.6475ZM115.313 18.8711C116.36 18.9995 117.193 19.9695 117.05 21.135L105.14 19.6726C104.463 25.1847 108.419 30.1147 113.851 30.7816L115.313 18.8711ZM117.05 21.135C116.907 22.3006 115.863 23.04 114.817 22.9115L116.28 11.001C110.848 10.334 105.816 14.1605 105.14 19.6726L117.05 21.135ZM114.817 22.9115C113.771 22.783 112.937 21.8131 113.08 20.6475L124.991 22.11C125.667 16.5979 121.711 11.6679 116.28 11.001L114.817 22.9115Z" fill="white" mask="url(#path-14-inside-1_188_147025)"/>
</g>
<defs>
<filter id="filter0_d_188_147025" x="101.062" y="10.9258" width="28" height="27.9316" filterUnits="userSpaceOnUse" color-interpolation-filters="sRGB">
<feFlood flood-opacity="0" result="BackgroundImageFix"/>
<feColorMatrix in="SourceAlpha" type="matrix" values="0 0 0 0 0 0 0 0 0 0 0 0 0 0 0 0 0 0 127 0" result="hardAlpha"/>
<feOffset dy="4"/>
<feGaussianBlur stdDeviation="5"/>
<feComposite in2="hardAlpha" operator="out"/>
<feColorMatrix type="matrix" values="0 0 0 0 0 0 0 0 0 0 0 0 0 0 0 0 0 0 0.12 0"/>
<feBlend mode="normal" in2="BackgroundImageFix" result="effect1_dropShadow_188_147025"/>
<feBlend mode="normal" in="SourceGraphic" in2="effect1_dropShadow_188_147025" result="shape"/>
</filter>
</defs>
</svg>
