<svg width="303" height="137" viewBox="0 0 303 137" fill="none" xmlns="http://www.w3.org/2000/svg">
<path d="M138.318 64.748C137.341 64.748 136.482 64.5755 135.74 64.2305C134.998 63.8789 134.418 63.3971 134.001 62.7852C133.585 62.1732 133.376 61.4733 133.376 60.6855C133.376 60.0736 133.497 59.5072 133.738 58.9863C133.985 58.459 134.32 58.0195 134.744 57.668C135.173 57.3164 135.655 57.0918 136.189 56.9941V56.916C135.492 56.7337 134.936 56.3398 134.519 55.7344C134.109 55.1289 133.904 54.4421 133.904 53.6738C133.904 52.9316 134.093 52.2708 134.47 51.6914C134.848 51.1055 135.369 50.6465 136.033 50.3145C136.703 49.9759 137.465 49.8066 138.318 49.8066C139.158 49.8066 139.91 49.9759 140.574 50.3145C141.238 50.6465 141.759 51.1055 142.136 51.6914C142.52 52.2708 142.712 52.9316 142.712 53.6738C142.712 54.4421 142.504 55.1289 142.087 55.7344C141.671 56.3398 141.124 56.7337 140.447 56.916V56.9941C140.968 57.0918 141.44 57.3164 141.863 57.668C142.292 58.0195 142.631 58.459 142.878 58.9863C143.132 59.5072 143.259 60.0736 143.259 60.6855C143.259 61.4733 143.048 62.1732 142.625 62.7852C142.208 63.3971 141.628 63.8789 140.886 64.2305C140.144 64.5755 139.288 64.748 138.318 64.748ZM138.318 63.1855C138.975 63.1855 139.542 63.0814 140.017 62.873C140.499 62.6582 140.87 62.3587 141.13 61.9746C141.391 61.584 141.521 61.1283 141.521 60.6074C141.521 60.0605 141.381 59.5755 141.101 59.1523C140.821 58.7292 140.44 58.3971 139.958 58.1562C139.477 57.9154 138.93 57.7949 138.318 57.7949C137.693 57.7949 137.136 57.9154 136.648 58.1562C136.166 58.3971 135.785 58.7292 135.505 59.1523C135.232 59.5755 135.095 60.0605 135.095 60.6074C135.095 61.1283 135.225 61.584 135.486 61.9746C135.746 62.3587 136.117 62.6582 136.599 62.873C137.081 63.0814 137.654 63.1855 138.318 63.1855ZM138.318 56.291C138.839 56.291 139.301 56.1868 139.705 55.9785C140.108 55.7702 140.427 55.4805 140.662 55.1094C140.896 54.7318 141.013 54.2923 141.013 53.791C141.013 53.2962 140.899 52.8665 140.671 52.502C140.444 52.1374 140.128 51.8542 139.724 51.6523C139.32 51.4505 138.852 51.3496 138.318 51.3496C137.771 51.3496 137.292 51.4505 136.882 51.6523C136.479 51.8542 136.163 52.1374 135.935 52.502C135.714 52.8665 135.603 53.2962 135.603 53.791C135.603 54.2923 135.717 54.7318 135.945 55.1094C136.179 55.4805 136.498 55.7702 136.902 55.9785C137.312 56.1868 137.784 56.291 138.318 56.291ZM149.763 64.748C148.695 64.748 147.784 64.4551 147.029 63.8691C146.274 63.2832 145.697 62.4368 145.3 61.3301C144.903 60.2168 144.705 58.8691 144.705 57.2871C144.705 55.7116 144.903 54.3672 145.3 53.2539C145.704 52.1341 146.283 51.2812 147.039 50.6953C147.794 50.1029 148.702 49.8066 149.763 49.8066C150.824 49.8066 151.733 50.1029 152.488 50.6953C153.243 51.2812 153.819 52.1341 154.216 53.2539C154.62 54.3672 154.822 55.7116 154.822 57.2871C154.822 58.8691 154.623 60.2168 154.226 61.3301C153.829 62.4368 153.253 63.2832 152.498 63.8691C151.749 64.4551 150.837 64.748 149.763 64.748ZM149.763 63.2051C150.486 63.2051 151.098 62.974 151.599 62.5117C152.1 62.043 152.481 61.3659 152.742 60.4805C153.009 59.5951 153.142 58.5306 153.142 57.2871C153.142 56.0371 153.009 54.9694 152.742 54.084C152.481 53.1986 152.1 52.5215 151.599 52.0527C151.098 51.584 150.486 51.3496 149.763 51.3496C148.682 51.3496 147.849 51.8704 147.263 52.9121C146.677 53.9538 146.384 55.4121 146.384 57.2871C146.384 58.5306 146.514 59.5951 146.775 60.4805C147.042 61.3659 147.426 62.043 147.927 62.5117C148.435 62.974 149.047 63.2051 149.763 63.2051ZM164.001 61.8184V61.0566C164.001 60.5228 164.109 60.0345 164.324 59.5918C164.545 59.1491 164.867 58.7943 165.291 58.5273C165.714 58.2604 166.228 58.127 166.833 58.127C167.452 58.127 167.97 58.2604 168.386 58.5273C168.803 58.7943 169.115 59.1491 169.324 59.5918C169.539 60.0345 169.646 60.5228 169.646 61.0566V61.8184C169.646 62.3522 169.539 62.8405 169.324 63.2832C169.109 63.7259 168.793 64.0807 168.376 64.3477C167.96 64.6146 167.445 64.748 166.833 64.748C166.222 64.748 165.704 64.6146 165.281 64.3477C164.858 64.0807 164.539 63.7259 164.324 63.2832C164.109 62.8405 164.001 62.3522 164.001 61.8184ZM165.447 61.0566V61.8184C165.447 62.2611 165.551 62.6582 165.759 63.0098C165.968 63.3548 166.326 63.5306 166.833 63.5371C167.335 63.5306 167.686 63.3548 167.888 63.0098C168.097 62.6582 168.201 62.2611 168.201 61.8184V61.0566C168.201 60.6139 168.1 60.2201 167.898 59.875C167.703 59.5299 167.348 59.3574 166.833 59.3574C166.339 59.3574 165.984 59.5299 165.769 59.875C165.554 60.2201 165.447 60.6139 165.447 61.0566ZM156.755 53.498V52.7363C156.755 52.2025 156.866 51.7142 157.087 51.2715C157.309 50.8288 157.628 50.474 158.044 50.207C158.468 49.9401 158.982 49.8066 159.587 49.8066C160.206 49.8066 160.723 49.9401 161.14 50.207C161.563 50.474 161.879 50.8288 162.087 51.2715C162.302 51.7142 162.406 52.2025 162.4 52.7363V53.498C162.406 54.0254 162.299 54.5137 162.078 54.9629C161.863 55.4056 161.547 55.7604 161.13 56.0273C160.714 56.2943 160.199 56.4277 159.587 56.4277C158.975 56.4277 158.458 56.2943 158.035 56.0273C157.611 55.7604 157.292 55.4056 157.078 54.9629C156.863 54.5137 156.755 54.0254 156.755 53.498ZM158.201 52.7363V53.498C158.201 53.9408 158.305 54.3379 158.513 54.6895C158.722 55.0345 159.08 55.2038 159.587 55.1973C160.089 55.2038 160.44 55.0345 160.642 54.6895C160.85 54.3379 160.955 53.9408 160.955 53.498V52.7363C160.955 52.2936 160.854 51.8997 160.652 51.5547C160.457 51.2031 160.102 51.0306 159.587 51.0371C159.093 51.0306 158.738 51.2031 158.523 51.5547C158.308 51.8997 158.201 52.2936 158.201 52.7363ZM157.302 64.5527L167.302 50.002H168.923L158.923 64.5527H157.302Z" fill="#1A1A1C"/>
<path d="M208.758 57.3809C208.758 88.5849 183.238 113.881 151.758 113.881C120.278 113.881 94.7578 88.5849 94.7578 57.3809C94.7578 26.1768 120.278 0.880859 151.758 0.880859C183.238 0.880859 208.758 26.1768 208.758 57.3809ZM108.438 57.3809C108.438 81.096 127.833 100.321 151.758 100.321C175.683 100.321 195.078 81.096 195.078 57.3809C195.078 33.6658 175.683 14.4409 151.758 14.4409C127.833 14.4409 108.438 33.6658 108.438 57.3809Z" fill="#F4F2FE"/>
<path d="M151.758 7.66086C151.758 3.91637 154.804 0.839583 158.522 1.28011C165.168 2.06745 171.64 4.01114 177.635 7.03899C185.65 11.0869 192.585 16.9576 197.872 24.171C203.159 31.3844 206.649 39.7358 208.056 48.5423C209.463 57.3488 208.748 66.3604 205.968 74.8403C203.188 83.3202 198.423 91.0276 192.063 97.3324C185.702 103.637 177.927 108.36 169.372 111.116C160.817 113.871 151.725 114.58 142.841 113.185C136.227 112.147 129.867 109.964 124.046 106.754C120.738 104.93 120.075 100.606 122.308 97.5592C124.515 94.5479 128.72 93.934 132.051 95.6206C136.1 97.6708 140.463 99.0828 144.981 99.7922C151.733 100.852 158.643 100.313 165.144 98.2192C171.646 96.1252 177.556 92.5356 182.39 87.744C187.224 82.9524 190.845 77.0948 192.958 70.65C195.07 64.2053 195.614 57.3565 194.544 50.6636C193.475 43.9706 190.823 37.6236 186.804 32.1414C182.786 26.6592 177.516 22.1975 171.425 19.121C167.355 17.0654 162.995 15.6673 158.511 14.9658C154.811 14.3871 151.758 11.4053 151.758 7.66086Z" fill="#864FFE"/>
<path d="M86.2578 100.881C86.2578 94.2534 91.6304 88.8809 98.2578 88.8809H205.258C211.885 88.8809 217.258 94.2534 217.258 100.881V124.881C217.258 131.508 211.885 136.881 205.258 136.881H98.2578C91.6304 136.881 86.2578 131.508 86.2578 124.881V100.881Z" fill="#F9EB57"/>
<path d="M126.977 119.084C126.143 119.084 125.422 118.951 124.812 118.686C124.203 118.415 123.724 118.04 123.375 117.561C123.031 117.076 122.836 116.516 122.789 115.881H124.242C124.284 116.318 124.432 116.68 124.688 116.967C124.948 117.253 125.279 117.467 125.68 117.607C126.081 117.748 126.513 117.818 126.977 117.818C127.513 117.818 127.995 117.73 128.422 117.553C128.854 117.376 129.195 117.128 129.445 116.811C129.695 116.493 129.82 116.12 129.82 115.693C129.82 115.308 129.711 114.995 129.492 114.756C129.273 114.516 128.987 114.321 128.633 114.17C128.284 114.019 127.904 113.886 127.492 113.771L126.07 113.365C125.159 113.105 124.438 112.732 123.906 112.248C123.38 111.758 123.117 111.12 123.117 110.334C123.117 109.683 123.292 109.115 123.641 108.631C123.995 108.141 124.471 107.761 125.07 107.49C125.674 107.219 126.346 107.084 127.086 107.084C127.836 107.084 128.503 107.219 129.086 107.49C129.669 107.756 130.133 108.12 130.477 108.584C130.82 109.042 131.003 109.563 131.023 110.146H129.648C129.581 109.574 129.305 109.128 128.82 108.811C128.341 108.493 127.747 108.334 127.039 108.334C126.529 108.334 126.081 108.417 125.695 108.584C125.31 108.751 125.01 108.98 124.797 109.271C124.583 109.563 124.477 109.896 124.477 110.271C124.477 110.683 124.604 111.016 124.859 111.271C125.115 111.521 125.417 111.717 125.766 111.857C126.12 111.998 126.44 112.11 126.727 112.193L127.898 112.521C128.201 112.605 128.536 112.717 128.906 112.857C129.281 112.998 129.641 113.188 129.984 113.428C130.333 113.667 130.62 113.975 130.844 114.35C131.068 114.719 131.18 115.178 131.18 115.725C131.18 116.35 131.016 116.917 130.688 117.428C130.359 117.933 129.883 118.337 129.258 118.639C128.633 118.936 127.872 119.084 126.977 119.084ZM136.352 110.146V111.287H131.836V110.146H136.352ZM133.148 108.068H134.477V116.381C134.477 116.834 134.57 117.167 134.758 117.381C134.945 117.589 135.242 117.693 135.648 117.693C135.737 117.693 135.828 117.688 135.922 117.678C136.021 117.667 136.128 117.652 136.242 117.631L136.523 118.834C136.398 118.881 136.245 118.917 136.062 118.943C135.885 118.975 135.706 118.99 135.523 118.99C134.82 118.99 134.247 118.782 133.805 118.365C133.367 117.949 133.148 117.407 133.148 116.74V108.068ZM137.633 118.881V110.146H138.914V111.475H139.008C139.169 111.042 139.458 110.693 139.875 110.428C140.297 110.157 140.768 110.021 141.289 110.021C141.388 110.021 141.51 110.024 141.656 110.029C141.802 110.029 141.914 110.032 141.992 110.037V111.396C141.945 111.386 141.841 111.37 141.68 111.35C141.518 111.329 141.346 111.318 141.164 111.318C140.742 111.318 140.365 111.407 140.031 111.584C139.698 111.761 139.435 112.003 139.242 112.311C139.055 112.618 138.961 112.969 138.961 113.365V118.881H137.633ZM145.398 119.084C144.846 119.084 144.344 118.98 143.891 118.771C143.438 118.558 143.078 118.251 142.812 117.85C142.547 117.449 142.414 116.964 142.414 116.396C142.414 115.896 142.513 115.493 142.711 115.186C142.909 114.873 143.172 114.628 143.5 114.451C143.833 114.269 144.198 114.133 144.594 114.045C144.995 113.956 145.398 113.886 145.805 113.834C146.336 113.766 146.766 113.714 147.094 113.678C147.427 113.641 147.669 113.579 147.82 113.49C147.977 113.402 148.055 113.251 148.055 113.037V112.99C148.055 112.433 147.901 112.001 147.594 111.693C147.292 111.381 146.831 111.225 146.211 111.225C145.576 111.225 145.076 111.365 144.711 111.646C144.346 111.923 144.091 112.219 143.945 112.537L142.664 112.084C142.893 111.553 143.198 111.139 143.578 110.842C143.964 110.545 144.38 110.337 144.828 110.217C145.281 110.097 145.727 110.037 146.164 110.037C146.445 110.037 146.768 110.071 147.133 110.139C147.497 110.201 147.852 110.337 148.195 110.545C148.544 110.748 148.831 111.058 149.055 111.475C149.284 111.886 149.398 112.438 149.398 113.131V118.881H148.055V117.693H147.992C147.904 117.881 147.753 118.084 147.539 118.303C147.326 118.516 147.042 118.701 146.688 118.857C146.339 119.008 145.909 119.084 145.398 119.084ZM145.602 117.881C146.133 117.881 146.581 117.777 146.945 117.568C147.31 117.36 147.586 117.092 147.773 116.764C147.961 116.43 148.055 116.084 148.055 115.725V114.49C147.997 114.558 147.872 114.62 147.68 114.678C147.492 114.73 147.273 114.777 147.023 114.818C146.779 114.86 146.539 114.896 146.305 114.928C146.07 114.954 145.883 114.975 145.742 114.99C145.393 115.037 145.068 115.113 144.766 115.217C144.464 115.316 144.219 115.464 144.031 115.662C143.849 115.86 143.758 116.131 143.758 116.475C143.758 116.938 143.93 117.29 144.273 117.529C144.622 117.764 145.065 117.881 145.602 117.881ZM154.898 110.146V111.287H150.383V110.146H154.898ZM151.695 108.068H153.023V116.381C153.023 116.834 153.117 117.167 153.305 117.381C153.492 117.589 153.789 117.693 154.195 117.693C154.284 117.693 154.375 117.688 154.469 117.678C154.568 117.667 154.674 117.652 154.789 117.631L155.07 118.834C154.945 118.881 154.792 118.917 154.609 118.943C154.432 118.975 154.253 118.99 154.07 118.99C153.367 118.99 152.794 118.782 152.352 118.365C151.914 117.949 151.695 117.407 151.695 116.74V108.068ZM159.742 119.068C158.904 119.068 158.177 118.881 157.562 118.506C156.953 118.131 156.484 117.607 156.156 116.936C155.828 116.258 155.664 115.475 155.664 114.584C155.664 113.688 155.826 112.899 156.148 112.217C156.471 111.535 156.924 111.001 157.508 110.615C158.096 110.23 158.784 110.037 159.57 110.037C160.023 110.037 160.474 110.113 160.922 110.264C161.37 110.415 161.776 110.66 162.141 110.998C162.51 111.337 162.805 111.785 163.023 112.342C163.242 112.899 163.352 113.584 163.352 114.396V114.975H156.617V113.818H162.625L162.008 114.256C162.008 113.673 161.917 113.154 161.734 112.701C161.552 112.248 161.279 111.891 160.914 111.631C160.555 111.37 160.107 111.24 159.57 111.24C159.034 111.24 158.573 111.373 158.188 111.639C157.807 111.899 157.516 112.24 157.312 112.662C157.109 113.084 157.008 113.537 157.008 114.021V114.787C157.008 115.449 157.122 116.008 157.352 116.467C157.581 116.925 157.901 117.274 158.312 117.514C158.724 117.748 159.201 117.865 159.742 117.865C160.091 117.865 160.409 117.816 160.695 117.717C160.982 117.613 161.229 117.459 161.438 117.256C161.646 117.048 161.805 116.792 161.914 116.49L163.211 116.865C163.076 117.303 162.846 117.688 162.523 118.021C162.206 118.35 161.81 118.607 161.336 118.795C160.862 118.977 160.331 119.068 159.742 119.068ZM168.133 122.334C167.159 122.334 166.388 122.157 165.82 121.803C165.258 121.449 164.841 121.042 164.57 120.584L165.633 119.834C165.753 119.995 165.906 120.178 166.094 120.381C166.281 120.589 166.536 120.769 166.859 120.92C167.182 121.071 167.607 121.146 168.133 121.146C168.836 121.146 169.417 120.977 169.875 120.639C170.339 120.3 170.57 119.766 170.57 119.037V117.271H170.445C170.352 117.428 170.214 117.623 170.031 117.857C169.854 118.087 169.596 118.292 169.258 118.475C168.924 118.652 168.471 118.74 167.898 118.74C167.195 118.74 166.565 118.574 166.008 118.24C165.451 117.907 165.008 117.423 164.68 116.787C164.357 116.152 164.195 115.381 164.195 114.475C164.195 113.579 164.352 112.8 164.664 112.139C164.982 111.472 165.422 110.956 165.984 110.592C166.547 110.222 167.195 110.037 167.93 110.037C168.497 110.037 168.948 110.131 169.281 110.318C169.62 110.506 169.878 110.719 170.055 110.959C170.237 111.193 170.378 111.386 170.477 111.537H170.617V110.146H171.898V119.131C171.898 119.881 171.729 120.49 171.391 120.959C171.057 121.433 170.604 121.779 170.031 121.998C169.464 122.222 168.831 122.334 168.133 122.334ZM168.086 117.537C168.893 117.537 169.51 117.264 169.938 116.717C170.37 116.17 170.586 115.412 170.586 114.443C170.586 113.813 170.492 113.258 170.305 112.779C170.117 112.3 169.836 111.925 169.461 111.654C169.091 111.378 168.633 111.24 168.086 111.24C167.518 111.24 167.044 111.386 166.664 111.678C166.289 111.964 166.008 112.35 165.82 112.834C165.633 113.318 165.539 113.855 165.539 114.443C165.539 115.048 165.633 115.584 165.82 116.053C166.013 116.516 166.299 116.881 166.68 117.146C167.06 117.407 167.529 117.537 168.086 117.537ZM174.477 122.146C174.247 122.152 174.044 122.136 173.867 122.1C173.69 122.063 173.565 122.027 173.492 121.99L173.836 120.818L173.969 120.85C174.417 120.954 174.792 120.93 175.094 120.779C175.401 120.633 175.669 120.245 175.898 119.615L176.148 118.928L172.93 110.146H174.383L176.789 117.115H176.883L179.289 110.146H180.742L177.039 120.146C176.872 120.6 176.667 120.975 176.422 121.271C176.177 121.568 175.893 121.787 175.57 121.928C175.247 122.074 174.883 122.146 174.477 122.146Z" fill="black"/>
</svg>
