<svg width="303" height="137" viewBox="0 0 303 137" fill="none" xmlns="http://www.w3.org/2000/svg">
<path d="M138.322 64.748C137.345 64.748 136.486 64.5755 135.744 64.2305C135.001 63.8789 134.422 63.3971 134.005 62.7852C133.589 62.1732 133.38 61.4733 133.38 60.6855C133.38 60.0736 133.501 59.5072 133.742 58.9863C133.989 58.459 134.324 58.0195 134.748 57.668C135.177 57.3164 135.659 57.0918 136.193 56.9941V56.916C135.496 56.7337 134.94 56.3398 134.523 55.7344C134.113 55.1289 133.908 54.4421 133.908 53.6738C133.908 52.9316 134.097 52.2708 134.474 51.6914C134.852 51.1055 135.373 50.6465 136.037 50.3145C136.707 49.9759 137.469 49.8066 138.322 49.8066C139.162 49.8066 139.914 49.9759 140.578 50.3145C141.242 50.6465 141.763 51.1055 142.14 51.6914C142.524 52.2708 142.716 52.9316 142.716 53.6738C142.716 54.4421 142.508 55.1289 142.091 55.7344C141.675 56.3398 141.128 56.7337 140.451 56.916V56.9941C140.972 57.0918 141.444 57.3164 141.867 57.668C142.296 58.0195 142.635 58.459 142.882 58.9863C143.136 59.5072 143.263 60.0736 143.263 60.6855C143.263 61.4733 143.052 62.1732 142.628 62.7852C142.212 63.3971 141.632 63.8789 140.89 64.2305C140.148 64.5755 139.292 64.748 138.322 64.748ZM138.322 63.1855C138.979 63.1855 139.546 63.0814 140.021 62.873C140.503 62.6582 140.874 62.3587 141.134 61.9746C141.395 61.584 141.525 61.1283 141.525 60.6074C141.525 60.0605 141.385 59.5755 141.105 59.1523C140.825 58.7292 140.444 58.3971 139.962 58.1562C139.481 57.9154 138.934 57.7949 138.322 57.7949C137.697 57.7949 137.14 57.9154 136.652 58.1562C136.17 58.3971 135.789 58.7292 135.509 59.1523C135.236 59.5755 135.099 60.0605 135.099 60.6074C135.099 61.1283 135.229 61.584 135.49 61.9746C135.75 62.3587 136.121 62.6582 136.603 62.873C137.085 63.0814 137.658 63.1855 138.322 63.1855ZM138.322 56.291C138.843 56.291 139.305 56.1868 139.708 55.9785C140.112 55.7702 140.431 55.4805 140.666 55.1094C140.9 54.7318 141.017 54.2923 141.017 53.791C141.017 53.2962 140.903 52.8665 140.675 52.502C140.447 52.1374 140.132 51.8542 139.728 51.6523C139.324 51.4505 138.856 51.3496 138.322 51.3496C137.775 51.3496 137.296 51.4505 136.886 51.6523C136.483 51.8542 136.167 52.1374 135.939 52.502C135.718 52.8665 135.607 53.2962 135.607 53.791C135.607 54.2923 135.721 54.7318 135.949 55.1094C136.183 55.4805 136.502 55.7702 136.906 55.9785C137.316 56.1868 137.788 56.291 138.322 56.291ZM149.767 64.748C148.699 64.748 147.788 64.4551 147.033 63.8691C146.277 63.2832 145.701 62.4368 145.304 61.3301C144.907 60.2168 144.708 58.8691 144.708 57.2871C144.708 55.7116 144.907 54.3672 145.304 53.2539C145.708 52.1341 146.287 51.2812 147.042 50.6953C147.798 50.1029 148.706 49.8066 149.767 49.8066C150.828 49.8066 151.736 50.1029 152.492 50.6953C153.247 51.2812 153.823 52.1341 154.22 53.2539C154.624 54.3672 154.826 55.7116 154.826 57.2871C154.826 58.8691 154.627 60.2168 154.23 61.3301C153.833 62.4368 153.257 63.2832 152.501 63.8691C151.753 64.4551 150.841 64.748 149.767 64.748ZM149.767 63.2051C150.49 63.2051 151.102 62.974 151.603 62.5117C152.104 62.043 152.485 61.3659 152.746 60.4805C153.013 59.5951 153.146 58.5306 153.146 57.2871C153.146 56.0371 153.013 54.9694 152.746 54.084C152.485 53.1986 152.104 52.5215 151.603 52.0527C151.102 51.584 150.49 51.3496 149.767 51.3496C148.686 51.3496 147.853 51.8704 147.267 52.9121C146.681 53.9538 146.388 55.4121 146.388 57.2871C146.388 58.5306 146.518 59.5951 146.779 60.4805C147.046 61.3659 147.43 62.043 147.931 62.5117C148.439 62.974 149.051 63.2051 149.767 63.2051ZM164.005 61.8184V61.0566C164.005 60.5228 164.113 60.0345 164.328 59.5918C164.549 59.1491 164.871 58.7943 165.294 58.5273C165.718 58.2604 166.232 58.127 166.837 58.127C167.456 58.127 167.973 58.2604 168.39 58.5273C168.807 58.7943 169.119 59.1491 169.328 59.5918C169.542 60.0345 169.65 60.5228 169.65 61.0566V61.8184C169.65 62.3522 169.542 62.8405 169.328 63.2832C169.113 63.7259 168.797 64.0807 168.38 64.3477C167.964 64.6146 167.449 64.748 166.837 64.748C166.225 64.748 165.708 64.6146 165.285 64.3477C164.861 64.0807 164.542 63.7259 164.328 63.2832C164.113 62.8405 164.005 62.3522 164.005 61.8184ZM165.451 61.0566V61.8184C165.451 62.2611 165.555 62.6582 165.763 63.0098C165.972 63.3548 166.33 63.5306 166.837 63.5371C167.339 63.5306 167.69 63.3548 167.892 63.0098C168.1 62.6582 168.205 62.2611 168.205 61.8184V61.0566C168.205 60.6139 168.104 60.2201 167.902 59.875C167.707 59.5299 167.352 59.3574 166.837 59.3574C166.343 59.3574 165.988 59.5299 165.773 59.875C165.558 60.2201 165.451 60.6139 165.451 61.0566ZM156.759 53.498V52.7363C156.759 52.2025 156.87 51.7142 157.091 51.2715C157.313 50.8288 157.632 50.474 158.048 50.207C158.472 49.9401 158.986 49.8066 159.591 49.8066C160.21 49.8066 160.727 49.9401 161.144 50.207C161.567 50.474 161.883 50.8288 162.091 51.2715C162.306 51.7142 162.41 52.2025 162.404 52.7363V53.498C162.41 54.0254 162.303 54.5137 162.082 54.9629C161.867 55.4056 161.551 55.7604 161.134 56.0273C160.718 56.2943 160.203 56.4277 159.591 56.4277C158.979 56.4277 158.462 56.2943 158.039 56.0273C157.615 55.7604 157.296 55.4056 157.082 54.9629C156.867 54.5137 156.759 54.0254 156.759 53.498ZM158.205 52.7363V53.498C158.205 53.9408 158.309 54.3379 158.517 54.6895C158.725 55.0345 159.083 55.2038 159.591 55.1973C160.093 55.2038 160.444 55.0345 160.646 54.6895C160.854 54.3379 160.958 53.9408 160.958 53.498V52.7363C160.958 52.2936 160.858 51.8997 160.656 51.5547C160.46 51.2031 160.106 51.0306 159.591 51.0371C159.097 51.0306 158.742 51.2031 158.527 51.5547C158.312 51.8997 158.205 52.2936 158.205 52.7363ZM157.306 64.5527L167.306 50.002H168.927L158.927 64.5527H157.306Z" fill="#FCFCFC"/>
<path d="M208.762 57.3809C208.762 88.5849 183.242 113.881 151.762 113.881C120.281 113.881 94.7617 88.5849 94.7617 57.3809C94.7617 26.1768 120.281 0.880859 151.762 0.880859C183.242 0.880859 208.762 26.1768 208.762 57.3809ZM108.442 57.3809C108.442 81.096 127.837 100.321 151.762 100.321C175.687 100.321 195.082 81.096 195.082 57.3809C195.082 33.6658 175.687 14.4409 151.762 14.4409C127.837 14.4409 108.442 33.6658 108.442 57.3809Z" fill="#F4F2FE"/>
<path d="M151.762 7.66086C151.762 3.91637 154.808 0.839583 158.526 1.28011C165.172 2.06745 171.644 4.01114 177.639 7.03899C185.654 11.0869 192.588 16.9576 197.876 24.171C203.163 31.3844 206.653 39.7358 208.06 48.5423C209.467 57.3488 208.752 66.3604 205.972 74.8403C203.192 83.3202 198.427 91.0276 192.067 97.3324C185.706 103.637 177.931 108.36 169.376 111.116C160.821 113.871 151.729 114.58 142.845 113.185C136.231 112.147 129.871 109.964 124.05 106.754C120.742 104.93 120.079 100.606 122.312 97.5592C124.519 94.5479 128.724 93.934 132.055 95.6206C136.104 97.6708 140.466 99.0828 144.985 99.7922C151.737 100.852 158.647 100.313 165.148 98.2192C171.65 96.1252 177.56 92.5356 182.394 87.744C187.228 82.9524 190.849 77.0948 192.961 70.65C195.074 64.2053 195.618 57.3565 194.548 50.6636C193.479 43.9706 190.827 37.6236 186.808 32.1414C182.79 26.6592 177.52 22.1975 171.429 19.121C167.358 17.0654 162.999 15.6673 158.515 14.9658C154.815 14.3871 151.762 11.4053 151.762 7.66086Z" fill="#864FFE"/>
<path d="M86.2617 100.881C86.2617 94.2534 91.6343 88.8809 98.2617 88.8809H205.262C211.889 88.8809 217.262 94.2534 217.262 100.881V124.881C217.262 131.508 211.889 136.881 205.262 136.881H98.2617C91.6343 136.881 86.2617 131.508 86.2617 124.881V100.881Z" fill="#F9EB57"/>
<path d="M126.98 119.084C126.147 119.084 125.426 118.951 124.816 118.686C124.207 118.415 123.728 118.04 123.379 117.561C123.035 117.076 122.84 116.516 122.793 115.881H124.246C124.288 116.318 124.436 116.68 124.691 116.967C124.952 117.253 125.283 117.467 125.684 117.607C126.085 117.748 126.517 117.818 126.98 117.818C127.517 117.818 127.999 117.73 128.426 117.553C128.858 117.376 129.199 117.128 129.449 116.811C129.699 116.493 129.824 116.12 129.824 115.693C129.824 115.308 129.715 114.995 129.496 114.756C129.277 114.516 128.991 114.321 128.637 114.17C128.288 114.019 127.908 113.886 127.496 113.771L126.074 113.365C125.163 113.105 124.441 112.732 123.91 112.248C123.384 111.758 123.121 111.12 123.121 110.334C123.121 109.683 123.296 109.115 123.645 108.631C123.999 108.141 124.475 107.761 125.074 107.49C125.678 107.219 126.35 107.084 127.09 107.084C127.84 107.084 128.507 107.219 129.09 107.49C129.673 107.756 130.137 108.12 130.48 108.584C130.824 109.042 131.007 109.563 131.027 110.146H129.652C129.585 109.574 129.309 109.128 128.824 108.811C128.345 108.493 127.751 108.334 127.043 108.334C126.533 108.334 126.085 108.417 125.699 108.584C125.314 108.751 125.014 108.98 124.801 109.271C124.587 109.563 124.48 109.896 124.48 110.271C124.48 110.683 124.608 111.016 124.863 111.271C125.118 111.521 125.421 111.717 125.77 111.857C126.124 111.998 126.444 112.11 126.73 112.193L127.902 112.521C128.204 112.605 128.54 112.717 128.91 112.857C129.285 112.998 129.645 113.188 129.988 113.428C130.337 113.667 130.624 113.975 130.848 114.35C131.072 114.719 131.184 115.178 131.184 115.725C131.184 116.35 131.02 116.917 130.691 117.428C130.363 117.933 129.887 118.337 129.262 118.639C128.637 118.936 127.876 119.084 126.98 119.084ZM136.355 110.146V111.287H131.84V110.146H136.355ZM133.152 108.068H134.48V116.381C134.48 116.834 134.574 117.167 134.762 117.381C134.949 117.589 135.246 117.693 135.652 117.693C135.741 117.693 135.832 117.688 135.926 117.678C136.025 117.667 136.132 117.652 136.246 117.631L136.527 118.834C136.402 118.881 136.249 118.917 136.066 118.943C135.889 118.975 135.71 118.99 135.527 118.99C134.824 118.99 134.251 118.782 133.809 118.365C133.371 117.949 133.152 117.407 133.152 116.74V108.068ZM137.637 118.881V110.146H138.918V111.475H139.012C139.173 111.042 139.462 110.693 139.879 110.428C140.301 110.157 140.772 110.021 141.293 110.021C141.392 110.021 141.514 110.024 141.66 110.029C141.806 110.029 141.918 110.032 141.996 110.037V111.396C141.949 111.386 141.845 111.37 141.684 111.35C141.522 111.329 141.35 111.318 141.168 111.318C140.746 111.318 140.368 111.407 140.035 111.584C139.702 111.761 139.439 112.003 139.246 112.311C139.059 112.618 138.965 112.969 138.965 113.365V118.881H137.637ZM145.402 119.084C144.85 119.084 144.348 118.98 143.895 118.771C143.441 118.558 143.082 118.251 142.816 117.85C142.551 117.449 142.418 116.964 142.418 116.396C142.418 115.896 142.517 115.493 142.715 115.186C142.913 114.873 143.176 114.628 143.504 114.451C143.837 114.269 144.202 114.133 144.598 114.045C144.999 113.956 145.402 113.886 145.809 113.834C146.34 113.766 146.77 113.714 147.098 113.678C147.431 113.641 147.673 113.579 147.824 113.49C147.98 113.402 148.059 113.251 148.059 113.037V112.99C148.059 112.433 147.905 112.001 147.598 111.693C147.296 111.381 146.835 111.225 146.215 111.225C145.579 111.225 145.079 111.365 144.715 111.646C144.35 111.923 144.095 112.219 143.949 112.537L142.668 112.084C142.897 111.553 143.202 111.139 143.582 110.842C143.967 110.545 144.384 110.337 144.832 110.217C145.285 110.097 145.73 110.037 146.168 110.037C146.449 110.037 146.772 110.071 147.137 110.139C147.501 110.201 147.855 110.337 148.199 110.545C148.548 110.748 148.835 111.058 149.059 111.475C149.288 111.886 149.402 112.438 149.402 113.131V118.881H148.059V117.693H147.996C147.908 117.881 147.757 118.084 147.543 118.303C147.329 118.516 147.046 118.701 146.691 118.857C146.342 119.008 145.913 119.084 145.402 119.084ZM145.605 117.881C146.137 117.881 146.585 117.777 146.949 117.568C147.314 117.36 147.59 117.092 147.777 116.764C147.965 116.43 148.059 116.084 148.059 115.725V114.49C148.001 114.558 147.876 114.62 147.684 114.678C147.496 114.73 147.277 114.777 147.027 114.818C146.783 114.86 146.543 114.896 146.309 114.928C146.074 114.954 145.887 114.975 145.746 114.99C145.397 115.037 145.072 115.113 144.77 115.217C144.467 115.316 144.223 115.464 144.035 115.662C143.853 115.86 143.762 116.131 143.762 116.475C143.762 116.938 143.934 117.29 144.277 117.529C144.626 117.764 145.069 117.881 145.605 117.881ZM154.902 110.146V111.287H150.387V110.146H154.902ZM151.699 108.068H153.027V116.381C153.027 116.834 153.121 117.167 153.309 117.381C153.496 117.589 153.793 117.693 154.199 117.693C154.288 117.693 154.379 117.688 154.473 117.678C154.572 117.667 154.678 117.652 154.793 117.631L155.074 118.834C154.949 118.881 154.796 118.917 154.613 118.943C154.436 118.975 154.257 118.99 154.074 118.99C153.371 118.99 152.798 118.782 152.355 118.365C151.918 117.949 151.699 117.407 151.699 116.74V108.068ZM159.746 119.068C158.908 119.068 158.181 118.881 157.566 118.506C156.957 118.131 156.488 117.607 156.16 116.936C155.832 116.258 155.668 115.475 155.668 114.584C155.668 113.688 155.829 112.899 156.152 112.217C156.475 111.535 156.928 111.001 157.512 110.615C158.1 110.23 158.788 110.037 159.574 110.037C160.027 110.037 160.478 110.113 160.926 110.264C161.374 110.415 161.78 110.66 162.145 110.998C162.514 111.337 162.809 111.785 163.027 112.342C163.246 112.899 163.355 113.584 163.355 114.396V114.975H156.621V113.818H162.629L162.012 114.256C162.012 113.673 161.921 113.154 161.738 112.701C161.556 112.248 161.283 111.891 160.918 111.631C160.559 111.37 160.111 111.24 159.574 111.24C159.038 111.24 158.577 111.373 158.191 111.639C157.811 111.899 157.52 112.24 157.316 112.662C157.113 113.084 157.012 113.537 157.012 114.021V114.787C157.012 115.449 157.126 116.008 157.355 116.467C157.585 116.925 157.905 117.274 158.316 117.514C158.728 117.748 159.204 117.865 159.746 117.865C160.095 117.865 160.413 117.816 160.699 117.717C160.986 117.613 161.233 117.459 161.441 117.256C161.65 117.048 161.809 116.792 161.918 116.49L163.215 116.865C163.079 117.303 162.85 117.688 162.527 118.021C162.21 118.35 161.814 118.607 161.34 118.795C160.866 118.977 160.335 119.068 159.746 119.068ZM168.137 122.334C167.163 122.334 166.392 122.157 165.824 121.803C165.262 121.449 164.845 121.042 164.574 120.584L165.637 119.834C165.757 119.995 165.91 120.178 166.098 120.381C166.285 120.589 166.54 120.769 166.863 120.92C167.186 121.071 167.611 121.146 168.137 121.146C168.84 121.146 169.421 120.977 169.879 120.639C170.342 120.3 170.574 119.766 170.574 119.037V117.271H170.449C170.355 117.428 170.217 117.623 170.035 117.857C169.858 118.087 169.6 118.292 169.262 118.475C168.928 118.652 168.475 118.74 167.902 118.74C167.199 118.74 166.569 118.574 166.012 118.24C165.454 117.907 165.012 117.423 164.684 116.787C164.361 116.152 164.199 115.381 164.199 114.475C164.199 113.579 164.355 112.8 164.668 112.139C164.986 111.472 165.426 110.956 165.988 110.592C166.551 110.222 167.199 110.037 167.934 110.037C168.501 110.037 168.952 110.131 169.285 110.318C169.624 110.506 169.882 110.719 170.059 110.959C170.241 111.193 170.382 111.386 170.48 111.537H170.621V110.146H171.902V119.131C171.902 119.881 171.733 120.49 171.395 120.959C171.061 121.433 170.608 121.779 170.035 121.998C169.467 122.222 168.835 122.334 168.137 122.334ZM168.09 117.537C168.897 117.537 169.514 117.264 169.941 116.717C170.374 116.17 170.59 115.412 170.59 114.443C170.59 113.813 170.496 113.258 170.309 112.779C170.121 112.3 169.84 111.925 169.465 111.654C169.095 111.378 168.637 111.24 168.09 111.24C167.522 111.24 167.048 111.386 166.668 111.678C166.293 111.964 166.012 112.35 165.824 112.834C165.637 113.318 165.543 113.855 165.543 114.443C165.543 115.048 165.637 115.584 165.824 116.053C166.017 116.516 166.303 116.881 166.684 117.146C167.064 117.407 167.533 117.537 168.09 117.537ZM174.48 122.146C174.251 122.152 174.048 122.136 173.871 122.1C173.694 122.063 173.569 122.027 173.496 121.99L173.84 120.818L173.973 120.85C174.421 120.954 174.796 120.93 175.098 120.779C175.405 120.633 175.673 120.245 175.902 119.615L176.152 118.928L172.934 110.146H174.387L176.793 117.115H176.887L179.293 110.146H180.746L177.043 120.146C176.876 120.6 176.671 120.975 176.426 121.271C176.181 121.568 175.897 121.787 175.574 121.928C175.251 122.074 174.887 122.146 174.48 122.146Z" fill="#070B10"/>
</svg>
