<svg width="302" height="133" viewBox="0 0 302 133" fill="none" xmlns="http://www.w3.org/2000/svg">
<path d="M18.9785 76.7914C18.3896 76.7191 17.893 76.4969 17.4886 76.1248C17.0851 75.7462 16.7926 75.2569 16.611 74.6569C16.4368 74.0512 16.3965 73.3678 16.4899 72.6069C16.5842 71.8393 16.7886 71.186 17.1033 70.647C17.4247 70.1089 17.8232 69.7078 18.2989 69.4438C18.7812 69.1806 19.3169 69.0852 19.9058 69.1575C20.4947 69.2298 20.988 69.4516 21.3857 69.8228C21.7901 70.1948 22.0793 70.6837 22.2534 71.2895C22.435 71.8894 22.4791 72.5698 22.3857 73.3308C22.2922 74.0918 22.0877 74.745 21.7722 75.2907C21.4575 75.8297 21.0586 76.234 20.5755 76.5038C20.0997 76.7678 19.5674 76.8637 18.9785 76.7914ZM19.1101 75.7194C19.4741 75.7641 19.8022 75.6902 20.0945 75.4977C20.3868 75.3053 20.6309 75.0128 20.8269 74.6204C21.0228 74.2281 21.1553 73.7507 21.2244 73.1882C21.2934 72.6258 21.2804 72.1305 21.1852 71.7024C21.09 71.2742 20.9238 70.9314 20.6868 70.674C20.4497 70.4165 20.1459 70.265 19.7754 70.2195C19.4114 70.1748 19.0833 70.2487 18.791 70.4412C18.4987 70.6337 18.2546 70.9261 18.0586 71.3185C17.8627 71.7108 17.7302 72.1883 17.6611 72.7507C17.5929 73.3065 17.606 73.8018 17.7003 74.2366C17.7955 74.6647 17.9617 75.0075 18.1987 75.265C18.4424 75.5232 18.7462 75.6747 19.1101 75.7194Z" fill="#FCFCFC" fill-opacity="0.6"/>
<path d="M31.8922 100.542C31.429 100.485 31.0095 100.346 30.6336 100.125C30.2585 99.8978 29.9507 99.6149 29.7101 99.2764C29.4696 98.9379 29.3075 98.562 29.2239 98.1487L30.2677 97.8537C30.3903 98.3322 30.6086 98.715 30.9226 99.0021C31.2366 99.2892 31.6186 99.4603 32.0686 99.5156C32.3332 99.5481 32.5697 99.5368 32.778 99.4818C32.987 99.4201 33.1538 99.3197 33.2784 99.1805C33.4096 99.0421 33.4874 98.8737 33.5117 98.6752C33.545 98.4039 33.4954 98.1795 33.3627 98.002C33.23 97.8245 33.0204 97.6712 32.734 97.542L31.3981 96.9346C30.8634 96.6943 30.472 96.381 30.2239 95.9945C29.9766 95.6015 29.8823 95.1667 29.9408 94.6903C29.9919 94.2734 30.1392 93.9221 30.3825 93.6363C30.6266 93.3438 30.9383 93.1302 31.3176 92.9954C31.7034 92.8615 32.128 92.8229 32.5911 92.8798C33.0345 92.9342 33.4284 93.0632 33.7728 93.2667C34.1181 93.4636 34.4031 93.7135 34.6278 94.0165C34.8592 94.3203 35.0125 94.6581 35.0877 95.0301L34.0626 95.3374C33.965 94.9292 33.7736 94.6001 33.4887 94.3501C33.2103 94.101 32.8693 93.9517 32.4656 93.9021C32.2208 93.8721 32.0005 93.8887 31.8046 93.9519C31.6096 94.0086 31.4494 94.1098 31.324 94.2556C31.2061 94.3956 31.1345 94.5682 31.1093 94.7733C31.0801 95.0115 31.1302 95.2326 31.2596 95.4366C31.3891 95.6405 31.6036 95.8079 31.9032 95.9388L33.1436 96.5041C33.7105 96.7551 34.1222 97.0676 34.3785 97.4416C34.6357 97.809 34.7338 98.2409 34.6728 98.7371C34.6225 99.1474 34.4686 99.4979 34.2112 99.7887C33.9605 100.08 33.6352 100.296 33.2353 100.435C32.8361 100.567 32.3885 100.603 31.8922 100.542Z" fill="#FCFCFC" fill-opacity="0.6"/>
<path d="M69.8758 105.086L70.7838 97.6919L71.8756 97.826L74.1819 102.018L73.636 101.951L76.8383 98.4353L77.9301 98.5694L77.0222 105.964L75.8609 105.821L76.5994 99.8064L77.0215 99.9792L73.7645 103.448L73.6454 103.433L71.3839 99.287L71.7856 99.2154L71.0471 105.23L69.8758 105.086Z" fill="#FCFCFC" fill-opacity="0.6"/>
<path d="M114.073 110.513L114.853 104.161L112.888 103.919L113.016 102.877L118.078 103.499L117.95 104.541L116.014 104.303L115.234 110.656L114.073 110.513Z" fill="#FCFCFC" fill-opacity="0.6"/>
<path d="M153.967 115.411L152.84 107.767L154.081 107.919L154.942 114.524L154.635 114.486L157.128 108.294L158.349 108.443L159.27 115.055L158.952 115.016L161.396 108.818L162.627 108.969L159.694 116.115L158.374 115.952L157.431 109.439L157.778 109.482L155.277 115.572L153.967 115.411Z" fill="#FCFCFC" fill-opacity="0.6"/>
<path d="M198.44 120.87L199.22 114.518L197.255 114.277L197.383 113.235L202.445 113.856L202.317 114.898L200.382 114.661L199.602 121.013L198.44 120.87Z" fill="#FCFCFC" fill-opacity="0.6"/>
<path d="M236.576 125.553L237.484 118.159L242.298 118.75L242.17 119.792L238.528 119.344L238.255 121.568L241.5 121.966L241.372 123.008L238.127 122.61L237.748 125.697L236.576 125.553Z" fill="#FCFCFC" fill-opacity="0.6"/>
<path d="M279.533 130.95C279.069 130.893 278.65 130.754 278.274 130.533C277.899 130.306 277.591 130.023 277.351 129.684C277.11 129.346 276.948 128.97 276.864 128.557L277.908 128.262C278.031 128.74 278.249 129.123 278.563 129.41C278.877 129.697 279.259 129.868 279.709 129.923C279.974 129.956 280.21 129.945 280.418 129.89C280.627 129.828 280.794 129.728 280.919 129.588C281.05 129.45 281.128 129.282 281.152 129.083C281.185 128.812 281.136 128.587 281.003 128.41C280.87 128.232 280.661 128.079 280.374 127.95L279.039 127.342C278.504 127.102 278.112 126.789 277.864 126.402C277.617 126.009 277.523 125.575 277.581 125.098C277.632 124.681 277.78 124.33 278.023 124.044C278.267 123.752 278.579 123.538 278.958 123.403C279.344 123.269 279.768 123.231 280.232 123.288C280.675 123.342 281.069 123.471 281.413 123.675C281.759 123.871 282.043 124.121 282.268 124.424C282.5 124.728 282.653 125.066 282.728 125.438L281.703 125.745C281.605 125.337 281.414 125.008 281.129 124.758C280.851 124.509 280.51 124.359 280.106 124.31C279.861 124.28 279.641 124.296 279.445 124.36C279.25 124.416 279.09 124.518 278.964 124.663C278.847 124.803 278.775 124.976 278.75 125.181C278.721 125.419 278.771 125.64 278.9 125.844C279.03 126.048 279.244 126.216 279.544 126.347L280.784 126.912C281.351 127.163 281.763 127.475 282.019 127.849C282.276 128.217 282.374 128.649 282.313 129.145C282.263 129.555 282.109 129.906 281.852 130.197C281.601 130.488 281.276 130.703 280.876 130.842C280.477 130.975 280.029 131.01 279.533 130.95Z" fill="#FCFCFC" fill-opacity="0.6"/>
<path d="M16.1749 44.2067C15.7845 44.1588 15.4258 44.0442 15.0988 43.863C14.7726 43.6752 14.4996 43.4368 14.2799 43.1479C14.0601 42.859 13.9196 42.526 13.8584 42.1491L14.8874 41.8926C14.97 42.2587 15.1423 42.5519 15.404 42.7721C15.6658 42.9923 15.9654 43.1231 16.3029 43.1646C16.5808 43.1987 16.8334 43.1659 17.0605 43.0662C17.2877 42.9664 17.4743 42.8147 17.6202 42.611C17.7727 42.4081 17.8661 42.1676 17.9002 41.8897C17.9351 41.6052 17.9027 41.3493 17.803 41.1222C17.7107 40.8892 17.566 40.7001 17.3689 40.555C17.1726 40.4033 16.9355 40.3104 16.6575 40.2763C16.3796 40.2421 16.1172 40.2737 15.8701 40.371C15.6231 40.4683 15.4336 40.6163 15.3018 40.8151L14.3845 40.4908L15.4598 36.4921L19.4002 36.9759L19.2783 37.9685L15.7945 37.5407L16.3009 37.1092L15.4914 40.1734L15.1546 39.8802C15.3872 39.6266 15.6535 39.4544 15.9535 39.3637C16.2535 39.2729 16.5854 39.2498 16.9494 39.2945C17.4324 39.3538 17.8392 39.5146 18.1697 39.7768C18.5076 40.0333 18.7531 40.3589 18.9061 40.7539C19.0665 41.143 19.1183 41.5691 19.0615 42.0323C19.0038 42.5021 18.8393 42.9118 18.568 43.2613C18.2967 43.6109 17.9525 43.8709 17.5352 44.0413C17.1246 44.2125 16.6712 44.2677 16.1749 44.2067ZM22.877 45.0297C22.288 44.9573 21.7914 44.7352 21.3871 44.3631C20.9836 43.9844 20.691 43.4951 20.5094 42.8952C20.3353 42.2895 20.2949 41.6061 20.3884 40.8452C20.4826 40.0776 20.6871 39.4243 21.0018 38.8853C21.3231 38.3471 21.7216 37.9461 22.1973 37.6821C22.6797 37.4189 23.2153 37.3234 23.8042 37.3958C24.3931 37.4681 24.8864 37.6898 25.2842 38.0611C25.6885 38.4331 25.9777 38.922 26.1519 39.5278C26.3335 40.1277 26.3775 40.8081 26.2841 41.5691C26.1907 42.33 25.9862 42.9833 25.6707 43.5289C25.356 44.0679 24.957 44.4723 24.4739 44.7421C23.9982 45.0061 23.4659 45.102 22.877 45.0297ZM23.0086 43.9577C23.3725 44.0024 23.7006 43.9285 23.9929 43.736C24.2852 43.5435 24.5294 43.2511 24.7253 42.8587C24.9212 42.4663 25.0538 41.9889 25.1228 41.4265C25.1919 40.8641 25.1788 40.3688 25.0836 39.9406C24.9884 39.5125 24.8223 39.1697 24.5852 38.9122C24.3482 38.6548 24.0444 38.5033 23.6738 38.4578C23.3099 38.4131 22.9818 38.487 22.6895 38.6795C22.3971 38.8719 22.153 39.1644 21.9571 39.5568C21.7611 39.9491 21.6286 40.4265 21.5596 40.989C21.4913 41.5448 21.5044 42.0401 21.5988 42.4748C21.694 42.903 21.8601 43.2458 22.0972 43.5032C22.3408 43.7615 22.6446 43.913 23.0086 43.9577Z" fill="#FCFCFC" fill-opacity="0.6"/>
<path d="M13.9841 11.5769L14.7702 5.17502L13.3509 5.00075L13.4727 4.0082L16.0533 4.32506L15.1454 11.7195L13.9841 11.5769ZM19.6727 12.3963C19.0838 12.324 18.5872 12.1018 18.1828 11.7298C17.7793 11.3511 17.4867 10.8618 17.3052 10.2619C17.131 9.65614 17.0907 8.97279 17.1841 8.21184C17.2784 7.44427 17.4828 6.79099 17.7975 6.25199C18.1188 5.7138 18.5174 5.31271 18.9931 5.04872C19.4754 4.78554 20.011 4.69011 20.5999 4.76242C21.1889 4.83472 21.6822 5.0565 22.0799 5.42773C22.4842 5.79978 22.7735 6.28868 22.9476 6.89442C23.1292 7.49435 23.1733 8.17479 23.0798 8.93574C22.9864 9.6967 22.7819 10.35 22.4664 10.8956C22.1517 11.4346 21.7528 11.839 21.2696 12.1088C20.7939 12.3728 20.2616 12.4686 19.6727 12.3963ZM19.8043 11.3244C20.1683 11.369 20.4964 11.2952 20.7887 11.1027C21.081 10.9102 21.3251 10.6178 21.521 10.2254C21.717 9.83301 21.8495 9.3556 21.9186 8.79316C21.9876 8.23071 21.9745 7.73543 21.8793 7.3073C21.7841 6.87918 21.618 6.53638 21.381 6.2789C21.1439 6.02142 20.8401 5.86994 20.4695 5.82444C20.1056 5.77975 19.7775 5.85365 19.4852 6.04613C19.1929 6.23861 18.9488 6.53104 18.7528 6.92341C18.5569 7.31579 18.4244 7.7932 18.3553 8.35565C18.2871 8.91147 18.3001 9.40676 18.3945 9.8415C18.4897 10.2696 18.6559 10.6124 18.8929 10.8699C19.1366 11.1282 19.4404 11.2797 19.8043 11.3244ZM26.7775 13.2687C26.1886 13.1964 25.692 12.9742 25.2877 12.6021C24.8841 12.2235 24.5916 11.7342 24.41 11.1342C24.2359 10.5285 24.1955 9.84516 24.289 9.08421C24.3832 8.31664 24.5877 7.66335 24.9024 7.12435C25.2237 6.58617 25.6222 6.18508 26.0979 5.92109C26.5803 5.65791 27.1159 5.56247 27.7048 5.63478C28.2937 5.70709 28.787 5.92886 29.1847 6.3001C29.5891 6.67215 29.8783 7.16104 30.0525 7.76678C30.234 8.36672 30.2781 9.04716 30.1847 9.80811C30.0912 10.5691 29.8868 11.2223 29.5713 11.768C29.2566 12.307 28.8576 12.7114 28.3745 12.9812C27.8988 13.2451 27.3665 13.341 26.7775 13.2687ZM26.9092 12.1967C27.2731 12.2414 27.6012 12.1675 27.8935 11.975C28.1858 11.7826 28.4299 11.4901 28.6259 11.0978C28.8218 10.7054 28.9543 10.228 29.0234 9.66552C29.0925 9.10308 29.0794 8.6078 28.9842 8.17967C28.889 7.75154 28.7229 7.40874 28.4858 7.15127C28.2487 6.89379 27.9449 6.7423 27.5744 6.69681C27.2105 6.65212 26.8823 6.72602 26.59 6.91849C26.2977 7.11097 26.0536 7.4034 25.8577 7.79578C25.6617 8.18816 25.5292 8.66557 25.4602 9.22801C25.3919 9.78384 25.405 10.2791 25.4994 10.7139C25.5946 11.142 25.7607 11.4848 25.9978 11.7423C26.2414 12.0006 26.5452 12.152 26.9092 12.1967Z" fill="#FCFCFC" fill-opacity="0.6"/>
<path d="M42.2345 39.7306L72.0426 56.5129C77.9655 59.8476 85.4279 58.4462 89.7374 53.1899L103.276 36.6763C109.171 29.4871 120.561 30.9708 124.417 39.4302L125.906 42.6966C128.556 48.5098 135.978 50.2613 140.947 46.2461V46.2461C144.89 43.0604 150.613 43.4161 154.131 47.0656L164.575 57.9005C168.766 62.2488 175.273 63.4192 180.717 60.8039L183.747 59.3481C188.999 56.8251 195.264 57.8182 199.478 61.8414L205.774 67.8533C210.414 72.2835 217.472 72.993 222.901 69.575L239.066 59.398C244.88 55.7375 252.491 56.8371 257.032 61.9933L292.923 102.752" stroke="#864FFE" stroke-width="2"/>
<path d="M46.4886 46.1404L74.6667 61.9903C80.5867 65.3202 88.043 63.9204 92.3521 58.67L105.031 43.222C110.686 36.332 121.605 37.7544 125.306 45.8631L126.733 48.9901C129.277 54.5632 136.392 56.2426 141.16 52.3951V52.3951C144.941 49.3428 150.428 49.6839 153.803 53.181L163.538 63.2702C167.728 67.6122 174.229 68.7812 179.669 66.171L181.858 65.1205C187.106 62.6026 193.365 63.5945 197.577 67.6117L203.017 72.8006C207.656 77.2244 214.706 77.9332 220.132 74.5212L234.856 65.2628C240.667 61.6087 248.271 62.7071 252.81 67.8564L286.919 106.547" stroke="#F4F2FE" stroke-width="2"/>
<line x1="115.482" y1="13.4556" x2="106.424" y2="87.229" stroke="#864FFE" stroke-linecap="round" stroke-dasharray="8 8"/>
<g filter="url(#filter0_d_188_147025)">
<mask id="path-14-inside-1_188_147025" fill="white">
<ellipse cx="115.073" cy="20.8913" rx="4" ry="3.9646" transform="rotate(7 115.073 20.8913)"/>
</mask>
<ellipse cx="115.073" cy="20.8913" rx="4" ry="3.9646" transform="rotate(7 115.073 20.8913)" fill="#864FFE"/>
<path d="M119.043 21.3788L113.088 20.6475C113.231 19.482 114.275 18.7426 115.321 18.8711L114.59 24.8263L113.859 30.7816C119.29 31.4485 124.322 27.622 124.998 22.11L119.043 21.3788ZM114.59 24.8263L115.321 18.8711C116.367 18.9995 117.201 19.9695 117.058 21.135L111.103 20.4038L105.147 19.6726C104.471 25.1847 108.427 30.1147 113.859 30.7816L114.59 24.8263ZM111.103 20.4038L117.058 21.135C116.915 22.3006 115.871 23.04 114.825 22.9115L115.556 16.9562L116.287 11.001C110.856 10.334 105.824 14.1605 105.147 19.6726L111.103 20.4038ZM115.556 16.9562L114.825 22.9115C113.779 22.783 112.945 21.8131 113.088 20.6475L119.043 21.3788L124.998 22.11C125.675 16.5979 121.719 11.6679 116.287 11.001L115.556 16.9562Z" fill="black" mask="url(#path-14-inside-1_188_147025)"/>
</g>
<defs>
<filter id="filter0_d_188_147025" x="101.074" y="10.9258" width="28" height="27.9316" filterUnits="userSpaceOnUse" color-interpolation-filters="sRGB">
<feFlood flood-opacity="0" result="BackgroundImageFix"/>
<feColorMatrix in="SourceAlpha" type="matrix" values="0 0 0 0 0 0 0 0 0 0 0 0 0 0 0 0 0 0 127 0" result="hardAlpha"/>
<feOffset dy="4"/>
<feGaussianBlur stdDeviation="5"/>
<feComposite in2="hardAlpha" operator="out"/>
<feColorMatrix type="matrix" values="0 0 0 0 0 0 0 0 0 0 0 0 0 0 0 0 0 0 0.12 0"/>
<feBlend mode="normal" in2="BackgroundImageFix" result="effect1_dropShadow_188_147025"/>
<feBlend mode="normal" in="SourceGraphic" in2="effect1_dropShadow_188_147025" result="shape"/>
</filter>
</defs>
</svg>
