<svg width="960" height="720" viewBox="0 0 960 720" fill="none" xmlns="http://www.w3.org/2000/svg">
<g clip-path="url(#clip0_1007_17009)">
<mask id="mask0_1007_17009" style="mask-type:alpha" maskUnits="userSpaceOnUse" x="-73" y="0" width="1106" height="720">
<rect width="720" height="720" transform="translate(120)" fill="url(#paint0_radial_1007_17009)"/>
</mask>
<g mask="url(#mask0_1007_17009)">
<g clip-path="url(#clip1_1007_17009)">
<mask id="path-3-inside-1_1007_17009" fill="white">
<path d="M0 0H48V48H0V0Z"/>
</mask>
<path d="M48 48V48.5H48.5V48H48ZM48 0H47.5V48H48H48.5V0H48ZM48 48V47.5H0V48V48.5H48V48Z" fill="#DFE4EB" mask="url(#path-3-inside-1_1007_17009)"/>
<mask id="path-5-inside-2_1007_17009" fill="white">
<path d="M48 0H96V48H48V0Z"/>
</mask>
<path d="M96 48V48.5H96.5V48H96ZM96 0H95.5V48H96H96.5V0H96ZM96 48V47.5H48V48V48.5H96V48Z" fill="#DFE4EB" mask="url(#path-5-inside-2_1007_17009)"/>
<mask id="path-7-inside-3_1007_17009" fill="white">
<path d="M96 0H144V48H96V0Z"/>
</mask>
<path d="M144 48V48.5H144.5V48H144ZM144 0H143.5V48H144H144.5V0H144ZM144 48V47.5H96V48V48.5H144V48Z" fill="#DFE4EB" mask="url(#path-7-inside-3_1007_17009)"/>
<mask id="path-9-inside-4_1007_17009" fill="white">
<path d="M144 0H192V48H144V0Z"/>
</mask>
<path d="M192 48V48.5H192.5V48H192ZM192 0H191.5V48H192H192.5V0H192ZM192 48V47.5H144V48V48.5H192V48Z" fill="#DFE4EB" mask="url(#path-9-inside-4_1007_17009)"/>
<mask id="path-11-inside-5_1007_17009" fill="white">
<path d="M192 0H240V48H192V0Z"/>
</mask>
<path d="M240 48V48.5H240.5V48H240ZM240 0H239.5V48H240H240.5V0H240ZM240 48V47.5H192V48V48.5H240V48Z" fill="#DFE4EB" mask="url(#path-11-inside-5_1007_17009)"/>
<mask id="path-13-inside-6_1007_17009" fill="white">
<path d="M240 0H288V48H240V0Z"/>
</mask>
<path d="M288 48V48.5H288.5V48H288ZM288 0H287.5V48H288H288.5V0H288ZM288 48V47.5H240V48V48.5H288V48Z" fill="#DFE4EB" mask="url(#path-13-inside-6_1007_17009)"/>
<mask id="path-15-inside-7_1007_17009" fill="white">
<path d="M288 0H336V48H288V0Z"/>
</mask>
<path d="M336 48V48.5H336.5V48H336ZM336 0H335.5V48H336H336.5V0H336ZM336 48V47.5H288V48V48.5H336V48Z" fill="#DFE4EB" mask="url(#path-15-inside-7_1007_17009)"/>
<mask id="path-17-inside-8_1007_17009" fill="white">
<path d="M336 0H384V48H336V0Z"/>
</mask>
<path d="M384 48V48.5H384.5V48H384ZM384 0H383.5V48H384H384.5V0H384ZM384 48V47.5H336V48V48.5H384V48Z" fill="#DFE4EB" mask="url(#path-17-inside-8_1007_17009)"/>
<mask id="path-19-inside-9_1007_17009" fill="white">
<path d="M384 0H432V48H384V0Z"/>
</mask>
<path d="M432 48V48.5H432.5V48H432ZM432 0H431.5V48H432H432.5V0H432ZM432 48V47.5H384V48V48.5H432V48Z" fill="#DFE4EB" mask="url(#path-19-inside-9_1007_17009)"/>
<mask id="path-21-inside-10_1007_17009" fill="white">
<path d="M432 0H480V48H432V0Z"/>
</mask>
<path d="M480 48V48.5H480.5V48H480ZM480 0H479.5V48H480H480.5V0H480ZM480 48V47.5H432V48V48.5H480V48Z" fill="#DFE4EB" mask="url(#path-21-inside-10_1007_17009)"/>
<mask id="path-23-inside-11_1007_17009" fill="white">
<path d="M480 0H528V48H480V0Z"/>
</mask>
<path d="M528 48V48.5H528.5V48H528ZM528 0H527.5V48H528H528.5V0H528ZM528 48V47.5H480V48V48.5H528V48Z" fill="#DFE4EB" mask="url(#path-23-inside-11_1007_17009)"/>
<mask id="path-25-inside-12_1007_17009" fill="white">
<path d="M528 0H576V48H528V0Z"/>
</mask>
<path d="M576 48V48.5H576.5V48H576ZM576 0H575.5V48H576H576.5V0H576ZM576 48V47.5H528V48V48.5H576V48Z" fill="#DFE4EB" mask="url(#path-25-inside-12_1007_17009)"/>
<mask id="path-27-inside-13_1007_17009" fill="white">
<path d="M576 0H624V48H576V0Z"/>
</mask>
<path d="M624 48V48.5H624.5V48H624ZM624 0H623.5V48H624H624.5V0H624ZM624 48V47.5H576V48V48.5H624V48Z" fill="#DFE4EB" mask="url(#path-27-inside-13_1007_17009)"/>
<mask id="path-29-inside-14_1007_17009" fill="white">
<path d="M624 0H672V48H624V0Z"/>
</mask>
<path d="M672 48V48.5H672.5V48H672ZM672 0H671.5V48H672H672.5V0H672ZM672 48V47.5H624V48V48.5H672V48Z" fill="#DFE4EB" mask="url(#path-29-inside-14_1007_17009)"/>
<mask id="path-31-inside-15_1007_17009" fill="white">
<path d="M672 0H720V48H672V0Z"/>
</mask>
<path d="M720 48V48.5H720.5V48H720ZM720 0H719.5V48H720H720.5V0H720ZM720 48V47.5H672V48V48.5H720V48Z" fill="#DFE4EB" mask="url(#path-31-inside-15_1007_17009)"/>
<mask id="path-33-inside-16_1007_17009" fill="white">
<path d="M720 0H768V48H720V0Z"/>
</mask>
<path d="M768 48V48.5H768.5V48H768ZM768 0H767.5V48H768H768.5V0H768ZM768 48V47.5H720V48V48.5H768V48Z" fill="#DFE4EB" mask="url(#path-33-inside-16_1007_17009)"/>
<mask id="path-35-inside-17_1007_17009" fill="white">
<path d="M768 0H816V48H768V0Z"/>
</mask>
<path d="M816 48V48.5H816.5V48H816ZM816 0H815.5V48H816H816.5V0H816ZM816 48V47.5H768V48V48.5H816V48Z" fill="#DFE4EB" mask="url(#path-35-inside-17_1007_17009)"/>
<mask id="path-37-inside-18_1007_17009" fill="white">
<path d="M816 0H864V48H816V0Z"/>
</mask>
<path d="M864 48V48.5H864.5V48H864ZM864 0H863.5V48H864H864.5V0H864ZM864 48V47.5H816V48V48.5H864V48Z" fill="#DFE4EB" mask="url(#path-37-inside-18_1007_17009)"/>
<mask id="path-39-inside-19_1007_17009" fill="white">
<path d="M864 0H912V48H864V0Z"/>
</mask>
<path d="M912 48V48.5H912.5V48H912ZM912 0H911.5V48H912H912.5V0H912ZM912 48V47.5H864V48V48.5H912V48Z" fill="#DFE4EB" mask="url(#path-39-inside-19_1007_17009)"/>
<mask id="path-41-inside-20_1007_17009" fill="white">
<path d="M912 0H960V48H912V0Z"/>
</mask>
<path d="M960 48V48.5H960.5V48H960ZM960 0H959.5V48H960H960.5V0H960ZM960 48V47.5H912V48V48.5H960V48Z" fill="#DFE4EB" mask="url(#path-41-inside-20_1007_17009)"/>
<mask id="path-43-inside-21_1007_17009" fill="white">
<path d="M0 48H48V96H0V48Z"/>
</mask>
<path d="M48 96V96.5H48.5V96H48ZM48 48H47.5V96H48H48.5V48H48ZM48 96V95.5H0V96V96.5H48V96Z" fill="#DFE4EB" mask="url(#path-43-inside-21_1007_17009)"/>
<mask id="path-45-inside-22_1007_17009" fill="white">
<path d="M48 48H96V96H48V48Z"/>
</mask>
<path d="M96 96V96.5H96.5V96H96ZM96 48H95.5V96H96H96.5V48H96ZM96 96V95.5H48V96V96.5H96V96Z" fill="#DFE4EB" mask="url(#path-45-inside-22_1007_17009)"/>
<mask id="path-47-inside-23_1007_17009" fill="white">
<path d="M96 48H144V96H96V48Z"/>
</mask>
<path d="M144 96V96.5H144.5V96H144ZM144 48H143.5V96H144H144.5V48H144ZM144 96V95.5H96V96V96.5H144V96Z" fill="#DFE4EB" mask="url(#path-47-inside-23_1007_17009)"/>
<mask id="path-49-inside-24_1007_17009" fill="white">
<path d="M144 48H192V96H144V48Z"/>
</mask>
<path d="M192 96V96.5H192.5V96H192ZM192 48H191.5V96H192H192.5V48H192ZM192 96V95.5H144V96V96.5H192V96Z" fill="#DFE4EB" mask="url(#path-49-inside-24_1007_17009)"/>
<mask id="path-51-inside-25_1007_17009" fill="white">
<path d="M192 48H240V96H192V48Z"/>
</mask>
<path d="M240 96V96.5H240.5V96H240ZM240 48H239.5V96H240H240.5V48H240ZM240 96V95.5H192V96V96.5H240V96Z" fill="#DFE4EB" mask="url(#path-51-inside-25_1007_17009)"/>
<mask id="path-53-inside-26_1007_17009" fill="white">
<path d="M240 48H288V96H240V48Z"/>
</mask>
<path d="M240 48H288V96H240V48Z" fill="#F0F2F6"/>
<path d="M288 96V96.5H288.5V96H288ZM288 48H287.5V96H288H288.5V48H288ZM288 96V95.5H240V96V96.5H288V96Z" fill="#DFE4EB" mask="url(#path-53-inside-26_1007_17009)"/>
<mask id="path-55-inside-27_1007_17009" fill="white">
<path d="M288 48H336V96H288V48Z"/>
</mask>
<path d="M336 96V96.5H336.5V96H336ZM336 48H335.5V96H336H336.5V48H336ZM336 96V95.5H288V96V96.5H336V96Z" fill="#DFE4EB" mask="url(#path-55-inside-27_1007_17009)"/>
<mask id="path-57-inside-28_1007_17009" fill="white">
<path d="M336 48H384V96H336V48Z"/>
</mask>
<path d="M384 96V96.5H384.5V96H384ZM384 48H383.5V96H384H384.5V48H384ZM384 96V95.5H336V96V96.5H384V96Z" fill="#DFE4EB" mask="url(#path-57-inside-28_1007_17009)"/>
<mask id="path-59-inside-29_1007_17009" fill="white">
<path d="M384 48H432V96H384V48Z"/>
</mask>
<path d="M432 96V96.5H432.5V96H432ZM432 48H431.5V96H432H432.5V48H432ZM432 96V95.5H384V96V96.5H432V96Z" fill="#DFE4EB" mask="url(#path-59-inside-29_1007_17009)"/>
<mask id="path-61-inside-30_1007_17009" fill="white">
<path d="M432 48H480V96H432V48Z"/>
</mask>
<path d="M480 96V96.5H480.5V96H480ZM480 48H479.5V96H480H480.5V48H480ZM480 96V95.5H432V96V96.5H480V96Z" fill="#DFE4EB" mask="url(#path-61-inside-30_1007_17009)"/>
<mask id="path-63-inside-31_1007_17009" fill="white">
<path d="M480 48H528V96H480V48Z"/>
</mask>
<path d="M528 96V96.5H528.5V96H528ZM528 48H527.5V96H528H528.5V48H528ZM528 96V95.5H480V96V96.5H528V96Z" fill="#DFE4EB" mask="url(#path-63-inside-31_1007_17009)"/>
<mask id="path-65-inside-32_1007_17009" fill="white">
<path d="M528 48H576V96H528V48Z"/>
</mask>
<path d="M576 96V96.5H576.5V96H576ZM576 48H575.5V96H576H576.5V48H576ZM576 96V95.5H528V96V96.5H576V96Z" fill="#DFE4EB" mask="url(#path-65-inside-32_1007_17009)"/>
<mask id="path-67-inside-33_1007_17009" fill="white">
<path d="M576 48H624V96H576V48Z"/>
</mask>
<path d="M624 96V96.5H624.5V96H624ZM624 48H623.5V96H624H624.5V48H624ZM624 96V95.5H576V96V96.5H624V96Z" fill="#DFE4EB" mask="url(#path-67-inside-33_1007_17009)"/>
<mask id="path-69-inside-34_1007_17009" fill="white">
<path d="M624 48H672V96H624V48Z"/>
</mask>
<path d="M672 96V96.5H672.5V96H672ZM672 48H671.5V96H672H672.5V48H672ZM672 96V95.5H624V96V96.5H672V96Z" fill="#DFE4EB" mask="url(#path-69-inside-34_1007_17009)"/>
<mask id="path-71-inside-35_1007_17009" fill="white">
<path d="M672 48H720V96H672V48Z"/>
</mask>
<path d="M672 48H720V96H672V48Z" fill="#F0F2F6"/>
<path d="M720 96V96.5H720.5V96H720ZM720 48H719.5V96H720H720.5V48H720ZM720 96V95.5H672V96V96.5H720V96Z" fill="#DFE4EB" mask="url(#path-71-inside-35_1007_17009)"/>
<mask id="path-73-inside-36_1007_17009" fill="white">
<path d="M720 48H768V96H720V48Z"/>
</mask>
<path d="M768 96V96.5H768.5V96H768ZM768 48H767.5V96H768H768.5V48H768ZM768 96V95.5H720V96V96.5H768V96Z" fill="#DFE4EB" mask="url(#path-73-inside-36_1007_17009)"/>
<mask id="path-75-inside-37_1007_17009" fill="white">
<path d="M768 48H816V96H768V48Z"/>
</mask>
<path d="M816 96V96.5H816.5V96H816ZM816 48H815.5V96H816H816.5V48H816ZM816 96V95.5H768V96V96.5H816V96Z" fill="#DFE4EB" mask="url(#path-75-inside-37_1007_17009)"/>
<mask id="path-77-inside-38_1007_17009" fill="white">
<path d="M816 48H864V96H816V48Z"/>
</mask>
<path d="M864 96V96.5H864.5V96H864ZM864 48H863.5V96H864H864.5V48H864ZM864 96V95.5H816V96V96.5H864V96Z" fill="#DFE4EB" mask="url(#path-77-inside-38_1007_17009)"/>
<mask id="path-79-inside-39_1007_17009" fill="white">
<path d="M864 48H912V96H864V48Z"/>
</mask>
<path d="M912 96V96.5H912.5V96H912ZM912 48H911.5V96H912H912.5V48H912ZM912 96V95.5H864V96V96.5H912V96Z" fill="#DFE4EB" mask="url(#path-79-inside-39_1007_17009)"/>
<mask id="path-81-inside-40_1007_17009" fill="white">
<path d="M912 48H960V96H912V48Z"/>
</mask>
<path d="M960 96V96.5H960.5V96H960ZM960 48H959.5V96H960H960.5V48H960ZM960 96V95.5H912V96V96.5H960V96Z" fill="#DFE4EB" mask="url(#path-81-inside-40_1007_17009)"/>
<mask id="path-83-inside-41_1007_17009" fill="white">
<path d="M0 96H48V144H0V96Z"/>
</mask>
<path d="M48 144V144.5H48.5V144H48ZM48 96H47.5V144H48H48.5V96H48ZM48 144V143.5H0V144V144.5H48V144Z" fill="#DFE4EB" mask="url(#path-83-inside-41_1007_17009)"/>
<mask id="path-85-inside-42_1007_17009" fill="white">
<path d="M48 96H96V144H48V96Z"/>
</mask>
<path d="M96 144V144.5H96.5V144H96ZM96 96H95.5V144H96H96.5V96H96ZM96 144V143.5H48V144V144.5H96V144Z" fill="#DFE4EB" mask="url(#path-85-inside-42_1007_17009)"/>
<mask id="path-87-inside-43_1007_17009" fill="white">
<path d="M96 96H144V144H96V96Z"/>
</mask>
<path d="M144 144V144.5H144.5V144H144ZM144 96H143.5V144H144H144.5V96H144ZM144 144V143.5H96V144V144.5H144V144Z" fill="#DFE4EB" mask="url(#path-87-inside-43_1007_17009)"/>
<mask id="path-89-inside-44_1007_17009" fill="white">
<path d="M144 96H192V144H144V96Z"/>
</mask>
<path d="M192 144V144.5H192.5V144H192ZM192 96H191.5V144H192H192.5V96H192ZM192 144V143.5H144V144V144.5H192V144Z" fill="#DFE4EB" mask="url(#path-89-inside-44_1007_17009)"/>
<mask id="path-91-inside-45_1007_17009" fill="white">
<path d="M192 96H240V144H192V96Z"/>
</mask>
<path d="M240 144V144.5H240.5V144H240ZM240 96H239.5V144H240H240.5V96H240ZM240 144V143.5H192V144V144.5H240V144Z" fill="#DFE4EB" mask="url(#path-91-inside-45_1007_17009)"/>
<mask id="path-93-inside-46_1007_17009" fill="white">
<path d="M240 96H288V144H240V96Z"/>
</mask>
<path d="M288 144V144.5H288.5V144H288ZM288 96H287.5V144H288H288.5V96H288ZM288 144V143.5H240V144V144.5H288V144Z" fill="#DFE4EB" mask="url(#path-93-inside-46_1007_17009)"/>
<mask id="path-95-inside-47_1007_17009" fill="white">
<path d="M288 96H336V144H288V96Z"/>
</mask>
<path d="M336 144V144.5H336.5V144H336ZM336 96H335.5V144H336H336.5V96H336ZM336 144V143.5H288V144V144.5H336V144Z" fill="#DFE4EB" mask="url(#path-95-inside-47_1007_17009)"/>
<mask id="path-97-inside-48_1007_17009" fill="white">
<path d="M336 96H384V144H336V96Z"/>
</mask>
<path d="M336 96H384V144H336V96Z" fill="#F0F2F6"/>
<path d="M384 144V144.5H384.5V144H384ZM384 96H383.5V144H384H384.5V96H384ZM384 144V143.5H336V144V144.5H384V144Z" fill="#DFE4EB" mask="url(#path-97-inside-48_1007_17009)"/>
<mask id="path-99-inside-49_1007_17009" fill="white">
<path d="M384 96H432V144H384V96Z"/>
</mask>
<path d="M432 144V144.5H432.5V144H432ZM432 96H431.5V144H432H432.5V96H432ZM432 144V143.5H384V144V144.5H432V144Z" fill="#DFE4EB" mask="url(#path-99-inside-49_1007_17009)"/>
<mask id="path-101-inside-50_1007_17009" fill="white">
<path d="M432 96H480V144H432V96Z"/>
</mask>
<path d="M480 144V144.5H480.5V144H480ZM480 96H479.5V144H480H480.5V96H480ZM480 144V143.5H432V144V144.5H480V144Z" fill="#DFE4EB" mask="url(#path-101-inside-50_1007_17009)"/>
<mask id="path-103-inside-51_1007_17009" fill="white">
<path d="M480 96H528V144H480V96Z"/>
</mask>
<path d="M528 144V144.5H528.5V144H528ZM528 96H527.5V144H528H528.5V96H528ZM528 144V143.5H480V144V144.5H528V144Z" fill="#DFE4EB" mask="url(#path-103-inside-51_1007_17009)"/>
<mask id="path-105-inside-52_1007_17009" fill="white">
<path d="M528 96H576V144H528V96Z"/>
</mask>
<path d="M528 96H576V144H528V96Z" fill="#F0F2F6"/>
<path d="M576 144V144.5H576.5V144H576ZM576 96H575.5V144H576H576.5V96H576ZM576 144V143.5H528V144V144.5H576V144Z" fill="#DFE4EB" mask="url(#path-105-inside-52_1007_17009)"/>
<mask id="path-107-inside-53_1007_17009" fill="white">
<path d="M576 96H624V144H576V96Z"/>
</mask>
<path d="M624 144V144.5H624.5V144H624ZM624 96H623.5V144H624H624.5V96H624ZM624 144V143.5H576V144V144.5H624V144Z" fill="#DFE4EB" mask="url(#path-107-inside-53_1007_17009)"/>
<mask id="path-109-inside-54_1007_17009" fill="white">
<path d="M624 96H672V144H624V96Z"/>
</mask>
<path d="M672 144V144.5H672.5V144H672ZM672 96H671.5V144H672H672.5V96H672ZM672 144V143.5H624V144V144.5H672V144Z" fill="#DFE4EB" mask="url(#path-109-inside-54_1007_17009)"/>
<mask id="path-111-inside-55_1007_17009" fill="white">
<path d="M672 96H720V144H672V96Z"/>
</mask>
<path d="M720 144V144.5H720.5V144H720ZM720 96H719.5V144H720H720.5V96H720ZM720 144V143.5H672V144V144.5H720V144Z" fill="#DFE4EB" mask="url(#path-111-inside-55_1007_17009)"/>
<mask id="path-113-inside-56_1007_17009" fill="white">
<path d="M720 96H768V144H720V96Z"/>
</mask>
<path d="M768 144V144.5H768.5V144H768ZM768 96H767.5V144H768H768.5V96H768ZM768 144V143.5H720V144V144.5H768V144Z" fill="#DFE4EB" mask="url(#path-113-inside-56_1007_17009)"/>
<mask id="path-115-inside-57_1007_17009" fill="white">
<path d="M768 96H816V144H768V96Z"/>
</mask>
<path d="M816 144V144.5H816.5V144H816ZM816 96H815.5V144H816H816.5V96H816ZM816 144V143.5H768V144V144.5H816V144Z" fill="#DFE4EB" mask="url(#path-115-inside-57_1007_17009)"/>
<mask id="path-117-inside-58_1007_17009" fill="white">
<path d="M816 96H864V144H816V96Z"/>
</mask>
<path d="M864 144V144.5H864.5V144H864ZM864 96H863.5V144H864H864.5V96H864ZM864 144V143.5H816V144V144.5H864V144Z" fill="#DFE4EB" mask="url(#path-117-inside-58_1007_17009)"/>
<mask id="path-119-inside-59_1007_17009" fill="white">
<path d="M864 96H912V144H864V96Z"/>
</mask>
<path d="M912 144V144.5H912.5V144H912ZM912 96H911.5V144H912H912.5V96H912ZM912 144V143.5H864V144V144.5H912V144Z" fill="#DFE4EB" mask="url(#path-119-inside-59_1007_17009)"/>
<mask id="path-121-inside-60_1007_17009" fill="white">
<path d="M912 96H960V144H912V96Z"/>
</mask>
<path d="M960 144V144.5H960.5V144H960ZM960 96H959.5V144H960H960.5V96H960ZM960 144V143.5H912V144V144.5H960V144Z" fill="#DFE4EB" mask="url(#path-121-inside-60_1007_17009)"/>
<mask id="path-123-inside-61_1007_17009" fill="white">
<path d="M0 144H48V192H0V144Z"/>
</mask>
<path d="M48 192V192.5H48.5V192H48ZM48 144H47.5V192H48H48.5V144H48ZM48 192V191.5H0V192V192.5H48V192Z" fill="#DFE4EB" mask="url(#path-123-inside-61_1007_17009)"/>
<mask id="path-125-inside-62_1007_17009" fill="white">
<path d="M48 144H96V192H48V144Z"/>
</mask>
<path d="M96 192V192.5H96.5V192H96ZM96 144H95.5V192H96H96.5V144H96ZM96 192V191.5H48V192V192.5H96V192Z" fill="#DFE4EB" mask="url(#path-125-inside-62_1007_17009)"/>
<mask id="path-127-inside-63_1007_17009" fill="white">
<path d="M96 144H144V192H96V144Z"/>
</mask>
<path d="M96 144H144V192H96V144Z" fill="#DFE4EB"/>
<path d="M144 192V192.5H144.5V192H144ZM144 144H143.5V192H144H144.5V144H144ZM144 192V191.5H96V192V192.5H144V192Z" fill="#DFE4EB" mask="url(#path-127-inside-63_1007_17009)"/>
<mask id="path-129-inside-64_1007_17009" fill="white">
<path d="M144 144H192V192H144V144Z"/>
</mask>
<path d="M192 192V192.5H192.5V192H192ZM192 144H191.5V192H192H192.5V144H192ZM192 192V191.5H144V192V192.5H192V192Z" fill="#DFE4EB" mask="url(#path-129-inside-64_1007_17009)"/>
<mask id="path-131-inside-65_1007_17009" fill="white">
<path d="M192 144H240V192H192V144Z"/>
</mask>
<path d="M240 192V192.5H240.5V192H240ZM240 144H239.5V192H240H240.5V144H240ZM240 192V191.5H192V192V192.5H240V192Z" fill="#DFE4EB" mask="url(#path-131-inside-65_1007_17009)"/>
<mask id="path-133-inside-66_1007_17009" fill="white">
<path d="M240 144H288V192H240V144Z"/>
</mask>
<path d="M288 192V192.5H288.5V192H288ZM288 144H287.5V192H288H288.5V144H288ZM288 192V191.5H240V192V192.5H288V192Z" fill="#DFE4EB" mask="url(#path-133-inside-66_1007_17009)"/>
<mask id="path-135-inside-67_1007_17009" fill="white">
<path d="M288 144H336V192H288V144Z"/>
</mask>
<path d="M336 192V192.5H336.5V192H336ZM336 144H335.5V192H336H336.5V144H336ZM336 192V191.5H288V192V192.5H336V192Z" fill="#DFE4EB" mask="url(#path-135-inside-67_1007_17009)"/>
<mask id="path-137-inside-68_1007_17009" fill="white">
<path d="M336 144H384V192H336V144Z"/>
</mask>
<path d="M384 192V192.5H384.5V192H384ZM384 144H383.5V192H384H384.5V144H384ZM384 192V191.5H336V192V192.5H384V192Z" fill="#DFE4EB" mask="url(#path-137-inside-68_1007_17009)"/>
<mask id="path-139-inside-69_1007_17009" fill="white">
<path d="M384 144H432V192H384V144Z"/>
</mask>
<path d="M432 192V192.5H432.5V192H432ZM432 144H431.5V192H432H432.5V144H432ZM432 192V191.5H384V192V192.5H432V192Z" fill="#DFE4EB" mask="url(#path-139-inside-69_1007_17009)"/>
<mask id="path-141-inside-70_1007_17009" fill="white">
<path d="M432 144H480V192H432V144Z"/>
</mask>
<path d="M480 192V192.5H480.5V192H480ZM480 144H479.5V192H480H480.5V144H480ZM480 192V191.5H432V192V192.5H480V192Z" fill="#DFE4EB" mask="url(#path-141-inside-70_1007_17009)"/>
<mask id="path-143-inside-71_1007_17009" fill="white">
<path d="M480 144H528V192H480V144Z"/>
</mask>
<path d="M528 192V192.5H528.5V192H528ZM528 144H527.5V192H528H528.5V144H528ZM528 192V191.5H480V192V192.5H528V192Z" fill="#DFE4EB" mask="url(#path-143-inside-71_1007_17009)"/>
<mask id="path-145-inside-72_1007_17009" fill="white">
<path d="M528 144H576V192H528V144Z"/>
</mask>
<path d="M576 192V192.5H576.5V192H576ZM576 144H575.5V192H576H576.5V144H576ZM576 192V191.5H528V192V192.5H576V192Z" fill="#DFE4EB" mask="url(#path-145-inside-72_1007_17009)"/>
<mask id="path-147-inside-73_1007_17009" fill="white">
<path d="M576 144H624V192H576V144Z"/>
</mask>
<path d="M624 192V192.5H624.5V192H624ZM624 144H623.5V192H624H624.5V144H624ZM624 192V191.5H576V192V192.5H624V192Z" fill="#DFE4EB" mask="url(#path-147-inside-73_1007_17009)"/>
<mask id="path-149-inside-74_1007_17009" fill="white">
<path d="M624 144H672V192H624V144Z"/>
</mask>
<path d="M672 192V192.5H672.5V192H672ZM672 144H671.5V192H672H672.5V144H672ZM672 192V191.5H624V192V192.5H672V192Z" fill="#DFE4EB" mask="url(#path-149-inside-74_1007_17009)"/>
<mask id="path-151-inside-75_1007_17009" fill="white">
<path d="M672 144H720V192H672V144Z"/>
</mask>
<path d="M672 144H720V192H672V144Z" fill="#F0F2F6"/>
<path d="M720 192V192.5H720.5V192H720ZM720 144H719.5V192H720H720.5V144H720ZM720 192V191.5H672V192V192.5H720V192Z" fill="#DFE4EB" mask="url(#path-151-inside-75_1007_17009)"/>
<mask id="path-153-inside-76_1007_17009" fill="white">
<path d="M720 144H768V192H720V144Z"/>
</mask>
<path d="M768 192V192.5H768.5V192H768ZM768 144H767.5V192H768H768.5V144H768ZM768 192V191.5H720V192V192.5H768V192Z" fill="#DFE4EB" mask="url(#path-153-inside-76_1007_17009)"/>
<mask id="path-155-inside-77_1007_17009" fill="white">
<path d="M768 144H816V192H768V144Z"/>
</mask>
<path d="M816 192V192.5H816.5V192H816ZM816 144H815.5V192H816H816.5V144H816ZM816 192V191.5H768V192V192.5H816V192Z" fill="#DFE4EB" mask="url(#path-155-inside-77_1007_17009)"/>
<mask id="path-157-inside-78_1007_17009" fill="white">
<path d="M816 144H864V192H816V144Z"/>
</mask>
<path d="M864 192V192.5H864.5V192H864ZM864 144H863.5V192H864H864.5V144H864ZM864 192V191.5H816V192V192.5H864V192Z" fill="#DFE4EB" mask="url(#path-157-inside-78_1007_17009)"/>
<mask id="path-159-inside-79_1007_17009" fill="white">
<path d="M864 144H912V192H864V144Z"/>
</mask>
<path d="M912 192V192.5H912.5V192H912ZM912 144H911.5V192H912H912.5V144H912ZM912 192V191.5H864V192V192.5H912V192Z" fill="#DFE4EB" mask="url(#path-159-inside-79_1007_17009)"/>
<mask id="path-161-inside-80_1007_17009" fill="white">
<path d="M912 144H960V192H912V144Z"/>
</mask>
<path d="M960 192V192.5H960.5V192H960ZM960 144H959.5V192H960H960.5V144H960ZM960 192V191.5H912V192V192.5H960V192Z" fill="#DFE4EB" mask="url(#path-161-inside-80_1007_17009)"/>
<mask id="path-163-inside-81_1007_17009" fill="white">
<path d="M0 192H48V240H0V192Z"/>
</mask>
<path d="M48 240V240.5H48.5V240H48ZM48 192H47.5V240H48H48.5V192H48ZM48 240V239.5H0V240V240.5H48V240Z" fill="#DFE4EB" mask="url(#path-163-inside-81_1007_17009)"/>
<mask id="path-165-inside-82_1007_17009" fill="white">
<path d="M48 192H96V240H48V192Z"/>
</mask>
<path d="M96 240V240.5H96.5V240H96ZM96 192H95.5V240H96H96.5V192H96ZM96 240V239.5H48V240V240.5H96V240Z" fill="#DFE4EB" mask="url(#path-165-inside-82_1007_17009)"/>
<mask id="path-167-inside-83_1007_17009" fill="white">
<path d="M96 192H144V240H96V192Z"/>
</mask>
<path d="M144 240V240.5H144.5V240H144ZM144 192H143.5V240H144H144.5V192H144ZM144 240V239.5H96V240V240.5H144V240Z" fill="#DFE4EB" mask="url(#path-167-inside-83_1007_17009)"/>
<mask id="path-169-inside-84_1007_17009" fill="white">
<path d="M144 192H192V240H144V192Z"/>
</mask>
<path d="M192 240V240.5H192.5V240H192ZM192 192H191.5V240H192H192.5V192H192ZM192 240V239.5H144V240V240.5H192V240Z" fill="#DFE4EB" mask="url(#path-169-inside-84_1007_17009)"/>
<mask id="path-171-inside-85_1007_17009" fill="white">
<path d="M192 192H240V240H192V192Z"/>
</mask>
<path d="M240 240V240.5H240.5V240H240ZM240 192H239.5V240H240H240.5V192H240ZM240 240V239.5H192V240V240.5H240V240Z" fill="#DFE4EB" mask="url(#path-171-inside-85_1007_17009)"/>
<mask id="path-173-inside-86_1007_17009" fill="white">
<path d="M240 192H288V240H240V192Z"/>
</mask>
<path d="M288 240V240.5H288.5V240H288ZM288 192H287.5V240H288H288.5V192H288ZM288 240V239.5H240V240V240.5H288V240Z" fill="#DFE4EB" mask="url(#path-173-inside-86_1007_17009)"/>
<mask id="path-175-inside-87_1007_17009" fill="white">
<path d="M288 192H336V240H288V192Z"/>
</mask>
<path d="M336 240V240.5H336.5V240H336ZM336 192H335.5V240H336H336.5V192H336ZM336 240V239.5H288V240V240.5H336V240Z" fill="#DFE4EB" mask="url(#path-175-inside-87_1007_17009)"/>
<mask id="path-177-inside-88_1007_17009" fill="white">
<path d="M336 192H384V240H336V192Z"/>
</mask>
<path d="M384 240V240.5H384.5V240H384ZM384 192H383.5V240H384H384.5V192H384ZM384 240V239.5H336V240V240.5H384V240Z" fill="#DFE4EB" mask="url(#path-177-inside-88_1007_17009)"/>
<mask id="path-179-inside-89_1007_17009" fill="white">
<path d="M384 192H432V240H384V192Z"/>
</mask>
<path d="M384 192H432V240H384V192Z" fill="#F0F2F6"/>
<path d="M432 240V240.5H432.5V240H432ZM432 192H431.5V240H432H432.5V192H432ZM432 240V239.5H384V240V240.5H432V240Z" fill="#DFE4EB" mask="url(#path-179-inside-89_1007_17009)"/>
<mask id="path-181-inside-90_1007_17009" fill="white">
<path d="M432 192H480V240H432V192Z"/>
</mask>
<path d="M480 240V240.5H480.5V240H480ZM480 192H479.5V240H480H480.5V192H480ZM480 240V239.5H432V240V240.5H480V240Z" fill="#DFE4EB" mask="url(#path-181-inside-90_1007_17009)"/>
<mask id="path-183-inside-91_1007_17009" fill="white">
<path d="M480 192H528V240H480V192Z"/>
</mask>
<path d="M528 240V240.5H528.5V240H528ZM528 192H527.5V240H528H528.5V192H528ZM528 240V239.5H480V240V240.5H528V240Z" fill="#DFE4EB" mask="url(#path-183-inside-91_1007_17009)"/>
<mask id="path-185-inside-92_1007_17009" fill="white">
<path d="M528 192H576V240H528V192Z"/>
</mask>
<path d="M576 240V240.5H576.5V240H576ZM576 192H575.5V240H576H576.5V192H576ZM576 240V239.5H528V240V240.5H576V240Z" fill="#DFE4EB" mask="url(#path-185-inside-92_1007_17009)"/>
<mask id="path-187-inside-93_1007_17009" fill="white">
<path d="M576 192H624V240H576V192Z"/>
</mask>
<path d="M624 240V240.5H624.5V240H624ZM624 192H623.5V240H624H624.5V192H624ZM624 240V239.5H576V240V240.5H624V240Z" fill="#DFE4EB" mask="url(#path-187-inside-93_1007_17009)"/>
<mask id="path-189-inside-94_1007_17009" fill="white">
<path d="M624 192H672V240H624V192Z"/>
</mask>
<path d="M672 240V240.5H672.5V240H672ZM672 192H671.5V240H672H672.5V192H672ZM672 240V239.5H624V240V240.5H672V240Z" fill="#DFE4EB" mask="url(#path-189-inside-94_1007_17009)"/>
<mask id="path-191-inside-95_1007_17009" fill="white">
<path d="M672 192H720V240H672V192Z"/>
</mask>
<path d="M720 240V240.5H720.5V240H720ZM720 192H719.5V240H720H720.5V192H720ZM720 240V239.5H672V240V240.5H720V240Z" fill="#DFE4EB" mask="url(#path-191-inside-95_1007_17009)"/>
<mask id="path-193-inside-96_1007_17009" fill="white">
<path d="M720 192H768V240H720V192Z"/>
</mask>
<path d="M768 240V240.5H768.5V240H768ZM768 192H767.5V240H768H768.5V192H768ZM768 240V239.5H720V240V240.5H768V240Z" fill="#DFE4EB" mask="url(#path-193-inside-96_1007_17009)"/>
<mask id="path-195-inside-97_1007_17009" fill="white">
<path d="M768 192H816V240H768V192Z"/>
</mask>
<path d="M816 240V240.5H816.5V240H816ZM816 192H815.5V240H816H816.5V192H816ZM816 240V239.5H768V240V240.5H816V240Z" fill="#DFE4EB" mask="url(#path-195-inside-97_1007_17009)"/>
<mask id="path-197-inside-98_1007_17009" fill="white">
<path d="M816 192H864V240H816V192Z"/>
</mask>
<path d="M864 240V240.5H864.5V240H864ZM864 192H863.5V240H864H864.5V192H864ZM864 240V239.5H816V240V240.5H864V240Z" fill="#DFE4EB" mask="url(#path-197-inside-98_1007_17009)"/>
<mask id="path-199-inside-99_1007_17009" fill="white">
<path d="M864 192H912V240H864V192Z"/>
</mask>
<path d="M864 192H912V240H864V192Z" fill="#DFE4EB"/>
<path d="M912 240V240.5H912.5V240H912ZM912 192H911.5V240H912H912.5V192H912ZM912 240V239.5H864V240V240.5H912V240Z" fill="#DFE4EB" mask="url(#path-199-inside-99_1007_17009)"/>
<mask id="path-201-inside-100_1007_17009" fill="white">
<path d="M912 192H960V240H912V192Z"/>
</mask>
<path d="M960 240V240.5H960.5V240H960ZM960 192H959.5V240H960H960.5V192H960ZM960 240V239.5H912V240V240.5H960V240Z" fill="#DFE4EB" mask="url(#path-201-inside-100_1007_17009)"/>
<mask id="path-203-inside-101_1007_17009" fill="white">
<path d="M0 240H48V288H0V240Z"/>
</mask>
<path d="M48 288V288.5H48.5V288H48ZM48 240H47.5V288H48H48.5V240H48ZM48 288V287.5H0V288V288.5H48V288Z" fill="#DFE4EB" mask="url(#path-203-inside-101_1007_17009)"/>
<mask id="path-205-inside-102_1007_17009" fill="white">
<path d="M48 240H96V288H48V240Z"/>
</mask>
<path d="M96 288V288.5H96.5V288H96ZM96 240H95.5V288H96H96.5V240H96ZM96 288V287.5H48V288V288.5H96V288Z" fill="#DFE4EB" mask="url(#path-205-inside-102_1007_17009)"/>
<mask id="path-207-inside-103_1007_17009" fill="white">
<path d="M96 240H144V288H96V240Z"/>
</mask>
<path d="M144 288V288.5H144.5V288H144ZM144 240H143.5V288H144H144.5V240H144ZM144 288V287.5H96V288V288.5H144V288Z" fill="#DFE4EB" mask="url(#path-207-inside-103_1007_17009)"/>
<mask id="path-209-inside-104_1007_17009" fill="white">
<path d="M144 240H192V288H144V240Z"/>
</mask>
<path d="M192 288V288.5H192.5V288H192ZM192 240H191.5V288H192H192.5V240H192ZM192 288V287.5H144V288V288.5H192V288Z" fill="#DFE4EB" mask="url(#path-209-inside-104_1007_17009)"/>
<mask id="path-211-inside-105_1007_17009" fill="white">
<path d="M192 240H240V288H192V240Z"/>
</mask>
<path d="M240 288V288.5H240.5V288H240ZM240 240H239.5V288H240H240.5V240H240ZM240 288V287.5H192V288V288.5H240V288Z" fill="#DFE4EB" mask="url(#path-211-inside-105_1007_17009)"/>
<mask id="path-213-inside-106_1007_17009" fill="white">
<path d="M240 240H288V288H240V240Z"/>
</mask>
<path d="M240 240H288V288H240V240Z" fill="#DFE4EB"/>
<path d="M288 288V288.5H288.5V288H288ZM288 240H287.5V288H288H288.5V240H288ZM288 288V287.5H240V288V288.5H288V288Z" fill="#DFE4EB" mask="url(#path-213-inside-106_1007_17009)"/>
<mask id="path-215-inside-107_1007_17009" fill="white">
<path d="M288 240H336V288H288V240Z"/>
</mask>
<path d="M336 288V288.5H336.5V288H336ZM336 240H335.5V288H336H336.5V240H336ZM336 288V287.5H288V288V288.5H336V288Z" fill="#DFE4EB" mask="url(#path-215-inside-107_1007_17009)"/>
<mask id="path-217-inside-108_1007_17009" fill="white">
<path d="M336 240H384V288H336V240Z"/>
</mask>
<path d="M384 288V288.5H384.5V288H384ZM384 240H383.5V288H384H384.5V240H384ZM384 288V287.5H336V288V288.5H384V288Z" fill="#DFE4EB" mask="url(#path-217-inside-108_1007_17009)"/>
<mask id="path-219-inside-109_1007_17009" fill="white">
<path d="M384 240H432V288H384V240Z"/>
</mask>
<path d="M432 288V288.5H432.5V288H432ZM432 240H431.5V288H432H432.5V240H432ZM432 288V287.5H384V288V288.5H432V288Z" fill="#DFE4EB" mask="url(#path-219-inside-109_1007_17009)"/>
<mask id="path-221-inside-110_1007_17009" fill="white">
<path d="M432 240H480V288H432V240Z"/>
</mask>
<path d="M480 288V288.5H480.5V288H480ZM480 240H479.5V288H480H480.5V240H480ZM480 288V287.5H432V288V288.5H480V288Z" fill="#DFE4EB" mask="url(#path-221-inside-110_1007_17009)"/>
<mask id="path-223-inside-111_1007_17009" fill="white">
<path d="M480 240H528V288H480V240Z"/>
</mask>
<path d="M528 288V288.5H528.5V288H528ZM528 240H527.5V288H528H528.5V240H528ZM528 288V287.5H480V288V288.5H528V288Z" fill="#DFE4EB" mask="url(#path-223-inside-111_1007_17009)"/>
<mask id="path-225-inside-112_1007_17009" fill="white">
<path d="M528 240H576V288H528V240Z"/>
</mask>
<path d="M528 240H576V288H528V240Z" fill="#F0F2F6"/>
<path d="M576 288V288.5H576.5V288H576ZM576 240H575.5V288H576H576.5V240H576ZM576 288V287.5H528V288V288.5H576V288Z" fill="#DFE4EB" mask="url(#path-225-inside-112_1007_17009)"/>
<mask id="path-227-inside-113_1007_17009" fill="white">
<path d="M576 240H624V288H576V240Z"/>
</mask>
<path d="M624 288V288.5H624.5V288H624ZM624 240H623.5V288H624H624.5V240H624ZM624 288V287.5H576V288V288.5H624V288Z" fill="#DFE4EB" mask="url(#path-227-inside-113_1007_17009)"/>
<mask id="path-229-inside-114_1007_17009" fill="white">
<path d="M624 240H672V288H624V240Z"/>
</mask>
<path d="M672 288V288.5H672.5V288H672ZM672 240H671.5V288H672H672.5V240H672ZM672 288V287.5H624V288V288.5H672V288Z" fill="#DFE4EB" mask="url(#path-229-inside-114_1007_17009)"/>
<mask id="path-231-inside-115_1007_17009" fill="white">
<path d="M672 240H720V288H672V240Z"/>
</mask>
<path d="M720 288V288.5H720.5V288H720ZM720 240H719.5V288H720H720.5V240H720ZM720 288V287.5H672V288V288.5H720V288Z" fill="#DFE4EB" mask="url(#path-231-inside-115_1007_17009)"/>
<mask id="path-233-inside-116_1007_17009" fill="white">
<path d="M720 240H768V288H720V240Z"/>
</mask>
<path d="M768 288V288.5H768.5V288H768ZM768 240H767.5V288H768H768.5V240H768ZM768 288V287.5H720V288V288.5H768V288Z" fill="#DFE4EB" mask="url(#path-233-inside-116_1007_17009)"/>
<mask id="path-235-inside-117_1007_17009" fill="white">
<path d="M768 240H816V288H768V240Z"/>
</mask>
<path d="M816 288V288.5H816.5V288H816ZM816 240H815.5V288H816H816.5V240H816ZM816 288V287.5H768V288V288.5H816V288Z" fill="#DFE4EB" mask="url(#path-235-inside-117_1007_17009)"/>
<mask id="path-237-inside-118_1007_17009" fill="white">
<path d="M816 240H864V288H816V240Z"/>
</mask>
<path d="M864 288V288.5H864.5V288H864ZM864 240H863.5V288H864H864.5V240H864ZM864 288V287.5H816V288V288.5H864V288Z" fill="#DFE4EB" mask="url(#path-237-inside-118_1007_17009)"/>
<mask id="path-239-inside-119_1007_17009" fill="white">
<path d="M864 240H912V288H864V240Z"/>
</mask>
<path d="M912 288V288.5H912.5V288H912ZM912 240H911.5V288H912H912.5V240H912ZM912 288V287.5H864V288V288.5H912V288Z" fill="#DFE4EB" mask="url(#path-239-inside-119_1007_17009)"/>
<mask id="path-241-inside-120_1007_17009" fill="white">
<path d="M912 240H960V288H912V240Z"/>
</mask>
<path d="M960 288V288.5H960.5V288H960ZM960 240H959.5V288H960H960.5V240H960ZM960 288V287.5H912V288V288.5H960V288Z" fill="#DFE4EB" mask="url(#path-241-inside-120_1007_17009)"/>
<mask id="path-243-inside-121_1007_17009" fill="white">
<path d="M0 288H48V336H0V288Z"/>
</mask>
<path d="M48 336V336.5H48.5V336H48ZM48 288H47.5V336H48H48.5V288H48ZM48 336V335.5H0V336V336.5H48V336Z" fill="#DFE4EB" mask="url(#path-243-inside-121_1007_17009)"/>
<mask id="path-245-inside-122_1007_17009" fill="white">
<path d="M48 288H96V336H48V288Z"/>
</mask>
<path d="M96 336V336.5H96.5V336H96ZM96 288H95.5V336H96H96.5V288H96ZM96 336V335.5H48V336V336.5H96V336Z" fill="#DFE4EB" mask="url(#path-245-inside-122_1007_17009)"/>
<mask id="path-247-inside-123_1007_17009" fill="white">
<path d="M96 288H144V336H96V288Z"/>
</mask>
<path d="M144 336V336.5H144.5V336H144ZM144 288H143.5V336H144H144.5V288H144ZM144 336V335.5H96V336V336.5H144V336Z" fill="#DFE4EB" mask="url(#path-247-inside-123_1007_17009)"/>
<mask id="path-249-inside-124_1007_17009" fill="white">
<path d="M144 288H192V336H144V288Z"/>
</mask>
<path d="M144 288H192V336H144V288Z" fill="#DFE4EB"/>
<path d="M192 336V336.5H192.5V336H192ZM192 288H191.5V336H192H192.5V288H192ZM192 336V335.5H144V336V336.5H192V336Z" fill="#DFE4EB" mask="url(#path-249-inside-124_1007_17009)"/>
<mask id="path-251-inside-125_1007_17009" fill="white">
<path d="M192 288H240V336H192V288Z"/>
</mask>
<path d="M240 336V336.5H240.5V336H240ZM240 288H239.5V336H240H240.5V288H240ZM240 336V335.5H192V336V336.5H240V336Z" fill="#DFE4EB" mask="url(#path-251-inside-125_1007_17009)"/>
<mask id="path-253-inside-126_1007_17009" fill="white">
<path d="M240 288H288V336H240V288Z"/>
</mask>
<path d="M288 336V336.5H288.5V336H288ZM288 288H287.5V336H288H288.5V288H288ZM288 336V335.5H240V336V336.5H288V336Z" fill="#DFE4EB" mask="url(#path-253-inside-126_1007_17009)"/>
<mask id="path-255-inside-127_1007_17009" fill="white">
<path d="M288 288H336V336H288V288Z"/>
</mask>
<path d="M336 336V336.5H336.5V336H336ZM336 288H335.5V336H336H336.5V288H336ZM336 336V335.5H288V336V336.5H336V336Z" fill="#DFE4EB" mask="url(#path-255-inside-127_1007_17009)"/>
<mask id="path-257-inside-128_1007_17009" fill="white">
<path d="M336 288H384V336H336V288Z"/>
</mask>
<path d="M384 336V336.5H384.5V336H384ZM384 288H383.5V336H384H384.5V288H384ZM384 336V335.5H336V336V336.5H384V336Z" fill="#DFE4EB" mask="url(#path-257-inside-128_1007_17009)"/>
<mask id="path-259-inside-129_1007_17009" fill="white">
<path d="M384 288H432V336H384V288Z"/>
</mask>
<path d="M432 336V336.5H432.5V336H432ZM432 288H431.5V336H432H432.5V288H432ZM432 336V335.5H384V336V336.5H432V336Z" fill="#DFE4EB" mask="url(#path-259-inside-129_1007_17009)"/>
<mask id="path-261-inside-130_1007_17009" fill="white">
<path d="M432 288H480V336H432V288Z"/>
</mask>
<path d="M480 336V336.5H480.5V336H480ZM480 288H479.5V336H480H480.5V288H480ZM480 336V335.5H432V336V336.5H480V336Z" fill="#DFE4EB" mask="url(#path-261-inside-130_1007_17009)"/>
<mask id="path-263-inside-131_1007_17009" fill="white">
<path d="M480 288H528V336H480V288Z"/>
</mask>
<path d="M528 336V336.5H528.5V336H528ZM528 288H527.5V336H528H528.5V288H528ZM528 336V335.5H480V336V336.5H528V336Z" fill="#DFE4EB" mask="url(#path-263-inside-131_1007_17009)"/>
<mask id="path-265-inside-132_1007_17009" fill="white">
<path d="M528 288H576V336H528V288Z"/>
</mask>
<path d="M576 336V336.5H576.5V336H576ZM576 288H575.5V336H576H576.5V288H576ZM576 336V335.5H528V336V336.5H576V336Z" fill="#DFE4EB" mask="url(#path-265-inside-132_1007_17009)"/>
<mask id="path-267-inside-133_1007_17009" fill="white">
<path d="M576 288H624V336H576V288Z"/>
</mask>
<path d="M624 336V336.5H624.5V336H624ZM624 288H623.5V336H624H624.5V288H624ZM624 336V335.5H576V336V336.5H624V336Z" fill="#DFE4EB" mask="url(#path-267-inside-133_1007_17009)"/>
<mask id="path-269-inside-134_1007_17009" fill="white">
<path d="M624 288H672V336H624V288Z"/>
</mask>
<path d="M672 336V336.5H672.5V336H672ZM672 288H671.5V336H672H672.5V288H672ZM672 336V335.5H624V336V336.5H672V336Z" fill="#DFE4EB" mask="url(#path-269-inside-134_1007_17009)"/>
<mask id="path-271-inside-135_1007_17009" fill="white">
<path d="M672 288H720V336H672V288Z"/>
</mask>
<path d="M720 336V336.5H720.5V336H720ZM720 288H719.5V336H720H720.5V288H720ZM720 336V335.5H672V336V336.5H720V336Z" fill="#DFE4EB" mask="url(#path-271-inside-135_1007_17009)"/>
<mask id="path-273-inside-136_1007_17009" fill="white">
<path d="M720 288H768V336H720V288Z"/>
</mask>
<path d="M768 336V336.5H768.5V336H768ZM768 288H767.5V336H768H768.5V288H768ZM768 336V335.5H720V336V336.5H768V336Z" fill="#DFE4EB" mask="url(#path-273-inside-136_1007_17009)"/>
<mask id="path-275-inside-137_1007_17009" fill="white">
<path d="M768 288H816V336H768V288Z"/>
</mask>
<path d="M768 288H816V336H768V288Z" fill="#DFE4EB"/>
<path d="M816 336V336.5H816.5V336H816ZM816 288H815.5V336H816H816.5V288H816ZM816 336V335.5H768V336V336.5H816V336Z" fill="#DFE4EB" mask="url(#path-275-inside-137_1007_17009)"/>
<mask id="path-277-inside-138_1007_17009" fill="white">
<path d="M816 288H864V336H816V288Z"/>
</mask>
<path d="M864 336V336.5H864.5V336H864ZM864 288H863.5V336H864H864.5V288H864ZM864 336V335.5H816V336V336.5H864V336Z" fill="#DFE4EB" mask="url(#path-277-inside-138_1007_17009)"/>
<mask id="path-279-inside-139_1007_17009" fill="white">
<path d="M864 288H912V336H864V288Z"/>
</mask>
<path d="M912 336V336.5H912.5V336H912ZM912 288H911.5V336H912H912.5V288H912ZM912 336V335.5H864V336V336.5H912V336Z" fill="#DFE4EB" mask="url(#path-279-inside-139_1007_17009)"/>
<mask id="path-281-inside-140_1007_17009" fill="white">
<path d="M912 288H960V336H912V288Z"/>
</mask>
<path d="M960 336V336.5H960.5V336H960ZM960 288H959.5V336H960H960.5V288H960ZM960 336V335.5H912V336V336.5H960V336Z" fill="#DFE4EB" mask="url(#path-281-inside-140_1007_17009)"/>
<mask id="path-283-inside-141_1007_17009" fill="white">
<path d="M0 336H48V384H0V336Z"/>
</mask>
<path d="M48 384V384.5H48.5V384H48ZM48 336H47.5V384H48H48.5V336H48ZM48 384V383.5H0V384V384.5H48V384Z" fill="#DFE4EB" mask="url(#path-283-inside-141_1007_17009)"/>
<mask id="path-285-inside-142_1007_17009" fill="white">
<path d="M48 336H96V384H48V336Z"/>
</mask>
<path d="M96 384V384.5H96.5V384H96ZM96 336H95.5V384H96H96.5V336H96ZM96 384V383.5H48V384V384.5H96V384Z" fill="#DFE4EB" mask="url(#path-285-inside-142_1007_17009)"/>
<mask id="path-287-inside-143_1007_17009" fill="white">
<path d="M96 336H144V384H96V336Z"/>
</mask>
<path d="M144 384V384.5H144.5V384H144ZM144 336H143.5V384H144H144.5V336H144ZM144 384V383.5H96V384V384.5H144V384Z" fill="#DFE4EB" mask="url(#path-287-inside-143_1007_17009)"/>
<mask id="path-289-inside-144_1007_17009" fill="white">
<path d="M144 336H192V384H144V336Z"/>
</mask>
<path d="M192 384V384.5H192.5V384H192ZM192 336H191.5V384H192H192.5V336H192ZM192 384V383.5H144V384V384.5H192V384Z" fill="#DFE4EB" mask="url(#path-289-inside-144_1007_17009)"/>
<mask id="path-291-inside-145_1007_17009" fill="white">
<path d="M192 336H240V384H192V336Z"/>
</mask>
<path d="M240 384V384.5H240.5V384H240ZM240 336H239.5V384H240H240.5V336H240ZM240 384V383.5H192V384V384.5H240V384Z" fill="#DFE4EB" mask="url(#path-291-inside-145_1007_17009)"/>
<mask id="path-293-inside-146_1007_17009" fill="white">
<path d="M240 336H288V384H240V336Z"/>
</mask>
<path d="M288 384V384.5H288.5V384H288ZM288 336H287.5V384H288H288.5V336H288ZM288 384V383.5H240V384V384.5H288V384Z" fill="#DFE4EB" mask="url(#path-293-inside-146_1007_17009)"/>
<mask id="path-295-inside-147_1007_17009" fill="white">
<path d="M288 336H336V384H288V336Z"/>
</mask>
<path d="M336 384V384.5H336.5V384H336ZM336 336H335.5V384H336H336.5V336H336ZM336 384V383.5H288V384V384.5H336V384Z" fill="#DFE4EB" mask="url(#path-295-inside-147_1007_17009)"/>
<mask id="path-297-inside-148_1007_17009" fill="white">
<path d="M336 336H384V384H336V336Z"/>
</mask>
<path d="M384 384V384.5H384.5V384H384ZM384 336H383.5V384H384H384.5V336H384ZM384 384V383.5H336V384V384.5H384V384Z" fill="#DFE4EB" mask="url(#path-297-inside-148_1007_17009)"/>
<mask id="path-299-inside-149_1007_17009" fill="white">
<path d="M384 336H432V384H384V336Z"/>
</mask>
<path d="M384 336H432V384H384V336Z" fill="#F0F2F6"/>
<path d="M432 384V384.5H432.5V384H432ZM432 336H431.5V384H432H432.5V336H432ZM432 384V383.5H384V384V384.5H432V384Z" fill="#DFE4EB" mask="url(#path-299-inside-149_1007_17009)"/>
<mask id="path-301-inside-150_1007_17009" fill="white">
<path d="M432 336H480V384H432V336Z"/>
</mask>
<path d="M480 384V384.5H480.5V384H480ZM480 336H479.5V384H480H480.5V336H480ZM480 384V383.5H432V384V384.5H480V384Z" fill="#DFE4EB" mask="url(#path-301-inside-150_1007_17009)"/>
<mask id="path-303-inside-151_1007_17009" fill="white">
<path d="M480 336H528V384H480V336Z"/>
</mask>
<path d="M528 384V384.5H528.5V384H528ZM528 336H527.5V384H528H528.5V336H528ZM528 384V383.5H480V384V384.5H528V384Z" fill="#DFE4EB" mask="url(#path-303-inside-151_1007_17009)"/>
<mask id="path-305-inside-152_1007_17009" fill="white">
<path d="M528 336H576V384H528V336Z"/>
</mask>
<path d="M576 384V384.5H576.5V384H576ZM576 336H575.5V384H576H576.5V336H576ZM576 384V383.5H528V384V384.5H576V384Z" fill="#DFE4EB" mask="url(#path-305-inside-152_1007_17009)"/>
<mask id="path-307-inside-153_1007_17009" fill="white">
<path d="M576 336H624V384H576V336Z"/>
</mask>
<path d="M624 384V384.5H624.5V384H624ZM624 336H623.5V384H624H624.5V336H624ZM624 384V383.5H576V384V384.5H624V384Z" fill="#DFE4EB" mask="url(#path-307-inside-153_1007_17009)"/>
<mask id="path-309-inside-154_1007_17009" fill="white">
<path d="M624 336H672V384H624V336Z"/>
</mask>
<path d="M672 384V384.5H672.5V384H672ZM672 336H671.5V384H672H672.5V336H672ZM672 384V383.5H624V384V384.5H672V384Z" fill="#DFE4EB" mask="url(#path-309-inside-154_1007_17009)"/>
<mask id="path-311-inside-155_1007_17009" fill="white">
<path d="M672 336H720V384H672V336Z"/>
</mask>
<path d="M672 336H720V384H672V336Z" fill="#DFE4EB"/>
<path d="M720 384V384.5H720.5V384H720ZM720 336H719.5V384H720H720.5V336H720ZM720 384V383.5H672V384V384.5H720V384Z" fill="#DFE4EB" mask="url(#path-311-inside-155_1007_17009)"/>
<mask id="path-313-inside-156_1007_17009" fill="white">
<path d="M720 336H768V384H720V336Z"/>
</mask>
<path d="M768 384V384.5H768.5V384H768ZM768 336H767.5V384H768H768.5V336H768ZM768 384V383.5H720V384V384.5H768V384Z" fill="#DFE4EB" mask="url(#path-313-inside-156_1007_17009)"/>
<mask id="path-315-inside-157_1007_17009" fill="white">
<path d="M768 336H816V384H768V336Z"/>
</mask>
<path d="M816 384V384.5H816.5V384H816ZM816 336H815.5V384H816H816.5V336H816ZM816 384V383.5H768V384V384.5H816V384Z" fill="#DFE4EB" mask="url(#path-315-inside-157_1007_17009)"/>
<mask id="path-317-inside-158_1007_17009" fill="white">
<path d="M816 336H864V384H816V336Z"/>
</mask>
<path d="M864 384V384.5H864.5V384H864ZM864 336H863.5V384H864H864.5V336H864ZM864 384V383.5H816V384V384.5H864V384Z" fill="#DFE4EB" mask="url(#path-317-inside-158_1007_17009)"/>
<mask id="path-319-inside-159_1007_17009" fill="white">
<path d="M864 336H912V384H864V336Z"/>
</mask>
<path d="M912 384V384.5H912.5V384H912ZM912 336H911.5V384H912H912.5V336H912ZM912 384V383.5H864V384V384.5H912V384Z" fill="#DFE4EB" mask="url(#path-319-inside-159_1007_17009)"/>
<mask id="path-321-inside-160_1007_17009" fill="white">
<path d="M912 336H960V384H912V336Z"/>
</mask>
<path d="M960 384V384.5H960.5V384H960ZM960 336H959.5V384H960H960.5V336H960ZM960 384V383.5H912V384V384.5H960V384Z" fill="#DFE4EB" mask="url(#path-321-inside-160_1007_17009)"/>
<mask id="path-323-inside-161_1007_17009" fill="white">
<path d="M0 384H48V432H0V384Z"/>
</mask>
<path d="M48 432V432.5H48.5V432H48ZM48 384H47.5V432H48H48.5V384H48ZM48 432V431.5H0V432V432.5H48V432Z" fill="#DFE4EB" mask="url(#path-323-inside-161_1007_17009)"/>
<mask id="path-325-inside-162_1007_17009" fill="white">
<path d="M48 384H96V432H48V384Z"/>
</mask>
<path d="M96 432V432.5H96.5V432H96ZM96 384H95.5V432H96H96.5V384H96ZM96 432V431.5H48V432V432.5H96V432Z" fill="#DFE4EB" mask="url(#path-325-inside-162_1007_17009)"/>
<mask id="path-327-inside-163_1007_17009" fill="white">
<path d="M96 384H144V432H96V384Z"/>
</mask>
<path d="M144 432V432.5H144.5V432H144ZM144 384H143.5V432H144H144.5V384H144ZM144 432V431.5H96V432V432.5H144V432Z" fill="#DFE4EB" mask="url(#path-327-inside-163_1007_17009)"/>
<mask id="path-329-inside-164_1007_17009" fill="white">
<path d="M144 384H192V432H144V384Z"/>
</mask>
<path d="M192 432V432.5H192.5V432H192ZM192 384H191.5V432H192H192.5V384H192ZM192 432V431.5H144V432V432.5H192V432Z" fill="#DFE4EB" mask="url(#path-329-inside-164_1007_17009)"/>
<mask id="path-331-inside-165_1007_17009" fill="white">
<path d="M192 384H240V432H192V384Z"/>
</mask>
<path d="M240 432V432.5H240.5V432H240ZM240 384H239.5V432H240H240.5V384H240ZM240 432V431.5H192V432V432.5H240V432Z" fill="#DFE4EB" mask="url(#path-331-inside-165_1007_17009)"/>
<mask id="path-333-inside-166_1007_17009" fill="white">
<path d="M240 384H288V432H240V384Z"/>
</mask>
<path d="M240 384H288V432H240V384Z" fill="#DFE4EB"/>
<path d="M288 432V432.5H288.5V432H288ZM288 384H287.5V432H288H288.5V384H288ZM288 432V431.5H240V432V432.5H288V432Z" fill="#DFE4EB" mask="url(#path-333-inside-166_1007_17009)"/>
<mask id="path-335-inside-167_1007_17009" fill="white">
<path d="M288 384H336V432H288V384Z"/>
</mask>
<path d="M336 432V432.5H336.5V432H336ZM336 384H335.5V432H336H336.5V384H336ZM336 432V431.5H288V432V432.5H336V432Z" fill="#DFE4EB" mask="url(#path-335-inside-167_1007_17009)"/>
<mask id="path-337-inside-168_1007_17009" fill="white">
<path d="M336 384H384V432H336V384Z"/>
</mask>
<path d="M384 432V432.5H384.5V432H384ZM384 384H383.5V432H384H384.5V384H384ZM384 432V431.5H336V432V432.5H384V432Z" fill="#DFE4EB" mask="url(#path-337-inside-168_1007_17009)"/>
<mask id="path-339-inside-169_1007_17009" fill="white">
<path d="M384 384H432V432H384V384Z"/>
</mask>
<path d="M432 432V432.5H432.5V432H432ZM432 384H431.5V432H432H432.5V384H432ZM432 432V431.5H384V432V432.5H432V432Z" fill="#DFE4EB" mask="url(#path-339-inside-169_1007_17009)"/>
<mask id="path-341-inside-170_1007_17009" fill="white">
<path d="M432 384H480V432H432V384Z"/>
</mask>
<path d="M480 432V432.5H480.5V432H480ZM480 384H479.5V432H480H480.5V384H480ZM480 432V431.5H432V432V432.5H480V432Z" fill="#DFE4EB" mask="url(#path-341-inside-170_1007_17009)"/>
<mask id="path-343-inside-171_1007_17009" fill="white">
<path d="M480 384H528V432H480V384Z"/>
</mask>
<path d="M528 432V432.5H528.5V432H528ZM528 384H527.5V432H528H528.5V384H528ZM528 432V431.5H480V432V432.5H528V432Z" fill="#DFE4EB" mask="url(#path-343-inside-171_1007_17009)"/>
<mask id="path-345-inside-172_1007_17009" fill="white">
<path d="M528 384H576V432H528V384Z"/>
</mask>
<path d="M528 384H576V432H528V384Z" fill="#F0F2F6"/>
<path d="M576 432V432.5H576.5V432H576ZM576 384H575.5V432H576H576.5V384H576ZM576 432V431.5H528V432V432.5H576V432Z" fill="#DFE4EB" mask="url(#path-345-inside-172_1007_17009)"/>
<mask id="path-347-inside-173_1007_17009" fill="white">
<path d="M576 384H624V432H576V384Z"/>
</mask>
<path d="M624 432V432.5H624.5V432H624ZM624 384H623.5V432H624H624.5V384H624ZM624 432V431.5H576V432V432.5H624V432Z" fill="#DFE4EB" mask="url(#path-347-inside-173_1007_17009)"/>
<mask id="path-349-inside-174_1007_17009" fill="white">
<path d="M624 384H672V432H624V384Z"/>
</mask>
<path d="M672 432V432.5H672.5V432H672ZM672 384H671.5V432H672H672.5V384H672ZM672 432V431.5H624V432V432.5H672V432Z" fill="#DFE4EB" mask="url(#path-349-inside-174_1007_17009)"/>
<mask id="path-351-inside-175_1007_17009" fill="white">
<path d="M672 384H720V432H672V384Z"/>
</mask>
<path d="M720 432V432.5H720.5V432H720ZM720 384H719.5V432H720H720.5V384H720ZM720 432V431.5H672V432V432.5H720V432Z" fill="#DFE4EB" mask="url(#path-351-inside-175_1007_17009)"/>
<mask id="path-353-inside-176_1007_17009" fill="white">
<path d="M720 384H768V432H720V384Z"/>
</mask>
<path d="M768 432V432.5H768.5V432H768ZM768 384H767.5V432H768H768.5V384H768ZM768 432V431.5H720V432V432.5H768V432Z" fill="#DFE4EB" mask="url(#path-353-inside-176_1007_17009)"/>
<mask id="path-355-inside-177_1007_17009" fill="white">
<path d="M768 384H816V432H768V384Z"/>
</mask>
<path d="M816 432V432.5H816.5V432H816ZM816 384H815.5V432H816H816.5V384H816ZM816 432V431.5H768V432V432.5H816V432Z" fill="#DFE4EB" mask="url(#path-355-inside-177_1007_17009)"/>
<mask id="path-357-inside-178_1007_17009" fill="white">
<path d="M816 384H864V432H816V384Z"/>
</mask>
<path d="M864 432V432.5H864.5V432H864ZM864 384H863.5V432H864H864.5V384H864ZM864 432V431.5H816V432V432.5H864V432Z" fill="#DFE4EB" mask="url(#path-357-inside-178_1007_17009)"/>
<mask id="path-359-inside-179_1007_17009" fill="white">
<path d="M864 384H912V432H864V384Z"/>
</mask>
<path d="M912 432V432.5H912.5V432H912ZM912 384H911.5V432H912H912.5V384H912ZM912 432V431.5H864V432V432.5H912V432Z" fill="#DFE4EB" mask="url(#path-359-inside-179_1007_17009)"/>
<mask id="path-361-inside-180_1007_17009" fill="white">
<path d="M912 384H960V432H912V384Z"/>
</mask>
<path d="M960 432V432.5H960.5V432H960ZM960 384H959.5V432H960H960.5V384H960ZM960 432V431.5H912V432V432.5H960V432Z" fill="#DFE4EB" mask="url(#path-361-inside-180_1007_17009)"/>
<mask id="path-363-inside-181_1007_17009" fill="white">
<path d="M0 432H48V480H0V432Z"/>
</mask>
<path d="M48 480V480.5H48.5V480H48ZM48 432H47.5V480H48H48.5V432H48ZM48 480V479.5H0V480V480.5H48V480Z" fill="#DFE4EB" mask="url(#path-363-inside-181_1007_17009)"/>
<mask id="path-365-inside-182_1007_17009" fill="white">
<path d="M48 432H96V480H48V432Z"/>
</mask>
<path d="M48 432H96V480H48V432Z" fill="#DFE4EB"/>
<path d="M96 480V480.5H96.5V480H96ZM96 432H95.5V480H96H96.5V432H96ZM96 480V479.5H48V480V480.5H96V480Z" fill="#DFE4EB" mask="url(#path-365-inside-182_1007_17009)"/>
<mask id="path-367-inside-183_1007_17009" fill="white">
<path d="M96 432H144V480H96V432Z"/>
</mask>
<path d="M144 480V480.5H144.5V480H144ZM144 432H143.5V480H144H144.5V432H144ZM144 480V479.5H96V480V480.5H144V480Z" fill="#DFE4EB" mask="url(#path-367-inside-183_1007_17009)"/>
<mask id="path-369-inside-184_1007_17009" fill="white">
<path d="M144 432H192V480H144V432Z"/>
</mask>
<path d="M192 480V480.5H192.5V480H192ZM192 432H191.5V480H192H192.5V432H192ZM192 480V479.5H144V480V480.5H192V480Z" fill="#DFE4EB" mask="url(#path-369-inside-184_1007_17009)"/>
<mask id="path-371-inside-185_1007_17009" fill="white">
<path d="M192 432H240V480H192V432Z"/>
</mask>
<path d="M240 480V480.5H240.5V480H240ZM240 432H239.5V480H240H240.5V432H240ZM240 480V479.5H192V480V480.5H240V480Z" fill="#DFE4EB" mask="url(#path-371-inside-185_1007_17009)"/>
<mask id="path-373-inside-186_1007_17009" fill="white">
<path d="M240 432H288V480H240V432Z"/>
</mask>
<path d="M288 480V480.5H288.5V480H288ZM288 432H287.5V480H288H288.5V432H288ZM288 480V479.5H240V480V480.5H288V480Z" fill="#DFE4EB" mask="url(#path-373-inside-186_1007_17009)"/>
<mask id="path-375-inside-187_1007_17009" fill="white">
<path d="M288 432H336V480H288V432Z"/>
</mask>
<path d="M336 480V480.5H336.5V480H336ZM336 432H335.5V480H336H336.5V432H336ZM336 480V479.5H288V480V480.5H336V480Z" fill="#DFE4EB" mask="url(#path-375-inside-187_1007_17009)"/>
<mask id="path-377-inside-188_1007_17009" fill="white">
<path d="M336 432H384V480H336V432Z"/>
</mask>
<path d="M384 480V480.5H384.5V480H384ZM384 432H383.5V480H384H384.5V432H384ZM384 480V479.5H336V480V480.5H384V480Z" fill="#DFE4EB" mask="url(#path-377-inside-188_1007_17009)"/>
<mask id="path-379-inside-189_1007_17009" fill="white">
<path d="M384 432H432V480H384V432Z"/>
</mask>
<path d="M432 480V480.5H432.5V480H432ZM432 432H431.5V480H432H432.5V432H432ZM432 480V479.5H384V480V480.5H432V480Z" fill="#DFE4EB" mask="url(#path-379-inside-189_1007_17009)"/>
<mask id="path-381-inside-190_1007_17009" fill="white">
<path d="M432 432H480V480H432V432Z"/>
</mask>
<path d="M480 480V480.5H480.5V480H480ZM480 432H479.5V480H480H480.5V432H480ZM480 480V479.5H432V480V480.5H480V480Z" fill="#DFE4EB" mask="url(#path-381-inside-190_1007_17009)"/>
<mask id="path-383-inside-191_1007_17009" fill="white">
<path d="M480 432H528V480H480V432Z"/>
</mask>
<path d="M528 480V480.5H528.5V480H528ZM528 432H527.5V480H528H528.5V432H528ZM528 480V479.5H480V480V480.5H528V480Z" fill="#DFE4EB" mask="url(#path-383-inside-191_1007_17009)"/>
<mask id="path-385-inside-192_1007_17009" fill="white">
<path d="M528 432H576V480H528V432Z"/>
</mask>
<path d="M576 480V480.5H576.5V480H576ZM576 432H575.5V480H576H576.5V432H576ZM576 480V479.5H528V480V480.5H576V480Z" fill="#DFE4EB" mask="url(#path-385-inside-192_1007_17009)"/>
<mask id="path-387-inside-193_1007_17009" fill="white">
<path d="M576 432H624V480H576V432Z"/>
</mask>
<path d="M624 480V480.5H624.5V480H624ZM624 432H623.5V480H624H624.5V432H624ZM624 480V479.5H576V480V480.5H624V480Z" fill="#DFE4EB" mask="url(#path-387-inside-193_1007_17009)"/>
<mask id="path-389-inside-194_1007_17009" fill="white">
<path d="M624 432H672V480H624V432Z"/>
</mask>
<path d="M672 480V480.5H672.5V480H672ZM672 432H671.5V480H672H672.5V432H672ZM672 480V479.5H624V480V480.5H672V480Z" fill="#DFE4EB" mask="url(#path-389-inside-194_1007_17009)"/>
<mask id="path-391-inside-195_1007_17009" fill="white">
<path d="M672 432H720V480H672V432Z"/>
</mask>
<path d="M720 480V480.5H720.5V480H720ZM720 432H719.5V480H720H720.5V432H720ZM720 480V479.5H672V480V480.5H720V480Z" fill="#DFE4EB" mask="url(#path-391-inside-195_1007_17009)"/>
<mask id="path-393-inside-196_1007_17009" fill="white">
<path d="M720 432H768V480H720V432Z"/>
</mask>
<path d="M768 480V480.5H768.5V480H768ZM768 432H767.5V480H768H768.5V432H768ZM768 480V479.5H720V480V480.5H768V480Z" fill="#DFE4EB" mask="url(#path-393-inside-196_1007_17009)"/>
<mask id="path-395-inside-197_1007_17009" fill="white">
<path d="M768 432H816V480H768V432Z"/>
</mask>
<path d="M816 480V480.5H816.5V480H816ZM816 432H815.5V480H816H816.5V432H816ZM816 480V479.5H768V480V480.5H816V480Z" fill="#DFE4EB" mask="url(#path-395-inside-197_1007_17009)"/>
<mask id="path-397-inside-198_1007_17009" fill="white">
<path d="M816 432H864V480H816V432Z"/>
</mask>
<path d="M816 432H864V480H816V432Z" fill="#DFE4EB"/>
<path d="M864 480V480.5H864.5V480H864ZM864 432H863.5V480H864H864.5V432H864ZM864 480V479.5H816V480V480.5H864V480Z" fill="#DFE4EB" mask="url(#path-397-inside-198_1007_17009)"/>
<mask id="path-399-inside-199_1007_17009" fill="white">
<path d="M864 432H912V480H864V432Z"/>
</mask>
<path d="M912 480V480.5H912.5V480H912ZM912 432H911.5V480H912H912.5V432H912ZM912 480V479.5H864V480V480.5H912V480Z" fill="#DFE4EB" mask="url(#path-399-inside-199_1007_17009)"/>
<mask id="path-401-inside-200_1007_17009" fill="white">
<path d="M912 432H960V480H912V432Z"/>
</mask>
<path d="M960 480V480.5H960.5V480H960ZM960 432H959.5V480H960H960.5V432H960ZM960 480V479.5H912V480V480.5H960V480Z" fill="#DFE4EB" mask="url(#path-401-inside-200_1007_17009)"/>
<mask id="path-403-inside-201_1007_17009" fill="white">
<path d="M0 480H48V528H0V480Z"/>
</mask>
<path d="M48 528V528.5H48.5V528H48ZM48 480H47.5V528H48H48.5V480H48ZM48 528V527.5H0V528V528.5H48V528Z" fill="#DFE4EB" mask="url(#path-403-inside-201_1007_17009)"/>
<mask id="path-405-inside-202_1007_17009" fill="white">
<path d="M48 480H96V528H48V480Z"/>
</mask>
<path d="M96 528V528.5H96.5V528H96ZM96 480H95.5V528H96H96.5V480H96ZM96 528V527.5H48V528V528.5H96V528Z" fill="#DFE4EB" mask="url(#path-405-inside-202_1007_17009)"/>
<mask id="path-407-inside-203_1007_17009" fill="white">
<path d="M96 480H144V528H96V480Z"/>
</mask>
<path d="M144 528V528.5H144.5V528H144ZM144 480H143.5V528H144H144.5V480H144ZM144 528V527.5H96V528V528.5H144V528Z" fill="#DFE4EB" mask="url(#path-407-inside-203_1007_17009)"/>
<mask id="path-409-inside-204_1007_17009" fill="white">
<path d="M144 480H192V528H144V480Z"/>
</mask>
<path d="M192 528V528.5H192.5V528H192ZM192 480H191.5V528H192H192.5V480H192ZM192 528V527.5H144V528V528.5H192V528Z" fill="#DFE4EB" mask="url(#path-409-inside-204_1007_17009)"/>
<mask id="path-411-inside-205_1007_17009" fill="white">
<path d="M192 480H240V528H192V480Z"/>
</mask>
<path d="M240 528V528.5H240.5V528H240ZM240 480H239.5V528H240H240.5V480H240ZM240 528V527.5H192V528V528.5H240V528Z" fill="#DFE4EB" mask="url(#path-411-inside-205_1007_17009)"/>
<mask id="path-413-inside-206_1007_17009" fill="white">
<path d="M240 480H288V528H240V480Z"/>
</mask>
<path d="M288 528V528.5H288.5V528H288ZM288 480H287.5V528H288H288.5V480H288ZM288 528V527.5H240V528V528.5H288V528Z" fill="#DFE4EB" mask="url(#path-413-inside-206_1007_17009)"/>
<mask id="path-415-inside-207_1007_17009" fill="white">
<path d="M288 480H336V528H288V480Z"/>
</mask>
<path d="M288 480H336V528H288V480Z" fill="#DFE4EB"/>
<path d="M336 528V528.5H336.5V528H336ZM336 480H335.5V528H336H336.5V480H336ZM336 528V527.5H288V528V528.5H336V528Z" fill="#DFE4EB" mask="url(#path-415-inside-207_1007_17009)"/>
<mask id="path-417-inside-208_1007_17009" fill="white">
<path d="M336 480H384V528H336V480Z"/>
</mask>
<path d="M384 528V528.5H384.5V528H384ZM384 480H383.5V528H384H384.5V480H384ZM384 528V527.5H336V528V528.5H384V528Z" fill="#DFE4EB" mask="url(#path-417-inside-208_1007_17009)"/>
<mask id="path-419-inside-209_1007_17009" fill="white">
<path d="M384 480H432V528H384V480Z"/>
</mask>
<path d="M432 528V528.5H432.5V528H432ZM432 480H431.5V528H432H432.5V480H432ZM432 528V527.5H384V528V528.5H432V528Z" fill="#DFE4EB" mask="url(#path-419-inside-209_1007_17009)"/>
<mask id="path-421-inside-210_1007_17009" fill="white">
<path d="M432 480H480V528H432V480Z"/>
</mask>
<path d="M480 528V528.5H480.5V528H480ZM480 480H479.5V528H480H480.5V480H480ZM480 528V527.5H432V528V528.5H480V528Z" fill="#DFE4EB" mask="url(#path-421-inside-210_1007_17009)"/>
<mask id="path-423-inside-211_1007_17009" fill="white">
<path d="M480 480H528V528H480V480Z"/>
</mask>
<path d="M480 480H528V528H480V480Z" fill="#DFE4EB"/>
<path d="M528 528V528.5H528.5V528H528ZM528 480H527.5V528H528H528.5V480H528ZM528 528V527.5H480V528V528.5H528V528Z" fill="#DFE4EB" mask="url(#path-423-inside-211_1007_17009)"/>
<mask id="path-425-inside-212_1007_17009" fill="white">
<path d="M528 480H576V528H528V480Z"/>
</mask>
<path d="M576 528V528.5H576.5V528H576ZM576 480H575.5V528H576H576.5V480H576ZM576 528V527.5H528V528V528.5H576V528Z" fill="#DFE4EB" mask="url(#path-425-inside-212_1007_17009)"/>
<mask id="path-427-inside-213_1007_17009" fill="white">
<path d="M576 480H624V528H576V480Z"/>
</mask>
<path d="M624 528V528.5H624.5V528H624ZM624 480H623.5V528H624H624.5V480H624ZM624 528V527.5H576V528V528.5H624V528Z" fill="#DFE4EB" mask="url(#path-427-inside-213_1007_17009)"/>
<mask id="path-429-inside-214_1007_17009" fill="white">
<path d="M624 480H672V528H624V480Z"/>
</mask>
<path d="M672 528V528.5H672.5V528H672ZM672 480H671.5V528H672H672.5V480H672ZM672 528V527.5H624V528V528.5H672V528Z" fill="#DFE4EB" mask="url(#path-429-inside-214_1007_17009)"/>
<mask id="path-431-inside-215_1007_17009" fill="white">
<path d="M672 480H720V528H672V480Z"/>
</mask>
<path d="M720 528V528.5H720.5V528H720ZM720 480H719.5V528H720H720.5V480H720ZM720 528V527.5H672V528V528.5H720V528Z" fill="#DFE4EB" mask="url(#path-431-inside-215_1007_17009)"/>
<mask id="path-433-inside-216_1007_17009" fill="white">
<path d="M720 480H768V528H720V480Z"/>
</mask>
<path d="M768 528V528.5H768.5V528H768ZM768 480H767.5V528H768H768.5V480H768ZM768 528V527.5H720V528V528.5H768V528Z" fill="#DFE4EB" mask="url(#path-433-inside-216_1007_17009)"/>
<mask id="path-435-inside-217_1007_17009" fill="white">
<path d="M768 480H816V528H768V480Z"/>
</mask>
<path d="M816 528V528.5H816.5V528H816ZM816 480H815.5V528H816H816.5V480H816ZM816 528V527.5H768V528V528.5H816V528Z" fill="#DFE4EB" mask="url(#path-435-inside-217_1007_17009)"/>
<mask id="path-437-inside-218_1007_17009" fill="white">
<path d="M816 480H864V528H816V480Z"/>
</mask>
<path d="M864 528V528.5H864.5V528H864ZM864 480H863.5V528H864H864.5V480H864ZM864 528V527.5H816V528V528.5H864V528Z" fill="#DFE4EB" mask="url(#path-437-inside-218_1007_17009)"/>
<mask id="path-439-inside-219_1007_17009" fill="white">
<path d="M864 480H912V528H864V480Z"/>
</mask>
<path d="M912 528V528.5H912.5V528H912ZM912 480H911.5V528H912H912.5V480H912ZM912 528V527.5H864V528V528.5H912V528Z" fill="#DFE4EB" mask="url(#path-439-inside-219_1007_17009)"/>
<mask id="path-441-inside-220_1007_17009" fill="white">
<path d="M912 480H960V528H912V480Z"/>
</mask>
<path d="M960 528V528.5H960.5V528H960ZM960 480H959.5V528H960H960.5V480H960ZM960 528V527.5H912V528V528.5H960V528Z" fill="#DFE4EB" mask="url(#path-441-inside-220_1007_17009)"/>
<mask id="path-443-inside-221_1007_17009" fill="white">
<path d="M0 528H48V576H0V528Z"/>
</mask>
<path d="M48 576V576.5H48.5V576H48ZM48 528H47.5V576H48H48.5V528H48ZM48 576V575.5H0V576V576.5H48V576Z" fill="#DFE4EB" mask="url(#path-443-inside-221_1007_17009)"/>
<mask id="path-445-inside-222_1007_17009" fill="white">
<path d="M48 528H96V576H48V528Z"/>
</mask>
<path d="M96 576V576.5H96.5V576H96ZM96 528H95.5V576H96H96.5V528H96ZM96 576V575.5H48V576V576.5H96V576Z" fill="#DFE4EB" mask="url(#path-445-inside-222_1007_17009)"/>
<mask id="path-447-inside-223_1007_17009" fill="white">
<path d="M96 528H144V576H96V528Z"/>
</mask>
<path d="M96 528H144V576H96V528Z" fill="#DFE4EB"/>
<path d="M144 576V576.5H144.5V576H144ZM144 528H143.5V576H144H144.5V528H144ZM144 576V575.5H96V576V576.5H144V576Z" fill="#DFE4EB" mask="url(#path-447-inside-223_1007_17009)"/>
<mask id="path-449-inside-224_1007_17009" fill="white">
<path d="M144 528H192V576H144V528Z"/>
</mask>
<path d="M192 576V576.5H192.5V576H192ZM192 528H191.5V576H192H192.5V528H192ZM192 576V575.5H144V576V576.5H192V576Z" fill="#DFE4EB" mask="url(#path-449-inside-224_1007_17009)"/>
<mask id="path-451-inside-225_1007_17009" fill="white">
<path d="M192 528H240V576H192V528Z"/>
</mask>
<path d="M240 576V576.5H240.5V576H240ZM240 528H239.5V576H240H240.5V528H240ZM240 576V575.5H192V576V576.5H240V576Z" fill="#DFE4EB" mask="url(#path-451-inside-225_1007_17009)"/>
<mask id="path-453-inside-226_1007_17009" fill="white">
<path d="M240 528H288V576H240V528Z"/>
</mask>
<path d="M288 576V576.5H288.5V576H288ZM288 528H287.5V576H288H288.5V528H288ZM288 576V575.5H240V576V576.5H288V576Z" fill="#DFE4EB" mask="url(#path-453-inside-226_1007_17009)"/>
<mask id="path-455-inside-227_1007_17009" fill="white">
<path d="M288 528H336V576H288V528Z"/>
</mask>
<path d="M336 576V576.5H336.5V576H336ZM336 528H335.5V576H336H336.5V528H336ZM336 576V575.5H288V576V576.5H336V576Z" fill="#DFE4EB" mask="url(#path-455-inside-227_1007_17009)"/>
<mask id="path-457-inside-228_1007_17009" fill="white">
<path d="M336 528H384V576H336V528Z"/>
</mask>
<path d="M384 576V576.5H384.5V576H384ZM384 528H383.5V576H384H384.5V528H384ZM384 576V575.5H336V576V576.5H384V576Z" fill="#DFE4EB" mask="url(#path-457-inside-228_1007_17009)"/>
<mask id="path-459-inside-229_1007_17009" fill="white">
<path d="M384 528H432V576H384V528Z"/>
</mask>
<path d="M432 576V576.5H432.5V576H432ZM432 528H431.5V576H432H432.5V528H432ZM432 576V575.5H384V576V576.5H432V576Z" fill="#DFE4EB" mask="url(#path-459-inside-229_1007_17009)"/>
<mask id="path-461-inside-230_1007_17009" fill="white">
<path d="M432 528H480V576H432V528Z"/>
</mask>
<path d="M480 576V576.5H480.5V576H480ZM480 528H479.5V576H480H480.5V528H480ZM480 576V575.5H432V576V576.5H480V576Z" fill="#DFE4EB" mask="url(#path-461-inside-230_1007_17009)"/>
<mask id="path-463-inside-231_1007_17009" fill="white">
<path d="M480 528H528V576H480V528Z"/>
</mask>
<path d="M528 576V576.5H528.5V576H528ZM528 528H527.5V576H528H528.5V528H528ZM528 576V575.5H480V576V576.5H528V576Z" fill="#DFE4EB" mask="url(#path-463-inside-231_1007_17009)"/>
<mask id="path-465-inside-232_1007_17009" fill="white">
<path d="M528 528H576V576H528V528Z"/>
</mask>
<path d="M576 576V576.5H576.5V576H576ZM576 528H575.5V576H576H576.5V528H576ZM576 576V575.5H528V576V576.5H576V576Z" fill="#DFE4EB" mask="url(#path-465-inside-232_1007_17009)"/>
<mask id="path-467-inside-233_1007_17009" fill="white">
<path d="M576 528H624V576H576V528Z"/>
</mask>
<path d="M624 576V576.5H624.5V576H624ZM624 528H623.5V576H624H624.5V528H624ZM624 576V575.5H576V576V576.5H624V576Z" fill="#DFE4EB" mask="url(#path-467-inside-233_1007_17009)"/>
<mask id="path-469-inside-234_1007_17009" fill="white">
<path d="M624 528H672V576H624V528Z"/>
</mask>
<path d="M672 576V576.5H672.5V576H672ZM672 528H671.5V576H672H672.5V528H672ZM672 576V575.5H624V576V576.5H672V576Z" fill="#DFE4EB" mask="url(#path-469-inside-234_1007_17009)"/>
<mask id="path-471-inside-235_1007_17009" fill="white">
<path d="M672 528H720V576H672V528Z"/>
</mask>
<path d="M672 528H720V576H672V528Z" fill="#DFE4EB"/>
<path d="M720 576V576.5H720.5V576H720ZM720 528H719.5V576H720H720.5V528H720ZM720 576V575.5H672V576V576.5H720V576Z" fill="#DFE4EB" mask="url(#path-471-inside-235_1007_17009)"/>
<mask id="path-473-inside-236_1007_17009" fill="white">
<path d="M720 528H768V576H720V528Z"/>
</mask>
<path d="M768 576V576.5H768.5V576H768ZM768 528H767.5V576H768H768.5V528H768ZM768 576V575.5H720V576V576.5H768V576Z" fill="#DFE4EB" mask="url(#path-473-inside-236_1007_17009)"/>
<mask id="path-475-inside-237_1007_17009" fill="white">
<path d="M768 528H816V576H768V528Z"/>
</mask>
<path d="M816 576V576.5H816.5V576H816ZM816 528H815.5V576H816H816.5V528H816ZM816 576V575.5H768V576V576.5H816V576Z" fill="#DFE4EB" mask="url(#path-475-inside-237_1007_17009)"/>
<mask id="path-477-inside-238_1007_17009" fill="white">
<path d="M816 528H864V576H816V528Z"/>
</mask>
<path d="M864 576V576.5H864.5V576H864ZM864 528H863.5V576H864H864.5V528H864ZM864 576V575.5H816V576V576.5H864V576Z" fill="#DFE4EB" mask="url(#path-477-inside-238_1007_17009)"/>
<mask id="path-479-inside-239_1007_17009" fill="white">
<path d="M864 528H912V576H864V528Z"/>
</mask>
<path d="M912 576V576.5H912.5V576H912ZM912 528H911.5V576H912H912.5V528H912ZM912 576V575.5H864V576V576.5H912V576Z" fill="#DFE4EB" mask="url(#path-479-inside-239_1007_17009)"/>
<mask id="path-481-inside-240_1007_17009" fill="white">
<path d="M912 528H960V576H912V528Z"/>
</mask>
<path d="M960 576V576.5H960.5V576H960ZM960 528H959.5V576H960H960.5V528H960ZM960 576V575.5H912V576V576.5H960V576Z" fill="#DFE4EB" mask="url(#path-481-inside-240_1007_17009)"/>
<mask id="path-483-inside-241_1007_17009" fill="white">
<path d="M0 576H48V624H0V576Z"/>
</mask>
<path d="M48 624V624.5H48.5V624H48ZM48 576H47.5V624H48H48.5V576H48ZM48 624V623.5H0V624V624.5H48V624Z" fill="#DFE4EB" mask="url(#path-483-inside-241_1007_17009)"/>
<mask id="path-485-inside-242_1007_17009" fill="white">
<path d="M48 576H96V624H48V576Z"/>
</mask>
<path d="M96 624V624.5H96.5V624H96ZM96 576H95.5V624H96H96.5V576H96ZM96 624V623.5H48V624V624.5H96V624Z" fill="#DFE4EB" mask="url(#path-485-inside-242_1007_17009)"/>
<mask id="path-487-inside-243_1007_17009" fill="white">
<path d="M96 576H144V624H96V576Z"/>
</mask>
<path d="M144 624V624.5H144.5V624H144ZM144 576H143.5V624H144H144.5V576H144ZM144 624V623.5H96V624V624.5H144V624Z" fill="#DFE4EB" mask="url(#path-487-inside-243_1007_17009)"/>
<mask id="path-489-inside-244_1007_17009" fill="white">
<path d="M144 576H192V624H144V576Z"/>
</mask>
<path d="M192 624V624.5H192.5V624H192ZM192 576H191.5V624H192H192.5V576H192ZM192 624V623.5H144V624V624.5H192V624Z" fill="#DFE4EB" mask="url(#path-489-inside-244_1007_17009)"/>
<mask id="path-491-inside-245_1007_17009" fill="white">
<path d="M192 576H240V624H192V576Z"/>
</mask>
<path d="M240 624V624.5H240.5V624H240ZM240 576H239.5V624H240H240.5V576H240ZM240 624V623.5H192V624V624.5H240V624Z" fill="#DFE4EB" mask="url(#path-491-inside-245_1007_17009)"/>
<mask id="path-493-inside-246_1007_17009" fill="white">
<path d="M240 576H288V624H240V576Z"/>
</mask>
<path d="M288 624V624.5H288.5V624H288ZM288 576H287.5V624H288H288.5V576H288ZM288 624V623.5H240V624V624.5H288V624Z" fill="#DFE4EB" mask="url(#path-493-inside-246_1007_17009)"/>
<mask id="path-495-inside-247_1007_17009" fill="white">
<path d="M288 576H336V624H288V576Z"/>
</mask>
<path d="M336 624V624.5H336.5V624H336ZM336 576H335.5V624H336H336.5V576H336ZM336 624V623.5H288V624V624.5H336V624Z" fill="#DFE4EB" mask="url(#path-495-inside-247_1007_17009)"/>
<mask id="path-497-inside-248_1007_17009" fill="white">
<path d="M336 576H384V624H336V576Z"/>
</mask>
<path d="M384 624V624.5H384.5V624H384ZM384 576H383.5V624H384H384.5V576H384ZM384 624V623.5H336V624V624.5H384V624Z" fill="#DFE4EB" mask="url(#path-497-inside-248_1007_17009)"/>
<mask id="path-499-inside-249_1007_17009" fill="white">
<path d="M384 576H432V624H384V576Z"/>
</mask>
<path d="M384 576H432V624H384V576Z" fill="#DFE4EB"/>
<path d="M432 624V624.5H432.5V624H432ZM432 576H431.5V624H432H432.5V576H432ZM432 624V623.5H384V624V624.5H432V624Z" fill="#DFE4EB" mask="url(#path-499-inside-249_1007_17009)"/>
<mask id="path-501-inside-250_1007_17009" fill="white">
<path d="M432 576H480V624H432V576Z"/>
</mask>
<path d="M480 624V624.5H480.5V624H480ZM480 576H479.5V624H480H480.5V576H480ZM480 624V623.5H432V624V624.5H480V624Z" fill="#DFE4EB" mask="url(#path-501-inside-250_1007_17009)"/>
<mask id="path-503-inside-251_1007_17009" fill="white">
<path d="M480 576H528V624H480V576Z"/>
</mask>
<path d="M528 624V624.5H528.5V624H528ZM528 576H527.5V624H528H528.5V576H528ZM528 624V623.5H480V624V624.5H528V624Z" fill="#DFE4EB" mask="url(#path-503-inside-251_1007_17009)"/>
<mask id="path-505-inside-252_1007_17009" fill="white">
<path d="M528 576H576V624H528V576Z"/>
</mask>
<path d="M576 624V624.5H576.5V624H576ZM576 576H575.5V624H576H576.5V576H576ZM576 624V623.5H528V624V624.5H576V624Z" fill="#DFE4EB" mask="url(#path-505-inside-252_1007_17009)"/>
<mask id="path-507-inside-253_1007_17009" fill="white">
<path d="M576 576H624V624H576V576Z"/>
</mask>
<path d="M624 624V624.5H624.5V624H624ZM624 576H623.5V624H624H624.5V576H624ZM624 624V623.5H576V624V624.5H624V624Z" fill="#DFE4EB" mask="url(#path-507-inside-253_1007_17009)"/>
<mask id="path-509-inside-254_1007_17009" fill="white">
<path d="M624 576H672V624H624V576Z"/>
</mask>
<path d="M672 624V624.5H672.5V624H672ZM672 576H671.5V624H672H672.5V576H672ZM672 624V623.5H624V624V624.5H672V624Z" fill="#DFE4EB" mask="url(#path-509-inside-254_1007_17009)"/>
<mask id="path-511-inside-255_1007_17009" fill="white">
<path d="M672 576H720V624H672V576Z"/>
</mask>
<path d="M720 624V624.5H720.5V624H720ZM720 576H719.5V624H720H720.5V576H720ZM720 624V623.5H672V624V624.5H720V624Z" fill="#DFE4EB" mask="url(#path-511-inside-255_1007_17009)"/>
<mask id="path-513-inside-256_1007_17009" fill="white">
<path d="M720 576H768V624H720V576Z"/>
</mask>
<path d="M768 624V624.5H768.5V624H768ZM768 576H767.5V624H768H768.5V576H768ZM768 624V623.5H720V624V624.5H768V624Z" fill="#DFE4EB" mask="url(#path-513-inside-256_1007_17009)"/>
<mask id="path-515-inside-257_1007_17009" fill="white">
<path d="M768 576H816V624H768V576Z"/>
</mask>
<path d="M816 624V624.5H816.5V624H816ZM816 576H815.5V624H816H816.5V576H816ZM816 624V623.5H768V624V624.5H816V624Z" fill="#DFE4EB" mask="url(#path-515-inside-257_1007_17009)"/>
<mask id="path-517-inside-258_1007_17009" fill="white">
<path d="M816 576H864V624H816V576Z"/>
</mask>
<path d="M864 624V624.5H864.5V624H864ZM864 576H863.5V624H864H864.5V576H864ZM864 624V623.5H816V624V624.5H864V624Z" fill="#DFE4EB" mask="url(#path-517-inside-258_1007_17009)"/>
<mask id="path-519-inside-259_1007_17009" fill="white">
<path d="M864 576H912V624H864V576Z"/>
</mask>
<path d="M864 576H912V624H864V576Z" fill="#DFE4EB"/>
<path d="M912 624V624.5H912.5V624H912ZM912 576H911.5V624H912H912.5V576H912ZM912 624V623.5H864V624V624.5H912V624Z" fill="#DFE4EB" mask="url(#path-519-inside-259_1007_17009)"/>
<mask id="path-521-inside-260_1007_17009" fill="white">
<path d="M912 576H960V624H912V576Z"/>
</mask>
<path d="M960 624V624.5H960.5V624H960ZM960 576H959.5V624H960H960.5V576H960ZM960 624V623.5H912V624V624.5H960V624Z" fill="#DFE4EB" mask="url(#path-521-inside-260_1007_17009)"/>
<mask id="path-523-inside-261_1007_17009" fill="white">
<path d="M0 624H48V672H0V624Z"/>
</mask>
<path d="M48 672V672.5H48.5V672H48ZM48 624H47.5V672H48H48.5V624H48ZM48 672V671.5H0V672V672.5H48V672Z" fill="#DFE4EB" mask="url(#path-523-inside-261_1007_17009)"/>
<mask id="path-525-inside-262_1007_17009" fill="white">
<path d="M48 624H96V672H48V624Z"/>
</mask>
<path d="M96 672V672.5H96.5V672H96ZM96 624H95.5V672H96H96.5V624H96ZM96 672V671.5H48V672V672.5H96V672Z" fill="#DFE4EB" mask="url(#path-525-inside-262_1007_17009)"/>
<mask id="path-527-inside-263_1007_17009" fill="white">
<path d="M96 624H144V672H96V624Z"/>
</mask>
<path d="M144 672V672.5H144.5V672H144ZM144 624H143.5V672H144H144.5V624H144ZM144 672V671.5H96V672V672.5H144V672Z" fill="#DFE4EB" mask="url(#path-527-inside-263_1007_17009)"/>
<mask id="path-529-inside-264_1007_17009" fill="white">
<path d="M144 624H192V672H144V624Z"/>
</mask>
<path d="M192 672V672.5H192.5V672H192ZM192 624H191.5V672H192H192.5V624H192ZM192 672V671.5H144V672V672.5H192V672Z" fill="#DFE4EB" mask="url(#path-529-inside-264_1007_17009)"/>
<mask id="path-531-inside-265_1007_17009" fill="white">
<path d="M192 624H240V672H192V624Z"/>
</mask>
<path d="M240 672V672.5H240.5V672H240ZM240 624H239.5V672H240H240.5V624H240ZM240 672V671.5H192V672V672.5H240V672Z" fill="#DFE4EB" mask="url(#path-531-inside-265_1007_17009)"/>
<mask id="path-533-inside-266_1007_17009" fill="white">
<path d="M240 624H288V672H240V624Z"/>
</mask>
<path d="M240 624H288V672H240V624Z" fill="#DFE4EB"/>
<path d="M288 672V672.5H288.5V672H288ZM288 624H287.5V672H288H288.5V624H288ZM288 672V671.5H240V672V672.5H288V672Z" fill="#DFE4EB" mask="url(#path-533-inside-266_1007_17009)"/>
<mask id="path-535-inside-267_1007_17009" fill="white">
<path d="M288 624H336V672H288V624Z"/>
</mask>
<path d="M336 672V672.5H336.5V672H336ZM336 624H335.5V672H336H336.5V624H336ZM336 672V671.5H288V672V672.5H336V672Z" fill="#DFE4EB" mask="url(#path-535-inside-267_1007_17009)"/>
<mask id="path-537-inside-268_1007_17009" fill="white">
<path d="M336 624H384V672H336V624Z"/>
</mask>
<path d="M384 672V672.5H384.5V672H384ZM384 624H383.5V672H384H384.5V624H384ZM384 672V671.5H336V672V672.5H384V672Z" fill="#DFE4EB" mask="url(#path-537-inside-268_1007_17009)"/>
<mask id="path-539-inside-269_1007_17009" fill="white">
<path d="M384 624H432V672H384V624Z"/>
</mask>
<path d="M432 672V672.5H432.5V672H432ZM432 624H431.5V672H432H432.5V624H432ZM432 672V671.5H384V672V672.5H432V672Z" fill="#DFE4EB" mask="url(#path-539-inside-269_1007_17009)"/>
<mask id="path-541-inside-270_1007_17009" fill="white">
<path d="M432 624H480V672H432V624Z"/>
</mask>
<path d="M480 672V672.5H480.5V672H480ZM480 624H479.5V672H480H480.5V624H480ZM480 672V671.5H432V672V672.5H480V672Z" fill="#DFE4EB" mask="url(#path-541-inside-270_1007_17009)"/>
<mask id="path-543-inside-271_1007_17009" fill="white">
<path d="M480 624H528V672H480V624Z"/>
</mask>
<path d="M528 672V672.5H528.5V672H528ZM528 624H527.5V672H528H528.5V624H528ZM528 672V671.5H480V672V672.5H528V672Z" fill="#DFE4EB" mask="url(#path-543-inside-271_1007_17009)"/>
<mask id="path-545-inside-272_1007_17009" fill="white">
<path d="M528 624H576V672H528V624Z"/>
</mask>
<path d="M528 624H576V672H528V624Z" fill="#DFE4EB"/>
<path d="M576 672V672.5H576.5V672H576ZM576 624H575.5V672H576H576.5V624H576ZM576 672V671.5H528V672V672.5H576V672Z" fill="#DFE4EB" mask="url(#path-545-inside-272_1007_17009)"/>
<mask id="path-547-inside-273_1007_17009" fill="white">
<path d="M576 624H624V672H576V624Z"/>
</mask>
<path d="M624 672V672.5H624.5V672H624ZM624 624H623.5V672H624H624.5V624H624ZM624 672V671.5H576V672V672.5H624V672Z" fill="#DFE4EB" mask="url(#path-547-inside-273_1007_17009)"/>
<mask id="path-549-inside-274_1007_17009" fill="white">
<path d="M624 624H672V672H624V624Z"/>
</mask>
<path d="M672 672V672.5H672.5V672H672ZM672 624H671.5V672H672H672.5V624H672ZM672 672V671.5H624V672V672.5H672V672Z" fill="#DFE4EB" mask="url(#path-549-inside-274_1007_17009)"/>
<mask id="path-551-inside-275_1007_17009" fill="white">
<path d="M672 624H720V672H672V624Z"/>
</mask>
<path d="M720 672V672.5H720.5V672H720ZM720 624H719.5V672H720H720.5V624H720ZM720 672V671.5H672V672V672.5H720V672Z" fill="#DFE4EB" mask="url(#path-551-inside-275_1007_17009)"/>
<mask id="path-553-inside-276_1007_17009" fill="white">
<path d="M720 624H768V672H720V624Z"/>
</mask>
<path d="M768 672V672.5H768.5V672H768ZM768 624H767.5V672H768H768.5V624H768ZM768 672V671.5H720V672V672.5H768V672Z" fill="#DFE4EB" mask="url(#path-553-inside-276_1007_17009)"/>
<mask id="path-555-inside-277_1007_17009" fill="white">
<path d="M768 624H816V672H768V624Z"/>
</mask>
<path d="M816 672V672.5H816.5V672H816ZM816 624H815.5V672H816H816.5V624H816ZM816 672V671.5H768V672V672.5H816V672Z" fill="#DFE4EB" mask="url(#path-555-inside-277_1007_17009)"/>
<mask id="path-557-inside-278_1007_17009" fill="white">
<path d="M816 624H864V672H816V624Z"/>
</mask>
<path d="M864 672V672.5H864.5V672H864ZM864 624H863.5V672H864H864.5V624H864ZM864 672V671.5H816V672V672.5H864V672Z" fill="#DFE4EB" mask="url(#path-557-inside-278_1007_17009)"/>
<mask id="path-559-inside-279_1007_17009" fill="white">
<path d="M864 624H912V672H864V624Z"/>
</mask>
<path d="M912 672V672.5H912.5V672H912ZM912 624H911.5V672H912H912.5V624H912ZM912 672V671.5H864V672V672.5H912V672Z" fill="#DFE4EB" mask="url(#path-559-inside-279_1007_17009)"/>
<mask id="path-561-inside-280_1007_17009" fill="white">
<path d="M912 624H960V672H912V624Z"/>
</mask>
<path d="M960 672V672.5H960.5V672H960ZM960 624H959.5V672H960H960.5V624H960ZM960 672V671.5H912V672V672.5H960V672Z" fill="#DFE4EB" mask="url(#path-561-inside-280_1007_17009)"/>
<mask id="path-563-inside-281_1007_17009" fill="white">
<path d="M0 672H48V720H0V672Z"/>
</mask>
<path d="M48 720V720.5H48.5V720H48ZM48 672H47.5V720H48H48.5V672H48ZM48 720V719.5H0V720V720.5H48V720Z" fill="#DFE4EB" mask="url(#path-563-inside-281_1007_17009)"/>
<mask id="path-565-inside-282_1007_17009" fill="white">
<path d="M48 672H96V720H48V672Z"/>
</mask>
<path d="M96 720V720.5H96.5V720H96ZM96 672H95.5V720H96H96.5V672H96ZM96 720V719.5H48V720V720.5H96V720Z" fill="#DFE4EB" mask="url(#path-565-inside-282_1007_17009)"/>
<mask id="path-567-inside-283_1007_17009" fill="white">
<path d="M96 672H144V720H96V672Z"/>
</mask>
<path d="M144 720V720.5H144.5V720H144ZM144 672H143.5V720H144H144.5V672H144ZM144 720V719.5H96V720V720.5H144V720Z" fill="#DFE4EB" mask="url(#path-567-inside-283_1007_17009)"/>
<mask id="path-569-inside-284_1007_17009" fill="white">
<path d="M144 672H192V720H144V672Z"/>
</mask>
<path d="M144 672H192V720H144V672Z" fill="#DFE4EB"/>
<path d="M192 720V720.5H192.5V720H192ZM192 672H191.5V720H192H192.5V672H192ZM192 720V719.5H144V720V720.5H192V720Z" fill="#DFE4EB" mask="url(#path-569-inside-284_1007_17009)"/>
<mask id="path-571-inside-285_1007_17009" fill="white">
<path d="M192 672H240V720H192V672Z"/>
</mask>
<path d="M240 720V720.5H240.5V720H240ZM240 672H239.5V720H240H240.5V672H240ZM240 720V719.5H192V720V720.5H240V720Z" fill="#DFE4EB" mask="url(#path-571-inside-285_1007_17009)"/>
<mask id="path-573-inside-286_1007_17009" fill="white">
<path d="M240 672H288V720H240V672Z"/>
</mask>
<path d="M288 720V720.5H288.5V720H288ZM288 672H287.5V720H288H288.5V672H288ZM288 720V719.5H240V720V720.5H288V720Z" fill="#DFE4EB" mask="url(#path-573-inside-286_1007_17009)"/>
<mask id="path-575-inside-287_1007_17009" fill="white">
<path d="M288 672H336V720H288V672Z"/>
</mask>
<path d="M336 720V720.5H336.5V720H336ZM336 672H335.5V720H336H336.5V672H336ZM336 720V719.5H288V720V720.5H336V720Z" fill="#DFE4EB" mask="url(#path-575-inside-287_1007_17009)"/>
<mask id="path-577-inside-288_1007_17009" fill="white">
<path d="M336 672H384V720H336V672Z"/>
</mask>
<path d="M384 720V720.5H384.5V720H384ZM384 672H383.5V720H384H384.5V672H384ZM384 720V719.5H336V720V720.5H384V720Z" fill="#DFE4EB" mask="url(#path-577-inside-288_1007_17009)"/>
<mask id="path-579-inside-289_1007_17009" fill="white">
<path d="M384 672H432V720H384V672Z"/>
</mask>
<path d="M432 720V720.5H432.5V720H432ZM432 672H431.5V720H432H432.5V672H432ZM432 720V719.5H384V720V720.5H432V720Z" fill="#DFE4EB" mask="url(#path-579-inside-289_1007_17009)"/>
<mask id="path-581-inside-290_1007_17009" fill="white">
<path d="M432 672H480V720H432V672Z"/>
</mask>
<path d="M480 720V720.5H480.5V720H480ZM480 672H479.5V720H480H480.5V672H480ZM480 720V719.5H432V720V720.5H480V720Z" fill="#DFE4EB" mask="url(#path-581-inside-290_1007_17009)"/>
<mask id="path-583-inside-291_1007_17009" fill="white">
<path d="M480 672H528V720H480V672Z"/>
</mask>
<path d="M528 720V720.5H528.5V720H528ZM528 672H527.5V720H528H528.5V672H528ZM528 720V719.5H480V720V720.5H528V720Z" fill="#DFE4EB" mask="url(#path-583-inside-291_1007_17009)"/>
<mask id="path-585-inside-292_1007_17009" fill="white">
<path d="M528 672H576V720H528V672Z"/>
</mask>
<path d="M576 720V720.5H576.5V720H576ZM576 672H575.5V720H576H576.5V672H576ZM576 720V719.5H528V720V720.5H576V720Z" fill="#DFE4EB" mask="url(#path-585-inside-292_1007_17009)"/>
<mask id="path-587-inside-293_1007_17009" fill="white">
<path d="M576 672H624V720H576V672Z"/>
</mask>
<path d="M624 720V720.5H624.5V720H624ZM624 672H623.5V720H624H624.5V672H624ZM624 720V719.5H576V720V720.5H624V720Z" fill="#DFE4EB" mask="url(#path-587-inside-293_1007_17009)"/>
<mask id="path-589-inside-294_1007_17009" fill="white">
<path d="M624 672H672V720H624V672Z"/>
</mask>
<path d="M672 720V720.5H672.5V720H672ZM672 672H671.5V720H672H672.5V672H672ZM672 720V719.5H624V720V720.5H672V720Z" fill="#DFE4EB" mask="url(#path-589-inside-294_1007_17009)"/>
<mask id="path-591-inside-295_1007_17009" fill="white">
<path d="M672 672H720V720H672V672Z"/>
</mask>
<path d="M720 720V720.5H720.5V720H720ZM720 672H719.5V720H720H720.5V672H720ZM720 720V719.5H672V720V720.5H720V720Z" fill="#DFE4EB" mask="url(#path-591-inside-295_1007_17009)"/>
<mask id="path-593-inside-296_1007_17009" fill="white">
<path d="M720 672H768V720H720V672Z"/>
</mask>
<path d="M768 720V720.5H768.5V720H768ZM768 672H767.5V720H768H768.5V672H768ZM768 720V719.5H720V720V720.5H768V720Z" fill="#DFE4EB" mask="url(#path-593-inside-296_1007_17009)"/>
<mask id="path-595-inside-297_1007_17009" fill="white">
<path d="M768 672H816V720H768V672Z"/>
</mask>
<path d="M768 672H816V720H768V672Z" fill="#DFE4EB"/>
<path d="M816 720V720.5H816.5V720H816ZM816 672H815.5V720H816H816.5V672H816ZM816 720V719.5H768V720V720.5H816V720Z" fill="#DFE4EB" mask="url(#path-595-inside-297_1007_17009)"/>
<mask id="path-597-inside-298_1007_17009" fill="white">
<path d="M816 672H864V720H816V672Z"/>
</mask>
<path d="M864 720V720.5H864.5V720H864ZM864 672H863.5V720H864H864.5V672H864ZM864 720V719.5H816V720V720.5H864V720Z" fill="#DFE4EB" mask="url(#path-597-inside-298_1007_17009)"/>
<mask id="path-599-inside-299_1007_17009" fill="white">
<path d="M864 672H912V720H864V672Z"/>
</mask>
<path d="M912 720V720.5H912.5V720H912ZM912 672H911.5V720H912H912.5V672H912ZM912 720V719.5H864V720V720.5H912V720Z" fill="#DFE4EB" mask="url(#path-599-inside-299_1007_17009)"/>
<mask id="path-601-inside-300_1007_17009" fill="white">
<path d="M912 672H960V720H912V672Z"/>
</mask>
<path d="M960 720V720.5H960.5V720H960ZM960 672H959.5V720H960H960.5V672H960ZM960 720V719.5H912V720V720.5H960V720Z" fill="#DFE4EB" mask="url(#path-601-inside-300_1007_17009)"/>
</g>
<rect x="0.25" y="0.25" width="959.5" height="719.5" stroke="#DFE4EB" stroke-width="0.5"/>
</g>
</g>
<defs>
<radialGradient id="paint0_radial_1007_17009" cx="0" cy="0" r="1" gradientUnits="userSpaceOnUse" gradientTransform="translate(360 -8.58307e-05) rotate(90) scale(720 375.794)">
<stop/>
<stop offset="0.953125" stop-opacity="0"/>
</radialGradient>
<clipPath id="clip0_1007_17009">
<rect width="960" height="720" fill="white"/>
</clipPath>
<clipPath id="clip1_1007_17009">
<rect width="960" height="720" fill="white"/>
</clipPath>
</defs>
</svg>
