<svg width="344" height="257" viewBox="0 0 344 257" fill="none" xmlns="http://www.w3.org/2000/svg">
<rect width="344" height="258" fill="#13171E"/>
<path fill-rule="evenodd" clip-rule="evenodd" d="M135.542 67.3371C153.572 56.5591 168.155 56.5 172 56.5C175.845 56.5 190.428 56.5591 208.458 67.3371C216.661 72.2404 223.241 73.8871 228.926 73.7645C233.427 73.6674 238 77.115 238 82.391V129C238 130.634 237.841 133.81 237.308 135.918C233.14 152.423 220.923 184.405 173.708 201.205C172.603 201.598 171.397 201.598 170.292 201.205C123.077 184.405 110.86 152.423 106.692 135.918C106.159 133.81 106 130.634 106 129V82.391C106 77.115 110.573 73.6674 115.074 73.7645C120.759 73.8871 127.339 72.2404 135.542 67.3371ZM199.466 112.151C201.342 110.075 201.173 106.877 199.089 105.008C197.004 103.139 193.794 103.307 191.919 105.384L162.911 137.495L152.102 125.38C150.239 123.292 147.03 123.104 144.935 124.96C142.839 126.816 142.65 130.013 144.513 132.101L156.837 145.914C160.051 149.517 165.696 149.534 168.933 145.951L199.466 112.151Z" fill="url(#paint0_linear_1270_22776)"/>
<defs>
<linearGradient id="paint0_linear_1270_22776" x1="172" y1="56.5" x2="172" y2="201.5" gradientUnits="userSpaceOnUse">
<stop stop-color="#A585FF"/>
<stop offset="1" stop-color="#FFC2AD"/>
</linearGradient>
</defs>
</svg>
