<svg width="346" height="258" viewBox="0 0 346 258" fill="none" xmlns="http://www.w3.org/2000/svg">
<rect width="344.667" height="258" transform="translate(0.666016)" fill="#13171E"/>
<path fill-rule="evenodd" clip-rule="evenodd" d="M74.0795 76.8698C74.0535 76.8698 74.0033 76.8698 73.9773 76.8698C73.5464 76.8172 73.1916 76.4223 73.1916 75.9748C73.1656 75.5535 72.937 65.7072 78.4914 63.4696C79.8865 62.9166 81.1813 63.0219 82.2717 63.8382C83.6149 64.8122 84.579 66.7604 85.1623 69.6037C85.5673 71.6045 85.6435 73.342 85.6435 73.421C85.6694 73.8422 85.3406 74.1583 84.9079 74.0792C84.4769 74.0265 84.1221 73.6317 84.1221 73.2104C84.0459 71.4202 83.4626 66.4972 81.5361 65.0754C80.9268 64.6279 80.1652 64.5752 79.253 64.9438C74.4844 66.8656 74.7129 76.1064 74.7129 76.2116C74.7129 76.5802 74.4603 76.8698 74.0795 76.8698Z" fill="#595961"/>
<path opacity="0.46" fill-rule="evenodd" clip-rule="evenodd" d="M81.9926 63.8886C80.9783 63.1514 79.7874 63.0462 78.4927 63.5464C76.2356 64.4677 74.6381 66.8899 73.8523 70.5757C73.2689 73.2872 73.3451 75.7357 73.3451 75.841C73.3451 75.9725 73.3953 76.1043 73.4974 76.2096C73.5978 76.3148 73.6999 76.3939 73.8263 76.3939C73.8522 76.3939 73.8782 76.3939 73.9024 76.3939C74.1309 76.3939 74.3092 76.2096 74.3092 75.9725C74.3092 75.8673 74.0808 66.4686 78.9757 64.4941C79.964 64.0993 80.826 64.1518 81.5374 64.6784C83.5902 66.179 84.1994 71.2602 84.2756 73.0767C84.2756 73.3399 84.5041 73.6033 84.7828 73.6295C85.0372 73.6558 85.2397 73.4715 85.2397 73.2083C85.2137 72.8924 84.9351 66.0474 81.9926 63.8886Z" fill="#FCFCFC" fill-opacity="0.1"/>
<path opacity="0.46" fill-rule="evenodd" clip-rule="evenodd" d="M73.8523 76.0789C73.8263 76.0789 73.8263 76.0789 73.8021 76.0789C73.6498 76.0525 73.5216 75.8946 73.4974 75.7366C73.4974 75.6312 73.4213 73.2356 74.0046 70.5239C74.7645 66.9172 76.3637 64.5214 78.5689 63.6262C79.8116 63.126 80.9281 63.2314 81.8922 63.9159C84.7326 65.9957 85.0113 72.7354 85.0113 73.0249C85.0113 73.1829 84.8849 73.2881 84.7326 73.2619C84.5803 73.2356 84.4539 73.104 84.4279 72.9197C84.4279 72.8406 84.1493 66.2327 81.5876 64.3371C80.826 63.7843 79.8879 63.7053 78.8234 64.1264C73.8523 66.2063 74.0808 75.7366 74.0808 75.8419C74.105 75.9735 74.0046 76.0789 73.8523 76.0789Z" fill="#FCFCFC" fill-opacity="0.1"/>
<path opacity="0.62" fill-rule="evenodd" clip-rule="evenodd" d="M75.3457 70.2353C75.498 69.814 75.6503 69.3665 75.7524 68.9453C75.7022 69.1033 75.4478 70.5248 73.8242 70.5248C73.8242 70.5248 74.7624 70.7091 75.3457 70.2353Z" fill="#595961"/>
<path opacity="0.62" fill-rule="evenodd" clip-rule="evenodd" d="M75.9074 68.5507C76.1099 68.156 76.3124 67.761 76.4906 67.3398C76.4145 67.4714 75.9073 68.8405 74.3599 68.6298C74.3339 68.6298 75.2722 68.9194 75.9074 68.5507Z" fill="#595961"/>
<path opacity="0.62" fill-rule="evenodd" clip-rule="evenodd" d="M76.6405 67.101C76.9452 66.7851 77.1978 66.4428 77.4765 66.0742C77.3761 66.1795 76.5385 67.2589 75.043 66.864C75.043 66.864 75.9049 67.338 76.6405 67.101Z" fill="#595961"/>
<path opacity="0.62" fill-rule="evenodd" clip-rule="evenodd" d="M84.2501 66.8407C84.0476 66.3667 83.8191 65.9192 83.5906 65.4453C83.6668 65.6033 84.4284 67.1039 83.5664 68.1832C83.5664 68.1832 84.2259 67.6568 84.2501 66.8407Z" fill="#595961"/>
<path opacity="0.62" fill-rule="evenodd" clip-rule="evenodd" d="M77.578 65.8903C77.9329 65.6271 78.2617 65.3638 78.5923 65.0742C78.466 65.1533 77.4258 66.0219 75.9805 65.3901C75.9805 65.3901 76.8164 65.9956 77.578 65.8903Z" fill="#595961"/>
<path opacity="0.62" fill-rule="evenodd" clip-rule="evenodd" d="M78.9498 65.0211C79.3808 64.8895 79.7876 64.7316 80.1926 64.5736C80.0403 64.6262 78.7473 65.1 77.4785 64.0996C77.5045 64.0996 78.164 64.8895 78.9498 65.0211Z" fill="#595961"/>
<path opacity="0.62" fill-rule="evenodd" clip-rule="evenodd" d="M82.8553 64.4712C82.4486 64.1289 82.0435 63.813 81.6367 63.5234C81.789 63.655 83.1339 64.6291 83.0577 66.1035C83.0318 66.1035 83.2604 65.2347 82.8553 64.4712Z" fill="#595961"/>
<path opacity="0.62" fill-rule="evenodd" clip-rule="evenodd" d="M81.6636 65.125C81.9163 65.4147 82.1966 65.7042 82.4995 65.9674C82.3992 65.8622 81.5372 64.9934 81.7397 63.9141C81.7138 63.9141 81.4351 64.5195 81.6636 65.125Z" fill="#595961"/>
<path opacity="0.62" fill-rule="evenodd" clip-rule="evenodd" d="M80.1908 64.5492C80.5456 64.6019 80.9004 64.6283 81.2553 64.6546C81.1289 64.6283 80.0124 64.5492 79.3789 63.4961C79.3789 63.4961 79.6334 64.207 80.1908 64.5492Z" fill="#595961"/>
<path opacity="0.74" fill-rule="evenodd" clip-rule="evenodd" d="M84.7326 72.8946C84.7326 72.6048 84.4539 65.9442 81.6897 63.9172C81.1566 63.5222 80.5733 63.3379 79.964 63.3379C79.5071 63.3379 79.0258 63.4431 78.5187 63.6538C76.3118 64.5226 74.7645 66.8657 74.0046 70.4461C73.4213 73.1314 73.4974 75.5272 73.4974 75.6325C73.4974 75.7115 73.5736 75.7904 73.6497 75.7904H73.6739C73.7501 75.7904 73.8021 75.7379 73.8021 75.6588C73.8021 75.5536 73.5476 65.9442 78.645 63.8908C79.7615 63.4431 80.7256 63.5222 81.5374 64.1276C84.1735 66.0496 84.4539 72.763 84.4539 72.8419C84.4539 72.9209 84.5301 72.9998 84.6063 72.9998C84.6063 72.9998 84.6062 72.9998 84.6305 72.9998C84.6824 73.0262 84.7326 72.9735 84.7326 72.8946Z" fill="url(#paint0_linear_1270_22799)"/>
<path fill-rule="evenodd" clip-rule="evenodd" d="M85.1624 69.6007C84.5791 66.7574 83.615 64.8355 82.2719 63.8351C81.5362 63.3087 80.7487 63.0717 79.8867 63.1244C80.5721 63.1769 81.2057 63.4139 81.789 63.8351C83.1339 64.8093 84.098 66.7574 84.6813 69.6007C85.0863 71.6016 85.1624 73.3391 85.1624 73.4181C85.1624 73.734 85.0101 73.971 84.7557 74.0499C84.8076 74.0763 84.8579 74.0763 84.8838 74.0763C85.3148 74.129 85.6437 73.8393 85.6194 73.4181C85.6437 73.3391 85.5674 71.6279 85.1624 69.6007Z" fill="url(#paint1_linear_1270_22799)"/>
<path fill-rule="evenodd" clip-rule="evenodd" d="M78.7711 64.9438C74.0026 66.8656 74.231 76.1063 74.231 76.2116C74.231 76.5275 74.0787 76.7645 73.8242 76.8434C73.8761 76.8697 73.9004 76.8697 73.9524 76.8697C73.9766 76.8697 74.0285 76.8697 74.0527 76.8697C74.4335 76.8697 74.6862 76.5802 74.6862 76.2116C74.6862 76.1063 74.4595 66.8919 79.2264 64.9701C79.557 64.8385 79.8615 64.7595 80.1402 64.7331C79.7334 64.6542 79.2783 64.7331 78.7711 64.9438Z" fill="url(#paint2_linear_1270_22799)"/>
<path fill-rule="evenodd" clip-rule="evenodd" d="M85.9989 67.2325L64.4927 74.13C64.4927 74.13 63.5805 74.3934 63.3521 74.6829C63.1236 74.9725 63.0734 75.7886 63.0734 75.7886L59.75 102.379L84.7059 107.223L86.6342 67.2061C86.3555 67.1534 86.0751 67.2061 85.9989 67.2325Z" fill="url(#paint3_linear_1270_22799)"/>
<path fill-rule="evenodd" clip-rule="evenodd" d="M77.1239 89.4532C76.7431 88.9267 76.2878 88.4528 75.8309 88.0315C75.3739 87.6104 74.8928 87.2681 74.4099 86.9522C74.081 86.7415 73.7764 86.5309 73.5219 86.3202C73.2692 86.1097 73.0667 85.8991 72.9144 85.7148C72.762 85.5041 72.6357 85.3198 72.5595 85.1093C72.4833 84.8987 72.4573 84.688 72.4573 84.4773C72.4573 84.1878 72.5335 83.8982 72.6357 83.6612C72.7361 83.4244 72.9143 83.2137 73.0909 83.0294C73.2951 82.8451 73.5219 82.7135 73.8023 82.6083C74.081 82.5029 74.4098 82.4503 74.7646 82.424C75.1454 82.3976 75.5262 82.424 75.8811 82.4503C76.2359 82.4765 76.5665 82.5556 76.8954 82.6345C77.2 82.7135 77.5046 82.8188 77.7573 82.9242C78.0118 83.0294 78.2645 83.1347 78.4427 83.2401L80.1166 78.08C79.8639 77.9484 79.5592 77.8167 79.2286 77.7378C78.8738 77.6324 78.493 77.5535 78.062 77.5008C77.631 77.4482 77.174 77.4219 76.6928 77.4219C76.2117 77.4219 75.7046 77.4482 75.1715 77.5271C74.0308 77.6851 73.0148 78.001 72.1026 78.4748C71.2406 78.9225 70.479 79.5016 69.8455 80.2125C69.2362 80.897 68.755 81.6867 68.4002 82.5819C68.0696 83.4507 67.8671 84.4248 67.8169 85.4778C67.7909 86.1097 67.8411 86.6888 67.9934 87.2154C68.1198 87.742 68.324 88.2422 68.6027 88.716C68.8554 89.1899 69.186 89.6112 69.5408 90.006C69.8956 90.401 70.3266 90.7696 70.7576 91.1118C71.1125 91.375 71.4171 91.6382 71.6716 91.8752C71.9243 92.1122 72.1285 92.3491 72.2791 92.6125C72.4314 92.8493 72.5335 93.0863 72.6097 93.3495C72.6858 93.5865 72.7118 93.8497 72.6858 94.1131C72.6858 94.3763 72.6097 94.6395 72.5076 94.8501C72.4072 95.0608 72.2791 95.2715 72.0766 95.4294C71.9 95.5874 71.6716 95.6926 71.4172 95.7453C71.1645 95.7978 70.8598 95.8242 70.5292 95.7717C70.1502 95.719 69.7693 95.6137 69.4145 95.4556C69.0596 95.324 68.7031 95.1397 68.3743 94.9554C68.0454 94.7712 67.7408 94.5606 67.4863 94.3763C67.2077 94.192 66.9791 93.9813 66.8026 93.8234L65.6602 97.7461C65.8384 98.0093 66.0912 98.2464 66.3699 98.4832C66.6503 98.7202 66.9792 98.957 67.36 99.1941C67.7408 99.4047 68.1458 99.6152 68.5768 99.7995C69.0078 99.9838 69.4906 100.142 69.9718 100.274H69.9978H70.022H70.048H70.074C71.1125 100.51 72.1026 100.563 73.0407 100.431C74.0048 100.3 74.8927 99.9575 75.6526 99.4311C76.4384 98.8782 77.0736 98.1409 77.5548 97.1669C78.0377 96.1928 78.3164 95.0081 78.3666 93.6654C78.3925 92.8229 78.2905 92.0859 78.062 91.4014C77.8335 90.6116 77.5047 90.006 77.1239 89.4532Z" fill="url(#paint4_linear_1270_22799)"/>
<path opacity="0.226763" fill-rule="evenodd" clip-rule="evenodd" d="M65.8234 97.9582C65.7646 97.8884 65.7091 97.8171 65.659 97.7439L66.8014 93.8211C66.817 93.8357 66.8343 93.8509 66.8516 93.8664C67.0212 94.018 67.2324 94.2068 67.4851 94.374C67.7396 94.5583 68.0442 94.769 68.3731 94.9533C68.7019 95.1374 69.0584 95.3217 69.4132 95.4535C69.7681 95.6115 70.1489 95.7167 70.528 95.7694C70.8586 95.8219 71.1632 95.7958 71.416 95.743C71.6704 95.6903 71.8988 95.5851 72.0754 95.4271C72.2779 95.2692 72.406 95.0585 72.5064 94.8479C72.6085 94.6372 72.6846 94.374 72.6846 94.1108C72.7106 93.8475 72.6846 93.5843 72.6085 93.3472C72.5323 93.0841 72.4302 92.847 72.2779 92.6102C72.1342 92.3599 71.9438 92.1336 71.7067 91.9083C71.8313 92.049 71.9369 92.1935 72.0252 92.3468C72.1775 92.5838 72.2779 92.8207 72.3541 93.084C72.4302 93.3209 72.4562 93.5843 72.4303 93.8475C72.4303 94.1108 72.3541 94.374 72.2537 94.5847C72.1516 94.7953 72.0252 95.0058 71.8227 95.1638C71.6444 95.3217 71.416 95.4271 71.1633 95.4797C70.9088 95.5324 70.6042 95.5587 70.2753 95.506C69.8945 95.4535 69.5137 95.3481 69.1589 95.1901C68.804 95.0585 68.4492 94.8742 68.1186 94.6899C67.7897 94.5056 67.4851 94.2951 67.2324 94.1108C66.978 93.9436 66.7668 93.7548 66.5972 93.6032C66.5799 93.5877 66.5642 93.5725 66.5469 93.5579L65.4062 97.4805C65.5188 97.6481 65.6625 97.805 65.8234 97.9582ZM69.5604 90.0277C69.4652 89.9335 69.3735 89.8379 69.2852 89.7405C68.9304 89.3456 68.6015 88.9244 68.3471 88.4506C68.0684 87.9765 67.8659 87.4763 67.7395 86.9499C67.5872 86.4234 67.5352 85.8441 67.5612 85.2123C67.6114 84.1592 67.8157 83.1851 68.1446 82.3163C68.4994 81.4213 68.9823 80.6315 69.5899 79.947C70.2251 79.2362 70.9849 78.6569 71.8469 78.2094C72.7608 77.7355 73.7751 77.4196 74.9158 77.2617C75.4489 77.1826 75.9561 77.1562 76.4372 77.1562C76.9202 77.1562 77.3771 77.1826 77.8081 77.2353C78.2391 77.288 78.6199 77.3669 78.9747 77.4723C79.3036 77.5512 79.6082 77.6828 79.8627 77.8144L79.8228 77.9376C79.6394 77.8578 79.4386 77.786 79.2274 77.7355C78.8726 77.6303 78.4918 77.5512 78.0608 77.4985C77.6298 77.446 77.1728 77.4196 76.6916 77.4196C76.2105 77.4196 75.7034 77.446 75.1703 77.5249C74.0296 77.6828 73.0136 77.9987 72.1014 78.4727C71.2394 78.9202 70.4778 79.4993 69.8443 80.2102C69.235 80.8947 68.7538 81.6845 68.399 82.5797C68.0684 83.4485 67.8659 84.4225 67.8157 85.4755C67.7897 86.1075 67.8399 86.6866 67.9922 87.2131C68.1186 87.7397 68.3228 88.2399 68.6015 88.7138C68.8542 89.1876 69.1848 89.6089 69.5396 90.0037C69.5465 90.0117 69.5535 90.0198 69.5604 90.0277ZM73.0049 85.8203C73.1433 85.9769 73.3165 86.1474 73.5207 86.318C73.7752 86.5286 74.0798 86.7393 74.4087 86.9499C74.8916 87.2658 75.3727 87.6081 75.8297 88.0293C75.963 88.1519 76.0945 88.2788 76.2261 88.4104C76.0149 88.1834 75.795 87.9686 75.5752 87.7661C75.12 87.3447 74.6371 87.0025 74.156 86.6866C73.8254 86.4759 73.5207 86.2654 73.268 86.0548C73.1728 85.9762 73.0862 85.8977 73.0049 85.8203Z" fill="#FCFCFC"/>
<path fill-rule="evenodd" clip-rule="evenodd" d="M69.237 72.6291C68.8822 73.4188 68.5273 74.1033 68.2729 74.5772C68.0461 74.9722 68.1725 75.3933 68.5533 75.4985C68.9323 75.6303 69.4394 75.3933 69.6679 74.9983C69.6939 74.9458 70.4296 73.6558 71.089 72.0234L69.237 72.6291Z" fill="url(#paint5_linear_1270_22799)"/>
<path fill-rule="evenodd" clip-rule="evenodd" d="M80.6723 68.9445C80.3694 70.1818 79.9887 71.3402 79.71 72.051C79.5317 72.4723 79.7343 72.8671 80.115 72.9198C80.5218 72.9726 80.977 72.6828 81.1293 72.2617C81.1553 72.1826 81.839 70.4715 82.2717 68.4443V68.418L80.6723 68.9445Z" fill="url(#paint6_linear_1270_22799)"/>
<path fill-rule="evenodd" clip-rule="evenodd" d="M93.4332 70.6558C93.4332 70.6558 93.4072 70.4451 93.2809 70.3662C93.1787 70.2872 93.0523 70.2872 93.0523 70.2872L89.5266 70.024L86.9406 67.365C86.8385 67.2859 86.7364 67.2334 86.61 67.207L84.6836 107.224L98.2 104.196L93.4332 70.6558Z" fill="url(#paint7_linear_1270_22799)"/>
<path opacity="0.41" fill-rule="evenodd" clip-rule="evenodd" d="M90.3878 99.7743L89.5258 70.025L89.3735 69.867L89.7803 99.353C89.7803 99.353 86.2043 104.987 85.6711 104.829C84.8853 104.592 87.2185 67.6555 87.2185 67.6555L86.9641 67.3923C86.8637 67.3133 86.7356 67.2607 86.6353 67.2344L84.733 106.698L84.707 107.251L85.3665 106.382L90.3878 99.7743Z" fill="url(#paint8_linear_1270_22799)"/>
<path opacity="0.32" fill-rule="evenodd" clip-rule="evenodd" d="M84.707 107.222L90.3878 99.7715L98.2512 104.194L84.707 107.222Z" fill="url(#paint9_linear_1270_22799)"/>
<path opacity="0.19" fill-rule="evenodd" clip-rule="evenodd" d="M84.707 107.222L90.3376 99.7715L98.2512 104.194L84.707 107.222Z" fill="url(#paint10_linear_1270_22799)"/>
<path opacity="0.19" fill-rule="evenodd" clip-rule="evenodd" d="M84.707 107.222L90.3376 99.7715L98.2512 104.194L84.707 107.222Z" fill="url(#paint11_linear_1270_22799)"/>
<path fill-rule="evenodd" clip-rule="evenodd" d="M93.3039 70.3909C93.432 70.4963 93.432 70.6543 93.432 70.6543L98.1486 104.168L90.3873 99.7453L89.5254 69.9961L93.001 70.2593C93.0252 70.2856 93.1775 70.2856 93.3039 70.3909Z" fill="url(#paint12_linear_1270_22799)"/>
<path fill-rule="evenodd" clip-rule="evenodd" d="M92.746 70.4719C92.746 70.4719 92.8983 70.4719 93.0247 70.6035C93.1511 70.7089 93.1769 70.8669 93.1769 70.8669L97.8192 104.012L98.174 104.223L93.4556 70.6826C93.4556 70.6826 93.4314 70.5246 93.3293 70.4194C93.2029 70.314 93.0247 70.314 93.0247 70.314L89.5508 70.0508L92.746 70.4719Z" fill="url(#paint13_linear_1270_22799)"/>
<path opacity="0.6" fill-rule="evenodd" clip-rule="evenodd" d="M79.177 86.3729C82.1195 90.5062 84.0978 94.9817 85.0861 99.3257L86.6336 67.1807C86.3549 67.1281 86.0745 67.1807 85.9984 67.207L64.4922 74.1311C64.4922 74.1311 64.2896 74.1836 64.0352 74.289C69.4892 76.2372 74.9415 80.4231 79.177 86.3729Z" fill="url(#paint14_linear_1270_22799)"/>
<path fill-rule="evenodd" clip-rule="evenodd" d="M59.75 102.379L84.7059 107.224L85.9244 79.791L62.8534 80.4468L59.75 102.379Z" fill="url(#paint15_linear_1270_22799)"/>
<path opacity="0.3" fill-rule="evenodd" clip-rule="evenodd" d="M67.9441 74.5153C67.7173 75.1552 67.9406 75.8275 68.446 76.0174C68.9497 76.207 69.5416 75.8422 69.7701 75.2025C69.9969 74.5627 69.7719 73.8903 69.2682 73.7006C68.7645 73.5108 68.1708 73.8756 67.9441 74.5153Z" fill="white"/>
<path opacity="0.89" fill-rule="evenodd" clip-rule="evenodd" d="M67.9125 74.2108C67.6858 74.8506 67.9108 75.523 68.4145 75.7127C68.9181 75.9025 69.5119 75.5377 69.7386 74.8979C69.9653 74.258 69.7421 73.5856 69.2367 73.3959C68.733 73.2061 68.141 73.5709 67.9125 74.2108Z" fill="#FCFCFC"/>
<path fill-rule="evenodd" clip-rule="evenodd" d="M89.5518 70.024L86.9641 67.365C86.8637 67.2859 86.7356 67.2334 86.6353 67.207L84.707 107.224L90.4137 99.7468L89.5518 70.024Z" fill="url(#paint16_linear_1270_22799)"/>
<path fill-rule="evenodd" clip-rule="evenodd" d="M85.9979 67.2332L64.4917 74.1307C64.4917 74.1307 63.5795 74.394 63.3511 74.6836C63.3251 74.71 63.325 74.7363 63.3008 74.7627L84.9836 68.5495C85.1619 68.4968 85.5929 68.3388 85.5427 69.6288L84.2237 107.171L84.6807 107.25L86.6072 67.2332C86.3545 67.1541 86.0741 67.2068 85.9979 67.2332Z" fill="url(#paint17_linear_1270_22799)"/>
<path fill-rule="evenodd" clip-rule="evenodd" d="M85.9979 67.2332L64.4917 74.1307C64.4917 74.1307 63.5795 74.394 63.3511 74.6836C63.3251 74.71 63.325 74.7363 63.3008 74.7627L68.3221 73.3146L85.5929 67.7597C85.669 67.7334 85.9478 67.6807 86.2264 67.7334L84.3242 107.171L84.6807 107.25L86.6072 67.2332C86.3545 67.1541 86.0741 67.2068 85.9979 67.2332Z" fill="url(#paint18_linear_1270_22799)"/>
<path opacity="0.32" fill-rule="evenodd" clip-rule="evenodd" d="M91.531 100.406L90.3885 99.748L84.6836 107.225L84.9865 107.146C84.9865 107.146 90.0095 100.433 90.4647 100.222C90.7953 100.09 91.531 100.406 91.531 100.406Z" fill="url(#paint19_linear_1270_22799)"/>
<path opacity="0.57" fill-rule="evenodd" clip-rule="evenodd" d="M84.707 107.225L90.4137 99.748C90.3878 99.7744 86.7876 103.855 84.707 107.225Z" fill="url(#paint20_linear_1270_22799)"/>
<path opacity="0.46" fill-rule="evenodd" clip-rule="evenodd" d="M98.2521 104.194L90.4146 99.7715C90.3886 99.7715 91.3026 99.9294 98.2521 104.194Z" fill="url(#paint21_linear_1270_22799)"/>
<path opacity="0.3" fill-rule="evenodd" clip-rule="evenodd" d="M79.5366 71.8903C79.3081 72.5302 79.5332 73.2026 80.0368 73.3925C80.5423 73.5823 81.1342 73.2175 81.361 72.5777C81.5895 71.9378 81.3645 71.2654 80.8608 71.0756C80.3571 70.8859 79.7634 71.2506 79.5366 71.8903Z" fill="white"/>
<path opacity="0.89" fill-rule="evenodd" clip-rule="evenodd" d="M79.5102 71.5857C79.2834 72.2256 79.5085 72.898 80.0122 73.0878C80.5159 73.2775 81.1095 72.9128 81.3362 72.2729C81.563 71.6332 81.3397 70.9607 80.836 70.7709C80.3306 70.5811 79.7386 70.9459 79.5102 71.5857Z" fill="#FCFCFC"/>
<path fill-rule="evenodd" clip-rule="evenodd" d="M68.8313 75.5006C68.8053 75.5006 68.7551 75.5006 68.7291 75.5006C68.3241 75.4481 68.0455 75.0531 68.0957 74.6056C68.1459 74.1843 69.5911 64.3381 75.5263 62.1004C77.0218 61.5475 78.2905 61.6527 79.2546 62.469C80.4212 63.4431 81.0547 65.3912 81.1569 68.2345C81.233 70.2354 81.0046 71.9728 81.0046 72.0519C80.9544 72.473 80.5736 72.7891 80.1669 72.71C79.7618 72.6573 79.4572 72.2626 79.5333 71.8412C79.7618 70.0511 80.0145 65.128 78.3165 63.7063C77.7834 63.2588 77.0478 63.2061 76.0595 63.5747C70.962 65.4965 69.6171 74.7372 69.6171 74.8161C69.515 75.2111 69.2121 75.5006 68.8313 75.5006Z" fill="#595961"/>
<path opacity="0.46" fill-rule="evenodd" clip-rule="evenodd" d="M78.9496 62.5213C78.0617 61.7842 76.8951 61.679 75.5 62.1792C73.0906 63.1006 71.0619 65.5225 69.6668 69.182C68.6283 71.8937 68.2718 74.342 68.2718 74.4474C68.2475 74.579 68.2978 74.7106 68.3739 74.816C68.4501 74.9213 68.5521 75.0003 68.6785 75.0003C68.7027 75.0003 68.7287 75.0003 68.7547 75.0003C68.9831 75.0003 69.1856 74.816 69.2116 74.579C69.2358 74.4738 70.5808 65.075 75.8305 63.1006C76.895 62.7056 77.757 62.7583 78.3662 63.2849C80.1663 64.7855 79.9137 69.8665 79.6852 71.683C79.6592 71.9464 79.8375 72.2096 80.0902 72.2359C80.3447 72.2623 80.5974 72.078 80.6233 71.8148C80.6493 71.5251 81.5373 64.6803 78.9496 62.5213Z" fill="#FCFCFC" fill-opacity="0.1"/>
<path opacity="0.81" fill-rule="evenodd" clip-rule="evenodd" d="M68.728 74.7098C68.7021 74.7098 68.7021 74.7098 68.6779 74.7098C68.5255 74.6834 68.4234 74.5255 68.4493 74.3675C68.4753 74.2621 68.8042 71.8665 69.8445 69.1547C71.2396 65.548 73.2179 63.1522 75.5754 62.2571C76.9203 61.7569 78.0108 61.8623 78.8468 62.5468C81.3323 64.6265 80.4704 71.3662 80.4202 71.6558C80.3942 71.8137 80.2679 71.919 80.0896 71.8928C79.939 71.8665 79.8369 71.7349 79.8369 71.5506C79.8369 71.4715 80.6988 64.8635 78.4677 62.9679C77.8083 62.4677 76.8944 62.4152 75.7797 62.8363C70.4278 64.8635 69.0327 74.3675 69.0327 74.4727C69.0068 74.6043 68.8804 74.7098 68.728 74.7098Z" fill="#FCFCFC" fill-opacity="0.1"/>
<path opacity="0.42" fill-rule="evenodd" clip-rule="evenodd" d="M69.9712 72.5243C70.1235 72.0504 70.2257 71.5766 70.3261 71.1289C70.2759 71.2869 70.0474 72.7875 68.5 73.1561C68.526 73.1561 69.4381 73.1297 69.9712 72.5243Z" fill="#595961"/>
<path opacity="0.42" fill-rule="evenodd" clip-rule="evenodd" d="M70.5526 70.6044C70.7552 70.1567 70.9075 69.7092 71.0598 69.2617C70.9837 69.4197 70.705 70.8676 69.0312 71.0519C69.0312 71.0255 69.9434 71.131 70.5526 70.6044Z" fill="#595961"/>
<path opacity="0.42" fill-rule="evenodd" clip-rule="evenodd" d="M71.2115 68.8642C71.44 68.4429 71.6684 67.9954 71.845 67.5742C71.7688 67.7322 71.2617 69.1537 69.6641 69.1537C69.6641 69.1537 70.5521 69.338 71.2115 68.8642Z" fill="#595961"/>
<path opacity="0.42" fill-rule="evenodd" clip-rule="evenodd" d="M72.0761 67.1797C72.3548 66.7849 72.6092 66.3899 72.8619 65.9688C72.7615 66.1003 72.0259 67.4694 70.5045 67.2587C70.4785 67.2587 71.3665 67.5483 72.0761 67.1797Z" fill="#595961"/>
<path opacity="0.62" fill-rule="evenodd" clip-rule="evenodd" d="M80.6992 65.4696C80.5729 64.9956 80.4465 64.5481 80.2682 64.0742C80.3184 64.2322 80.8256 65.7328 79.7871 66.8121C79.7871 66.8121 80.5469 66.2857 80.6992 65.4696Z" fill="#595961"/>
<path opacity="0.62" fill-rule="evenodd" clip-rule="evenodd" d="M80.9529 67.8914C80.9269 67.4176 80.8508 66.9174 80.7747 66.4434C80.7747 66.6277 81.0291 68.181 79.8105 69.0235C79.8105 69.0235 80.6482 68.6549 80.9529 67.8914Z" fill="#595961"/>
<path opacity="0.62" fill-rule="evenodd" clip-rule="evenodd" d="M81.0793 70.3659C81.1053 69.892 81.1053 69.3918 81.0793 68.918C81.0793 69.1023 81.1052 70.6556 79.8105 71.3663C79.8105 71.3401 80.6985 71.0768 81.0793 70.3659Z" fill="#595961"/>
<path opacity="0.42" fill-rule="evenodd" clip-rule="evenodd" d="M73.0385 65.7338C73.3933 65.4179 73.7238 65.0756 74.0285 64.707C73.9004 64.8123 72.8861 65.8918 71.4668 65.4968C71.491 65.4968 72.2769 65.9708 73.0385 65.7338Z" fill="#595961"/>
<path opacity="0.42" fill-rule="evenodd" clip-rule="evenodd" d="M74.1811 64.5192C74.5878 64.256 74.9686 63.9927 75.3477 63.7031C75.1971 63.7822 74.0304 64.6508 72.6855 64.019C72.6855 64.019 73.3952 64.6245 74.1811 64.5192Z" fill="#595961"/>
<path opacity="0.62" fill-rule="evenodd" clip-rule="evenodd" d="M75.7271 63.652C76.184 63.5202 76.6151 63.3623 77.046 63.2043C76.8937 63.257 75.5246 63.7309 74.4082 62.7305C74.4082 62.7305 74.9413 63.5202 75.7271 63.652Z" fill="#595961"/>
<path opacity="0.62" fill-rule="evenodd" clip-rule="evenodd" d="M79.7108 63.1C79.356 62.7578 78.9994 62.4419 78.6445 62.1523C78.7726 62.2839 79.9635 63.258 79.6346 64.7323C79.6087 64.7323 79.9895 63.8635 79.7108 63.1Z" fill="#595961"/>
<path opacity="0.62" fill-rule="evenodd" clip-rule="evenodd" d="M78.3924 63.758C78.6209 64.0475 78.8477 64.3371 79.0762 64.6004C79 64.495 78.2903 63.6264 78.6451 62.5469C78.6711 62.5469 78.2903 63.1525 78.3924 63.758Z" fill="#595961"/>
<path opacity="0.62" fill-rule="evenodd" clip-rule="evenodd" d="M77.0203 63.1781C77.3768 63.2308 77.7317 63.2572 78.0865 63.2835C77.9602 63.2572 76.8696 63.1781 76.3867 62.125C76.4127 62.125 76.5391 62.8359 77.0203 63.1781Z" fill="#595961"/>
<path fill-rule="evenodd" clip-rule="evenodd" d="M80.1413 71.5233C80.1656 71.2338 81.0293 64.5731 78.62 62.5459C78.163 62.1511 77.6057 61.9668 76.9964 61.9668C76.5395 61.9668 76.0323 62.072 75.4992 62.2827C73.166 63.1515 71.2135 65.4946 69.8444 69.075C68.8041 71.7603 68.4752 74.1561 68.4492 74.2614C68.4492 74.3403 68.4995 74.4193 68.5757 74.4193H68.6016C68.6777 74.4193 68.7279 74.3666 68.7279 74.2877C68.7539 74.1823 70.123 64.5731 75.5753 62.5195C76.7419 62.072 77.732 62.1511 78.4416 62.7566C80.7489 64.6783 79.887 71.3917 79.8628 71.4708C79.8628 71.5497 79.9129 71.6287 79.9891 71.6287C79.9891 71.6287 79.9891 71.6287 80.0133 71.6287C80.0895 71.6551 80.1413 71.6024 80.1413 71.5233Z" fill="url(#paint22_linear_1270_22799)"/>
<path fill-rule="evenodd" clip-rule="evenodd" d="M75.5511 63.5743C70.4536 65.4961 69.1088 74.7369 69.1088 74.8421C69.0586 75.158 68.8543 75.3951 68.6016 75.474C68.6518 75.5003 68.6777 75.5003 68.7279 75.5003C68.7539 75.5003 68.8041 75.5003 68.8301 75.5003C69.2109 75.5003 69.5137 75.2108 69.5657 74.8421C69.5899 74.7369 70.9089 65.5225 76.0063 63.6005C76.3629 63.4689 76.6658 63.39 76.9462 63.3637C76.5654 63.311 76.0825 63.39 75.5511 63.5743Z" fill="url(#paint23_linear_1270_22799)"/>
<path fill-rule="evenodd" clip-rule="evenodd" d="M81.1553 68.2336C81.0532 65.3903 80.4197 63.4683 79.2531 62.4679C78.6196 61.9415 77.8581 61.7045 76.9961 61.7572C77.6556 61.8097 78.2631 62.0467 78.772 62.4679C79.9386 63.4421 80.572 65.3903 80.6724 68.2336C80.7486 70.2344 80.5219 71.9719 80.5219 72.0509C80.47 72.3668 80.2674 72.6038 80.013 72.6827C80.0649 72.7091 80.0891 72.7091 80.141 72.7091C80.5461 72.7618 80.9269 72.4721 80.9771 72.0509C81.0031 71.9719 81.2315 70.2607 81.1553 68.2336Z" fill="url(#paint24_linear_1270_22799)"/>
<circle cx="173" cy="84.5" r="24.5" fill="#FFFA37"/>
<path fill-rule="evenodd" clip-rule="evenodd" d="M181.795 70.8246C180.105 68.6954 177.318 67 173.021 67C169.341 67.0362 161.982 69.0728 161.982 76.9291C161.982 78.0765 162.072 79.6131 162.152 80.7447C162.058 80.7175 161.943 80.6667 161.761 80.5793L161.736 80.5672C161.414 80.4124 160.924 80.1772 160.242 80.1772C159.554 80.1772 158.888 80.4469 158.394 80.8467C157.903 81.244 157.483 81.8549 157.483 82.5935C157.483 83.5172 158.003 84.1305 158.611 84.5237C159.151 84.8729 159.832 85.096 160.371 85.2726L160.424 85.29C161.001 85.4793 161.424 85.6235 161.715 85.8052C161.942 85.9467 161.977 86.0362 161.981 86.1212C161.978 86.1333 161.971 86.1594 161.956 86.2018C161.925 86.2892 161.873 86.4073 161.798 86.5551C161.647 86.8498 161.427 87.2121 161.165 87.5986C160.637 88.3782 159.993 89.1778 159.511 89.6408C159.036 90.0975 158.257 90.6651 157.443 91.1169C157.039 91.3409 156.644 91.5266 156.29 91.6541C155.926 91.7857 155.658 91.8359 155.493 91.8359C155.362 91.8359 155.249 91.8628 155.2 91.8752C155.13 91.8926 155.059 91.9154 154.987 91.9421C154.847 91.9951 154.678 92.0746 154.512 92.1866C154.194 92.4006 153.75 92.8321 153.75 93.5128C153.75 93.8681 153.833 94.1689 153.978 94.4298C154.104 94.6583 154.266 94.8316 154.359 94.9313L154.373 94.9462L154.399 94.9739C154.913 95.5264 155.763 95.9108 156.588 96.1745C157.297 96.4012 158.09 96.5701 158.862 96.6715C158.873 96.7212 158.884 96.7749 158.897 96.8337L158.901 96.8526C158.95 97.082 159.014 97.3859 159.109 97.6659C159.198 97.9302 159.36 98.321 159.692 98.5993C160.115 98.9538 160.668 98.9897 161.029 98.9882C161.416 98.9866 161.868 98.9321 162.297 98.8804L162.333 98.876C162.937 98.8033 163.569 98.7282 164.223 98.7282C165.416 98.7282 166.181 99.2268 167.381 100.047L167.39 100.052C167.805 100.336 168.271 100.654 168.8 100.967C170.571 102.013 172.01 102.004 172.826 101.999C172.88 101.999 172.931 101.999 172.979 101.999C173.028 101.999 173.079 101.999 173.133 101.999C173.95 102.004 175.428 102.014 177.2 100.967C177.729 100.654 178.195 100.336 178.61 100.052L178.619 100.047C179.819 99.2268 180.584 98.7282 181.777 98.7282C182.431 98.7282 183.063 98.8033 183.667 98.876L183.703 98.8804C184.132 98.9321 184.584 98.9866 184.971 98.9882C185.332 98.9897 185.885 98.9538 186.308 98.5993C186.64 98.321 186.802 97.9302 186.891 97.6659C186.986 97.3859 187.05 97.0821 187.099 96.8527L187.103 96.8337C187.116 96.7749 187.127 96.7212 187.138 96.6715C187.91 96.5701 188.703 96.4012 189.412 96.1745C190.237 95.9108 191.087 95.5263 191.601 94.9738L191.627 94.9461L191.641 94.9314C191.734 94.8316 191.896 94.6583 192.022 94.4298C192.167 94.1689 192.25 93.8681 192.25 93.5128C192.25 92.8321 191.806 92.4006 191.488 92.1866C191.322 92.0746 191.153 91.9951 191.013 91.9421C190.941 91.9154 190.87 91.8926 190.8 91.8752C190.751 91.8628 190.638 91.8359 190.507 91.8359C190.342 91.8359 190.074 91.7857 189.71 91.6541C189.356 91.5266 188.961 91.3409 188.557 91.1169C187.743 90.6651 186.964 90.0975 186.489 89.6408C186.007 89.1778 185.363 88.3782 184.835 87.5986C184.573 87.2121 184.353 86.8498 184.202 86.5551C184.127 86.4073 184.075 86.2892 184.044 86.2018C184.029 86.1594 184.022 86.1333 184.019 86.1212C184.023 86.0361 184.058 85.9467 184.285 85.8052C184.576 85.6235 184.999 85.4793 185.576 85.29L185.629 85.2726C186.168 85.096 186.849 84.8729 187.389 84.5237C187.997 84.1305 188.517 83.5172 188.517 82.5935C188.517 81.8549 188.097 81.244 187.606 80.8467C187.112 80.4469 186.446 80.1772 185.758 80.1772C185.076 80.1772 184.586 80.4124 184.264 80.5672L184.239 80.5793C184.057 80.6667 183.942 80.7175 183.848 80.7447C183.928 79.6131 184.018 78.0765 184.018 76.9291C184.018 75.3715 183.452 72.9133 181.795 70.8246ZM165.621 71.8523C164.219 73.6071 163.738 75.6908 163.738 76.9291C163.738 78.0773 163.836 79.6723 163.918 80.816C163.945 81.1959 163.867 81.6387 163.535 81.9902C163.2 82.3459 162.743 82.4614 162.335 82.4614C161.746 82.4614 161.297 82.2458 161.011 82.1079L160.977 82.0919C160.658 81.9386 160.489 81.8673 160.242 81.8673C160.017 81.8673 159.743 81.9639 159.525 82.1401C159.304 82.3186 159.24 82.4934 159.24 82.5935C159.24 82.7971 159.315 82.9426 159.591 83.1212C159.917 83.3321 160.382 83.4906 160.991 83.6904L161.044 83.7078C161.55 83.8735 162.176 84.0787 162.671 84.3869C163.226 84.7328 163.738 85.2888 163.738 86.1452C163.738 86.3697 163.676 86.5858 163.618 86.7495C163.555 86.9271 163.469 87.1147 163.374 87.3017C163.182 87.6766 162.922 88.1 162.637 88.5212C162.071 89.3569 161.351 90.2606 160.753 90.8358C160.149 91.4174 159.24 92.0711 158.32 92.5811C157.857 92.8379 157.374 93.0682 156.907 93.2365C156.49 93.3871 156.04 93.505 155.609 93.5235C155.598 93.528 155.586 93.5334 155.574 93.5397C155.554 93.5497 155.535 93.5605 155.519 93.5714L155.511 93.5772C155.512 93.5888 155.514 93.5974 155.516 93.6035C155.519 93.617 155.523 93.6266 155.529 93.6366C155.546 93.6672 155.573 93.7014 155.68 93.817L155.709 93.8473C155.903 94.0565 156.382 94.328 157.142 94.5707C157.865 94.8019 158.72 94.9689 159.529 95.0455C159.933 95.0838 160.166 95.3365 160.265 95.4726C160.366 95.6127 160.424 95.7607 160.458 95.8589C160.524 96.0489 160.573 96.283 160.612 96.4677L160.618 96.4957C160.672 96.7474 160.718 96.9625 160.779 97.1424C160.801 97.206 160.821 97.2544 160.838 97.2899C160.876 97.2944 160.935 97.2985 161.021 97.2982C161.393 97.2967 161.765 97.2413 162.133 97.1969C162.722 97.1259 163.451 97.0381 164.223 97.0381C166.012 97.0381 167.193 97.8451 168.334 98.6247L168.398 98.6684C168.821 98.9568 169.244 99.2454 169.72 99.5266C171.06 100.319 172.081 100.313 172.826 100.309C172.879 100.309 172.93 100.308 172.979 100.308C173.029 100.308 173.08 100.309 173.132 100.309C173.885 100.313 174.94 100.319 176.28 99.5266C176.756 99.2454 177.179 98.9568 177.602 98.6684L177.666 98.6247C178.806 97.8451 179.988 97.0381 181.777 97.0381C182.549 97.0381 183.278 97.1259 183.867 97.1969L183.885 97.1991C184.361 97.2565 184.71 97.2971 184.979 97.2982C185.065 97.2985 185.124 97.2944 185.162 97.2899C185.179 97.2544 185.199 97.206 185.221 97.1424C185.282 96.9625 185.328 96.7474 185.382 96.4957L185.388 96.4677C185.427 96.283 185.476 96.0489 185.542 95.8589C185.576 95.7607 185.634 95.6127 185.736 95.4726C185.834 95.3365 186.067 95.0838 186.471 95.0455C187.28 94.9689 188.135 94.8019 188.858 94.5707C189.618 94.328 190.097 94.0565 190.291 93.8474L190.32 93.817C190.427 93.7014 190.454 93.6672 190.471 93.6366C190.477 93.6266 190.481 93.617 190.484 93.6035C190.486 93.5974 190.488 93.5888 190.489 93.5772L190.481 93.5714C190.465 93.5605 190.446 93.5497 190.426 93.5397C190.414 93.5334 190.402 93.528 190.391 93.5235C189.96 93.505 189.51 93.3871 189.093 93.2365C188.626 93.0682 188.143 92.8379 187.68 92.5811C186.76 92.0711 185.851 91.4174 185.246 90.8358C184.649 90.2606 183.929 89.3569 183.363 88.5212C183.078 88.1 182.818 87.6766 182.626 87.3017C182.531 87.1147 182.445 86.9271 182.382 86.7495C182.324 86.5858 182.262 86.3697 182.262 86.1452C182.262 85.2888 182.774 84.7328 183.329 84.3869C183.824 84.0787 184.45 83.8735 184.956 83.7078L185.009 83.6904C185.618 83.4906 186.083 83.3321 186.409 83.1212C186.685 82.9426 186.76 82.7971 186.76 82.5935C186.76 82.4934 186.696 82.3186 186.475 82.1401C186.257 81.9639 185.983 81.8673 185.758 81.8673C185.511 81.8673 185.342 81.9386 185.023 82.0919L184.989 82.1079C184.703 82.2458 184.254 82.4614 183.665 82.4614C183.257 82.4614 182.8 82.3459 182.465 81.9902C182.133 81.6387 182.055 81.1959 182.082 80.816C182.164 79.6723 182.262 78.0773 182.262 76.9291C182.262 75.6876 181.79 73.6037 180.398 71.8501C179.039 70.1371 176.767 68.6901 173.021 68.6901C169.274 68.6901 166.991 70.1375 165.621 71.8523Z" fill="#FCFCFC"/>
<path fill-rule="evenodd" clip-rule="evenodd" d="M165.622 71.8536C164.22 73.6085 163.739 75.6921 163.739 76.9304C163.739 78.0786 163.837 79.6737 163.919 80.8174C163.946 81.1972 163.868 81.64 163.536 81.9915C163.201 82.3473 162.744 82.4628 162.336 82.4628C161.746 82.4628 161.298 82.2472 161.012 82.1093L160.978 82.0933C160.658 81.9399 160.49 81.8686 160.243 81.8686C160.018 81.8686 159.744 81.9652 159.526 82.1414C159.305 82.32 159.241 82.4948 159.241 82.5948C159.241 82.7984 159.316 82.9439 159.592 83.1225C159.918 83.3334 160.383 83.492 160.992 83.6917L161.045 83.7091C161.551 83.8748 162.177 84.0801 162.672 84.3882C163.227 84.7342 163.739 85.2901 163.739 86.1466C163.739 86.3711 163.677 86.5872 163.619 86.7508C163.556 86.9284 163.47 87.116 163.375 87.3031C163.183 87.678 162.923 88.1013 162.638 88.5225C162.072 89.3582 161.352 90.2619 160.754 90.8372C160.15 91.4187 159.241 92.0724 158.321 92.5824C157.858 92.8392 157.375 93.0696 156.908 93.2378C156.491 93.3884 156.041 93.5064 155.61 93.5248C155.599 93.5293 155.587 93.5348 155.575 93.541C155.555 93.551 155.536 93.5618 155.52 93.5728L155.512 93.5785C155.513 93.5902 155.515 93.5988 155.517 93.6048C155.52 93.6183 155.524 93.628 155.53 93.638C155.547 93.6686 155.573 93.7027 155.681 93.8183L155.71 93.8487C155.904 94.0579 156.383 94.3293 157.143 94.572C157.866 94.8032 158.721 94.9702 159.529 95.0469C159.934 95.0852 160.167 95.3378 160.265 95.474C160.367 95.6141 160.425 95.762 160.459 95.8602C160.525 96.0503 160.574 96.2844 160.613 96.469L160.619 96.4971C160.673 96.7487 160.719 96.9639 160.78 97.1437C160.802 97.2073 160.822 97.2557 160.839 97.2913C160.877 97.2957 160.936 97.2999 161.022 97.2995C161.394 97.298 161.766 97.2427 162.134 97.1983C162.723 97.1273 163.452 97.0395 164.223 97.0395C166.013 97.0395 167.194 97.8465 168.335 98.626L168.399 98.6698C168.822 98.9581 169.245 99.2467 169.721 99.5279C171.061 100.32 172.082 100.315 172.827 100.31C172.879 100.31 172.931 100.31 172.98 100.31C173.03 100.31 173.08 100.31 173.133 100.31C173.886 100.314 174.941 100.32 176.281 99.5279C176.757 99.2467 177.18 98.9581 177.602 98.6698L177.666 98.626C178.807 97.8465 179.988 97.0395 181.778 97.0395C182.55 97.0395 183.279 97.1273 183.868 97.1983L183.886 97.2004C184.362 97.2578 184.711 97.2984 184.98 97.2995C185.065 97.2999 185.125 97.2957 185.163 97.2913C185.18 97.2557 185.2 97.2073 185.222 97.1437C185.283 96.9639 185.329 96.7487 185.383 96.4971L185.389 96.469C185.428 96.2844 185.477 96.0503 185.543 95.8602C185.577 95.762 185.635 95.6141 185.736 95.474C185.835 95.3378 186.068 95.0852 186.472 95.0469C187.281 94.9702 188.136 94.8032 188.859 94.572C189.619 94.3293 190.098 94.0579 190.292 93.8487L190.32 93.8183C190.428 93.7027 190.455 93.6686 190.472 93.638C190.478 93.628 190.482 93.6183 190.485 93.6048C190.487 93.5988 190.488 93.5901 190.49 93.5785L190.482 93.5728C190.466 93.5618 190.447 93.551 190.427 93.541C190.415 93.5348 190.403 93.5293 190.392 93.5248C189.961 93.5064 189.511 93.3884 189.093 93.2378C188.627 93.0696 188.144 92.8392 187.681 92.5824C186.761 92.0724 185.852 91.4187 185.247 90.8372C184.649 90.2619 183.93 89.3582 183.364 88.5225C183.079 88.1013 182.819 87.678 182.627 87.3031C182.531 87.116 182.446 86.9284 182.383 86.7508C182.325 86.5872 182.262 86.3711 182.262 86.1466C182.262 85.2901 182.775 84.7342 183.33 84.3882C183.824 84.0801 184.451 83.8748 184.957 83.7091L185.01 83.6917C185.619 83.492 186.083 83.3334 186.41 83.1225C186.686 82.9439 186.761 82.7984 186.761 82.5948C186.761 82.4948 186.697 82.32 186.476 82.1414C186.258 81.9652 185.984 81.8686 185.759 81.8686C185.512 81.8686 185.343 81.9399 185.023 82.0933L184.99 82.1093C184.703 82.2472 184.255 82.4628 183.666 82.4628C183.258 82.4628 182.801 82.3473 182.465 81.9915C182.134 81.64 182.056 81.1972 182.083 80.8174C182.165 79.6737 182.262 78.0786 182.262 76.9304C182.262 75.6889 181.791 73.605 180.399 71.8515C179.04 70.1385 176.768 68.6914 173.021 68.6914C169.275 68.6914 166.991 70.1389 165.622 71.8536Z" fill="#1A1A1C"/>
<path fill-rule="evenodd" clip-rule="evenodd" d="M165.622 71.8536C164.22 73.6085 163.739 75.6921 163.739 76.9304C163.739 78.0786 163.837 79.6737 163.919 80.8174C163.946 81.1972 163.868 81.64 163.536 81.9915C163.201 82.3473 162.744 82.4628 162.336 82.4628C161.746 82.4628 161.298 82.2472 161.012 82.1093L160.978 82.0933C160.658 81.9399 160.49 81.8686 160.243 81.8686C160.018 81.8686 159.744 81.9652 159.526 82.1414C159.305 82.32 159.241 82.4948 159.241 82.5948C159.241 82.7984 159.316 82.9439 159.592 83.1225C159.918 83.3334 160.383 83.492 160.992 83.6917L161.045 83.7091C161.551 83.8748 162.177 84.0801 162.672 84.3882C163.227 84.7342 163.739 85.2901 163.739 86.1466C163.739 86.3711 163.677 86.5872 163.619 86.7508C163.556 86.9284 163.47 87.116 163.375 87.3031C163.183 87.678 162.923 88.1013 162.638 88.5225C162.072 89.3582 161.352 90.2619 160.754 90.8372C160.15 91.4187 159.241 92.0724 158.321 92.5824C157.858 92.8392 157.375 93.0696 156.908 93.2378C156.491 93.3884 156.041 93.5064 155.61 93.5248C155.599 93.5293 155.587 93.5348 155.575 93.541C155.555 93.551 155.536 93.5618 155.52 93.5728L155.512 93.5785C155.513 93.5902 155.515 93.5988 155.517 93.6048C155.52 93.6183 155.524 93.628 155.53 93.638C155.547 93.6686 155.573 93.7027 155.681 93.8183L155.71 93.8487C155.904 94.0579 156.383 94.3293 157.143 94.572C157.866 94.8032 158.721 94.9702 159.529 95.0469C159.934 95.0852 160.167 95.3378 160.265 95.474C160.367 95.6141 160.425 95.762 160.459 95.8602C160.525 96.0503 160.574 96.2844 160.613 96.469L160.619 96.4971C160.673 96.7487 160.719 96.9639 160.78 97.1437C160.802 97.2073 160.822 97.2557 160.839 97.2913C160.877 97.2957 160.936 97.2999 161.022 97.2995C161.394 97.298 161.766 97.2427 162.134 97.1983C162.723 97.1273 163.452 97.0395 164.223 97.0395C166.013 97.0395 167.194 97.8465 168.335 98.626L168.399 98.6698C168.822 98.9581 169.245 99.2467 169.721 99.5279C171.061 100.32 172.082 100.315 172.827 100.31C172.879 100.31 172.931 100.31 172.98 100.31C173.03 100.31 173.08 100.31 173.133 100.31C173.886 100.314 174.941 100.32 176.281 99.5279C176.757 99.2467 177.18 98.9581 177.602 98.6698L177.666 98.626C178.807 97.8465 179.988 97.0395 181.778 97.0395C182.55 97.0395 183.279 97.1273 183.868 97.1983L183.886 97.2004C184.362 97.2578 184.711 97.2984 184.98 97.2995C185.065 97.2999 185.125 97.2957 185.163 97.2913C185.18 97.2557 185.2 97.2073 185.222 97.1437C185.283 96.9639 185.329 96.7487 185.383 96.4971L185.389 96.469C185.428 96.2844 185.477 96.0503 185.543 95.8602C185.577 95.762 185.635 95.6141 185.736 95.474C185.835 95.3378 186.068 95.0852 186.472 95.0469C187.281 94.9702 188.136 94.8032 188.859 94.572C189.619 94.3293 190.098 94.0579 190.292 93.8487L190.32 93.8183C190.428 93.7027 190.455 93.6686 190.472 93.638C190.478 93.628 190.482 93.6183 190.485 93.6048C190.487 93.5988 190.488 93.5901 190.49 93.5785L190.482 93.5728C190.466 93.5618 190.447 93.551 190.427 93.541C190.415 93.5348 190.403 93.5293 190.392 93.5248C189.961 93.5064 189.511 93.3884 189.093 93.2378C188.627 93.0696 188.144 92.8392 187.681 92.5824C186.761 92.0724 185.852 91.4187 185.247 90.8372C184.649 90.2619 183.93 89.3582 183.364 88.5225C183.079 88.1013 182.819 87.678 182.627 87.3031C182.531 87.116 182.446 86.9284 182.383 86.7508C182.325 86.5872 182.262 86.3711 182.262 86.1466C182.262 85.2901 182.775 84.7342 183.33 84.3882C183.824 84.0801 184.451 83.8748 184.957 83.7091L185.01 83.6917C185.619 83.492 186.083 83.3334 186.41 83.1225C186.686 82.9439 186.761 82.7984 186.761 82.5948C186.761 82.4948 186.697 82.32 186.476 82.1414C186.258 81.9652 185.984 81.8686 185.759 81.8686C185.512 81.8686 185.343 81.9399 185.023 82.0933L184.99 82.1093C184.703 82.2472 184.255 82.4628 183.666 82.4628C183.258 82.4628 182.801 82.3473 182.465 81.9915C182.134 81.64 182.056 81.1972 182.083 80.8174C182.165 79.6737 182.262 78.0786 182.262 76.9304C182.262 75.6889 181.791 73.605 180.399 71.8515C179.04 70.1385 176.768 68.6914 173.021 68.6914C169.275 68.6914 166.991 70.1389 165.622 71.8536Z" fill="black" fill-opacity="0.2"/>
<path fill-rule="evenodd" clip-rule="evenodd" d="M165.622 71.8536C164.22 73.6085 163.739 75.6921 163.739 76.9304C163.739 78.0786 163.837 79.6737 163.919 80.8174C163.946 81.1972 163.868 81.64 163.536 81.9915C163.201 82.3473 162.744 82.4628 162.336 82.4628C161.746 82.4628 161.298 82.2472 161.012 82.1093L160.978 82.0933C160.658 81.9399 160.49 81.8686 160.243 81.8686C160.018 81.8686 159.744 81.9652 159.526 82.1414C159.305 82.32 159.241 82.4948 159.241 82.5948C159.241 82.7984 159.316 82.9439 159.592 83.1225C159.918 83.3334 160.383 83.492 160.992 83.6917L161.045 83.7091C161.551 83.8748 162.177 84.0801 162.672 84.3882C163.227 84.7342 163.739 85.2901 163.739 86.1466C163.739 86.3711 163.677 86.5872 163.619 86.7508C163.556 86.9284 163.47 87.116 163.375 87.3031C163.183 87.678 162.923 88.1013 162.638 88.5225C162.072 89.3582 161.352 90.2619 160.754 90.8372C160.15 91.4187 159.241 92.0724 158.321 92.5824C157.858 92.8392 157.375 93.0696 156.908 93.2378C156.491 93.3884 156.041 93.5064 155.61 93.5248C155.599 93.5293 155.587 93.5348 155.575 93.541C155.555 93.551 155.536 93.5618 155.52 93.5728L155.512 93.5785C155.513 93.5902 155.515 93.5988 155.517 93.6048C155.52 93.6183 155.524 93.628 155.53 93.638C155.547 93.6686 155.573 93.7027 155.681 93.8183L155.71 93.8487C155.904 94.0579 156.383 94.3293 157.143 94.572C157.866 94.8032 158.721 94.9702 159.529 95.0469C159.934 95.0852 160.167 95.3378 160.265 95.474C160.367 95.6141 160.425 95.762 160.459 95.8602C160.525 96.0503 160.574 96.2844 160.613 96.469L160.619 96.4971C160.673 96.7487 160.719 96.9639 160.78 97.1437C160.802 97.2073 160.822 97.2557 160.839 97.2913C160.877 97.2957 160.936 97.2999 161.022 97.2995C161.394 97.298 161.766 97.2427 162.134 97.1983C162.723 97.1273 163.452 97.0395 164.223 97.0395C166.013 97.0395 167.194 97.8465 168.335 98.626L168.399 98.6698C168.822 98.9581 169.245 99.2467 169.721 99.5279C171.061 100.32 172.082 100.315 172.827 100.31C172.879 100.31 172.931 100.31 172.98 100.31C173.03 100.31 173.08 100.31 173.133 100.31C173.886 100.314 174.941 100.32 176.281 99.5279C176.757 99.2467 177.18 98.9581 177.602 98.6698L177.666 98.626C178.807 97.8465 179.988 97.0395 181.778 97.0395C182.55 97.0395 183.279 97.1273 183.868 97.1983L183.886 97.2004C184.362 97.2578 184.711 97.2984 184.98 97.2995C185.065 97.2999 185.125 97.2957 185.163 97.2913C185.18 97.2557 185.2 97.2073 185.222 97.1437C185.283 96.9639 185.329 96.7487 185.383 96.4971L185.389 96.469C185.428 96.2844 185.477 96.0503 185.543 95.8602C185.577 95.762 185.635 95.6141 185.736 95.474C185.835 95.3378 186.068 95.0852 186.472 95.0469C187.281 94.9702 188.136 94.8032 188.859 94.572C189.619 94.3293 190.098 94.0579 190.292 93.8487L190.32 93.8183C190.428 93.7027 190.455 93.6686 190.472 93.638C190.478 93.628 190.482 93.6183 190.485 93.6048C190.487 93.5988 190.488 93.5901 190.49 93.5785L190.482 93.5728C190.466 93.5618 190.447 93.551 190.427 93.541C190.415 93.5348 190.403 93.5293 190.392 93.5248C189.961 93.5064 189.511 93.3884 189.093 93.2378C188.627 93.0696 188.144 92.8392 187.681 92.5824C186.761 92.0724 185.852 91.4187 185.247 90.8372C184.649 90.2619 183.93 89.3582 183.364 88.5225C183.079 88.1013 182.819 87.678 182.627 87.3031C182.531 87.116 182.446 86.9284 182.383 86.7508C182.325 86.5872 182.262 86.3711 182.262 86.1466C182.262 85.2901 182.775 84.7342 183.33 84.3882C183.824 84.0801 184.451 83.8748 184.957 83.7091L185.01 83.6917C185.619 83.492 186.083 83.3334 186.41 83.1225C186.686 82.9439 186.761 82.7984 186.761 82.5948C186.761 82.4948 186.697 82.32 186.476 82.1414C186.258 81.9652 185.984 81.8686 185.759 81.8686C185.512 81.8686 185.343 81.9399 185.023 82.0933L184.99 82.1093C184.703 82.2472 184.255 82.4628 183.666 82.4628C183.258 82.4628 182.801 82.3473 182.465 81.9915C182.134 81.64 182.056 81.1972 182.083 80.8174C182.165 79.6737 182.262 78.0786 182.262 76.9304C182.262 75.6889 181.791 73.605 180.399 71.8515C179.04 70.1385 176.768 68.6914 173.021 68.6914C169.275 68.6914 166.991 70.1389 165.622 71.8536Z" fill="black" fill-opacity="0.2"/>
<path fill-rule="evenodd" clip-rule="evenodd" d="M165.622 71.8536C164.22 73.6085 163.739 75.6921 163.739 76.9304C163.739 78.0786 163.837 79.6737 163.919 80.8174C163.946 81.1972 163.868 81.64 163.536 81.9915C163.201 82.3473 162.744 82.4628 162.336 82.4628C161.746 82.4628 161.298 82.2472 161.012 82.1093L160.978 82.0933C160.658 81.9399 160.49 81.8686 160.243 81.8686C160.018 81.8686 159.744 81.9652 159.526 82.1414C159.305 82.32 159.241 82.4948 159.241 82.5948C159.241 82.7984 159.316 82.9439 159.592 83.1225C159.918 83.3334 160.383 83.492 160.992 83.6917L161.045 83.7091C161.551 83.8748 162.177 84.0801 162.672 84.3882C163.227 84.7342 163.739 85.2901 163.739 86.1466C163.739 86.3711 163.677 86.5872 163.619 86.7508C163.556 86.9284 163.47 87.116 163.375 87.3031C163.183 87.678 162.923 88.1013 162.638 88.5225C162.072 89.3582 161.352 90.2619 160.754 90.8372C160.15 91.4187 159.241 92.0724 158.321 92.5824C157.858 92.8392 157.375 93.0696 156.908 93.2378C156.491 93.3884 156.041 93.5064 155.61 93.5248C155.599 93.5293 155.587 93.5348 155.575 93.541C155.555 93.551 155.536 93.5618 155.52 93.5728L155.512 93.5785C155.513 93.5902 155.515 93.5988 155.517 93.6048C155.52 93.6183 155.524 93.628 155.53 93.638C155.547 93.6686 155.573 93.7027 155.681 93.8183L155.71 93.8487C155.904 94.0579 156.383 94.3293 157.143 94.572C157.866 94.8032 158.721 94.9702 159.529 95.0469C159.934 95.0852 160.167 95.3378 160.265 95.474C160.367 95.6141 160.425 95.762 160.459 95.8602C160.525 96.0503 160.574 96.2844 160.613 96.469L160.619 96.4971C160.673 96.7487 160.719 96.9639 160.78 97.1437C160.802 97.2073 160.822 97.2557 160.839 97.2913C160.877 97.2957 160.936 97.2999 161.022 97.2995C161.394 97.298 161.766 97.2427 162.134 97.1983C162.723 97.1273 163.452 97.0395 164.223 97.0395C166.013 97.0395 167.194 97.8465 168.335 98.626L168.399 98.6698C168.822 98.9581 169.245 99.2467 169.721 99.5279C171.061 100.32 172.082 100.315 172.827 100.31C172.879 100.31 172.931 100.31 172.98 100.31C173.03 100.31 173.08 100.31 173.133 100.31C173.886 100.314 174.941 100.32 176.281 99.5279C176.757 99.2467 177.18 98.9581 177.602 98.6698L177.666 98.626C178.807 97.8465 179.988 97.0395 181.778 97.0395C182.55 97.0395 183.279 97.1273 183.868 97.1983L183.886 97.2004C184.362 97.2578 184.711 97.2984 184.98 97.2995C185.065 97.2999 185.125 97.2957 185.163 97.2913C185.18 97.2557 185.2 97.2073 185.222 97.1437C185.283 96.9639 185.329 96.7487 185.383 96.4971L185.389 96.469C185.428 96.2844 185.477 96.0503 185.543 95.8602C185.577 95.762 185.635 95.6141 185.736 95.474C185.835 95.3378 186.068 95.0852 186.472 95.0469C187.281 94.9702 188.136 94.8032 188.859 94.572C189.619 94.3293 190.098 94.0579 190.292 93.8487L190.32 93.8183C190.428 93.7027 190.455 93.6686 190.472 93.638C190.478 93.628 190.482 93.6183 190.485 93.6048C190.487 93.5988 190.488 93.5901 190.49 93.5785L190.482 93.5728C190.466 93.5618 190.447 93.551 190.427 93.541C190.415 93.5348 190.403 93.5293 190.392 93.5248C189.961 93.5064 189.511 93.3884 189.093 93.2378C188.627 93.0696 188.144 92.8392 187.681 92.5824C186.761 92.0724 185.852 91.4187 185.247 90.8372C184.649 90.2619 183.93 89.3582 183.364 88.5225C183.079 88.1013 182.819 87.678 182.627 87.3031C182.531 87.116 182.446 86.9284 182.383 86.7508C182.325 86.5872 182.262 86.3711 182.262 86.1466C182.262 85.2901 182.775 84.7342 183.33 84.3882C183.824 84.0801 184.451 83.8748 184.957 83.7091L185.01 83.6917C185.619 83.492 186.083 83.3334 186.41 83.1225C186.686 82.9439 186.761 82.7984 186.761 82.5948C186.761 82.4948 186.697 82.32 186.476 82.1414C186.258 81.9652 185.984 81.8686 185.759 81.8686C185.512 81.8686 185.343 81.9399 185.023 82.0933L184.99 82.1093C184.703 82.2472 184.255 82.4628 183.666 82.4628C183.258 82.4628 182.801 82.3473 182.465 81.9915C182.134 81.64 182.056 81.1972 182.083 80.8174C182.165 79.6737 182.262 78.0786 182.262 76.9304C182.262 75.6889 181.791 73.605 180.399 71.8515C179.04 70.1385 176.768 68.6914 173.021 68.6914C169.275 68.6914 166.991 70.1389 165.622 71.8536Z" fill="black" fill-opacity="0.2"/>
<path fill-rule="evenodd" clip-rule="evenodd" d="M251.25 100.25C251.25 95.9008 254.776 92.375 259.125 92.375H267V100.25C267 104.599 263.474 108.125 259.125 108.125C254.776 108.125 251.25 104.599 251.25 100.25Z" fill="#0ACF83"/>
<path fill-rule="evenodd" clip-rule="evenodd" d="M267 84.5C267 80.1508 270.526 76.625 274.875 76.625C279.224 76.625 282.75 80.1508 282.75 84.5C282.75 88.8492 279.224 92.375 274.875 92.375C270.526 92.375 267 88.8492 267 84.5Z" fill="#1ABCFE"/>
<path fill-rule="evenodd" clip-rule="evenodd" d="M251.25 84.5C251.25 88.8492 254.776 92.375 259.125 92.375H267V76.625H259.125C254.776 76.625 251.25 80.1508 251.25 84.5Z" fill="#A259FF"/>
<path fill-rule="evenodd" clip-rule="evenodd" d="M267 60.875V76.625H274.875C279.224 76.625 282.75 73.0992 282.75 68.75C282.75 64.4008 279.224 60.875 274.875 60.875H267Z" fill="#FF7262"/>
<path fill-rule="evenodd" clip-rule="evenodd" d="M251.25 68.75C251.25 73.0992 254.776 76.625 259.125 76.625H267V60.875H259.125C254.776 60.875 251.25 64.4008 251.25 68.75Z" fill="#F24E1E"/>
<path d="M60.6246 175.251C58.2086 175.251 56.25 177.209 56.25 179.625C56.25 182.041 58.2088 184 60.6248 184C63.0411 184 65 182.041 65 179.625V175.251H60.6246ZM72.875 175.251C70.4588 175.251 68.5 177.21 68.5 179.626V191.875C68.5 194.291 70.4588 196.25 72.875 196.25C75.2912 196.25 77.25 194.291 77.25 191.875V179.626C77.25 177.21 75.2912 175.251 72.875 175.251Z" fill="#E01E5A"/>
<path d="M80.7508 191.875C80.7508 194.291 82.7093 196.25 85.1254 196.25C87.5414 196.25 89.5 194.291 89.5 191.875C89.5 189.459 87.5412 187.5 85.125 187.5L80.7508 187.5L80.7508 191.875ZM80.7508 179.625C80.7508 182.041 82.7095 184 85.1258 184L97.375 184C99.7912 184 101.75 182.041 101.75 179.625C101.75 177.209 99.7912 175.25 97.375 175.25L85.1257 175.25C82.7095 175.25 80.7508 177.209 80.7508 179.625Z" fill="#ECB22E"/>
<path d="M97.3754 171.749C99.7914 171.749 101.75 169.791 101.75 167.375C101.75 164.959 99.7912 163 97.3752 163C94.9589 163 93 164.959 93 167.375V171.749H97.3754ZM85.125 171.749C87.5412 171.749 89.5 169.79 89.5 167.374V155.125C89.5 152.709 87.5412 150.75 85.125 150.75C82.7088 150.75 80.75 152.709 80.75 155.125V167.374C80.75 169.79 82.7088 171.749 85.125 171.749Z" fill="#2EB67D"/>
<path d="M77.2492 155.125C77.2492 152.709 75.2907 150.75 72.8746 150.75C70.4586 150.75 68.5 152.709 68.5 155.125C68.5 157.541 70.4588 159.5 72.875 159.5L77.2492 159.5L77.2492 155.125ZM77.2492 167.375C77.2492 164.959 75.2905 163 72.8742 163L60.625 163C58.2088 163 56.25 164.959 56.25 167.375C56.25 169.791 58.2088 171.75 60.625 171.75L72.8743 171.75C75.2905 171.75 77.2492 169.791 77.2492 167.375Z" fill="#36C5F0"/>
<path d="M174.171 178.682C170.847 179.933 167.122 179.936 163.797 178.683C162.545 175.362 162.545 171.638 163.795 168.317C167.119 167.064 170.848 167.063 174.172 168.316C175.424 171.637 175.423 175.362 174.171 178.682ZM193.159 169.416H178.849L188.967 159.303C187.379 157.074 185.419 155.116 183.188 153.529L173.069 163.641V149.34C170.369 148.886 167.599 148.887 164.898 149.34V163.641L154.779 153.529C152.549 155.115 150.588 157.076 149 159.303L159.12 169.416H144.809C144.456 172.196 144.341 174.808 144.809 177.582H159.12L149 187.695C150.592 189.928 152.545 191.879 154.779 193.47L164.898 183.357V197.659C167.599 198.111 170.368 198.111 173.069 197.659V183.357L183.189 193.47C185.421 191.882 187.378 189.925 188.967 187.695L178.847 177.582H193.159C193.614 174.886 193.614 172.113 193.159 169.416Z" fill="#FF4A00"/>
<path d="M238.857 185.324V185.329L238.999 185.712C238.983 185.667 238.93 185.532 238.857 185.324Z" fill="#69C9D0"/>
<path d="M245.788 180.138C246.061 177.874 246.99 176.606 248.74 175.306C251.244 173.546 254.372 174.542 254.372 174.542V168.635C255.132 168.616 255.893 168.661 256.645 168.77V176.371C256.645 176.371 253.518 175.375 251.014 177.136C249.265 178.435 248.334 179.704 248.062 181.968C248.053 183.198 248.284 184.805 249.347 186.195C249.084 186.06 248.816 185.906 248.543 185.734C246.203 184.162 245.776 181.804 245.788 180.138ZM269.56 157.714C267.838 155.827 267.186 153.921 266.951 152.582H269.118C269.118 152.582 268.686 156.092 271.834 159.544L271.878 159.591C271.029 159.057 270.251 158.427 269.56 157.714ZM279.999 163.065V170.514C279.999 170.514 277.233 170.405 275.187 169.885C272.33 169.157 270.493 168.04 270.493 168.04C270.493 168.04 269.225 167.244 269.122 167.188V182.569C269.122 183.425 268.888 185.564 268.173 187.348C267.239 189.681 265.799 191.213 265.534 191.526C265.534 191.526 263.782 193.597 260.691 194.991C257.905 196.249 255.459 196.217 254.728 196.249C254.728 196.249 250.499 196.416 246.695 193.943C245.872 193.398 245.104 192.781 244.4 192.099L244.419 192.113C248.225 194.586 252.453 194.418 252.453 194.418C253.185 194.386 255.631 194.418 258.416 193.161C261.504 191.766 263.259 189.696 263.259 189.696C263.521 189.383 264.968 187.851 265.898 185.517C266.611 183.734 266.847 181.594 266.847 180.738V165.359C266.95 165.415 268.217 166.212 268.217 166.212C268.217 166.212 270.055 167.329 272.912 168.056C274.959 168.577 277.723 168.685 277.723 168.685V162.849C278.669 163.061 279.475 163.118 279.999 163.065Z" fill="#EE1D52"/>
<path d="M277.727 162.849V168.683C277.727 168.683 274.962 168.575 272.915 168.055C270.058 167.327 268.22 166.21 268.22 166.21C268.22 166.21 266.953 165.414 266.85 165.357V180.74C266.85 181.596 266.616 183.736 265.901 185.518C264.967 187.853 263.527 189.385 263.262 189.698C263.262 189.698 261.509 191.768 258.419 193.162C255.634 194.42 253.188 194.388 252.456 194.42C252.456 194.42 248.228 194.588 244.422 192.115L244.403 192.101C244.002 191.712 243.623 191.301 243.271 190.871C242.056 189.39 241.312 187.639 241.125 187.139C241.124 187.137 241.124 187.135 241.125 187.133C240.824 186.265 240.191 184.18 240.278 182.16C240.43 178.597 241.684 176.41 242.015 175.862C242.893 174.368 244.034 173.032 245.389 171.912C246.584 170.945 247.939 170.176 249.398 169.636C250.975 169.002 252.664 168.663 254.374 168.635V174.542C254.374 174.542 251.246 173.55 248.743 175.306C246.993 176.606 246.064 177.874 245.791 180.138C245.779 181.804 246.206 184.162 248.544 185.735C248.817 185.908 249.085 186.062 249.348 186.196C249.756 186.727 250.254 187.189 250.82 187.565C253.104 189.011 255.019 189.112 257.467 188.173C259.099 187.545 260.328 186.13 260.897 184.562C261.255 183.583 261.251 182.597 261.251 181.578V152.582H266.948C267.183 153.921 267.835 155.827 269.557 157.714C270.248 158.427 271.027 159.057 271.875 159.591C272.126 159.85 273.408 161.132 275.053 161.92C275.904 162.327 276.801 162.638 277.727 162.849Z" fill="#FCFCFC"/>
<path d="M249.397 169.635C247.939 170.175 246.584 170.944 245.388 171.91C244.033 173.033 242.892 174.372 242.016 175.869C241.684 176.415 240.431 178.604 240.278 182.167C240.191 184.187 240.824 186.272 241.125 187.14C241.124 187.142 241.124 187.144 241.125 187.146C241.315 187.641 242.056 189.392 243.271 190.878C243.624 191.308 244.002 191.719 244.404 192.108C243.116 191.255 241.968 190.223 240.997 189.047C239.793 187.579 239.05 185.846 238.856 185.334C238.856 185.331 238.856 185.327 238.856 185.323V185.317C238.554 184.45 237.92 182.364 238.008 180.342C238.161 176.778 239.415 174.592 239.746 174.044C240.622 172.547 241.764 171.207 243.119 170.085C244.314 169.118 245.669 168.349 247.128 167.809C248.038 167.448 248.986 167.181 249.956 167.013C251.417 166.769 252.91 166.747 254.378 166.95V168.634C252.666 168.661 250.976 169.001 249.397 169.635Z" fill="#69C9D0"/>
<path d="M266.952 152.581H261.254V181.578C261.254 182.597 261.254 183.58 260.901 184.562C260.326 186.129 259.102 187.544 257.47 188.172C255.021 189.115 253.107 189.011 250.823 187.564C250.256 187.19 249.758 186.729 249.348 186.199C251.293 187.194 253.035 187.177 255.192 186.347C256.823 185.719 258.049 184.303 258.622 182.735C258.981 181.756 258.976 180.77 258.976 179.752V150.75H266.843C266.843 150.75 266.755 151.471 266.952 152.581ZM277.725 161.234V162.848C276.802 162.637 275.907 162.325 275.057 161.919C273.412 161.131 272.13 159.849 271.879 159.59C272.17 159.773 272.472 159.939 272.783 160.089C274.784 161.046 276.754 161.332 277.725 161.234Z" fill="#69C9D0"/>
<defs>
<linearGradient id="paint0_linear_1270_22799" x1="74.8198" y1="63.3973" x2="74.0244" y2="74.2266" gradientUnits="userSpaceOnUse">
<stop stop-color="white" stop-opacity="0.65"/>
<stop offset="1" stop-color="white" stop-opacity="0.01"/>
</linearGradient>
<linearGradient id="paint1_linear_1270_22799" x1="80.631" y1="69.5928" x2="86.231" y2="74.4977" gradientUnits="userSpaceOnUse">
<stop stop-opacity="0.01"/>
<stop offset="1" stop-opacity="0.4"/>
</linearGradient>
<linearGradient id="paint2_linear_1270_22799" x1="78.3851" y1="75.2699" x2="84.3125" y2="69.7489" gradientUnits="userSpaceOnUse">
<stop stop-opacity="0.01"/>
<stop offset="1" stop-opacity="0.4"/>
</linearGradient>
<linearGradient id="paint3_linear_1270_22799" x1="70.8415" y1="59.1566" x2="47.8188" y2="85.6838" gradientUnits="userSpaceOnUse">
<stop stop-color="#B8D26E"/>
<stop offset="1" stop-color="#7FB525"/>
</linearGradient>
<linearGradient id="paint4_linear_1270_22799" x1="64.7532" y1="83.4873" x2="54.3939" y2="108.714" gradientUnits="userSpaceOnUse">
<stop stop-color="white"/>
<stop offset="1" stop-color="#CECEEB"/>
</linearGradient>
<linearGradient id="paint5_linear_1270_22799" x1="70.1007" y1="70.9949" x2="68.1873" y2="72.6393" gradientUnits="userSpaceOnUse">
<stop stop-opacity="0.01"/>
<stop offset="1" stop-opacity="0.4"/>
</linearGradient>
<linearGradient id="paint6_linear_1270_22799" x1="81.5101" y1="66.651" x2="78.7882" y2="68.116" gradientUnits="userSpaceOnUse">
<stop stop-opacity="0.01"/>
<stop offset="1" stop-opacity="0.4"/>
</linearGradient>
<linearGradient id="paint7_linear_1270_22799" x1="102.337" y1="65.7987" x2="89.7014" y2="66.0334" gradientUnits="userSpaceOnUse">
<stop stop-color="#B4E034"/>
<stop offset="1" stop-color="#60A927"/>
</linearGradient>
<linearGradient id="paint8_linear_1270_22799" x1="79.6061" y1="145.614" x2="96.0131" y2="145.581" gradientUnits="userSpaceOnUse">
<stop stop-color="#1D1D1B" stop-opacity="0.5"/>
<stop offset="0.038033" stop-color="#1D1D1B" stop-opacity="0.4837"/>
<stop offset="0.4243" stop-color="#1D1D1B" stop-opacity="0.3185"/>
<stop offset="1" stop-color="#1D1D1B" stop-opacity="0.01"/>
</linearGradient>
<linearGradient id="paint9_linear_1270_22799" x1="88.7642" y1="104.214" x2="88.9579" y2="106.768" gradientUnits="userSpaceOnUse">
<stop stop-opacity="0.01"/>
<stop offset="1" stop-opacity="0.4"/>
</linearGradient>
<linearGradient id="paint10_linear_1270_22799" x1="84.2414" y1="100.476" x2="84.6905" y2="107.115" gradientUnits="userSpaceOnUse">
<stop stop-color="white" stop-opacity="0.5"/>
<stop offset="0.0896271" stop-color="white" stop-opacity="0.4552"/>
<stop offset="1" stop-color="white" stop-opacity="0.01"/>
</linearGradient>
<linearGradient id="paint11_linear_1270_22799" x1="83.3777" y1="101.508" x2="84.1766" y2="108.6" gradientUnits="userSpaceOnUse">
<stop stop-opacity="0.01"/>
<stop offset="1" stop-opacity="0.4"/>
</linearGradient>
<linearGradient id="paint12_linear_1270_22799" x1="84.196" y1="122.637" x2="102.28" y2="122.674" gradientUnits="userSpaceOnUse">
<stop stop-color="#1D1D1B" stop-opacity="0.5"/>
<stop offset="0.0896271" stop-color="#1D1D1B" stop-opacity="0.4552"/>
<stop offset="1" stop-color="#1D1D1B" stop-opacity="0.01"/>
</linearGradient>
<linearGradient id="paint13_linear_1270_22799" x1="97.1459" y1="69.0531" x2="94.5769" y2="69.6826" gradientUnits="userSpaceOnUse">
<stop stop-color="white" stop-opacity="0.4"/>
<stop offset="1" stop-color="white" stop-opacity="0.01"/>
</linearGradient>
<linearGradient id="paint14_linear_1270_22799" x1="80.2415" y1="60.7069" x2="59.7526" y2="72.5568" gradientUnits="userSpaceOnUse">
<stop stop-color="white" stop-opacity="0.5"/>
<stop offset="1" stop-color="white" stop-opacity="0.01"/>
</linearGradient>
<linearGradient id="paint15_linear_1270_22799" x1="74.0973" y1="107.517" x2="75.4331" y2="101.076" gradientUnits="userSpaceOnUse">
<stop stop-color="#1D1D1B" stop-opacity="0.5"/>
<stop offset="0.0896271" stop-color="#1D1D1B" stop-opacity="0.4552"/>
<stop offset="1" stop-color="#1D1D1B" stop-opacity="0.01"/>
</linearGradient>
<linearGradient id="paint16_linear_1270_22799" x1="81.8217" y1="144.793" x2="98.2875" y2="144.808" gradientUnits="userSpaceOnUse">
<stop stop-color="#1D1D1B" stop-opacity="0.5"/>
<stop offset="1" stop-color="#1D1D1B" stop-opacity="0.01"/>
</linearGradient>
<linearGradient id="paint17_linear_1270_22799" x1="66.7729" y1="64.9131" x2="58.787" y2="95.5948" gradientUnits="userSpaceOnUse">
<stop stop-color="white" stop-opacity="0.5"/>
<stop offset="1" stop-color="white" stop-opacity="0.01"/>
</linearGradient>
<linearGradient id="paint18_linear_1270_22799" x1="66.7729" y1="64.9131" x2="58.787" y2="95.5948" gradientUnits="userSpaceOnUse">
<stop stop-color="white" stop-opacity="0.5"/>
<stop offset="1" stop-color="white" stop-opacity="0.01"/>
</linearGradient>
<linearGradient id="paint19_linear_1270_22799" x1="86.1566" y1="97.0772" x2="79.8445" y2="105.765" gradientUnits="userSpaceOnUse">
<stop stop-color="white" stop-opacity="0.5"/>
<stop offset="0.0896271" stop-color="white" stop-opacity="0.4552"/>
<stop offset="1" stop-color="white" stop-opacity="0.01"/>
</linearGradient>
<linearGradient id="paint20_linear_1270_22799" x1="88.0597" y1="99.0746" x2="87.4348" y2="100.475" gradientUnits="userSpaceOnUse">
<stop stop-opacity="0.01"/>
<stop offset="1" stop-opacity="0.4"/>
</linearGradient>
<linearGradient id="paint21_linear_1270_22799" x1="94.2589" y1="100.924" x2="94.228" y2="101.301" gradientUnits="userSpaceOnUse">
<stop stop-opacity="0.01"/>
<stop offset="1" stop-opacity="0.4"/>
</linearGradient>
<linearGradient id="paint22_linear_1270_22799" x1="71.5267" y1="61.0806" x2="68.798" y2="71.8605" gradientUnits="userSpaceOnUse">
<stop stop-color="white" stop-opacity="0.65"/>
<stop offset="1" stop-color="white" stop-opacity="0.01"/>
</linearGradient>
<linearGradient id="paint23_linear_1270_22799" x1="74.5991" y1="74.4076" x2="81.1576" y2="67.672" gradientUnits="userSpaceOnUse">
<stop stop-opacity="0.01"/>
<stop offset="1" stop-opacity="0.4"/>
</linearGradient>
<linearGradient id="paint24_linear_1270_22799" x1="77.633" y1="67.3001" x2="82.3799" y2="72.1261" gradientUnits="userSpaceOnUse">
<stop stop-opacity="0.01"/>
<stop offset="1" stop-opacity="0.4"/>
</linearGradient>
</defs>
</svg>
