<svg width="345" height="258" viewBox="0 0 345 258" fill="none" xmlns="http://www.w3.org/2000/svg">
<rect width="344.667" height="258" fill="#13171E"/>
<path d="M137 74H98C83.0883 74 71 86.0883 71 101V125.795M71 125.795C71 125.795 111.225 125.795 137 125.795M71 125.795V121.278V152C71 166.912 83.0883 179 98 179H137" stroke="#303B49" stroke-linecap="round" stroke-linejoin="round"/>
<rect x="134" y="52" width="109" height="43" rx="8" fill="black"/>
<path d="M163.004 79.1367C162.138 79.1367 161.366 78.9248 160.687 78.501C160.007 78.0771 159.474 77.4756 159.087 76.6963C158.7 75.9124 158.506 74.985 158.506 73.9141C158.506 72.8385 158.7 71.9089 159.087 71.125C159.474 70.3411 160.007 69.7373 160.687 69.3135C161.366 68.8896 162.138 68.6777 163.004 68.6777C163.514 68.6777 163.995 68.7529 164.446 68.9033C164.902 69.0537 165.312 69.2725 165.677 69.5596C166.041 69.8421 166.344 70.1908 166.586 70.6055C166.832 71.0156 167.001 71.4805 167.092 72H165.861C165.788 71.6445 165.661 71.3324 165.479 71.0635C165.301 70.7946 165.082 70.569 164.822 70.3867C164.567 70.1999 164.285 70.0609 163.975 69.9697C163.665 69.874 163.341 69.8262 163.004 69.8262C162.389 69.8262 161.83 69.9834 161.329 70.2979C160.828 70.6077 160.429 71.068 160.133 71.6787C159.841 72.2848 159.695 73.0299 159.695 73.9141C159.695 74.7936 159.841 75.5365 160.133 76.1426C160.429 76.7487 160.828 77.209 161.329 77.5234C161.83 77.8333 162.389 77.9883 163.004 77.9883C163.341 77.9883 163.665 77.9427 163.975 77.8516C164.285 77.7559 164.567 77.6169 164.822 77.4346C165.082 77.2477 165.301 77.0199 165.479 76.751C165.661 76.4821 165.788 76.1699 165.861 75.8145H167.092C167.001 76.3385 166.832 76.8057 166.586 77.2158C166.344 77.626 166.041 77.9746 165.677 78.2617C165.312 78.5443 164.902 78.7607 164.446 78.9111C163.995 79.0615 163.514 79.1367 163.004 79.1367ZM171.371 79.1641C170.683 79.1641 170.079 79 169.56 78.6719C169.04 78.3438 168.634 77.8835 168.343 77.291C168.056 76.6986 167.912 76.0104 167.912 75.2266C167.912 74.429 168.056 73.734 168.343 73.1416C168.634 72.5446 169.04 72.082 169.56 71.7539C170.079 71.4258 170.683 71.2617 171.371 71.2617C172.064 71.2617 172.67 71.4258 173.189 71.7539C173.709 72.082 174.115 72.5446 174.406 73.1416C174.698 73.734 174.844 74.429 174.844 75.2266C174.844 76.0104 174.698 76.6986 174.406 77.291C174.115 77.8835 173.709 78.3438 173.189 78.6719C172.67 79 172.064 79.1641 171.371 79.1641ZM171.371 78.1113C171.9 78.1113 172.333 77.9769 172.67 77.708C173.007 77.4391 173.258 77.0859 173.422 76.6484C173.586 76.2064 173.668 75.7324 173.668 75.2266C173.668 74.7116 173.586 74.2331 173.422 73.791C173.258 73.349 173.007 72.9935 172.67 72.7246C172.333 72.4512 171.9 72.3145 171.371 72.3145C170.852 72.3145 170.423 72.4512 170.086 72.7246C169.749 72.9935 169.498 73.349 169.334 73.791C169.17 74.2331 169.088 74.7116 169.088 75.2266C169.088 75.7324 169.17 76.2064 169.334 76.6484C169.498 77.0859 169.749 77.4391 170.086 77.708C170.423 77.9769 170.852 78.1113 171.371 78.1113ZM175.979 79V71.3574H177.1V72.5605H177.209C177.368 72.1504 177.626 71.8314 177.981 71.6035C178.337 71.3757 178.763 71.2617 179.26 71.2617C179.761 71.2617 180.178 71.3757 180.511 71.6035C180.848 71.8314 181.11 72.1504 181.297 72.5605H181.379C181.579 72.1641 181.873 71.8496 182.261 71.6172C182.653 71.3802 183.12 71.2617 183.662 71.2617C184.346 71.2617 184.906 71.4759 185.344 71.9043C185.781 72.3281 186 72.9889 186 73.8867V79H184.824V73.8867C184.824 73.3216 184.669 72.9183 184.359 72.6768C184.049 72.4352 183.685 72.3145 183.266 72.3145C182.732 72.3145 182.318 72.4785 182.021 72.8066C181.73 73.1302 181.584 73.5358 181.584 74.0234V79H180.381V73.7637C180.381 73.3307 180.242 72.9821 179.964 72.7178C179.686 72.4489 179.324 72.3145 178.877 72.3145C178.572 72.3145 178.287 72.3965 178.022 72.5605C177.758 72.7246 177.544 72.9502 177.38 73.2373C177.22 73.5244 177.141 73.8548 177.141 74.2285V79H175.979ZM187.504 81.8574V71.3574H188.625V72.5742H188.762C188.848 72.4421 188.969 72.2734 189.124 72.0684C189.279 71.8587 189.502 71.6719 189.794 71.5078C190.086 71.3438 190.48 71.2617 190.977 71.2617C191.619 71.2617 192.184 71.4235 192.672 71.7471C193.16 72.0661 193.54 72.5218 193.813 73.1143C194.091 73.7021 194.23 74.3971 194.23 75.1992C194.23 76.0059 194.094 76.7077 193.82 77.3047C193.547 77.8971 193.166 78.3551 192.679 78.6787C192.191 79.0023 191.628 79.1641 190.99 79.1641C190.503 79.1641 190.111 79.082 189.814 78.918C189.518 78.7493 189.29 78.5602 189.131 78.3506C188.971 78.1364 188.848 77.9609 188.762 77.8242H188.666V81.8574H187.504ZM190.84 78.1113C191.327 78.1113 191.735 77.9814 192.063 77.7217C192.392 77.4574 192.638 77.1042 192.802 76.6621C192.97 76.2201 193.055 75.7279 193.055 75.1855C193.055 74.6478 192.973 74.1624 192.809 73.7295C192.645 73.2965 192.398 72.9525 192.07 72.6973C191.747 72.4421 191.337 72.3145 190.84 72.3145C190.361 72.3145 189.96 72.4352 189.637 72.6768C189.313 72.9137 189.067 73.2487 188.898 73.6816C188.734 74.11 188.652 74.6113 188.652 75.1855C188.652 75.7598 188.737 76.2679 188.905 76.71C189.074 77.1475 189.32 77.4915 189.644 77.7422C189.972 77.9883 190.37 78.1113 190.84 78.1113ZM200.178 75.8828V71.3574H201.34V79H200.178V77.7012H200.096C199.913 78.0885 199.633 78.4189 199.255 78.6924C198.881 78.9658 198.405 79.1003 197.826 79.0957C197.348 79.0957 196.924 78.9932 196.555 78.7881C196.186 78.5785 195.894 78.2594 195.68 77.8311C195.47 77.4027 195.365 76.8626 195.365 76.2109V71.3574H196.527V76.1426C196.527 76.694 196.685 77.1361 196.999 77.4688C197.318 77.8014 197.721 77.9655 198.209 77.9609C198.501 77.9609 198.797 77.888 199.098 77.7422C199.403 77.5918 199.658 77.3639 199.863 77.0586C200.073 76.7487 200.178 76.3568 200.178 75.8828ZM206.152 71.3574V72.3555H202.201V71.3574H206.152ZM203.35 69.5391H204.512V76.8125C204.512 77.209 204.594 77.5007 204.758 77.6875C204.922 77.8698 205.182 77.9609 205.537 77.9609C205.615 77.9609 205.694 77.9564 205.776 77.9473C205.863 77.9382 205.956 77.9245 206.057 77.9062L206.303 78.959C206.193 79 206.059 79.0319 205.899 79.0547C205.744 79.082 205.587 79.0957 205.428 79.0957C204.812 79.0957 204.311 78.9134 203.924 78.5488C203.541 78.1842 203.35 77.7103 203.35 77.127V69.5391ZM209.516 79.1777C209.033 79.1777 208.593 79.0866 208.196 78.9043C207.8 78.7174 207.485 78.4486 207.253 78.0977C207.021 77.7467 206.904 77.3229 206.904 76.8262C206.904 76.3887 206.991 76.0355 207.164 75.7666C207.337 75.4932 207.567 75.279 207.854 75.124C208.146 74.9645 208.465 74.846 208.812 74.7686C209.162 74.6911 209.516 74.6296 209.871 74.584C210.336 74.5247 210.712 74.4792 210.999 74.4473C211.291 74.4154 211.503 74.3607 211.635 74.2832C211.771 74.2057 211.84 74.0736 211.84 73.8867V73.8457C211.84 73.3581 211.705 72.9798 211.437 72.7109C211.172 72.4375 210.769 72.3008 210.227 72.3008C209.671 72.3008 209.233 72.4238 208.914 72.6699C208.595 72.9115 208.372 73.1712 208.244 73.4492L207.123 73.0527C207.324 72.5879 207.59 72.2256 207.923 71.9658C208.26 71.7061 208.625 71.5238 209.017 71.4189C209.413 71.3141 209.803 71.2617 210.186 71.2617C210.432 71.2617 210.714 71.2913 211.033 71.3506C211.352 71.4053 211.662 71.5238 211.963 71.7061C212.268 71.8838 212.519 72.1549 212.715 72.5195C212.915 72.8796 213.016 73.3626 213.016 73.9688V79H211.84V77.9609H211.785C211.708 78.125 211.576 78.3027 211.389 78.4941C211.202 78.681 210.953 78.8428 210.644 78.9795C210.338 79.1117 209.962 79.1777 209.516 79.1777ZM209.693 78.125C210.158 78.125 210.55 78.0339 210.869 77.8516C211.188 77.6693 211.43 77.4346 211.594 77.1475C211.758 76.8558 211.84 76.5527 211.84 76.2383V75.1582C211.79 75.2174 211.68 75.2721 211.512 75.3223C211.348 75.3678 211.156 75.4089 210.938 75.4453C210.723 75.4818 210.514 75.5137 210.309 75.541C210.104 75.5638 209.939 75.582 209.816 75.5957C209.511 75.6367 209.226 75.7028 208.962 75.7939C208.698 75.8805 208.483 76.0104 208.319 76.1836C208.16 76.3568 208.08 76.5938 208.08 76.8945C208.08 77.3001 208.23 77.6077 208.531 77.8174C208.837 78.0225 209.224 78.125 209.693 78.125ZM214.52 79V71.3574H215.641V72.5195H215.723C215.864 72.1413 216.117 71.8359 216.481 71.6035C216.851 71.3665 217.263 71.248 217.719 71.248C217.805 71.248 217.912 71.2503 218.04 71.2549C218.168 71.2549 218.266 71.2572 218.334 71.2617V72.4512C218.293 72.4421 218.202 72.4284 218.061 72.4102C217.919 72.3919 217.769 72.3828 217.609 72.3828C217.24 72.3828 216.91 72.4603 216.618 72.6152C216.326 72.7702 216.096 72.9821 215.928 73.251C215.764 73.5199 215.682 73.8275 215.682 74.1738V79H214.52Z" fill="#FCFCFC" fill-opacity="0.6"/>
<rect x="134" y="104" width="109" height="43" rx="8" fill="black"/>
<path d="M168.902 120.814H170.379L173.838 129.264H173.961L177.42 120.814H178.944V131H177.734V123.262H177.639L174.433 131H173.325L170.16 123.262H170.064V131H168.902V120.814ZM183.695 131.164C183.007 131.164 182.403 131 181.884 130.672C181.364 130.344 180.959 129.883 180.667 129.291C180.38 128.699 180.236 128.01 180.236 127.227C180.236 126.429 180.38 125.734 180.667 125.142C180.959 124.545 181.364 124.082 181.884 123.754C182.403 123.426 183.007 123.262 183.695 123.262C184.388 123.262 184.994 123.426 185.514 123.754C186.033 124.082 186.439 124.545 186.73 125.142C187.022 125.734 187.168 126.429 187.168 127.227C187.168 128.01 187.022 128.699 186.73 129.291C186.439 129.883 186.033 130.344 185.514 130.672C184.994 131 184.388 131.164 183.695 131.164ZM183.695 130.111C184.224 130.111 184.657 129.977 184.994 129.708C185.331 129.439 185.582 129.086 185.746 128.648C185.91 128.206 185.992 127.732 185.992 127.227C185.992 126.712 185.91 126.233 185.746 125.791C185.582 125.349 185.331 124.993 184.994 124.725C184.657 124.451 184.224 124.314 183.695 124.314C183.176 124.314 182.747 124.451 182.41 124.725C182.073 124.993 181.822 125.349 181.658 125.791C181.494 126.233 181.412 126.712 181.412 127.227C181.412 127.732 181.494 128.206 181.658 128.648C181.822 129.086 182.073 129.439 182.41 129.708C182.747 129.977 183.176 130.111 183.695 130.111ZM191.789 131.164C191.301 131.164 190.91 131.082 190.613 130.918C190.317 130.749 190.089 130.56 189.93 130.351C189.77 130.136 189.647 129.961 189.561 129.824H189.424V131H188.303V120.814H189.465V124.574H189.561C189.647 124.442 189.768 124.273 189.923 124.068C190.078 123.859 190.301 123.672 190.593 123.508C190.884 123.344 191.279 123.262 191.775 123.262C192.418 123.262 192.983 123.424 193.471 123.747C193.958 124.066 194.339 124.522 194.612 125.114C194.89 125.702 195.029 126.397 195.029 127.199C195.029 128.006 194.893 128.708 194.619 129.305C194.346 129.897 193.965 130.355 193.478 130.679C192.99 131.002 192.427 131.164 191.789 131.164ZM191.639 130.111C192.126 130.111 192.534 129.981 192.862 129.722C193.19 129.457 193.437 129.104 193.601 128.662C193.769 128.22 193.854 127.728 193.854 127.186C193.854 126.648 193.771 126.162 193.607 125.729C193.443 125.297 193.197 124.952 192.869 124.697C192.546 124.442 192.135 124.314 191.639 124.314C191.16 124.314 190.759 124.435 190.436 124.677C190.112 124.914 189.866 125.249 189.697 125.682C189.533 126.11 189.451 126.611 189.451 127.186C189.451 127.76 189.535 128.268 189.704 128.71C189.873 129.147 190.119 129.492 190.442 129.742C190.771 129.988 191.169 130.111 191.639 130.111ZM196.164 131V123.357H197.326V131H196.164ZM196.752 122.086C196.524 122.086 196.328 122.008 196.164 121.854C196 121.699 195.918 121.512 195.918 121.293C195.918 121.074 196 120.887 196.164 120.732C196.328 120.577 196.524 120.5 196.752 120.5C196.98 120.5 197.176 120.577 197.34 120.732C197.504 120.887 197.586 121.074 197.586 121.293C197.586 121.512 197.504 121.699 197.34 121.854C197.176 122.008 196.98 122.086 196.752 122.086ZM199.992 120.814V131H198.83V120.814H199.992ZM204.695 131.164C203.962 131.164 203.326 131 202.788 130.672C202.255 130.344 201.845 129.886 201.558 129.298C201.271 128.705 201.127 128.02 201.127 127.24C201.127 126.456 201.268 125.766 201.551 125.169C201.833 124.572 202.23 124.105 202.74 123.768C203.255 123.43 203.857 123.262 204.545 123.262C204.941 123.262 205.336 123.328 205.728 123.46C206.119 123.592 206.475 123.806 206.794 124.103C207.118 124.399 207.375 124.791 207.566 125.278C207.758 125.766 207.854 126.365 207.854 127.076V127.582H201.961V126.57H207.218L206.678 126.953C206.678 126.443 206.598 125.989 206.438 125.593C206.279 125.196 206.04 124.884 205.721 124.656C205.406 124.428 205.014 124.314 204.545 124.314C204.076 124.314 203.672 124.431 203.335 124.663C203.002 124.891 202.747 125.189 202.569 125.559C202.392 125.928 202.303 126.324 202.303 126.748V127.418C202.303 127.997 202.403 128.487 202.604 128.888C202.804 129.289 203.084 129.594 203.444 129.804C203.804 130.009 204.221 130.111 204.695 130.111C205.001 130.111 205.279 130.068 205.529 129.981C205.78 129.89 205.996 129.756 206.179 129.578C206.361 129.396 206.5 129.173 206.596 128.908L207.73 129.236C207.612 129.619 207.411 129.956 207.129 130.248C206.851 130.535 206.505 130.761 206.09 130.925C205.675 131.084 205.21 131.164 204.695 131.164Z" fill="#FCFCFC" fill-opacity="0.6"/>
<rect x="134" y="156" width="109" height="43" rx="8" fill="black"/>
<path d="M177.342 173.908V172.814H184.984V173.908H181.785V183H180.555V173.908H177.342ZM187.281 183.178C186.798 183.178 186.358 183.087 185.962 182.904C185.565 182.717 185.251 182.449 185.019 182.098C184.786 181.747 184.67 181.323 184.67 180.826C184.67 180.389 184.757 180.035 184.93 179.767C185.103 179.493 185.333 179.279 185.62 179.124C185.912 178.965 186.231 178.846 186.577 178.769C186.928 178.691 187.281 178.63 187.637 178.584C188.102 178.525 188.478 178.479 188.765 178.447C189.056 178.415 189.268 178.361 189.4 178.283C189.537 178.206 189.605 178.074 189.605 177.887V177.846C189.605 177.358 189.471 176.98 189.202 176.711C188.938 176.438 188.535 176.301 187.992 176.301C187.436 176.301 186.999 176.424 186.68 176.67C186.361 176.911 186.137 177.171 186.01 177.449L184.889 177.053C185.089 176.588 185.356 176.226 185.688 175.966C186.026 175.706 186.39 175.524 186.782 175.419C187.179 175.314 187.568 175.262 187.951 175.262C188.197 175.262 188.48 175.291 188.799 175.351C189.118 175.405 189.428 175.524 189.729 175.706C190.034 175.884 190.285 176.155 190.48 176.52C190.681 176.88 190.781 177.363 190.781 177.969V183H189.605V181.961H189.551C189.473 182.125 189.341 182.303 189.154 182.494C188.967 182.681 188.719 182.843 188.409 182.979C188.104 183.112 187.728 183.178 187.281 183.178ZM187.459 182.125C187.924 182.125 188.316 182.034 188.635 181.852C188.954 181.669 189.195 181.435 189.359 181.147C189.523 180.856 189.605 180.553 189.605 180.238V179.158C189.555 179.217 189.446 179.272 189.277 179.322C189.113 179.368 188.922 179.409 188.703 179.445C188.489 179.482 188.279 179.514 188.074 179.541C187.869 179.564 187.705 179.582 187.582 179.596C187.277 179.637 186.992 179.703 186.728 179.794C186.463 179.881 186.249 180.01 186.085 180.184C185.925 180.357 185.846 180.594 185.846 180.895C185.846 181.3 185.996 181.608 186.297 181.817C186.602 182.022 186.99 182.125 187.459 182.125ZM195.771 183.164C195.284 183.164 194.892 183.082 194.596 182.918C194.299 182.749 194.072 182.56 193.912 182.351C193.753 182.136 193.63 181.961 193.543 181.824H193.406V183H192.285V172.814H193.447V176.574H193.543C193.63 176.442 193.75 176.273 193.905 176.068C194.06 175.859 194.284 175.672 194.575 175.508C194.867 175.344 195.261 175.262 195.758 175.262C196.4 175.262 196.965 175.424 197.453 175.747C197.941 176.066 198.321 176.522 198.595 177.114C198.873 177.702 199.012 178.397 199.012 179.199C199.012 180.006 198.875 180.708 198.602 181.305C198.328 181.897 197.948 182.355 197.46 182.679C196.972 183.002 196.41 183.164 195.771 183.164ZM195.621 182.111C196.109 182.111 196.517 181.981 196.845 181.722C197.173 181.457 197.419 181.104 197.583 180.662C197.752 180.22 197.836 179.728 197.836 179.186C197.836 178.648 197.754 178.162 197.59 177.729C197.426 177.297 197.18 176.952 196.852 176.697C196.528 176.442 196.118 176.314 195.621 176.314C195.143 176.314 194.742 176.435 194.418 176.677C194.094 176.914 193.848 177.249 193.68 177.682C193.516 178.11 193.434 178.611 193.434 179.186C193.434 179.76 193.518 180.268 193.687 180.71C193.855 181.147 194.101 181.492 194.425 181.742C194.753 181.988 195.152 182.111 195.621 182.111Z" fill="#FCFCFC" fill-opacity="0.6"/>
</svg>
