<svg width="1086" height="800" viewBox="0 0 1086 800" fill="none" xmlns="http://www.w3.org/2000/svg">
<path d="M-279 -81H-278V-80H-279V-81Z" fill="white"/>
<path d="M-279 -50H-278V-49H-279V-50Z" fill="white"/>
<path d="M-279 -19H-278V-18H-279V-19Z" fill="white"/>
<path d="M-279 12H-278V13H-279V12Z" fill="white"/>
<path d="M-279 43H-278V44H-279V43Z" fill="white"/>
<path d="M-279 74H-278V75H-279V74Z" fill="white"/>
<path d="M-279 105H-278V106H-279V105Z" fill="white"/>
<path d="M-279 136H-278V137H-279V136Z" fill="white"/>
<path d="M-279 167H-278V168H-279V167Z" fill="white"/>
<path d="M-279 198H-278V199H-279V198Z" fill="white"/>
<path d="M-279 229H-278V230H-279V229Z" fill="white"/>
<path d="M-279 260H-278V261H-279V260Z" fill="white"/>
<path d="M-279 291H-278V292H-279V291Z" fill="white"/>
<path d="M-279 322H-278V323H-279V322Z" fill="white"/>
<path d="M-279 353H-278V354H-279V353Z" fill="white"/>
<path d="M-279 384H-278V385H-279V384Z" fill="white"/>
<path d="M-279 415H-278V416H-279V415Z" fill="white"/>
<path d="M-279 446H-278V447H-279V446Z" fill="white"/>
<path d="M-279 477H-278V478H-279V477Z" fill="white"/>
<path d="M-279 508H-278V509H-279V508Z" fill="white"/>
<path d="M-279 539H-278V540H-279V539Z" fill="white"/>
<path d="M-279 570H-278V571H-279V570Z" fill="white"/>
<path d="M-279 601H-278V602H-279V601Z" fill="white"/>
<path d="M-279 632H-278V633H-279V632Z" fill="white"/>
<path d="M-279 663H-278V664H-279V663Z" fill="white"/>
<path d="M-279 694H-278V695H-279V694Z" fill="white"/>
<path d="M-279 725H-278V726H-279V725Z" fill="white"/>
<path d="M-279 756H-278V757H-279V756Z" fill="white"/>
<path d="M-279 787H-278V788H-279V787Z" fill="white"/>
<path d="M-279 818H-278V819H-279V818Z" fill="white"/>
<path d="M-279 849H-278V850H-279V849Z" fill="white"/>
<path d="M-279 880H-278V881H-279V880Z" fill="white"/>
<path d="M-248 -81H-247V-80H-248V-81Z" fill="white"/>
<path d="M-248 -50H-247V-49H-248V-50Z" fill="white"/>
<path d="M-248 -19H-247V-18H-248V-19Z" fill="white"/>
<path d="M-248 12H-247V13H-248V12Z" fill="white"/>
<path d="M-248 43H-247V44H-248V43Z" fill="white"/>
<path d="M-248 74H-247V75H-248V74Z" fill="white"/>
<path d="M-248 105H-247V106H-248V105Z" fill="white"/>
<path d="M-248 136H-247V137H-248V136Z" fill="white"/>
<path d="M-248 167H-247V168H-248V167Z" fill="white"/>
<path d="M-248 198H-247V199H-248V198Z" fill="white"/>
<path d="M-248 229H-247V230H-248V229Z" fill="white"/>
<path d="M-248 260H-247V261H-248V260Z" fill="white"/>
<path d="M-248 291H-247V292H-248V291Z" fill="white"/>
<path d="M-248 322H-247V323H-248V322Z" fill="white"/>
<path d="M-248 353H-247V354H-248V353Z" fill="white"/>
<path d="M-248 384H-247V385H-248V384Z" fill="white"/>
<path d="M-248 415H-247V416H-248V415Z" fill="white"/>
<path d="M-248 446H-247V447H-248V446Z" fill="white"/>
<path d="M-248 477H-247V478H-248V477Z" fill="white"/>
<path d="M-248 508H-247V509H-248V508Z" fill="white"/>
<path d="M-248 539H-247V540H-248V539Z" fill="white"/>
<path d="M-248 570H-247V571H-248V570Z" fill="white"/>
<path d="M-248 601H-247V602H-248V601Z" fill="white"/>
<path d="M-248 632H-247V633H-248V632Z" fill="white"/>
<path d="M-248 663H-247V664H-248V663Z" fill="white"/>
<path d="M-248 694H-247V695H-248V694Z" fill="white"/>
<path d="M-248 725H-247V726H-248V725Z" fill="white"/>
<path d="M-248 756H-247V757H-248V756Z" fill="white"/>
<path d="M-248 787H-247V788H-248V787Z" fill="white"/>
<path d="M-248 818H-247V819H-248V818Z" fill="white"/>
<path d="M-248 849H-247V850H-248V849Z" fill="white"/>
<path d="M-248 880H-247V881H-248V880Z" fill="white"/>
<path d="M-217 -81H-216V-80H-217V-81Z" fill="white"/>
<path d="M-217 -50H-216V-49H-217V-50Z" fill="white"/>
<path d="M-217 -19H-216V-18H-217V-19Z" fill="white"/>
<path d="M-217 12H-216V13H-217V12Z" fill="white"/>
<path d="M-217 43H-216V44H-217V43Z" fill="white"/>
<path d="M-217 74H-216V75H-217V74Z" fill="white"/>
<path d="M-217 105H-216V106H-217V105Z" fill="white"/>
<path d="M-217 136H-216V137H-217V136Z" fill="white"/>
<path d="M-217 167H-216V168H-217V167Z" fill="white"/>
<path d="M-217 198H-216V199H-217V198Z" fill="white"/>
<path d="M-217 229H-216V230H-217V229Z" fill="white"/>
<path d="M-217 260H-216V261H-217V260Z" fill="white"/>
<path d="M-217 291H-216V292H-217V291Z" fill="white"/>
<path d="M-217 322H-216V323H-217V322Z" fill="white"/>
<path d="M-217 353H-216V354H-217V353Z" fill="white"/>
<path d="M-217 384H-216V385H-217V384Z" fill="white"/>
<path d="M-217 415H-216V416H-217V415Z" fill="white"/>
<path d="M-217 446H-216V447H-217V446Z" fill="white"/>
<path d="M-217 477H-216V478H-217V477Z" fill="white"/>
<path d="M-217 508H-216V509H-217V508Z" fill="white"/>
<path d="M-217 539H-216V540H-217V539Z" fill="white"/>
<path d="M-217 570H-216V571H-217V570Z" fill="white"/>
<path d="M-217 601H-216V602H-217V601Z" fill="white"/>
<path d="M-217 632H-216V633H-217V632Z" fill="white"/>
<path d="M-217 663H-216V664H-217V663Z" fill="white"/>
<path d="M-217 694H-216V695H-217V694Z" fill="white"/>
<path d="M-217 725H-216V726H-217V725Z" fill="white"/>
<path d="M-217 756H-216V757H-217V756Z" fill="white"/>
<path d="M-217 787H-216V788H-217V787Z" fill="white"/>
<path d="M-217 818H-216V819H-217V818Z" fill="white"/>
<path d="M-217 849H-216V850H-217V849Z" fill="white"/>
<path d="M-217 880H-216V881H-217V880Z" fill="white"/>
<path d="M-186 -81H-185V-80H-186V-81Z" fill="white"/>
<path d="M-186 -50H-185V-49H-186V-50Z" fill="white"/>
<path d="M-186 -19H-185V-18H-186V-19Z" fill="white"/>
<path d="M-186 12H-185V13H-186V12Z" fill="white"/>
<path d="M-186 43H-185V44H-186V43Z" fill="white"/>
<path d="M-186 74H-185V75H-186V74Z" fill="white"/>
<path d="M-186 105H-185V106H-186V105Z" fill="white"/>
<path d="M-186 136H-185V137H-186V136Z" fill="white"/>
<path d="M-186 167H-185V168H-186V167Z" fill="white"/>
<path d="M-186 198H-185V199H-186V198Z" fill="white"/>
<path d="M-186 229H-185V230H-186V229Z" fill="white"/>
<path d="M-186 260H-185V261H-186V260Z" fill="white"/>
<path d="M-186 291H-185V292H-186V291Z" fill="white"/>
<path d="M-186 322H-185V323H-186V322Z" fill="white"/>
<path d="M-186 353H-185V354H-186V353Z" fill="white"/>
<path d="M-186 384H-185V385H-186V384Z" fill="white"/>
<path d="M-186 415H-185V416H-186V415Z" fill="white"/>
<path d="M-186 446H-185V447H-186V446Z" fill="white"/>
<path d="M-186 477H-185V478H-186V477Z" fill="white"/>
<path d="M-186 508H-185V509H-186V508Z" fill="white"/>
<path d="M-186 539H-185V540H-186V539Z" fill="white"/>
<path d="M-186 570H-185V571H-186V570Z" fill="white"/>
<path d="M-186 601H-185V602H-186V601Z" fill="white"/>
<path d="M-186 632H-185V633H-186V632Z" fill="white"/>
<path d="M-186 663H-185V664H-186V663Z" fill="white"/>
<path d="M-186 694H-185V695H-186V694Z" fill="white"/>
<path d="M-186 725H-185V726H-186V725Z" fill="white"/>
<path d="M-186 756H-185V757H-186V756Z" fill="white"/>
<path d="M-186 787H-185V788H-186V787Z" fill="white"/>
<path d="M-186 818H-185V819H-186V818Z" fill="white"/>
<path d="M-186 849H-185V850H-186V849Z" fill="white"/>
<path d="M-186 880H-185V881H-186V880Z" fill="white"/>
<path d="M-155 -81H-154V-80H-155V-81Z" fill="white"/>
<path d="M-155 -50H-154V-49H-155V-50Z" fill="white"/>
<path d="M-155 -19H-154V-18H-155V-19Z" fill="white"/>
<path d="M-155 12H-154V13H-155V12Z" fill="white"/>
<path d="M-155 43H-154V44H-155V43Z" fill="white"/>
<path d="M-155 74H-154V75H-155V74Z" fill="white"/>
<path d="M-155 105H-154V106H-155V105Z" fill="white"/>
<path d="M-155 136H-154V137H-155V136Z" fill="white"/>
<path d="M-155 167H-154V168H-155V167Z" fill="white"/>
<path d="M-155 198H-154V199H-155V198Z" fill="white"/>
<path d="M-155 229H-154V230H-155V229Z" fill="white"/>
<path d="M-155 260H-154V261H-155V260Z" fill="white"/>
<path d="M-155 291H-154V292H-155V291Z" fill="white"/>
<path d="M-155 322H-154V323H-155V322Z" fill="white"/>
<path d="M-155 353H-154V354H-155V353Z" fill="white"/>
<path d="M-155 384H-154V385H-155V384Z" fill="white"/>
<path d="M-155 415H-154V416H-155V415Z" fill="white"/>
<path d="M-155 446H-154V447H-155V446Z" fill="white"/>
<path d="M-155 477H-154V478H-155V477Z" fill="white"/>
<path d="M-155 508H-154V509H-155V508Z" fill="white"/>
<path d="M-155 539H-154V540H-155V539Z" fill="white"/>
<path d="M-155 570H-154V571H-155V570Z" fill="white"/>
<path d="M-155 601H-154V602H-155V601Z" fill="white"/>
<path d="M-155 632H-154V633H-155V632Z" fill="white"/>
<path d="M-155 663H-154V664H-155V663Z" fill="white"/>
<path d="M-155 694H-154V695H-155V694Z" fill="white"/>
<path d="M-155 725H-154V726H-155V725Z" fill="white"/>
<path d="M-155 756H-154V757H-155V756Z" fill="white"/>
<path d="M-155 787H-154V788H-155V787Z" fill="white"/>
<path d="M-155 818H-154V819H-155V818Z" fill="white"/>
<path d="M-155 849H-154V850H-155V849Z" fill="white"/>
<path d="M-155 880H-154V881H-155V880Z" fill="white"/>
<path d="M-124 -81H-123V-80H-124V-81Z" fill="white"/>
<path d="M-124 -50H-123V-49H-124V-50Z" fill="white"/>
<path d="M-124 -19H-123V-18H-124V-19Z" fill="white"/>
<path d="M-124 12H-123V13H-124V12Z" fill="white"/>
<path d="M-124 43H-123V44H-124V43Z" fill="white"/>
<path d="M-124 74H-123V75H-124V74Z" fill="white"/>
<path d="M-124 105H-123V106H-124V105Z" fill="white"/>
<path d="M-124 136H-123V137H-124V136Z" fill="white"/>
<path d="M-124 167H-123V168H-124V167Z" fill="white"/>
<path d="M-124 198H-123V199H-124V198Z" fill="white"/>
<path d="M-124 229H-123V230H-124V229Z" fill="white"/>
<path d="M-124 260H-123V261H-124V260Z" fill="white"/>
<path d="M-124 291H-123V292H-124V291Z" fill="white"/>
<path d="M-124 322H-123V323H-124V322Z" fill="white"/>
<path d="M-124 353H-123V354H-124V353Z" fill="white"/>
<path d="M-124 384H-123V385H-124V384Z" fill="white"/>
<path d="M-124 415H-123V416H-124V415Z" fill="white"/>
<path d="M-124 446H-123V447H-124V446Z" fill="white"/>
<path d="M-124 477H-123V478H-124V477Z" fill="white"/>
<path d="M-124 508H-123V509H-124V508Z" fill="white"/>
<path d="M-124 539H-123V540H-124V539Z" fill="white"/>
<path d="M-124 570H-123V571H-124V570Z" fill="white"/>
<path d="M-124 601H-123V602H-124V601Z" fill="white"/>
<path d="M-124 632H-123V633H-124V632Z" fill="white"/>
<path d="M-124 663H-123V664H-124V663Z" fill="white"/>
<path d="M-124 694H-123V695H-124V694Z" fill="white"/>
<path d="M-124 725H-123V726H-124V725Z" fill="white"/>
<path d="M-124 756H-123V757H-124V756Z" fill="white"/>
<path d="M-124 787H-123V788H-124V787Z" fill="white"/>
<path d="M-124 818H-123V819H-124V818Z" fill="white"/>
<path d="M-124 849H-123V850H-124V849Z" fill="white"/>
<path d="M-124 880H-123V881H-124V880Z" fill="white"/>
<path d="M-93 -81H-92V-80H-93V-81Z" fill="white"/>
<path d="M-93 -50H-92V-49H-93V-50Z" fill="white"/>
<path d="M-93 -19H-92V-18H-93V-19Z" fill="white"/>
<path d="M-93 12H-92V13H-93V12Z" fill="white"/>
<path d="M-93 43H-92V44H-93V43Z" fill="white"/>
<path d="M-93 74H-92V75H-93V74Z" fill="white"/>
<path d="M-93 105H-92V106H-93V105Z" fill="white"/>
<path d="M-93 136H-92V137H-93V136Z" fill="white"/>
<path d="M-93 167H-92V168H-93V167Z" fill="white"/>
<path d="M-93 198H-92V199H-93V198Z" fill="white"/>
<path d="M-93 229H-92V230H-93V229Z" fill="white"/>
<path d="M-93 260H-92V261H-93V260Z" fill="white"/>
<path d="M-93 291H-92V292H-93V291Z" fill="white"/>
<path d="M-93 322H-92V323H-93V322Z" fill="white"/>
<path d="M-93 353H-92V354H-93V353Z" fill="white"/>
<path d="M-93 384H-92V385H-93V384Z" fill="white"/>
<path d="M-93 415H-92V416H-93V415Z" fill="white"/>
<path d="M-93 446H-92V447H-93V446Z" fill="white"/>
<path d="M-93 477H-92V478H-93V477Z" fill="white"/>
<path d="M-93 508H-92V509H-93V508Z" fill="white"/>
<path d="M-93 539H-92V540H-93V539Z" fill="white"/>
<path d="M-93 570H-92V571H-93V570Z" fill="white"/>
<path d="M-93 601H-92V602H-93V601Z" fill="white"/>
<path d="M-93 632H-92V633H-93V632Z" fill="white"/>
<path d="M-93 663H-92V664H-93V663Z" fill="white"/>
<path d="M-93 694H-92V695H-93V694Z" fill="white"/>
<path d="M-93 725H-92V726H-93V725Z" fill="white"/>
<path d="M-93 756H-92V757H-93V756Z" fill="white"/>
<path d="M-93 787H-92V788H-93V787Z" fill="white"/>
<path d="M-93 818H-92V819H-93V818Z" fill="white"/>
<path d="M-93 849H-92V850H-93V849Z" fill="white"/>
<path d="M-93 880H-92V881H-93V880Z" fill="white"/>
<path d="M-62 -81H-61V-80H-62V-81Z" fill="white"/>
<path d="M-62 -50H-61V-49H-62V-50Z" fill="white"/>
<path d="M-62 -19H-61V-18H-62V-19Z" fill="white"/>
<path d="M-62 12H-61V13H-62V12Z" fill="white"/>
<path d="M-62 43H-61V44H-62V43Z" fill="white"/>
<path d="M-62 74H-61V75H-62V74Z" fill="white"/>
<path d="M-62 105H-61V106H-62V105Z" fill="white"/>
<path d="M-62 136H-61V137H-62V136Z" fill="white"/>
<path d="M-62 167H-61V168H-62V167Z" fill="white"/>
<path d="M-62 198H-61V199H-62V198Z" fill="white"/>
<path d="M-62 229H-61V230H-62V229Z" fill="white"/>
<path d="M-62 260H-61V261H-62V260Z" fill="white"/>
<path d="M-62 291H-61V292H-62V291Z" fill="white"/>
<path d="M-62 322H-61V323H-62V322Z" fill="white"/>
<path d="M-62 353H-61V354H-62V353Z" fill="white"/>
<path d="M-62 384H-61V385H-62V384Z" fill="white"/>
<path d="M-62 415H-61V416H-62V415Z" fill="white"/>
<path d="M-62 446H-61V447H-62V446Z" fill="white"/>
<path d="M-62 477H-61V478H-62V477Z" fill="white"/>
<path d="M-62 508H-61V509H-62V508Z" fill="white"/>
<path d="M-62 539H-61V540H-62V539Z" fill="white"/>
<path d="M-62 570H-61V571H-62V570Z" fill="white"/>
<path d="M-62 601H-61V602H-62V601Z" fill="white"/>
<path d="M-62 632H-61V633H-62V632Z" fill="white"/>
<path d="M-62 663H-61V664H-62V663Z" fill="white"/>
<path d="M-62 694H-61V695H-62V694Z" fill="white"/>
<path d="M-62 725H-61V726H-62V725Z" fill="white"/>
<path d="M-62 756H-61V757H-62V756Z" fill="white"/>
<path d="M-62 787H-61V788H-62V787Z" fill="white"/>
<path d="M-62 818H-61V819H-62V818Z" fill="white"/>
<path d="M-62 849H-61V850H-62V849Z" fill="white"/>
<path d="M-62 880H-61V881H-62V880Z" fill="white"/>
<path d="M-31 -81H-30V-80H-31V-81Z" fill="white"/>
<path d="M-31 -50H-30V-49H-31V-50Z" fill="white"/>
<path d="M-31 -19H-30V-18H-31V-19Z" fill="white"/>
<path d="M-31 12H-30V13H-31V12Z" fill="white"/>
<path d="M-31 43H-30V44H-31V43Z" fill="white"/>
<path d="M-31 74H-30V75H-31V74Z" fill="white"/>
<path d="M-31 105H-30V106H-31V105Z" fill="white"/>
<path d="M-31 136H-30V137H-31V136Z" fill="white"/>
<path d="M-31 167H-30V168H-31V167Z" fill="white"/>
<path d="M-31 198H-30V199H-31V198Z" fill="white"/>
<path d="M-31 229H-30V230H-31V229Z" fill="white"/>
<path d="M-31 260H-30V261H-31V260Z" fill="white"/>
<path d="M-31 291H-30V292H-31V291Z" fill="white"/>
<path d="M-31 322H-30V323H-31V322Z" fill="white"/>
<path d="M-31 353H-30V354H-31V353Z" fill="white"/>
<path d="M-31 384H-30V385H-31V384Z" fill="white"/>
<path d="M-31 415H-30V416H-31V415Z" fill="white"/>
<path d="M-31 446H-30V447H-31V446Z" fill="white"/>
<path d="M-31 477H-30V478H-31V477Z" fill="white"/>
<path d="M-31 508H-30V509H-31V508Z" fill="white"/>
<path d="M-31 539H-30V540H-31V539Z" fill="white"/>
<path d="M-31 570H-30V571H-31V570Z" fill="white"/>
<path d="M-31 601H-30V602H-31V601Z" fill="white"/>
<path d="M-31 632H-30V633H-31V632Z" fill="white"/>
<path d="M-31 663H-30V664H-31V663Z" fill="white"/>
<path d="M-31 694H-30V695H-31V694Z" fill="white"/>
<path d="M-31 725H-30V726H-31V725Z" fill="white"/>
<path d="M-31 756H-30V757H-31V756Z" fill="white"/>
<path d="M-31 787H-30V788H-31V787Z" fill="white"/>
<path d="M-31 818H-30V819H-31V818Z" fill="white"/>
<path d="M-31 849H-30V850H-31V849Z" fill="white"/>
<path d="M-31 880H-30V881H-31V880Z" fill="white"/>
<path d="M0 -81H1V-80H0V-81Z" fill="white"/>
<path d="M0 -50H1V-49H0V-50Z" fill="white"/>
<path d="M0 -19H1V-18H0V-19Z" fill="white"/>
<path d="M0 12H1V13H0V12Z" fill="white"/>
<path d="M0 43H1V44H0V43Z" fill="white"/>
<path d="M0 74H1V75H0V74Z" fill="white"/>
<path d="M0 105H1V106H0V105Z" fill="white"/>
<path d="M0 136H1V137H0V136Z" fill="white"/>
<path d="M0 167H1V168H0V167Z" fill="white"/>
<path d="M0 198H1V199H0V198Z" fill="white"/>
<path d="M0 229H1V230H0V229Z" fill="white"/>
<path d="M0 260H1V261H0V260Z" fill="white"/>
<path d="M0 291H1V292H0V291Z" fill="white"/>
<path d="M0 322H1V323H0V322Z" fill="white"/>
<path d="M0 353H1V354H0V353Z" fill="white"/>
<path d="M0 384H1V385H0V384Z" fill="white"/>
<path d="M0 415H1V416H0V415Z" fill="white"/>
<path d="M0 446H1V447H0V446Z" fill="white"/>
<path d="M0 477H1V478H0V477Z" fill="white"/>
<path d="M0 508H1V509H0V508Z" fill="white"/>
<path d="M0 539H1V540H0V539Z" fill="white"/>
<path d="M0 570H1V571H0V570Z" fill="white"/>
<path d="M0 601H1V602H0V601Z" fill="white"/>
<path d="M0 632H1V633H0V632Z" fill="white"/>
<path d="M0 663H1V664H0V663Z" fill="white"/>
<path d="M0 694H1V695H0V694Z" fill="white"/>
<path d="M0 725H1V726H0V725Z" fill="white"/>
<path d="M0 756H1V757H0V756Z" fill="white"/>
<path d="M0 787H1V788H0V787Z" fill="white"/>
<path d="M0 818H1V819H0V818Z" fill="white"/>
<path d="M0 849H1V850H0V849Z" fill="white"/>
<path d="M0 880H1V881H0V880Z" fill="white"/>
<path d="M31 -81H32V-80H31V-81Z" fill="white"/>
<path d="M31 -50H32V-49H31V-50Z" fill="white"/>
<path d="M31 -19H32V-18H31V-19Z" fill="white"/>
<path d="M31 12H32V13H31V12Z" fill="white"/>
<path d="M31 43H32V44H31V43Z" fill="white"/>
<path d="M31 74H32V75H31V74Z" fill="white"/>
<path d="M31 105H32V106H31V105Z" fill="white"/>
<path d="M31 136H32V137H31V136Z" fill="white"/>
<path d="M31 167H32V168H31V167Z" fill="white"/>
<path d="M31 198H32V199H31V198Z" fill="white"/>
<path d="M31 229H32V230H31V229Z" fill="white"/>
<path d="M31 260H32V261H31V260Z" fill="white"/>
<path d="M31 291H32V292H31V291Z" fill="white"/>
<path d="M31 322H32V323H31V322Z" fill="white"/>
<path d="M31 353H32V354H31V353Z" fill="white"/>
<path d="M31 384H32V385H31V384Z" fill="white"/>
<path d="M31 415H32V416H31V415Z" fill="white"/>
<path d="M31 446H32V447H31V446Z" fill="white"/>
<path d="M31 477H32V478H31V477Z" fill="white"/>
<path d="M31 508H32V509H31V508Z" fill="white"/>
<path d="M31 539H32V540H31V539Z" fill="white"/>
<path d="M31 570H32V571H31V570Z" fill="white"/>
<path d="M31 601H32V602H31V601Z" fill="white"/>
<path d="M31 632H32V633H31V632Z" fill="white"/>
<path d="M31 663H32V664H31V663Z" fill="white"/>
<path d="M31 694H32V695H31V694Z" fill="white"/>
<path d="M31 725H32V726H31V725Z" fill="white"/>
<path d="M31 756H32V757H31V756Z" fill="white"/>
<path d="M31 787H32V788H31V787Z" fill="white"/>
<path d="M31 818H32V819H31V818Z" fill="white"/>
<path d="M31 849H32V850H31V849Z" fill="white"/>
<path d="M31 880H32V881H31V880Z" fill="white"/>
<path d="M62 -81H63V-80H62V-81Z" fill="white"/>
<path d="M62 -50H63V-49H62V-50Z" fill="white"/>
<path d="M62 -19H63V-18H62V-19Z" fill="white"/>
<path d="M62 12H63V13H62V12Z" fill="white"/>
<path d="M62 43H63V44H62V43Z" fill="white"/>
<path d="M62 74H63V75H62V74Z" fill="white"/>
<path d="M62 105H63V106H62V105Z" fill="white"/>
<path d="M62 136H63V137H62V136Z" fill="white"/>
<path d="M62 167H63V168H62V167Z" fill="white"/>
<path d="M62 198H63V199H62V198Z" fill="white"/>
<path d="M62 229H63V230H62V229Z" fill="white"/>
<path d="M62 260H63V261H62V260Z" fill="white"/>
<path d="M62 291H63V292H62V291Z" fill="white"/>
<path d="M62 322H63V323H62V322Z" fill="white"/>
<path d="M62 353H63V354H62V353Z" fill="white"/>
<path d="M62 384H63V385H62V384Z" fill="white"/>
<path d="M62 415H63V416H62V415Z" fill="white"/>
<path d="M62 446H63V447H62V446Z" fill="white"/>
<path d="M62 477H63V478H62V477Z" fill="white"/>
<path d="M62 508H63V509H62V508Z" fill="white"/>
<path d="M62 539H63V540H62V539Z" fill="white"/>
<path d="M62 570H63V571H62V570Z" fill="white"/>
<path d="M62 601H63V602H62V601Z" fill="white"/>
<path d="M62 632H63V633H62V632Z" fill="white"/>
<path d="M62 663H63V664H62V663Z" fill="white"/>
<path d="M62 694H63V695H62V694Z" fill="white"/>
<path d="M62 725H63V726H62V725Z" fill="white"/>
<path d="M62 756H63V757H62V756Z" fill="white"/>
<path d="M62 787H63V788H62V787Z" fill="white"/>
<path d="M62 818H63V819H62V818Z" fill="white"/>
<path d="M62 849H63V850H62V849Z" fill="white"/>
<path d="M62 880H63V881H62V880Z" fill="white"/>
<path d="M93 -81H94V-80H93V-81Z" fill="white"/>
<path d="M93 -50H94V-49H93V-50Z" fill="white"/>
<path d="M93 -19H94V-18H93V-19Z" fill="white"/>
<path d="M93 12H94V13H93V12Z" fill="white"/>
<path d="M93 43H94V44H93V43Z" fill="white"/>
<path d="M93 74H94V75H93V74Z" fill="white"/>
<path d="M93 105H94V106H93V105Z" fill="white"/>
<path d="M93 136H94V137H93V136Z" fill="white"/>
<path d="M93 167H94V168H93V167Z" fill="white"/>
<path d="M93 198H94V199H93V198Z" fill="white"/>
<path d="M93 229H94V230H93V229Z" fill="white"/>
<path d="M93 260H94V261H93V260Z" fill="white"/>
<path d="M93 291H94V292H93V291Z" fill="white"/>
<path d="M93 322H94V323H93V322Z" fill="white"/>
<path d="M93 353H94V354H93V353Z" fill="white"/>
<path d="M93 384H94V385H93V384Z" fill="white"/>
<path d="M93 415H94V416H93V415Z" fill="white"/>
<path d="M93 446H94V447H93V446Z" fill="white"/>
<path d="M93 477H94V478H93V477Z" fill="white"/>
<path d="M93 508H94V509H93V508Z" fill="white"/>
<path d="M93 539H94V540H93V539Z" fill="white"/>
<path d="M93 570H94V571H93V570Z" fill="white"/>
<path d="M93 601H94V602H93V601Z" fill="white"/>
<path d="M93 632H94V633H93V632Z" fill="white"/>
<path d="M93 663H94V664H93V663Z" fill="white"/>
<path d="M93 694H94V695H93V694Z" fill="white"/>
<path d="M93 725H94V726H93V725Z" fill="white"/>
<path d="M93 756H94V757H93V756Z" fill="white"/>
<path d="M93 787H94V788H93V787Z" fill="white"/>
<path d="M93 818H94V819H93V818Z" fill="white"/>
<path d="M93 849H94V850H93V849Z" fill="white"/>
<path d="M93 880H94V881H93V880Z" fill="white"/>
<path d="M124 -81H125V-80H124V-81Z" fill="white"/>
<path d="M124 -50H125V-49H124V-50Z" fill="white"/>
<path d="M124 -19H125V-18H124V-19Z" fill="white"/>
<path d="M124 12H125V13H124V12Z" fill="white"/>
<path d="M124 43H125V44H124V43Z" fill="white"/>
<path d="M124 74H125V75H124V74Z" fill="white"/>
<path d="M124 105H125V106H124V105Z" fill="white"/>
<path d="M124 136H125V137H124V136Z" fill="white"/>
<path d="M124 167H125V168H124V167Z" fill="white"/>
<path d="M124 198H125V199H124V198Z" fill="white"/>
<path d="M124 229H125V230H124V229Z" fill="white"/>
<path d="M124 260H125V261H124V260Z" fill="white"/>
<path d="M124 291H125V292H124V291Z" fill="white"/>
<path d="M124 322H125V323H124V322Z" fill="white"/>
<path d="M124 353H125V354H124V353Z" fill="white"/>
<path d="M124 384H125V385H124V384Z" fill="white"/>
<path d="M124 415H125V416H124V415Z" fill="white"/>
<path d="M124 446H125V447H124V446Z" fill="white"/>
<path d="M124 477H125V478H124V477Z" fill="white"/>
<path d="M124 508H125V509H124V508Z" fill="white"/>
<path d="M124 539H125V540H124V539Z" fill="white"/>
<path d="M124 570H125V571H124V570Z" fill="white"/>
<path d="M124 601H125V602H124V601Z" fill="white"/>
<path d="M124 632H125V633H124V632Z" fill="white"/>
<path d="M124 663H125V664H124V663Z" fill="white"/>
<path d="M124 694H125V695H124V694Z" fill="white"/>
<path d="M124 725H125V726H124V725Z" fill="white"/>
<path d="M124 756H125V757H124V756Z" fill="white"/>
<path d="M124 787H125V788H124V787Z" fill="white"/>
<path d="M124 818H125V819H124V818Z" fill="white"/>
<path d="M124 849H125V850H124V849Z" fill="white"/>
<path d="M124 880H125V881H124V880Z" fill="white"/>
<path d="M155 -81H156V-80H155V-81Z" fill="white"/>
<path d="M155 -50H156V-49H155V-50Z" fill="white"/>
<path d="M155 -19H156V-18H155V-19Z" fill="white"/>
<path d="M155 12H156V13H155V12Z" fill="white"/>
<path d="M155 43H156V44H155V43Z" fill="white"/>
<path d="M155 74H156V75H155V74Z" fill="white"/>
<path d="M155 105H156V106H155V105Z" fill="white"/>
<path d="M155 136H156V137H155V136Z" fill="white"/>
<path d="M155 167H156V168H155V167Z" fill="white"/>
<path d="M155 198H156V199H155V198Z" fill="white"/>
<path d="M155 229H156V230H155V229Z" fill="white"/>
<path d="M155 260H156V261H155V260Z" fill="white"/>
<path d="M155 291H156V292H155V291Z" fill="white"/>
<path d="M155 322H156V323H155V322Z" fill="white"/>
<path d="M155 353H156V354H155V353Z" fill="white"/>
<path d="M155 384H156V385H155V384Z" fill="white"/>
<path d="M155 415H156V416H155V415Z" fill="white"/>
<path d="M155 446H156V447H155V446Z" fill="white"/>
<path d="M155 477H156V478H155V477Z" fill="white"/>
<path d="M155 508H156V509H155V508Z" fill="white"/>
<path d="M155 539H156V540H155V539Z" fill="white"/>
<path d="M155 570H156V571H155V570Z" fill="white"/>
<path d="M155 601H156V602H155V601Z" fill="white"/>
<path d="M155 632H156V633H155V632Z" fill="white"/>
<path d="M155 663H156V664H155V663Z" fill="white"/>
<path d="M155 694H156V695H155V694Z" fill="white"/>
<path d="M155 725H156V726H155V725Z" fill="white"/>
<path d="M155 756H156V757H155V756Z" fill="white"/>
<path d="M155 787H156V788H155V787Z" fill="white"/>
<path d="M155 818H156V819H155V818Z" fill="white"/>
<path d="M155 849H156V850H155V849Z" fill="white"/>
<path d="M155 880H156V881H155V880Z" fill="white"/>
<path d="M186 -81H187V-80H186V-81Z" fill="white"/>
<path d="M186 -50H187V-49H186V-50Z" fill="white"/>
<path d="M186 -19H187V-18H186V-19Z" fill="white"/>
<path d="M186 12H187V13H186V12Z" fill="white"/>
<path d="M186 43H187V44H186V43Z" fill="white"/>
<path d="M186 74H187V75H186V74Z" fill="white"/>
<path d="M186 105H187V106H186V105Z" fill="white"/>
<path d="M186 136H187V137H186V136Z" fill="white"/>
<path d="M186 167H187V168H186V167Z" fill="white"/>
<path d="M186 198H187V199H186V198Z" fill="white"/>
<path d="M186 229H187V230H186V229Z" fill="white"/>
<path d="M186 260H187V261H186V260Z" fill="white"/>
<path d="M186 291H187V292H186V291Z" fill="white"/>
<path d="M186 322H187V323H186V322Z" fill="white"/>
<path d="M186 353H187V354H186V353Z" fill="white"/>
<path d="M186 384H187V385H186V384Z" fill="white"/>
<path d="M186 415H187V416H186V415Z" fill="white"/>
<path d="M186 446H187V447H186V446Z" fill="white"/>
<path d="M186 477H187V478H186V477Z" fill="white"/>
<path d="M186 508H187V509H186V508Z" fill="white"/>
<path d="M186 539H187V540H186V539Z" fill="white"/>
<path d="M186 570H187V571H186V570Z" fill="white"/>
<path d="M186 601H187V602H186V601Z" fill="white"/>
<path d="M186 632H187V633H186V632Z" fill="white"/>
<path d="M186 663H187V664H186V663Z" fill="white"/>
<path d="M186 694H187V695H186V694Z" fill="white"/>
<path d="M186 725H187V726H186V725Z" fill="white"/>
<path d="M186 756H187V757H186V756Z" fill="white"/>
<path d="M186 787H187V788H186V787Z" fill="white"/>
<path d="M186 818H187V819H186V818Z" fill="white"/>
<path d="M186 849H187V850H186V849Z" fill="white"/>
<path d="M186 880H187V881H186V880Z" fill="white"/>
<path d="M217 -81H218V-80H217V-81Z" fill="white"/>
<path d="M217 -50H218V-49H217V-50Z" fill="white"/>
<path d="M217 -19H218V-18H217V-19Z" fill="white"/>
<path d="M217 12H218V13H217V12Z" fill="white"/>
<path d="M217 43H218V44H217V43Z" fill="white"/>
<path d="M217 74H218V75H217V74Z" fill="white"/>
<path d="M217 105H218V106H217V105Z" fill="white"/>
<path d="M217 136H218V137H217V136Z" fill="white"/>
<path d="M217 167H218V168H217V167Z" fill="white"/>
<path d="M217 198H218V199H217V198Z" fill="white"/>
<path d="M217 229H218V230H217V229Z" fill="white"/>
<path d="M217 260H218V261H217V260Z" fill="white"/>
<path d="M217 291H218V292H217V291Z" fill="white"/>
<path d="M217 322H218V323H217V322Z" fill="white"/>
<path d="M217 353H218V354H217V353Z" fill="white"/>
<path d="M217 384H218V385H217V384Z" fill="white"/>
<path d="M217 415H218V416H217V415Z" fill="white"/>
<path d="M217 446H218V447H217V446Z" fill="white"/>
<path d="M217 477H218V478H217V477Z" fill="white"/>
<path d="M217 508H218V509H217V508Z" fill="white"/>
<path d="M217 539H218V540H217V539Z" fill="white"/>
<path d="M217 570H218V571H217V570Z" fill="white"/>
<path d="M217 601H218V602H217V601Z" fill="white"/>
<path d="M217 632H218V633H217V632Z" fill="white"/>
<path d="M217 663H218V664H217V663Z" fill="white"/>
<path d="M217 694H218V695H217V694Z" fill="white"/>
<path d="M217 725H218V726H217V725Z" fill="white"/>
<path d="M217 756H218V757H217V756Z" fill="white"/>
<path d="M217 787H218V788H217V787Z" fill="white"/>
<path d="M217 818H218V819H217V818Z" fill="white"/>
<path d="M217 849H218V850H217V849Z" fill="white"/>
<path d="M217 880H218V881H217V880Z" fill="white"/>
<path d="M248 -81H249V-80H248V-81Z" fill="white"/>
<path d="M248 -50H249V-49H248V-50Z" fill="white"/>
<path d="M248 -19H249V-18H248V-19Z" fill="white"/>
<path d="M248 12H249V13H248V12Z" fill="white"/>
<path d="M248 43H249V44H248V43Z" fill="white"/>
<path d="M248 74H249V75H248V74Z" fill="white"/>
<path d="M248 105H249V106H248V105Z" fill="white"/>
<path d="M248 136H249V137H248V136Z" fill="white"/>
<path d="M248 167H249V168H248V167Z" fill="white"/>
<path d="M248 198H249V199H248V198Z" fill="white"/>
<path d="M248 229H249V230H248V229Z" fill="white"/>
<path d="M248 260H249V261H248V260Z" fill="white"/>
<path d="M248 291H249V292H248V291Z" fill="white"/>
<path d="M248 322H249V323H248V322Z" fill="white"/>
<path d="M248 353H249V354H248V353Z" fill="white"/>
<path d="M248 384H249V385H248V384Z" fill="white"/>
<path d="M248 415H249V416H248V415Z" fill="white"/>
<path d="M248 446H249V447H248V446Z" fill="white"/>
<path d="M248 477H249V478H248V477Z" fill="white"/>
<path d="M248 508H249V509H248V508Z" fill="white"/>
<path d="M248 539H249V540H248V539Z" fill="white"/>
<path d="M248 570H249V571H248V570Z" fill="white"/>
<path d="M248 601H249V602H248V601Z" fill="white"/>
<path d="M248 632H249V633H248V632Z" fill="white"/>
<path d="M248 663H249V664H248V663Z" fill="white"/>
<path d="M248 694H249V695H248V694Z" fill="white"/>
<path d="M248 725H249V726H248V725Z" fill="white"/>
<path d="M248 756H249V757H248V756Z" fill="white"/>
<path d="M248 787H249V788H248V787Z" fill="white"/>
<path d="M248 818H249V819H248V818Z" fill="white"/>
<path d="M248 849H249V850H248V849Z" fill="white"/>
<path d="M248 880H249V881H248V880Z" fill="white"/>
<path d="M279 -81H280V-80H279V-81Z" fill="white"/>
<path d="M279 -50H280V-49H279V-50Z" fill="white"/>
<path d="M279 -19H280V-18H279V-19Z" fill="white"/>
<path d="M279 12H280V13H279V12Z" fill="white"/>
<path d="M279 43H280V44H279V43Z" fill="white"/>
<path d="M279 74H280V75H279V74Z" fill="white"/>
<path d="M279 105H280V106H279V105Z" fill="white"/>
<path d="M279 136H280V137H279V136Z" fill="white"/>
<path d="M279 167H280V168H279V167Z" fill="white"/>
<path d="M279 198H280V199H279V198Z" fill="white"/>
<path d="M279 229H280V230H279V229Z" fill="white"/>
<path d="M279 260H280V261H279V260Z" fill="white"/>
<path d="M279 291H280V292H279V291Z" fill="white"/>
<path d="M279 322H280V323H279V322Z" fill="white"/>
<path d="M279 353H280V354H279V353Z" fill="white"/>
<path d="M279 384H280V385H279V384Z" fill="white"/>
<path d="M279 415H280V416H279V415Z" fill="white"/>
<path d="M279 446H280V447H279V446Z" fill="white"/>
<path d="M279 477H280V478H279V477Z" fill="white"/>
<path d="M279 508H280V509H279V508Z" fill="white"/>
<path d="M279 539H280V540H279V539Z" fill="white"/>
<path d="M279 570H280V571H279V570Z" fill="white"/>
<path d="M279 601H280V602H279V601Z" fill="white"/>
<path d="M279 632H280V633H279V632Z" fill="white"/>
<path d="M279 663H280V664H279V663Z" fill="white"/>
<path d="M279 694H280V695H279V694Z" fill="white"/>
<path d="M279 725H280V726H279V725Z" fill="white"/>
<path d="M279 756H280V757H279V756Z" fill="white"/>
<path d="M279 787H280V788H279V787Z" fill="white"/>
<path d="M279 818H280V819H279V818Z" fill="white"/>
<path d="M279 849H280V850H279V849Z" fill="white"/>
<path d="M279 880H280V881H279V880Z" fill="white"/>
<path d="M310 -81H311V-80H310V-81Z" fill="white"/>
<path d="M310 -50H311V-49H310V-50Z" fill="white"/>
<path d="M310 -19H311V-18H310V-19Z" fill="white"/>
<path d="M310 12H311V13H310V12Z" fill="white"/>
<path d="M310 43H311V44H310V43Z" fill="white"/>
<path d="M310 74H311V75H310V74Z" fill="white"/>
<path d="M310 105H311V106H310V105Z" fill="white"/>
<path d="M310 136H311V137H310V136Z" fill="white"/>
<path d="M310 167H311V168H310V167Z" fill="white"/>
<path d="M310 198H311V199H310V198Z" fill="white"/>
<path d="M310 229H311V230H310V229Z" fill="white"/>
<path d="M310 260H311V261H310V260Z" fill="white"/>
<path d="M310 291H311V292H310V291Z" fill="white"/>
<path d="M310 322H311V323H310V322Z" fill="white"/>
<path d="M310 353H311V354H310V353Z" fill="white"/>
<path d="M310 384H311V385H310V384Z" fill="white"/>
<path d="M310 415H311V416H310V415Z" fill="white"/>
<path d="M310 446H311V447H310V446Z" fill="white"/>
<path d="M310 477H311V478H310V477Z" fill="white"/>
<path d="M310 508H311V509H310V508Z" fill="white"/>
<path d="M310 539H311V540H310V539Z" fill="white"/>
<path d="M310 570H311V571H310V570Z" fill="white"/>
<path d="M310 601H311V602H310V601Z" fill="white"/>
<path d="M310 632H311V633H310V632Z" fill="white"/>
<path d="M310 663H311V664H310V663Z" fill="white"/>
<path d="M310 694H311V695H310V694Z" fill="white"/>
<path d="M310 725H311V726H310V725Z" fill="white"/>
<path d="M310 756H311V757H310V756Z" fill="white"/>
<path d="M310 787H311V788H310V787Z" fill="white"/>
<path d="M310 818H311V819H310V818Z" fill="white"/>
<path d="M310 849H311V850H310V849Z" fill="white"/>
<path d="M310 880H311V881H310V880Z" fill="white"/>
<path d="M341 -81H342V-80H341V-81Z" fill="white"/>
<path d="M341 -50H342V-49H341V-50Z" fill="white"/>
<path d="M341 -19H342V-18H341V-19Z" fill="white"/>
<path d="M341 12H342V13H341V12Z" fill="white"/>
<path d="M341 43H342V44H341V43Z" fill="white"/>
<path d="M341 74H342V75H341V74Z" fill="white"/>
<path d="M341 105H342V106H341V105Z" fill="white"/>
<path d="M341 136H342V137H341V136Z" fill="white"/>
<path d="M341 167H342V168H341V167Z" fill="white"/>
<path d="M341 198H342V199H341V198Z" fill="white"/>
<path d="M341 229H342V230H341V229Z" fill="white"/>
<path d="M341 260H342V261H341V260Z" fill="white"/>
<path d="M341 291H342V292H341V291Z" fill="white"/>
<path d="M341 322H342V323H341V322Z" fill="white"/>
<path d="M341 353H342V354H341V353Z" fill="white"/>
<path d="M341 384H342V385H341V384Z" fill="white"/>
<path d="M341 415H342V416H341V415Z" fill="white"/>
<path d="M341 446H342V447H341V446Z" fill="white"/>
<path d="M341 477H342V478H341V477Z" fill="white"/>
<path d="M341 508H342V509H341V508Z" fill="white"/>
<path d="M341 539H342V540H341V539Z" fill="white"/>
<path d="M341 570H342V571H341V570Z" fill="white"/>
<path d="M341 601H342V602H341V601Z" fill="white"/>
<path d="M341 632H342V633H341V632Z" fill="white"/>
<path d="M341 663H342V664H341V663Z" fill="white"/>
<path d="M341 694H342V695H341V694Z" fill="white"/>
<path d="M341 725H342V726H341V725Z" fill="white"/>
<path d="M341 756H342V757H341V756Z" fill="white"/>
<path d="M341 787H342V788H341V787Z" fill="white"/>
<path d="M341 818H342V819H341V818Z" fill="white"/>
<path d="M341 849H342V850H341V849Z" fill="white"/>
<path d="M341 880H342V881H341V880Z" fill="white"/>
<path d="M372 -81H373V-80H372V-81Z" fill="white"/>
<path d="M372 -50H373V-49H372V-50Z" fill="white"/>
<path d="M372 -19H373V-18H372V-19Z" fill="white"/>
<path d="M372 12H373V13H372V12Z" fill="white"/>
<path d="M372 43H373V44H372V43Z" fill="white"/>
<path d="M372 74H373V75H372V74Z" fill="white"/>
<path d="M372 105H373V106H372V105Z" fill="white"/>
<path d="M372 136H373V137H372V136Z" fill="white"/>
<path d="M372 167H373V168H372V167Z" fill="white"/>
<path d="M372 198H373V199H372V198Z" fill="white"/>
<path d="M372 229H373V230H372V229Z" fill="white"/>
<path d="M372 260H373V261H372V260Z" fill="white"/>
<path d="M372 291H373V292H372V291Z" fill="white"/>
<path d="M372 322H373V323H372V322Z" fill="white"/>
<path d="M372 353H373V354H372V353Z" fill="white"/>
<path d="M372 384H373V385H372V384Z" fill="white"/>
<path d="M372 415H373V416H372V415Z" fill="white"/>
<path d="M372 446H373V447H372V446Z" fill="white"/>
<path d="M372 477H373V478H372V477Z" fill="white"/>
<path d="M372 508H373V509H372V508Z" fill="white"/>
<path d="M372 539H373V540H372V539Z" fill="white"/>
<path d="M372 570H373V571H372V570Z" fill="white"/>
<path d="M372 601H373V602H372V601Z" fill="white"/>
<path d="M372 632H373V633H372V632Z" fill="white"/>
<path d="M372 663H373V664H372V663Z" fill="white"/>
<path d="M372 694H373V695H372V694Z" fill="white"/>
<path d="M372 725H373V726H372V725Z" fill="white"/>
<path d="M372 756H373V757H372V756Z" fill="white"/>
<path d="M372 787H373V788H372V787Z" fill="white"/>
<path d="M372 818H373V819H372V818Z" fill="white"/>
<path d="M372 849H373V850H372V849Z" fill="white"/>
<path d="M372 880H373V881H372V880Z" fill="white"/>
<path d="M403 -81H404V-80H403V-81Z" fill="white"/>
<path d="M403 -50H404V-49H403V-50Z" fill="white"/>
<path d="M403 -19H404V-18H403V-19Z" fill="white"/>
<path d="M403 12H404V13H403V12Z" fill="white"/>
<path d="M403 43H404V44H403V43Z" fill="white"/>
<path d="M403 74H404V75H403V74Z" fill="white"/>
<path d="M403 105H404V106H403V105Z" fill="white"/>
<path d="M403 136H404V137H403V136Z" fill="white"/>
<path d="M403 167H404V168H403V167Z" fill="white"/>
<path d="M403 198H404V199H403V198Z" fill="white"/>
<path d="M403 229H404V230H403V229Z" fill="white"/>
<path d="M403 260H404V261H403V260Z" fill="white"/>
<path d="M403 291H404V292H403V291Z" fill="white"/>
<path d="M403 322H404V323H403V322Z" fill="white"/>
<path d="M403 353H404V354H403V353Z" fill="white"/>
<path d="M403 384H404V385H403V384Z" fill="white"/>
<path d="M403 415H404V416H403V415Z" fill="white"/>
<path d="M403 446H404V447H403V446Z" fill="white"/>
<path d="M403 477H404V478H403V477Z" fill="white"/>
<path d="M403 508H404V509H403V508Z" fill="white"/>
<path d="M403 539H404V540H403V539Z" fill="white"/>
<path d="M403 570H404V571H403V570Z" fill="white"/>
<path d="M403 601H404V602H403V601Z" fill="white"/>
<path d="M403 632H404V633H403V632Z" fill="white"/>
<path d="M403 663H404V664H403V663Z" fill="white"/>
<path d="M403 694H404V695H403V694Z" fill="white"/>
<path d="M403 725H404V726H403V725Z" fill="white"/>
<path d="M403 756H404V757H403V756Z" fill="white"/>
<path d="M403 787H404V788H403V787Z" fill="white"/>
<path d="M403 818H404V819H403V818Z" fill="white"/>
<path d="M403 849H404V850H403V849Z" fill="white"/>
<path d="M403 880H404V881H403V880Z" fill="white"/>
<path d="M434 -81H435V-80H434V-81Z" fill="white"/>
<path d="M434 -50H435V-49H434V-50Z" fill="white"/>
<path d="M434 -19H435V-18H434V-19Z" fill="white"/>
<path d="M434 12H435V13H434V12Z" fill="white"/>
<path d="M434 43H435V44H434V43Z" fill="white"/>
<path d="M434 74H435V75H434V74Z" fill="white"/>
<path d="M434 105H435V106H434V105Z" fill="white"/>
<path d="M434 136H435V137H434V136Z" fill="white"/>
<path d="M434 167H435V168H434V167Z" fill="white"/>
<path d="M434 198H435V199H434V198Z" fill="white"/>
<path d="M434 229H435V230H434V229Z" fill="white"/>
<path d="M434 260H435V261H434V260Z" fill="white"/>
<path d="M434 291H435V292H434V291Z" fill="white"/>
<path d="M434 322H435V323H434V322Z" fill="white"/>
<path d="M434 353H435V354H434V353Z" fill="white"/>
<path d="M434 384H435V385H434V384Z" fill="white"/>
<path d="M434 415H435V416H434V415Z" fill="white"/>
<path d="M434 446H435V447H434V446Z" fill="white"/>
<path d="M434 477H435V478H434V477Z" fill="white"/>
<path d="M434 508H435V509H434V508Z" fill="white"/>
<path d="M434 539H435V540H434V539Z" fill="white"/>
<path d="M434 570H435V571H434V570Z" fill="white"/>
<path d="M434 601H435V602H434V601Z" fill="white"/>
<path d="M434 632H435V633H434V632Z" fill="white"/>
<path d="M434 663H435V664H434V663Z" fill="white"/>
<path d="M434 694H435V695H434V694Z" fill="white"/>
<path d="M434 725H435V726H434V725Z" fill="white"/>
<path d="M434 756H435V757H434V756Z" fill="white"/>
<path d="M434 787H435V788H434V787Z" fill="white"/>
<path d="M434 818H435V819H434V818Z" fill="white"/>
<path d="M434 849H435V850H434V849Z" fill="white"/>
<path d="M434 880H435V881H434V880Z" fill="white"/>
<path d="M465 -81H466V-80H465V-81Z" fill="white"/>
<path d="M465 -50H466V-49H465V-50Z" fill="white"/>
<path d="M465 -19H466V-18H465V-19Z" fill="white"/>
<path d="M465 12H466V13H465V12Z" fill="white"/>
<path d="M465 43H466V44H465V43Z" fill="white"/>
<path d="M465 74H466V75H465V74Z" fill="white"/>
<path d="M465 105H466V106H465V105Z" fill="white"/>
<path d="M465 136H466V137H465V136Z" fill="white"/>
<path d="M465 167H466V168H465V167Z" fill="white"/>
<path d="M465 198H466V199H465V198Z" fill="white"/>
<path d="M465 229H466V230H465V229Z" fill="white"/>
<path d="M465 260H466V261H465V260Z" fill="white"/>
<path d="M465 291H466V292H465V291Z" fill="white"/>
<path d="M465 322H466V323H465V322Z" fill="white"/>
<path d="M465 353H466V354H465V353Z" fill="white"/>
<path d="M465 384H466V385H465V384Z" fill="white"/>
<path d="M465 415H466V416H465V415Z" fill="white"/>
<path d="M465 446H466V447H465V446Z" fill="white"/>
<path d="M465 477H466V478H465V477Z" fill="white"/>
<path d="M465 508H466V509H465V508Z" fill="white"/>
<path d="M465 539H466V540H465V539Z" fill="white"/>
<path d="M465 570H466V571H465V570Z" fill="white"/>
<path d="M465 601H466V602H465V601Z" fill="white"/>
<path d="M465 632H466V633H465V632Z" fill="white"/>
<path d="M465 663H466V664H465V663Z" fill="white"/>
<path d="M465 694H466V695H465V694Z" fill="white"/>
<path d="M465 725H466V726H465V725Z" fill="white"/>
<path d="M465 756H466V757H465V756Z" fill="white"/>
<path d="M465 787H466V788H465V787Z" fill="white"/>
<path d="M465 818H466V819H465V818Z" fill="white"/>
<path d="M465 849H466V850H465V849Z" fill="white"/>
<path d="M465 880H466V881H465V880Z" fill="white"/>
<path d="M496 -81H497V-80H496V-81Z" fill="white"/>
<path d="M496 -50H497V-49H496V-50Z" fill="white"/>
<path d="M496 -19H497V-18H496V-19Z" fill="white"/>
<path d="M496 12H497V13H496V12Z" fill="white"/>
<path d="M496 43H497V44H496V43Z" fill="white"/>
<path d="M496 74H497V75H496V74Z" fill="white"/>
<path d="M496 105H497V106H496V105Z" fill="white"/>
<path d="M496 136H497V137H496V136Z" fill="white"/>
<path d="M496 167H497V168H496V167Z" fill="white"/>
<path d="M496 198H497V199H496V198Z" fill="white"/>
<path d="M496 229H497V230H496V229Z" fill="white"/>
<path d="M496 260H497V261H496V260Z" fill="white"/>
<path d="M496 291H497V292H496V291Z" fill="white"/>
<path d="M496 322H497V323H496V322Z" fill="white"/>
<path d="M496 353H497V354H496V353Z" fill="white"/>
<path d="M496 384H497V385H496V384Z" fill="white"/>
<path d="M496 415H497V416H496V415Z" fill="white"/>
<path d="M496 446H497V447H496V446Z" fill="white"/>
<path d="M496 477H497V478H496V477Z" fill="white"/>
<path d="M496 508H497V509H496V508Z" fill="white"/>
<path d="M496 539H497V540H496V539Z" fill="white"/>
<path d="M496 570H497V571H496V570Z" fill="white"/>
<path d="M496 601H497V602H496V601Z" fill="white"/>
<path d="M496 632H497V633H496V632Z" fill="white"/>
<path d="M496 663H497V664H496V663Z" fill="white"/>
<path d="M496 694H497V695H496V694Z" fill="white"/>
<path d="M496 725H497V726H496V725Z" fill="white"/>
<path d="M496 756H497V757H496V756Z" fill="white"/>
<path d="M496 787H497V788H496V787Z" fill="white"/>
<path d="M496 818H497V819H496V818Z" fill="white"/>
<path d="M496 849H497V850H496V849Z" fill="white"/>
<path d="M496 880H497V881H496V880Z" fill="white"/>
<path d="M527 -81H528V-80H527V-81Z" fill="white"/>
<path d="M527 -50H528V-49H527V-50Z" fill="white"/>
<path d="M527 -19H528V-18H527V-19Z" fill="white"/>
<path d="M527 12H528V13H527V12Z" fill="white"/>
<path d="M527 43H528V44H527V43Z" fill="white"/>
<path d="M527 74H528V75H527V74Z" fill="white"/>
<path d="M527 105H528V106H527V105Z" fill="white"/>
<path d="M527 136H528V137H527V136Z" fill="white"/>
<path d="M527 167H528V168H527V167Z" fill="white"/>
<path d="M527 198H528V199H527V198Z" fill="white"/>
<path d="M527 229H528V230H527V229Z" fill="white"/>
<path d="M527 260H528V261H527V260Z" fill="white"/>
<path d="M527 291H528V292H527V291Z" fill="white"/>
<path d="M527 322H528V323H527V322Z" fill="white"/>
<path d="M527 353H528V354H527V353Z" fill="white"/>
<path d="M527 384H528V385H527V384Z" fill="white"/>
<path d="M527 415H528V416H527V415Z" fill="white"/>
<path d="M527 446H528V447H527V446Z" fill="white"/>
<path d="M527 477H528V478H527V477Z" fill="white"/>
<path d="M527 508H528V509H527V508Z" fill="white"/>
<path d="M527 539H528V540H527V539Z" fill="white"/>
<path d="M527 570H528V571H527V570Z" fill="white"/>
<path d="M527 601H528V602H527V601Z" fill="white"/>
<path d="M527 632H528V633H527V632Z" fill="white"/>
<path d="M527 663H528V664H527V663Z" fill="white"/>
<path d="M527 694H528V695H527V694Z" fill="white"/>
<path d="M527 725H528V726H527V725Z" fill="white"/>
<path d="M527 756H528V757H527V756Z" fill="white"/>
<path d="M527 787H528V788H527V787Z" fill="white"/>
<path d="M527 818H528V819H527V818Z" fill="white"/>
<path d="M527 849H528V850H527V849Z" fill="white"/>
<path d="M527 880H528V881H527V880Z" fill="white"/>
<path d="M558 -81H559V-80H558V-81Z" fill="white"/>
<path d="M558 -50H559V-49H558V-50Z" fill="white"/>
<path d="M558 -19H559V-18H558V-19Z" fill="white"/>
<path d="M558 12H559V13H558V12Z" fill="white"/>
<path d="M558 43H559V44H558V43Z" fill="white"/>
<path d="M558 74H559V75H558V74Z" fill="white"/>
<path d="M558 105H559V106H558V105Z" fill="white"/>
<path d="M558 136H559V137H558V136Z" fill="white"/>
<path d="M558 167H559V168H558V167Z" fill="white"/>
<path d="M558 198H559V199H558V198Z" fill="white"/>
<path d="M558 229H559V230H558V229Z" fill="white"/>
<path d="M558 260H559V261H558V260Z" fill="white"/>
<path d="M558 291H559V292H558V291Z" fill="white"/>
<path d="M558 322H559V323H558V322Z" fill="white"/>
<path d="M558 353H559V354H558V353Z" fill="white"/>
<path d="M558 384H559V385H558V384Z" fill="white"/>
<path d="M558 415H559V416H558V415Z" fill="white"/>
<path d="M558 446H559V447H558V446Z" fill="white"/>
<path d="M558 477H559V478H558V477Z" fill="white"/>
<path d="M558 508H559V509H558V508Z" fill="white"/>
<path d="M558 539H559V540H558V539Z" fill="white"/>
<path d="M558 570H559V571H558V570Z" fill="white"/>
<path d="M558 601H559V602H558V601Z" fill="white"/>
<path d="M558 632H559V633H558V632Z" fill="white"/>
<path d="M558 663H559V664H558V663Z" fill="white"/>
<path d="M558 694H559V695H558V694Z" fill="white"/>
<path d="M558 725H559V726H558V725Z" fill="white"/>
<path d="M558 756H559V757H558V756Z" fill="white"/>
<path d="M558 787H559V788H558V787Z" fill="white"/>
<path d="M558 818H559V819H558V818Z" fill="white"/>
<path d="M558 849H559V850H558V849Z" fill="white"/>
<path d="M558 880H559V881H558V880Z" fill="white"/>
<path d="M589 -81H590V-80H589V-81Z" fill="white"/>
<path d="M589 -50H590V-49H589V-50Z" fill="white"/>
<path d="M589 -19H590V-18H589V-19Z" fill="white"/>
<path d="M589 12H590V13H589V12Z" fill="white"/>
<path d="M589 43H590V44H589V43Z" fill="white"/>
<path d="M589 74H590V75H589V74Z" fill="white"/>
<path d="M589 105H590V106H589V105Z" fill="white"/>
<path d="M589 136H590V137H589V136Z" fill="white"/>
<path d="M589 167H590V168H589V167Z" fill="white"/>
<path d="M589 198H590V199H589V198Z" fill="white"/>
<path d="M589 229H590V230H589V229Z" fill="white"/>
<path d="M589 260H590V261H589V260Z" fill="white"/>
<path d="M589 291H590V292H589V291Z" fill="white"/>
<path d="M589 322H590V323H589V322Z" fill="white"/>
<path d="M589 353H590V354H589V353Z" fill="white"/>
<path d="M589 384H590V385H589V384Z" fill="white"/>
<path d="M589 415H590V416H589V415Z" fill="white"/>
<path d="M589 446H590V447H589V446Z" fill="white"/>
<path d="M589 477H590V478H589V477Z" fill="white"/>
<path d="M589 508H590V509H589V508Z" fill="white"/>
<path d="M589 539H590V540H589V539Z" fill="white"/>
<path d="M589 570H590V571H589V570Z" fill="white"/>
<path d="M589 601H590V602H589V601Z" fill="white"/>
<path d="M589 632H590V633H589V632Z" fill="white"/>
<path d="M589 663H590V664H589V663Z" fill="white"/>
<path d="M589 694H590V695H589V694Z" fill="white"/>
<path d="M589 725H590V726H589V725Z" fill="white"/>
<path d="M589 756H590V757H589V756Z" fill="white"/>
<path d="M589 787H590V788H589V787Z" fill="white"/>
<path d="M589 818H590V819H589V818Z" fill="white"/>
<path d="M589 849H590V850H589V849Z" fill="white"/>
<path d="M589 880H590V881H589V880Z" fill="white"/>
<path d="M620 -81H621V-80H620V-81Z" fill="white"/>
<path d="M620 -50H621V-49H620V-50Z" fill="white"/>
<path d="M620 -19H621V-18H620V-19Z" fill="white"/>
<path d="M620 12H621V13H620V12Z" fill="white"/>
<path d="M620 43H621V44H620V43Z" fill="white"/>
<path d="M620 74H621V75H620V74Z" fill="white"/>
<path d="M620 105H621V106H620V105Z" fill="white"/>
<path d="M620 136H621V137H620V136Z" fill="white"/>
<path d="M620 167H621V168H620V167Z" fill="white"/>
<path d="M620 198H621V199H620V198Z" fill="white"/>
<path d="M620 229H621V230H620V229Z" fill="white"/>
<path d="M620 260H621V261H620V260Z" fill="white"/>
<path d="M620 291H621V292H620V291Z" fill="white"/>
<path d="M620 322H621V323H620V322Z" fill="white"/>
<path d="M620 353H621V354H620V353Z" fill="white"/>
<path d="M620 384H621V385H620V384Z" fill="white"/>
<path d="M620 415H621V416H620V415Z" fill="white"/>
<path d="M620 446H621V447H620V446Z" fill="white"/>
<path d="M620 477H621V478H620V477Z" fill="white"/>
<path d="M620 508H621V509H620V508Z" fill="white"/>
<path d="M620 539H621V540H620V539Z" fill="white"/>
<path d="M620 570H621V571H620V570Z" fill="white"/>
<path d="M620 601H621V602H620V601Z" fill="white"/>
<path d="M620 632H621V633H620V632Z" fill="white"/>
<path d="M620 663H621V664H620V663Z" fill="white"/>
<path d="M620 694H621V695H620V694Z" fill="white"/>
<path d="M620 725H621V726H620V725Z" fill="white"/>
<path d="M620 756H621V757H620V756Z" fill="white"/>
<path d="M620 787H621V788H620V787Z" fill="white"/>
<path d="M620 818H621V819H620V818Z" fill="white"/>
<path d="M620 849H621V850H620V849Z" fill="white"/>
<path d="M620 880H621V881H620V880Z" fill="white"/>
<path d="M651 -81H652V-80H651V-81Z" fill="white"/>
<path d="M651 -50H652V-49H651V-50Z" fill="white"/>
<path d="M651 -19H652V-18H651V-19Z" fill="white"/>
<path d="M651 12H652V13H651V12Z" fill="white"/>
<path d="M651 43H652V44H651V43Z" fill="white"/>
<path d="M651 74H652V75H651V74Z" fill="white"/>
<path d="M651 105H652V106H651V105Z" fill="white"/>
<path d="M651 136H652V137H651V136Z" fill="white"/>
<path d="M651 167H652V168H651V167Z" fill="white"/>
<path d="M651 198H652V199H651V198Z" fill="white"/>
<path d="M651 229H652V230H651V229Z" fill="white"/>
<path d="M651 260H652V261H651V260Z" fill="white"/>
<path d="M651 291H652V292H651V291Z" fill="white"/>
<path d="M651 322H652V323H651V322Z" fill="white"/>
<path d="M651 353H652V354H651V353Z" fill="white"/>
<path d="M651 384H652V385H651V384Z" fill="white"/>
<path d="M651 415H652V416H651V415Z" fill="white"/>
<path d="M651 446H652V447H651V446Z" fill="white"/>
<path d="M651 477H652V478H651V477Z" fill="white"/>
<path d="M651 508H652V509H651V508Z" fill="white"/>
<path d="M651 539H652V540H651V539Z" fill="white"/>
<path d="M651 570H652V571H651V570Z" fill="white"/>
<path d="M651 601H652V602H651V601Z" fill="white"/>
<path d="M651 632H652V633H651V632Z" fill="white"/>
<path d="M651 663H652V664H651V663Z" fill="white"/>
<path d="M651 694H652V695H651V694Z" fill="white"/>
<path d="M651 725H652V726H651V725Z" fill="white"/>
<path d="M651 756H652V757H651V756Z" fill="white"/>
<path d="M651 787H652V788H651V787Z" fill="white"/>
<path d="M651 818H652V819H651V818Z" fill="white"/>
<path d="M651 849H652V850H651V849Z" fill="white"/>
<path d="M651 880H652V881H651V880Z" fill="white"/>
<path d="M682 -81H683V-80H682V-81Z" fill="white"/>
<path d="M682 -50H683V-49H682V-50Z" fill="white"/>
<path d="M682 -19H683V-18H682V-19Z" fill="white"/>
<path d="M682 12H683V13H682V12Z" fill="white"/>
<path d="M682 43H683V44H682V43Z" fill="white"/>
<path d="M682 74H683V75H682V74Z" fill="white"/>
<path d="M682 105H683V106H682V105Z" fill="white"/>
<path d="M682 136H683V137H682V136Z" fill="white"/>
<path d="M682 167H683V168H682V167Z" fill="white"/>
<path d="M682 198H683V199H682V198Z" fill="white"/>
<path d="M682 229H683V230H682V229Z" fill="white"/>
<path d="M682 260H683V261H682V260Z" fill="white"/>
<path d="M682 291H683V292H682V291Z" fill="white"/>
<path d="M682 322H683V323H682V322Z" fill="white"/>
<path d="M682 353H683V354H682V353Z" fill="white"/>
<path d="M682 384H683V385H682V384Z" fill="white"/>
<path d="M682 415H683V416H682V415Z" fill="white"/>
<path d="M682 446H683V447H682V446Z" fill="white"/>
<path d="M682 477H683V478H682V477Z" fill="white"/>
<path d="M682 508H683V509H682V508Z" fill="white"/>
<path d="M682 539H683V540H682V539Z" fill="white"/>
<path d="M682 570H683V571H682V570Z" fill="white"/>
<path d="M682 601H683V602H682V601Z" fill="white"/>
<path d="M682 632H683V633H682V632Z" fill="white"/>
<path d="M682 663H683V664H682V663Z" fill="white"/>
<path d="M682 694H683V695H682V694Z" fill="white"/>
<path d="M682 725H683V726H682V725Z" fill="white"/>
<path d="M682 756H683V757H682V756Z" fill="white"/>
<path d="M682 787H683V788H682V787Z" fill="white"/>
<path d="M682 818H683V819H682V818Z" fill="white"/>
<path d="M682 849H683V850H682V849Z" fill="white"/>
<path d="M682 880H683V881H682V880Z" fill="white"/>
<path d="M713 -81H714V-80H713V-81Z" fill="white"/>
<path d="M713 -50H714V-49H713V-50Z" fill="white"/>
<path d="M713 -19H714V-18H713V-19Z" fill="white"/>
<path d="M713 12H714V13H713V12Z" fill="white"/>
<path d="M713 43H714V44H713V43Z" fill="white"/>
<path d="M713 74H714V75H713V74Z" fill="white"/>
<path d="M713 105H714V106H713V105Z" fill="white"/>
<path d="M713 136H714V137H713V136Z" fill="white"/>
<path d="M713 167H714V168H713V167Z" fill="white"/>
<path d="M713 198H714V199H713V198Z" fill="white"/>
<path d="M713 229H714V230H713V229Z" fill="white"/>
<path d="M713 260H714V261H713V260Z" fill="white"/>
<path d="M713 291H714V292H713V291Z" fill="white"/>
<path d="M713 322H714V323H713V322Z" fill="white"/>
<path d="M713 353H714V354H713V353Z" fill="white"/>
<path d="M713 384H714V385H713V384Z" fill="white"/>
<path d="M713 415H714V416H713V415Z" fill="white"/>
<path d="M713 446H714V447H713V446Z" fill="white"/>
<path d="M713 477H714V478H713V477Z" fill="white"/>
<path d="M713 508H714V509H713V508Z" fill="white"/>
<path d="M713 539H714V540H713V539Z" fill="white"/>
<path d="M713 570H714V571H713V570Z" fill="white"/>
<path d="M713 601H714V602H713V601Z" fill="white"/>
<path d="M713 632H714V633H713V632Z" fill="white"/>
<path d="M713 663H714V664H713V663Z" fill="white"/>
<path d="M713 694H714V695H713V694Z" fill="white"/>
<path d="M713 725H714V726H713V725Z" fill="white"/>
<path d="M713 756H714V757H713V756Z" fill="white"/>
<path d="M713 787H714V788H713V787Z" fill="white"/>
<path d="M713 818H714V819H713V818Z" fill="white"/>
<path d="M713 849H714V850H713V849Z" fill="white"/>
<path d="M713 880H714V881H713V880Z" fill="white"/>
<path d="M744 -81H745V-80H744V-81Z" fill="white"/>
<path d="M744 -50H745V-49H744V-50Z" fill="white"/>
<path d="M744 -19H745V-18H744V-19Z" fill="white"/>
<path d="M744 12H745V13H744V12Z" fill="white"/>
<path d="M744 43H745V44H744V43Z" fill="white"/>
<path d="M744 74H745V75H744V74Z" fill="white"/>
<path d="M744 105H745V106H744V105Z" fill="white"/>
<path d="M744 136H745V137H744V136Z" fill="white"/>
<path d="M744 167H745V168H744V167Z" fill="white"/>
<path d="M744 198H745V199H744V198Z" fill="white"/>
<path d="M744 229H745V230H744V229Z" fill="white"/>
<path d="M744 260H745V261H744V260Z" fill="white"/>
<path d="M744 291H745V292H744V291Z" fill="white"/>
<path d="M744 322H745V323H744V322Z" fill="white"/>
<path d="M744 353H745V354H744V353Z" fill="white"/>
<path d="M744 384H745V385H744V384Z" fill="white"/>
<path d="M744 415H745V416H744V415Z" fill="white"/>
<path d="M744 446H745V447H744V446Z" fill="white"/>
<path d="M744 477H745V478H744V477Z" fill="white"/>
<path d="M744 508H745V509H744V508Z" fill="white"/>
<path d="M744 539H745V540H744V539Z" fill="white"/>
<path d="M744 570H745V571H744V570Z" fill="white"/>
<path d="M744 601H745V602H744V601Z" fill="white"/>
<path d="M744 632H745V633H744V632Z" fill="white"/>
<path d="M744 663H745V664H744V663Z" fill="white"/>
<path d="M744 694H745V695H744V694Z" fill="white"/>
<path d="M744 725H745V726H744V725Z" fill="white"/>
<path d="M744 756H745V757H744V756Z" fill="white"/>
<path d="M744 787H745V788H744V787Z" fill="white"/>
<path d="M744 818H745V819H744V818Z" fill="white"/>
<path d="M744 849H745V850H744V849Z" fill="white"/>
<path d="M744 880H745V881H744V880Z" fill="white"/>
<path d="M775 -81H776V-80H775V-81Z" fill="white"/>
<path d="M775 -50H776V-49H775V-50Z" fill="white"/>
<path d="M775 -19H776V-18H775V-19Z" fill="white"/>
<path d="M775 12H776V13H775V12Z" fill="white"/>
<path d="M775 43H776V44H775V43Z" fill="white"/>
<path d="M775 74H776V75H775V74Z" fill="white"/>
<path d="M775 105H776V106H775V105Z" fill="white"/>
<path d="M775 136H776V137H775V136Z" fill="white"/>
<path d="M775 167H776V168H775V167Z" fill="white"/>
<path d="M775 198H776V199H775V198Z" fill="white"/>
<path d="M775 229H776V230H775V229Z" fill="white"/>
<path d="M775 260H776V261H775V260Z" fill="white"/>
<path d="M775 291H776V292H775V291Z" fill="white"/>
<path d="M775 322H776V323H775V322Z" fill="white"/>
<path d="M775 353H776V354H775V353Z" fill="white"/>
<path d="M775 384H776V385H775V384Z" fill="white"/>
<path d="M775 415H776V416H775V415Z" fill="white"/>
<path d="M775 446H776V447H775V446Z" fill="white"/>
<path d="M775 477H776V478H775V477Z" fill="white"/>
<path d="M775 508H776V509H775V508Z" fill="white"/>
<path d="M775 539H776V540H775V539Z" fill="white"/>
<path d="M775 570H776V571H775V570Z" fill="white"/>
<path d="M775 601H776V602H775V601Z" fill="white"/>
<path d="M775 632H776V633H775V632Z" fill="white"/>
<path d="M775 663H776V664H775V663Z" fill="white"/>
<path d="M775 694H776V695H775V694Z" fill="white"/>
<path d="M775 725H776V726H775V725Z" fill="white"/>
<path d="M775 756H776V757H775V756Z" fill="white"/>
<path d="M775 787H776V788H775V787Z" fill="white"/>
<path d="M775 818H776V819H775V818Z" fill="white"/>
<path d="M775 849H776V850H775V849Z" fill="white"/>
<path d="M775 880H776V881H775V880Z" fill="white"/>
<path d="M806 -81H807V-80H806V-81Z" fill="white"/>
<path d="M806 -50H807V-49H806V-50Z" fill="white"/>
<path d="M806 -19H807V-18H806V-19Z" fill="white"/>
<path d="M806 12H807V13H806V12Z" fill="white"/>
<path d="M806 43H807V44H806V43Z" fill="white"/>
<path d="M806 74H807V75H806V74Z" fill="white"/>
<path d="M806 105H807V106H806V105Z" fill="white"/>
<path d="M806 136H807V137H806V136Z" fill="white"/>
<path d="M806 167H807V168H806V167Z" fill="white"/>
<path d="M806 198H807V199H806V198Z" fill="white"/>
<path d="M806 229H807V230H806V229Z" fill="white"/>
<path d="M806 260H807V261H806V260Z" fill="white"/>
<path d="M806 291H807V292H806V291Z" fill="white"/>
<path d="M806 322H807V323H806V322Z" fill="white"/>
<path d="M806 353H807V354H806V353Z" fill="white"/>
<path d="M806 384H807V385H806V384Z" fill="white"/>
<path d="M806 415H807V416H806V415Z" fill="white"/>
<path d="M806 446H807V447H806V446Z" fill="white"/>
<path d="M806 477H807V478H806V477Z" fill="white"/>
<path d="M806 508H807V509H806V508Z" fill="white"/>
<path d="M806 539H807V540H806V539Z" fill="white"/>
<path d="M806 570H807V571H806V570Z" fill="white"/>
<path d="M806 601H807V602H806V601Z" fill="white"/>
<path d="M806 632H807V633H806V632Z" fill="white"/>
<path d="M806 663H807V664H806V663Z" fill="white"/>
<path d="M806 694H807V695H806V694Z" fill="white"/>
<path d="M806 725H807V726H806V725Z" fill="white"/>
<path d="M806 756H807V757H806V756Z" fill="white"/>
<path d="M806 787H807V788H806V787Z" fill="white"/>
<path d="M806 818H807V819H806V818Z" fill="white"/>
<path d="M806 849H807V850H806V849Z" fill="white"/>
<path d="M806 880H807V881H806V880Z" fill="white"/>
<path d="M837 -81H838V-80H837V-81Z" fill="white"/>
<path d="M837 -50H838V-49H837V-50Z" fill="white"/>
<path d="M837 -19H838V-18H837V-19Z" fill="white"/>
<path d="M837 12H838V13H837V12Z" fill="white"/>
<path d="M837 43H838V44H837V43Z" fill="white"/>
<path d="M837 74H838V75H837V74Z" fill="white"/>
<path d="M837 105H838V106H837V105Z" fill="white"/>
<path d="M837 136H838V137H837V136Z" fill="white"/>
<path d="M837 167H838V168H837V167Z" fill="white"/>
<path d="M837 198H838V199H837V198Z" fill="white"/>
<path d="M837 229H838V230H837V229Z" fill="white"/>
<path d="M837 260H838V261H837V260Z" fill="white"/>
<path d="M837 291H838V292H837V291Z" fill="white"/>
<path d="M837 322H838V323H837V322Z" fill="white"/>
<path d="M837 353H838V354H837V353Z" fill="white"/>
<path d="M837 384H838V385H837V384Z" fill="white"/>
<path d="M837 415H838V416H837V415Z" fill="white"/>
<path d="M837 446H838V447H837V446Z" fill="white"/>
<path d="M837 477H838V478H837V477Z" fill="white"/>
<path d="M837 508H838V509H837V508Z" fill="white"/>
<path d="M837 539H838V540H837V539Z" fill="white"/>
<path d="M837 570H838V571H837V570Z" fill="white"/>
<path d="M837 601H838V602H837V601Z" fill="white"/>
<path d="M837 632H838V633H837V632Z" fill="white"/>
<path d="M837 663H838V664H837V663Z" fill="white"/>
<path d="M837 694H838V695H837V694Z" fill="white"/>
<path d="M837 725H838V726H837V725Z" fill="white"/>
<path d="M837 756H838V757H837V756Z" fill="white"/>
<path d="M837 787H838V788H837V787Z" fill="white"/>
<path d="M837 818H838V819H837V818Z" fill="white"/>
<path d="M837 849H838V850H837V849Z" fill="white"/>
<path d="M837 880H838V881H837V880Z" fill="white"/>
<path d="M868 -81H869V-80H868V-81Z" fill="white"/>
<path d="M868 -50H869V-49H868V-50Z" fill="white"/>
<path d="M868 -19H869V-18H868V-19Z" fill="white"/>
<path d="M868 12H869V13H868V12Z" fill="white"/>
<path d="M868 43H869V44H868V43Z" fill="white"/>
<path d="M868 74H869V75H868V74Z" fill="white"/>
<path d="M868 105H869V106H868V105Z" fill="white"/>
<path d="M868 136H869V137H868V136Z" fill="white"/>
<path d="M868 167H869V168H868V167Z" fill="white"/>
<path d="M868 198H869V199H868V198Z" fill="white"/>
<path d="M868 229H869V230H868V229Z" fill="white"/>
<path d="M868 260H869V261H868V260Z" fill="white"/>
<path d="M868 291H869V292H868V291Z" fill="white"/>
<path d="M868 322H869V323H868V322Z" fill="white"/>
<path d="M868 353H869V354H868V353Z" fill="white"/>
<path d="M868 384H869V385H868V384Z" fill="white"/>
<path d="M868 415H869V416H868V415Z" fill="white"/>
<path d="M868 446H869V447H868V446Z" fill="white"/>
<path d="M868 477H869V478H868V477Z" fill="white"/>
<path d="M868 508H869V509H868V508Z" fill="white"/>
<path d="M868 539H869V540H868V539Z" fill="white"/>
<path d="M868 570H869V571H868V570Z" fill="white"/>
<path d="M868 601H869V602H868V601Z" fill="white"/>
<path d="M868 632H869V633H868V632Z" fill="white"/>
<path d="M868 663H869V664H868V663Z" fill="white"/>
<path d="M868 694H869V695H868V694Z" fill="white"/>
<path d="M868 725H869V726H868V725Z" fill="white"/>
<path d="M868 756H869V757H868V756Z" fill="white"/>
<path d="M868 787H869V788H868V787Z" fill="white"/>
<path d="M868 818H869V819H868V818Z" fill="white"/>
<path d="M868 849H869V850H868V849Z" fill="white"/>
<path d="M868 880H869V881H868V880Z" fill="white"/>
<path d="M899 -81H900V-80H899V-81Z" fill="white"/>
<path d="M899 -50H900V-49H899V-50Z" fill="white"/>
<path d="M899 -19H900V-18H899V-19Z" fill="white"/>
<path d="M899 12H900V13H899V12Z" fill="white"/>
<path d="M899 43H900V44H899V43Z" fill="white"/>
<path d="M899 74H900V75H899V74Z" fill="white"/>
<path d="M899 105H900V106H899V105Z" fill="white"/>
<path d="M899 136H900V137H899V136Z" fill="white"/>
<path d="M899 167H900V168H899V167Z" fill="white"/>
<path d="M899 198H900V199H899V198Z" fill="white"/>
<path d="M899 229H900V230H899V229Z" fill="white"/>
<path d="M899 260H900V261H899V260Z" fill="white"/>
<path d="M899 291H900V292H899V291Z" fill="white"/>
<path d="M899 322H900V323H899V322Z" fill="white"/>
<path d="M899 353H900V354H899V353Z" fill="white"/>
<path d="M899 384H900V385H899V384Z" fill="white"/>
<path d="M899 415H900V416H899V415Z" fill="white"/>
<path d="M899 446H900V447H899V446Z" fill="white"/>
<path d="M899 477H900V478H899V477Z" fill="white"/>
<path d="M899 508H900V509H899V508Z" fill="white"/>
<path d="M899 539H900V540H899V539Z" fill="white"/>
<path d="M899 570H900V571H899V570Z" fill="white"/>
<path d="M899 601H900V602H899V601Z" fill="white"/>
<path d="M899 632H900V633H899V632Z" fill="white"/>
<path d="M899 663H900V664H899V663Z" fill="white"/>
<path d="M899 694H900V695H899V694Z" fill="white"/>
<path d="M899 725H900V726H899V725Z" fill="white"/>
<path d="M899 756H900V757H899V756Z" fill="white"/>
<path d="M899 787H900V788H899V787Z" fill="white"/>
<path d="M899 818H900V819H899V818Z" fill="white"/>
<path d="M899 849H900V850H899V849Z" fill="white"/>
<path d="M899 880H900V881H899V880Z" fill="white"/>
<path d="M930 -81H931V-80H930V-81Z" fill="white"/>
<path d="M930 -50H931V-49H930V-50Z" fill="white"/>
<path d="M930 -19H931V-18H930V-19Z" fill="white"/>
<path d="M930 12H931V13H930V12Z" fill="white"/>
<path d="M930 43H931V44H930V43Z" fill="white"/>
<path d="M930 74H931V75H930V74Z" fill="white"/>
<path d="M930 105H931V106H930V105Z" fill="white"/>
<path d="M930 136H931V137H930V136Z" fill="white"/>
<path d="M930 167H931V168H930V167Z" fill="white"/>
<path d="M930 198H931V199H930V198Z" fill="white"/>
<path d="M930 229H931V230H930V229Z" fill="white"/>
<path d="M930 260H931V261H930V260Z" fill="white"/>
<path d="M930 291H931V292H930V291Z" fill="white"/>
<path d="M930 322H931V323H930V322Z" fill="white"/>
<path d="M930 353H931V354H930V353Z" fill="white"/>
<path d="M930 384H931V385H930V384Z" fill="white"/>
<path d="M930 415H931V416H930V415Z" fill="white"/>
<path d="M930 446H931V447H930V446Z" fill="white"/>
<path d="M930 477H931V478H930V477Z" fill="white"/>
<path d="M930 508H931V509H930V508Z" fill="white"/>
<path d="M930 539H931V540H930V539Z" fill="white"/>
<path d="M930 570H931V571H930V570Z" fill="white"/>
<path d="M930 601H931V602H930V601Z" fill="white"/>
<path d="M930 632H931V633H930V632Z" fill="white"/>
<path d="M930 663H931V664H930V663Z" fill="white"/>
<path d="M930 694H931V695H930V694Z" fill="white"/>
<path d="M930 725H931V726H930V725Z" fill="white"/>
<path d="M930 756H931V757H930V756Z" fill="white"/>
<path d="M930 787H931V788H930V787Z" fill="white"/>
<path d="M930 818H931V819H930V818Z" fill="white"/>
<path d="M930 849H931V850H930V849Z" fill="white"/>
<path d="M930 880H931V881H930V880Z" fill="white"/>
<path d="M961 -81H962V-80H961V-81Z" fill="white"/>
<path d="M961 -50H962V-49H961V-50Z" fill="white"/>
<path d="M961 -19H962V-18H961V-19Z" fill="white"/>
<path d="M961 12H962V13H961V12Z" fill="white"/>
<path d="M961 43H962V44H961V43Z" fill="white"/>
<path d="M961 74H962V75H961V74Z" fill="white"/>
<path d="M961 105H962V106H961V105Z" fill="white"/>
<path d="M961 136H962V137H961V136Z" fill="white"/>
<path d="M961 167H962V168H961V167Z" fill="white"/>
<path d="M961 198H962V199H961V198Z" fill="white"/>
<path d="M961 229H962V230H961V229Z" fill="white"/>
<path d="M961 260H962V261H961V260Z" fill="white"/>
<path d="M961 291H962V292H961V291Z" fill="white"/>
<path d="M961 322H962V323H961V322Z" fill="white"/>
<path d="M961 353H962V354H961V353Z" fill="white"/>
<path d="M961 384H962V385H961V384Z" fill="white"/>
<path d="M961 415H962V416H961V415Z" fill="white"/>
<path d="M961 446H962V447H961V446Z" fill="white"/>
<path d="M961 477H962V478H961V477Z" fill="white"/>
<path d="M961 508H962V509H961V508Z" fill="white"/>
<path d="M961 539H962V540H961V539Z" fill="white"/>
<path d="M961 570H962V571H961V570Z" fill="white"/>
<path d="M961 601H962V602H961V601Z" fill="white"/>
<path d="M961 632H962V633H961V632Z" fill="white"/>
<path d="M961 663H962V664H961V663Z" fill="white"/>
<path d="M961 694H962V695H961V694Z" fill="white"/>
<path d="M961 725H962V726H961V725Z" fill="white"/>
<path d="M961 756H962V757H961V756Z" fill="white"/>
<path d="M961 787H962V788H961V787Z" fill="white"/>
<path d="M961 818H962V819H961V818Z" fill="white"/>
<path d="M961 849H962V850H961V849Z" fill="white"/>
<path d="M961 880H962V881H961V880Z" fill="white"/>
<path d="M992 -81H993V-80H992V-81Z" fill="white"/>
<path d="M992 -50H993V-49H992V-50Z" fill="white"/>
<path d="M992 -19H993V-18H992V-19Z" fill="white"/>
<path d="M992 12H993V13H992V12Z" fill="white"/>
<path d="M992 43H993V44H992V43Z" fill="white"/>
<path d="M992 74H993V75H992V74Z" fill="white"/>
<path d="M992 105H993V106H992V105Z" fill="white"/>
<path d="M992 136H993V137H992V136Z" fill="white"/>
<path d="M992 167H993V168H992V167Z" fill="white"/>
<path d="M992 198H993V199H992V198Z" fill="white"/>
<path d="M992 229H993V230H992V229Z" fill="white"/>
<path d="M992 260H993V261H992V260Z" fill="white"/>
<path d="M992 291H993V292H992V291Z" fill="white"/>
<path d="M992 322H993V323H992V322Z" fill="white"/>
<path d="M992 353H993V354H992V353Z" fill="white"/>
<path d="M992 384H993V385H992V384Z" fill="white"/>
<path d="M992 415H993V416H992V415Z" fill="white"/>
<path d="M992 446H993V447H992V446Z" fill="white"/>
<path d="M992 477H993V478H992V477Z" fill="white"/>
<path d="M992 508H993V509H992V508Z" fill="white"/>
<path d="M992 539H993V540H992V539Z" fill="white"/>
<path d="M992 570H993V571H992V570Z" fill="white"/>
<path d="M992 601H993V602H992V601Z" fill="white"/>
<path d="M992 632H993V633H992V632Z" fill="white"/>
<path d="M992 663H993V664H992V663Z" fill="white"/>
<path d="M992 694H993V695H992V694Z" fill="white"/>
<path d="M992 725H993V726H992V725Z" fill="white"/>
<path d="M992 756H993V757H992V756Z" fill="white"/>
<path d="M992 787H993V788H992V787Z" fill="white"/>
<path d="M992 818H993V819H992V818Z" fill="white"/>
<path d="M992 849H993V850H992V849Z" fill="white"/>
<path d="M992 880H993V881H992V880Z" fill="white"/>
<path d="M1023 -81H1024V-80H1023V-81Z" fill="white"/>
<path d="M1023 -50H1024V-49H1023V-50Z" fill="white"/>
<path d="M1023 -19H1024V-18H1023V-19Z" fill="white"/>
<path d="M1023 12H1024V13H1023V12Z" fill="white"/>
<path d="M1023 43H1024V44H1023V43Z" fill="white"/>
<path d="M1023 74H1024V75H1023V74Z" fill="white"/>
<path d="M1023 105H1024V106H1023V105Z" fill="white"/>
<path d="M1023 136H1024V137H1023V136Z" fill="white"/>
<path d="M1023 167H1024V168H1023V167Z" fill="white"/>
<path d="M1023 198H1024V199H1023V198Z" fill="white"/>
<path d="M1023 229H1024V230H1023V229Z" fill="white"/>
<path d="M1023 260H1024V261H1023V260Z" fill="white"/>
<path d="M1023 291H1024V292H1023V291Z" fill="white"/>
<path d="M1023 322H1024V323H1023V322Z" fill="white"/>
<path d="M1023 353H1024V354H1023V353Z" fill="white"/>
<path d="M1023 384H1024V385H1023V384Z" fill="white"/>
<path d="M1023 415H1024V416H1023V415Z" fill="white"/>
<path d="M1023 446H1024V447H1023V446Z" fill="white"/>
<path d="M1023 477H1024V478H1023V477Z" fill="white"/>
<path d="M1023 508H1024V509H1023V508Z" fill="white"/>
<path d="M1023 539H1024V540H1023V539Z" fill="white"/>
<path d="M1023 570H1024V571H1023V570Z" fill="white"/>
<path d="M1023 601H1024V602H1023V601Z" fill="white"/>
<path d="M1023 632H1024V633H1023V632Z" fill="white"/>
<path d="M1023 663H1024V664H1023V663Z" fill="white"/>
<path d="M1023 694H1024V695H1023V694Z" fill="white"/>
<path d="M1023 725H1024V726H1023V725Z" fill="white"/>
<path d="M1023 756H1024V757H1023V756Z" fill="white"/>
<path d="M1023 787H1024V788H1023V787Z" fill="white"/>
<path d="M1023 818H1024V819H1023V818Z" fill="white"/>
<path d="M1023 849H1024V850H1023V849Z" fill="white"/>
<path d="M1023 880H1024V881H1023V880Z" fill="white"/>
<path d="M1054 -81H1055V-80H1054V-81Z" fill="white"/>
<path d="M1054 -50H1055V-49H1054V-50Z" fill="white"/>
<path d="M1054 -19H1055V-18H1054V-19Z" fill="white"/>
<path d="M1054 12H1055V13H1054V12Z" fill="white"/>
<path d="M1054 43H1055V44H1054V43Z" fill="white"/>
<path d="M1054 74H1055V75H1054V74Z" fill="white"/>
<path d="M1054 105H1055V106H1054V105Z" fill="white"/>
<path d="M1054 136H1055V137H1054V136Z" fill="white"/>
<path d="M1054 167H1055V168H1054V167Z" fill="white"/>
<path d="M1054 198H1055V199H1054V198Z" fill="white"/>
<path d="M1054 229H1055V230H1054V229Z" fill="white"/>
<path d="M1054 260H1055V261H1054V260Z" fill="white"/>
<path d="M1054 291H1055V292H1054V291Z" fill="white"/>
<path d="M1054 322H1055V323H1054V322Z" fill="white"/>
<path d="M1054 353H1055V354H1054V353Z" fill="white"/>
<path d="M1054 384H1055V385H1054V384Z" fill="white"/>
<path d="M1054 415H1055V416H1054V415Z" fill="white"/>
<path d="M1054 446H1055V447H1054V446Z" fill="white"/>
<path d="M1054 477H1055V478H1054V477Z" fill="white"/>
<path d="M1054 508H1055V509H1054V508Z" fill="white"/>
<path d="M1054 539H1055V540H1054V539Z" fill="white"/>
<path d="M1054 570H1055V571H1054V570Z" fill="white"/>
<path d="M1054 601H1055V602H1054V601Z" fill="white"/>
<path d="M1054 632H1055V633H1054V632Z" fill="white"/>
<path d="M1054 663H1055V664H1054V663Z" fill="white"/>
<path d="M1054 694H1055V695H1054V694Z" fill="white"/>
<path d="M1054 725H1055V726H1054V725Z" fill="white"/>
<path d="M1054 756H1055V757H1054V756Z" fill="white"/>
<path d="M1054 787H1055V788H1054V787Z" fill="white"/>
<path d="M1054 818H1055V819H1054V818Z" fill="white"/>
<path d="M1054 849H1055V850H1054V849Z" fill="white"/>
<path d="M1054 880H1055V881H1054V880Z" fill="white"/>
<path d="M1085 -81H1086V-80H1085V-81Z" fill="white"/>
<path d="M1085 -50H1086V-49H1085V-50Z" fill="white"/>
<path d="M1085 -19H1086V-18H1085V-19Z" fill="white"/>
<path d="M1085 12H1086V13H1085V12Z" fill="white"/>
<path d="M1085 43H1086V44H1085V43Z" fill="white"/>
<path d="M1085 74H1086V75H1085V74Z" fill="white"/>
<path d="M1085 105H1086V106H1085V105Z" fill="white"/>
<path d="M1085 136H1086V137H1085V136Z" fill="white"/>
<path d="M1085 167H1086V168H1085V167Z" fill="white"/>
<path d="M1085 198H1086V199H1085V198Z" fill="white"/>
<path d="M1085 229H1086V230H1085V229Z" fill="white"/>
<path d="M1085 260H1086V261H1085V260Z" fill="white"/>
<path d="M1085 291H1086V292H1085V291Z" fill="white"/>
<path d="M1085 322H1086V323H1085V322Z" fill="white"/>
<path d="M1085 353H1086V354H1085V353Z" fill="white"/>
<path d="M1085 384H1086V385H1085V384Z" fill="white"/>
<path d="M1085 415H1086V416H1085V415Z" fill="white"/>
<path d="M1085 446H1086V447H1085V446Z" fill="white"/>
<path d="M1085 477H1086V478H1085V477Z" fill="white"/>
<path d="M1085 508H1086V509H1085V508Z" fill="white"/>
<path d="M1085 539H1086V540H1085V539Z" fill="white"/>
<path d="M1085 570H1086V571H1085V570Z" fill="white"/>
<path d="M1085 601H1086V602H1085V601Z" fill="white"/>
<path d="M1085 632H1086V633H1085V632Z" fill="white"/>
<path d="M1085 663H1086V664H1085V663Z" fill="white"/>
<path d="M1085 694H1086V695H1085V694Z" fill="white"/>
<path d="M1085 725H1086V726H1085V725Z" fill="white"/>
<path d="M1085 756H1086V757H1085V756Z" fill="white"/>
<path d="M1085 787H1086V788H1085V787Z" fill="white"/>
<path d="M1085 818H1086V819H1085V818Z" fill="white"/>
<path d="M1085 849H1086V850H1085V849Z" fill="white"/>
<path d="M1085 880H1086V881H1085V880Z" fill="white"/>
</svg>
