<?xml version="1.0" standalone="no"?>
<!DOCTYPE svg PUBLIC "-//W3C//DTD SVG 1.1//EN" "http://www.w3.org/Graphics/SVG/1.1/DTD/svg11.dtd" >
<svg xmlns="http://www.w3.org/2000/svg">
<metadata>Generated by IcoMoon</metadata>
<defs>
<font id="next-sass" horiz-adv-x="1024">
<font-face units-per-em="1024" ascent="960" descent="-64" />
<missing-glyph horiz-adv-x="1024" />
<glyph unicode="&#x20;" horiz-adv-x="512" d="" />
<glyph unicode="&#xe900;" glyph-name="shape-1" d="M724.752 796.782c3.005-1.741 4.907-4.978 4.907-8.526v-140.115l143.612-10.24c2.938-0.601 5.476-2.511 6.839-5.236l66.373-132.758c1.050-2.099 1.313-4.51 0.748-6.786l-74.886-301.269c-1.176-4.73-5.646-7.887-10.498-7.424l-132.202 12.591 0.014-103.223c0-4.161-2.623-7.861-6.54-9.261l-285.956-102.136c-3.493-1.245-7.387-0.416-10.077 2.135l-163.397 154.884c-1.959 1.857-3.084 4.439-3.086 7.138v89.75l-105.074 9.395c-3.173 0.286-6.008 2.091-7.615 4.84l-88.511 151.471c-1.507 2.58-1.763 5.711-0.693 8.499l103.822 270.645c1.552 4.041 5.568 6.597 9.886 6.296l88.185-6.215v127.443c0 4.756 3.411 8.841 8.090 9.696l271.787 49.511c1.355 0.056 2.712-0.17 3.986-0.666l180.285-70.439zM86.098 395.39l76.259-130.515 104.596-9.383 120.249 111.437-301.104 28.461zM280.294 792.907v-120.019l138.632-294.034c1.831-3.879 0.941-8.503-2.202-11.422l-136.418-126.436v-90.21l143.693-136.186 0.014 707.964-143.718 70.343zM443.703 720.687l-0.014-715.036 266.279 95.106v101.795l-249.186 163.873c-2.442 1.607-4.051 4.22-4.378 7.125s0.668 5.805 2.692 7.914l250.872 261.453v133.235l-266.266-55.466zM178.321 667.299l-96.588-251.715 312.011-29.495-129.755 275.172-85.669 6.038zM505.846 360.361l217.34-142.931 124.398-11.859-49.579 122.494-292.159 32.295zM723.718 628.817l-236.581-246.561 310.134-34.282 61.871 271.285-135.424 9.559zM815.206 338.007l45.336-111.996 66.7 268.333-52.462 104.925-59.573-261.262zM539.91 847.871l-238.24-43.487 133.48-65.353 250.165 52.122-145.406 56.718z" />
<glyph unicode="&#xe901;" glyph-name="shape-2" d="M666.096 521.862l-1.288-157.808c-0.032-3.489-1.918-6.699-4.943-8.442l-137.462-79.134v-141.135l127.616 73.769c3.033 1.753 6.784 1.757 9.826 0.020 3.037-1.739 4.931-4.962 4.962-8.462l1.191-146.001 122.116 69.307-1.134 158.559c-0.026 3.539 1.859 6.823 4.923 8.596l136.96 79.193v140l-125.865-73.866c-3.042-1.784-6.804-1.81-9.864-0.057-3.062 1.753-4.96 5.010-4.962 8.539v149l-122.077-72.078zM379.674 54.689l112.981 63.673-112.981 65.038v-128.711zM532.462 118.42l113.845-63.693-1.057 128.886-112.788-65.193zM238.98 444.94c-0.002-3.509-1.867-6.76-4.903-8.521-3.040-1.759-6.8-1.766-9.846-0.018l-129 74.114v-140.652l138.789-79.136c3.070-1.751 4.96-5.024 4.96-8.558v-158.192l121.001-69.173v145.617c0 3.515 1.879 6.758 4.923 8.519 3.042 1.759 6.8 1.772 9.846 0.020l127.961-73.635v141.154l-137.789 79.134c-3.052 1.757-4.941 5.016-4.941 8.539v157.731l-121.001 71.308v-148.25zM389.693 364.093l122.864-70.558 122.539 70.558-122.559 69.537-122.845-69.537zM522.403 450.708l122.847-69.73 1.154 140.885-124 71.52v-142.675zM379.674 521.862v-140.828l123.038 69.656v142.653l-123.038-71.481zM104.942 527.651l114.345-65.694v133.213l-114.345-67.519zM807.865 462.151l111.5 65.424-111.5 66.326v-131.749zM517.5 767.381c-3.064-1.775-6.847-1.766-9.903 0.019l-137.752 80.577-121.153-71.904 126.019-72.038c3.044-1.741 4.935-4.974 4.962-8.481 0.024-3.507-1.825-6.774-4.846-8.556l-128-75.577 123.038-72.501 138.923 80.597c2.804 1.164 6.020 0.983 8.692-0.557l138.77-80.039 122.461 72.308-127.423 75.788c-3.013 1.792-4.86 5.053-4.827 8.558 0.035 3.507 1.95 6.731 5 8.462l126.885 72.019-122.077 71.923-138.77-80.596zM675.903 695.286l112.27-66.771v130.481l-112.27-63.711zM238.98 629.65l111.252 65.713-111.252 63.596v-129.31zM807.865 616.804l135.885-80.827c2.981-1.772 4.805-4.992 4.807-8.462v-162.885c0-3.513-1.861-6.778-4.903-8.539l-136.942-79.153 1.154-158.596c0.026-3.568-1.879-6.873-4.98-8.635l-141.712-80.423c-2.995-1.699-6.668-1.719-9.673-0.037l-138.943 77.731-137.903-77.712c-3.017-1.697-6.705-1.699-9.712 0.018l-140.692 80.423c-3.068 1.755-4.962 5.025-4.962 8.558v158.192l-138.788 79.136c-3.068 1.753-4.961 5.024-4.961 8.556v163.365c0.003 3.48 1.849 6.691 4.846 8.462l138.903 82.058v157.866c0 3.476 1.839 6.707 4.829 8.481l141.883 84.077c2.836 1.196 6.109 1.002 8.808-0.577l137.769-80.577 139.981 81.173c2.83 1.168 6.069 0.964 8.749-0.615l141.712-83.481c3.005-1.77 4.846-4.994 4.846-8.481v-159.096z" />
<glyph unicode="&#xe902;" glyph-name="shape-3" d="M267.961 49.749l153.423-84.691v178.96l-153.423 85.366v-179.635zM441.076 144.173v-178.578l487.788 286.173v177.097l-487.788-284.692zM95.231 155.327l153.038-93.789v570.268l-153.038 88.040v-564.519zM436.135 342.307l-158.405-95.827 153.366-85.346 320.077 186.807-150.347 89.212-164.691-94.846zM267.961 631.942v-368.347l153.423 92.808v368.211l-153.423-92.672zM780.424 543.518v-178.499l148.441 86.654v177.211l-148.441-85.366zM441.076 554.827l319.655-189.655v178.308l-319.655 181.673v-170.327zM441.076 367.904l140.308 80.788-140.308 83.232v-164.019zM277.48 840.769l493.078-280.211 148.616 85.48-487.885 288.788-153.809-94.058zM104.808 737.057l153.154-88.135 153.789 92.885-153.519 87.25-153.423-92zM948.557 246.114c0-3.491-1.853-6.713-4.864-8.481l-507.481-297.73c-2.997-1.759-6.709-1.814-9.752-0.134l-173.095 95.537c-0.13 0.073-0.276 0.154-0.404 0.232l-172.731 105.864c-2.919 1.79-4.692 4.98-4.692 8.405v587.057c0.001 3.458 1.822 6.664 4.788 8.442l172.654 103.539 174.306 106.481c2.875 1.256 6.217 1.087 8.962-0.538l507.481-300.422c2.993-1.772 4.827-4.984 4.827-8.462v-399.789z" />
<glyph unicode="&#xe903;" glyph-name="shape-4" d="M105.077 202.587l397.134-229.155v141.135l-274.729 158.655-122.405-70.634zM521.903-26.569l112.404 64.866-112.404 64.904v-129.77zM521.903 443.124v-317.172l122.25-70.617v458.327l-122.25-70.538zM663.845 55.335l112.809 65.097-112.809 65.097v-130.194zM105.077 366.663l397.134-229.346v141.501l-274.712 158.537-122.422-70.691zM663.845 525.028v-316.751l122.673-70.788v458.327l-122.673-70.788zM806.211 137.49l112.79 65.097-112.79 65.095v-130.192zM95.231 219.644l112.576 64.941-112.576 65.020v-129.961zM806.211 607.183v-316.751l122.654-70.788v458.327l-122.654-70.788zM105.058 530.739l397.153-229.173v141.558l-136.365 78.692c-0.776 0.333-1.516 0.74-2.192 1.27l-135.981 78.46-122.615-70.808zM95.231 383.72l112.558 65-112.558 64.941v-129.942zM389.5 530.893l122.539-70.731 274.479 158.405v141.558l-397.019-229.232zM247.365 612.913l122.423-70.654 274.521 158.499 0.037 141.404-396.981-229.25zM95.231 547.779l112.769 65.115-112.769 65.077v-130.192zM105.077 695.028l122.596-70.751 274.538 158.539v141.385l-397.134-229.173zM806.211 629.931l112.79 65.097-112.79 65.097v-130.194zM664.001 712.125l112.654 65.057-112.616 64.981-0.037-130.038zM521.903 794.182l112.597 65.038-112.597 64.981v-130.019zM948.557 202.587c0-3.519-1.875-6.78-4.923-8.539l-426.654-246.213c-3.044-1.757-6.8-1.757-9.846 0l-426.672 246.213c-3.047 1.759-4.923 5.020-4.923 8.539v492.442c0.003 3.515 1.879 6.762 4.923 8.519l427.846 246.789c2.8 1.153 6.008 0.961 8.672-0.577l426.654-246.212c3.046-1.757 4.921-5.004 4.923-8.519v-492.442z" />
<glyph unicode="&#xe904;" glyph-name="shape-5" d="M720.461 886.529c3.046 1.757 6.802 1.757 9.846 0l213.327-123.058c3.048-1.759 4.923-5.020 4.923-8.539v-246.134c0-3.519-1.875-6.76-4.923-8.519l-208.404-120.231v-240.461c0-3.517-1.879-6.76-4.923-8.519l-213.327-123.077c-3.044-1.757-6.802-1.757-9.846 0l-213.346 123.077c-3.040 1.759-4.921 5.004-4.923 8.519v240.461l-208.403 120.231c-3.044 1.759-4.923 5.002-4.923 8.519v246.134l0.096 1.308c0.4 3.005 2.16 5.693 4.827 7.231l213.326 123.058c3.046 1.757 6.802 1.757 9.846 0l208.406-120.212 208.421 120.212zM318.403 139.605l193.636-111.711 193.634 111.711-193.634 111.693-193.636-111.693zM502.211 491.76l-193.654-111.712v-223.403l193.654 111.711v223.405zM105.077 508.818l193.634-111.712 193.636 111.712-193.636 111.691-193.634-111.691zM531.749 508.818l193.634-111.712 193.617 111.712-193.617 111.691-193.634-111.691zM288.864 860.971l-193.634-111.712v-223.384l193.634 111.693v223.403zM715.538 860.971l-193.634-111.712v-223.384l193.634 111.693v223.403zM521.903 268.355l193.634-111.691v223.384l-193.634 111.712v-223.405zM308.557 637.568l193.654-111.712v223.403l-193.654 111.712v-223.403zM735.23 637.568l193.634-111.693v223.384l-193.634 111.712v-223.403z" />
<glyph unicode="&#xe905;" glyph-name="shape-6" d="M239.462 317.247v-344.288l299.461 173.056v143.75l-158.789-92.788c-3.044-1.776-6.808-1.792-9.866-0.037-3.056 1.755-4.941 5.012-4.941 8.539v184.48l-125.865-72.71zM95.231 45.651l124.539-72.615v344.249l-124.539 72.596v-344.229zM630.731 339.978v-140.924l298.134 172.288v142.655l-298.134-174.019zM385.020 365.361v-142.73l143.98 84.153-124.347 70.193-19.633-11.616zM234.539 398.496c-2.997-1.733-6.686-1.776-9.712-0.096l-69.577 38.654-50.462-29.942 124.845-72.789 125.598 72.558-54.077 30.192-66.615-38.577zM493.865 634.746l157.481-95.193c2.964-1.79 4.783-5 4.769-8.462-0.018-3.464-1.863-6.68-4.846-8.442l-157.674-93.135 127.212-72.519 298.27 174.078-298.366 171.845-126.846-68.173zM95.231 492.9l124.539-69.153v180.787c0 3.489 1.837 6.731 4.844 8.501 3.009 1.768 6.741 1.812 9.789 0.114l160.307-89.289v145.674l-299.48 169.058v-345.692zM239.462 424.111l125.865 72.865v20.712l-125.865 70.114v-163.692zM483.846 472.688l22.288-12.885 120.925 71.442-143.212 86.54v-145.097zM414.403 669.495v-145.038l49.751 29.635v81.134c0 3.623 1.985 6.955 5.173 8.672l69.597 37.406v57.653l-124.52-69.463zM105.173 855.592l299.384-169.020 124.231 69.289-299.171 172.307-124.443-72.577zM558.616 229.323l52.423-30.269v140.865l-127.193 72.501v-57.539l69.77-39.385c3.092-1.745 4.998-5.027 5-8.578v-77.596zM385.020 388.246l14.519 8.558 1.172 0.597c2.79 1.182 5.994 1.012 8.674-0.5l54.768-30.905v63.366c0.002 3.482 1.829 6.709 4.827 8.481l17.674 10.461-17.597 10.155c-3.042 1.759-4.903 5.022-4.903 8.537v64.173l-54.558-32.518c-3.017-1.798-6.778-1.843-9.846-0.136l-14.73 8.212v-15.443c0-3.513-1.883-6.778-4.923-8.537l-59.097-34.194 58.98-32.941c3.111-1.741 5.037-5.031 5.039-8.598v-18.769zM558.616 691.899l57.616 30.962 1.154 0.52c2.743 1.046 5.841 0.813 8.422-0.673l317.826-183.038c3.052-1.759 4.923-5.018 4.923-8.539v-165.5c-0.002-3.515-1.879-6.762-4.923-8.519l-317.826-183.654c-3.044-1.757-6.802-1.759-9.846 0l-57.346 33.115v-66.249c0-3.517-1.879-6.76-4.923-8.519l-319.153-184.424c-3.060-1.766-6.833-1.76-9.886 0.020l-144.231 84.076c-3.023 1.764-4.882 5.002-4.884 8.501v367.037c0.001 3.476 1.839 6.689 4.827 8.462l54.942 32.636-54.712 30.366c-3.124 1.737-5.058 5.039-5.058 8.615v368.365c0.002 3.5 1.861 6.736 4.884 8.5l145.404 84.673c2.802 1.166 6.018 0.979 8.692-0.558l319.173-183.827c3.050-1.758 4.923-5.019 4.923-8.538v-63.809z" />
<glyph unicode="&#xe906;" glyph-name="shape-7" d="M95.231 239.506l406.98-205.558v80.538l-406.98 210.521v-85.5zM521.903 114.525v-80.557l89.596 45.269v82.308l-89.596-47.019zM107.039 341.043l404.961-209.461 87.558 45.942-199.385 97.461c-0.122 0.059-0.246 0.11-0.366 0.173l-105.787 57.346c-3.239 1.757-5.23 5.183-5.155 8.865 0.077 3.684 2.213 7.012 5.52 8.635l88.038 43.134-85.441 43.366-189.943-95.462zM95.231 560.947l421.078-213.673 310.288-149.788v81.558l-731.366 369.327v-87.424zM846.289 279.121v-81.327l82.576 41.693v82.692l-82.576-43.057zM320.193 340.736l84.46-45.789 85.636 43.461-85.886 43.577-84.21-41.249zM107.212 664.389l729.154-368.23 80.845 42.153-304.327 155c-3.3 1.686-5.37 5.083-5.364 8.789 0.006 3.71 2.093 7.097 5.404 8.769l303.961 153.519-404.844 204.443-404.828-204.443zM639.116 502.063l86.327-43.981 203.422 102.884v87.404l-289.749-146.308zM509.769 781.697c2.271 0.541 4.689 0.25 6.808-0.846l208.173-107.731c3.233-1.674 5.287-4.994 5.327-8.635 0.039-3.639-1.942-7.005-5.134-8.749l-98.885-53.866c-0.093-0.049-0.195-0.106-0.289-0.154l-109.152-54.865c-2.798-1.406-6.112-1.382-8.905 0.037l-107.808 54.904-102.345 53.866c-3.251 1.711-5.27 5.094-5.25 8.769 0.018 3.675 2.078 7.034 5.344 8.712l209.904 107.73 2.211 0.827zM426.327 610.448l85.884-43.75 87.020 43.731-87.174 42.961-85.73-42.941zM323.462 664.275l81.134-42.693 97.615 48.884v85.539l-178.749-91.731zM521.903 670.505l99.192-48.904 78.135 42.557-177.327 91.77v-85.423zM948.557 554.91c0-3.714-2.089-7.113-5.404-8.789l-195.96-99.115 196-99.828c3.295-1.68 5.362-5.071 5.364-8.769v-104.98c0-3.716-2.087-7.115-5.404-8.789l-102.268-51.655c-2.733-1.376-5.955-1.404-8.712-0.077l-320.039 154.52-85.557-43.424 199.097-97.325c3.373-1.652 5.516-5.090 5.518-8.848v-104.692c-0.002-3.71-2.091-7.115-5.404-8.789l-109.308-55.192c-2.786-1.404-6.079-1.404-8.865 0l-426.672 215.481c-3.314 1.674-5.403 5.075-5.404 8.789v107.731c0 3.722 2.097 7.136 5.423 8.806l194.193 97.597-194.232 98.558c-3.305 1.678-5.385 5.081-5.385 8.789v109.462c0 3.712 2.091 7.113 5.404 8.789l428.846 216.268c2.231 0.527 4.602 0.265 6.691-0.788l426.673-215.48c3.316-1.676 5.404-5.075 5.404-8.789v-109.462z" />
<glyph unicode="&#xe907;" glyph-name="shape-8" d="M95.231 199.635l71.808-37.904v385.040c0 3.543 1.899 6.827 4.981 8.576 3.079 1.747 6.863 1.697 9.904-0.114l252.078-150.52c2.976-1.776 4.807-4.996 4.807-8.462v-392.365l62.462-36.462v472.424l-406.039 233.019v-473.232zM520.962 439.962v-472.306l407.903 244.634v79.173l-326.768-197.25c-3.040-1.833-6.831-1.879-9.923-0.134-3.090 1.745-4.998 5.010-5 8.558v293.614c0 3.464 1.816 6.684 4.787 8.462l336.904 201.559v77.383l-407.903-243.692zM606.866 390.693v-270.576l312.212 188.461-232.905 129.558-79.307-47.443zM186.731 162.712l232.385 138.386v89.576l-232.385 138.77v-366.732zM447.75 896.655l316.942-198.442c2.928-1.835 4.679-5.083 4.616-8.539-0.067-3.45-1.932-6.623-4.923-8.346l-248.346-143.076c-3.082-1.776-6.884-1.757-9.943 0.057l-329.192 195.212-72.096-43.443 406.192-233.116 408.231 243.885-408.001 234.038-63.48-38.231zM438.808 601.116l72.385-42.923 229.134 132.039-301.519 188.827v-277.943zM948.557 600.674c0-3.464-1.816-6.684-4.787-8.462l-238.078-142.405 237.808-132.287c3.123-1.739 5.057-5.041 5.057-8.615v-102.193c0-3.456-1.806-6.662-4.768-8.442l-427.616-256.443c-3.080-1.845-6.918-1.885-10.019-0.077l-82.154 47.982c-3.023 1.764-4.884 4.998-4.884 8.499v279.942l-237.192-141.249c-2.947-1.755-6.601-1.849-9.635-0.25l-91.5 48.327c-3.225 1.703-5.248 5.043-5.25 8.692v496.173c0.001 3.45 1.813 6.642 4.769 8.422l91.5 55.115 1.192 0.616c2.865 1.229 6.176 1.040 8.904-0.577l237.212-140.654v284.039c0.004 3.449 1.814 6.643 4.769 8.423l82.154 49.5 1.172 0.596c2.826 1.222 6.095 1.057 8.808-0.5l427.597-245.288c3.058-1.755 4.939-5.014 4.941-8.539v-100.346z" />
<glyph unicode="&#xe908;" glyph-name="shape-9" horiz-adv-x="986" d="M896.019 627.399c2.374-1.773 3.796-4.583 3.798-7.595v-373.405c0-3.417-1.832-6.58-4.807-8.262l-160.525-90.732c-2.981-1.684-6.643-1.625-9.573 0.144l-69.374 41.929v-86.162c0-3.368-1.796-6.483-4.701-8.184l-164.011-95.97c-3.011-1.764-6.751-1.726-9.73 0.091l-157.042 95.97c-2.816 1.72-4.54 4.781-4.544 8.080v81.133l-62.475-36.94c-2.918-1.722-6.542-1.758-9.493-0.091l-160.527 90.732c-2.974 1.682-4.806 4.845-4.806 8.262v275.693c0.002 3.417 1.845 6.569 4.819 8.251l161.627 91.255c2.634 1.070 5.632 0.914 8.158-0.484l66.192-36.758v262.285c0.002 3.417 1.845 6.568 4.818 8.249l161.64 91.269c2.632 1.063 5.624 0.899 8.145-0.498l158.13-87.943c2.37-1.775 3.798-4.584 3.798-7.595v-176.122l73.093 41.301c2.873 1.623 6.387 1.629 9.271 0.025l158.117-87.929zM97.172 505.987v-254.062l141.356-79.889-3.222 257.204-138.134 76.747zM254.267 429.371l3.222-257.204 58.036 34.281-0.013 81.829c0 3.415 1.843 6.567 4.818 8.249l75.45 42.663v170.151l-141.513-79.969zM334.473 272.17l0.011-163.538 138.069-84.381v171.224l-138.081 76.696zM491.514 195.396v-171.512l145.063 84.878v165.332l-145.063-78.698zM248.257 601.97l-141.186-79.798 137.612-76.434 141.198 79.787-137.624 76.445zM568.183 322.243h-0.027l-82.587 45.896-141.185-79.798 137.688-76.485 144.251 78.253-58.14 32.135zM337.967 830.535v-256.707l71.89-39.964 1.087-0.694c2.37-1.775 3.796-4.583 3.796-7.595v-175.677l61.296 34.662 0.013 369.253-138.083 76.721zM582.246 600.216v-264.065l68.394-37.831c2.643-1.462 4.407-4.087 4.805-7.031l0.093-1.271v-78.383l64.791-39.153v351.012l-138.083 76.722zM494.998 753.88v-369.294l68.288-37.934v269.669c0.004 3.415 1.847 6.569 4.82 8.251l68.471 38.72v170.595l-141.579-80.007zM739.29 523.547v-351.615l141.566 79.993v351.642l-141.566-80.020zM489.053 926.519l-141.185-79.798 137.61-76.433 141.185 79.799-137.61 76.433zM733.345 696.185l-141.185-79.798 137.61-76.434 141.185 79.798-137.61 76.434z" />
<glyph unicode="&#xe909;" glyph-name="shape-10" d="M95.231 207.681l406.98-235.057v168.655l-249.423 151.942c-2.928 1.788-4.71 4.972-4.71 8.403v287.866l-152.847 88.288v-470.097zM521.903 141.123v-168.499l406.961 235.057v168.501l-406.961-235.059zM516.98 241.258c-3.096-1.788-6.932-1.76-10 0.077l-163.789 98.192-65.999-38.114 234.98-143.153 407.865 235.575-64.48 42.982-338.578-195.558zM521.903 442.72v-175.866l406.961 235.057v175.866l-406.961-235.057zM353.134 356.527l149.077-89.346v175.539l-149.077 86.095v-172.288zM267.77 589.489v-270.809l65.672 37.943v189.231c0 3.519 1.892 6.78 4.943 8.539l336.347 193.922v76.212l-406.961-235.038zM362.98 545.873l149.059-86.095 406.979 235.057-148.71 85.885-407.328-234.847zM105.058 694.835l152.847-88.288 406.981 235.058-152.846 88.288-406.982-235.058zM694.424 759.682l70.981 40.923c3.042 1.755 6.802 1.754 9.846 0l168.383-97.27c3.046-1.759 4.923-5.002 4.923-8.519v-198.615c-0.002-3.513-1.879-6.762-4.923-8.519l-69.077-39.885 69.616-46.385c2.739-1.825 4.384-4.899 4.384-8.192v-191.25c-0.002-3.515-1.879-6.762-4.923-8.519l-426.654-246.424c-3.044-1.759-6.8-1.757-9.846 0l-426.672 246.424c-3.044 1.757-4.921 5.004-4.923 8.519v492.845c0 3.517 1.879 6.76 4.923 8.519l427.846 247.001c2.8 1.153 6.008 0.962 8.672-0.577l172.538-99.635c3.044-1.76 4.905-5.023 4.905-8.539v-81.903z" />
<glyph unicode="&#xe90a;" glyph-name="shape-11" d="M95.231 208.124l406.98-234.904v477.115l-406.98 227.846v-470.057zM521.903 450.336v-477.115l406.961 234.904v470.057l-406.961-227.846zM173.789 535.643c3.067 1.751 6.842 1.737 9.885-0.057l73.845-43.557 172.27-95.827c3.119-1.737 5.055-5.027 5.057-8.596v-285.154c0-3.568-1.924-6.875-5.037-8.615-3.115-1.739-6.944-1.642-9.982 0.23l-246.326 151.828c-2.909 1.792-4.692 4.968-4.692 8.385v272.827c0.002 3.531 1.914 6.786 4.981 8.537zM859.134 546.162c3.046 1.713 6.772 1.684 9.789-0.077 3.017-1.764 4.882-5.004 4.884-8.499v-283.307c0-3.541-1.904-6.808-4.98-8.558l-266.711-151.828c-3.046-1.733-6.778-1.721-9.809 0.039-3.031 1.762-4.903 5.012-4.903 8.519v285.154c0.004 3.552 1.922 6.833 5.020 8.576l266.711 149.981zM607.096 201.106v-81.731l234.654 133.597-73.693 31.191-160.961-83.056zM198.211 253.796l216.942-133.711v76.481l-162.365 87.251-54.577-30.021zM262.597 300.893l152.556-81.979v162.903l-152.556 84.866v-165.79zM607.096 381.836v-158.559l150.711 77.751v165.557l-150.711-84.75zM777.5 477.663v-176.114l76.615-32.406v251.597l-76.615-43.077zM188.5 270.933l54.405 29.922v176.941l-54.405 32.079v-238.943zM105.288 695.125l406.751-227.732 406.749 227.732-406.749 234.769-406.751-234.769zM508.231 854.028c2.871 1.21 6.189 0.998 8.903-0.634l255.579-153.692c2.991-1.8 4.825-5.047 4.787-8.539s-1.93-6.707-4.96-8.442l-255.596-146.288c-3.011-1.721-6.711-1.723-9.732-0.020l-259.306 146.269c-3.060 1.729-4.962 4.968-5 8.481-0.037 3.515 1.802 6.786 4.827 8.578l260.5 154.287zM363 640.374l149-84.057 146.905 84.057-146.885 90.25-149.020-90.25zM272.404 691.489l70.924-39.999 158.883 96.23v79.961l-229.807-136.192zM521.903 747.662l156.461-96.154 69.827 39.981-226.288 136.058v-79.886zM948.557 202.431c0-3.517-1.875-6.76-4.923-8.519l-426.654-246.288c-3.042-1.757-6.802-1.753-9.846 0l-426.672 246.288c-3.044 1.76-4.923 5.004-4.923 8.519v492.54c0 3.515 1.879 6.758 4.923 8.519l427.846 246.846c2.8 1.153 6.008 0.961 8.672-0.577l426.654-246.269c3.048-1.759 4.923-5.002 4.923-8.519v-492.54z" />
<glyph unicode="&#xe90b;" glyph-name="shape-12" d="M95.231 214.335l406.98-241.308v74.557l-406.98 243.039v-76.288zM521.903 47.604v-74.577l406.961 241.308v76.288l-406.961-243.019zM517.153 145.124c-3.135-1.898-7.075-1.898-10.21 0l-332.674 201.442-69.25-38.867 407.020-243.056 407.018 243.056-69.25 38.867-332.654-201.442zM95.231 415.817l84.346-49.443 322.634-195.346v76.595l-406.98 241.963v-73.769zM521.903 247.643v-76.595l322.731 195.403 84.23 49.367v73.769l-406.961-241.944zM517 345.086c-3.060-1.78-6.843-1.78-9.903 0l-333.058 193.749-67.885-32.827 405.886-241.325 405.904 241.325-67.885 32.827-333.058-193.749zM95.231 607.451l406.98-236.731v78.616l-406.98 228.712v-70.597zM521.903 449.335v-78.616l406.961 236.731v70.597l-406.961-228.712zM105.269 694.989l406.77-228.596 406.768 228.596-406.768 234.904-406.77-234.904zM948.557 601.797c0-3.505-1.855-6.756-4.884-8.519l-73.096-42.52 72.422-34.999c3.399-1.644 5.557-5.090 5.557-8.865v-96.731c0-3.495-1.849-6.735-4.864-8.501l-74.27-43.518 74.116-41.598c3.102-1.741 5.016-5.018 5.018-8.576v-99.249c0-3.478-1.835-6.709-4.827-8.481l-426.654-252.961c-3.096-1.835-6.944-1.833-10.039 0l-426.672 252.961c-2.991 1.772-4.827 5.004-4.827 8.481v99.249c0.002 3.556 1.92 6.833 5.019 8.576l74.096 41.598-74.25 43.518c-3.015 1.766-4.865 5.006-4.865 8.501v96.731c0.001 3.775 2.159 7.221 5.558 8.865l72.423 35.019-73.077 42.5c-3.031 1.762-4.904 5.014-4.904 8.519v93.078c0.003 3.513 1.88 6.76 4.923 8.519l427.846 246.942c2.8 1.153 6.008 0.962 8.672-0.577l426.654-246.365c3.044-1.759 4.921-5.006 4.923-8.519v-93.078z" />
<glyph unicode="&#xe90c;" glyph-name="shape-13" d="M355.232 57.643l146.979-84.886v171.713l-146.979 93.712v-180.539zM521.903 144.451v-171.693l148.809 85.943v179.596l-148.809-93.846zM95.231 207.777l156.057-90.116v470.020l-156.057 90.136v-470.040zM772.807 587.681v-470.020l156.058 90.116v470.040l-156.058-90.136zM364.288 255.758l147.789-94.21 149.384 94.21-149.384 86.077-147.789-86.077zM105.058 694.875l156.096-90.155 247.194 140.481c2.769 1.124 5.937 0.926 8.576-0.577l246-139.904 156.095 90.155-406.979 235.018-406.982-235.018zM502.211 719.143l-231.231-131.501v-469.884l64.559 37.77v100.596c0 3.501 1.861 6.735 4.884 8.499l161.788 94.269v360.251zM521.903 358.892l163.558-94.23c3.050-1.759 4.943-5.018 4.943-8.539v-100.653l62.71-37.5v469.671l-231.211 131.501v-360.251zM948.557 202.084c0-3.517-1.877-6.758-4.923-8.519l-175.75-101.5c-3.092-1.782-6.916-1.755-9.98 0.077l-67.499 40.385v-79.52c0-3.515-1.881-6.778-4.923-8.539l-168.501-97.288c-3.046-1.759-6.8-1.759-9.846 0l-166.672 96.23c-3.046 1.76-4.923 5.022-4.923 8.539v80.75l-69.423-40.615c-3.054-1.786-6.841-1.788-9.905-0.020l-175.749 101.5c-3.044 1.76-4.923 5.004-4.923 8.519v492.77c0 3.515 1.879 6.76 4.923 8.519l427.846 246.962c2.8 1.153 6.008 0.962 8.672-0.577l426.654-246.385c3.046-1.759 4.923-5.002 4.923-8.519v-492.77z" />
<glyph unicode="&#xe90d;" glyph-name="shape-14" d="M95.231 207.72l406.98-235.020v175.48l-406.98 235.040v-175.5zM521.903 148.181v-175.48l406.961 235.020v175.5l-406.961-235.040zM104.788 400.431l407.251-235.193 407.268 235.213-153.5 92.268-65.961-39.712 71.152-44.384c2.936-1.829 4.695-5.081 4.636-8.539-0.063-3.454-1.93-6.619-4.923-8.346l-253.731-146.365c-3.042-1.757-6.802-1.755-9.846 0l-253.749 146.365c-3.001 1.733-4.872 4.919-4.923 8.385-0.049 3.464 1.725 6.699 4.673 8.519l71.828 44.365-66.635 39.731-153.539-92.308zM516.903 349.086c-3.011-1.701-6.703-1.707-9.71 0l-163.058 92.615-66.635-41.135 234.557-135.288 234.596 135.328-65.904 41.096-163.846-92.615zM521.903 442.758v-68.23l154.27 87.172 84.693 51.021 167.999 97.038v68.039l-406.961-235.040zM95.231 609.759l168.114-97.117 85.463-50.942 153.403-87.115v68.173l-406.98 235.040v-68.039zM105.058 694.835l406.982-235.038 406.979 235.038-406.979 235.058-406.982-235.058zM948.557 604.046c-0.002-3.513-1.879-6.76-4.923-8.519l-158.46-91.5 158.616-95.327c2.962-1.78 4.768-4.986 4.768-8.442v-198.231c0-3.517-1.877-6.76-4.923-8.519l-426.654-246.404c-3.044-1.759-6.8-1.759-9.846 0l-426.672 246.404c-3.044 1.759-4.922 5.004-4.923 8.519v198.231c0 3.454 1.81 6.662 4.769 8.442l158.596 95.327-158.442 91.5c-3.043 1.759-4.92 5.006-4.923 8.519v90.789c0 3.515 1.879 6.76 4.923 8.519l427.846 246.981c2.8 1.153 6.008 0.962 8.672-0.577l426.654-246.404c3.046-1.759 4.923-5.002 4.923-8.519v-90.789z" />
<glyph unicode="&#xe90e;" glyph-name="shape-15" d="M508.308 950.336c2.8 1.153 6.008 0.962 8.672-0.577l426.654-246.328c3.044-1.757 4.921-5.004 4.923-8.519v-492.672c0-3.519-1.877-6.78-4.923-8.539l-158.923-91.75c-3.082-1.778-6.882-1.759-9.941 0.057l-126.752 75.404 22.154-134.231c0.668-4.043-1.239-8.084-4.787-10.134l-148.405-85.673c-3.044-1.759-6.8-1.759-9.846 0l-426.672 246.327c-3.046 1.759-4.923 5.020-4.923 8.539v171.364c0.004 4.096 2.551 7.769 6.385 9.212l135.192 50.922-136.769 81.347c-2.98 1.776-4.808 4.992-4.808 8.462v171.364c0.003 3.515 1.879 6.762 4.923 8.519l427.846 246.905zM95.231 207.931l416.809-240.672 128.711 74.327-545.519 314.961v-148.616zM108.327 371.72l539.018-311.192-21.461 130.058-387.115 230.268-130.442-49.134zM95.231 689.221v-160.059l684.616-407.268 149.018 86.038v481.29l-416.825 240.672-416.809-240.672z" />
<glyph unicode="&#xe90f;" glyph-name="shape-16" d="M820.901 919.846c4.311-0.197 8.086-3.235 9.116-7.577l114.211-481.539c0.638-2.688 0.11-5.522-1.441-7.806l-242.174-356.096c-1.504-2.213-3.844-3.722-6.481-4.175l-499.692-85.307c-5.216-0.89-10.219 2.495-11.308 7.674l-104.308 496.077c-0.551 2.617-0.004 5.344 1.5 7.558l242.174 356.115 1.308 1.558c1.471 1.414 3.369 2.338 5.421 2.635l491.674 70.885zM200.44-1.654l466.288 79.616-563.615 383.289 97.327-462.905zM106.902 482.501l578.192-393.212 122.5 801.846-700.691-408.634zM708.768 113.845l215.288 316.577-101.537 428.116-113.751-744.693zM336.305 830.115l-215.288-316.597 650.75 379.501-435.462-62.904z" />
<glyph unicode="&#xe910;" glyph-name="shape-17" d="M266.096 908.103c111.927 77.969 264.359 31.113 327.87-66.852 4.714 1.939 9.385 3.875 14.038 5.722 4.727 1.871 9.428 3.699 14.091 5.482 9.313 3.563 18.485 6.939 27.519 10.111 4.515 1.587 9.006 3.123 13.464 4.611 4.373 1.492 8.751 2.928 13.111 4.315 4.358 1.387 8.672 2.731 12.944 4.019 6.421 1.953 12.741 3.766 18.963 5.444l12.296 3.241c4.050 1.027 8.052 2.002 12 2.926h0.019c3.948 0.922 7.843 1.794 11.685 2.611 5.784 1.234 11.457 2.336 17 3.315 7.411 1.322 14.598 2.425 21.555 3.296l10.278 1.148c3.356 0.322 6.671 0.583 9.927 0.796 3.292 0.216 6.491 0.347 9.518 0.463 3.231 0.124 6.366 0.13 9.222 0.13h0.057c1.515-0.009 3.019-0.049 4.5-0.093h-0.019c4.432-0.121 8.727-0.369 12.87-0.759h0.019c1.344-0.128 2.734-0.272 4.13-0.444l7.87-1.148c2.607-0.444 5.152-0.967 7.629-1.574h-0.017c6.034-1.38 11.903-3.38 17.518-5.963l5.647-2.833h-0.017c2.915-1.628 5.706-3.493 8.332-5.556l2.518-2.093h0.019c1.627-1.432 3.163-2.963 4.612-4.574 2.167-2.411 4.121-5.013 5.814-7.778v-0.019c0.032-0.052 0.087-0.123 0.148-0.222 0.129-0.205 0.313-0.515 0.556-0.907 0.491-0.787 1.212-1.937 2.111-3.389 1.8-2.905 4.341-7.028 7.316-11.889 5.949-9.719 13.655-22.442 20.611-34.37 6.724-11.533 7.397-31.801-1.13-57.815-7.917-24.149-24.197-54.627-53.5-90.852 18.652-6.531 41.015-17.359 61.427-32.482 25.693-19.037 49.249-45.557 57.518-79.648 14.3-41.299 31.761-150.374-8.296-268.203-50.345-148.087-174.66-246.572-248.018-279.982-72.067-32.821-186.087-82.223-352.889-47.038-148.952 31.425-282.44 132.246-333.851 281.537-10.782 20.605-14.733 40.641-14.963 54.5-6.198 9.244-11.706 18.119-15.741 24.853-2.195 3.662-3.96 6.703-5.185 8.833-0.613 1.066-1.1 1.906-1.426 2.482-0.151 0.267-0.267 0.48-0.352 0.63l-1.611 2.888c-7.569 14.575-7.931 31.854-3.241 50.167 4.996 19.505 15.93 41.102 31.519 63.945 30.199 44.248 79.072 94.828 141.278 146.445-41.192 74.037-53.181 219.278 80.741 312.573zM993.707 477.899c-9.375-32.068-26.764-60.558-48.259-86.147-31.38-37.355-71.932-69.067-110-97.223-77.327-57.19-247.366-133.869-394.13-150.852-145.886-16.879-235.761-7.134-317.963 32.463-9.877 4.76-18.644 10.166-26.444 15.963 59.636-112.010 171.74-188.096 295.945-214.295 160.74-33.908 270.112 13.414 341.093 45.741 69.691 31.738 189.63 126.711 237.943 268.815 23.658 69.586 26.296 135.93 21.815 185.536zM866.002 650.974c-51.092-58.434-135.251-130.786-270.852-214.74-168.782-104.497-295.684-154.135-384.315-172.927-44.293-9.39-79.343-11.145-105.426-7.999-15.501 1.87-28.524 5.592-38.426 10.944 1.727-6.036 3.538-12.009 5.537-17.89 10.685-19.869 28.941-40.613 59.074-55.129 77.623-37.391 163.371-47.385 307.537-30.703 143.282 16.577 310.217 91.906 385.037 147.24 38.002 28.107 76.946 58.679 106.76 94.166 29.715 35.374 49.918 75.107 51.314 121.575 0.256 8.492-0.626 16.545-2.444 24.166-6.764 28.346-26.685 51.574-50.481 69.203-21.47 15.906-45.335 26.643-63.315 32.093zM909.041 816.622v-0.019c-2.801-12.79-8.228-26.461-15.872-40.741l-0.017 0.019c-1.020-1.91-2.076-3.839-3.167-5.759-1.654-2.909-3.389-5.852-5.222-8.816l-3.777-5.962c-4.542-6.994-9.548-14.131-15.019-21.407-3.123-4.16-6.398-8.368-9.815-12.612l-5.241-6.406c-1.779-2.147-3.607-4.299-5.463-6.464-1.849-2.158-3.732-4.339-5.647-6.518l-0.019-0.019-2.871-3.241-0.055-0.055c-2.918-3.237-5.903-6.523-8.962-9.853l-0.038-0.036c-4.102-4.422-8.363-8.852-12.741-13.333l0.019-0.019c-2.228-2.319-4.49-4.621-6.796-6.889l-0.019 0.019c-2.234-2.241-4.496-4.504-6.796-6.76-2.323-2.279-4.684-4.561-7.073-6.851-2.393-2.293-4.813-4.591-7.259-6.889-2.448-2.298-4.932-4.612-7.445-6.925l-0.055-0.055c-1.255-1.134-2.346-2.166-3.703-3.408l-0.019-0.019-7.722-6.963-11.928-10.5c-4.033-3.508-8.137-7.028-12.315-10.555-4.178-3.529-8.423-7.079-12.722-10.612-2.862-2.353-5.742-4.716-8.647-7.073h-0.019c-2.92-2.361-5.871-4.727-8.852-7.094-2.973-2.361-5.977-4.726-9-7.092l-0.019-0.019c-3.013-2.355-6.068-4.72-9.148-7.092l-9.334-7.111-14.277-10.667c-3.203-2.357-6.434-4.724-9.686-7.092l-0.036-0.019c-4.896-3.537-9.836-7.075-14.816-10.612-3.332-2.367-6.7-4.731-10.092-7.092-3.385-2.355-6.798-4.693-10.223-7.037-27.43-18.804-56.28-37.44-86.426-55.592-120.436-72.55-238.254-124.355-331.611-149.39-46.611-12.498-87.662-18.478-120.129-16.722-11.591 0.628-22.413 2.31-32.13 5.148 0.197-0.29 0.376-0.597 0.574-0.889 3.088-4.544 6.309-9.108 9.574-13.462 4.457-5.947 16.741-13.037 40.685-15.927 23.428-2.825 56.294-1.379 99.222 7.722 85.824 18.195 210.669 66.712 378.279 170.483 138.139 85.527 221.48 158.261 270.48 215.556 34.008 39.762 51.285 71.873 59.018 95.461 7.911 24.133 5.401 37.821 2.759 42.353-2.575 4.417-5.283 8.937-7.944 13.389-0.159-0.821-0.264-1.656-0.444-2.481zM813.096 879.807c-3.025-0.116-5.992-0.247-9-0.444-3.042-0.2-6.163-0.453-9.353-0.759l-9.722-1.074c-6.609-0.827-13.477-1.879-20.592-3.148h-0.019c-2.659-0.469-5.349-0.968-8.074-1.5l-8.277-1.704c-3.722-0.792-7.515-1.622-11.351-2.518l0.017-0.019c-7.663-1.792-15.552-3.777-23.647-5.981l-0.019-0.018c-6.030-1.626-12.178-3.377-18.426-5.278l-0.036-0.018c-4.178-1.259-8.401-2.568-12.667-3.926-4.25-1.352-8.511-2.748-12.777-4.204l-0.057-0.037-13.185-4.5c-8.863-3.113-17.878-6.422-27.037-9.926v-0.018c-4.587-1.755-9.212-3.546-13.87-5.389-3.686-1.463-7.384-2.996-11.11-4.519 8.073-14.333 14.662-29.454 19.61-45.148 16.672 2.715 31.647 3.427 44.15 1.685 13.562-1.891 25.657-6.906 32.887-16.945l1.39-2.075 0.036-0.093 0.074-0.148h0.019c6.11-10.164 6.051-22.244 2.575-34.313-4.513-15.652-15.73-33.527-31.094-52.074-15.512-18.726-35.836-38.853-59.445-59.001-31.939-27.235-69.071-53.906-112.703-80.202h-0.019c-45.411-27.307-90.137-49.328-130.37-64.963-29.321-11.391-56.426-19.447-79.777-23.668-23.114-4.176-43.509-4.777-58.889-0.315-10.098 2.926-18.741 8.274-24.037 16.907-0.040 0.064-0.072 0.138-0.11 0.205-0.017 0.027-0.040 0.047-0.057 0.074l-0.091 0.148v0.019c-6.599 11.173-5.827 24.584-1.259 37.852 3.916 11.37 10.951 23.7 20.37 36.555-12.028 12.076-22.712 25.412-31.907 39.76-60.38-50.339-107.031-98.958-135.519-140.705-14.909-21.847-24.552-41.373-28.796-57.943-3.707-14.473-3.137-25.983 0.833-34.907l1.907-3.667v-0.019l0.13-0.203 1.629-2.408c8.733-11.789 26.39-19.494 54.556-21.019 29.656-1.604 68.537 3.848 114.203 16.094 91.208 24.458 207.368 75.435 326.722 147.333 29.823 17.958 58.391 36.367 85.519 54.962l10.092 6.963c3.343 2.327 6.664 4.669 9.944 7.001 4.938 3.506 9.832 7.013 14.687 10.519 3.218 2.344 6.423 4.684 9.591 7.018 4.75 3.504 9.447 7.009 14.093 10.519l9.203 7.018c3.044 2.344 6.061 4.672 9.038 6.999 2.99 2.34 5.949 4.686 8.888 7.018 2.937 2.331 5.848 4.657 8.723 6.982 2.873 2.332 5.727 4.655 8.556 6.982l12.517 10.443c4.107 3.47 8.148 6.925 12.112 10.371v0.019c3.977 3.455 7.889 6.889 11.723 10.314l7.574 6.853c1.151 1.054 2.507 2.317 3.796 3.482 2.444 2.251 4.862 4.487 7.24 6.722 2.403 2.255 4.784 4.509 7.13 6.758 2.336 2.24 4.636 4.475 6.906 6.703 2.274 2.23 4.517 4.454 6.722 6.667l0.074 0.074c2.177 2.141 4.325 4.312 6.427 6.501l0.055 0.055c4.288 4.386 8.425 8.742 12.426 13.056 3.013 3.275 5.966 6.504 8.833 9.684l2.816 3.167c1.855 2.111 3.673 4.21 5.463 6.296 1.79 2.092 3.544 4.176 5.258 6.241v0.019c1.718 2.065 3.415 4.126 5.056 6.167 3.29 4.087 6.436 8.128 9.426 12.112 5.238 6.967 9.992 13.752 14.277 20.351h0.019c1.221 1.877 2.386 3.726 3.518 5.574l0.019 0.037c1.716 2.772 3.337 5.509 4.87 8.204 1.022 1.798 2.016 3.573 2.945 5.315v0.019c7.067 13.206 11.729 25.205 14.055 35.833 3.246 14.858 1.781 26.434-3.37 35.111h-0.019v0.019c-0.076 0.122-0.152 0.245-0.222 0.37-1.088 1.775-2.331 3.451-3.722 5-0.956 1.063-1.982 2.074-3.055 3.019-0.565 0.497-1.13 0.975-1.705 1.426-1.828 1.436-3.768 2.734-5.795 3.87-5.755 3.147-11.92 5.474-18.316 6.926l-0.165 0.037c-2.016 0.494-4.115 0.925-6.298 1.296l-7.018 1.037-3.592 0.389c-3.694 0.348-7.57 0.575-11.613 0.685h-0.017c-1.322 0.039-2.67 0.066-4.037 0.074-2.896 0-5.662-0.004-8.463-0.111zM274.263 502.64c-12.846-14.583-21.303-28.901-26.057-38.758 10.377-1.007 23.675-0.239 39.648 2.647 13.259 2.397 28.006 6.191 43.945 11.26-22.016 6.226-41.516 15.407-57.536 24.851zM241.040 526.16c-7.938-11.101-13.382-21.043-16.316-29.556-3.21-9.324-3.081-15.83-1.24-20.279l0.889-1.796 0.019-0.019 0.074-0.129 0.887-1.278c1.090-1.403 2.537-2.714 4.409-3.908 5.065 11.165 14.273 27.318 28.352 43.778-6.603 4.612-12.345 9.091-17.074 13.187zM581.985 824.622c-55.709 94.322-200.594 140.68-305.055 67.908-127.978-89.16-111.856-228.873-71.259-294.149 0.055-0.087 0.114-0.186 0.167-0.277 9.525-16.507 21.142-31.7 34.554-45.204l5.871-5.685 0.315-0.296c5.869-6.015 16.539-15.003 31.001-24.149 22.481-14.218 53.422-28.367 88.739-32.666 38.55 15.146 81.516 36.333 125.279 62.648l15.758 9.703c35.351 22.2 65.965 44.631 92.759 67.334 13.452 30.792 16.397 64.63 14.871 92.259-0.131 0.322-0.292 0.639-0.389 0.982-0.484 1.716-0.438 3.451 0 5.056-1.327 16.407-4.121 29.745-6.777 37.797-0.047 0.146-0.089 0.296-0.129 0.444-5.653 20.498-14.277 40.064-25.575 58.074l-0.129 0.222zM682.633 723.215c-10.138 1.066-26.171 0.802-48.519-4.686 0.719-19.156-0.539-41.093-5.704-63.241 11.658 11.239 21.95 22.153 30.538 32.52 11 13.28 18.925 25.249 23.685 35.408zM665.041 762.584c-9.557 1.333-21.779 0.948-36.333-1.278 1.583-6.757 2.989-14.744 3.999-23.611 24.762 5.729 43.093 5.71 55.26 3.982 0.267 4.589-0.59 8.050-2.149 10.648l-0.019 0.019-0.055 0.093c-2.776 4.523-8.911 8.503-20.704 10.147z" />
<glyph unicode="&#xe911;" glyph-name="shape-18" horiz-adv-x="951" d="M268.654 944.382c2.147 1.033 4.615 1.188 6.874 0.429l599.036-201.251c3.981-1.337 6.55-5.224 6.215-9.41l-50.715-631.517c-0.188-2.348-1.278-4.542-3.035-6.107l-161.929-144.232c-2.787-2.478-6.802-3.017-10.143-1.357l-179.732 89.285c-3.209 1.595-5.193 4.917-5.071 8.499 5.281 151.985 5.286 234.048 5.286 305.125 0 37.252-17.115 74.465-34 100.912v-172.286c0-2.964-1.439-5.749-3.856-7.464l-172.698-122.447c-2.752-1.951-6.356-2.24-9.375-0.731l-151.535 75.785c-2.957 1.479-4.896 4.431-5.053 7.733l-28.768 607.357c-0.174 3.666 1.853 7.087 5.161 8.679l193.34 93zM702.565 610.774l-33.269-630.232 142.822 127.214 48.911 609.037-158.464-106.019zM345.117 527.382c0.102-0.011 0.177-0.016 0.197-0.018h0.035c-0.013 0-0.049 0.013-0.124 0.018-0.053 0.002-0.119 0.013-0.197 0.018 0.037-0.005 0.068-0.016 0.090-0.018zM102.653 844.257l589.821-218.232 158.625 106.125-577.874 194.161-170.572-82.053zM493.725 353.845c0-70.263-0.038-151.34-5.125-299.856l162.035-80.483 33.554 636.072-595.143 220.196 27.875-588.196 133.429-66.714c-0.238 31.742-1.117 68.784-2.090 107.374v0.018c-1.172 48.916-2.5 100.33-2.5 146.196 0.002 57.942 16.867 88.85 39.804 104.304 22.146 14.919 47.539 13.548 60.054 12.912 14.89-0.080 32.251-7.102 48.338-17.090 16.43-10.2 32.709-24.225 45.411-39.715 20.712-25.258 54.358-78.998 54.358-135.018zM264.046 428.453c0-45.594 1.324-96.744 2.5-145.75 0.945-37.467 1.803-73.702 2.072-105.072l154.536 109.572v192.501c-11.070 12.917-24.92 24.697-38.839 33.339-14.588 9.055-28.169 13.992-38.036 14.285h-0.428c-0.161 0.004-0.347 0.015-0.501 0.018-0.155 0.005-0.324 0.011-0.483 0.018-0.079 0.004-0.176-0.005-0.267 0-0.048 0.002-0.101 0.015-0.161 0.018-0.055 0.004-0.137 0.009-0.232 0.018-0.049 0.004-0.121 0.009-0.196 0.016-0.066 0.007-0.166 0.020-0.287 0.037-12.811 0.625-31.801 1.017-47.945-9.858-15.978-10.765-31.731-34.54-31.733-89.143z" />
<glyph unicode="&#xe912;" glyph-name="shape-19" horiz-adv-x="903" d="M459.321 434.546v-473.56l411.9 236.612v473.305l-411.9-236.357zM31.187 197.071l126.339-72.763v298.779c0 3.060 1.609 5.894 4.237 7.458 2.633 1.564 5.904 1.635 8.593 0.17l148.457-80.932c2.838-1.548 4.587-4.547 4.526-7.779l-5.78-309.39 124.406-71.593v473.56l-410.779 236.763v-474.272zM174.882 124.223l128.389 72.933 2.61 139.915-130.999 71.423v-284.271zM729.848 445.055c2.681 1.524 5.974 1.513 8.643-0.035 2.673-1.553 4.322-4.417 4.322-7.508v-160.152c0-3.032-1.578-5.851-4.169-7.425l-139.762-84.779c-2.68-1.626-6.033-1.69-8.763-0.153-2.727 1.536-4.405 4.429-4.407 7.559v165.305c0.002 3.114 1.668 5.983 4.372 7.526l139.764 79.662zM603.068 208.004l113.999 69.169-113.999 65.678v-134.847zM611.831 357.834l113.626-65.441v130.185l-113.626-64.745zM326.915 852.020l269.289-157.797c2.666-1.564 4.299-4.434 4.287-7.526-0.012-3.089-1.663-5.948-4.339-7.491l-141.17-81.356c-2.692-1.552-6.009-1.545-8.694 0.017l-279.746 162.745-126.763-74.186 410.881-236.848 411.83 236.339-411.83 238.305-123.746-72.203zM317.305 693.003l133.356-77.593 123.864 71.39-256.236 150.135-0.984-143.932zM888.577 192.562c-0.003-3.1-1.67-5.96-4.356-7.508l-429.254-246.593c-2.678-1.534-5.97-1.522-8.645 0.017l-141.864 81.644c-2.737 1.576-4.395 4.519-4.339 7.678l2.779 149.186-132.406-75.238c-2.674-1.519-5.962-1.501-8.627 0.035l-143.695 82.744c-2.686 1.55-4.339 4.424-4.339 7.526v494.306c0.001 3.079 1.631 5.936 4.288 7.491l145.085 84.815c2.487 1.040 5.344 0.868 7.712-0.509l129.101-75.103 1.034 149.034c0.023 3.061 1.663 5.879 4.306 7.424l140.915 82.22c2.692 1.571 6.031 1.578 8.728 0.017l429.238-248.355c2.68-1.552 4.339-4.429 4.339-7.526v-493.306z" />
<glyph unicode="&#xe913;" glyph-name="shape-20" d="M95.231 205.072l408.038-233.23v141.962l-408.038 232.019v-140.751zM805 603.67v-158.155c0-3.525-1.887-6.782-4.943-8.539l-139.038-79.923v-157.712c-0.002-3.515-1.881-6.76-4.923-8.519l-133.136-76.961v-141.962l405.904 233.155v470.749l-123.865-72.133zM104.904 362.976l408.154-232.058 118.404 68.403-407.749 234.77-118.809-71.115zM233.462 451.208l407.865-234.809v140.674l-407.865 235.231v-141.095zM243.326 609.341l407.847-235.211 124.288 71.424-406.788 236.018-125.347-72.231zM378.539 698.63l406.768-236.018v141.058l-406.768 235.98v-141.020zM388.25 856.803l406.884-236.076 124.040 72.229-406.059 236.885-124.865-73.039zM948.557 199.341c0-3.523-1.885-6.782-4.941-8.539l-425.596-244.46c-3.031-1.741-6.774-1.755-9.809-0.020l-427.711 244.48c-3.065 1.753-4.96 5.008-4.961 8.539v163.405c0 3.46 1.821 6.664 4.788 8.442l133.443 79.904v158.249c0.002 3.517 1.894 6.764 4.941 8.521l140.136 80.768v158.116c0 3.495 1.849 6.733 4.864 8.5l145.597 85.077c2.824 1.18 6.081 0.971 8.769-0.596l425.596-248.288c3.025-1.764 4.884-5 4.884-8.499v-493.598z" />
<glyph unicode="&#xe914;" glyph-name="shape-21" horiz-adv-x="1005" d="M330.829 179.416v-216.396l224.436 134.244v222.718l-224.436-140.566zM93.434 97.189l218.075-133.943v216.265l-218.075 140.207v-222.529zM695.396 404.020v-221.416l215.942 130.434v226.246l-215.942-135.265zM101.264 337.661l219.963-141.453 225.452 141.188-136.886 85.378-84.096-44.755c-3.022-1.607-6.668-1.507-9.585 0.282l-81.584 50.056-133.265-90.697zM326.679 621.641l3.868-219.15 75.094 39.961 26.68 14.719v99.566c0 3.228 1.615 6.244 4.301 8.037l108.038 71.962v121.868l-217.981-136.963zM93.434 537.604l217.754-133.603-3.849 217.585-213.905 136.83v-220.811zM559.415 623.34l-99.434-66.206 225.661-136.416 217.548 136.265-217.643 144.641-126.132-78.284zM429.245 433.417l3.076-1.907v3.603l-3.076-1.696zM101.51 776.189l215.453-137.83 219.604 137.981-215.453 144.302-219.603-144.453zM574.586 241.208l101.49-58.961v221.659l-224.434 135.717v-120.169l118.396-73.85c2.823-1.764 4.546-4.857 4.548-8.188v-96.208zM563.981 648.926l117.907 73.036c2.973 1.291 6.436 0.999 9.189-0.829l235.282-156.34c2.693-1.791 4.301-4.822 4.301-8.057v-249.151c0-3.383-1.764-6.515-4.66-8.265l-235.263-142.131c-3.020-1.824-6.799-1.847-9.85-0.075l-106.301 61.736v-127.076c0-3.397-1.801-6.557-4.718-8.3l-243.735-145.792c-3.087-1.847-6.954-1.828-10.020 0.056l-237.396 145.792c-2.861 1.756-4.604 4.888-4.604 8.244v245.642c0.001 3.196 1.584 6.183 4.226 7.981l138.132 94.038-137.755 84.509c-2.859 1.756-4.602 4.871-4.604 8.227v243.886c0 3.251 1.642 6.289 4.358 8.075l238.642 156.868c3.026 1.398 6.608 1.138 9.434-0.755l233.151-156.151c2.676-1.793 4.281-4.816 4.281-8.038v-127.131z" />
<glyph unicode="&#xe915;" glyph-name="shape-22" d="M501.346 442.277l-349.808 201.96v-403.923l349.808-201.96v403.923zM161.385 661.297l349.808-201.962 349.789 201.962-349.789 201.98-349.808-201.98zM521.039 38.355l349.808 201.96v403.923l-349.808-201.96v-403.923zM890.539 234.624c0-3.519-1.877-6.76-4.923-8.521l-369.501-213.344c-3.046-1.757-6.802-1.759-9.846 0l-369.5 213.344c-3.044 1.76-4.923 5.004-4.923 8.521v426.673c0.002 3.513 1.879 6.76 4.923 8.519l369.5 213.326c3.046 1.759 6.8 1.759 9.846 0l369.501-213.326c3.044-1.759 4.919-5.004 4.923-8.519v-426.673z" />
<glyph unicode="&#xe916;" glyph-name="shape-23" d="M514.099 947.692c3.503-0.008 6.743-1.874 8.501-4.904l424.633-733.441c1.31-2.263 1.676-4.957 1-7.481-0.677-2.527-2.33-4.695-4.596-6l-424.653-244.482c-3.027-1.739-6.756-1.747-9.789-0.018l-428.692 244.48c-2.283 1.304-3.954 3.48-4.635 6.020-0.676 2.534-0.303 5.234 1.019 7.499l429.423 734.52c1.855 2.385 4.72 3.814 7.788 3.808zM98.907 208.039l405.326-231.154v924.615l-405.326-693.461zM523.926-23.018l401.327 231.038-401.327 693.173v-924.211z" />
<glyph unicode="&#xe917;" glyph-name="shape-24" horiz-adv-x="1063" d="M29.538 638.692c0.004-13.901 10.531-29.578 35.692-45.692 24.71-15.825 61.13-30.44 107-42.866 91.597-24.81 218.691-40.269 359.461-40.269s267.865 15.458 359.461 40.269c45.869 12.426 82.29 27.041 107 42.866 25.161 16.114 35.688 31.791 35.692 45.692 0 13.901-10.531 29.576-35.692 45.692-24.71 15.825-61.131 30.46-107 42.884-91.597 24.812-218.691 40.27-359.461 40.27s-267.865-15.458-359.461-40.27c-45.87-12.424-82.29-27.059-107-42.884-25.16-16.116-35.692-31.791-35.692-45.692zM350.616 638.692c0.004-1.965 1.607-6.235 10.5-11.961 8.462-5.449 21.36-10.728 38.174-15.309 33.487-9.121 80.301-14.883 132.403-14.883s98.916 5.762 132.403 14.883c16.813 4.58 29.714 9.86 38.174 15.309 8.893 5.727 10.496 9.996 10.5 11.961 0 1.961-1.595 6.246-10.5 11.981-8.462 5.449-21.362 10.728-38.174 15.307-33.487 9.121-80.303 14.885-132.403 14.885s-98.916-5.764-132.403-14.885c-16.811-4.578-29.712-9.858-38.174-15.307-8.905-5.734-10.5-10.019-10.5-11.981zM531.692 128.461c262.237 0 477.798 208.654 500.212 465.961-6.569-6.398-14.393-12.4-23.135-17.999-27.106-17.359-65.68-32.616-112.463-45.288-93.71-25.383-222.618-40.962-364.615-40.962s-270.905 15.579-364.615 40.962c-46.782 12.672-85.356 27.93-112.462 45.288-8.738 5.597-16.549 11.605-23.115 18.001 22.413-257.308 237.956-465.963 500.192-465.963zM330.923 638.692c0 12.4 9.102 21.829 19.519 28.538 10.86 6.995 25.939 12.92 43.674 17.751 35.608 9.698 84.246 15.577 137.576 15.577s101.969-5.878 137.576-15.577c17.735-4.831 32.813-10.756 43.674-17.751 10.417-6.709 19.519-16.138 19.519-28.538-0.004-12.396-9.104-21.811-19.519-28.518-10.86-6.997-25.939-12.92-43.674-17.751-35.608-9.7-84.246-15.577-137.576-15.577s-101.969 5.876-137.576 15.577c-17.735 4.831-32.813 10.754-43.674 17.751-10.415 6.707-19.515 16.122-19.519 28.518zM9.846 638.692c0 24.395 18.119 45.221 44.769 62.289 27.106 17.359 65.68 32.616 112.462 45.288 93.71 25.384 222.618 40.961 364.615 40.961s270.905-15.578 364.615-40.961c46.783-12.672 85.356-27.93 112.463-45.288 26.65-17.067 44.768-37.894 44.768-62.289-0.004-287.677-233.439-529.924-521.846-529.924s-521.842 242.247-521.846 529.924z" />
<glyph unicode="&#xe918;" glyph-name="shape-25" d="M511.994 937.385c248.168 0 453.301-183.941 485.923-422.693 0.587-4.305-1.719-8.485-5.673-10.287l-123.904-56.424 123.904-56.442c3.956-1.802 6.262-6 5.673-10.307-32.624-238.748-237.757-422.693-485.923-422.693-248.16 0.004-453.278 183.948-485.903 422.693-0.589 4.307 1.717 8.505 5.673 10.307l123.885 56.442-123.885 56.424c-3.956 1.802-6.261 5.981-5.673 10.287 32.622 238.75 237.741 422.69 485.903 422.693zM47.264 372.73c36.075-223.638 230.401-394.496 464.73-394.5 234.335 0 428.676 170.86 464.75 394.5h-929.48zM81.207 392.422h861.576l-100.307 45.692h-660.943l-100.327-45.692zM181.533 457.807h660.943l100.326 45.712h-861.596l100.327-45.712zM511.994 917.692c-234.325-0.003-428.65-170.848-464.73-394.481h929.48c-36.078 223.636-230.42 394.481-464.75 394.481z" />
<glyph unicode="&#xe919;" glyph-name="shape-26" d="M928.864 550c-21.835-39.987-60.623-75.081-110.306-102.847-78.935-44.111-187.321-71.095-306.501-71.095s-227.562 26.984-306.499 71.095c-49.689 27.768-88.491 62.858-110.327 102.847v-264.481c0-64.39 44.438-124.463 120.114-168.98 75.451-44.383 180.336-72.155 296.712-72.155 116.374 0.002 221.243 27.772 296.692 72.155 75.68 44.516 120.115 104.588 120.115 168.98v264.481zM853.577 624.347c-0.004 46.592-35.411 91.047-97.711 124.422-61.893 33.157-148.076 53.961-243.808 53.962-95.728 0-181.914-20.807-243.807-53.962-62.303-33.375-97.727-77.83-97.731-124.422 0-46.596 35.425-91.045 97.731-124.424 61.893-33.156 148.074-53.981 243.807-53.981 95.732 0.002 181.916 20.825 243.808 53.981 62.301 33.378 97.711 77.83 97.711 124.424zM928.864 624.347c-0.004 60.668-44.117 117.638-119.922 160-75.485 42.181-180.431 68.576-296.885 68.577-116.458 0-221.416-26.394-296.903-68.577-75.805-42.362-119.919-99.332-119.923-160 0-60.67 44.118-117.638 119.923-160 75.487-42.185 180.443-68.596 296.903-68.596 116.458 0 221.401 26.413 296.885 68.596 75.808 42.362 119.922 99.328 119.922 160zM873.269 624.347c0-57.364-43.25-107.040-108.115-141.789-65.278-34.97-154.776-56.306-253.097-56.308-98.324 0-187.837 21.337-253.115 56.308-64.865 34.749-108.115 84.425-108.115 141.789 0.004 57.36 43.254 107.022 108.115 141.769 65.278 34.971 154.791 56.308 253.115 56.308 98.322-0.001 187.819-21.338 253.097-56.308 64.863-34.747 108.111-84.409 108.115-141.769zM948.557 285.519c0-74.218-51.066-139.64-129.808-185.96-78.97-46.454-187.429-74.864-306.692-74.866-119.263 0-227.72 28.412-306.692 74.866-78.744 46.32-129.827 111.74-129.827 185.96v338.828c0.004 71.007 51.407 133.262 130.020 177.192 78.935 44.108 187.323 71.077 306.499 71.077 119.18-0.001 227.566-26.966 306.501-71.077 78.612-43.93 129.995-106.185 129.999-177.192v-338.828z" />
<glyph unicode="&#xe91a;" glyph-name="shape-27" d="M928.864 550c-21.835-39.987-60.623-75.081-110.306-102.847-78.935-44.111-187.321-71.095-306.501-71.095s-227.562 26.984-306.499 71.095c-49.689 27.768-88.491 62.858-110.327 102.847v-264.481c0-64.39 44.438-124.463 120.114-168.98 75.451-44.383 180.336-72.155 296.712-72.155 116.374 0.002 221.243 27.772 296.692 72.155 75.68 44.516 120.115 104.588 120.115 168.98v264.481zM928.864 624.347c-0.004 60.668-44.117 117.638-119.922 160-75.485 42.181-180.431 68.576-296.885 68.577-116.458 0-221.416-26.394-296.903-68.577-75.805-42.362-119.919-99.332-119.923-160 0-60.67 44.118-117.638 119.923-160 75.487-42.185 180.443-68.596 296.903-68.596 116.458 0 221.401 26.413 296.885 68.596 75.808 42.362 119.922 99.328 119.922 160zM948.557 285.519c0-74.218-51.066-139.64-129.808-185.96-78.97-46.454-187.429-74.864-306.692-74.866-119.263 0-227.72 28.412-306.692 74.866-78.744 46.32-129.827 111.74-129.827 185.96v338.828c0.004 71.007 51.407 133.262 130.020 177.192 78.935 44.108 187.323 71.077 306.499 71.077 119.18-0.001 227.566-26.966 306.501-71.077 78.612-43.93 129.995-106.185 129.999-177.192v-338.828z" />
<glyph unicode="&#xe91b;" glyph-name="shape-28" d="M768.347 513.044v-467.826l160.518 92.749v468.385l-160.518-93.308zM95.231 137.966l156.096-90.193 0.327 469.309-156.423 88.076v-467.192zM510.019 594.716c-78.297 0-138.959-19.988-179.962-39.883-20.502-9.951-36.094-19.881-46.499-27.27-5.199-3.692-9.104-6.762-11.674-8.865-0.181-0.15-0.368-0.284-0.538-0.423l-0.327-467.712c45.212 31.533 136.511 75.971 243.326 71.058 75.256-3.462 129.404-18.060 169.039-35.306 28.794-12.53 49.725-26.398 65.27-38.020v466.058c-0.213 0.185-0.439 0.374-0.673 0.577-2.57 2.209-6.491 5.427-11.693 9.307-10.405 7.761-25.988 18.174-46.48 28.617-40.982 20.884-101.579 41.864-179.789 41.864zM105.25 622.102l155.153-87.347c2.844 2.294 6.772 5.311 11.75 8.846 11.179 7.94 27.703 18.458 49.308 28.944 43.229 20.976 106.817 41.864 188.558 41.864 81.833 0 145.481-21.959 188.731-43.999 21.616-11.016 38.148-22.067 49.327-30.405 4.911-3.663 8.785-6.817 11.615-9.21l159.405 92.672-405.213 234.712-408.634-236.076zM948.557 132.256c-0.002-3.513-1.879-6.762-4.923-8.519l-180.21-104.097c-3.072-1.774-6.816-1.751-9.826-0.020l-1.231 0.847-0.54 0.423c-15.967 12.739-39.077 31.173-76.288 47.366-37.24 16.205-89.007 30.328-162.097 33.692-115.564 5.317-212.476-50.609-245.921-78.769-3.172-2.67-7.68-3.054-11.27-0.981l-175.789 101.539c-3.043 1.757-4.92 5.004-4.923 8.519v489.73c0.002 3.515 1.879 6.76 4.923 8.519l429.691 248.135c2.806 1.156 6.026 0.968 8.694-0.577l424.806-246.077c3.039-1.759 4.901-5.008 4.903-8.519v-491.211z" />
<glyph unicode="&#xe91c;" glyph-name="shape-29" d="M169.308 31.136h759.557v416.364l-759.557-416.364zM111.827 200.308l232.365-50.848 566.5 310.52-267.674 56.596-531.192-316.268zM95.231 213.346l833.634 496.327v155.096h-833.634v-651.423zM948.557 21.289c0-5.439-4.407-9.846-9.846-9.846h-807.845c-4.497 0-8.423 3.046-9.539 7.402-1.112 4.356 0.866 8.917 4.808 11.077l191.77 105.135-234.616 51.346c-4.52 0.991-7.75 4.99-7.75 9.616v678.596c0 5.438 4.408 9.846 9.846 9.846l855.327-0.192c4.484-0.921 7.845-4.898 7.845-9.654v-170.539c0-3.47-1.825-6.686-4.807-8.462l-275.769-164.192 272.77-57.693c4.549-0.961 7.802-4.966 7.806-9.614v-442.827z" />
<glyph unicode="&#xe91d;" glyph-name="shape-30" d="M632.751 853.842c22.609 0.203 53.549-7.706 93.808-30.885 26.325-15.156 45.71-32.701 57.403-49.481 11.203-16.075 17.12-34.259 10.079-48.692-4.033-8.263-7.054-13.542-10.079-18.808 98.355-45.932 164.675-116.252 164.675-213.79v-109.615c-0.002-0.293-0.012-0.591-0.039-0.884-5.88-64.926-43.479-113.491-91.691-149.037-48.118-35.476-107.532-58.579-159.136-72.828-56.58-15.622-135.487-29.109-223.462-25.289l-41.44-75.768c-0.268-0.488-0.579-0.949-0.924-1.384-7.274-9.151-17.605-13.613-28.308-15.289-10.612-1.66-22.248-0.711-33.461 1.441-22.439 4.311-45.393 13.932-59.75 21.482l-0.23 0.134c-37.323 20.929-59.201 40.879-71.174 57.98-11.731 16.76-14.759 32.15-10.923 42.713l0.5 1.154 12.020 23.308c-133.946 62.891-166.935 150.934-165.001 191.577v123.191c0.001 73.123 51.181 137.458 129.886 182.963 78.958 45.651 187.384 73.574 306.615 73.576 12.682 0 24.877-0.695 36.884-1.404l39.769 74.231c0.075 0.127 0.156 0.26 0.232 0.385 6.176 10.7 21.691 18.819 43.748 19.019zM246.522 158.822c-0.66-2.414-0.898-10.787 8.633-24.403 9.722-13.885 28.908-32.022 64.54-52.019 13.239-6.949 34.261-15.711 54.191-19.539 9.998-1.92 19.172-2.489 26.713-1.308 7.164 1.122 12.182 3.736 15.5 7.635l36.443 66.615c-62.218 4.71-128.366 18.46-193.924 46.442l-12.095-23.424zM928.945 432.496c-9.777-19.389-24.3-41.758-45.848-64.057-58.754-60.804-168.237-119.904-370.979-119.904-119.144 0.002-226.962 26.47-305.654 71.424-50.304 28.735-89.267 65.449-111.154 108.018v-46.096c0-0.183-0.009-0.376-0.019-0.557-1.696-30.415 24.632-113.946 157.269-174.905 1.849-0.849 3.706-1.694 5.557-2.519 71.249-31.791 143.648-45.92 211.001-49.461 87.956-4.624 167.129 8.82 223.423 24.365 50.381 13.911 107.242 36.198 152.672 69.691 45.243 33.357 78.419 77.239 83.732 134.636v49.365zM711.81 503.901c0 14.389-5.002 28.449-14.576 41.633l-32.406-60.134c14.24-8.113 25.005-16.61 32.173-23.326 9.693 13.263 14.809 27.357 14.809 41.826zM761.328 705.92c-3.641-0.549-7.528-0.888-11.634-0.963-21.957-0.392-50.95 6.384-85.384 25.809-37.295 21.037-58.433 41.023-69.366 58.365-1.579 2.506-2.952 4.979-4.133 7.404l-27.424-51.212-177.617-328.153c34.326-15.813 78.104-25.442 126.039-25.442 0.861 0 1.735 0.008 2.674 0.020 0.92 0.012 1.92 0.037 2.922 0.037h1.057c1.69 0.033 3.393 0.081 5.039 0.136 0.23 0.006 0.461-0.012 0.691-0.020h0.443c1.686 0.061 3.324 0.11 4.943 0.191l0.48 0.020h0.096c1.636 0.087 3.277 0.181 4.943 0.289l1.038 0.077c1.721 0.116 3.436 0.24 5.116 0.384l0.845 0.077c1.705 0.154 3.328 0.295 4.923 0.461l0.096 0.020 0.423 0.039c1.692 0.179 3.371 0.362 5.039 0.557l0.998 0.116 4.923 0.634 0.79 0.114h0.057c1.556 0.213 3.121 0.451 4.712 0.693l0.114 0.020 0.54 0.077c1.524 0.221 3.025 0.49 4.769 0.788l0.998 0.173h0.039c1.569 0.27 3.149 0.567 4.73 0.866l0.654 0.114 0.020 0.020c1.516 0.295 3.040 0.593 4.557 0.904l0.616 0.134c1.575 0.333 3.149 0.681 4.73 1.040l0.963 0.211c1.329 0.327 3.436 0.835 4.576 1.115l0.441 0.116c1.487 0.384 2.972 0.77 4.443 1.154l0.731 0.193c0.303 0.081 0.603 0.167 0.904 0.25l163.442 303.173zM625.059 411.689l0.213 0.057 1.134 0.441c0.652 0.258 1.321 0.522 1.961 0.79l0.096 0.037 3.846 1.617 0.077 0.037 0.057 0.020c0.955 0.41 1.902 0.829 2.846 1.25l1.020 0.461 1.942 0.884 1.154 0.54c0.819 0.386 1.14 0.508 1.54 0.711l0.057 0.039 1.211 0.614 1.615 0.79 1.117 0.595 0.134 0.059c0.607 0.305 1.241 0.636 1.904 0.981l0.904 0.461c0.874 0.461 1.737 0.935 2.595 1.404l0.096 0.037 0.54 0.289 1.979 1.097c0.39 0.234 0.778 0.465 1.154 0.672l1.481 0.847 1.077 0.634 1.597 0.963 0.884 0.538 2.615 1.634 0.039 0.039c0.628 0.392 1.097 0.687 1.499 0.961l0.5 0.347 0.309 0.23c0.91 0.603 1.538 0.998 2.152 1.441l0.116 0.096 0.691 0.48c0.288 0.201 0.579 0.396 0.866 0.597 0.242 0.169 0.488 0.351 0.731 0.52l0.924 0.672 1.384 1 0.884 0.673 1.384 1.057 0.673 0.54 1.481 1.172 0.057 0.039 0.827 0.673 1.694 1.384 0.364 0.307c0.675 0.571 1.329 1.134 1.961 1.692l0.020 0.020 0.673 0.577c0.49 0.443 0.849 0.764 1.231 1.117l0.134 0.134c0.156 0.138 0.25 0.236 0.616 0.577 0.075 0.069 0.154 0.144 0.23 0.211 0.181 0.16 0.374 0.349 0.614 0.577-5.772 5.469-15.279 13.174-28.499 20.75l-30.405-56.383zM399.002 482.977c-10.529-3.753-20.953-9.055-30.596-14.982-11.384-6.997-21.289-14.61-28.538-20.884l0.037-0.039 1.136-1.038 1.461-1.327 1.174-1.038c0.49-0.427 0.959-0.845 1.441-1.25l1.211-1.020 0.096-0.077c0.358-0.307 0.776-0.634 1.384-1.115l0.057-0.057 1.213-0.963 1.692-1.308 1.174-0.884c0.607-0.455 1.205-0.9 1.825-1.345l0.983-0.733 0.077-0.037c0.963-0.689 1.934-1.367 2.922-2.038l0.096-0.059 0.096-0.077c0.928-0.636 1.89-1.28 2.883-1.922l1.174-0.731 0.23-0.136 1.867-1.191 0.057-0.020 1.365-0.847c0.654-0.396 1.325-0.786 2.038-1.211 0.236-0.134 0.477-0.286 0.713-0.423l30.73 56.751zM632.944 834.15c-18.402-0.165-25.63-6.922-26.923-9.211l-0.461-0.865c-1.158-2.607-2.491-10.913 6.038-24.442 8.574-13.6 26.715-31.589 62.385-51.711 32.118-18.119 57.675-23.587 75.364-23.27 8.865 0.16 15.581 1.77 20.175 3.789 4.799 2.111 6.483 4.279 6.825 4.98 2.117 4.342 1.631 14.218-8.539 28.808-9.681 13.891-26.663 29.618-51.076 43.674-38.349 22.078-65.804 28.41-83.789 28.25zM311.867 503.901c0-14.553 5.142-28.731 14.923-42.039 8.068 6.999 18.911 15.303 31.309 22.924 15.679 9.635 34.501 18.58 53.807 22.038l57.75 106.73c-43.248-5.283-81.052-18.511-108.808-36.537-31.716-20.6-48.985-46.458-48.981-73.116zM731.502 503.901c0-23.442-9.99-45.026-26.596-63.386l-0.020-0.020c-0.616-0.675-1.254-1.333-1.885-1.999l0.020-0.020c-0.286-0.309-0.652-0.63-0.788-0.77l0.018-0.018c-0.414-0.431-0.876-0.929-1.365-1.424l-0.788-0.788c-0.384-0.384-0.851-0.792-1.327-1.231-0.25-0.246-0.579-0.605-0.943-0.943-0.362-0.347-0.817-0.733-1.288-1.154l0.020-0.020c-0.16-0.148-0.583-0.545-0.963-0.884l-0.018 0.020c-0.488-0.447-0.989-0.929-1.367-1.27l-0.095-0.095-0.656-0.54c-0.766-0.677-1.51-1.359-2.269-1.999l-0.096-0.059-0.461-0.404-0.039-0.020-1.749-1.441-0.077-0.057-0.807-0.616 0.018-0.020-1.422-1.172c-0.075-0.061-0.156-0.116-0.232-0.173l-0.941-0.711-0.020-0.020-1.404-1.077-0.077-0.057-0.961-0.713-0.116-0.096-1.481-1.075-0.922-0.673-0.154-0.116c-0.288-0.201-0.579-0.396-0.866-0.597-0.291-0.203-0.593-0.412-0.884-0.614l-0.020-0.020-0.597-0.384 0.020-0.020c-0.872-0.626-1.774-1.187-2.481-1.654l-0.691-0.518-0.213-0.156c-0.752-0.51-1.534-0.983-2.115-1.345l-0.981-0.634-0.037-0.020-1.617-1.020-0.114-0.077-1.077-0.654-0.059-0.037-1.615-0.963-0.037-0.018-1.077-0.654-0.154-0.079-1.77-0.998-0.114-0.077c-0.219-0.122-0.427-0.23-0.616-0.347-0.083-0.051-0.165-0.106-0.25-0.154-0.8-0.459-1.607-0.926-2.422-1.367l-0.077-0.018-0.5-0.25c-0.963-0.524-1.928-1.063-2.905-1.577l-0.077-0.039-0.904-0.441c-0.61-0.317-1.268-0.66-1.942-1l0.018-0.020-1.115-0.577-0.193-0.096-1.825-0.904-1.077-0.518c-0.76-0.388-1.703-0.835-2.097-1.020l-0.057-0.037-1.174-0.54-0.057-0.020-2.018-0.922-0.020-0.020-1-0.463-0.077-0.018c-1.046-0.467-2.097-0.931-3.155-1.384l-0.057-0.020-0.114-0.059-0.020 0.020c-1.034-0.447-2.052-0.892-3.058-1.308l-0.077-0.037-0.961-0.366c-0.76-0.317-1.518-0.638-2.288-0.941l-1.213-0.482-0.077-0.037-2.018-0.77-0.039-0.018-1.345-0.52-2.078-0.75-0.037-0.020-1.213-0.423c-0.642-0.234-1.666-0.642-2.635-0.961l-0.731-0.27h-0.037c-1.172-0.408-2.341-0.811-3.482-1.191l-0.577-0.193-2.865-0.922-0.173-0.059-1.172-0.347-2.231-0.691-0.096-0.039-1.288-0.384h-0.039l-2.211-0.654-0.037-0.020-0.867-0.25-0.347-0.077 0.020-0.020c-1.587-0.455-3.184-0.898-4.789-1.325l-0.748-0.193-0.039-0.020c-1.499-0.39-3.005-0.782-4.519-1.172h-0.057l-0.5-0.136-0.077-0.020c-1.993-0.49-2.903-0.705-4.789-1.172l-0.191-0.039-0.963-0.211c-1.634-0.37-3.31-0.738-5-1.097l-0.654-0.134-0.037-0.020c-1.593-0.327-3.198-0.652-4.789-0.961l-0.020 0.018-0.595-0.134-0.096-0.020c-1.672-0.315-3.387-0.607-5.116-0.904l0.020-0.018-1-0.173h-0.039c-1.595-0.274-3.45-0.616-5.307-0.886h-0.037l-0.597-0.077-0.020 0.020c-1.581-0.24-3.192-0.488-4.827-0.711l-0.77-0.136h-0.037c-1.766-0.242-3.535-0.459-5.27-0.672l-0.037-0.020-1.040-0.116c-1.776-0.207-3.586-0.406-5.384-0.595l-0.096-0.020-0.443-0.039-0.018 0.020c-1.725-0.179-3.446-0.352-5.096-0.5h-0.059l-0.884-0.077c-1.794-0.154-3.612-0.297-5.441-0.423l-1.097-0.077c-1.822-0.118-3.68-0.23-5.557-0.327-0.091-0.004-0.181 0.002-0.27 0l-5.443-0.23c-0.24-0.008-0.488-0.010-0.731 0l-0.673 0.039c-1.664-0.055-3.377-0.102-5.057-0.136l-0.193-0.020-1.057 0.020c-0.859 0-1.731-0.026-2.672-0.037-0.922-0.012-1.92-0.020-2.924-0.020-51.838 0-99.706 10.657-137.423 28.692-1.282 0.618-2.566 1.254-3.826 1.885l-0.096 0.039-1.097 0.577c-0.419 0.213-1.091 0.536-1.652 0.827l-0.096 0.057c-0.065 0.033-0.512 0.268-0.866 0.461l-1.575 0.827-0.096 0.059-2.135 1.172-0.059 0.020-1.538 0.864h-0.037c-0.766 0.427-1.504 0.878-2.211 1.29-0.731 0.419-0.937 0.538-1.386 0.788l-0.23 0.116 0.020 0.018c-0.701 0.417-1.461 0.853-2.211 1.31l-1.327 0.825c-0.823 0.494-1.621 1.004-2.404 1.52l-1.172 0.711-0.116 0.077c-1.142 0.736-2.308 1.499-3.462 2.288l-0.037 0.039c-1.144 0.776-2.263 1.556-3.365 2.345-0.26 0.183-0.498 0.352-0.673 0.482-0.193 0.142-0.307 0.224-0.423 0.307-0.76 0.544-1.524 1.095-2.269 1.654l-0.077 0.057-1.154 0.904-0.039 0.020c-0.502 0.386-1.282 0.977-1.961 1.518l-0.020 0.020-1.191 0.961c-0.551 0.435-1.3 1.016-2.018 1.634l-1.154 0.963c-0.608 0.51-1.195 1.018-1.77 1.518l-0.077 0.077-1.174 1.038c-0.593 0.53-1.178 1.050-1.729 1.558l-1.117 1.040-0.077 0.077c-0.575 0.544-1.134 1.087-1.674 1.615-0.258 0.25-0.721 0.701-1.134 1.117-1.13 1.13-0.898 0.931-1.615 1.634l-0.173 0.173-0.827 0.845-0.077 0.077-2.576 2.788c-15.374 17.12-24.976 37.037-26.116 58.636l-0.116 4.346c-0.006 35.87 23.168 67.046 57.943 89.633 33.725 21.904 79.63 36.673 130.865 40.942l57.693 106.577c-8.828 0.479-17.564 0.866-26.557 0.866-116.401-0.002-221.308-27.294-296.769-70.924-75.719-43.78-120.039-102.8-120.039-165.923 1.216-66.107 45.745-125.074 120.924-168.019 75.112-42.908 179.395-68.825 295.885-68.827 198.749 0 302.622 57.805 356.827 113.904 27.205 28.156 42.246 56.229 50.481 77.135 4.118 10.457 6.528 19.125 7.903 25.096 0.687 2.981 1.115 5.287 1.367 6.808 0.116 0.703 0.181 1.243 0.23 1.595-0.258 86.686-59.071 151.706-154.5 195.925l-67.019-124.29c15.096-17.713 24.096-38.246 24.096-60.499z" />
<glyph unicode="&#xe91e;" glyph-name="shape-31" d="M95.231 206.986l146.693-84.789v263.981c0 3.604 1.969 6.93 5.134 8.655 3.168 1.723 7.028 1.573 10.057-0.386l89.251-57.693c2.802-1.812 4.498-4.931 4.5-8.269v-269.269l151.345-87.481v470.538l-406.98 235.27v-470.558zM776.596 589.505v-292.634c0-3.417-1.764-6.593-4.673-8.385l-89.249-54.904c-3.039-1.869-6.847-1.952-9.962-0.213-3.111 1.741-5.037 5.031-5.037 8.598v284.576l-145.77-84.269v-470.538l406.961 235.27v470.518l-152.269-88.019zM261.616 122.64l69.557 42.327v158.173l-69.557 44.961v-245.461zM687.366 259.602l60.115 36.98-60.115 34.558v-71.538zM105.058 694.601l406.982-235.268 145.825 84.287-406.134 235.789-146.673-84.808zM360.655 842.351l406.095-235.769 152.269 88.019-406.979 235.27-151.385-87.519zM687.366 353.851l69.537-39.962v275.635l-406.038 235.75v-80.635l331.595-192.518c3.035-1.762 4.903-5.012 4.905-8.519v-189.751zM948.557 201.293c-0.002-3.511-1.865-6.76-4.903-8.519l-426.673-246.634c-3.048-1.762-6.816-1.762-9.864 0l-171.040 98.865c-3.039 1.76-4.901 5.008-4.903 8.519v88.385l-74.289-45.212c-3.074-1.867-6.924-1.896-10.037-0.096l-166.385 96.173c-3.042 1.759-4.921 5.006-4.923 8.519v493.288c0 3.517 1.879 6.78 4.923 8.539l167.557 96.751c2.808 1.159 6.022 0.971 8.692-0.577l74.463-43.211v86.288c0.002 3.511 1.865 6.761 4.903 8.519l171.040 98.865c3.048 1.762 6.816 1.762 9.864 0l426.673-246.635c3.042-1.759 4.903-5.024 4.903-8.539v-493.288z" />
<glyph unicode="&#xe91f;" glyph-name="shape-32" d="M95.231 207.951l408.52-236.922v210.115l-327.039 447.616-81.481 48.134v-468.943zM847 628.74l-323.556-447.577v-210.078l405.421 236.828v468.673l-81.865-47.846zM513.538 201.086l307.442 425.269h-618.134l310.691-425.269zM104.904 694.028l81.25-47.98h651.443l81.558 47.673-405.597 236.154-408.654-235.846zM948.557 202.26c0-3.497-1.847-6.735-4.864-8.501l-425.135-248.326c-3.058-1.786-6.841-1.796-9.903-0.020l-428.212 248.326c-3.035 1.762-4.904 5.010-4.904 8.521v491.865c0.001 3.515 1.879 6.76 4.923 8.519l428.212 247.116c3.056 1.764 6.833 1.757 9.884-0.019l425.116-247.5c3.027-1.762 4.884-4.998 4.884-8.499v-491.481z" />
<glyph unicode="&#xe920;" glyph-name="shape-33" d="M504.923 946.374c3.046 1.758 6.8 1.758 9.846 0l422.424-243.864c3.909 0.612 7.966-1.176 10.057-4.809 2.593-4.515 1.185-10.183-3.076-13.038v-482.001c0-3.515-1.879-6.778-4.923-8.539l-424.481-245.057c-3.046-1.757-6.8-1.759-9.846 0l-424.461 245.057c-3.046 1.76-4.923 5.022-4.923 8.539v122.52c0 3.564 1.929 6.855 5.038 8.596l104.346 58.463v116.75c0.001 3.501 1.861 6.737 4.885 8.499l100.134 58.423v116.886c0.004 3.454 1.825 6.664 4.789 8.442l82.731 49.634v116.231c0 0.121 0.014 0.245 0.018 0.365-0.069 1.836 0.374 3.708 1.386 5.404 1.514 2.541 3.994 4.123 6.691 4.615l119.365 68.885zM95.231 208.354l404.769-233.712v99.789l-404.769 233.712v-99.789zM817.27 611.682v-120.194c0-3.291-1.646-6.365-4.385-8.192l-74.384-49.577v-108.538c-0.002-3.417-1.764-6.593-4.675-8.385l-109.095-67.115v-108.288c0-3.501-1.861-6.754-4.884-8.519l-100.155-58.384v-99.848l404.789 233.712v464.924l-107.211-61.596zM105.288 325.067l404.52-233.559 85.518 49.885-400.653 233.732-89.385-50.058zM204.615 392.105l400.423-233.559v91.077l-400.423 241.924v-99.442zM214.038 508.855l400.77-242.154 94.559 58.173-409.539 234.019-85.79-50.038zM309.634 575.97l409.175-233.809v91.213l-409.175 242.152v-99.556zM319.019 692.854l409.326-242.249 60.694 40.48-401.751 242.731-68.269-40.962zM397.154 750.854l400.423-241.902v102.865l-400.423 238.692v-99.654zM407.385 867.355l400.134-238.558 109.271 62.75-406.944 234.962-102.461-59.154z" />
<glyph unicode="&#xe921;" glyph-name="shape-34" d="M511.961 910.154c255.218-0.001 462.115-206.898 462.115-462.114 0-5.077-3.87-9.328-8.923-9.809l-159.153-15.116 133.346-135.308c2.741-2.783 3.578-6.928 2.135-10.557-15.866-39.865-37.11-77.001-62.846-110.499-1.666-2.168-4.165-3.551-6.884-3.808l-142.251-13.519 58.193-58.193c2.024-2.024 3.056-4.836 2.846-7.692s-1.658-5.488-3.96-7.192c-76.776-56.816-171.786-90.423-274.617-90.423-255.216 0-462.113 206.897-462.114 462.115 0 102.833 33.605 197.856 90.423 274.633l1.442 1.558c1.588 1.384 3.593 2.245 5.731 2.404 2.856 0.213 5.666-0.841 7.692-2.865l58.192-58.193 13.538 142.251 0.404 2c0.599 1.923 1.782 3.638 3.405 4.885 35.253 27.084 74.535 49.208 116.787 65.308l1.384 0.404c3.273 0.721 6.737-0.259 9.135-2.692l129.443-131.365 14.73 154.865c0.48 5.054 4.73 8.923 9.807 8.923zM231.385 647.538l480.039-480.037 137.614 13.095-604.558 604.577-13.095-137.635zM348.501 859.288c-34.639-13.78-67.111-31.839-96.809-53.481l618.019-618.020c20.397 27.989 37.555 58.457 51.001 90.866l-572.211 580.634zM505.462 728.058l282.711-286.846 154.289 14.673-422.693 422.692-14.306-150.519zM953.693 472.499c-12.255 224.874-192.414 405.043-417.288 417.289l417.288-417.289zM69.538 448.039c0.001-244.342 198.082-442.423 442.422-442.423 94.364 0 181.786 29.556 253.598 79.884l-616.154 616.155c-50.329-71.812-79.865-159.252-79.865-253.615z" />
<glyph unicode="&#xe922;" glyph-name="shape-35" horiz-adv-x="1063" d="M892.698 887.98l1.481-0.25c3.395-0.84 6.144-3.445 7.115-6.885l155.327-550.096c0.91-3.22 0.116-6.684-2.097-9.192l-317.729-359.694c-2.099-2.371-5.215-3.588-8.365-3.269l-557.77 56.424c-4.022 0.406-7.402 3.224-8.5 7.115l-155.327 550.097c-0.929 3.289-0.082 6.829 2.231 9.346l324.789 352.634 1.711 1.481c1.859 1.261 4.12 1.857 6.404 1.654l550.731-49.365zM191.736 32.691l524.442-53.057-103.077 382.442-119.729 12.115-301.636-341.5zM734.159-11.366l292.866 331.577-392.942 39.751 100.076-371.328zM176.197 44.865l302.269 342.174-37 135.519-411.75 41.135 146.481-518.827zM592.004 516.019l36.578-135.712 405.134-40.982-146.422 518.577-295.29-341.884zM497.081 393.616l110.539-11.173-34.231 126.943-110.943 11.077 34.635-126.846zM456.889 540.808l120.135-12 294.768 341.288-517.461 46.385 102.558-375.672zM36.909 582.768l399-39.865-99.635 364.885-299.365-325.020z" />
<glyph unicode="&#xe923;" glyph-name="shape-36" d="M373.943 846.315c87.704 46.984 176.67 45.781 250.155 22.135 73.137-23.536 131.801-69.583 159.057-113.673 26.207-42.394 43.487-81.063 51.942-123.347 8.214-41.070 7.96-84.955 0.173-138.23 23.92-26.258 56.379-70.274 80.384-122.096 25.066-54.111 41.535-117.914 28.134-179.172-16.48-75.339-52.899-118.199-91.384-142.982-38.093-24.529-77.503-30.838-98.655-34.615-43.548-7.776-150.097-12.28-257.479 61.982-26.646-13.889-68.821-30.848-115.942-40.058-50.363-9.842-107.536-11.148-157.462 10.616-61.108 26.636-97.29 63.762-118.482 101.346-21.103 37.427-27.007 74.726-28.577 101.404-3.176 53.984 20.254 174.956 140.845 279.538-2.397 38.42 2.231 97.184 23.52 155.865 22.278 61.408 63.055 123.403 133.768 161.289zM829.655 469.719c-12.979-45.444-39.771-116.714-80.25-180.673 2.718-3.582 6.089-8.716 8.694-15.076 5.447-13.308 7.522-31.976-5.79-51.519-9.901-14.531-25.679-19.688-39.828-20.846-14.169-1.158-28.294 1.503-37.634 4.25-0.439 0.13-0.87 0.291-1.288 0.48-33.894 15.407-113.995 60.576-163.942 119.020l-1.134 1.134c-0.864 0.861-2.119 2.113-3.655 3.673-3.066 3.115-7.31 7.481-12 12.52-9.275 9.962-20.712 22.953-28.249 34.038-9.486 13.954-16.207 26.994-20.559 36.557-1.162 2.552-2.162 4.864-2.999 6.884-62.194-21.167-105.588-69.23-137.019-112.577 9.639-14.87 29.483-43.975 51.807-70.825 36.472-43.869 85.642-97.203 146.905-140.963 103.45-73.891 206.767-69.358 247.558-62.076 21.352 3.812 57.080 9.651 91.461 31.789 33.997 21.892 67.413 60.255 82.808 130.635 12.101 55.316-2.56 114.473-26.75 166.691-20.175 43.552-46.641 81.394-68.135 106.884zM619.924 603.508c-72.513 22.754-140.635 21.681-199.749 8.789-87.239-19.031-154.587-63.644-186.539-94.442-0.144-0.14-0.289-0.276-0.441-0.404-118.968-101.122-140.594-218.002-137.731-266.673 1.467-24.932 6.957-58.975 26.077-92.885 19.034-33.759 51.922-67.99 109.212-92.961 44.784-19.519 97.41-18.806 145.808-9.346 40.133 7.843 76.516 21.616 101.73 33.749-55.016 41.549-99.696 89.708-133.616 130.115-0.74-0.163-1.522-0.388-2.365-0.557-5.218-1.050-12.469-2.144-20.385-2.249-15.187-0.203-36.472 3.306-47.5 22.595-21.094 36.917 4.512 65.101 9.019 73.366l0.597 0.981c33.654 47.423 83.826 105.909 159.923 128.173h0.039c0.016 0.006 0.033 0.012 0.057 0.020 0.051 0.016 0.122 0.049 0.211 0.077 0.181 0.055 0.445 0.116 0.77 0.211 0.652 0.191 1.585 0.467 2.788 0.79 2.404 0.644 5.878 1.503 10.25 2.442 8.737 1.875 21.13 4.033 35.866 5.211 27.459 2.198 63.579 1.034 99.519-12.192 43.914 66.682 36.602 135.331 26.461 165.193zM737.597 271.141c-12.174-17.603-25.504-34.424-39.979-49.711 4.324-0.425 8.832-0.571 13.249-0.211 11.028 0.902 19.917 4.628 25.155 12.308 8.779 12.883 7.394 24.314 3.846 32.981-0.681 1.66-1.477 3.2-2.271 4.634zM618.079 849.719c-69.199 22.269-152.527 23.338-234.827-20.75-65.288-34.975-103.444-92.402-124.577-150.654-17.538-48.347-23.154-96.801-22.904-132.289 37.262 30.618 99.153 67.005 176.059 84.576 7.968 12.674 21.754 29.338 40.269 43.020 20.506 15.153 47.419 27.106 78.923 25.096 31.441-2.007 55.7-16.683 73.039-33.788 17.223-16.994 28.014-36.746 32.768-50.172h-0.037c13.030-32.973 23.895-115.489-31.173-193.577-7.578-15.559-22.78-36.051-38.367-54.077-12.125-14.025-25.244-27.42-36.057-36.366 44.688-48.642 110.71-87.341 144.443-103.615 19.688 19.397 37.522 42.138 53.344 66.404 47.029 72.113 75.892 155.937 86.193 198.345 8.184 53.746 8.464 96.447 0.614 135.694-7.861 39.304-23.983 75.774-49.384 116.864-24.355 39.395-78.783 82.909-148.326 105.289zM292.368 289.373c-6.185-10.72-10.622-23.257-0.847-40.365 5.457-9.539 16.811-12.849 30.135-12.672 3.021 0.039 5.961 0.276 8.692 0.595-15.433 19.578-28.989 38.969-37.981 52.443zM583.097 421.065c-31.224 10.732-62.777 11.813-87.595 9.826-13.72-1.097-25.236-3.115-33.288-4.844-0.723-0.156-1.414-0.333-2.078-0.482 0.545-1.274 1.138-2.662 1.808-4.133 3.996-8.783 10.177-20.797 18.903-33.634 6.636-9.76 17.217-21.825 26.405-31.693 3.974-4.267 7.623-8.042 10.461-10.943 9.364 7.593 22.093 20.301 34.635 34.808 12.193 14.104 23.43 28.987 30.75 41.096zM529.77 679.066c-25.565 1.632-47.988-7.991-65.961-21.27-9.161-6.77-17.012-14.385-23.328-21.654 51.32 8.068 108.318 7.188 168.444-8.942-4.732 7.735-10.933 16.055-18.694 23.712-14.815 14.618-34.83 26.518-60.461 28.154z" />
<glyph unicode="&#xe924;" glyph-name="shape-37" d="M267.827 916.789c2.164 0.36 4.399-0.011 6.327-1.058l207.673-112.769c4.131-2.244 6.112-7.107 4.712-11.596l-10.366-33.153 98.981 14.98c2.103 0.319 4.259-0.051 6.134-1.058l418.269-224.904c4.155-2.235 6.138-7.111 4.732-11.615l-155.5-498.058c-1.115-3.56-4.145-6.195-7.828-6.79l-319.673-51.596c-2.125-0.343-4.313 0.026-6.211 1.040l-420.269 224.171c-4.187 2.235-6.184 7.131-4.75 11.654l79.212 249.655 0.5 1.288c1.385 2.885 4.111 4.949 7.327 5.463l151.481 24.115 9.71 29.999-96.23-15.73c-2.127-0.349-4.309 0.026-6.211 1.038l-211.558 112.77c-4.19 2.233-6.185 7.146-4.75 11.672l78.25 246.751 0.5 1.288c1.374 2.867 4.077 4.931 7.269 5.461l162.269 26.981zM682.096 479.232l-148.287-478.078 298 48.096 148.96 477.115-298.673-47.134zM396.674 350.769c-0.89-2.757-2.956-4.976-5.634-6.077-2.682-1.099-5.719-0.973-8.288 0.366l-198.27 103.501-73.192-230.654 402.538-214.711 148.866 479.961-190.442 102.193-75.577-234.579zM209.577 457.693l171.924-89.769 23.942 74.346-70.924 35.308-124.942-19.885zM409.251 543.636c-1.113-3.552-4.133-6.17-7.808-6.77l-41.309-6.731-12.077-37.307 63.5-31.596 45.578 141.385c1.122 3.482 4.088 6.048 7.692 6.674l127.309 22.114-133.309 71.194-49.575-158.962zM469.654 737.29l-4.846-15.539 161.867-86.481c3.706-1.981 5.742-6.101 5.077-10.25-0.668-4.151-3.897-7.416-8.038-8.135l-127.386-22.097 179.942-96.557 288.213 45.501-389.616 209.499-105.212-15.941zM324.366 761.385l-69.864-228.557 137.769 22.498 70.768 226.905-138.673-20.846zM40.77 638.175l193.769-103.308 70.424 230.423-191.962 100.635-72.231-227.749zM137.712 875.193l180.769-94.769 128.134 19.25-178.903 97.154-130.001-21.635z" />
<glyph unicode="&#xe925;" glyph-name="shape-38" d="M77.361 621.749c0 72.519 51.061 136.29 129.5 181.366 78.706 45.229 186.787 72.885 305.634 72.885s226.928-27.668 305.634-72.904c78.438-45.082 129.501-108.848 129.501-181.365v-348.981c2.826-55.688-45.655-171.296-245.232-227.923l-0.018 0.018c-47.017-14.592-171.997-37.557-302.809-14.75-4.71 0.823-8.151 4.911-8.153 9.693v152.846l-173.078-99.096c-2.936-1.682-6.532-1.723-9.519-0.134-108.797 57.945-133.664 141.475-131.462 179.346v348.999zM927.939 545.518c-21.746-40.816-60.323-76.696-109.808-105.133-76.247-43.815-180.059-71.142-294.52-72.808l-11.114-0.096c-33.92-0.030-67.793 2.322-101.384 6.961v-326.268c124.388-19.887 242.152 1.979 285.672 15.539l0.23 0.057c194.318 55.135 233.444 164.901 230.944 208.423-0.012 0.185-0.020 0.37-0.020 0.557v272.768zM97.054 272.75c0-0.219-0.005-0.437-0.019-0.654-1.864-27.599 15.871-98.822 106.558-153.078v323.308c-47.927 28.138-85.279 63.33-106.539 103.251v-272.827zM223.285 442.307v-323.23l168.135 96.25v170.48c0 1.449 0.323 2.881 0.941 4.192l97.751 207.384-266.827-155.077zM97.054 621.749c0.003-61.552 42.883-119.196 116.366-162.365l294.134 170.886c3.724 2.16 8.422 1.658 11.597-1.25 3.174-2.914 4.088-7.564 2.249-11.461l-105.557-223.905c32.028-4.33 64.325-6.508 96.654-6.481 116.037 0 220.609 27.065 295.828 70.29 75.479 43.378 119.613 101.813 119.615 164.269 0 62.456-44.134 120.903-119.615 164.288-75.219 43.23-179.791 70.288-295.828 70.289s-220.609-27.045-295.828-70.269c-75.484-43.379-119.615-101.831-119.615-164.289z" />
<glyph unicode="&#xe926;" glyph-name="shape-39" horiz-adv-x="720" d="M366.743 91.469v-126.608l86.46 47.42v127.487l-86.46-48.298zM268.054 12.241l84.851-47.284v126.512l-84.851 47.393v-126.622zM66.919 267.037l285.986-159.715v396.608l-285.986 153.54v-390.433zM366.743 503.93v-396.608l285.973 159.715v390.419l-285.973-153.527zM74.392 669.145l285.42-153.215 285.418 153.215-178.188 99.527v-99.648c-0.001-2.48-1.335-4.769-3.487-6l-100.297-57.433c-2.145-1.227-4.784-1.216-6.919 0.026l-98.676 57.433c-2.127 1.238-3.444 3.512-3.446 5.974v100.554l-179.824-100.434zM366.743 832.2v-208.649l86.46 49.501v202.378l-86.46-43.23zM268.054 673.024l84.851-49.391v208.594l-84.851 43.122v-202.325zM275.676 886.997l84.162-42.77 85.54 42.77-85.54 48.284-84.162-48.284zM467.041 784.524l195.973-109.459c2.188-1.223 3.54-3.534 3.54-6.040v-406.055c0-2.507-1.352-4.818-3.54-6.040l-195.973-109.432v-139.325c0-2.527-1.38-4.853-3.595-6.068l-100.297-55c-2.088-1.144-4.625-1.144-6.703 0.014l-98.676 55.014c-2.192 1.222-3.554 3.531-3.554 6.040v138.419l-197.595 110.339c-2.187 1.223-3.541 3.534-3.541 6.040v406.055c0 2.505 1.355 4.817 3.541 6.040l197.595 110.365v101.189c0 2.477 1.326 4.766 3.473 6l99.5 57.027c1.944 0.799 4.168 0.669 6.026-0.378l100.312-56.622c2.171-1.227 3.513-3.532 3.513-6.027v-102.095z" />
<glyph unicode="&#xe927;" glyph-name="shape-40" horiz-adv-x="1063" d="M666.252 952.423l1.386-0.115c3.167-0.487 5.939-2.488 7.365-5.423l75.654-156.115h32.5l1.404-0.096c3.228-0.466 6.051-2.518 7.479-5.519l255.405-536.788c2.156-4.539 0.545-9.98-3.732-12.615l-475.173-292.789c-1.609-0.992-3.474-1.501-5.364-1.461l-283.213 5.807c-3.714 0.077-7.085 2.227-8.692 5.577l-257.076 536.749c-2.174 4.545-0.56 9.996 3.731 12.635l145.558 89.423c1.329 0.571 2.774 0.841 4.231 0.79l66.75-2.404-75.962 157.078c-2.198 4.545-0.604 10.021 3.692 12.672l314.828 193.808c1.268 0.554 2.643 0.842 4.037 0.827l185.192-2.038zM313.868-33.694l246.808-5.057 444.27 273.768-245.096 5.25-445.982-273.961zM35.772 490.153l248.538-518.884 460.134 282.654-69.864 145.057-169.326-105.096-152.751-93.442c-2.373-1.451-5.254-1.825-7.922-1.040-2.668 0.788-4.89 2.668-6.097 5.173l-175.269 363.963-127.442-78.385zM351.502 222.943l135.867 83.115-39.136 81.384-110.96 2.402c-3.698 0.083-7.044 2.229-8.655 5.559l-84.443 174.616-60.884 2.211 168.211-349.288zM844.963 591.98c2.146-4.533 0.54-9.962-3.73-12.597l-26.559-16.364 70.981-148.943c1.461-3.074 1.227-6.693-0.614-9.557-1.843-2.863-5.037-4.576-8.442-4.519l-182.116 3.019 68.943-143.116 259.365-5.577-245.864 516.75h-16.866l84.903-179.096zM529.887 387.23c-1.613-0.994-3.488-1.501-5.384-1.461l-54.193 1.193 33.904-70.52 170.539 105.693c1.29 0.565 2.696 0.851 4.116 0.827l182.154-3.001-63.212 132.636-267.924-165.366zM370.983 408.806l151.018-3.269 280.501 173.115-151.001 3.271-280.519-173.117zM180.099 747.731l161.48-333.924 294.558 181.77-159.364 334.904-296.674-182.75zM655.118 601.557l165.213-3.596-84.732 178.75-75.674 156.096-163.306 1.788 158.499-333.039z" />
<glyph unicode="&#xe928;" glyph-name="shape-41" d="M508.308 950.336c2.8 1.153 6.008 0.962 8.672-0.577l426.654-246.328c3.044-1.757 4.921-5.004 4.923-8.519v-492.672c0-3.519-1.877-6.78-4.923-8.539l-426.654-246.327c-3.044-1.759-6.8-1.759-9.846 0l-426.672 246.327c-3.046 1.759-4.923 5.020-4.923 8.539v492.672l0.096 1.29c0.4 3.003 2.16 5.689 4.827 7.229l427.846 246.905zM517.077 193.759c-3.094-1.833-6.944-1.831-10.039 0l-208.327 123.443-193.826-114.848 407.155-235.095 407.152 235.095-193.808 114.848-208.307-123.443zM308.557 334.259l193.654-114.751v223.386l-193.654 111.787v-220.422zM95.231 689.221v-469.693l193.634 114.731v237.479c0.002 3.515 1.883 6.76 4.923 8.521l208.423 120.346v223.596l-406.98-234.98zM521.903 442.894v-223.366l193.634 114.731v220.422l-193.634-111.787zM318.403 571.739l193.636-111.807 193.634 111.807-193.634 111.809-193.636-111.809zM735.23 334.259l193.634-114.731v469.693l-406.961 234.98v-223.596l208.404-120.346c3.044-1.759 4.923-5.004 4.923-8.521v-237.479z" />
<glyph unicode="&#xe929;" glyph-name="shape-42" horiz-adv-x="807" d="M75.030 256.365l500.697-288.773v581.061l-500.697 289.152v-581.44zM591.242 548.637v-581.014l140.591 81.424v580.485l-140.591-80.894zM208.742 598.063c34.369 20.598 79 13.228 121.394-11.804 39.508-23.389 78.575-62.838 108.91-113.455 32.309-53.917 48.835-110.673 48.893-158.515 0.056-43.937-13.85-81.878-44.060-101.803l-2.97-1.879c-33.102-19.835-75.742-13.748-116.668 9.092-41.137 22.959-82.122 63.575-113.636 116.181-31.513 52.604-48.010 107.894-48.863 155.001-0.847 46.864 13.892 87.344 47 107.182zM318.773 574.866c-38.89 21.965-75.534 25.792-102.060 9.894-26.311-15.765-40.254-49.413-39.455-93.592 0.794-43.936 16.275-96.611 46.651-147.318 30.376-50.705 69.526-89.192 107.894-110.606 38.575-21.527 74.816-25.093 101.122-9.334 24.841 14.898 38.606 45.703 39.41 86.334-91.532 62.175-144.525 149.582-153.561 264.622zM335.318 564.502c10.778-100.637 57.47-178.018 136.47-234.94-3.117 41.314-18.381 89.107-46.046 135.274-25.772 43.005-57.864 77.185-90.424 99.666zM82.697 851.29l500.788-289.197 140.561 80.863-502.789 289.531-138.56-81.197zM747.348 44.577c0-2.766-1.469-5.325-3.863-6.712l-156.121-90.424c-2.399-1.389-5.356-1.398-7.758-0.016l-516.212 297.728c-2.401 1.386-3.879 3.955-3.879 6.727v599.363c0.002 2.75 1.462 5.29 3.833 6.682l154.894 90.682c2.212 0.926 4.752 0.791 6.864-0.424l518.363-298.516c2.405-1.384 3.879-3.952 3.879-6.726v-598.365z" />
<glyph unicode="&#xe92a;" glyph-name="shape-43" horiz-adv-x="1378" d="M1355.77 525.655c3.385-1.684 5.526-5.155 5.48-8.934l-1.713-137.423c-0.047-3.69-2.164-7.032-5.467-8.676l-663.511-329.811c-2.767-1.373-6.022-1.355-8.785 0.028l-659.567 329.783c-3.375 1.688-5.5 5.161-5.453 8.934l1.7 137.409c0.047 3.684 2.158 7.042 5.453 8.69l661.729 330.558c2.211 0.519 4.561 0.269 6.636-0.762l663.497-329.797zM37.968 500.933l-1.441-115.448 640.014-320.022 1.414 111.669-639.987 323.801zM687.907 835.639l-637.687-318.838 637.687-322.645 641.469 322.645-641.469 318.838zM697.659 177.038l-1.428-111.384 643.698 319.925 1.414 115.204-643.684-323.745zM1087.084 525.668c3.326-1.648 5.447-5.031 5.48-8.743 0.028-3.712-2.034-7.136-5.331-8.84l-396.552-204.164c-2.838-1.457-6.211-1.455-9.043 0.014l-392.608 204.164c-3.283 1.707-5.331 5.112-5.303 8.812 0.030 3.698 2.131 7.073 5.439 8.73l394.756 197.092c2.208 0.52 4.549 0.25 6.623-0.776l396.538-196.289zM315.25 516.693l113.122-58.839 247.964 127.809v111.559l-361.086-180.529zM686.249 568.625l-236.473-121.895 236.432-122.941 241.26 124.205-241.219 120.631zM696.027 697.277v-111.533l253.131-126.584 111.709 57.533-364.839 180.584z" />
<glyph unicode="&#xe92b;" glyph-name="shape-44" d="M241.658 401.475v-381.846l687.116 393.212v386.518l-687.116-397.885zM95.312 198.898c0-0.154-0.012-0.307-0.019-0.461-1.37-28.625 20.795-107.055 126.673-177.751v381.192c-25.982 17.258-59.542 42.303-87.962 74.25-14.792 16.628-28.34 35.295-38.692 55.847v-333.078zM917.177 815.418c-141.212 62.306-306.046 77.878-440.672 66.539-99.552-8.391-183.615-39.614-247.001-79.385-63.595-39.902-105.681-87.947-122.346-129.443-6.995-17.416-10.719-34.052-11.846-49.885v-20.807c3.050-43.252 25.041-81.349 53.404-113.231 26.609-29.911 58.302-53.701 83.461-70.461l685.001 396.672zM948.466 407.109c-0.004-3.525-1.883-6.784-4.943-8.537l-706.828-404.482c-3.123-1.784-6.973-1.729-10.037 0.154-123.242 75.766-152.901 166.231-151.039 205.135v424.097c0 0.223 0.004 0.449 0.019 0.672 1.236 18.111 5.453 36.915 13.25 56.328l3.808 8.769c20.659 44.113 64.626 91.293 126.347 130.019 66.038 41.435 153.123 73.672 255.807 82.327 142.584 12.010 319.157-5.497 468-76.25 3.432-1.632 5.616-5.104 5.616-8.904v-409.328z" />
<glyph unicode="&#xe92c;" glyph-name="shape-45" horiz-adv-x="1142" d="M571.010 928.923c3.519 0 6.78-1.876 8.539-4.923l186.52-323.192c2.621-4.543 1.229-10.344-3.172-13.194l-114.635-74.037h162.462c3.517 0 6.778-1.877 8.539-4.923l115.365-199.885c2.621-4.543 1.211-10.344-3.192-13.192l-114.635-74.039 163.787-0.096c2.999-0.402 5.673-2.166 7.213-4.827l134.461-232.982c1.757-3.044 1.757-6.8 0-9.846-1.759-3.044-5.004-4.921-8.519-4.923h-1085.443c-3.517 0-6.76 1.879-8.519 4.923-1.757 3.046-1.758 6.802 0 9.846l134.461 232.982 1.385 1.865c0.533 0.561 1.134 1.059 1.788 1.481l114.635 74.039h-56.097c-3.517 0-6.778 1.877-8.539 4.923-1.755 3.044-1.757 6.802 0 9.846l115.365 199.885c0.782 1.353 1.881 2.499 3.194 3.346l114.615 74.039h-56.097c-3.515 0-6.76 1.879-8.519 4.923s-1.759 6.8 0 9.846l186.52 323.192 0.731 1.077c1.847 2.4 4.712 3.844 7.788 3.846zM45.337-11.443h1051.347l-123.097 213.289h-805.135l-123.115-213.289zM196.145 221.538h584.385l112.173 72.462h-584.367l-112.191-72.462zM232.992 313.693h676.057l-103.999 180.192h-468.059l-103.999-180.192zM364.684 513.577h247.288l112.193 72.462h-247.29l-112.191-72.462zM401.548 605.731h338.944l-169.482 293.653-169.462-293.653z" />
<glyph unicode="&#xe92d;" glyph-name="shape-46" d="M850.385 452.462c1.729-3.027 1.727-6.745 0-9.769l-0.020-0.020v-0.020l-0.020-0.037c-0.020-0.035-0.061-0.075-0.095-0.136-0.071-0.12-0.16-0.299-0.289-0.518-0.26-0.443-0.652-1.081-1.154-1.904-1.002-1.648-2.483-4.049-4.46-7.097-3.96-6.101-9.901-14.828-17.867-25.5-15.929-21.341-40.015-50.465-72.789-81.788-65.546-62.645-165.969-134.227-305.325-169.826-111.86-28.574-194.932-22.485-252.52 3.192 87.595-89.878 195.777-127.904 301.501-127.904 228.661 0 414.188 186.553 414.192 416.807 0 230.256-185.529 416.826-414.192 416.826-123.034 0-229.522-48.816-306.616-131 57.717 27.603 142.416 34.97 257.635 5.539 139.355-35.602 239.779-107.183 305.325-169.828 32.772-31.321 56.86-60.448 72.789-81.788 7.968-10.671 13.907-19.419 17.867-25.519 1.973-3.042 3.458-5.429 4.46-7.075 0.5-0.823 0.894-1.463 1.154-1.904 0.128-0.219 0.219-0.4 0.289-0.52 0.033-0.061 0.075-0.118 0.095-0.154l0.020-0.039v-0.018c-0.067-0.045-0.681-0.39-6.018-3.442l6.038 3.442zM823.828 457.423c-3.428 5.071-7.773 11.323-13.117 18.481-15.38 20.604-38.756 48.878-70.615 79.327-63.728 60.908-161.268 130.428-296.596 165-168.885 43.142-262.773 3.889-303.558-52.46l-3.769-5.5-0.058-0.096c-23.038-34.521-25.695-76.105-18.904-115.096 6.297-36.153 20.609-68.974 32.654-89.655h673.962zM150.038 437.73c-12.994-23.554-28.058-60.209-33.692-98.922-6.046-41.549-1.103-83.712 26.404-115.155 0.119-0.136 0.235-0.28 0.346-0.423 42.234-54.010 135.643-90.396 300.404-48.307 135.328 34.572 232.867 104.074 296.596 164.98 31.86 30.45 55.235 58.722 70.615 79.328 5.346 7.162 9.687 13.426 13.117 18.499h-673.789zM497.347 11.443c-133.957 0-271.648 58.427-369.77 199.672-32.522 37.496-37.147 86.292-30.712 130.519 6.049 41.57 22.085 80.565 36.038 105.809-13.082 22.445-28.322 57.488-35.077 96.27-7.279 41.797-4.963 89.145 21.904 129.402h0.019c80.153 129.94 215.281 211.347 377.597 211.347 239.653-0.001 433.885-195.501 433.885-436.519-0.004-241.016-194.233-436.5-433.885-436.5z" />
<glyph unicode="&#xe92e;" glyph-name="shape-47" d="M455.237 946.457c2.696 1.492 5.973 1.655 8.826 0.365l476.327-215.558c1.861-1.461 3.155-3.562 3.596-5.941l-9.673-1.788 9.673 1.768 0.020-0.039c0.004-0.022-0.006-0.061 0-0.095 0.014-0.077 0.035-0.179 0.057-0.309 0.047-0.27 0.132-0.654 0.213-1.154 0.163-1.004 0.37-2.479 0.634-4.384 0.526-3.808 1.219-9.381 1.845-16.577 1.256-14.393 2.314-35.298 1.577-61.578-1.455-51.956-9.966-124.961-37.827-210.345 36.165-118.638 40.647-201.005 38.020-228.636-0.301-3.167-2.111-6.002-4.866-7.595l-425.403-246.057c-3.046-1.76-6.8-1.757-9.846 0l-427.943 247.018c-2.83 1.634-4.67 4.569-4.904 7.828-0.233 3.257 1.166 6.422 3.731 8.442 44.881 35.304 98.647 99.81 114.808 178.135 15.964 77.379-4.376 170.13-110.962 264.019-2.222 1.961-3.447 4.827-3.327 7.788 0.121 2.964 1.585 5.707 3.962 7.481l371.462 277.212zM570.872 441.63l0.018-0.020c-150.335-117.449-323.058-184.113-462.922-239.191l405.096-233.828c1.028 0.668 2.229 1.43 3.558 2.308 5.534 3.657 13.609 9.131 23.692 16.366 20.185 14.484 48.408 36.009 80.423 64.057 64.081 56.141 143.11 138.226 203.461 242.251 26.764 46.137 52.992 99.039 66.674 140.442 27.957 84.602 36.342 156.79 37.768 207.712 0.713 25.458-0.303 45.6-1.499 59.307-0.142 1.615-0.319 3.141-0.463 4.576l-355.807-263.981zM899.084 399.61c-15.067-37.24-36.409-78.966-57.846-115.923-60.17-103.712-138.301-185.787-202.463-242.672l290.481 168.019c1.274 26.695-3.243 94.094-30.173 190.576zM135.506 630.13c77.321-85.236 93.151-170.155 77.884-244.155-12.749-61.789-47.012-114.911-82.999-153.537 129.887 51.263 280.982 113.231 415.307 214.691l-410.192 183.001zM108.987 663.534l454.578-202.827 351.423 260.75-453.77 205.019-352.231-262.942z" />
<glyph unicode="&#xe92f;" glyph-name="shape-48" horiz-adv-x="859" d="M492.58 954.307c25.709-4.862 126.305-17.805 200.275-62.597 93.572-56.665 104.164-137.991 102.241-167.403l0.484-365.112c0.033-61.040 0.025-116.132-0.048-156.195-0.036-20.027-0.089-36.312-0.162-47.708-0.036-5.691-0.083-10.187-0.129-13.324-0.023-1.562-0.053-2.828-0.081-3.743-0.013-0.448-0.028-0.864-0.048-1.209-0.010-0.167-0.013-0.382-0.033-0.596-0.003-0.041-0.061-0.685-0.241-1.404-0.667-2.671-2.357-6.659-3.822-9.92-1.579-3.513-3.318-7.082-4.436-9.322-1.523-3.052-4.765-4.869-8.161-4.549l-186.726 17.565c-4.24 0.401-7.482 3.967-7.483 8.225v16.29c-70.070-20.343-135.188-23.042-175.548-22.016v-71.855c-0.002-0.808-0.121-1.612-0.355-2.387l-32.839-108.387c-1.118-3.681-4.629-6.103-8.468-5.838h-0.112c-0.063 0.005-0.147 0.023-0.259 0.031-0.231 0.018-0.58 0.045-1.016 0.081-0.872 0.073-2.152 0.178-3.79 0.339-3.283 0.324-8.043 0.839-14.016 1.63-11.949 1.582-28.779 4.263-48.387 8.645-39.125 8.744-89.737 24.371-134.726 51.951-43.316 26.555-68.591 58.783-83.032 84.516-7.211 12.85-11.719 24.072-14.436 32.145-1.358 4.035-2.274 7.294-2.855 9.581-0.29 1.143-0.491 2.056-0.629 2.694-0.068 0.312-0.125 0.56-0.161 0.742-0.018 0.091-0.037 0.168-0.048 0.225-0.005 0.030 0.004 0.063 0 0.081l-0.016 0.017v0.017c-0.091 0.494-0.129 0.998-0.129 1.5v592.984l-0.032 8.048c0.172 10.063 1.061 25.671 3.71 42.001l0.403 1.548c1.283 3.467 4.79 5.731 8.597 5.34l188.227-19.322c2.436-0.251 4.631-1.581 5.999-3.614 1.368-2.031 1.766-4.567 1.082-6.919-3.668-12.597-2.707-33.495 14.177-53.453 15.889-18.78 46.564-37.48 102.677-46.693l11.579-1.726 1.468-0.322c3.321-1.082 5.665-4.188 5.693-7.791l1.371-189.356c11.257-0.89 24.936-1.070 39.759 0.050v380.338c0 0.854 0.142 1.702 0.403 2.516l34.677 108.065 0.596 1.419c1.681 3.107 5.224 4.855 8.806 4.177zM79.903 137.807c0.102-0.461 0.264-1.135 0.484-2 0.485-1.911 1.285-4.76 2.5-8.372 2.433-7.231 6.534-17.499 13.178-29.338 13.272-23.649 36.69-53.648 77.257-78.516 42.835-26.259 91.496-41.384 129.695-49.92 19.053-4.258 35.409-6.856 46.967-8.387 3.591-0.476 6.724-0.794 9.323-1.080v182.176c0.002 2.388 1.037 4.659 2.839 6.227s4.198 2.281 6.564 1.951h0.017c0.015-0.002 0.045-0.010 0.081-0.015 0.079-0.012 0.215-0.026 0.386-0.050 0.344-0.045 0.867-0.111 1.564-0.193 1.404-0.167 3.513-0.401 6.258-0.661 5.495-0.522 13.558-1.148 23.727-1.564 40.050-1.643 112.351 0.015 189.242 24.193 38.147 12.017 77.343 29.49 114.273 54.807 25.517 17.497 42.344 39.047 52.791 56.274 5.217 8.603 8.813 16.097 11.097 21.387 1.14 2.641 1.952 4.729 2.468 6.129 0.258 0.699 0.449 1.225 0.565 1.564 0.058 0.17 0.089 0.299 0.112 0.372 0.012 0.033 0.030 0.053 0.033 0.064l0.565 1.387c1.401 2.652 4.155 4.335 7.16 4.387-0.002 13.142 0.025 26.702 0.017 40.565-0.021 39.872-0.127 82.285-0.177 124.708-2.040-3.672-4.529-7.713-7.597-12.080-15.745-22.401-46.447-53.743-106.435-91.678-50.985-32.241-126.381-43.054-187.79-46.097-30.926-1.533-58.745-1.115-78.823-0.307-10.040 0.405-18.166 0.907-23.79 1.306-2.813 0.201-5.008 0.375-6.501 0.5-0.745 0.063-1.32 0.111-1.709 0.145-0.195 0.018-0.348 0.040-0.451 0.048-0.050 0.005-0.088 0.015-0.114 0.017h-0.048c-4.235 0.408-7.469 3.972-7.469 8.227v188.677c-3.42 0.327-7.893 0.78-13.241 1.452-13.044 1.638-31.358 4.463-52.468 9.161-42.095 9.368-95.917 26.35-141.419 56.934-37.142 24.969-58.68 51.572-71.129 74.856v-537.258zM375.823 6.806l16.323 53.871v71.307c-6.643 0.375-12.141 0.786-16.323 1.178v-126.355zM770.935 274.419c-11.335-18.604-29.572-41.938-57.323-60.968h-0.015c-36.62-25.103-75.266-42.666-112.871-55.015v-13.887l170.209-16.017v145.887zM597.42 520.161c-29.181-53.684-90.629-73.064-140.21-78.161-19.106-1.964-36.919-1.845-51.225-0.644l-28.55-89.935c5.359-0.367 12.653-0.824 21.468-1.178 19.724-0.794 47.026-1.212 77.34 0.289 61.075 3.026 132.691 13.798 179.79 43.581 58.756 37.156 87.623 67.098 101.758 87.21 6.448 9.173 9.783 16.305 11.55 21.129l-171.92 17.709zM374.677 539.032v-141.741l17.195 54.178-1.032 141.048-16.163-53.484zM464.614 459.532c46.6 6.397 96.793 25.945 119.79 71.404v196.258c0 0.203 0.017 0.411 0.031 0.613 1.46 19.643-2.581 34.953-9.887 47.114-7.356 12.243-18.344 21.823-31.533 29.402-23.598 13.562-53.189 20.136-78.402 24.194v-368.985zM600.92 536.403l170.404-17.532v180.452l-170.404 18.662v-181.582zM82.242 769.693c-2.285-17.494-2.561-33.006-2.371-39.064 1.297-19.425 11.469-70.379 80.387-116.71 43.082-28.956 94.647-45.376 135.79-54.533 20.508-4.563 38.286-7.3 50.919-8.886 5.558-0.699 10.119-1.154 13.467-1.468l27.597 91.242c-60.021 9.452-95.574 29.604-115.096 52.678-17.155 20.277-21.377 42.181-19.339 59.161l-171.355 17.58zM467.177 844.823c25.76-4.134 57.839-11.106 84.065-26.177 14.922-8.576 28.279-19.959 37.452-35.226 8.119-13.517 12.703-29.676 12.531-48.855l173.066-18.952 4.339 10.516c1.392 25.387-8.004 99.171-94.34 151.452-65.503 39.665-153.288 53.357-187.597 59.258l-29.516-92.016z" />
<glyph unicode="&#xe930;" glyph-name="shape-49" d="M689.020 535.767v-553.752l313.249 177.634v180.596l-150.693-90.884c-3.039-1.833-6.831-1.896-9.923-0.154-3.090 1.745-5.018 5.027-5.018 8.576v186.809c0 3.497 1.863 6.735 4.884 8.499l160.75 93.962v172.828l-313.249-184.115zM21.846 159.766l147.211-80.173v556.692l-147.211 83.885v-560.404zM188.75 636.323v-556.674l145.923 80.096v197.943c0.002 3.673 2.048 7.038 5.307 8.73l151.597 78.655-151.981 87.788c-3.042 1.759-4.919 5.006-4.923 8.519v178.712l-145.923-83.769zM364.731 357.092l137.48-81.961v153.269l-137.48-71.308zM856.328 275.247l135.712 81.845-135.712 71.231v-153.076zM31.692 737.189l147.173-83.828 161.924 92.847c2.808 1.148 6.028 0.939 8.692-0.616l329.653-192.788 313.653 184.365-146.345 87.384-162.269-95.943c-3.066-1.812-6.863-1.824-9.943-0.037l-329.712 191.115-312.826-182.499zM521.903 257.784c0-3.539-1.904-6.808-4.98-8.556s-6.863-1.713-9.903 0.096l-152.655 91.038v-180.712l314.963-177.692v553.769l-314.963 184.212v-172.847l162.615-93.98c3.042-1.76 4.923-5.006 4.923-8.519v-186.809zM1021.962 541.381c-0.004-3.495-1.867-6.735-4.886-8.499l-150.307-87.828 149.904-78.653c3.239-1.699 5.287-5.055 5.289-8.712v-203.788c0-3.545-1.918-6.81-5-8.558l-332.942-188.808c-3.005-1.703-6.686-1.715-9.693-0.020l-329.886 186.116-160.807-88.269c-2.939-1.613-6.498-1.621-9.442-0.020l-166.904 90.904c-3.166 1.725-5.135 5.049-5.135 8.655v583.192c0.003 3.497 1.862 6.737 4.885 8.499l333.692 194.578c2.814 1.171 6.051 0.976 8.732-0.577l329.653-191.096 163.558 96.577c2.859 1.203 6.156 1.001 8.865-0.615l165.614-98.923c2.974-1.776 4.805-4.98 4.809-8.442v-195.712z" />
<glyph unicode="&#xe931;" glyph-name="shape-50" d="M938.711 804.308c2.617 0.002 5.134-1.033 6.981-2.885 1.851-1.854 2.875-4.381 2.865-7l-1.479-424.269v-199.481c-0.002-5.435-4.413-9.842-9.846-9.846h-244.462c-5.419 0-9.823 4.387-9.846 9.807l-0.77 166.424-418.576-244c-3.060-1.784-6.841-1.8-9.905-0.020l-173.23 100.693c-3.032 1.762-4.904 5.012-4.904 8.519v199.347c0 3.517 1.876 6.778 4.923 8.537l111.173 64.193v319.231c0 5.432 4.395 9.838 9.827 9.846l737.248 0.904zM95.231 207.923l153.538-89.232v176.713l-153.538 89.116v-176.597zM268.461 295.385v-176.693l413.596 241.117-0.037 10.327v0.096l0.807 164.192-414.366-239.039zM701.789 354.192l0.788-173.672h224.809v179.826h-225.636l0.039-6.154zM211.326 783.731v-121.27l306.154-1.172c4.443-0.020 8.316-3.017 9.462-7.308 1.144-4.299-0.727-8.83-4.576-11.059l-417.347-241.325 153.616-89.135 429.212 247.578c3.052 1.76 6.817 1.749 9.866-0.020 3.046-1.77 4.919-5.033 4.903-8.558l-0.847-171.424h225.654l1.404 404.577-717.501-0.885zM211.326 485.711l269.655 156.040-269.655 1.018v-157.058z" />
<glyph unicode="&#xe932;" glyph-name="shape-51" horiz-adv-x="859" d="M104.129 232.838l540.355-271.097v642.098l-540.355 267.903v-638.903zM661 604.193v-641.921l92.21 50.163v644.725l-92.21-52.967zM206.855 731.015c2.433 1.505 5.473 1.647 8.032 0.37l329.5-164.322c2.803-1.397 4.582-4.273 4.582-7.403v-446.968c-0.002-2.875-1.5-5.549-3.952-7.049s-5.52-1.617-8.080-0.306l-329.5 168.709c-2.758 1.412-4.499 4.256-4.501 7.355v442.598c0.002 2.859 1.488 5.511 3.919 7.016zM229.194 281.466l303.258-155.258v107.5l-208.016 97.275-95.242-49.517zM332.516 345.45l199.936-93.516v302.63l-199.936 99.71v-308.824zM219.451 295.014l96.548 50.178v317.323l-96.548 48.145v-415.645zM113.806 885.37l538.645-267.032 91.565 52.597-532.695 267.242-97.516-52.807zM769.726 7.531c0-3.024-1.65-5.812-4.306-7.259l-108.742-59.161c-2.375-1.29-5.231-1.339-7.645-0.129l-556.871 279.354c-2.791 1.402-4.548 4.264-4.548 7.388v657.307c0 3.031 1.657 5.831 4.323 7.274l115.322 62.435c2.373 1.285 5.234 1.339 7.645 0.129l550.274-276.080c2.788-1.401 4.545-4.251 4.549-7.371v-663.887z" />
<glyph unicode="&#xe933;" glyph-name="shape-52" horiz-adv-x="1103" d="M752.248 950.985c3.511 0.483 7.020-0.954 9.173-3.769l324.269-424.962c2.111-2.765 2.613-6.447 1.308-9.673l-198.825-490.673c-1.331-3.285-4.334-5.595-7.847-6.057l-528.23-69.136c-3.444-0.447-6.875 0.961-9.019 3.692l-326.827 417.29c-2.179 2.781-2.699 6.516-1.365 9.787l202.808 496.116c1.504 2.627 4.165 4.427 7.211 4.846l527.346 72.538zM366.306-31.535l461.019 60.308-395.114 101.847-65.904-162.154zM348.095-24.054l65.885 162.097-351.058 201.98 285.174-364.077zM448.228 146.812l420.886-108.481-2.404 432.441-418.481-323.96zM886.345 482.099l2.249-406.672 173.828 428.981-176.077-22.309zM433.806 160.524l423.097 327.576-494.135 201.232 71.038-528.807zM39.96 375.946l373.961-215.154-70.248 522.866-303.712-307.712zM51.902 416.061l285.847 289.597-108.942 143.365-176.905-432.962zM883.69 501.6l175.963 22.307-283.29 371.25 107.327-393.557zM372.941 706.426l488.769-199.038-114.231 418.847-374.538-219.808zM244.267 861.254l109.058-143.501 352.731 207.020-461.789-63.519z" />
<glyph unicode="&#xe934;" glyph-name="shape-53" horiz-adv-x="986" d="M592.79 952.148c2.647-0.021 5.164-1.15 6.944-3.111l373.629-411.962c2.232-2.463 3.013-5.911 2.056-9.093l-174.296-577.409c-0.802-2.657-2.734-4.83-5.277-5.943s-5.448-1.064-7.945 0.148l-773.981 375.666c-2.705 1.316-4.617 3.84-5.167 6.796-0.548 2.96 0.334 6.006 2.389 8.203l576.129 614.982c1.604 1.124 3.529 1.738 5.52 1.722zM33.789 331.888l745.166-361.684-191.907 952.556-553.259-590.871zM793.883-7.796l161.832 536.128-346.926 382.5 185.094-918.629z" />
<glyph unicode="&#xe935;" glyph-name="shape-54" horiz-adv-x="1063" d="M208.057 256.937l483.692-276.616 0.79 355.308-155.54-90.136c-2.66-1.54-5.872-1.741-8.672-0.595l-1.174 0.577-319.096 183.211v-171.75zM541.905 441.976v-170.866l155.575 90.136c3.050 1.766 6.816 1.762 9.866 0 3.048-1.764 4.931-5.018 4.923-8.539l-0.827-372.289 315.52 181.443v169.826l-153.155-86.25c-3.044-1.713-6.768-1.684-9.787 0.077-3.021 1.766-4.884 5.002-4.886 8.501v371.866l-317.229-183.904zM878.826 270.86l138.327 77.905-138.327 82.404v-160.309zM36.308 550.014l485.905-278.981v170.923l-485.905 279.404v-171.347zM46.192 738.379l485.827-279.345 317.288 183.922-483.403 279.136-319.712-183.712zM720.134 740.283l139-80.25v159.462l-139-79.212zM552.769 836.937l147.616-85.251 148.846 84.827-148.866 86.558-147.596-86.135zM878.826 454.111l163.019-97.134c2.981-1.776 4.807-4.994 4.809-8.462v-192.366c0-3.523-1.888-6.782-4.943-8.539l-335.23-192.788c-3.031-1.741-6.754-1.733-9.789 0l-503.365 287.827c-3.061 1.755-4.96 5.010-4.961 8.539v188.808l-166.808 95.77c-3.056 1.755-4.94 5.014-4.942 8.539v194.076c0.003 3.523 1.888 6.784 4.942 8.539l340.655 195.635c2.796 1.145 5.994 0.958 8.653-0.577l162.251-93.692 163.46 95.269c2.816 1.172 6.051 0.979 8.732-0.577l168.615-98.058c3.031-1.762 4.903-4.995 4.903-8.5v-382.308z" />
<glyph unicode="&#xe936;" glyph-name="shape-55" d="M936.732 744.415c3.47 0.713 7.070-0.506 9.403-3.172 2.328-2.662 3.046-6.37 1.885-9.712l-199.999-574.326c-1.006-2.885-3.293-5.152-6.193-6.114-2.899-0.965-6.083-0.516-8.615 1.191l-174.633 117.961-183.424-118.077c-2.794-1.798-6.311-2.066-9.346-0.711-3.029 1.355-5.165 4.147-5.693 7.424l-41.48 259.192-238.058 132.923c-3.588 2.007-5.551 6.032-4.923 10.096s3.72 7.306 7.75 8.135l853.327 175.191zM466.597 356.145l267.018-180.364 184.865 530.846-451.883-350.482zM390.808 185.665l150.020 96.557-86.481 58.423-63.539-154.98zM338.462 418.8l35.539-222.155 66.712 162.674c0.654 1.591 1.719 2.983 3.078 4.039l407.115 315.768-512.443-260.326zM113.327 555.28l214.5-119.806 541.192 274.922-755.692-155.116z" />
</font>
</defs>
</svg>
