<svg width="264" height="238" viewBox="0 0 264 238" fill="none" xmlns="http://www.w3.org/2000/svg">
<path d="M29.829 179.655C22.0425 156.301 5.05788 123.14 23.9583 101.815C30.9994 93.979 42.8307 92.3992 51.9829 97.2513C64.6164 103.928 71.9196 115.656 80.3234 127.15C90.3221 141.515 99.0108 156.766 107.82 171.951C118.416 189.115 127.951 210.479 146.847 219.665C165.391 228.47 184.011 213.658 185.469 194.771C183.572 159.296 164.193 99.2834 159.269 65.5548C158.225 55.4377 166.182 46.034 177.054 46.6424C186.796 47.3343 195.065 54.4611 200.995 61.4098C216.779 80.6801 239.039 114.479 257.017 129.667C268.963 140.614 283.909 136.16 293.976 125.453C313.286 103.756 308.85 57.1737 305.464 29.9411C302.191 8.15531 296.27 -13.4745 289.005 -34.7566C274.153 -75.3746 255.704 -108.123 227.949 -105.587C216.764 -104.598 203.951 -96.9505 198.765 -86.0607C187.82 -65.4968 198.407 -43.8892 212.997 -27.8688C225.604 -13.3061 240.466 -1.34534 257.762 7.15492C312.126 34.3445 355.537 5.86687 334.663 -55.2341" stroke="url(#paint0_linear_3710_4422)" stroke-width="30" stroke-miterlimit="10" stroke-linecap="round"/>
<defs>
<linearGradient id="paint0_linear_3710_4422" x1="283.804" y1="139.088" x2="100.596" y2="0.403288" gradientUnits="userSpaceOnUse">
<stop stop-color="#83E7EE"/>
<stop offset="1" stop-color="#F9EB57"/>
</linearGradient>
</defs>
</svg>
