<svg width="205" height="225" viewBox="0 0 205 225" fill="none" xmlns="http://www.w3.org/2000/svg">
<path d="M175.917 60.4167C183.209 83.9305 199.489 117.443 180.142 138.363C172.937 146.049 161.075 147.379 152.027 142.334C139.538 135.392 132.484 123.513 124.325 111.843C114.632 97.2701 106.267 81.8395 97.781 66.4715C87.5498 49.0879 78.4689 27.5265 59.771 17.944C41.417 8.74906 22.4885 23.1639 20.6316 42.0163C21.7781 77.5231 39.8854 137.932 44.096 171.757C44.9253 181.894 36.7712 191.127 25.9149 190.289C16.1896 189.392 8.07287 182.092 2.29102 175.02C-13.0819 155.42 -34.623 121.158 -52.2765 105.594C-63.9882 94.3965 -79.0249 98.5344 -89.316 109.026C-109.08 130.31 -105.629 176.976 -102.819 204.274C-100.008 226.124 -94.5447 247.874 -87.7308 269.305C-73.7404 310.228 -55.9875 343.358 -28.1853 341.409C-16.9821 340.657 -4.01044 333.282 1.40481 322.504C12.7823 302.176 2.65348 280.35 -11.5943 264.025C-23.8913 249.199 -38.4968 236.927 -55.6096 228.063C-109.387 199.731 -153.39 227.285 -133.812 288.813" stroke="url(#paint0_linear_3710_4423)" stroke-width="30" stroke-miterlimit="10" stroke-linecap="round"/>
<defs>
<linearGradient id="paint0_linear_3710_4423" x1="-78.8581" y1="95.6095" x2="101.379" y2="238.134" gradientUnits="userSpaceOnUse">
<stop stop-color="#83E7EE"/>
<stop offset="1" stop-color="#F9EB57"/>
</linearGradient>
</defs>
</svg>
