<svg width="332" height="176" viewBox="0 0 332 176" fill="none" xmlns="http://www.w3.org/2000/svg">
<rect y="0.5" width="332" height="175" fill="#1F252F"/>
<path d="M26.408 38.716C25.412 38.716 24.524 38.506 23.744 38.086C22.976 37.666 22.37 37.09 21.926 36.358C21.494 35.626 21.278 34.792 21.278 33.856V25.09H23.402V33.766C23.402 34.354 23.528 34.876 23.78 35.332C24.044 35.788 24.398 36.142 24.842 36.394C25.298 36.646 25.82 36.772 26.408 36.772C27.008 36.772 27.53 36.646 27.974 36.394C28.43 36.142 28.784 35.788 29.036 35.332C29.3 34.876 29.432 34.354 29.432 33.766V25.09H31.538V33.856C31.538 34.792 31.322 35.626 30.89 36.358C30.458 37.09 29.852 37.666 29.072 38.086C28.304 38.506 27.416 38.716 26.408 38.716ZM37.6025 38.716C36.6065 38.716 35.7305 38.47 34.9745 37.978C34.2305 37.486 33.7085 36.826 33.4085 35.998L34.9745 35.26C35.2385 35.812 35.5985 36.25 36.0545 36.574C36.5225 36.898 37.0385 37.06 37.6025 37.06C38.0825 37.06 38.4725 36.952 38.7725 36.736C39.0725 36.52 39.2225 36.226 39.2225 35.854C39.2225 35.614 39.1565 35.422 39.0245 35.278C38.8925 35.122 38.7245 34.996 38.5205 34.9C38.3285 34.804 38.1305 34.732 37.9265 34.684L36.3965 34.252C35.5565 34.012 34.9265 33.652 34.5065 33.172C34.0985 32.68 33.8945 32.11 33.8945 31.462C33.8945 30.874 34.0445 30.364 34.3445 29.932C34.6445 29.488 35.0585 29.146 35.5865 28.906C36.1145 28.666 36.7085 28.546 37.3685 28.546C38.2565 28.546 39.0485 28.768 39.7445 29.212C40.4405 29.644 40.9325 30.25 41.2205 31.03L39.6545 31.768C39.4625 31.3 39.1565 30.928 38.7365 30.652C38.3285 30.376 37.8665 30.238 37.3505 30.238C36.9065 30.238 36.5525 30.346 36.2885 30.562C36.0245 30.766 35.8925 31.036 35.8925 31.372C35.8925 31.6 35.9525 31.792 36.0725 31.948C36.1925 32.092 36.3485 32.212 36.5405 32.308C36.7325 32.392 36.9305 32.464 37.1345 32.524L38.7185 32.992C39.5225 33.22 40.1405 33.58 40.5725 34.072C41.0045 34.552 41.2205 35.128 41.2205 35.8C41.2205 36.376 41.0645 36.886 40.7525 37.33C40.4525 37.762 40.0325 38.104 39.4925 38.356C38.9525 38.596 38.3225 38.716 37.6025 38.716ZM47.7854 38.716C46.8134 38.716 45.9494 38.494 45.1934 38.05C44.4494 37.594 43.8674 36.982 43.4474 36.214C43.0274 35.434 42.8174 34.564 42.8174 33.604C42.8174 32.62 43.0274 31.75 43.4474 30.994C43.8794 30.238 44.4554 29.644 45.1754 29.212C45.8954 28.768 46.7114 28.546 47.6234 28.546C48.3554 28.546 49.0094 28.672 49.5854 28.924C50.1614 29.176 50.6474 29.524 51.0434 29.968C51.4394 30.4 51.7394 30.898 51.9434 31.462C52.1594 32.026 52.2674 32.626 52.2674 33.262C52.2674 33.418 52.2614 33.58 52.2494 33.748C52.2374 33.916 52.2134 34.072 52.1774 34.216H44.4194V32.596H51.0254L50.0534 33.334C50.1734 32.746 50.1314 32.224 49.9274 31.768C49.7354 31.3 49.4354 30.934 49.0274 30.67C48.6314 30.394 48.1634 30.256 47.6234 30.256C47.0834 30.256 46.6034 30.394 46.1834 30.67C45.7634 30.934 45.4394 31.318 45.2114 31.822C44.9834 32.314 44.8934 32.914 44.9414 33.622C44.8814 34.282 44.9714 34.858 45.2114 35.35C45.4634 35.842 45.8114 36.226 46.2554 36.502C46.7114 36.778 47.2274 36.916 47.8034 36.916C48.3914 36.916 48.8894 36.784 49.2974 36.52C49.7174 36.256 50.0474 35.914 50.2874 35.494L51.9434 36.304C51.7514 36.76 51.4514 37.174 51.0434 37.546C50.6474 37.906 50.1674 38.194 49.6034 38.41C49.0514 38.614 48.4454 38.716 47.7854 38.716ZM54.2525 38.5V28.762H56.1965V30.724L56.0165 30.436C56.2325 29.8 56.5805 29.344 57.0605 29.068C57.5405 28.78 58.1165 28.636 58.7885 28.636H59.3825V30.49H58.5365C57.8645 30.49 57.3185 30.7 56.8985 31.12C56.4905 31.528 56.2865 32.116 56.2865 32.884V38.5H54.2525ZM66.8364 38.716C66.1764 38.716 65.5944 38.602 65.0904 38.374C64.5984 38.134 64.2144 37.81 63.9384 37.402C63.6624 36.982 63.5244 36.49 63.5244 35.926C63.5244 35.398 63.6384 34.924 63.8664 34.504C64.1064 34.084 64.4724 33.73 64.9644 33.442C65.4564 33.154 66.0744 32.95 66.8184 32.83L70.2024 32.272V33.874L67.2144 34.396C66.6744 34.492 66.2784 34.666 66.0264 34.918C65.7744 35.158 65.6484 35.47 65.6484 35.854C65.6484 36.226 65.7864 36.532 66.0624 36.772C66.3504 37 66.7164 37.114 67.1604 37.114C67.7124 37.114 68.1924 36.994 68.6004 36.754C69.0204 36.514 69.3444 36.196 69.5724 35.8C69.8004 35.392 69.9144 34.942 69.9144 34.45V31.948C69.9144 31.468 69.7344 31.078 69.3744 30.778C69.0264 30.466 68.5584 30.31 67.9704 30.31C67.4304 30.31 66.9564 30.454 66.5484 30.742C66.1524 31.018 65.8584 31.378 65.6664 31.822L63.9744 30.976C64.1544 30.496 64.4484 30.076 64.8564 29.716C65.2644 29.344 65.7384 29.056 66.2784 28.852C66.8304 28.648 67.4124 28.546 68.0244 28.546C68.7924 28.546 69.4704 28.69 70.0584 28.978C70.6584 29.266 71.1204 29.668 71.4444 30.184C71.7804 30.688 71.9484 31.276 71.9484 31.948V38.5H70.0044V36.736L70.4184 36.79C70.1904 37.186 69.8964 37.528 69.5364 37.816C69.1884 38.104 68.7864 38.326 68.3304 38.482C67.8864 38.638 67.3884 38.716 66.8364 38.716ZM78.9527 38.716C77.9807 38.716 77.1167 38.494 76.3607 38.05C75.6167 37.594 75.0227 36.982 74.5787 36.214C74.1467 35.446 73.9307 34.576 73.9307 33.604C73.9307 32.644 74.1467 31.78 74.5787 31.012C75.0107 30.244 75.6047 29.644 76.3607 29.212C77.1167 28.768 77.9807 28.546 78.9527 28.546C79.6127 28.546 80.2307 28.666 80.8067 28.906C81.3827 29.134 81.8807 29.452 82.3007 29.86C82.7327 30.268 83.0507 30.742 83.2547 31.282L81.4727 32.11C81.2687 31.606 80.9387 31.204 80.4827 30.904C80.0387 30.592 79.5287 30.436 78.9527 30.436C78.4007 30.436 77.9027 30.574 77.4587 30.85C77.0267 31.114 76.6847 31.492 76.4327 31.984C76.1807 32.464 76.0547 33.01 76.0547 33.622C76.0547 34.234 76.1807 34.786 76.4327 35.278C76.6847 35.758 77.0267 36.136 77.4587 36.412C77.9027 36.688 78.4007 36.826 78.9527 36.826C79.5407 36.826 80.0507 36.676 80.4827 36.376C80.9267 36.064 81.2567 35.65 81.4727 35.134L83.2547 35.98C83.0627 36.496 82.7507 36.964 82.3187 37.384C81.8987 37.792 81.4007 38.116 80.8247 38.356C80.2487 38.596 79.6247 38.716 78.9527 38.716ZM89.4547 38.608C88.4347 38.608 87.6427 38.32 87.0787 37.744C86.5147 37.168 86.2327 36.358 86.2327 35.314V30.598H84.5227V28.762H84.7927C85.2487 28.762 85.6027 28.63 85.8547 28.366C86.1067 28.102 86.2327 27.742 86.2327 27.286V26.53H88.2667V28.762H90.4807V30.598H88.2667V35.224C88.2667 35.56 88.3207 35.848 88.4287 36.088C88.5367 36.316 88.7107 36.496 88.9507 36.628C89.1907 36.748 89.5027 36.808 89.8867 36.808C89.9827 36.808 90.0907 36.802 90.2107 36.79C90.3307 36.778 90.4447 36.766 90.5527 36.754V38.5C90.3847 38.524 90.1987 38.548 89.9947 38.572C89.7907 38.596 89.6107 38.608 89.4547 38.608ZM92.5376 38.5V28.762H94.5716V38.5H92.5376ZM92.5376 27.43V25.09H94.5716V27.43H92.5376ZM99.7757 38.5L95.9597 28.762H98.1737L101.108 36.7H100.298L103.232 28.762H105.464L101.63 38.5H99.7757ZM106.846 38.5V28.762H108.88V38.5H106.846ZM106.846 27.43V25.09H108.88V27.43H106.846ZM115.47 38.608C114.45 38.608 113.658 38.32 113.094 37.744C112.53 37.168 112.248 36.358 112.248 35.314V30.598H110.538V28.762H110.808C111.264 28.762 111.618 28.63 111.87 28.366C112.122 28.102 112.248 27.742 112.248 27.286V26.53H114.282V28.762H116.496V30.598H114.282V35.224C114.282 35.56 114.336 35.848 114.444 36.088C114.552 36.316 114.726 36.496 114.966 36.628C115.206 36.748 115.518 36.808 115.902 36.808C115.998 36.808 116.106 36.802 116.226 36.79C116.346 36.778 116.46 36.766 116.568 36.754V38.5C116.4 38.524 116.214 38.548 116.01 38.572C115.806 38.596 115.626 38.608 115.47 38.608ZM119.417 42.478C119.177 42.478 118.937 42.454 118.697 42.406C118.469 42.37 118.259 42.31 118.067 42.226V40.48C118.211 40.516 118.385 40.546 118.589 40.57C118.793 40.606 118.991 40.624 119.183 40.624C119.747 40.624 120.161 40.498 120.425 40.246C120.701 40.006 120.947 39.628 121.163 39.112L121.811 37.636L121.775 39.346L117.563 28.762H119.741L122.855 36.88H122.117L125.213 28.762H127.409L123.107 39.562C122.879 40.138 122.591 40.642 122.243 41.074C121.907 41.518 121.505 41.86 121.037 42.1C120.581 42.352 120.041 42.478 119.417 42.478Z" fill="#FCFCFC"/>
<path d="M302.5 23.5C301.672 23.5 301 22.8284 301 22C301 21.1716 301.672 20.5 302.5 20.5C303.328 20.5 304 21.1716 304 22C304 22.8284 303.328 23.5 302.5 23.5Z" fill="#FCFCFC" fill-opacity="0.4"/>
<path d="M302.5 29.5C301.672 29.5 301 28.8284 301 28C301 27.1716 301.672 26.5 302.5 26.5C303.328 26.5 304 27.1716 304 28C304 28.8284 303.328 29.5 302.5 29.5Z" fill="#FCFCFC" fill-opacity="0.4"/>
<path d="M302.5 35.5C301.672 35.5 301 34.8284 301 34C301 33.1716 301.672 32.5 302.5 32.5C303.328 32.5 304 33.1716 304 34C304 34.8284 303.328 35.5 302.5 35.5Z" fill="#FCFCFC" fill-opacity="0.4"/>
<path d="M36.5312 135.617C35.8906 135.617 35.3438 135.441 34.8906 135.09C34.4375 134.738 34.0918 134.23 33.8535 133.566C33.6152 132.898 33.4961 132.09 33.4961 131.141C33.4961 130.195 33.6152 129.389 33.8535 128.721C34.0957 128.049 34.4434 127.537 34.8965 127.186C35.3496 126.83 35.8945 126.652 36.5312 126.652C37.168 126.652 37.7129 126.83 38.166 127.186C38.6191 127.537 38.9648 128.049 39.2031 128.721C39.4453 129.389 39.5664 130.195 39.5664 131.141C39.5664 132.09 39.4473 132.898 39.209 133.566C38.9707 134.23 38.625 134.738 38.1719 135.09C37.7227 135.441 37.1758 135.617 36.5312 135.617ZM36.5312 134.691C36.9648 134.691 37.332 134.553 37.6328 134.275C37.9336 133.994 38.1621 133.588 38.3184 133.057C38.4785 132.525 38.5586 131.887 38.5586 131.141C38.5586 130.391 38.4785 129.75 38.3184 129.219C38.1621 128.688 37.9336 128.281 37.6328 128C37.332 127.719 36.9648 127.578 36.5312 127.578C35.8828 127.578 35.3828 127.891 35.0312 128.516C34.6797 129.141 34.5039 130.016 34.5039 131.141C34.5039 131.887 34.582 132.525 34.7383 133.057C34.8984 133.588 35.1289 133.994 35.4297 134.275C35.7344 134.553 36.1016 134.691 36.5312 134.691Z" fill="#FCFCFC" fill-opacity="0.6"/>
<path d="M51.9941 154.652C51.3691 154.652 50.8281 154.553 50.3711 154.354C49.9141 154.15 49.5547 153.869 49.293 153.51C49.0352 153.146 48.8887 152.727 48.8535 152.25H49.9434C49.9746 152.578 50.0859 152.85 50.2773 153.064C50.4727 153.279 50.7207 153.439 51.0215 153.545C51.3223 153.65 51.6465 153.703 51.9941 153.703C52.3965 153.703 52.7578 153.637 53.0781 153.504C53.4023 153.371 53.6582 153.186 53.8457 152.947C54.0332 152.709 54.127 152.43 54.127 152.109C54.127 151.82 54.0449 151.586 53.8809 151.406C53.7168 151.227 53.502 151.08 53.2363 150.967C52.9746 150.854 52.6895 150.754 52.3809 150.668L51.3145 150.363C50.6309 150.168 50.0898 149.889 49.6914 149.525C49.2969 149.158 49.0996 148.68 49.0996 148.09C49.0996 147.602 49.2305 147.176 49.4922 146.812C49.7578 146.445 50.1152 146.16 50.5645 145.957C51.0176 145.754 51.5215 145.652 52.0762 145.652C52.6387 145.652 53.1387 145.754 53.5762 145.957C54.0137 146.156 54.3613 146.43 54.6191 146.777C54.877 147.121 55.0137 147.512 55.0293 147.949H53.998C53.9473 147.52 53.7402 147.186 53.377 146.947C53.0176 146.709 52.5723 146.59 52.041 146.59C51.6582 146.59 51.3223 146.652 51.0332 146.777C50.7441 146.902 50.5195 147.074 50.3594 147.293C50.1992 147.512 50.1191 147.762 50.1191 148.043C50.1191 148.352 50.2148 148.602 50.4062 148.793C50.5977 148.98 50.8242 149.127 51.0859 149.232C51.3516 149.338 51.5918 149.422 51.8066 149.484L52.6855 149.73C52.9121 149.793 53.1641 149.877 53.4414 149.982C53.7227 150.088 53.9922 150.23 54.25 150.41C54.5117 150.59 54.7266 150.82 54.8945 151.102C55.0625 151.379 55.1465 151.723 55.1465 152.133C55.1465 152.602 55.0234 153.027 54.7773 153.41C54.5312 153.789 54.1738 154.092 53.7051 154.318C53.2363 154.541 52.666 154.652 51.9941 154.652Z" fill="#FCFCFC" fill-opacity="0.6"/>
<path d="M89.6934 145.77H90.959L93.9238 153.012H94.0293L96.9941 145.77H98.3008V154.5H97.2637V147.867H97.1816L94.4336 154.5H93.4844L90.7715 147.867H90.6895V154.5H89.6934V145.77Z" fill="#FCFCFC" fill-opacity="0.6"/>
<path d="M132.225 146.707V145.77H138.775V146.707H136.033V154.5H134.979V146.707H132.225Z" fill="#FCFCFC" fill-opacity="0.6"/>
<path d="M174.941 154.5L172.562 145.77H173.629L175.457 152.883H175.539L177.402 145.77H178.598L180.449 152.883H180.543L182.359 145.77H183.438L181.047 154.5H179.957L178.035 147.551H177.965L176.043 154.5H174.941Z" fill="#FCFCFC" fill-opacity="0.6"/>
<path d="M217.225 146.707V145.77H223.775V146.707H221.033V154.5H219.979V146.707H217.225Z" fill="#FCFCFC" fill-opacity="0.6"/>
<path d="M258.033 154.5V145.77H263.271V146.707H259.088V149.754H262.873V150.691H259.088V154.5H258.033Z" fill="#FCFCFC" fill-opacity="0.6"/>
<path d="M301.494 154.652C300.869 154.652 300.328 154.553 299.871 154.354C299.414 154.15 299.055 153.869 298.793 153.51C298.535 153.146 298.389 152.727 298.354 152.25H299.443C299.475 152.578 299.586 152.85 299.777 153.064C299.973 153.279 300.221 153.439 300.521 153.545C300.822 153.65 301.146 153.703 301.494 153.703C301.896 153.703 302.258 153.637 302.578 153.504C302.902 153.371 303.158 153.186 303.346 152.947C303.533 152.709 303.627 152.43 303.627 152.109C303.627 151.82 303.545 151.586 303.381 151.406C303.217 151.227 303.002 151.08 302.736 150.967C302.475 150.854 302.189 150.754 301.881 150.668L300.814 150.363C300.131 150.168 299.59 149.889 299.191 149.525C298.797 149.158 298.6 148.68 298.6 148.09C298.6 147.602 298.73 147.176 298.992 146.812C299.258 146.445 299.615 146.16 300.064 145.957C300.518 145.754 301.021 145.652 301.576 145.652C302.139 145.652 302.639 145.754 303.076 145.957C303.514 146.156 303.861 146.43 304.119 146.777C304.377 147.121 304.514 147.512 304.529 147.949H303.498C303.447 147.52 303.24 147.186 302.877 146.947C302.518 146.709 302.072 146.59 301.541 146.59C301.158 146.59 300.822 146.652 300.533 146.777C300.244 146.902 300.02 147.074 299.859 147.293C299.699 147.512 299.619 147.762 299.619 148.043C299.619 148.352 299.715 148.602 299.906 148.793C300.098 148.98 300.324 149.127 300.586 149.232C300.852 149.338 301.092 149.422 301.307 149.484L302.186 149.73C302.412 149.793 302.664 149.877 302.941 149.982C303.223 150.088 303.492 150.23 303.75 150.41C304.012 150.59 304.227 150.82 304.395 151.102C304.562 151.379 304.646 151.723 304.646 152.133C304.646 152.602 304.523 153.027 304.277 153.41C304.031 153.789 303.674 154.092 303.205 154.318C302.736 154.541 302.166 154.652 301.494 154.652Z" fill="#FCFCFC" fill-opacity="0.6"/>
<path d="M29.7461 103.617C29.2461 103.617 28.7949 103.52 28.3926 103.324C27.9941 103.125 27.6738 102.852 27.4316 102.504C27.1895 102.156 27.0586 101.762 27.0391 101.32H28.0586C28.0977 101.711 28.2754 102.035 28.5918 102.293C28.9121 102.551 29.2969 102.68 29.7461 102.68C30.1055 102.68 30.4238 102.596 30.7012 102.428C30.9785 102.26 31.1973 102.029 31.3574 101.736C31.5176 101.443 31.5977 101.109 31.5977 100.734C31.5977 100.355 31.5137 100.016 31.3457 99.7148C31.1816 99.4141 30.9551 99.1777 30.666 99.0059C30.377 98.8301 30.0469 98.7422 29.6758 98.7422C29.4062 98.7422 29.1309 98.7852 28.8496 98.8711C28.5723 98.9531 28.3438 99.0586 28.1641 99.1875L27.168 99.0703L27.6953 94.7695H32.2305V95.707H28.5859L28.2812 98.2852H28.3281C28.5078 98.1406 28.7324 98.0234 29.002 97.9336C29.2715 97.8398 29.5547 97.793 29.8516 97.793C30.3867 97.793 30.8633 97.9199 31.2812 98.1738C31.6992 98.4277 32.0273 98.7754 32.2656 99.2168C32.5078 99.6543 32.6289 100.156 32.6289 100.723C32.6289 101.277 32.5039 101.773 32.2539 102.211C32.0039 102.648 31.6621 102.992 31.2285 103.242C30.7949 103.492 30.3008 103.617 29.7461 103.617ZM36.5312 103.617C35.8906 103.617 35.3438 103.441 34.8906 103.09C34.4375 102.738 34.0918 102.23 33.8535 101.566C33.6152 100.898 33.4961 100.09 33.4961 99.1406C33.4961 98.1953 33.6152 97.3887 33.8535 96.7207C34.0957 96.0488 34.4434 95.5371 34.8965 95.1855C35.3496 94.8301 35.8945 94.6523 36.5312 94.6523C37.168 94.6523 37.7129 94.8301 38.166 95.1855C38.6191 95.5371 38.9648 96.0488 39.2031 96.7207C39.4453 97.3887 39.5664 98.1953 39.5664 99.1406C39.5664 100.09 39.4473 100.898 39.209 101.566C38.9707 102.23 38.625 102.738 38.1719 103.09C37.7227 103.441 37.1758 103.617 36.5312 103.617ZM36.5312 102.691C36.9648 102.691 37.332 102.553 37.6328 102.275C37.9336 101.994 38.1621 101.588 38.3184 101.057C38.4785 100.525 38.5586 99.8867 38.5586 99.1406C38.5586 98.3906 38.4785 97.75 38.3184 97.2188C38.1621 96.6875 37.9336 96.2812 37.6328 96C37.332 95.7188 36.9648 95.5781 36.5312 95.5781C35.8828 95.5781 35.3828 95.8906 35.0312 96.5156C34.6797 97.1406 34.5039 98.0156 34.5039 99.1406C34.5039 99.8867 34.582 100.525 34.7383 101.057C34.8984 101.588 35.1289 101.994 35.4297 102.275C35.7344 102.553 36.1016 102.691 36.5312 102.691Z" fill="#FCFCFC" fill-opacity="0.6"/>
<path d="M25.3516 62.2695V71H24.3203V63.3828H24.2617L22.1406 64.8008V63.7227L24.3203 62.2695H25.3516ZM29.5938 71.1172C28.9531 71.1172 28.4062 70.9414 27.9531 70.5898C27.5 70.2383 27.1543 69.7305 26.916 69.0664C26.6777 68.3984 26.5586 67.5898 26.5586 66.6406C26.5586 65.6953 26.6777 64.8887 26.916 64.2207C27.1582 63.5488 27.5059 63.0371 27.959 62.6855C28.4121 62.3301 28.957 62.1523 29.5938 62.1523C30.2305 62.1523 30.7754 62.3301 31.2285 62.6855C31.6816 63.0371 32.0273 63.5488 32.2656 64.2207C32.5078 64.8887 32.6289 65.6953 32.6289 66.6406C32.6289 67.5898 32.5098 68.3984 32.2715 69.0664C32.0332 69.7305 31.6875 70.2383 31.2344 70.5898C30.7852 70.9414 30.2383 71.1172 29.5938 71.1172ZM29.5938 70.1914C30.0273 70.1914 30.3945 70.0527 30.6953 69.7754C30.9961 69.4941 31.2246 69.0879 31.3809 68.5566C31.541 68.0254 31.6211 67.3867 31.6211 66.6406C31.6211 65.8906 31.541 65.25 31.3809 64.7188C31.2246 64.1875 30.9961 63.7812 30.6953 63.5C30.3945 63.2188 30.0273 63.0781 29.5938 63.0781C28.9453 63.0781 28.4453 63.3906 28.0938 64.0156C27.7422 64.6406 27.5664 65.5156 27.5664 66.6406C27.5664 67.3867 27.6445 68.0254 27.8008 68.5566C27.9609 69.0879 28.1914 69.4941 28.4922 69.7754C28.7969 70.0527 29.1641 70.1914 29.5938 70.1914ZM36.5312 71.1172C35.8906 71.1172 35.3438 70.9414 34.8906 70.5898C34.4375 70.2383 34.0918 69.7305 33.8535 69.0664C33.6152 68.3984 33.4961 67.5898 33.4961 66.6406C33.4961 65.6953 33.6152 64.8887 33.8535 64.2207C34.0957 63.5488 34.4434 63.0371 34.8965 62.6855C35.3496 62.3301 35.8945 62.1523 36.5312 62.1523C37.168 62.1523 37.7129 62.3301 38.166 62.6855C38.6191 63.0371 38.9648 63.5488 39.2031 64.2207C39.4453 64.8887 39.5664 65.6953 39.5664 66.6406C39.5664 67.5898 39.4473 68.3984 39.209 69.0664C38.9707 69.7305 38.625 70.2383 38.1719 70.5898C37.7227 70.9414 37.1758 71.1172 36.5312 71.1172ZM36.5312 70.1914C36.9648 70.1914 37.332 70.0527 37.6328 69.7754C37.9336 69.4941 38.1621 69.0879 38.3184 68.5566C38.4785 68.0254 38.5586 67.3867 38.5586 66.6406C38.5586 65.8906 38.4785 65.25 38.3184 64.7188C38.1621 64.1875 37.9336 63.7812 37.6328 63.5C37.332 63.2188 36.9648 63.0781 36.5312 63.0781C35.8828 63.0781 35.3828 63.3906 35.0312 64.0156C34.6797 64.6406 34.5039 65.5156 34.5039 66.6406C34.5039 67.3867 34.582 68.0254 34.7383 68.5566C34.8984 69.0879 35.1289 69.4941 35.4297 69.7754C35.7344 70.0527 36.1016 70.1914 36.5312 70.1914Z" fill="#FCFCFC" fill-opacity="0.6"/>
<path d="M55 94L97.5 111.5L126 66.5L145 97.5L160 82L186.5 103.5L206 91L229.5 108.5L262 82L311.5 126" stroke="#864FFE" stroke-width="2"/>
<line x1="124.5" y1="59" x2="124.5" y2="133.327" stroke="#864FFE" stroke-linecap="round" stroke-dasharray="8 8"/>
<g filter="url(#filter0_d_245_151177)">
<mask id="path-16-inside-1_245_151177" fill="white">
<ellipse cx="125" cy="66.4294" rx="4" ry="3.9646"/>
</mask>
<ellipse cx="125" cy="66.4294" rx="4" ry="3.9646" fill="#864FFE"/>
<path d="M129 66.4294H123C123 65.2552 123.946 64.394 125 64.394V70.394V76.394C130.472 76.394 135 71.9829 135 66.4294H129ZM125 70.394V64.394C126.054 64.394 127 65.2552 127 66.4294H121H115C115 71.9829 119.528 76.394 125 76.394V70.394ZM121 66.4294H127C127 67.6037 126.054 68.4648 125 68.4648V62.4648V56.4648C119.528 56.4648 115 60.876 115 66.4294H121ZM125 62.4648V68.4648C123.946 68.4648 123 67.6037 123 66.4294H129H135C135 60.876 130.472 56.4648 125 56.4648V62.4648Z" fill="#1F252F" mask="url(#path-16-inside-1_245_151177)"/>
</g>
<defs>
<filter id="filter0_d_245_151177" x="111" y="56.4648" width="28" height="27.9297" filterUnits="userSpaceOnUse" color-interpolation-filters="sRGB">
<feFlood flood-opacity="0" result="BackgroundImageFix"/>
<feColorMatrix in="SourceAlpha" type="matrix" values="0 0 0 0 0 0 0 0 0 0 0 0 0 0 0 0 0 0 127 0" result="hardAlpha"/>
<feOffset dy="4"/>
<feGaussianBlur stdDeviation="5"/>
<feComposite in2="hardAlpha" operator="out"/>
<feColorMatrix type="matrix" values="0 0 0 0 0 0 0 0 0 0 0 0 0 0 0 0 0 0 0.12 0"/>
<feBlend mode="normal" in2="BackgroundImageFix" result="effect1_dropShadow_245_151177"/>
<feBlend mode="normal" in="SourceGraphic" in2="effect1_dropShadow_245_151177" result="shape"/>
</filter>
</defs>
</svg>
