<svg width="235" height="232" viewBox="0 0 235 232" fill="none" xmlns="http://www.w3.org/2000/svg">
<rect width="234" height="232" transform="translate(0.5)" fill="#F4F5F8"/>
<path d="M24.58 16H16.5V24H24.58V16Z" fill="#1A1A1C"/>
<path d="M32.66 16H24.58V24H32.66V16Z" fill="#1A1A1C"/>
<path d="M40.74 16H32.66V24H40.74V16Z" fill="#1A1A1C"/>
<path d="M48.82 16H40.74V24H48.82V16Z" fill="#1A1A1C"/>
<path d="M56.9 16H48.82V24H56.9V16Z" fill="#1A1A1C"/>
<path d="M64.98 16H56.9V24H64.98V16Z" fill="#1A1A1C"/>
<path d="M73.06 16H64.98V24H73.06V16Z" fill="#1A1A1C"/>
<path d="M89.22 16H81.14V24H89.22V16Z" fill="#1A1A1C"/>
<path d="M97.3 16H89.22V24H97.3V16Z" fill="#1A1A1C"/>
<path d="M129.62 16H121.54V24H129.62V16Z" fill="#1A1A1C"/>
<path d="M153.86 16H145.78V24H153.86V16Z" fill="#1A1A1C"/>
<path d="M170.02 16H161.94V24H170.02V16Z" fill="#1A1A1C"/>
<path d="M178.1 16H170.02V24H178.1V16Z" fill="#1A1A1C"/>
<path d="M186.18 16H178.1V24H186.18V16Z" fill="#1A1A1C"/>
<path d="M194.26 16H186.18V24H194.26V16Z" fill="#1A1A1C"/>
<path d="M202.34 16H194.26V24H202.34V16Z" fill="#1A1A1C"/>
<path d="M210.42 16H202.34V24H210.42V16Z" fill="#1A1A1C"/>
<path d="M218.5 16H210.42V24H218.5V16Z" fill="#1A1A1C"/>
<path d="M24.58 24H16.5V32H24.58V24Z" fill="#1A1A1C"/>
<path d="M73.06 24H64.98L64.98 32H73.06V24Z" fill="#1A1A1C"/>
<path d="M121.54 24H113.46V32H121.54V24Z" fill="#1A1A1C"/>
<path d="M129.62 24H121.54V32H129.62V24Z" fill="#1A1A1C"/>
<path d="M153.86 24H145.78V32H153.86V24Z" fill="#1A1A1C"/>
<path d="M170.02 24H161.94V32H170.02V24Z" fill="#1A1A1C"/>
<path d="M218.5 24H210.42V32H218.5V24Z" fill="#1A1A1C"/>
<path d="M24.58 32H16.5V40H24.58V32Z" fill="#1A1A1C"/>
<path d="M40.74 32H32.66V40H40.74V32Z" fill="#1A1A1C"/>
<path d="M48.82 32H40.74V40H48.82V32Z" fill="#1A1A1C"/>
<path d="M56.9 32H48.82V40H56.9V32Z" fill="#1A1A1C"/>
<path d="M73.06 32H64.98V40H73.06V32Z" fill="#1A1A1C"/>
<path d="M97.3 32H89.22V40H97.3V32Z" fill="#1A1A1C"/>
<path d="M105.38 32H97.3V40H105.38V32Z" fill="#1A1A1C"/>
<path d="M113.46 32H105.38V40H113.46V32Z" fill="#1A1A1C"/>
<path d="M121.54 32H113.46V40H121.54V32Z" fill="#1A1A1C"/>
<path d="M129.62 32H121.54V40H129.62V32Z" fill="#1A1A1C"/>
<path d="M153.86 32H145.78V40H153.86V32Z" fill="#1A1A1C"/>
<path d="M170.02 32H161.94V40H170.02V32Z" fill="#1A1A1C"/>
<path d="M186.18 32H178.1V40H186.18V32Z" fill="#1A1A1C"/>
<path d="M194.26 32H186.18V40H194.26V32Z" fill="#1A1A1C"/>
<path d="M202.34 32H194.26V40H202.34V32Z" fill="#1A1A1C"/>
<path d="M218.5 32H210.42V40H218.5V32Z" fill="#1A1A1C"/>
<path d="M24.58 40H16.5V48H24.58V40Z" fill="#1A1A1C"/>
<path d="M40.74 40H32.66V48H40.74V40Z" fill="#1A1A1C"/>
<path d="M48.82 40H40.74V48H48.82V40Z" fill="#1A1A1C"/>
<path d="M56.9 40H48.82V48H56.9V40Z" fill="#1A1A1C"/>
<path d="M73.06 40H64.98V48H73.06V40Z" fill="#1A1A1C"/>
<path d="M97.3 40H89.22V48H97.3V40Z" fill="#1A1A1C"/>
<path d="M105.38 40H97.3V48H105.38V40Z" fill="#1A1A1C"/>
<path d="M129.62 40H121.54V48H129.62V40Z" fill="#1A1A1C"/>
<path d="M170.02 40H161.94V48H170.02V40Z" fill="#1A1A1C"/>
<path d="M186.18 40H178.1V48H186.18V40Z" fill="#1A1A1C"/>
<path d="M194.26 40H186.18V48H194.26V40Z" fill="#1A1A1C"/>
<path d="M202.34 40H194.26V48H202.34V40Z" fill="#1A1A1C"/>
<path d="M218.5 40H210.42V48H218.5V40Z" fill="#1A1A1C"/>
<path d="M24.58 48H16.5V56H24.58V48Z" fill="#1A1A1C"/>
<path d="M40.74 48H32.66V56H40.74V48Z" fill="#1A1A1C"/>
<path d="M48.82 48H40.74V56H48.82V48Z" fill="#1A1A1C"/>
<path d="M56.9 48H48.82V56H56.9V48Z" fill="#1A1A1C"/>
<path d="M73.06 48H64.98V56H73.06V48Z" fill="#1A1A1C"/>
<path d="M89.22 48H81.14V56H89.22V48Z" fill="#1A1A1C"/>
<path d="M105.38 48H97.3V56H105.38V48Z" fill="#1A1A1C"/>
<path d="M113.46 48H105.38V56H113.46V48Z" fill="#1A1A1C"/>
<path d="M121.54 48H113.46V56H121.54V48Z" fill="#1A1A1C"/>
<path d="M137.7 48H129.62V56H137.7V48Z" fill="#1A1A1C"/>
<path d="M170.02 48H161.94V56H170.02V48Z" fill="#1A1A1C"/>
<path d="M186.18 48H178.1V56H186.18V48Z" fill="#1A1A1C"/>
<path d="M194.26 48H186.18V56H194.26V48Z" fill="#1A1A1C"/>
<path d="M202.34 48H194.26V56H202.34V48Z" fill="#1A1A1C"/>
<path d="M218.5 48H210.42V56H218.5V48Z" fill="#1A1A1C"/>
<path d="M24.58 56H16.5V64H24.58V56Z" fill="#1A1A1C"/>
<path d="M73.06 56H64.98V64H73.06V56Z" fill="#1A1A1C"/>
<path d="M137.7 56H129.62V64H137.7V56Z" fill="#1A1A1C"/>
<path d="M170.02 56H161.94V64H170.02V56Z" fill="#1A1A1C"/>
<path d="M218.5 56H210.42V64H218.5V56Z" fill="#1A1A1C"/>
<path d="M24.58 64H16.5V72H24.58V64Z" fill="#1A1A1C"/>
<path d="M32.66 64L24.58 64V72H32.66V64Z" fill="#1A1A1C"/>
<path d="M40.74 64H32.66V72H40.74V64Z" fill="#1A1A1C"/>
<path d="M48.82 64H40.74V72H48.82V64Z" fill="#1A1A1C"/>
<path d="M56.9 64H48.82V72H56.9V64Z" fill="#1A1A1C"/>
<path d="M64.98 64L56.9 64V72H64.98L64.98 64Z" fill="#1A1A1C"/>
<path d="M73.06 64H64.98L64.98 72H73.06V64Z" fill="#1A1A1C"/>
<path d="M89.22 64H81.14V72H89.22V64Z" fill="#1A1A1C"/>
<path d="M105.38 64H97.3V72H105.38V64Z" fill="#1A1A1C"/>
<path d="M121.54 64H113.46V72H121.54V64Z" fill="#1A1A1C"/>
<path d="M137.7 64H129.62V72H137.7V64Z" fill="#1A1A1C"/>
<path d="M153.86 64H145.78V72H153.86V64Z" fill="#1A1A1C"/>
<path d="M170.02 64H161.94V72H170.02V64Z" fill="#1A1A1C"/>
<path d="M178.1 64L170.02 64V72H178.1V64Z" fill="#1A1A1C"/>
<path d="M186.18 64H178.1V72H186.18V64Z" fill="#1A1A1C"/>
<path d="M194.26 64H186.18V72H194.26V64Z" fill="#1A1A1C"/>
<path d="M202.34 64H194.26V72H202.34V64Z" fill="#1A1A1C"/>
<path d="M210.42 64L202.34 64V72H210.42V64Z" fill="#1A1A1C"/>
<path d="M218.5 64H210.42V72H218.5V64Z" fill="#1A1A1C"/>
<path d="M89.22 72H81.14V80H89.22V72Z" fill="#1A1A1C"/>
<path d="M105.38 72H97.3V80H105.38V72Z" fill="#1A1A1C"/>
<path d="M121.54 72H113.46V80H121.54V72Z" fill="#1A1A1C"/>
<path d="M129.62 72H121.54V80H129.62V72Z" fill="#1A1A1C"/>
<path d="M145.78 72H137.7L137.7 80H145.78V72Z" fill="#1A1A1C"/>
<path d="M153.86 72H145.78V80H153.86V72Z" fill="#1A1A1C"/>
<path d="M24.58 80H16.5V88H24.58V80Z" fill="#1A1A1C"/>
<path d="M48.82 80H40.74V88H48.82V80Z" fill="#1A1A1C"/>
<path d="M56.9 80H48.82V88H56.9V80Z" fill="#1A1A1C"/>
<path d="M64.98 80H56.9V88H64.98V80Z" fill="#1A1A1C"/>
<path d="M73.06 80H64.98V88H73.06V80Z" fill="#1A1A1C"/>
<path d="M81.14 80H73.06V88H81.14V80Z" fill="#1A1A1C"/>
<path d="M89.22 80H81.14V88H89.22V80Z" fill="#1A1A1C"/>
<path d="M97.3 80H89.22V88H97.3V80Z" fill="#1A1A1C"/>
<path d="M129.62 80H121.54V88H129.62V80Z" fill="#1A1A1C"/>
<path d="M153.86 80H145.78V88H153.86V80Z" fill="#1A1A1C"/>
<path d="M161.94 80H153.86V88H161.94V80Z" fill="#1A1A1C"/>
<path d="M170.02 80H161.94V88H170.02V80Z" fill="#1A1A1C"/>
<path d="M186.18 80H178.1V88H186.18V80Z" fill="#1A1A1C"/>
<path d="M218.5 80H210.42V88H218.5V80Z" fill="#1A1A1C"/>
<path d="M32.66 88H24.58V96H32.66V88Z" fill="#1A1A1C"/>
<path d="M48.82 88H40.74V96H48.82V88Z" fill="#1A1A1C"/>
<path d="M56.9 88H48.82V96H56.9V88Z" fill="#1A1A1C"/>
<path d="M81.14 88H73.06V96H81.14V88Z" fill="#1A1A1C"/>
<path d="M89.22 88H81.14V96H89.22V88Z" fill="#1A1A1C"/>
<path d="M121.54 88H113.46V96H121.54V88Z" fill="#1A1A1C"/>
<path d="M145.78 88H137.7V96H145.78V88Z" fill="#1A1A1C"/>
<path d="M161.94 88H153.86V96H161.94V88Z" fill="#1A1A1C"/>
<path d="M170.02 88H161.94V96H170.02V88Z" fill="#1A1A1C"/>
<path d="M186.18 88H178.1V96H186.18V88Z" fill="#1A1A1C"/>
<path d="M194.26 88H186.18V96H194.26V88Z" fill="#1A1A1C"/>
<path d="M202.34 88H194.26V96H202.34V88Z" fill="#1A1A1C"/>
<path d="M210.42 88H202.34V96H210.42V88Z" fill="#1A1A1C"/>
<path d="M218.5 88H210.42V96H218.5V88Z" fill="#1A1A1C"/>
<path d="M24.58 96H16.5V104H24.58V96Z" fill="#1A1A1C"/>
<path d="M32.66 96H24.58V104H32.66V96Z" fill="#1A1A1C"/>
<path d="M48.82 96H40.74V104H48.82V96Z" fill="#1A1A1C"/>
<path d="M56.9 96H48.82V104H56.9V96Z" fill="#1A1A1C"/>
<path d="M64.98 96H56.9V104H64.98V96Z" fill="#1A1A1C"/>
<path d="M73.06 96H64.98V104H73.06V96Z" fill="#1A1A1C"/>
<path d="M81.14 96H73.06V104H81.14V96Z" fill="#1A1A1C"/>
<path d="M97.3 96H89.22V104H97.3V96Z" fill="#1A1A1C"/>
<path d="M113.46 96H105.38V104H113.46V96Z" fill="#1A1A1C"/>
<path d="M121.54 96H113.46V104H121.54V96Z" fill="#1A1A1C"/>
<path d="M137.7 96H129.62V104H137.7L137.7 96Z" fill="#1A1A1C"/>
<path d="M153.86 96H145.78V104H153.86V96Z" fill="#1A1A1C"/>
<path d="M161.94 96H153.86V104H161.94V96Z" fill="#1A1A1C"/>
<path d="M170.02 96H161.94V104H170.02V96Z" fill="#1A1A1C"/>
<path d="M178.1 96H170.02V104H178.1V96Z" fill="#1A1A1C"/>
<path d="M186.18 96H178.1V104H186.18V96Z" fill="#1A1A1C"/>
<path d="M194.26 96H186.18V104H194.26V96Z" fill="#1A1A1C"/>
<path d="M202.34 96H194.26V104H202.34V96Z" fill="#1A1A1C"/>
<path d="M210.42 96H202.34V104H210.42V96Z" fill="#1A1A1C"/>
<path d="M24.58 104H16.5V112H24.58V104Z" fill="#1A1A1C"/>
<path d="M56.9 104H48.82V112H56.9V104Z" fill="#1A1A1C"/>
<path d="M64.98 104H56.9V112H64.98V104Z" fill="#1A1A1C"/>
<path d="M81.14 104H73.06V112H81.14V104Z" fill="#1A1A1C"/>
<path d="M97.3 104H89.22V112H97.3V104Z" fill="#1A1A1C"/>
<path d="M105.38 104H97.3V112H105.38V104Z" fill="#1A1A1C"/>
<path d="M137.7 104H129.62V112H137.7V104Z" fill="#1A1A1C"/>
<path d="M145.78 104H137.7V112H145.78V104Z" fill="#1A1A1C"/>
<path d="M186.18 104H178.1V112H186.18V104Z" fill="#1A1A1C"/>
<path d="M202.34 104H194.26V112H202.34V104Z" fill="#1A1A1C"/>
<path d="M210.42 104H202.34V112H210.42V104Z" fill="#1A1A1C"/>
<path d="M24.58 112H16.5V120H24.58V112Z" fill="#1A1A1C"/>
<path d="M48.82 112H40.74V120H48.82V112Z" fill="#1A1A1C"/>
<path d="M56.9 112H48.82V120H56.9V112Z" fill="#1A1A1C"/>
<path d="M64.98 112H56.9V120H64.98V112Z" fill="#1A1A1C"/>
<path d="M73.06 112H64.98V120H73.06V112Z" fill="#1A1A1C"/>
<path d="M81.14 112H73.06V120H81.14V112Z" fill="#1A1A1C"/>
<path d="M89.22 112H81.14V120H89.22V112Z" fill="#1A1A1C"/>
<path d="M105.38 112H97.3V120H105.38V112Z" fill="#1A1A1C"/>
<path d="M113.46 112H105.38V120H113.46V112Z" fill="#1A1A1C"/>
<path d="M129.62 112H121.54V120H129.62V112Z" fill="#1A1A1C"/>
<path d="M137.7 112H129.62V120H137.7V112Z" fill="#1A1A1C"/>
<path d="M153.86 112H145.78V120H153.86V112Z" fill="#1A1A1C"/>
<path d="M178.1 112H170.02V120H178.1V112Z" fill="#1A1A1C"/>
<path d="M194.26 112H186.18V120H194.26V112Z" fill="#1A1A1C"/>
<path d="M202.34 112H194.26V120H202.34V112Z" fill="#1A1A1C"/>
<path d="M218.5 112H210.42V120H218.5V112Z" fill="#1A1A1C"/>
<path d="M24.58 120H16.5V128H24.58V120Z" fill="#1A1A1C"/>
<path d="M32.66 120H24.58V128H32.66V120Z" fill="#1A1A1C"/>
<path d="M81.14 120H73.06V128H81.14V120Z" fill="#1A1A1C"/>
<path d="M89.22 120H81.14V128H89.22V120Z" fill="#1A1A1C"/>
<path d="M97.3 120H89.22V128H97.3V120Z" fill="#1A1A1C"/>
<path d="M121.54 120H113.46V128H121.54V120Z" fill="#1A1A1C"/>
<path d="M137.7 120H129.62V128H137.7V120Z" fill="#1A1A1C"/>
<path d="M145.78 120H137.7V128H145.78V120Z" fill="#1A1A1C"/>
<path d="M153.86 120H145.78V128H153.86V120Z" fill="#1A1A1C"/>
<path d="M161.94 120H153.86V128H161.94V120Z" fill="#1A1A1C"/>
<path d="M186.18 120H178.1V128H186.18V120Z" fill="#1A1A1C"/>
<path d="M202.34 120H194.26V128H202.34V120Z" fill="#1A1A1C"/>
<path d="M210.42 120H202.34V128H210.42V120Z" fill="#1A1A1C"/>
<path d="M218.5 120H210.42V128H218.5V120Z" fill="#1A1A1C"/>
<path d="M24.58 128H16.5V136H24.58V128Z" fill="#1A1A1C"/>
<path d="M32.66 128H24.58V136H32.66V128Z" fill="#1A1A1C"/>
<path d="M40.74 128H32.66V136H40.74V128Z" fill="#1A1A1C"/>
<path d="M73.06 128H64.98V136H73.06V128Z" fill="#1A1A1C"/>
<path d="M97.3 128H89.22V136H97.3V128Z" fill="#1A1A1C"/>
<path d="M113.46 128H105.38V136H113.46V128Z" fill="#1A1A1C"/>
<path d="M121.54 128H113.46V136H121.54V128Z" fill="#1A1A1C"/>
<path d="M137.7 128H129.62V136H137.7V128Z" fill="#1A1A1C"/>
<path d="M161.94 128H153.86V136H161.94V128Z" fill="#1A1A1C"/>
<path d="M178.1 128H170.02V136H178.1V128Z" fill="#1A1A1C"/>
<path d="M186.18 128H178.1V136H186.18V128Z" fill="#1A1A1C"/>
<path d="M202.34 128H194.26V136H202.34V128Z" fill="#1A1A1C"/>
<path d="M32.66 136H24.58V144H32.66V136Z" fill="#1A1A1C"/>
<path d="M81.14 136L73.06 136V144H81.14V136Z" fill="#1A1A1C"/>
<path d="M121.54 136H113.46V144H121.54V136Z" fill="#1A1A1C"/>
<path d="M137.7 136H129.62V144H137.7V136Z" fill="#1A1A1C"/>
<path d="M145.78 136L137.7 136V144H145.78V136Z" fill="#1A1A1C"/>
<path d="M170.02 136H161.94V144H170.02V136Z" fill="#1A1A1C"/>
<path d="M186.18 136H178.1V144H186.18V136Z" fill="#1A1A1C"/>
<path d="M210.42 136L202.34 136V144H210.42V136Z" fill="#1A1A1C"/>
<path d="M24.58 144H16.5V152H24.58V144Z" fill="#1A1A1C"/>
<path d="M64.98 144H56.9V152H64.98V144Z" fill="#1A1A1C"/>
<path d="M73.06 144H64.98V152H73.06V144Z" fill="#1A1A1C"/>
<path d="M81.14 144H73.06V152H81.14V144Z" fill="#1A1A1C"/>
<path d="M97.3 144H89.22V152H97.3V144Z" fill="#1A1A1C"/>
<path d="M105.38 144H97.3V152H105.38V144Z" fill="#1A1A1C"/>
<path d="M121.54 144H113.46V152H121.54V144Z" fill="#1A1A1C"/>
<path d="M145.78 144H137.7L137.7 152H145.78V144Z" fill="#1A1A1C"/>
<path d="M153.86 144H145.78V152H153.86V144Z" fill="#1A1A1C"/>
<path d="M161.94 144H153.86V152H161.94V144Z" fill="#1A1A1C"/>
<path d="M170.02 144H161.94V152H170.02V144Z" fill="#1A1A1C"/>
<path d="M178.1 144H170.02V152H178.1V144Z" fill="#1A1A1C"/>
<path d="M186.18 144H178.1V152H186.18V144Z" fill="#1A1A1C"/>
<path d="M194.26 144H186.18V152H194.26V144Z" fill="#1A1A1C"/>
<path d="M210.42 144H202.34V152H210.42V144Z" fill="#1A1A1C"/>
<path d="M89.22 152H81.14V160H89.22V152Z" fill="#1A1A1C"/>
<path d="M105.38 152H97.3V160H105.38V152Z" fill="#1A1A1C"/>
<path d="M121.54 152H113.46V160H121.54V152Z" fill="#1A1A1C"/>
<path d="M145.78 152H137.7V160H145.78V152Z" fill="#1A1A1C"/>
<path d="M153.86 152H145.78V160H153.86V152Z" fill="#1A1A1C"/>
<path d="M186.18 152H178.1V160H186.18V152Z" fill="#1A1A1C"/>
<path d="M194.26 152H186.18V160H194.26V152Z" fill="#1A1A1C"/>
<path d="M202.34 152H194.26V160H202.34V152Z" fill="#1A1A1C"/>
<path d="M24.58 160H16.5V168H24.58V160Z" fill="#1A1A1C"/>
<path d="M32.66 160H24.58V168H32.66V160Z" fill="#1A1A1C"/>
<path d="M40.74 160H32.66V168H40.74V160Z" fill="#1A1A1C"/>
<path d="M48.82 160H40.74V168H48.82V160Z" fill="#1A1A1C"/>
<path d="M56.9 160H48.82V168H56.9V160Z" fill="#1A1A1C"/>
<path d="M64.98 160H56.9V168H64.98V160Z" fill="#1A1A1C"/>
<path d="M73.06 160H64.98V168H73.06V160Z" fill="#1A1A1C"/>
<path d="M89.22 160H81.14V168H89.22V160Z" fill="#1A1A1C"/>
<path d="M121.54 160H113.46V168H121.54V160Z" fill="#1A1A1C"/>
<path d="M145.78 160H137.7V168H145.78V160Z" fill="#1A1A1C"/>
<path d="M153.86 160H145.78V168H153.86V160Z" fill="#1A1A1C"/>
<path d="M170.02 160H161.94V168H170.02V160Z" fill="#1A1A1C"/>
<path d="M186.18 160H178.1V168H186.18V160Z" fill="#1A1A1C"/>
<path d="M194.26 160H186.18V168H194.26V160Z" fill="#1A1A1C"/>
<path d="M202.34 160H194.26V168H202.34V160Z" fill="#1A1A1C"/>
<path d="M218.5 160H210.42V168H218.5V160Z" fill="#1A1A1C"/>
<path d="M24.58 168H16.5V176H24.58V168Z" fill="#1A1A1C"/>
<path d="M73.06 168H64.98L64.98 176H73.06V168Z" fill="#1A1A1C"/>
<path d="M89.22 168H81.14V176H89.22V168Z" fill="#1A1A1C"/>
<path d="M105.38 168H97.3V176H105.38V168Z" fill="#1A1A1C"/>
<path d="M137.7 168H129.62V176H137.7L137.7 168Z" fill="#1A1A1C"/>
<path d="M153.86 168H145.78V176H153.86V168Z" fill="#1A1A1C"/>
<path d="M186.18 168H178.1V176H186.18V168Z" fill="#1A1A1C"/>
<path d="M202.34 168H194.26V176H202.34V168Z" fill="#1A1A1C"/>
<path d="M24.58 176H16.5V184H24.58V176Z" fill="#1A1A1C"/>
<path d="M40.74 176H32.66V184H40.74V176Z" fill="#1A1A1C"/>
<path d="M48.82 176H40.74V184H48.82V176Z" fill="#1A1A1C"/>
<path d="M56.9 176H48.82V184H56.9V176Z" fill="#1A1A1C"/>
<path d="M73.06 176H64.98V184H73.06V176Z" fill="#1A1A1C"/>
<path d="M89.22 176H81.14V184H89.22V176Z" fill="#1A1A1C"/>
<path d="M97.3 176H89.22V184H97.3V176Z" fill="#1A1A1C"/>
<path d="M105.38 176H97.3V184H105.38V176Z" fill="#1A1A1C"/>
<path d="M129.62 176H121.54V184H129.62V176Z" fill="#1A1A1C"/>
<path d="M137.7 176H129.62V184H137.7V176Z" fill="#1A1A1C"/>
<path d="M153.86 176H145.78V184H153.86V176Z" fill="#1A1A1C"/>
<path d="M161.94 176H153.86V184H161.94V176Z" fill="#1A1A1C"/>
<path d="M170.02 176H161.94V184H170.02V176Z" fill="#1A1A1C"/>
<path d="M178.1 176H170.02V184H178.1V176Z" fill="#1A1A1C"/>
<path d="M186.18 176H178.1V184H186.18V176Z" fill="#1A1A1C"/>
<path d="M218.5 176H210.42V184H218.5V176Z" fill="#1A1A1C"/>
<path d="M24.58 184H16.5V192H24.58V184Z" fill="#1A1A1C"/>
<path d="M40.74 184H32.66V192H40.74V184Z" fill="#1A1A1C"/>
<path d="M48.82 184H40.74V192H48.82V184Z" fill="#1A1A1C"/>
<path d="M56.9 184H48.82V192H56.9V184Z" fill="#1A1A1C"/>
<path d="M73.06 184H64.98V192H73.06V184Z" fill="#1A1A1C"/>
<path d="M89.22 184H81.14V192H89.22V184Z" fill="#1A1A1C"/>
<path d="M121.54 184H113.46V192H121.54V184Z" fill="#1A1A1C"/>
<path d="M153.86 184H145.78V192H153.86V184Z" fill="#1A1A1C"/>
<path d="M161.94 184H153.86V192H161.94V184Z" fill="#1A1A1C"/>
<path d="M194.26 184H186.18V192H194.26V184Z" fill="#1A1A1C"/>
<path d="M24.58 192H16.5V200H24.58V192Z" fill="#1A1A1C"/>
<path d="M40.74 192H32.66V200H40.74V192Z" fill="#1A1A1C"/>
<path d="M48.82 192H40.74V200H48.82V192Z" fill="#1A1A1C"/>
<path d="M56.9 192H48.82V200H56.9V192Z" fill="#1A1A1C"/>
<path d="M73.06 192H64.98V200H73.06V192Z" fill="#1A1A1C"/>
<path d="M113.46 192H105.38V200H113.46V192Z" fill="#1A1A1C"/>
<path d="M121.54 192H113.46V200H121.54V192Z" fill="#1A1A1C"/>
<path d="M137.7 192H129.62V200H137.7V192Z" fill="#1A1A1C"/>
<path d="M145.78 192H137.7V200H145.78V192Z" fill="#1A1A1C"/>
<path d="M153.86 192H145.78V200H153.86V192Z" fill="#1A1A1C"/>
<path d="M178.1 192H170.02V200H178.1V192Z" fill="#1A1A1C"/>
<path d="M186.18 192H178.1V200H186.18V192Z" fill="#1A1A1C"/>
<path d="M202.34 192H194.26V200H202.34V192Z" fill="#1A1A1C"/>
<path d="M210.42 192H202.34V200H210.42V192Z" fill="#1A1A1C"/>
<path d="M218.5 192H210.42V200H218.5V192Z" fill="#1A1A1C"/>
<path d="M24.58 200H16.5V208H24.58V200Z" fill="#1A1A1C"/>
<path d="M73.06 200H64.98V208H73.06V200Z" fill="#1A1A1C"/>
<path d="M97.3 200H89.22V208H97.3V200Z" fill="#1A1A1C"/>
<path d="M105.38 200H97.3V208H105.38V200Z" fill="#1A1A1C"/>
<path d="M113.46 200H105.38V208H113.46V200Z" fill="#1A1A1C"/>
<path d="M129.62 200H121.54V208H129.62V200Z" fill="#1A1A1C"/>
<path d="M137.7 200H129.62V208H137.7V200Z" fill="#1A1A1C"/>
<path d="M161.94 200H153.86V208H161.94V200Z" fill="#1A1A1C"/>
<path d="M170.02 200H161.94V208H170.02V200Z" fill="#1A1A1C"/>
<path d="M178.1 200H170.02V208H178.1V200Z" fill="#1A1A1C"/>
<path d="M186.18 200H178.1V208H186.18V200Z" fill="#1A1A1C"/>
<path d="M202.34 200H194.26V208H202.34V200Z" fill="#1A1A1C"/>
<path d="M210.42 200H202.34V208H210.42V200Z" fill="#1A1A1C"/>
<path d="M218.5 200H210.42V208H218.5V200Z" fill="#1A1A1C"/>
<path d="M24.58 208H16.5V216H24.58V208Z" fill="#1A1A1C"/>
<path d="M32.66 208H24.58V216H32.66V208Z" fill="#1A1A1C"/>
<path d="M40.74 208H32.66V216H40.74V208Z" fill="#1A1A1C"/>
<path d="M48.82 208H40.74V216H48.82V208Z" fill="#1A1A1C"/>
<path d="M56.9 208H48.82V216H56.9V208Z" fill="#1A1A1C"/>
<path d="M64.98 208H56.9V216H64.98L64.98 208Z" fill="#1A1A1C"/>
<path d="M73.06 208H64.98L64.98 216H73.06V208Z" fill="#1A1A1C"/>
<path d="M89.22 208H81.14V216H89.22V208Z" fill="#1A1A1C"/>
<path d="M113.46 208H105.38V216H113.46V208Z" fill="#1A1A1C"/>
<path d="M121.54 208H113.46V216H121.54V208Z" fill="#1A1A1C"/>
<path d="M153.86 208H145.78V216H153.86V208Z" fill="#1A1A1C"/>
<path d="M194.26 208H186.18V216H194.26V208Z" fill="#1A1A1C"/>
<path d="M218.5 208H210.42V216H218.5V208Z" fill="#1A1A1C"/>
</svg>
