<svg width="252" height="96" viewBox="0 0 252 96" fill="none" xmlns="http://www.w3.org/2000/svg">
<path d="M11.2969 1.26904L240.297 1.26904C246.096 1.26904 250.797 5.97005 250.797 11.769V84.769C250.797 90.568 246.096 95.269 240.297 95.269H11.2969C5.49789 95.269 0.796875 90.568 0.796875 84.769L0.796875 11.769C0.796875 6.15117 5.20882 1.56379 10.7568 1.28271L11.2969 1.26904Z" fill="white"/>
<path d="M11.2969 1.26904L240.297 1.26904C246.096 1.26904 250.797 5.97005 250.797 11.769V84.769C250.797 90.568 246.096 95.269 240.297 95.269H11.2969C5.49789 95.269 0.796875 90.568 0.796875 84.769L0.796875 11.769C0.796875 6.15117 5.20882 1.56379 10.7568 1.28271L11.2969 1.26904Z" stroke="#DFE4EB"/>
<path d="M25.9854 37.769H24.3516L28.0156 27.5835H29.793L33.4502 37.769H31.8232L28.9385 29.436H28.8564L25.9854 37.769ZM26.2588 33.7837H31.543V35.0688H26.2588V33.7837ZM35.6855 27.5835V37.769H34.209V27.5835H35.6855ZM37.1074 37.769V30.1265H38.584V37.769H37.1074ZM37.8525 28.9507C37.5928 28.9507 37.3717 28.8641 37.1895 28.6909C37.0072 28.5177 36.916 28.3104 36.916 28.0688C36.916 27.8228 37.0072 27.6131 37.1895 27.4399C37.3717 27.2668 37.5928 27.1802 37.8525 27.1802C38.1077 27.1802 38.3265 27.2668 38.5088 27.4399C38.6956 27.6131 38.7891 27.8228 38.7891 28.0688C38.7891 28.3104 38.6956 28.5177 38.5088 28.6909C38.3265 28.8641 38.1077 28.9507 37.8525 28.9507ZM43.1914 40.7905C42.2799 40.7905 41.5622 40.6196 41.0381 40.2778C40.514 39.936 40.1517 39.5304 39.9512 39.061L41.2227 38.5347C41.3138 38.6805 41.4346 38.8354 41.585 38.9995C41.7399 39.1636 41.9473 39.3026 42.207 39.4165C42.4668 39.5304 42.8018 39.5874 43.2119 39.5874C43.7725 39.5874 44.2373 39.4507 44.6064 39.1772C44.9756 38.9084 45.1602 38.4754 45.1602 37.8784V36.3813H45.0576C44.9756 36.5409 44.8503 36.7209 44.6816 36.9214C44.513 37.1174 44.2829 37.2882 43.9912 37.4341C43.6995 37.5799 43.319 37.6528 42.8496 37.6528C42.248 37.6528 41.7057 37.5116 41.2227 37.229C40.7441 36.9419 40.3613 36.5226 40.0742 35.9712C39.7917 35.4152 39.6504 34.7316 39.6504 33.9204C39.6504 33.1092 39.7894 32.4142 40.0674 31.8354C40.3499 31.2521 40.7327 30.8055 41.2158 30.4956C41.6989 30.1857 42.248 30.0308 42.8633 30.0308C43.3372 30.0308 43.7201 30.1105 44.0117 30.27C44.3079 30.425 44.5381 30.6073 44.7021 30.8169C44.8662 31.0265 44.9938 31.2111 45.085 31.3706H45.1943V30.1265H46.6367V37.9399C46.6367 38.5962 46.484 39.134 46.1787 39.5532C45.8779 39.9725 45.4678 40.2824 44.9482 40.4829C44.4287 40.688 43.8431 40.7905 43.1914 40.7905ZM43.1777 36.4155C43.8203 36.4155 44.3125 36.1945 44.6543 35.7524C45.0007 35.3058 45.1738 34.6883 45.1738 33.8999C45.1738 33.3849 45.0986 32.9338 44.9482 32.5464C44.7979 32.1545 44.5745 31.8491 44.2783 31.6304C43.9821 31.4071 43.6152 31.2954 43.1777 31.2954C42.7311 31.2954 42.3574 31.4116 42.0566 31.644C41.7604 31.8719 41.5371 32.1841 41.3867 32.5806C41.2363 32.9725 41.1611 33.4123 41.1611 33.8999C41.1611 34.3966 41.2363 34.8364 41.3867 35.2192C41.5371 35.5975 41.7627 35.8914 42.0635 36.1011C42.3688 36.3107 42.7402 36.4155 43.1777 36.4155ZM49.5352 33.2368V37.769H48.0586V30.1265H49.4941V31.3843H49.5967C49.7699 30.9696 50.041 30.6414 50.4102 30.3999C50.7793 30.1538 51.2533 30.0308 51.832 30.0308C52.3516 30.0308 52.805 30.1401 53.1924 30.3589C53.5843 30.5731 53.8874 30.8944 54.1016 31.3228C54.3203 31.7511 54.4297 32.2821 54.4297 32.9155V37.769H52.9531V33.0933C52.9531 32.5418 52.8073 32.1089 52.5156 31.7944C52.224 31.4754 51.8275 31.3159 51.3262 31.3159C50.9844 31.3159 50.6768 31.3934 50.4033 31.5483C50.1344 31.6987 49.9225 31.9152 49.7676 32.1978C49.6126 32.4803 49.5352 32.8267 49.5352 33.2368Z" fill="#1A1A1C" fill-opacity="0.8"/>
<g clip-path="url(#clip0_3495_21342)">
<rect x="12.2969" y="52.769" width="35.1667" height="31" rx="5" fill="#EAECEB"/>
<path d="M24.7266 63.1123V73.4248" stroke="#1A1A1C" stroke-linecap="round" stroke-linejoin="round"/>
<path d="M32.6953 64.0503H27.0703C26.8114 64.0503 26.6016 64.2602 26.6016 64.519V66.8628C26.6016 67.1217 26.8114 67.3315 27.0703 67.3315H32.6953C32.9542 67.3315 33.1641 67.1217 33.1641 66.8628V64.519C33.1641 64.2602 32.9542 64.0503 32.6953 64.0503Z" stroke="#1A1A1C" stroke-linecap="round" stroke-linejoin="round"/>
<path d="M35.0391 69.2065H27.0703C26.8114 69.2065 26.6016 69.4164 26.6016 69.6753V72.019C26.6016 72.2779 26.8114 72.4878 27.0703 72.4878H35.0391C35.2979 72.4878 35.5078 72.2779 35.5078 72.019V69.6753C35.5078 69.4164 35.2979 69.2065 35.0391 69.2065Z" stroke="#1A1A1C" stroke-linecap="round" stroke-linejoin="round"/>
<rect x="49.4609" y="52.769" width="35.1667" height="31" rx="5" fill="#EAECEB"/>
<path d="M67.0469 62.644V64.0503" stroke="#1A1A1C" stroke-linecap="round" stroke-linejoin="round"/>
<path d="M67.0469 72.4878V73.894" stroke="#1A1A1C" stroke-linecap="round" stroke-linejoin="round"/>
<path d="M67.0469 67.3315V69.2065" stroke="#1A1A1C" stroke-linecap="round" stroke-linejoin="round"/>
<path d="M70.3281 64.0503H63.7656C63.5067 64.0503 63.2969 64.2602 63.2969 64.519V66.8628C63.2969 67.1217 63.5067 67.3315 63.7656 67.3315H70.3281C70.587 67.3315 70.7969 67.1217 70.7969 66.8628V64.519C70.7969 64.2602 70.587 64.0503 70.3281 64.0503Z" stroke="#1A1A1C" stroke-linecap="round" stroke-linejoin="round"/>
<path d="M71.7344 69.2065H62.3594C62.1005 69.2065 61.8906 69.4164 61.8906 69.6753V72.019C61.8906 72.2779 62.1005 72.4878 62.3594 72.4878H71.7344C71.9933 72.4878 72.2031 72.2779 72.2031 72.019V69.6753C72.2031 69.4164 71.9933 69.2065 71.7344 69.2065Z" stroke="#1A1A1C" stroke-linecap="round" stroke-linejoin="round"/>
<rect x="86.6328" y="52.769" width="35.1667" height="31" rx="5" fill="#EAECEB"/>
<path d="M109.375 63.1128V73.4253" stroke="#1A1A1C" stroke-linecap="round" stroke-linejoin="round"/>
<path d="M101.406 67.3315H107.031C107.29 67.3315 107.5 67.1217 107.5 66.8628V64.519C107.5 64.2602 107.29 64.0503 107.031 64.0503H101.406C101.147 64.0503 100.938 64.2602 100.938 64.519V66.8628C100.938 67.1217 101.147 67.3315 101.406 67.3315Z" stroke="#1A1A1C" stroke-linecap="round" stroke-linejoin="round"/>
<path d="M107.031 69.2065H99.0625C98.8036 69.2065 98.5938 69.4164 98.5938 69.6753V72.019C98.5938 72.2779 98.8036 72.4878 99.0625 72.4878H107.031C107.29 72.4878 107.5 72.2779 107.5 72.019V69.6753C107.5 69.4164 107.29 69.2065 107.031 69.2065Z" stroke="#1A1A1C" stroke-linecap="round" stroke-linejoin="round"/>
</g>
<g clip-path="url(#clip1_3495_21342)">
<rect x="129.797" y="52.769" width="35.1667" height="31" rx="5" fill="#EAECEB"/>
<path d="M152.539 63.1128H142.227" stroke="#1A1A1C" stroke-linecap="round" stroke-linejoin="round"/>
<path d="M151.602 71.0815V65.4565C151.602 65.1977 151.392 64.9878 151.133 64.9878H148.789C148.53 64.9878 148.32 65.1977 148.32 65.4565V71.0815C148.32 71.3404 148.53 71.5503 148.789 71.5503H151.133C151.392 71.5503 151.602 71.3404 151.602 71.0815Z" stroke="#1A1A1C" stroke-linecap="round" stroke-linejoin="round"/>
<path d="M145.977 64.9878H143.633C143.374 64.9878 143.164 65.1977 143.164 65.4565V73.4253C143.164 73.6842 143.374 73.894 143.633 73.894H145.977C146.235 73.894 146.445 73.6842 146.445 73.4253V65.4565C146.445 65.1977 146.235 64.9878 145.977 64.9878Z" stroke="#1A1A1C" stroke-linecap="round" stroke-linejoin="round"/>
<rect x="166.961" y="52.769" width="35.1667" height="31" rx="5" fill="#EAECEB"/>
<path d="M190.172 68.269H188.766" stroke="#1A1A1C" stroke-linecap="round" stroke-linejoin="round"/>
<path d="M180.328 68.269H178.922" stroke="#1A1A1C" stroke-linecap="round" stroke-linejoin="round"/>
<path d="M185.484 68.269H183.609" stroke="#1A1A1C" stroke-linecap="round" stroke-linejoin="round"/>
<path d="M188.766 71.5503V64.9878C188.766 64.7289 188.556 64.519 188.297 64.519H185.953C185.694 64.519 185.484 64.7289 185.484 64.9878V71.5503C185.484 71.8092 185.694 72.019 185.953 72.019H188.297C188.556 72.019 188.766 71.8092 188.766 71.5503Z" stroke="#1A1A1C" stroke-linecap="round" stroke-linejoin="round"/>
<path d="M183.141 63.1128H180.797C180.538 63.1128 180.328 63.3227 180.328 63.5815V72.9565C180.328 73.2154 180.538 73.4253 180.797 73.4253H183.141C183.4 73.4253 183.609 73.2154 183.609 72.9565V63.5815C183.609 63.3227 183.4 63.1128 183.141 63.1128Z" stroke="#1A1A1C" stroke-linecap="round" stroke-linejoin="round"/>
<rect x="204.133" y="52.769" width="35.1667" height="31" rx="5" fill="#EAECEB"/>
<path d="M226.875 73.4258H216.562" stroke="#1A1A1C" stroke-linecap="round" stroke-linejoin="round"/>
<path d="M222.656 65.4565V71.0815C222.656 71.3404 222.866 71.5503 223.125 71.5503H225.469C225.728 71.5503 225.938 71.3404 225.938 71.0815V65.4565C225.938 65.1977 225.728 64.9878 225.469 64.9878H223.125C222.866 64.9878 222.656 65.1977 222.656 65.4565Z" stroke="#1A1A1C" stroke-linecap="round" stroke-linejoin="round"/>
<path d="M220.312 62.644H217.969C217.71 62.644 217.5 62.8539 217.5 63.1128V71.0815C217.5 71.3404 217.71 71.5503 217.969 71.5503H220.312C220.571 71.5503 220.781 71.3404 220.781 71.0815V63.1128C220.781 62.8539 220.571 62.644 220.312 62.644Z" stroke="#1A1A1C" stroke-linecap="round" stroke-linejoin="round"/>
</g>
<defs>
<clipPath id="clip0_3495_21342">
<rect x="12.2969" y="52.769" width="109.5" height="31" rx="4" fill="white"/>
</clipPath>
<clipPath id="clip1_3495_21342">
<rect x="129.797" y="52.769" width="109.5" height="31" rx="4" fill="white"/>
</clipPath>
</defs>
</svg>
