<svg width="273" height="413" viewBox="0 0 273 413" fill="none" xmlns="http://www.w3.org/2000/svg">
<rect width="272.5" height="412" transform="translate(0 0.911133)" fill="white"/>
<path d="M25.0039 37.0479C24.138 37.0479 23.3656 36.8359 22.6865 36.4121C22.0075 35.9883 21.4743 35.3867 21.0869 34.6074C20.6995 33.8236 20.5059 32.8962 20.5059 31.8252C20.5059 30.7497 20.6995 29.82 21.0869 29.0361C21.4743 28.2523 22.0075 27.6484 22.6865 27.2246C23.3656 26.8008 24.138 26.5889 25.0039 26.5889C25.5143 26.5889 25.9951 26.6641 26.4463 26.8145C26.902 26.9648 27.3122 27.1836 27.6768 27.4707C28.0413 27.7533 28.3444 28.1019 28.5859 28.5166C28.832 28.9268 29.0007 29.3916 29.0918 29.9111H27.8613C27.7884 29.5557 27.6608 29.2435 27.4785 28.9746C27.3008 28.7057 27.082 28.4801 26.8223 28.2979C26.5671 28.111 26.2845 27.972 25.9746 27.8809C25.6647 27.7852 25.3411 27.7373 25.0039 27.7373C24.3887 27.7373 23.8304 27.8945 23.3291 28.209C22.8278 28.5189 22.429 28.9792 22.1328 29.5898C21.8411 30.196 21.6953 30.9411 21.6953 31.8252C21.6953 32.7048 21.8411 33.4476 22.1328 34.0537C22.429 34.6598 22.8278 35.1201 23.3291 35.4346C23.8304 35.7445 24.3887 35.8994 25.0039 35.8994C25.3411 35.8994 25.6647 35.8538 25.9746 35.7627C26.2845 35.667 26.5671 35.528 26.8223 35.3457C27.082 35.1589 27.3008 34.931 27.4785 34.6621C27.6608 34.3932 27.7884 34.0811 27.8613 33.7256H29.0918C29.0007 34.2497 28.832 34.7168 28.5859 35.127C28.3444 35.5371 28.0413 35.8857 27.6768 36.1729C27.3122 36.4554 26.902 36.6719 26.4463 36.8223C25.9951 36.9727 25.5143 37.0479 25.0039 37.0479ZM33.3711 37.0752C32.6829 37.0752 32.0791 36.9111 31.5596 36.583C31.04 36.2549 30.6344 35.7946 30.3428 35.2021C30.0557 34.6097 29.9121 33.9215 29.9121 33.1377C29.9121 32.3402 30.0557 31.6452 30.3428 31.0527C30.6344 30.4557 31.04 29.9932 31.5596 29.665C32.0791 29.3369 32.6829 29.1729 33.3711 29.1729C34.0638 29.1729 34.6699 29.3369 35.1895 29.665C35.709 29.9932 36.1146 30.4557 36.4062 31.0527C36.6979 31.6452 36.8437 32.3402 36.8437 33.1377C36.8437 33.9215 36.6979 34.6097 36.4062 35.2021C36.1146 35.7946 35.709 36.2549 35.1895 36.583C34.6699 36.9111 34.0638 37.0752 33.3711 37.0752ZM33.3711 36.0225C33.8997 36.0225 34.3327 35.888 34.6699 35.6191C35.0072 35.3503 35.2578 34.9971 35.4219 34.5596C35.5859 34.1175 35.668 33.6436 35.668 33.1377C35.668 32.6227 35.5859 32.1442 35.4219 31.7021C35.2578 31.2601 35.0072 30.9046 34.6699 30.6357C34.3327 30.3623 33.8997 30.2256 33.3711 30.2256C32.8516 30.2256 32.4232 30.3623 32.0859 30.6357C31.7487 30.9046 31.498 31.2601 31.334 31.7021C31.1699 32.1442 31.0879 32.6227 31.0879 33.1377C31.0879 33.6436 31.1699 34.1175 31.334 34.5596C31.498 34.9971 31.7487 35.3503 32.0859 35.6191C32.4232 35.888 32.8516 36.0225 33.3711 36.0225ZM39.1406 26.7256V36.9111H37.9785V26.7256H39.1406ZM43.7344 37.0752C43.0462 37.0752 42.4424 36.9111 41.9229 36.583C41.4033 36.2549 40.9977 35.7946 40.7061 35.2021C40.4189 34.6097 40.2754 33.9215 40.2754 33.1377C40.2754 32.3402 40.4189 31.6452 40.7061 31.0527C40.9977 30.4557 41.4033 29.9932 41.9229 29.665C42.4424 29.3369 43.0462 29.1729 43.7344 29.1729C44.4271 29.1729 45.0332 29.3369 45.5527 29.665C46.0723 29.9932 46.4779 30.4557 46.7695 31.0527C47.0612 31.6452 47.207 32.3402 47.207 33.1377C47.207 33.9215 47.0612 34.6097 46.7695 35.2021C46.4779 35.7946 46.0723 36.2549 45.5527 36.583C45.0332 36.9111 44.4271 37.0752 43.7344 37.0752ZM43.7344 36.0225C44.263 36.0225 44.696 35.888 45.0332 35.6191C45.3704 35.3503 45.6211 34.9971 45.7852 34.5596C45.9492 34.1175 46.0312 33.6436 46.0312 33.1377C46.0312 32.6227 45.9492 32.1442 45.7852 31.7021C45.6211 31.2601 45.3704 30.9046 45.0332 30.6357C44.696 30.3623 44.263 30.2256 43.7344 30.2256C43.2148 30.2256 42.7865 30.3623 42.4492 30.6357C42.112 30.9046 41.8613 31.2601 41.6973 31.7021C41.5332 32.1442 41.4512 32.6227 41.4512 33.1377C41.4512 33.6436 41.5332 34.1175 41.6973 34.5596C41.8613 34.9971 42.112 35.3503 42.4492 35.6191C42.7865 35.888 43.2148 36.0225 43.7344 36.0225ZM48.3418 36.9111V29.2686H49.4629V30.4307H49.5449C49.6862 30.0524 49.9391 29.7471 50.3037 29.5146C50.6728 29.2777 51.0853 29.1592 51.541 29.1592C51.6276 29.1592 51.7347 29.1615 51.8623 29.166C51.9899 29.166 52.0879 29.1683 52.1562 29.1729V30.3623C52.1152 30.3532 52.0241 30.3395 51.8828 30.3213C51.7415 30.3031 51.5911 30.2939 51.4316 30.2939C51.0625 30.2939 50.7321 30.3714 50.4404 30.5264C50.1488 30.6813 49.9186 30.8932 49.75 31.1621C49.5859 31.431 49.5039 31.7386 49.5039 32.085V36.9111H48.3418ZM56.1758 39.7686V29.2686H57.2969V30.4854H57.4336C57.5202 30.3532 57.6409 30.1846 57.7959 29.9795C57.9508 29.7699 58.1742 29.583 58.4658 29.4189C58.7575 29.2549 59.1517 29.1729 59.6484 29.1729C60.291 29.1729 60.8561 29.3346 61.3437 29.6582C61.8314 29.9772 62.2119 30.4329 62.4853 31.0254C62.7633 31.6133 62.9023 32.3083 62.9023 33.1104C62.9023 33.917 62.7656 34.6188 62.4922 35.2158C62.2187 35.8083 61.8382 36.2663 61.3506 36.5898C60.863 36.9134 60.3001 37.0752 59.6621 37.0752C59.1745 37.0752 58.7825 36.9932 58.4863 36.8291C58.1901 36.6605 57.9622 36.4714 57.8027 36.2617C57.6432 36.0475 57.5202 35.8721 57.4336 35.7354H57.3379V39.7686H56.1758ZM59.5117 36.0225C59.9993 36.0225 60.4072 35.8926 60.7353 35.6328C61.0635 35.3685 61.3096 35.0153 61.4736 34.5732C61.6423 34.1312 61.7266 33.639 61.7266 33.0967C61.7266 32.5589 61.6445 32.0736 61.4805 31.6406C61.3164 31.2077 61.0703 30.8636 60.7422 30.6084C60.4186 30.3532 60.0085 30.2256 59.5117 30.2256C59.0332 30.2256 58.6322 30.3464 58.3086 30.5879C57.985 30.8249 57.7389 31.1598 57.5703 31.5928C57.4062 32.0212 57.3242 32.5225 57.3242 33.0967C57.3242 33.6709 57.4085 34.179 57.5771 34.6211C57.7458 35.0586 57.9919 35.4027 58.3154 35.6533C58.6436 35.8994 59.0423 36.0225 59.5117 36.0225ZM66.2793 37.0889C65.7962 37.0889 65.3564 36.9977 64.96 36.8154C64.5635 36.6286 64.249 36.3597 64.0166 36.0088C63.7842 35.6579 63.668 35.234 63.668 34.7373C63.668 34.2998 63.7546 33.9466 63.9277 33.6777C64.1009 33.4043 64.3311 33.1901 64.6182 33.0352C64.9098 32.8757 65.2288 32.7572 65.5752 32.6797C65.9261 32.6022 66.2793 32.5407 66.6348 32.4951C67.0996 32.4359 67.4756 32.3903 67.7627 32.3584C68.0544 32.3265 68.2663 32.2718 68.3984 32.1943C68.5352 32.1169 68.6035 31.9847 68.6035 31.7979V31.7568C68.6035 31.2692 68.4691 30.8909 68.2002 30.6221C67.9359 30.3486 67.5325 30.2119 66.9902 30.2119C66.4342 30.2119 65.9967 30.335 65.6777 30.5811C65.3587 30.8226 65.1354 31.0824 65.0078 31.3604L63.8867 30.9639C64.0872 30.499 64.3538 30.1367 64.6865 29.877C65.0238 29.6172 65.3883 29.4349 65.7803 29.3301C66.1768 29.2253 66.5664 29.1729 66.9492 29.1729C67.1953 29.1729 67.4779 29.2025 67.7969 29.2617C68.1159 29.3164 68.4258 29.4349 68.7266 29.6172C69.0319 29.7949 69.2825 30.0661 69.4785 30.4307C69.679 30.7907 69.7793 31.2738 69.7793 31.8799V36.9111H68.6035V35.8721H68.5488C68.4714 36.0361 68.3392 36.2139 68.1523 36.4053C67.9655 36.5921 67.7171 36.7539 67.4072 36.8906C67.1019 37.0228 66.7259 37.0889 66.2793 37.0889ZM66.457 36.0361C66.9219 36.0361 67.3138 35.945 67.6328 35.7627C67.9518 35.5804 68.1934 35.3457 68.3574 35.0586C68.5215 34.7669 68.6035 34.4639 68.6035 34.1494V33.0693C68.5534 33.1286 68.444 33.1833 68.2754 33.2334C68.1113 33.279 67.9199 33.32 67.7012 33.3564C67.487 33.3929 67.2773 33.4248 67.0723 33.4521C66.8672 33.4749 66.7031 33.4932 66.5801 33.5068C66.2747 33.5479 65.9899 33.6139 65.7256 33.7051C65.4613 33.7917 65.2471 33.9215 65.083 34.0947C64.9235 34.2679 64.8437 34.5049 64.8437 34.8057C64.8437 35.2113 64.9941 35.5189 65.2949 35.7285C65.6003 35.9336 65.9876 36.0361 66.457 36.0361ZM72.4453 26.7256V36.9111H71.2832V26.7256H72.4453ZM77.1484 37.0752C76.4147 37.0752 75.779 36.9111 75.2412 36.583C74.708 36.2549 74.2978 35.7969 74.0107 35.209C73.7236 34.6165 73.5801 33.9307 73.5801 33.1514C73.5801 32.3675 73.7214 31.6771 74.0039 31.0801C74.2865 30.4831 74.6829 30.0159 75.1934 29.6787C75.7083 29.3415 76.3099 29.1729 76.998 29.1729C77.3945 29.1729 77.7887 29.2389 78.1807 29.3711C78.5726 29.5033 78.9281 29.7174 79.2471 30.0137C79.5706 30.3099 79.8281 30.7018 80.0195 31.1895C80.2109 31.6771 80.3066 32.2764 80.3066 32.9873V33.4932H74.4141V32.4814H79.6709L79.1309 32.8643C79.1309 32.3538 79.0511 31.9004 78.8916 31.5039C78.7321 31.1074 78.4928 30.7952 78.1738 30.5674C77.8594 30.3395 77.4674 30.2256 76.998 30.2256C76.5286 30.2256 76.1253 30.3418 75.7881 30.5742C75.4554 30.8021 75.2002 31.1006 75.0225 31.4697C74.8447 31.8389 74.7559 32.2354 74.7559 32.6592V33.3291C74.7559 33.9079 74.8561 34.3978 75.0566 34.7988C75.2572 35.1999 75.5374 35.5052 75.8975 35.7148C76.2575 35.9199 76.6745 36.0225 77.1484 36.0225C77.4538 36.0225 77.7318 35.9792 77.9824 35.8926C78.2331 35.8014 78.4495 35.667 78.6318 35.4893C78.8141 35.307 78.9531 35.0837 79.0488 34.8193L80.1836 35.1475C80.0651 35.5303 79.8646 35.8675 79.582 36.1592C79.304 36.4463 78.9577 36.6719 78.543 36.8359C78.1283 36.9954 77.6634 37.0752 77.1484 37.0752ZM84.7227 29.2686V30.2666H80.7715V29.2686H84.7227ZM81.9199 27.4502H83.082V34.7236C83.082 35.1201 83.1641 35.4118 83.3281 35.5986C83.4922 35.7809 83.7519 35.8721 84.1074 35.8721C84.1849 35.8721 84.2646 35.8675 84.3467 35.8584C84.4333 35.8493 84.5267 35.8356 84.6269 35.8174L84.873 36.8701C84.7637 36.9111 84.6292 36.943 84.4697 36.9658C84.3148 36.9932 84.1575 37.0068 83.998 37.0068C83.3828 37.0068 82.8815 36.8245 82.4941 36.46C82.1113 36.0954 81.9199 35.6214 81.9199 35.0381V27.4502ZM89.1523 29.2686V30.2666H85.2012V29.2686H89.1523ZM86.3496 27.4502H87.5117V34.7236C87.5117 35.1201 87.5937 35.4118 87.7578 35.5986C87.9219 35.7809 88.1816 35.8721 88.5371 35.8721C88.6146 35.8721 88.6943 35.8675 88.7764 35.8584C88.863 35.8493 88.9564 35.8356 89.0566 35.8174L89.3027 36.8701C89.1934 36.9111 89.0589 36.943 88.8994 36.9658C88.7445 36.9932 88.5872 37.0068 88.4277 37.0068C87.8125 37.0068 87.3112 36.8245 86.9238 36.46C86.541 36.0954 86.3496 35.6214 86.3496 35.0381V27.4502ZM93.3906 37.0752C92.6569 37.0752 92.0212 36.9111 91.4834 36.583C90.9502 36.2549 90.54 35.7969 90.2529 35.209C89.9658 34.6165 89.8223 33.9307 89.8223 33.1514C89.8223 32.3675 89.9635 31.6771 90.2461 31.0801C90.5286 30.4831 90.9251 30.0159 91.4355 29.6787C91.9505 29.3415 92.5521 29.1729 93.2402 29.1729C93.6367 29.1729 94.0309 29.2389 94.4228 29.3711C94.8148 29.5033 95.1702 29.7174 95.4893 30.0137C95.8128 30.3099 96.0703 30.7018 96.2617 31.1895C96.4531 31.6771 96.5488 32.2764 96.5488 32.9873V33.4932H90.6562V32.4814H95.9131L95.373 32.8643C95.373 32.3538 95.2933 31.9004 95.1338 31.5039C94.9743 31.1074 94.735 30.7952 94.416 30.5674C94.1016 30.3395 93.7096 30.2256 93.2402 30.2256C92.7708 30.2256 92.3675 30.3418 92.0303 30.5742C91.6976 30.8021 91.4424 31.1006 91.2646 31.4697C91.0869 31.8389 90.998 32.2354 90.998 32.6592V33.3291C90.998 33.9079 91.0983 34.3978 91.2988 34.7988C91.4993 35.1999 91.7796 35.5052 92.1396 35.7148C92.4997 35.9199 92.9167 36.0225 93.3906 36.0225C93.696 36.0225 93.974 35.9792 94.2246 35.8926C94.4753 35.8014 94.6917 35.667 94.874 35.4893C95.0563 35.307 95.1953 35.0837 95.291 34.8193L96.4258 35.1475C96.3073 35.5303 96.1068 35.8675 95.8242 36.1592C95.5462 36.4463 95.1999 36.6719 94.7852 36.8359C94.3704 36.9954 93.9056 37.0752 93.3906 37.0752Z" fill="#1A1A1C" fill-opacity="0.6"/>
<path d="M229.789 35.5283C229.047 35.5283 228.385 35.3467 227.803 34.9834C227.221 34.6201 226.764 34.1045 226.432 33.4365C226.1 32.7646 225.934 31.9697 225.934 31.0518C225.934 30.1299 226.1 29.333 226.432 28.6611C226.764 27.9893 227.221 27.4717 227.803 27.1084C228.385 26.7451 229.047 26.5635 229.789 26.5635C230.227 26.5635 230.639 26.6279 231.025 26.7568C231.416 26.8857 231.768 27.0732 232.08 27.3193C232.393 27.5615 232.652 27.8604 232.859 28.2158C233.07 28.5674 233.215 28.9658 233.293 29.4111H232.238C232.176 29.1064 232.066 28.8389 231.91 28.6084C231.758 28.3779 231.57 28.1846 231.348 28.0283C231.129 27.8682 230.887 27.749 230.621 27.6709C230.355 27.5889 230.078 27.5479 229.789 27.5479C229.262 27.5479 228.783 27.6826 228.354 27.9521C227.924 28.2178 227.582 28.6123 227.328 29.1357C227.078 29.6553 226.953 30.2939 226.953 31.0518C226.953 31.8057 227.078 32.4424 227.328 32.9619C227.582 33.4814 227.924 33.876 228.354 34.1455C228.783 34.4111 229.262 34.5439 229.789 34.5439C230.078 34.5439 230.355 34.5049 230.621 34.4268C230.887 34.3447 231.129 34.2256 231.348 34.0693C231.57 33.9092 231.758 33.7139 231.91 33.4834C232.066 33.2529 232.176 32.9854 232.238 32.6807H233.293C233.215 33.1299 233.07 33.5303 232.859 33.8818C232.652 34.2334 232.393 34.5322 232.08 34.7783C231.768 35.0205 231.416 35.2061 231.025 35.335C230.639 35.4639 230.227 35.5283 229.789 35.5283ZM235.309 26.6807V35.4111H234.312V26.6807H235.309ZM239.34 35.5518C238.711 35.5518 238.166 35.4111 237.705 35.1299C237.248 34.8486 236.896 34.4561 236.65 33.9521C236.404 33.4443 236.281 32.8564 236.281 32.1885C236.281 31.5166 236.402 30.9248 236.645 30.4131C236.887 29.9014 237.227 29.501 237.664 29.2119C238.105 28.9229 238.621 28.7783 239.211 28.7783C239.551 28.7783 239.889 28.835 240.225 28.9482C240.561 29.0615 240.865 29.2451 241.139 29.499C241.416 29.7529 241.637 30.0889 241.801 30.5068C241.965 30.9248 242.047 31.4385 242.047 32.0479V32.4814H236.996V31.6143H241.502L241.039 31.9424C241.039 31.5049 240.971 31.1162 240.834 30.7764C240.697 30.4365 240.492 30.1689 240.219 29.9736C239.949 29.7783 239.613 29.6807 239.211 29.6807C238.809 29.6807 238.463 29.7803 238.174 29.9795C237.889 30.1748 237.67 30.4307 237.518 30.7471C237.365 31.0635 237.289 31.4033 237.289 31.7666V32.3408C237.289 32.8369 237.375 33.2568 237.547 33.6006C237.719 33.9443 237.959 34.2061 238.268 34.3857C238.576 34.5615 238.934 34.6494 239.34 34.6494C239.602 34.6494 239.84 34.6123 240.055 34.5381C240.27 34.46 240.455 34.3447 240.611 34.1924C240.768 34.0361 240.887 33.8447 240.969 33.6182L241.941 33.8994C241.84 34.2275 241.668 34.5166 241.426 34.7666C241.187 35.0127 240.891 35.2061 240.535 35.3467C240.18 35.4834 239.781 35.5518 239.34 35.5518ZM244.918 35.5635C244.504 35.5635 244.127 35.4854 243.787 35.3291C243.447 35.1689 243.178 34.9385 242.979 34.6377C242.779 34.3369 242.68 33.9736 242.68 33.5479C242.68 33.1729 242.754 32.8701 242.902 32.6396C243.051 32.4053 243.248 32.2217 243.494 32.0889C243.744 31.9521 244.018 31.8506 244.314 31.7842C244.615 31.7178 244.918 31.665 245.223 31.626C245.621 31.5752 245.943 31.5361 246.189 31.5088C246.439 31.4814 246.621 31.4346 246.734 31.3682C246.852 31.3018 246.91 31.1885 246.91 31.0283V30.9932C246.91 30.5752 246.795 30.251 246.564 30.0205C246.338 29.7861 245.992 29.6689 245.527 29.6689C245.051 29.6689 244.676 29.7744 244.402 29.9854C244.129 30.1924 243.937 30.415 243.828 30.6533L242.867 30.3135C243.039 29.915 243.268 29.6045 243.553 29.3818C243.842 29.1592 244.154 29.0029 244.49 28.9131C244.83 28.8232 245.164 28.7783 245.492 28.7783C245.703 28.7783 245.945 28.8037 246.219 28.8545C246.492 28.9014 246.758 29.0029 247.016 29.1592C247.277 29.3115 247.492 29.5439 247.66 29.8564C247.832 30.165 247.918 30.5791 247.918 31.0986V35.4111H246.91V34.5205H246.863C246.797 34.6611 246.684 34.8135 246.523 34.9775C246.363 35.1377 246.15 35.2764 245.885 35.3936C245.623 35.5068 245.301 35.5635 244.918 35.5635ZM245.07 34.6611C245.469 34.6611 245.805 34.583 246.078 34.4268C246.352 34.2705 246.559 34.0693 246.699 33.8232C246.84 33.5732 246.91 33.3135 246.91 33.0439V32.1182C246.867 32.1689 246.773 32.2158 246.629 32.2588C246.488 32.2979 246.324 32.333 246.137 32.3643C245.953 32.3955 245.773 32.4229 245.598 32.4463C245.422 32.4658 245.281 32.4814 245.176 32.4932C244.914 32.5283 244.67 32.585 244.443 32.6631C244.217 32.7373 244.033 32.8486 243.893 32.9971C243.756 33.1455 243.687 33.3486 243.687 33.6064C243.687 33.9541 243.816 34.2178 244.074 34.3975C244.336 34.5732 244.668 34.6611 245.07 34.6611ZM249.207 35.4111V28.8604H250.168V29.8564H250.238C250.359 29.5322 250.576 29.2705 250.889 29.0713C251.205 28.8682 251.559 28.7666 251.949 28.7666C252.023 28.7666 252.115 28.7686 252.225 28.7725C252.334 28.7725 252.418 28.7744 252.477 28.7783V29.7979C252.441 29.79 252.363 29.7783 252.242 29.7627C252.121 29.7471 251.992 29.7393 251.855 29.7393C251.539 29.7393 251.256 29.8057 251.006 29.9385C250.756 30.0713 250.559 30.2529 250.414 30.4834C250.273 30.7139 250.203 30.9775 250.203 31.2744V35.4111H249.207Z" fill="#1A1A1C" fill-opacity="0.6"/>
<path d="M21.3262 87.4111H20.0273L23.7734 77.2256H25.0449L28.7773 87.4111H27.4922L24.4434 78.8389H24.3613L21.3262 87.4111ZM21.8047 83.4326H27.0137V84.5264H21.8047V83.4326ZM34.3691 84.2939V79.7686H35.5312V87.4111H34.3691V86.1123H34.2871C34.1048 86.4997 33.8245 86.8301 33.4463 87.1035C33.0726 87.377 32.5964 87.5114 32.0176 87.5068C31.5391 87.5068 31.1152 87.4043 30.7461 87.1992C30.377 86.9896 30.0853 86.6706 29.8711 86.2422C29.6615 85.8138 29.5566 85.2738 29.5566 84.6221V79.7686H30.7187V84.5537C30.7187 85.1051 30.876 85.5472 31.1904 85.8799C31.5094 86.2126 31.9128 86.3766 32.4004 86.3721C32.6921 86.3721 32.9883 86.2992 33.2891 86.1533C33.5944 86.0029 33.8496 85.7751 34.0547 85.4697C34.2643 85.1598 34.3691 84.7679 34.3691 84.2939ZM40.3437 79.7686V80.7666H36.3926V79.7686H40.3437ZM37.541 77.9502H38.7031V85.2236C38.7031 85.6201 38.7852 85.9118 38.9492 86.0986C39.1133 86.2809 39.373 86.3721 39.7285 86.3721C39.806 86.3721 39.8857 86.3675 39.9678 86.3584C40.0544 86.3493 40.1478 86.3356 40.248 86.3174L40.4941 87.3701C40.3848 87.4111 40.2503 87.443 40.0908 87.4658C39.9359 87.4932 39.7786 87.5068 39.6191 87.5068C39.0039 87.5068 38.5026 87.3245 38.1152 86.96C37.7324 86.5954 37.541 86.1214 37.541 85.5381V77.9502ZM44.4727 87.5752C43.7845 87.5752 43.1807 87.4111 42.6611 87.083C42.1416 86.7549 41.736 86.2946 41.4443 85.7021C41.1572 85.1097 41.0137 84.4215 41.0137 83.6377C41.0137 82.8402 41.1572 82.1452 41.4443 81.5527C41.736 80.9557 42.1416 80.4932 42.6611 80.165C43.1807 79.8369 43.7845 79.6729 44.4727 79.6729C45.1654 79.6729 45.7715 79.8369 46.291 80.165C46.8105 80.4932 47.2161 80.9557 47.5078 81.5527C47.7995 82.1452 47.9453 82.8402 47.9453 83.6377C47.9453 84.4215 47.7995 85.1097 47.5078 85.7021C47.2161 86.2946 46.8105 86.7549 46.291 87.083C45.7715 87.4111 45.1654 87.5752 44.4727 87.5752ZM44.4727 86.5225C45.0013 86.5225 45.4342 86.388 45.7715 86.1191C46.1087 85.8503 46.3594 85.4971 46.5234 85.0596C46.6875 84.6175 46.7695 84.1436 46.7695 83.6377C46.7695 83.1227 46.6875 82.6442 46.5234 82.2021C46.3594 81.7601 46.1087 81.4046 45.7715 81.1357C45.4342 80.8623 45.0013 80.7256 44.4727 80.7256C43.9531 80.7256 43.5247 80.8623 43.1875 81.1357C42.8503 81.4046 42.5996 81.7601 42.4355 82.2021C42.2715 82.6442 42.1895 83.1227 42.1895 83.6377C42.1895 84.1436 42.2715 84.6175 42.4355 85.0596C42.5996 85.4971 42.8503 85.8503 43.1875 86.1191C43.5247 86.388 43.9531 86.5225 44.4727 86.5225Z" fill="#1A1A1C" fill-opacity="0.8"/>
<path d="M37 96.9111H235.5C244.613 96.9111 252 104.298 252 113.411C252 122.524 244.613 129.911 235.5 129.911H37C27.8873 129.911 20.5 122.524 20.5 113.411C20.5 104.298 27.8873 96.9111 37 96.9111Z" stroke="#F0F1F2"/>
<path d="M38.2891 117.528C37.5469 117.528 36.8848 117.347 36.3027 116.983C35.7207 116.62 35.2637 116.104 34.9316 115.437C34.5996 114.765 34.4336 113.97 34.4336 113.052C34.4336 112.13 34.5996 111.333 34.9316 110.661C35.2637 109.989 35.7207 109.472 36.3027 109.108C36.8848 108.745 37.5469 108.563 38.2891 108.563C38.7266 108.563 39.1387 108.628 39.5254 108.757C39.916 108.886 40.2676 109.073 40.5801 109.319C40.8926 109.562 41.1523 109.86 41.3594 110.216C41.5703 110.567 41.7148 110.966 41.793 111.411H40.7383C40.6758 111.106 40.5664 110.839 40.4102 110.608C40.2578 110.378 40.0703 110.185 39.8477 110.028C39.6289 109.868 39.3867 109.749 39.1211 109.671C38.8555 109.589 38.5781 109.548 38.2891 109.548C37.7617 109.548 37.2832 109.683 36.8535 109.952C36.4238 110.218 36.082 110.612 35.8281 111.136C35.5781 111.655 35.4531 112.294 35.4531 113.052C35.4531 113.806 35.5781 114.442 35.8281 114.962C36.082 115.481 36.4238 115.876 36.8535 116.146C37.2832 116.411 37.7617 116.544 38.2891 116.544C38.5781 116.544 38.8555 116.505 39.1211 116.427C39.3867 116.345 39.6289 116.226 39.8477 116.069C40.0703 115.909 40.2578 115.714 40.4102 115.483C40.5664 115.253 40.6758 114.985 40.7383 114.681H41.793C41.7148 115.13 41.5703 115.53 41.3594 115.882C41.1523 116.233 40.8926 116.532 40.5801 116.778C40.2676 117.021 39.916 117.206 39.5254 117.335C39.1387 117.464 38.7266 117.528 38.2891 117.528ZM42.8125 117.411V110.86H43.7734V111.856H43.8437C43.9648 111.532 44.1816 111.271 44.4941 111.071C44.8105 110.868 45.1641 110.767 45.5547 110.767C45.6289 110.767 45.7207 110.769 45.8301 110.772C45.9395 110.772 46.0234 110.774 46.082 110.778V111.798C46.0469 111.79 45.9687 111.778 45.8477 111.763C45.7266 111.747 45.5977 111.739 45.4609 111.739C45.1445 111.739 44.8613 111.806 44.6113 111.938C44.3613 112.071 44.1641 112.253 44.0195 112.483C43.8789 112.714 43.8086 112.978 43.8086 113.274V117.411H42.8125ZM46.7148 117.411V110.86H47.7109V117.411H46.7148ZM47.2187 109.771C47.0234 109.771 46.8555 109.704 46.7148 109.571C46.5742 109.438 46.5039 109.278 46.5039 109.091C46.5039 108.903 46.5742 108.743 46.7148 108.61C46.8555 108.478 47.0234 108.411 47.2187 108.411C47.4141 108.411 47.582 108.478 47.7227 108.61C47.8633 108.743 47.9336 108.903 47.9336 109.091C47.9336 109.278 47.8633 109.438 47.7227 109.571C47.582 109.704 47.4141 109.771 47.2187 109.771ZM49 117.411V110.86H49.9609V111.892H50.0547C50.1914 111.54 50.4121 111.267 50.7168 111.071C51.0215 110.876 51.3867 110.778 51.8125 110.778C52.2422 110.778 52.5996 110.876 52.8848 111.071C53.1738 111.267 53.3984 111.54 53.5586 111.892H53.6289C53.8008 111.552 54.0527 111.282 54.3848 111.083C54.7207 110.88 55.1211 110.778 55.5859 110.778C56.1719 110.778 56.6523 110.962 57.0273 111.329C57.4023 111.692 57.5898 112.259 57.5898 113.028V117.411H56.582V113.028C56.582 112.544 56.4492 112.198 56.1836 111.991C55.918 111.784 55.6055 111.681 55.2461 111.681C54.7891 111.681 54.4336 111.821 54.1797 112.103C53.9297 112.38 53.8047 112.728 53.8047 113.146V117.411H52.7734V112.923C52.7734 112.552 52.6543 112.253 52.416 112.026C52.1777 111.796 51.8672 111.681 51.4844 111.681C51.2227 111.681 50.9785 111.751 50.752 111.892C50.5254 112.032 50.3418 112.226 50.2012 112.472C50.0645 112.718 49.9961 113.001 49.9961 113.321V117.411H49ZM63.5078 112.337L62.6055 112.583C62.5195 112.36 62.3711 112.149 62.1602 111.95C61.9531 111.747 61.6289 111.646 61.1875 111.646C60.7891 111.646 60.457 111.739 60.1914 111.927C59.9258 112.11 59.793 112.341 59.793 112.618C59.793 112.868 59.8828 113.067 60.0625 113.216C60.2461 113.364 60.5312 113.485 60.918 113.579L61.8906 113.813C62.4727 113.954 62.9062 114.171 63.1914 114.464C63.4805 114.757 63.625 115.13 63.625 115.583C63.625 115.958 63.5176 116.294 63.3027 116.591C63.0879 116.888 62.7891 117.122 62.4062 117.294C62.0234 117.466 61.5781 117.552 61.0703 117.552C60.4023 117.552 59.8496 117.405 59.4121 117.112C58.9785 116.819 58.7031 116.396 58.5859 115.841L59.5352 115.606C59.625 115.958 59.7969 116.222 60.0508 116.397C60.3086 116.573 60.6445 116.661 61.0586 116.661C61.5234 116.661 61.8945 116.562 62.1719 116.362C62.4531 116.159 62.5937 115.919 62.5937 115.642C62.5937 115.181 62.2695 114.872 61.6211 114.716L60.5312 114.458C59.9297 114.313 59.4883 114.093 59.207 113.796C58.9258 113.499 58.7852 113.126 58.7852 112.677C58.7852 112.306 58.8887 111.978 59.0957 111.692C59.3066 111.407 59.5937 111.185 59.957 111.024C60.3203 110.86 60.7305 110.778 61.1875 110.778C61.8398 110.778 62.3496 110.923 62.7168 111.212C63.0879 111.497 63.3516 111.872 63.5078 112.337ZM67.2344 117.552C66.6445 117.552 66.127 117.411 65.6816 117.13C65.2363 116.849 64.8887 116.454 64.6387 115.946C64.3926 115.438 64.2695 114.849 64.2695 114.177C64.2695 113.493 64.3926 112.897 64.6387 112.39C64.8887 111.878 65.2363 111.481 65.6816 111.2C66.127 110.919 66.6445 110.778 67.2344 110.778C67.8281 110.778 68.3477 110.919 68.793 111.2C69.2383 111.481 69.5859 111.878 69.8359 112.39C70.0859 112.897 70.2109 113.493 70.2109 114.177C70.2109 114.849 70.0859 115.438 69.8359 115.946C69.5859 116.454 69.2383 116.849 68.793 117.13C68.3477 117.411 67.8281 117.552 67.2344 117.552ZM67.2344 116.649C67.6875 116.649 68.0586 116.534 68.3477 116.304C68.6367 116.073 68.8516 115.771 68.9922 115.396C69.1328 115.017 69.2031 114.61 69.2031 114.177C69.2031 113.735 69.1328 113.325 68.9922 112.946C68.8516 112.567 68.6367 112.263 68.3477 112.032C68.0586 111.798 67.6875 111.681 67.2344 111.681C66.7891 111.681 66.4219 111.798 66.1328 112.032C65.8437 112.263 65.6289 112.567 65.4883 112.946C65.3477 113.325 65.2773 113.735 65.2773 114.177C65.2773 114.61 65.3477 115.017 65.4883 115.396C65.6289 115.771 65.8437 116.073 66.1328 116.304C66.4219 116.534 66.7891 116.649 67.2344 116.649ZM72.1797 113.474V117.411H71.1836V110.86H72.1445V111.892H72.2383C72.3906 111.556 72.623 111.286 72.9355 111.083C73.248 110.88 73.6523 110.778 74.1484 110.778C74.5898 110.778 74.9766 110.868 75.3086 111.048C75.6406 111.228 75.8984 111.501 76.082 111.868C76.2695 112.231 76.3633 112.692 76.3633 113.251V117.411H75.3672V113.321C75.3672 112.81 75.2324 112.409 74.9629 112.12C74.6934 111.827 74.3262 111.681 73.8613 111.681C73.541 111.681 73.2539 111.751 73 111.892C72.7461 112.032 72.5449 112.235 72.3965 112.501C72.252 112.767 72.1797 113.091 72.1797 113.474Z" fill="#1A1A1C" fill-opacity="0.6"/>
<rect x="118.5" y="102.411" width="22" height="22" rx="11" fill="#DC143C"/>
<rect x="144.5" y="102.411" width="22" height="22" rx="11" fill="#65000B"/>
<rect x="170.5" y="102.411" width="22" height="22" rx="11" fill="#F4C2C2"/>
<rect x="196.5" y="102.411" width="22" height="22" rx="11" fill="#A45D7E"/>
<rect x="222.5" y="102.411" width="22" height="22" rx="11" fill="#F56F81"/>
<path d="M37 134.911H235.5C244.613 134.911 252 142.298 252 151.411C252 160.524 244.613 167.911 235.5 167.911H37C27.8873 167.911 20.5 160.524 20.5 151.411C20.5 142.298 27.8873 134.911 37 134.911Z" stroke="#F0F1F2"/>
<path d="M34.4805 155.411V154.649L39.1914 147.618H34.4336V146.681H40.457V147.454L35.7461 154.474H40.5039V155.411H34.4805ZM44.3242 155.552C43.6953 155.552 43.1504 155.411 42.6895 155.13C42.2324 154.849 41.8809 154.456 41.6348 153.952C41.3887 153.444 41.2656 152.856 41.2656 152.188C41.2656 151.517 41.3867 150.925 41.6289 150.413C41.8711 149.901 42.2109 149.501 42.6484 149.212C43.0898 148.923 43.6055 148.778 44.1953 148.778C44.5352 148.778 44.873 148.835 45.209 148.948C45.5449 149.062 45.8496 149.245 46.123 149.499C46.4004 149.753 46.6211 150.089 46.7852 150.507C46.9492 150.925 47.0312 151.438 47.0312 152.048V152.481H41.9805V151.614H46.4863L46.0234 151.942C46.0234 151.505 45.9551 151.116 45.8184 150.776C45.6816 150.437 45.4766 150.169 45.2031 149.974C44.9336 149.778 44.5977 149.681 44.1953 149.681C43.793 149.681 43.4473 149.78 43.1582 149.979C42.873 150.175 42.6543 150.431 42.502 150.747C42.3496 151.063 42.2734 151.403 42.2734 151.767V152.341C42.2734 152.837 42.3594 153.257 42.5312 153.601C42.7031 153.944 42.9434 154.206 43.252 154.386C43.5605 154.562 43.918 154.649 44.3242 154.649C44.5859 154.649 44.8242 154.612 45.0391 154.538C45.2539 154.46 45.4395 154.345 45.5957 154.192C45.752 154.036 45.8711 153.845 45.9531 153.618L46.9258 153.899C46.8242 154.228 46.6523 154.517 46.4102 154.767C46.1719 155.013 45.875 155.206 45.5195 155.347C45.1641 155.483 44.7656 155.552 44.3242 155.552ZM52.6094 150.337L51.707 150.583C51.6211 150.36 51.4727 150.149 51.2617 149.95C51.0547 149.747 50.7305 149.646 50.2891 149.646C49.8906 149.646 49.5586 149.739 49.293 149.927C49.0273 150.11 48.8945 150.341 48.8945 150.618C48.8945 150.868 48.9844 151.067 49.1641 151.216C49.3477 151.364 49.6328 151.485 50.0195 151.579L50.9922 151.813C51.5742 151.954 52.0078 152.171 52.293 152.464C52.582 152.757 52.7266 153.13 52.7266 153.583C52.7266 153.958 52.6191 154.294 52.4043 154.591C52.1895 154.888 51.8906 155.122 51.5078 155.294C51.125 155.466 50.6797 155.552 50.1719 155.552C49.5039 155.552 48.9512 155.405 48.5137 155.112C48.0801 154.819 47.8047 154.396 47.6875 153.841L48.6367 153.606C48.7266 153.958 48.8984 154.222 49.1523 154.397C49.4102 154.573 49.7461 154.661 50.1602 154.661C50.625 154.661 50.9961 154.562 51.2734 154.362C51.5547 154.159 51.6953 153.919 51.6953 153.642C51.6953 153.181 51.3711 152.872 50.7227 152.716L49.6328 152.458C49.0312 152.313 48.5898 152.093 48.3086 151.796C48.0273 151.499 47.8867 151.126 47.8867 150.677C47.8867 150.306 47.9902 149.978 48.1973 149.692C48.4082 149.407 48.6953 149.185 49.0586 149.024C49.4219 148.86 49.832 148.778 50.2891 148.778C50.9414 148.778 51.4512 148.923 51.8184 149.212C52.1895 149.497 52.4531 149.872 52.6094 150.337ZM56.5234 148.86V149.716H53.1367V148.86H56.5234ZM54.1211 147.302H55.1172V153.536C55.1172 153.876 55.1875 154.126 55.3281 154.286C55.4687 154.442 55.6914 154.521 55.9961 154.521C56.0625 154.521 56.1309 154.517 56.2012 154.509C56.2754 154.501 56.3555 154.489 56.4414 154.474L56.6523 155.376C56.5586 155.411 56.4434 155.438 56.3066 155.458C56.1738 155.481 56.0391 155.493 55.9023 155.493C55.375 155.493 54.9453 155.337 54.6133 155.024C54.2852 154.712 54.1211 154.306 54.1211 153.806V147.302ZM58.1289 157.86C57.957 157.864 57.8047 157.853 57.6719 157.825C57.5391 157.798 57.4453 157.771 57.3906 157.743L57.6484 156.864L57.748 156.888C58.084 156.966 58.3652 156.948 58.5918 156.835C58.8223 156.726 59.0234 156.435 59.1953 155.962L59.3828 155.446L56.9687 148.86H58.0586L59.8633 154.087H59.9336L61.7383 148.86H62.8281L60.0508 156.36C59.9258 156.7 59.7715 156.981 59.5879 157.204C59.4043 157.427 59.1914 157.591 58.9492 157.696C58.707 157.806 58.4336 157.86 58.1289 157.86Z" fill="#1A1A1C" fill-opacity="0.6"/>
<rect x="118.5" y="140.411" width="22" height="22" rx="11" fill="#A8E10C"/>
<rect x="144.5" y="140.411" width="22" height="22" rx="11" fill="#FFA500"/>
<rect x="170.5" y="140.411" width="22" height="22" rx="11" fill="#FFF44F"/>
<rect x="196.5" y="140.411" width="22" height="22" rx="11" fill="#98FF98"/>
<rect x="222.5" y="140.411" width="22" height="22" rx="11" fill="#718FF0"/>
<path d="M37 172.911H235.5C244.613 172.911 252 180.298 252 189.411C252 198.524 244.613 205.911 235.5 205.911H37C27.8873 205.911 20.5 198.524 20.5 189.411C20.5 180.298 27.8873 172.911 37 172.911Z" stroke="#F0F1F2"/>
<path d="M34.7734 184.681H36.0391L39.0039 191.923H39.1094L42.0742 184.681H43.3809V193.411H42.3437V186.778H42.2617L39.5137 193.411H38.5645L35.8516 186.778H35.7695V193.411H34.7734V184.681ZM46.7266 193.563C46.3125 193.563 45.9355 193.485 45.5957 193.329C45.2559 193.169 44.9863 192.938 44.7871 192.638C44.5879 192.337 44.4883 191.974 44.4883 191.548C44.4883 191.173 44.5625 190.87 44.7109 190.64C44.8594 190.405 45.0566 190.222 45.3027 190.089C45.5527 189.952 45.8262 189.851 46.123 189.784C46.4238 189.718 46.7266 189.665 47.0312 189.626C47.4297 189.575 47.752 189.536 47.998 189.509C48.248 189.481 48.4297 189.435 48.543 189.368C48.6602 189.302 48.7187 189.188 48.7187 189.028V188.993C48.7187 188.575 48.6035 188.251 48.373 188.021C48.1465 187.786 47.8008 187.669 47.3359 187.669C46.8594 187.669 46.4844 187.774 46.2109 187.985C45.9375 188.192 45.7461 188.415 45.6367 188.653L44.6758 188.313C44.8477 187.915 45.0762 187.604 45.3613 187.382C45.6504 187.159 45.9629 187.003 46.2988 186.913C46.6387 186.823 46.9727 186.778 47.3008 186.778C47.5117 186.778 47.7539 186.804 48.0273 186.854C48.3008 186.901 48.5664 187.003 48.8242 187.159C49.0859 187.312 49.3008 187.544 49.4687 187.856C49.6406 188.165 49.7266 188.579 49.7266 189.099V193.411H48.7187V192.521H48.6719C48.6055 192.661 48.4922 192.813 48.332 192.978C48.1719 193.138 47.959 193.276 47.6934 193.394C47.4316 193.507 47.1094 193.563 46.7266 193.563ZM46.8789 192.661C47.2773 192.661 47.6133 192.583 47.8867 192.427C48.1602 192.271 48.3672 192.069 48.5078 191.823C48.6484 191.573 48.7187 191.313 48.7187 191.044V190.118C48.6758 190.169 48.582 190.216 48.4375 190.259C48.2969 190.298 48.1328 190.333 47.9453 190.364C47.7617 190.396 47.582 190.423 47.4062 190.446C47.2305 190.466 47.0898 190.481 46.9844 190.493C46.7227 190.528 46.4785 190.585 46.252 190.663C46.0254 190.737 45.8418 190.849 45.7012 190.997C45.5645 191.146 45.4961 191.349 45.4961 191.606C45.4961 191.954 45.625 192.218 45.8828 192.397C46.1445 192.573 46.4766 192.661 46.8789 192.661ZM53.6523 196.001C52.9219 196.001 52.3437 195.868 51.918 195.603C51.4961 195.337 51.1836 195.032 50.9805 194.688L51.7773 194.126C51.8672 194.247 51.9824 194.384 52.123 194.536C52.2637 194.692 52.4551 194.827 52.6973 194.94C52.9395 195.054 53.2578 195.11 53.6523 195.11C54.1797 195.11 54.6152 194.983 54.959 194.729C55.3066 194.476 55.4805 194.075 55.4805 193.528V192.204H55.3867C55.3164 192.321 55.2129 192.468 55.0762 192.644C54.9434 192.815 54.75 192.97 54.4961 193.106C54.2461 193.239 53.9062 193.306 53.4766 193.306C52.9492 193.306 52.4766 193.181 52.0586 192.931C51.6406 192.681 51.3086 192.317 51.0625 191.841C50.8203 191.364 50.6992 190.786 50.6992 190.106C50.6992 189.435 50.8164 188.851 51.0508 188.354C51.2891 187.854 51.6191 187.468 52.041 187.194C52.4629 186.917 52.9492 186.778 53.5 186.778C53.9258 186.778 54.2637 186.849 54.5137 186.989C54.7676 187.13 54.9609 187.29 55.0937 187.47C55.2305 187.646 55.3359 187.79 55.4102 187.903H55.5156V186.86H56.4766V193.599C56.4766 194.161 56.3496 194.618 56.0957 194.97C55.8457 195.325 55.5059 195.585 55.0762 195.749C54.6504 195.917 54.1758 196.001 53.6523 196.001ZM53.6172 192.403C54.2227 192.403 54.6855 192.198 55.0059 191.788C55.3301 191.378 55.4922 190.81 55.4922 190.083C55.4922 189.61 55.4219 189.194 55.2812 188.835C55.1406 188.476 54.9297 188.194 54.6484 187.991C54.3711 187.784 54.0273 187.681 53.6172 187.681C53.1914 187.681 52.8359 187.79 52.5508 188.009C52.2695 188.224 52.0586 188.513 51.918 188.876C51.7773 189.239 51.707 189.642 51.707 190.083C51.707 190.536 51.7773 190.938 51.918 191.29C52.0625 191.638 52.2773 191.911 52.5625 192.11C52.8477 192.306 53.1992 192.403 53.6172 192.403ZM57.7656 193.411V186.86H58.7617V193.411H57.7656ZM58.2695 185.771C58.0742 185.771 57.9062 185.704 57.7656 185.571C57.625 185.438 57.5547 185.278 57.5547 185.091C57.5547 184.903 57.625 184.743 57.7656 184.61C57.9062 184.478 58.0742 184.411 58.2695 184.411C58.4648 184.411 58.6328 184.478 58.7734 184.61C58.9141 184.743 58.9844 184.903 58.9844 185.091C58.9844 185.278 58.9141 185.438 58.7734 185.571C58.6328 185.704 58.4648 185.771 58.2695 185.771ZM62.6992 193.552C62.0898 193.552 61.5625 193.407 61.1172 193.118C60.6758 192.825 60.334 192.425 60.0918 191.917C59.8535 191.409 59.7344 190.829 59.7344 190.177C59.7344 189.509 59.8574 188.921 60.1035 188.413C60.3496 187.901 60.6934 187.501 61.1348 187.212C61.5801 186.923 62.0977 186.778 62.6875 186.778C63.1484 186.778 63.5625 186.864 63.9297 187.036C64.3008 187.204 64.6035 187.442 64.8379 187.751C65.0762 188.06 65.2227 188.419 65.2773 188.829H64.2695C64.2187 188.63 64.127 188.442 63.9941 188.267C63.8613 188.091 63.6855 187.95 63.4668 187.845C63.252 187.735 62.9961 187.681 62.6992 187.681C62.3086 187.681 61.9668 187.782 61.6738 187.985C61.3809 188.188 61.1523 188.476 60.9883 188.847C60.8242 189.214 60.7422 189.646 60.7422 190.142C60.7422 190.646 60.8223 191.087 60.9824 191.466C61.1426 191.841 61.3691 192.132 61.6621 192.339C61.959 192.546 62.3047 192.649 62.6992 192.649C63.0937 192.649 63.4316 192.548 63.7129 192.345C63.9941 192.138 64.1797 191.856 64.2695 191.501H65.2773C65.2227 191.888 65.082 192.235 64.8555 192.544C64.6328 192.853 64.3379 193.099 63.9707 193.282C63.6074 193.462 63.1836 193.552 62.6992 193.552Z" fill="#1A1A1C" fill-opacity="0.6"/>
<rect x="118.5" y="178.411" width="22" height="22" rx="11" fill="#6A0DAD"/>
<rect x="144.5" y="178.411" width="22" height="22" rx="11" fill="#4B0082"/>
<rect x="170.5" y="178.411" width="22" height="22" rx="11" fill="#FF66CC"/>
<rect x="196.5" y="178.411" width="22" height="22" rx="11" fill="#E5E5E5"/>
<rect x="222.5" y="178.411" width="22" height="22" rx="11" fill="#00CED1"/>
<path d="M37 210.911H235.5C244.613 210.911 252 218.298 252 227.411C252 236.524 244.613 243.911 235.5 243.911H37C27.8873 243.911 20.5 236.524 20.5 227.411C20.5 218.298 27.8873 210.911 37 210.911Z" stroke="#F0F1F2"/>
<path d="M37.4687 231.411H35.3711V230.474H37.3984C38.1211 230.474 38.7187 230.335 39.1914 230.058C39.668 229.78 40.0234 229.384 40.2578 228.868C40.4922 228.353 40.6094 227.739 40.6094 227.028C40.6094 226.325 40.4941 225.72 40.2637 225.212C40.0332 224.7 39.6875 224.308 39.2266 224.034C38.7695 223.757 38.1992 223.618 37.5156 223.618H35.3242V222.681H37.5859C38.4336 222.681 39.1582 222.854 39.7598 223.202C40.3652 223.55 40.8281 224.05 41.1484 224.702C41.4687 225.351 41.6289 226.126 41.6289 227.028C41.6289 227.938 41.4668 228.722 41.1426 229.378C40.8184 230.03 40.3457 230.532 39.7246 230.884C39.1074 231.235 38.3555 231.411 37.4687 231.411ZM35.8281 222.681V231.411H34.7734V222.681H35.8281ZM45.4492 231.552C44.8203 231.552 44.2754 231.411 43.8145 231.13C43.3574 230.849 43.0059 230.456 42.7598 229.952C42.5137 229.444 42.3906 228.856 42.3906 228.188C42.3906 227.517 42.5117 226.925 42.7539 226.413C42.9961 225.901 43.3359 225.501 43.7734 225.212C44.2148 224.923 44.7305 224.778 45.3203 224.778C45.6602 224.778 45.998 224.835 46.334 224.948C46.6699 225.062 46.9746 225.245 47.248 225.499C47.5254 225.753 47.7461 226.089 47.9102 226.507C48.0742 226.925 48.1562 227.438 48.1562 228.048V228.481H43.1055V227.614H47.6113L47.1484 227.942C47.1484 227.505 47.0801 227.116 46.9434 226.776C46.8066 226.437 46.6016 226.169 46.3281 225.974C46.0586 225.778 45.7227 225.681 45.3203 225.681C44.918 225.681 44.5723 225.78 44.2832 225.979C43.998 226.175 43.7793 226.431 43.627 226.747C43.4746 227.063 43.3984 227.403 43.3984 227.767V228.341C43.3984 228.837 43.4844 229.257 43.6562 229.601C43.8281 229.944 44.0684 230.206 44.377 230.386C44.6855 230.562 45.043 230.649 45.4492 230.649C45.7109 230.649 45.9492 230.612 46.1641 230.538C46.3789 230.46 46.5645 230.345 46.7207 230.192C46.877 230.036 46.9961 229.845 47.0781 229.618L48.0508 229.899C47.9492 230.228 47.7773 230.517 47.5352 230.767C47.2969 231.013 47 231.206 46.6445 231.347C46.2891 231.483 45.8906 231.552 45.4492 231.552ZM50.3594 231.411L48.3672 224.86H49.4219L50.8398 229.876H50.9102L52.3047 224.86H53.3828L54.7539 229.864H54.8242L56.2422 224.86H57.2969L55.3047 231.411H54.3203L52.8789 226.384H52.7852L51.3437 231.411H50.3594Z" fill="#1A1A1C" fill-opacity="0.6"/>
<rect x="118.5" y="216.411" width="22" height="22" rx="11" fill="#D3E5E4"/>
<rect x="144.5" y="216.411" width="22" height="22" rx="11" fill="#A9DCD7"/>
<rect x="170.5" y="216.411" width="22" height="22" rx="11" fill="#89CFF0"/>
<rect x="196.5" y="216.411" width="22" height="22" rx="11" fill="#A1DF8D"/>
<rect x="222.5" y="216.411" width="22" height="22" rx="11" fill="#9F9F73"/>
<path d="M25.0039 290.048C24.138 290.048 23.3656 289.836 22.6865 289.412C22.0075 288.988 21.4743 288.387 21.0869 287.607C20.6995 286.824 20.5059 285.896 20.5059 284.825C20.5059 283.75 20.6995 282.82 21.0869 282.036C21.4743 281.252 22.0075 280.648 22.6865 280.225C23.3656 279.801 24.138 279.589 25.0039 279.589C25.5143 279.589 25.9951 279.664 26.4463 279.814C26.902 279.965 27.3122 280.184 27.6768 280.471C28.0413 280.753 28.3444 281.102 28.5859 281.517C28.832 281.927 29.0007 282.392 29.0918 282.911H27.8613C27.7884 282.556 27.6608 282.243 27.4785 281.975C27.3008 281.706 27.082 281.48 26.8223 281.298C26.5671 281.111 26.2845 280.972 25.9746 280.881C25.6647 280.785 25.3411 280.737 25.0039 280.737C24.3887 280.737 23.8304 280.895 23.3291 281.209C22.8278 281.519 22.429 281.979 22.1328 282.59C21.8411 283.196 21.6953 283.941 21.6953 284.825C21.6953 285.705 21.8411 286.448 22.1328 287.054C22.429 287.66 22.8278 288.12 23.3291 288.435C23.8304 288.744 24.3887 288.899 25.0039 288.899C25.3411 288.899 25.6647 288.854 25.9746 288.763C26.2845 288.667 26.5671 288.528 26.8223 288.346C27.082 288.159 27.3008 287.931 27.4785 287.662C27.6608 287.393 27.7884 287.081 27.8613 286.726H29.0918C29.0007 287.25 28.832 287.717 28.5859 288.127C28.3444 288.537 28.0413 288.886 27.6768 289.173C27.3122 289.455 26.902 289.672 26.4463 289.822C25.9951 289.973 25.5143 290.048 25.0039 290.048ZM35.0937 286.794V282.269H36.2559V289.911H35.0937V288.612H35.0117C34.8294 289 34.5492 289.33 34.1709 289.604C33.7972 289.877 33.321 290.011 32.7422 290.007C32.2637 290.007 31.8398 289.904 31.4707 289.699C31.1016 289.49 30.8099 289.171 30.5957 288.742C30.3861 288.314 30.2812 287.774 30.2812 287.122V282.269H31.4434V287.054C31.4434 287.605 31.6006 288.047 31.915 288.38C32.234 288.713 32.6374 288.877 33.125 288.872C33.4167 288.872 33.7129 288.799 34.0137 288.653C34.319 288.503 34.5742 288.275 34.7793 287.97C34.9889 287.66 35.0937 287.268 35.0937 286.794ZM43.1602 283.991L42.1074 284.278C42.0072 284.019 41.834 283.772 41.5879 283.54C41.3464 283.303 40.9681 283.185 40.4531 283.185C39.9883 283.185 39.6009 283.294 39.291 283.513C38.9811 283.727 38.8262 283.996 38.8262 284.319C38.8262 284.611 38.931 284.843 39.1406 285.017C39.3548 285.19 39.6875 285.331 40.1387 285.44L41.2734 285.714C41.9525 285.878 42.4583 286.131 42.791 286.473C43.1283 286.814 43.2969 287.25 43.2969 287.778C43.2969 288.216 43.1715 288.608 42.9209 288.954C42.6702 289.3 42.3216 289.574 41.875 289.774C41.4284 289.975 40.9089 290.075 40.3164 290.075C39.5371 290.075 38.8923 289.904 38.3818 289.562C37.876 289.221 37.5547 288.726 37.418 288.079L38.5254 287.806C38.6302 288.216 38.8307 288.523 39.127 288.729C39.4277 288.934 39.8197 289.036 40.3027 289.036C40.8451 289.036 41.278 288.92 41.6016 288.687C41.9297 288.451 42.0937 288.17 42.0937 287.847C42.0937 287.309 41.7155 286.949 40.959 286.767L39.6875 286.466C38.9857 286.297 38.4707 286.04 38.1426 285.693C37.8145 285.347 37.6504 284.912 37.6504 284.388C37.6504 283.955 37.7712 283.572 38.0127 283.239C38.2588 282.907 38.5937 282.647 39.0176 282.46C39.4414 282.269 39.9199 282.173 40.4531 282.173C41.2142 282.173 41.8089 282.341 42.2373 282.679C42.6702 283.011 42.9779 283.449 43.1602 283.991ZM47.7266 282.269V283.267H43.7754V282.269H47.7266ZM44.9238 280.45H46.0859V287.724C46.0859 288.12 46.168 288.412 46.332 288.599C46.4961 288.781 46.7559 288.872 47.1113 288.872C47.1888 288.872 47.2686 288.868 47.3506 288.858C47.4372 288.849 47.5306 288.836 47.6309 288.817L47.877 289.87C47.7676 289.911 47.6331 289.943 47.4736 289.966C47.3187 289.993 47.1615 290.007 47.002 290.007C46.3867 290.007 45.8854 289.825 45.498 289.46C45.1152 289.095 44.9238 288.621 44.9238 288.038V280.45ZM51.8555 290.075C51.1673 290.075 50.5635 289.911 50.0439 289.583C49.5244 289.255 49.1188 288.795 48.8271 288.202C48.54 287.61 48.3965 286.922 48.3965 286.138C48.3965 285.34 48.54 284.645 48.8271 284.053C49.1188 283.456 49.5244 282.993 50.0439 282.665C50.5635 282.337 51.1673 282.173 51.8555 282.173C52.5482 282.173 53.1543 282.337 53.6738 282.665C54.1934 282.993 54.599 283.456 54.8906 284.053C55.1823 284.645 55.3281 285.34 55.3281 286.138C55.3281 286.922 55.1823 287.61 54.8906 288.202C54.599 288.795 54.1934 289.255 53.6738 289.583C53.1543 289.911 52.5482 290.075 51.8555 290.075ZM51.8555 289.022C52.3841 289.022 52.8171 288.888 53.1543 288.619C53.4915 288.35 53.7422 287.997 53.9062 287.56C54.0703 287.118 54.1523 286.644 54.1523 286.138C54.1523 285.623 54.0703 285.144 53.9062 284.702C53.7422 284.26 53.4915 283.905 53.1543 283.636C52.8171 283.362 52.3841 283.226 51.8555 283.226C51.3359 283.226 50.9076 283.362 50.5703 283.636C50.2331 283.905 49.9824 284.26 49.8184 284.702C49.6543 285.144 49.5723 285.623 49.5723 286.138C49.5723 286.644 49.6543 287.118 49.8184 287.56C49.9824 287.997 50.2331 288.35 50.5703 288.619C50.9076 288.888 51.3359 289.022 51.8555 289.022ZM56.4629 289.911V282.269H57.584V283.472H57.6934C57.8529 283.062 58.1103 282.743 58.4658 282.515C58.8213 282.287 59.2474 282.173 59.7441 282.173C60.2454 282.173 60.6624 282.287 60.9951 282.515C61.3324 282.743 61.5944 283.062 61.7812 283.472H61.8633C62.0638 283.075 62.3577 282.761 62.7451 282.528C63.137 282.291 63.6042 282.173 64.1465 282.173C64.8301 282.173 65.3906 282.387 65.8281 282.815C66.2656 283.239 66.4844 283.9 66.4844 284.798V289.911H65.3086V284.798C65.3086 284.233 65.1536 283.829 64.8437 283.588C64.5339 283.346 64.1693 283.226 63.75 283.226C63.2168 283.226 62.8021 283.39 62.5059 283.718C62.2142 284.041 62.0684 284.447 62.0684 284.935V289.911H60.8652V284.675C60.8652 284.242 60.7262 283.893 60.4482 283.629C60.1702 283.36 59.8079 283.226 59.3613 283.226C59.056 283.226 58.7712 283.308 58.5068 283.472C58.2425 283.636 58.0283 283.861 57.8643 284.148C57.7048 284.436 57.625 284.766 57.625 285.14V289.911H56.4629Z" fill="#1A1A1C" fill-opacity="0.8"/>
<rect x="20" y="298.911" width="232.5" height="34" rx="17" fill="#EAECEB"/>
<path d="M38.3457 312.118V311.181H44.8965V312.118H42.1543V319.911H41.0996V312.118H38.3457ZM49.0684 317.239V313.36H50.0645V319.911H49.0684V318.798H48.998C48.8418 319.13 48.6016 319.413 48.2773 319.647C47.957 319.882 47.5488 319.997 47.0527 319.993C46.6426 319.993 46.2793 319.905 45.9629 319.729C45.6465 319.55 45.3965 319.276 45.2129 318.909C45.0332 318.542 44.9434 318.079 44.9434 317.521V313.36H45.9395V317.462C45.9395 317.935 46.0742 318.313 46.3437 318.599C46.6172 318.884 46.9629 319.024 47.3809 319.021C47.6309 319.021 47.8848 318.958 48.1426 318.833C48.4043 318.704 48.623 318.509 48.7988 318.247C48.9785 317.981 49.0684 317.646 49.0684 317.239ZM51.3535 319.911V313.36H52.3145V314.356H52.3848C52.5059 314.032 52.7227 313.771 53.0352 313.571C53.3516 313.368 53.7051 313.267 54.0957 313.267C54.1699 313.267 54.2617 313.269 54.3711 313.272C54.4805 313.272 54.5645 313.274 54.623 313.278V314.298C54.5879 314.29 54.5098 314.278 54.3887 314.263C54.2676 314.247 54.1387 314.239 54.002 314.239C53.6855 314.239 53.4023 314.306 53.1523 314.438C52.9023 314.571 52.7051 314.753 52.5605 314.983C52.4199 315.214 52.3496 315.478 52.3496 315.774V319.911H51.3535ZM58.2441 320.052C57.8262 320.052 57.4902 319.981 57.2363 319.841C56.9824 319.696 56.7871 319.534 56.6504 319.354C56.5137 319.171 56.4082 319.021 56.334 318.903H56.2168V319.911H55.2559V311.181H56.252V314.403H56.334C56.4082 314.29 56.5117 314.146 56.6445 313.97C56.7773 313.79 56.9687 313.63 57.2187 313.489C57.4687 313.349 57.8066 313.278 58.2324 313.278C58.7832 313.278 59.2676 313.417 59.6855 313.694C60.1035 313.968 60.4297 314.358 60.6641 314.866C60.9023 315.37 61.0215 315.966 61.0215 316.653C61.0215 317.345 60.9043 317.946 60.6699 318.458C60.4355 318.966 60.1094 319.358 59.6914 319.636C59.2734 319.913 58.791 320.052 58.2441 320.052ZM58.1152 319.149C58.5332 319.149 58.8828 319.038 59.1641 318.815C59.4453 318.589 59.6562 318.286 59.7969 317.907C59.9414 317.528 60.0137 317.106 60.0137 316.642C60.0137 316.181 59.9434 315.765 59.8027 315.394C59.6621 315.022 59.4512 314.728 59.1699 314.509C58.8926 314.29 58.541 314.181 58.1152 314.181C57.7051 314.181 57.3613 314.284 57.084 314.491C56.8066 314.694 56.5957 314.981 56.4512 315.353C56.3105 315.72 56.2402 316.149 56.2402 316.642C56.2402 317.134 56.3125 317.569 56.457 317.948C56.6016 318.323 56.8125 318.618 57.0898 318.833C57.3711 319.044 57.7129 319.149 58.1152 319.149ZM64.6426 320.052C64.0527 320.052 63.5352 319.911 63.0898 319.63C62.6445 319.349 62.2969 318.954 62.0469 318.446C61.8008 317.938 61.6777 317.349 61.6777 316.677C61.6777 315.993 61.8008 315.397 62.0469 314.89C62.2969 314.378 62.6445 313.981 63.0898 313.7C63.5352 313.419 64.0527 313.278 64.6426 313.278C65.2363 313.278 65.7559 313.419 66.2012 313.7C66.6465 313.981 66.9941 314.378 67.2441 314.89C67.4941 315.397 67.6191 315.993 67.6191 316.677C67.6191 317.349 67.4941 317.938 67.2441 318.446C66.9941 318.954 66.6465 319.349 66.2012 319.63C65.7559 319.911 65.2363 320.052 64.6426 320.052ZM64.6426 319.149C65.0957 319.149 65.4668 319.034 65.7559 318.804C66.0449 318.573 66.2598 318.271 66.4004 317.896C66.541 317.517 66.6113 317.11 66.6113 316.677C66.6113 316.235 66.541 315.825 66.4004 315.446C66.2598 315.067 66.0449 314.763 65.7559 314.532C65.4668 314.298 65.0957 314.181 64.6426 314.181C64.1973 314.181 63.8301 314.298 63.541 314.532C63.252 314.763 63.0371 315.067 62.8965 315.446C62.7559 315.825 62.6855 316.235 62.6855 316.677C62.6855 317.11 62.7559 317.517 62.8965 317.896C63.0371 318.271 63.252 318.573 63.541 318.804C63.8301 319.034 64.1973 319.149 64.6426 319.149Z" fill="#1A1A1C" fill-opacity="0.6"/>
<path d="M116.35 319.911H114.252V318.974H116.279C117.002 318.974 117.6 318.835 118.072 318.558C118.549 318.28 118.904 317.884 119.139 317.368C119.373 316.853 119.49 316.239 119.49 315.528C119.49 314.825 119.375 314.22 119.145 313.712C118.914 313.2 118.568 312.808 118.107 312.534C117.65 312.257 117.08 312.118 116.396 312.118H114.205V311.181H116.467C117.314 311.181 118.039 311.354 118.641 311.702C119.246 312.05 119.709 312.55 120.029 313.202C120.35 313.851 120.51 314.626 120.51 315.528C120.51 316.438 120.348 317.222 120.023 317.878C119.699 318.53 119.227 319.032 118.605 319.384C117.988 319.735 117.236 319.911 116.35 319.911ZM114.709 311.181V319.911H113.654V311.181H114.709ZM124.33 320.052C123.701 320.052 123.156 319.911 122.695 319.63C122.238 319.349 121.887 318.956 121.641 318.452C121.395 317.944 121.271 317.356 121.271 316.688C121.271 316.017 121.393 315.425 121.635 314.913C121.877 314.401 122.217 314.001 122.654 313.712C123.096 313.423 123.611 313.278 124.201 313.278C124.541 313.278 124.879 313.335 125.215 313.448C125.551 313.562 125.855 313.745 126.129 313.999C126.406 314.253 126.627 314.589 126.791 315.007C126.955 315.425 127.037 315.938 127.037 316.548V316.981H121.986V316.114H126.492L126.029 316.442C126.029 316.005 125.961 315.616 125.824 315.276C125.687 314.937 125.482 314.669 125.209 314.474C124.939 314.278 124.604 314.181 124.201 314.181C123.799 314.181 123.453 314.28 123.164 314.479C122.879 314.675 122.66 314.931 122.508 315.247C122.355 315.563 122.279 315.903 122.279 316.267V316.841C122.279 317.337 122.365 317.757 122.537 318.101C122.709 318.444 122.949 318.706 123.258 318.886C123.566 319.062 123.924 319.149 124.33 319.149C124.592 319.149 124.83 319.112 125.045 319.038C125.26 318.96 125.445 318.845 125.602 318.692C125.758 318.536 125.877 318.345 125.959 318.118L126.932 318.399C126.83 318.728 126.658 319.017 126.416 319.267C126.178 319.513 125.881 319.706 125.525 319.847C125.17 319.983 124.771 320.052 124.33 320.052ZM130.893 313.36V314.216H127.365V313.36H130.893ZM128.42 319.911V312.458C128.42 312.083 128.508 311.771 128.684 311.521C128.863 311.271 129.094 311.083 129.375 310.958C129.656 310.833 129.951 310.771 130.26 310.771C130.51 310.771 130.713 310.792 130.869 310.835C131.029 310.874 131.146 310.911 131.221 310.946L130.928 311.813C130.877 311.794 130.807 311.772 130.717 311.749C130.631 311.722 130.514 311.708 130.365 311.708C130.033 311.708 129.791 311.794 129.639 311.966C129.49 312.134 129.416 312.38 129.416 312.704V319.911H128.42ZM133.482 320.063C133.068 320.063 132.691 319.985 132.352 319.829C132.012 319.669 131.742 319.438 131.543 319.138C131.344 318.837 131.244 318.474 131.244 318.048C131.244 317.673 131.318 317.37 131.467 317.14C131.615 316.905 131.812 316.722 132.059 316.589C132.309 316.452 132.582 316.351 132.879 316.284C133.18 316.218 133.482 316.165 133.787 316.126C134.186 316.075 134.508 316.036 134.754 316.009C135.004 315.981 135.186 315.935 135.299 315.868C135.416 315.802 135.475 315.688 135.475 315.528V315.493C135.475 315.075 135.359 314.751 135.129 314.521C134.902 314.286 134.557 314.169 134.092 314.169C133.615 314.169 133.24 314.274 132.967 314.485C132.693 314.692 132.502 314.915 132.393 315.153L131.432 314.813C131.604 314.415 131.832 314.104 132.117 313.882C132.406 313.659 132.719 313.503 133.055 313.413C133.395 313.323 133.729 313.278 134.057 313.278C134.268 313.278 134.51 313.304 134.783 313.354C135.057 313.401 135.322 313.503 135.58 313.659C135.842 313.812 136.057 314.044 136.225 314.356C136.396 314.665 136.482 315.079 136.482 315.599V319.911H135.475V319.021H135.428C135.361 319.161 135.248 319.313 135.088 319.478C134.928 319.638 134.715 319.776 134.449 319.894C134.187 320.007 133.865 320.063 133.482 320.063ZM133.635 319.161C134.033 319.161 134.369 319.083 134.643 318.927C134.916 318.771 135.123 318.569 135.264 318.323C135.404 318.073 135.475 317.813 135.475 317.544V316.618C135.432 316.669 135.338 316.716 135.193 316.759C135.053 316.798 134.889 316.833 134.701 316.864C134.518 316.896 134.338 316.923 134.162 316.946C133.986 316.966 133.846 316.981 133.74 316.993C133.479 317.028 133.234 317.085 133.008 317.163C132.781 317.237 132.598 317.349 132.457 317.497C132.32 317.646 132.252 317.849 132.252 318.106C132.252 318.454 132.381 318.718 132.639 318.897C132.9 319.073 133.232 319.161 133.635 319.161ZM141.896 317.239V313.36H142.893V319.911H141.896V318.798H141.826C141.67 319.13 141.43 319.413 141.105 319.647C140.785 319.882 140.377 319.997 139.881 319.993C139.471 319.993 139.107 319.905 138.791 319.729C138.475 319.55 138.225 319.276 138.041 318.909C137.861 318.542 137.771 318.079 137.771 317.521V313.36H138.768V317.462C138.768 317.935 138.902 318.313 139.172 318.599C139.445 318.884 139.791 319.024 140.209 319.021C140.459 319.021 140.713 318.958 140.971 318.833C141.232 318.704 141.451 318.509 141.627 318.247C141.807 317.981 141.896 317.646 141.896 317.239ZM145.178 311.181V319.911H144.182V311.181H145.178ZM149.303 313.36V314.216H145.916V313.36H149.303ZM146.9 311.802H147.896V318.036C147.896 318.376 147.967 318.626 148.107 318.786C148.248 318.942 148.471 319.021 148.775 319.021C148.842 319.021 148.91 319.017 148.98 319.009C149.055 319.001 149.135 318.989 149.221 318.974L149.432 319.876C149.338 319.911 149.223 319.938 149.086 319.958C148.953 319.981 148.818 319.993 148.682 319.993C148.154 319.993 147.725 319.837 147.393 319.524C147.064 319.212 146.9 318.806 146.9 318.306V311.802Z" fill="#1A1A1C" fill-opacity="0.6"/>
<rect x="180.5" y="302.911" width="68" height="26" rx="13" fill="white"/>
<path d="M200.607 317.181H201.768L202.74 318.458L202.986 318.798L204.439 320.731H203.279L202.33 319.454L202.084 319.126L200.607 317.181ZM200.953 320.028C200.211 320.028 199.549 319.847 198.967 319.483C198.385 319.12 197.926 318.604 197.59 317.937C197.258 317.265 197.092 316.47 197.092 315.552C197.092 314.63 197.258 313.833 197.59 313.161C197.926 312.489 198.385 311.972 198.967 311.608C199.549 311.245 200.211 311.063 200.953 311.063C201.699 311.063 202.361 311.245 202.939 311.608C203.518 311.972 203.973 312.489 204.305 313.161C204.637 313.833 204.803 314.63 204.803 315.552C204.803 316.47 204.637 317.265 204.305 317.937C203.973 318.604 203.518 319.12 202.939 319.483C202.361 319.847 201.699 320.028 200.953 320.028ZM200.953 319.044C201.48 319.044 201.957 318.911 202.383 318.646C202.812 318.376 203.152 317.981 203.402 317.462C203.656 316.942 203.783 316.306 203.783 315.552C203.783 314.794 203.656 314.155 203.402 313.636C203.152 313.112 202.812 312.718 202.383 312.452C201.957 312.183 201.48 312.048 200.953 312.048C200.426 312.048 199.947 312.183 199.518 312.452C199.088 312.718 198.746 313.112 198.492 313.636C198.238 314.155 198.111 314.794 198.111 315.552C198.111 316.306 198.238 316.942 198.492 317.462C198.746 317.981 199.088 318.376 199.518 318.646C199.947 318.911 200.426 319.044 200.953 319.044ZM210.006 317.239V313.36H211.002V319.911H210.006V318.798H209.936C209.779 319.13 209.539 319.413 209.215 319.647C208.895 319.882 208.486 319.997 207.99 319.993C207.58 319.993 207.217 319.905 206.9 319.729C206.584 319.55 206.334 319.276 206.15 318.909C205.971 318.542 205.881 318.079 205.881 317.521V313.36H206.877V317.462C206.877 317.935 207.012 318.313 207.281 318.599C207.555 318.884 207.9 319.024 208.318 319.021C208.568 319.021 208.822 318.958 209.08 318.833C209.342 318.704 209.561 318.509 209.736 318.247C209.916 317.981 210.006 317.646 210.006 317.239ZM214.213 320.063C213.799 320.063 213.422 319.985 213.082 319.829C212.742 319.669 212.473 319.438 212.273 319.138C212.074 318.837 211.975 318.474 211.975 318.048C211.975 317.673 212.049 317.37 212.197 317.14C212.346 316.905 212.543 316.722 212.789 316.589C213.039 316.452 213.312 316.351 213.609 316.284C213.91 316.218 214.213 316.165 214.518 316.126C214.916 316.075 215.238 316.036 215.484 316.009C215.734 315.981 215.916 315.935 216.029 315.868C216.146 315.802 216.205 315.688 216.205 315.528V315.493C216.205 315.075 216.09 314.751 215.859 314.521C215.633 314.286 215.287 314.169 214.822 314.169C214.346 314.169 213.971 314.274 213.697 314.485C213.424 314.692 213.232 314.915 213.123 315.153L212.162 314.813C212.334 314.415 212.562 314.104 212.848 313.882C213.137 313.659 213.449 313.503 213.785 313.413C214.125 313.323 214.459 313.278 214.787 313.278C214.998 313.278 215.24 313.304 215.514 313.354C215.787 313.401 216.053 313.503 216.311 313.659C216.572 313.812 216.787 314.044 216.955 314.356C217.127 314.665 217.213 315.079 217.213 315.599V319.911H216.205V319.021H216.158C216.092 319.161 215.979 319.313 215.818 319.478C215.658 319.638 215.445 319.776 215.18 319.894C214.918 320.007 214.596 320.063 214.213 320.063ZM214.365 319.161C214.764 319.161 215.1 319.083 215.373 318.927C215.646 318.771 215.854 318.569 215.994 318.323C216.135 318.073 216.205 317.813 216.205 317.544V316.618C216.162 316.669 216.068 316.716 215.924 316.759C215.783 316.798 215.619 316.833 215.432 316.864C215.248 316.896 215.068 316.923 214.893 316.946C214.717 316.966 214.576 316.981 214.471 316.993C214.209 317.028 213.965 317.085 213.738 317.163C213.512 317.237 213.328 317.349 213.187 317.497C213.051 317.646 212.982 317.849 212.982 318.106C212.982 318.454 213.111 318.718 213.369 318.897C213.631 319.073 213.963 319.161 214.365 319.161ZM219.498 311.181V319.911H218.502V311.181H219.498ZM220.787 319.911V313.36H221.783V319.911H220.787ZM221.291 312.271C221.096 312.271 220.928 312.204 220.787 312.071C220.646 311.938 220.576 311.778 220.576 311.591C220.576 311.403 220.646 311.243 220.787 311.11C220.928 310.978 221.096 310.911 221.291 310.911C221.486 310.911 221.654 310.978 221.795 311.11C221.936 311.243 222.006 311.403 222.006 311.591C222.006 311.778 221.936 311.938 221.795 312.071C221.654 312.204 221.486 312.271 221.291 312.271ZM225.908 313.36V314.216H222.521V313.36H225.908ZM223.506 311.802H224.502V318.036C224.502 318.376 224.572 318.626 224.713 318.786C224.854 318.942 225.076 319.021 225.381 319.021C225.447 319.021 225.516 319.017 225.586 319.009C225.66 319.001 225.74 318.989 225.826 318.974L226.037 319.876C225.943 319.911 225.828 319.938 225.691 319.958C225.559 319.981 225.424 319.993 225.287 319.993C224.76 319.993 224.33 319.837 223.998 319.524C223.67 319.212 223.506 318.806 223.506 318.306V311.802ZM227.514 322.36C227.342 322.364 227.189 322.353 227.057 322.325C226.924 322.298 226.83 322.271 226.775 322.243L227.033 321.364L227.133 321.388C227.469 321.466 227.75 321.448 227.977 321.335C228.207 321.226 228.408 320.935 228.58 320.462L228.768 319.946L226.354 313.36H227.443L229.248 318.587H229.318L231.123 313.36H232.213L229.436 320.86C229.311 321.2 229.156 321.481 228.973 321.704C228.789 321.927 228.576 322.091 228.334 322.196C228.092 322.306 227.818 322.36 227.514 322.36Z" fill="#0D0D12" fill-opacity="0.9"/>
<path d="M25.0039 362.048C24.138 362.048 23.3656 361.836 22.6865 361.412C22.0075 360.988 21.4743 360.387 21.0869 359.607C20.6995 358.824 20.5059 357.896 20.5059 356.825C20.5059 355.75 20.6995 354.82 21.0869 354.036C21.4743 353.252 22.0075 352.648 22.6865 352.225C23.3656 351.801 24.138 351.589 25.0039 351.589C25.5143 351.589 25.9951 351.664 26.4463 351.814C26.902 351.965 27.3122 352.184 27.6768 352.471C28.0413 352.753 28.3444 353.102 28.5859 353.517C28.832 353.927 29.0007 354.392 29.0918 354.911H27.8613C27.7884 354.556 27.6608 354.243 27.4785 353.975C27.3008 353.706 27.082 353.48 26.8223 353.298C26.5671 353.111 26.2845 352.972 25.9746 352.881C25.6647 352.785 25.3411 352.737 25.0039 352.737C24.3887 352.737 23.8304 352.895 23.3291 353.209C22.8278 353.519 22.429 353.979 22.1328 354.59C21.8411 355.196 21.6953 355.941 21.6953 356.825C21.6953 357.705 21.8411 358.448 22.1328 359.054C22.429 359.66 22.8278 360.12 23.3291 360.435C23.8304 360.744 24.3887 360.899 25.0039 360.899C25.3411 360.899 25.6647 360.854 25.9746 360.763C26.2845 360.667 26.5671 360.528 26.8223 360.346C27.082 360.159 27.3008 359.931 27.4785 359.662C27.6608 359.393 27.7884 359.081 27.8613 358.726H29.0918C29.0007 359.25 28.832 359.717 28.5859 360.127C28.3444 360.537 28.0413 360.886 27.6768 361.173C27.3122 361.455 26.902 361.672 26.4463 361.822C25.9951 361.973 25.5143 362.048 25.0039 362.048ZM35.0937 358.794V354.269H36.2559V361.911H35.0937V360.612H35.0117C34.8294 361 34.5492 361.33 34.1709 361.604C33.7972 361.877 33.321 362.011 32.7422 362.007C32.2637 362.007 31.8398 361.904 31.4707 361.699C31.1016 361.49 30.8099 361.171 30.5957 360.742C30.3861 360.314 30.2812 359.774 30.2812 359.122V354.269H31.4434V359.054C31.4434 359.605 31.6006 360.047 31.915 360.38C32.234 360.713 32.6374 360.877 33.125 360.872C33.4167 360.872 33.7129 360.799 34.0137 360.653C34.319 360.503 34.5742 360.275 34.7793 359.97C34.9889 359.66 35.0937 359.268 35.0937 358.794ZM43.1602 355.991L42.1074 356.278C42.0072 356.019 41.834 355.772 41.5879 355.54C41.3464 355.303 40.9681 355.185 40.4531 355.185C39.9883 355.185 39.6009 355.294 39.291 355.513C38.9811 355.727 38.8262 355.996 38.8262 356.319C38.8262 356.611 38.931 356.843 39.1406 357.017C39.3548 357.19 39.6875 357.331 40.1387 357.44L41.2734 357.714C41.9525 357.878 42.4583 358.131 42.791 358.473C43.1283 358.814 43.2969 359.25 43.2969 359.778C43.2969 360.216 43.1715 360.608 42.9209 360.954C42.6702 361.3 42.3216 361.574 41.875 361.774C41.4284 361.975 40.9089 362.075 40.3164 362.075C39.5371 362.075 38.8923 361.904 38.3818 361.562C37.876 361.221 37.5547 360.726 37.418 360.079L38.5254 359.806C38.6302 360.216 38.8307 360.523 39.127 360.729C39.4277 360.934 39.8197 361.036 40.3027 361.036C40.8451 361.036 41.278 360.92 41.6016 360.687C41.9297 360.451 42.0937 360.17 42.0937 359.847C42.0937 359.309 41.7155 358.949 40.959 358.767L39.6875 358.466C38.9857 358.297 38.4707 358.04 38.1426 357.693C37.8145 357.347 37.6504 356.912 37.6504 356.388C37.6504 355.955 37.7712 355.572 38.0127 355.239C38.2588 354.907 38.5937 354.647 39.0176 354.46C39.4414 354.269 39.9199 354.173 40.4531 354.173C41.2142 354.173 41.8089 354.341 42.2373 354.679C42.6702 355.011 42.9779 355.449 43.1602 355.991ZM47.7266 354.269V355.267H43.7754V354.269H47.7266ZM44.9238 352.45H46.0859V359.724C46.0859 360.12 46.168 360.412 46.332 360.599C46.4961 360.781 46.7559 360.872 47.1113 360.872C47.1888 360.872 47.2686 360.868 47.3506 360.858C47.4372 360.849 47.5306 360.836 47.6309 360.817L47.877 361.87C47.7676 361.911 47.6331 361.943 47.4736 361.966C47.3187 361.993 47.1615 362.007 47.002 362.007C46.3867 362.007 45.8854 361.825 45.498 361.46C45.1152 361.095 44.9238 360.621 44.9238 360.038V352.45ZM51.8555 362.075C51.1673 362.075 50.5635 361.911 50.0439 361.583C49.5244 361.255 49.1188 360.795 48.8271 360.202C48.54 359.61 48.3965 358.922 48.3965 358.138C48.3965 357.34 48.54 356.645 48.8271 356.053C49.1188 355.456 49.5244 354.993 50.0439 354.665C50.5635 354.337 51.1673 354.173 51.8555 354.173C52.5482 354.173 53.1543 354.337 53.6738 354.665C54.1934 354.993 54.599 355.456 54.8906 356.053C55.1823 356.645 55.3281 357.34 55.3281 358.138C55.3281 358.922 55.1823 359.61 54.8906 360.202C54.599 360.795 54.1934 361.255 53.6738 361.583C53.1543 361.911 52.5482 362.075 51.8555 362.075ZM51.8555 361.022C52.3841 361.022 52.8171 360.888 53.1543 360.619C53.4915 360.35 53.7422 359.997 53.9062 359.56C54.0703 359.118 54.1523 358.644 54.1523 358.138C54.1523 357.623 54.0703 357.144 53.9062 356.702C53.7422 356.26 53.4915 355.905 53.1543 355.636C52.8171 355.362 52.3841 355.226 51.8555 355.226C51.3359 355.226 50.9076 355.362 50.5703 355.636C50.2331 355.905 49.9824 356.26 49.8184 356.702C49.6543 357.144 49.5723 357.623 49.5723 358.138C49.5723 358.644 49.6543 359.118 49.8184 359.56C49.9824 359.997 50.2331 360.35 50.5703 360.619C50.9076 360.888 51.3359 361.022 51.8555 361.022ZM56.4629 361.911V354.269H57.584V355.472H57.6934C57.8529 355.062 58.1103 354.743 58.4658 354.515C58.8213 354.287 59.2474 354.173 59.7441 354.173C60.2454 354.173 60.6624 354.287 60.9951 354.515C61.3324 354.743 61.5944 355.062 61.7812 355.472H61.8633C62.0638 355.075 62.3577 354.761 62.7451 354.528C63.137 354.291 63.6042 354.173 64.1465 354.173C64.8301 354.173 65.3906 354.387 65.8281 354.815C66.2656 355.239 66.4844 355.9 66.4844 356.798V361.911H65.3086V356.798C65.3086 356.233 65.1536 355.829 64.8437 355.588C64.5339 355.346 64.1693 355.226 63.75 355.226C63.2168 355.226 62.8021 355.39 62.5059 355.718C62.2142 356.041 62.0684 356.447 62.0684 356.935V361.911H60.8652V356.675C60.8652 356.242 60.7262 355.893 60.4482 355.629C60.1702 355.36 59.8079 355.226 59.3613 355.226C59.056 355.226 58.7712 355.308 58.5068 355.472C58.2425 355.636 58.0283 355.861 57.8643 356.148C57.7048 356.436 57.625 356.766 57.625 357.14V361.911H56.4629Z" fill="#1A1A1C" fill-opacity="0.8"/>
<rect x="20" y="370.911" width="232.5" height="34" rx="17" fill="#F0F2F6"/>
<rect x="28" y="376.911" width="22" height="22" rx="11" fill="white"/>
<rect x="29" y="377.911" width="20" height="20" rx="10" stroke="#1A1A1C" stroke-opacity="0.2" stroke-width="2"/>
<path d="M58.832 391.911V383.181H64.0703V384.118H59.8867V387.165H63.6719V388.103H59.8867V391.911H58.832ZM65.3125 391.911V383.181H70.5508V384.118H66.3672V387.165H70.1523V388.103H66.3672V391.911H65.3125ZM71.793 391.911V383.181H77.0312V384.118H72.8477V387.165H76.6328V388.103H72.8477V391.911H71.793ZM78.2734 391.911V383.181H83.5117V384.118H79.3281V387.165H83.1133V388.103H79.3281V391.911H78.2734ZM84.7539 391.911V383.181H89.9922V384.118H85.8086V387.165H89.5937V388.103H85.8086V391.911H84.7539ZM91.2344 391.911V383.181H96.4727V384.118H92.2891V387.165H96.0742V388.103H92.2891V391.911H91.2344Z" fill="#1A1A1C"/>
<rect x="184.5" y="374.911" width="64" height="26" rx="13" fill="#C6F56F"/>
<path d="M206.205 391.911H204.107V390.974H206.135C206.857 390.974 207.455 390.835 207.928 390.558C208.404 390.28 208.76 389.884 208.994 389.368C209.229 388.853 209.346 388.239 209.346 387.528C209.346 386.825 209.23 386.22 209 385.712C208.77 385.2 208.424 384.808 207.963 384.534C207.506 384.257 206.936 384.118 206.252 384.118H204.061V383.181H206.322C207.17 383.181 207.895 383.354 208.496 383.702C209.102 384.05 209.564 384.55 209.885 385.202C210.205 385.851 210.365 386.626 210.365 387.528C210.365 388.438 210.203 389.222 209.879 389.878C209.555 390.53 209.082 391.032 208.461 391.384C207.844 391.735 207.092 391.911 206.205 391.911ZM204.564 383.181V391.911H203.51V383.181H204.564ZM214.092 392.052C213.502 392.052 212.984 391.911 212.539 391.63C212.094 391.349 211.746 390.954 211.496 390.446C211.25 389.938 211.127 389.349 211.127 388.677C211.127 387.993 211.25 387.397 211.496 386.89C211.746 386.378 212.094 385.981 212.539 385.7C212.984 385.419 213.502 385.278 214.092 385.278C214.686 385.278 215.205 385.419 215.65 385.7C216.096 385.981 216.443 386.378 216.693 386.89C216.943 387.397 217.068 387.993 217.068 388.677C217.068 389.349 216.943 389.938 216.693 390.446C216.443 390.954 216.096 391.349 215.65 391.63C215.205 391.911 214.686 392.052 214.092 392.052ZM214.092 391.149C214.545 391.149 214.916 391.034 215.205 390.804C215.494 390.573 215.709 390.271 215.85 389.896C215.99 389.517 216.061 389.11 216.061 388.677C216.061 388.235 215.99 387.825 215.85 387.446C215.709 387.067 215.494 386.763 215.205 386.532C214.916 386.298 214.545 386.181 214.092 386.181C213.646 386.181 213.279 386.298 212.99 386.532C212.701 386.763 212.486 387.067 212.346 387.446C212.205 387.825 212.135 388.235 212.135 388.677C212.135 389.11 212.205 389.517 212.346 389.896C212.486 390.271 212.701 390.573 212.99 390.804C213.279 391.034 213.646 391.149 214.092 391.149ZM219.037 387.974V391.911H218.041V385.36H219.002V386.392H219.096C219.248 386.056 219.48 385.786 219.793 385.583C220.105 385.38 220.51 385.278 221.006 385.278C221.447 385.278 221.834 385.368 222.166 385.548C222.498 385.728 222.756 386.001 222.939 386.368C223.127 386.731 223.221 387.192 223.221 387.751V391.911H222.225V387.821C222.225 387.31 222.09 386.909 221.82 386.62C221.551 386.327 221.184 386.181 220.719 386.181C220.398 386.181 220.111 386.251 219.857 386.392C219.604 386.532 219.402 386.735 219.254 387.001C219.109 387.267 219.037 387.591 219.037 387.974ZM227.252 392.052C226.623 392.052 226.078 391.911 225.617 391.63C225.16 391.349 224.809 390.956 224.562 390.452C224.316 389.944 224.193 389.356 224.193 388.688C224.193 388.017 224.314 387.425 224.557 386.913C224.799 386.401 225.139 386.001 225.576 385.712C226.018 385.423 226.533 385.278 227.123 385.278C227.463 385.278 227.801 385.335 228.137 385.448C228.473 385.562 228.777 385.745 229.051 385.999C229.328 386.253 229.549 386.589 229.713 387.007C229.877 387.425 229.959 387.938 229.959 388.548V388.981H224.908V388.114H229.414L228.951 388.442C228.951 388.005 228.883 387.616 228.746 387.276C228.609 386.937 228.404 386.669 228.131 386.474C227.861 386.278 227.525 386.181 227.123 386.181C226.721 386.181 226.375 386.28 226.086 386.479C225.801 386.675 225.582 386.931 225.43 387.247C225.277 387.563 225.201 387.903 225.201 388.267V388.841C225.201 389.337 225.287 389.757 225.459 390.101C225.631 390.444 225.871 390.706 226.18 390.886C226.488 391.062 226.846 391.149 227.252 391.149C227.514 391.149 227.752 391.112 227.967 391.038C228.182 390.96 228.367 390.845 228.523 390.692C228.68 390.536 228.799 390.345 228.881 390.118L229.854 390.399C229.752 390.728 229.58 391.017 229.338 391.267C229.1 391.513 228.803 391.706 228.447 391.847C228.092 391.983 227.693 392.052 227.252 392.052Z" fill="#1A1A1C"/>
</svg>
