<svg width="130" height="48" viewBox="0 0 130 48" fill="none" xmlns="http://www.w3.org/2000/svg">
<rect y="0.910156" width="130" height="33" rx="16.5" fill="#1A1A1C"/>
<rect x="1" y="1.91016" width="128" height="31" rx="15.5" fill="url(#paint0_linear_3649_5993)"/>
<path d="M15.3262 22.9102H14.0273L17.7734 12.7246H19.0449L22.7773 22.9102H21.4922L18.4434 14.3379H18.3613L15.3262 22.9102ZM15.8047 18.9316H21.0137V20.0254H15.8047V18.9316ZM26.4277 23.0742C25.7897 23.0742 25.2269 22.9124 24.7393 22.5889C24.2516 22.2653 23.8711 21.8073 23.5977 21.2148C23.3242 20.6178 23.1875 19.916 23.1875 19.1094C23.1875 18.3073 23.3242 17.6123 23.5977 17.0244C23.8757 16.432 24.2585 15.9762 24.7461 15.6572C25.2337 15.3337 25.7988 15.1719 26.4414 15.1719C26.9427 15.1719 27.3369 15.2539 27.624 15.418C27.9157 15.582 28.139 15.7689 28.2939 15.9785C28.4489 16.1836 28.5697 16.3522 28.6562 16.4844H28.752V12.7246H29.9141V22.9102H28.793V21.7344H28.6562C28.5697 21.8711 28.4466 22.0465 28.2871 22.2607C28.1276 22.4704 27.8997 22.6595 27.6035 22.8281C27.3118 22.9922 26.9199 23.0742 26.4277 23.0742ZM26.5781 22.0215C27.0521 22.0215 27.4508 21.8984 27.7744 21.6523C28.098 21.4017 28.3441 21.0576 28.5127 20.6201C28.6813 20.1781 28.7656 19.6699 28.7656 19.0957C28.7656 18.5215 28.6836 18.0202 28.5195 17.5918C28.3555 17.1589 28.1094 16.8239 27.7812 16.5869C27.4577 16.3454 27.0566 16.2246 26.5781 16.2246C26.0859 16.2246 25.6758 16.3522 25.3477 16.6074C25.0195 16.8626 24.7734 17.2067 24.6094 17.6396C24.4453 18.0726 24.3633 18.5579 24.3633 19.0957C24.3633 19.638 24.4453 20.1302 24.6094 20.5723C24.778 21.0143 25.0264 21.3675 25.3545 21.6318C25.6826 21.8916 26.0905 22.0215 26.5781 22.0215ZM34.2891 23.0742C33.651 23.0742 33.0882 22.9124 32.6006 22.5889C32.113 22.2653 31.7324 21.8073 31.459 21.2148C31.1855 20.6178 31.0488 19.916 31.0488 19.1094C31.0488 18.3073 31.1855 17.6123 31.459 17.0244C31.737 16.432 32.1198 15.9762 32.6074 15.6572C33.0951 15.3337 33.6602 15.1719 34.3027 15.1719C34.804 15.1719 35.1982 15.2539 35.4854 15.418C35.777 15.582 36.0003 15.7689 36.1553 15.9785C36.3102 16.1836 36.431 16.3522 36.5176 16.4844H36.6133V12.7246H37.7754V22.9102H36.6543V21.7344H36.5176C36.431 21.8711 36.3079 22.0465 36.1484 22.2607C35.9889 22.4704 35.7611 22.6595 35.4648 22.8281C35.1732 22.9922 34.7812 23.0742 34.2891 23.0742ZM34.4395 22.0215C34.9134 22.0215 35.3122 21.8984 35.6357 21.6523C35.9593 21.4017 36.2054 21.0576 36.374 20.6201C36.5426 20.1781 36.627 19.6699 36.627 19.0957C36.627 18.5215 36.5449 18.0202 36.3809 17.5918C36.2168 17.1589 35.9707 16.8239 35.6426 16.5869C35.319 16.3454 34.918 16.2246 34.4395 16.2246C33.9473 16.2246 33.5371 16.3522 33.209 16.6074C32.8809 16.8626 32.6348 17.2067 32.4707 17.6396C32.3066 18.0726 32.2246 18.5579 32.2246 19.0957C32.2246 19.638 32.3066 20.1302 32.4707 20.5723C32.6393 21.0143 32.8877 21.3675 33.2158 21.6318C33.5439 21.8916 33.9518 22.0215 34.4395 22.0215ZM42.7109 12.7246H44.1875L47.6465 21.1738H47.7695L51.2285 12.7246H52.7529V22.9102H51.543V15.1719H51.4473L48.2412 22.9102H47.1338L43.9688 15.1719H43.873V22.9102H42.7109V12.7246ZM57.5039 23.0742C56.8158 23.0742 56.2119 22.9102 55.6924 22.582C55.1729 22.2539 54.7673 21.7936 54.4756 21.2012C54.1885 20.6087 54.0449 19.9206 54.0449 19.1367C54.0449 18.3392 54.1885 17.6442 54.4756 17.0518C54.7673 16.4548 55.1729 15.9922 55.6924 15.6641C56.2119 15.3359 56.8158 15.1719 57.5039 15.1719C58.1966 15.1719 58.8027 15.3359 59.3223 15.6641C59.8418 15.9922 60.2474 16.4548 60.5391 17.0518C60.8307 17.6442 60.9766 18.3392 60.9766 19.1367C60.9766 19.9206 60.8307 20.6087 60.5391 21.2012C60.2474 21.7936 59.8418 22.2539 59.3223 22.582C58.8027 22.9102 58.1966 23.0742 57.5039 23.0742ZM57.5039 22.0215C58.0326 22.0215 58.4655 21.887 58.8027 21.6182C59.14 21.3493 59.3906 20.9961 59.5547 20.5586C59.7188 20.1165 59.8008 19.6426 59.8008 19.1367C59.8008 18.6217 59.7188 18.1432 59.5547 17.7012C59.3906 17.2591 59.14 16.9036 58.8027 16.6348C58.4655 16.3613 58.0326 16.2246 57.5039 16.2246C56.9844 16.2246 56.556 16.3613 56.2188 16.6348C55.8815 16.9036 55.6309 17.2591 55.4668 17.7012C55.3027 18.1432 55.2207 18.6217 55.2207 19.1367C55.2207 19.6426 55.3027 20.1165 55.4668 20.5586C55.6309 20.9961 55.8815 21.3493 56.2188 21.6182C56.556 21.887 56.9844 22.0215 57.5039 22.0215ZM62.1113 22.9102V15.2676H63.2324V16.4297H63.3145C63.4557 16.0514 63.7087 15.7461 64.0732 15.5137C64.4424 15.2767 64.8548 15.1582 65.3105 15.1582C65.3971 15.1582 65.5042 15.1605 65.6318 15.165C65.7594 15.165 65.8574 15.1673 65.9258 15.1719V16.3613C65.8848 16.3522 65.7936 16.3385 65.6523 16.3203C65.5111 16.3021 65.3607 16.293 65.2012 16.293C64.832 16.293 64.5016 16.3704 64.21 16.5254C63.9183 16.6803 63.6882 16.8923 63.5195 17.1611C63.3555 17.43 63.2734 17.7376 63.2734 18.084V22.9102H62.1113ZM69.6309 23.0742C68.8971 23.0742 68.2614 22.9102 67.7236 22.582C67.1904 22.2539 66.7803 21.7959 66.4932 21.208C66.2061 20.6156 66.0625 19.9297 66.0625 19.1504C66.0625 18.3665 66.2038 17.6761 66.4863 17.0791C66.7689 16.4821 67.1654 16.015 67.6758 15.6777C68.1908 15.3405 68.7923 15.1719 69.4805 15.1719C69.877 15.1719 70.2712 15.238 70.6631 15.3701C71.055 15.5023 71.4105 15.7165 71.7295 16.0127C72.0531 16.3089 72.3105 16.7008 72.502 17.1885C72.6934 17.6761 72.7891 18.2754 72.7891 18.9863V19.4922H66.8965V18.4805H72.1533L71.6133 18.8633C71.6133 18.3529 71.5335 17.8994 71.374 17.5029C71.2145 17.1064 70.9753 16.7943 70.6562 16.5664C70.3418 16.3385 69.9499 16.2246 69.4805 16.2246C69.0111 16.2246 68.6077 16.3408 68.2705 16.5732C67.9378 16.8011 67.6826 17.0996 67.5049 17.4688C67.3271 17.8379 67.2383 18.2344 67.2383 18.6582V19.3281C67.2383 19.9069 67.3385 20.3968 67.5391 20.7979C67.7396 21.1989 68.0199 21.5042 68.3799 21.7139C68.7399 21.9189 69.1569 22.0215 69.6309 22.0215C69.9362 22.0215 70.2142 21.9782 70.4648 21.8916C70.7155 21.8005 70.932 21.666 71.1143 21.4883C71.2965 21.306 71.4355 21.0827 71.5312 20.8184L72.666 21.1465C72.5475 21.5293 72.347 21.8665 72.0645 22.1582C71.7865 22.4453 71.4401 22.6709 71.0254 22.835C70.6107 22.9945 70.1458 23.0742 69.6309 23.0742ZM80.0488 23.0742C79.4108 23.0742 78.848 22.9124 78.3604 22.5889C77.8727 22.2653 77.4922 21.8073 77.2188 21.2148C76.9453 20.6178 76.8086 19.916 76.8086 19.1094C76.8086 18.3073 76.9453 17.6123 77.2188 17.0244C77.4967 16.432 77.8796 15.9762 78.3672 15.6572C78.8548 15.3337 79.4199 15.1719 80.0625 15.1719C80.5638 15.1719 80.958 15.2539 81.2451 15.418C81.5368 15.582 81.7601 15.7689 81.915 15.9785C82.07 16.1836 82.1908 16.3522 82.2773 16.4844H82.373V12.7246H83.5352V22.9102H82.4141V21.7344H82.2773C82.1908 21.8711 82.0677 22.0465 81.9082 22.2607C81.7487 22.4704 81.5208 22.6595 81.2246 22.8281C80.9329 22.9922 80.541 23.0742 80.0488 23.0742ZM80.1992 22.0215C80.6732 22.0215 81.0719 21.8984 81.3955 21.6523C81.7191 21.4017 81.9652 21.0576 82.1338 20.6201C82.3024 20.1781 82.3867 19.6699 82.3867 19.0957C82.3867 18.5215 82.3047 18.0202 82.1406 17.5918C81.9766 17.1589 81.7305 16.8239 81.4023 16.5869C81.0788 16.3454 80.6777 16.2246 80.1992 16.2246C79.707 16.2246 79.2969 16.3522 78.9688 16.6074C78.6406 16.8626 78.3945 17.2067 78.2305 17.6396C78.0664 18.0726 77.9844 18.5579 77.9844 19.0957C77.9844 19.638 78.0664 20.1302 78.2305 20.5723C78.3991 21.0143 78.6475 21.3675 78.9756 21.6318C79.3037 21.8916 79.7116 22.0215 80.1992 22.0215ZM88.2383 23.0742C87.5046 23.0742 86.8688 22.9102 86.3311 22.582C85.7979 22.2539 85.3877 21.7959 85.1006 21.208C84.8135 20.6156 84.6699 19.9297 84.6699 19.1504C84.6699 18.3665 84.8112 17.6761 85.0938 17.0791C85.3763 16.4821 85.7728 16.015 86.2832 15.6777C86.7982 15.3405 87.3997 15.1719 88.0879 15.1719C88.4844 15.1719 88.8786 15.238 89.2705 15.3701C89.6624 15.5023 90.0179 15.7165 90.3369 16.0127C90.6605 16.3089 90.918 16.7008 91.1094 17.1885C91.3008 17.6761 91.3965 18.2754 91.3965 18.9863V19.4922H85.5039V18.4805H90.7607L90.2207 18.8633C90.2207 18.3529 90.141 17.8994 89.9814 17.5029C89.8219 17.1064 89.5827 16.7943 89.2637 16.5664C88.9492 16.3385 88.5573 16.2246 88.0879 16.2246C87.6185 16.2246 87.2152 16.3408 86.8779 16.5732C86.5452 16.8011 86.29 17.0996 86.1123 17.4688C85.9346 17.8379 85.8457 18.2344 85.8457 18.6582V19.3281C85.8457 19.9069 85.946 20.3968 86.1465 20.7979C86.347 21.1989 86.6273 21.5042 86.9873 21.7139C87.3473 21.9189 87.7643 22.0215 88.2383 22.0215C88.5436 22.0215 88.8216 21.9782 89.0723 21.8916C89.3229 21.8005 89.5394 21.666 89.7217 21.4883C89.904 21.306 90.043 21.0827 90.1387 20.8184L91.2734 21.1465C91.1549 21.5293 90.9544 21.8665 90.6719 22.1582C90.3939 22.4453 90.0475 22.6709 89.6328 22.835C89.2181 22.9945 88.7533 23.0742 88.2383 23.0742ZM95.8125 15.2676V16.2656H91.8613V15.2676H95.8125ZM93.0098 13.4492H94.1719V20.7227C94.1719 21.1191 94.2539 21.4108 94.418 21.5977C94.582 21.7799 94.8418 21.8711 95.1973 21.8711C95.2747 21.8711 95.3545 21.8665 95.4365 21.8574C95.5231 21.8483 95.6165 21.8346 95.7168 21.8164L95.9629 22.8691C95.8535 22.9102 95.7191 22.9421 95.5596 22.9648C95.4046 22.9922 95.2474 23.0059 95.0879 23.0059C94.4727 23.0059 93.9714 22.8236 93.584 22.459C93.2012 22.0944 93.0098 21.6204 93.0098 21.0371V13.4492ZM99.1758 23.0879C98.6927 23.0879 98.2529 22.9967 97.8564 22.8145C97.46 22.6276 97.1455 22.3587 96.9131 22.0078C96.6807 21.6569 96.5645 21.2331 96.5645 20.7363C96.5645 20.2988 96.651 19.9456 96.8242 19.6768C96.9974 19.4033 97.2275 19.1891 97.5146 19.0342C97.8063 18.8747 98.1253 18.7562 98.4717 18.6787C98.8226 18.6012 99.1758 18.5397 99.5312 18.4941C99.9961 18.4349 100.372 18.3893 100.659 18.3574C100.951 18.3255 101.163 18.2708 101.295 18.1934C101.432 18.1159 101.5 17.9837 101.5 17.7969V17.7559C101.5 17.2682 101.366 16.89 101.097 16.6211C100.832 16.3477 100.429 16.2109 99.8867 16.2109C99.3307 16.2109 98.8932 16.334 98.5742 16.5801C98.2552 16.8216 98.0319 17.0814 97.9043 17.3594L96.7832 16.9629C96.9837 16.498 97.2503 16.1357 97.583 15.876C97.9202 15.6162 98.2848 15.4339 98.6768 15.3291C99.0732 15.2243 99.4629 15.1719 99.8457 15.1719C100.092 15.1719 100.374 15.2015 100.693 15.2607C101.012 15.3154 101.322 15.4339 101.623 15.6162C101.928 15.7939 102.179 16.0651 102.375 16.4297C102.576 16.7897 102.676 17.2728 102.676 17.8789V22.9102H101.5V21.8711H101.445C101.368 22.0352 101.236 22.2129 101.049 22.4043C100.862 22.5911 100.614 22.7529 100.304 22.8896C99.9984 23.0218 99.6224 23.0879 99.1758 23.0879ZM99.3535 22.0352C99.8184 22.0352 100.21 21.944 100.529 21.7617C100.848 21.5794 101.09 21.3447 101.254 21.0576C101.418 20.766 101.5 20.4629 101.5 20.1484V19.0684C101.45 19.1276 101.34 19.1823 101.172 19.2324C101.008 19.278 100.816 19.319 100.598 19.3555C100.383 19.3919 100.174 19.4238 99.9688 19.4512C99.7637 19.474 99.5996 19.4922 99.4766 19.5059C99.1712 19.5469 98.8864 19.613 98.6221 19.7041C98.3577 19.7907 98.1436 19.9206 97.9795 20.0938C97.82 20.2669 97.7402 20.5039 97.7402 20.8047C97.7402 21.2103 97.8906 21.5179 98.1914 21.7275C98.4967 21.9326 98.8841 22.0352 99.3535 22.0352ZM104.18 22.9102V15.2676H105.342V22.9102H104.18ZM104.768 13.9961C104.54 13.9961 104.344 13.9186 104.18 13.7637C104.016 13.6087 103.934 13.4219 103.934 13.2031C103.934 12.9844 104.016 12.7975 104.18 12.6426C104.344 12.4876 104.54 12.4102 104.768 12.4102C104.995 12.4102 105.191 12.4876 105.355 12.6426C105.52 12.7975 105.602 12.9844 105.602 13.2031C105.602 13.4219 105.52 13.6087 105.355 13.7637C105.191 13.9186 104.995 13.9961 104.768 13.9961ZM108.008 12.7246V22.9102H106.846V12.7246H108.008ZM114.912 16.9902L113.859 17.2773C113.759 17.0176 113.586 16.7715 113.34 16.5391C113.098 16.3021 112.72 16.1836 112.205 16.1836C111.74 16.1836 111.353 16.293 111.043 16.5117C110.733 16.7259 110.578 16.9948 110.578 17.3184C110.578 17.61 110.683 17.8424 110.893 18.0156C111.107 18.1888 111.439 18.3301 111.891 18.4395L113.025 18.7129C113.704 18.877 114.21 19.1299 114.543 19.4717C114.88 19.8135 115.049 20.2487 115.049 20.7773C115.049 21.2148 114.924 21.6068 114.673 21.9531C114.422 22.2995 114.074 22.5729 113.627 22.7734C113.18 22.974 112.661 23.0742 112.068 23.0742C111.289 23.0742 110.644 22.9033 110.134 22.5615C109.628 22.2197 109.307 21.7253 109.17 21.0781L110.277 20.8047C110.382 21.2148 110.583 21.5225 110.879 21.7275C111.18 21.9326 111.572 22.0352 112.055 22.0352C112.597 22.0352 113.03 21.9189 113.354 21.6865C113.682 21.4495 113.846 21.1693 113.846 20.8457C113.846 20.3079 113.467 19.9479 112.711 19.7656L111.439 19.4648C110.738 19.2962 110.223 19.0387 109.895 18.6924C109.566 18.346 109.402 17.9108 109.402 17.3867C109.402 16.9538 109.523 16.571 109.765 16.2383C110.011 15.9056 110.346 15.6458 110.77 15.459C111.193 15.2676 111.672 15.1719 112.205 15.1719C112.966 15.1719 113.561 15.3405 113.989 15.6777C114.422 16.0104 114.73 16.4479 114.912 16.9902Z" fill="white"/>
<g clip-path="url(#clip0_3649_5993)">
<path d="M61.7133 27.9603L80.5956 34.2605C81.1297 34.4388 81.1297 34.736 80.6253 34.944L71.6441 38.5398L67.1337 47.5641C66.8963 48.0396 66.5699 48.0198 66.4215 47.4948L61.0407 28.5943C60.8924 28.0792 61.199 27.7919 61.7133 27.9603Z" fill="#C6F56F"/>
</g>
<defs>
<linearGradient id="paint0_linear_3649_5993" x1="65" y1="1.91016" x2="65" y2="32.9102" gradientUnits="userSpaceOnUse">
<stop stop-color="white" stop-opacity="0.05"/>
<stop offset="1" stop-color="white" stop-opacity="0"/>
</linearGradient>
<clipPath id="clip0_3649_5993">
<rect width="20" height="20" fill="white" transform="matrix(-1 0 0 1 81 27.9102)"/>
</clipPath>
</defs>
</svg>
