<svg width="252" height="113" viewBox="0 0 252 113" fill="none" xmlns="http://www.w3.org/2000/svg">
<rect width="251" height="112" transform="translate(0.898438 0.780273)" fill="white"/>
<path d="M25.2129 28.9141V27.5947H33.1016V28.9141H29.9297V37.7803H28.3984V28.9141H25.2129ZM36.3213 37.9375C35.5739 37.9375 34.9268 37.7757 34.3799 37.4521C33.833 37.1286 33.4115 36.6729 33.1152 36.085C32.8236 35.4925 32.6777 34.8021 32.6777 34.0137C32.6777 33.2298 32.8213 32.5394 33.1084 31.9424C33.4001 31.3454 33.8079 30.8805 34.332 30.5479C34.8607 30.2106 35.4805 30.042 36.1914 30.042C36.6243 30.042 37.0436 30.1126 37.4492 30.2539C37.8548 30.3952 38.2194 30.6185 38.543 30.9238C38.8665 31.2292 39.1217 31.6257 39.3086 32.1133C39.5 32.6009 39.5957 33.1888 39.5957 33.877V34.4102H33.5186V33.2959H38.8301L38.1396 33.665C38.1396 33.1956 38.0667 32.7809 37.9209 32.4209C37.7751 32.0609 37.5563 31.7806 37.2646 31.5801C36.9775 31.375 36.6198 31.2725 36.1914 31.2725C35.763 31.2725 35.3962 31.375 35.0908 31.5801C34.79 31.7852 34.5599 32.0563 34.4004 32.3936C34.2409 32.7308 34.1611 33.0999 34.1611 33.501V34.2598C34.1611 34.7839 34.2523 35.2282 34.4346 35.5928C34.6169 35.9574 34.8698 36.2354 35.1934 36.4268C35.5215 36.6182 35.902 36.7139 36.335 36.7139C36.6175 36.7139 36.8727 36.6729 37.1006 36.5908C37.333 36.5088 37.5335 36.3857 37.7021 36.2217C37.8708 36.0576 37.9984 35.8548 38.085 35.6133L39.4932 35.8799C39.3792 36.29 39.1787 36.6501 38.8916 36.96C38.6045 37.2699 38.2422 37.5114 37.8047 37.6846C37.3717 37.8532 36.8773 37.9375 36.3213 37.9375ZM41.5029 30.1377L43.1777 33.1182L44.8799 30.1377H46.5137L44.1348 33.9658L46.5273 37.7803H44.9072L43.1777 34.9229L41.4756 37.7803H39.8418L42.2139 33.9658L39.8691 30.1377H41.5029ZM51.0254 30.1377V31.334H46.8555V30.1377H51.0254ZM47.9697 28.3193H49.4531V35.5381C49.4531 35.889 49.526 36.1465 49.6719 36.3105C49.8177 36.4701 50.0524 36.5498 50.376 36.5498C50.4535 36.5498 50.5355 36.5452 50.6221 36.5361C50.7132 36.527 50.8044 36.5133 50.8955 36.4951L51.1758 37.7256C51.0254 37.7757 50.8613 37.8145 50.6836 37.8418C50.5059 37.8691 50.3281 37.8828 50.1504 37.8828C49.4896 37.8828 48.9609 37.6982 48.5645 37.3291C48.168 36.9554 47.9697 36.4587 47.9697 35.8389V28.3193Z" fill="#1A1A1C"/>
<rect x="13.3984" y="57.2803" width="226" height="43" rx="7.5" stroke="#D7DDE5"/>
<path d="M23.8008 84.2803V74.0947H25.0312V78.6338H30.459V74.0947H31.6895V84.2803H30.459V79.7275H25.0312V84.2803H23.8008ZM36.543 84.4443C35.8092 84.4443 35.1735 84.2803 34.6357 83.9521C34.1025 83.624 33.6924 83.166 33.4053 82.5781C33.1182 81.9857 32.9746 81.2998 32.9746 80.5205C32.9746 79.7367 33.1159 79.0462 33.3984 78.4492C33.681 77.8522 34.0775 77.3851 34.5879 77.0479C35.1029 76.7106 35.7044 76.542 36.3926 76.542C36.7891 76.542 37.1833 76.6081 37.5752 76.7402C37.9671 76.8724 38.3226 77.0866 38.6416 77.3828C38.9652 77.679 39.2227 78.071 39.4141 78.5586C39.6055 79.0462 39.7012 79.6455 39.7012 80.3564V80.8623H33.8086V79.8506H39.0654L38.5254 80.2334C38.5254 79.723 38.4456 79.2695 38.2861 78.873C38.1266 78.4766 37.8874 78.1644 37.5684 77.9365C37.2539 77.7087 36.862 77.5947 36.3926 77.5947C35.9232 77.5947 35.5199 77.7109 35.1826 77.9434C34.8499 78.1712 34.5947 78.4697 34.417 78.8389C34.2393 79.208 34.1504 79.6045 34.1504 80.0283V80.6982C34.1504 81.277 34.2507 81.7669 34.4512 82.168C34.6517 82.569 34.932 82.8743 35.292 83.084C35.652 83.2891 36.069 83.3916 36.543 83.3916C36.8483 83.3916 37.1263 83.3483 37.377 83.2617C37.6276 83.1706 37.8441 83.0361 38.0264 82.8584C38.2087 82.6761 38.3477 82.4528 38.4434 82.1885L39.5781 82.5166C39.4596 82.8994 39.2591 83.2367 38.9766 83.5283C38.6986 83.8154 38.3522 84.041 37.9375 84.2051C37.5228 84.3646 37.0579 84.4443 36.543 84.4443ZM41.9707 74.0947V84.2803H40.8086V74.0947H41.9707ZM44.6367 74.0947V84.2803H43.4746V74.0947H44.6367ZM46.1406 84.2803V76.6377H47.3027V84.2803H46.1406ZM46.7285 75.3662C46.5007 75.3662 46.3047 75.2887 46.1406 75.1338C45.9766 74.9788 45.8945 74.792 45.8945 74.5732C45.8945 74.3545 45.9766 74.1676 46.1406 74.0127C46.3047 73.8577 46.5007 73.7803 46.7285 73.7803C46.9564 73.7803 47.1523 73.8577 47.3164 74.0127C47.4805 74.1676 47.5625 74.3545 47.5625 74.5732C47.5625 74.792 47.4805 74.9788 47.3164 75.1338C47.1523 75.2887 46.9564 75.3662 46.7285 75.3662ZM49.6816 76.6377L51.5 79.7686L53.332 76.6377H54.6855L52.2246 80.4658L54.6855 84.2803H53.332L51.5 81.3135L49.6816 84.2803H48.3281L50.748 80.4658L48.3281 76.6377H49.6816Z" fill="#1A1A1C"/>
<path d="M222.902 75.9505C222.715 75.7642 222.461 75.6597 222.197 75.6597C221.933 75.6597 221.679 75.7642 221.492 75.9505L217.902 79.4905L214.362 75.9505C214.175 75.7642 213.921 75.6597 213.657 75.6597C213.393 75.6597 213.139 75.7642 212.952 75.9505C212.858 76.0434 212.784 76.154 212.733 76.2759C212.682 76.3977 212.656 76.5284 212.656 76.6605C212.656 76.7925 212.682 76.9232 212.733 77.045C212.784 77.1669 212.858 77.2775 212.952 77.3705L217.192 81.6105C217.285 81.7042 217.396 81.7786 217.517 81.8294C217.639 81.8801 217.77 81.9063 217.902 81.9063C218.034 81.9063 218.165 81.8801 218.287 81.8294C218.408 81.7786 218.519 81.7042 218.612 81.6105L222.902 77.3705C222.996 77.2775 223.07 77.1669 223.121 77.045C223.172 76.9232 223.198 76.7925 223.198 76.6605C223.198 76.5284 223.172 76.3977 223.121 76.2759C223.07 76.154 222.996 76.0434 222.902 75.9505Z" fill="black"/>
</svg>
