<svg width="112" height="53" viewBox="0 0 112 53" fill="none" xmlns="http://www.w3.org/2000/svg">
<rect x="10" y="11.9102" width="102" height="41" rx="20.5" fill="#C6F56F"/>
<path d="M43.3262 37.9102H42.0273L45.7734 27.7246H47.0449L50.7773 37.9102H49.4922L46.4434 29.3379H46.3613L43.3262 37.9102ZM43.8047 33.9316H49.0137V35.0254H43.8047V33.9316ZM54.4277 38.0742C53.7897 38.0742 53.2269 37.9124 52.7393 37.5889C52.2516 37.2653 51.8711 36.8073 51.5977 36.2148C51.3242 35.6178 51.1875 34.916 51.1875 34.1094C51.1875 33.3073 51.3242 32.6123 51.5977 32.0244C51.8757 31.432 52.2585 30.9762 52.7461 30.6572C53.2337 30.3337 53.7988 30.1719 54.4414 30.1719C54.9427 30.1719 55.3369 30.2539 55.624 30.418C55.9157 30.582 56.139 30.7689 56.2939 30.9785C56.4489 31.1836 56.5697 31.3522 56.6562 31.4844H56.752V27.7246H57.9141V37.9102H56.793V36.7344H56.6562C56.5697 36.8711 56.4466 37.0465 56.2871 37.2607C56.1276 37.4704 55.8997 37.6595 55.6035 37.8281C55.3118 37.9922 54.9199 38.0742 54.4277 38.0742ZM54.5781 37.0215C55.0521 37.0215 55.4508 36.8984 55.7744 36.6523C56.098 36.4017 56.3441 36.0576 56.5127 35.6201C56.6813 35.1781 56.7656 34.6699 56.7656 34.0957C56.7656 33.5215 56.6836 33.0202 56.5195 32.5918C56.3555 32.1589 56.1094 31.8239 55.7812 31.5869C55.4577 31.3454 55.0566 31.2246 54.5781 31.2246C54.0859 31.2246 53.6758 31.3522 53.3477 31.6074C53.0195 31.8626 52.7734 32.2067 52.6094 32.6396C52.4453 33.0726 52.3633 33.5579 52.3633 34.0957C52.3633 34.638 52.4453 35.1302 52.6094 35.5723C52.778 36.0143 53.0264 36.3675 53.3545 36.6318C53.6826 36.8916 54.0905 37.0215 54.5781 37.0215ZM59.418 30.2676H60.5801V38.4707C60.5846 38.9401 60.5049 39.3457 60.3408 39.6875C60.1813 40.0339 59.9398 40.3005 59.6162 40.4873C59.2926 40.6742 58.8848 40.7676 58.3926 40.7676H58.1602V39.6738H58.3789C58.7389 39.6738 59.001 39.569 59.165 39.3594C59.3291 39.1543 59.4134 38.8581 59.418 38.4707V30.2676ZM59.9922 28.9961C59.7643 28.9961 59.5684 28.9186 59.4043 28.7637C59.2402 28.6087 59.1582 28.4219 59.1582 28.2031C59.1582 27.9844 59.2402 27.7975 59.4043 27.6426C59.5684 27.4876 59.7643 27.4102 59.9922 27.4102C60.2201 27.4102 60.416 27.4876 60.5801 27.6426C60.7441 27.7975 60.8262 27.9844 60.8262 28.2031C60.8262 28.4219 60.7441 28.6087 60.5801 28.7637C60.416 28.9186 60.2201 28.9961 59.9922 28.9961ZM66.8965 34.793V30.2676H68.0586V37.9102H66.8965V36.6113H66.8145C66.6322 36.9987 66.3519 37.3291 65.9736 37.6025C65.5999 37.876 65.1237 38.0104 64.5449 38.0059C64.0664 38.0059 63.6426 37.9033 63.2734 37.6982C62.9043 37.4886 62.6126 37.1696 62.3984 36.7412C62.1888 36.3128 62.084 35.7728 62.084 35.1211V30.2676H63.2461V35.0527C63.2461 35.6042 63.4033 36.0462 63.7178 36.3789C64.0368 36.7116 64.4401 36.8757 64.9277 36.8711C65.2194 36.8711 65.5156 36.7982 65.8164 36.6523C66.1217 36.502 66.377 36.2741 66.582 35.9688C66.7917 35.6589 66.8965 35.2669 66.8965 34.793ZM74.9629 31.9902L73.9102 32.2773C73.8099 32.0176 73.6367 31.7715 73.3906 31.5391C73.1491 31.3021 72.7708 31.1836 72.2559 31.1836C71.791 31.1836 71.4036 31.293 71.0938 31.5117C70.7839 31.7259 70.6289 31.9948 70.6289 32.3184C70.6289 32.61 70.7337 32.8424 70.9434 33.0156C71.1576 33.1888 71.4902 33.3301 71.9414 33.4395L73.0762 33.7129C73.7552 33.877 74.2611 34.1299 74.5938 34.4717C74.931 34.8135 75.0996 35.2487 75.0996 35.7773C75.0996 36.2148 74.9743 36.6068 74.7236 36.9531C74.473 37.2995 74.1243 37.5729 73.6777 37.7734C73.2311 37.974 72.7116 38.0742 72.1191 38.0742C71.3398 38.0742 70.695 37.9033 70.1846 37.5615C69.6787 37.2197 69.3574 36.7253 69.2207 36.0781L70.3281 35.8047C70.4329 36.2148 70.6335 36.5225 70.9297 36.7275C71.2305 36.9326 71.6224 37.0352 72.1055 37.0352C72.6478 37.0352 73.0807 36.9189 73.4043 36.6865C73.7324 36.4495 73.8965 36.1693 73.8965 35.8457C73.8965 35.3079 73.5182 34.9479 72.7617 34.7656L71.4902 34.4648C70.7884 34.2962 70.2734 34.0387 69.9453 33.6924C69.6172 33.346 69.4531 32.9108 69.4531 32.3867C69.4531 31.9538 69.5739 31.571 69.8154 31.2383C70.0615 30.9056 70.3965 30.6458 70.8203 30.459C71.2441 30.2676 71.7227 30.1719 72.2559 30.1719C73.0169 30.1719 73.6117 30.3405 74.04 30.6777C74.473 31.0104 74.7806 31.4479 74.9629 31.9902ZM79.5293 30.2676V31.2656H75.5781V30.2676H79.5293ZM76.7266 28.4492H77.8887V35.7227C77.8887 36.1191 77.9707 36.4108 78.1348 36.5977C78.2988 36.7799 78.5586 36.8711 78.9141 36.8711C78.9915 36.8711 79.0713 36.8665 79.1533 36.8574C79.2399 36.8483 79.3333 36.8346 79.4336 36.8164L79.6797 37.8691C79.5703 37.9102 79.4359 37.9421 79.2764 37.9648C79.1214 37.9922 78.9642 38.0059 78.8047 38.0059C78.1895 38.0059 77.6882 37.8236 77.3008 37.459C76.918 37.0944 76.7266 36.6204 76.7266 36.0371V28.4492Z" fill="#1A1A1C"/>
<g clip-path="url(#clip0_3495_21481)">
<path d="M0.713322 0.960333L19.5956 7.26048C20.1297 7.43879 20.1297 7.73596 19.6253 7.94399L10.6441 11.5398L6.1337 20.5641C5.89631 21.0396 5.5699 21.0198 5.42153 20.4948L0.04072 1.59431C-0.107647 1.0792 0.19898 0.791933 0.713322 0.960333Z" fill="#1A1A1C"/>
</g>
<defs>
<clipPath id="clip0_3495_21481">
<rect width="20" height="20" fill="white" transform="matrix(-1 0 0 1 20 0.910156)"/>
</clipPath>
</defs>
</svg>
