<svg width="192" height="52" viewBox="0 0 192 52" fill="none" xmlns="http://www.w3.org/2000/svg">
<rect y="10.9102" width="180" height="41" rx="20.5" fill="#F9EB57"/>
<path d="M34.7959 36.9102L32.0205 26.7246H33.2646L35.3975 35.0234H35.4932L37.667 26.7246H39.0615L41.2217 35.0234H41.3311L43.4502 26.7246H44.708L41.9189 36.9102H40.6475L38.4053 28.8027H38.3232L36.0811 36.9102H34.7959ZM45.002 36.9102V29.2676H46.123V30.4297H46.2051C46.3464 30.0514 46.5993 29.7461 46.9639 29.5137C47.333 29.2767 47.7454 29.1582 48.2012 29.1582C48.2878 29.1582 48.3949 29.1605 48.5225 29.165C48.6501 29.165 48.748 29.1673 48.8164 29.1719V30.3613C48.7754 30.3522 48.6842 30.3385 48.543 30.3203C48.4017 30.3021 48.2513 30.293 48.0918 30.293C47.7227 30.293 47.3923 30.3704 47.1006 30.5254C46.8089 30.6803 46.5788 30.8923 46.4102 31.1611C46.2461 31.43 46.1641 31.7376 46.1641 32.084V36.9102H45.002ZM49.5547 36.9102V29.2676H50.7168V36.9102H49.5547ZM50.1426 27.9961C49.9147 27.9961 49.7188 27.9186 49.5547 27.7637C49.3906 27.6087 49.3086 27.4219 49.3086 27.2031C49.3086 26.9844 49.3906 26.7975 49.5547 26.6426C49.7188 26.4876 49.9147 26.4102 50.1426 26.4102C50.3704 26.4102 50.5664 26.4876 50.7305 26.6426C50.8945 26.7975 50.9766 26.9844 50.9766 27.2031C50.9766 27.4219 50.8945 27.6087 50.7305 27.7637C50.5664 27.9186 50.3704 27.9961 50.1426 27.9961ZM55.5293 29.2676V30.2656H51.5781V29.2676H55.5293ZM52.7266 27.4492H53.8887V34.7227C53.8887 35.1191 53.9707 35.4108 54.1348 35.5977C54.2988 35.7799 54.5586 35.8711 54.9141 35.8711C54.9915 35.8711 55.0713 35.8665 55.1533 35.8574C55.2399 35.8483 55.3333 35.8346 55.4336 35.8164L55.6797 36.8691C55.5703 36.9102 55.4359 36.9421 55.2764 36.9648C55.1214 36.9922 54.9642 37.0059 54.8047 37.0059C54.1895 37.0059 53.6882 36.8236 53.3008 36.459C52.918 36.0944 52.7266 35.6204 52.7266 35.0371V27.4492ZM59.7676 37.0742C59.0339 37.0742 58.3981 36.9102 57.8604 36.582C57.3271 36.2539 56.917 35.7959 56.6299 35.208C56.3428 34.6156 56.1992 33.9297 56.1992 33.1504C56.1992 32.3665 56.3405 31.6761 56.623 31.0791C56.9056 30.4821 57.3021 30.015 57.8125 29.6777C58.3275 29.3405 58.929 29.1719 59.6172 29.1719C60.0137 29.1719 60.4079 29.238 60.7998 29.3701C61.1917 29.5023 61.5472 29.7165 61.8662 30.0127C62.1898 30.3089 62.4473 30.7008 62.6387 31.1885C62.8301 31.6761 62.9258 32.2754 62.9258 32.9863V33.4922H57.0332V32.4805H62.29L61.75 32.8633C61.75 32.3529 61.6702 31.8994 61.5107 31.5029C61.3512 31.1064 61.112 30.7943 60.793 30.5664C60.4785 30.3385 60.0866 30.2246 59.6172 30.2246C59.1478 30.2246 58.7445 30.3408 58.4072 30.5732C58.0745 30.8011 57.8193 31.0996 57.6416 31.4688C57.4639 31.8379 57.375 32.2344 57.375 32.6582V33.3281C57.375 33.9069 57.4753 34.3968 57.6758 34.7979C57.8763 35.1989 58.1566 35.5042 58.5166 35.7139C58.8766 35.9189 59.2936 36.0215 59.7676 36.0215C60.0729 36.0215 60.3509 35.9782 60.6016 35.8916C60.8522 35.8005 61.0687 35.666 61.251 35.4883C61.4333 35.306 61.5723 35.0827 61.668 34.8184L62.8027 35.1465C62.6842 35.5293 62.4837 35.8665 62.2012 36.1582C61.9232 36.4453 61.5768 36.6709 61.1621 36.835C60.7474 36.9945 60.2826 37.0742 59.7676 37.0742ZM68.0664 39.7676C67.8659 39.7721 67.6882 39.7585 67.5332 39.7266C67.3783 39.6947 67.2689 39.6628 67.2051 39.6309L67.5059 38.6055L67.6221 38.6328C68.014 38.724 68.3421 38.7035 68.6064 38.5713C68.8753 38.4437 69.11 38.1042 69.3105 37.5527L69.5293 36.9512L66.7129 29.2676H67.9844L70.0898 35.3652H70.1719L72.2773 29.2676H73.5488L70.3086 38.0176C70.1628 38.4141 69.9827 38.7422 69.7686 39.002C69.5544 39.2617 69.306 39.4531 69.0234 39.5762C68.7409 39.7038 68.4219 39.7676 68.0664 39.7676ZM77.2676 37.0742C76.5794 37.0742 75.9756 36.9102 75.4561 36.582C74.9365 36.2539 74.5309 35.7936 74.2393 35.2012C73.9521 34.6087 73.8086 33.9206 73.8086 33.1367C73.8086 32.3392 73.9521 31.6442 74.2393 31.0518C74.5309 30.4548 74.9365 29.9922 75.4561 29.6641C75.9756 29.3359 76.5794 29.1719 77.2676 29.1719C77.9603 29.1719 78.5664 29.3359 79.0859 29.6641C79.6055 29.9922 80.0111 30.4548 80.3027 31.0518C80.5944 31.6442 80.7402 32.3392 80.7402 33.1367C80.7402 33.9206 80.5944 34.6087 80.3027 35.2012C80.0111 35.7936 79.6055 36.2539 79.0859 36.582C78.5664 36.9102 77.9603 37.0742 77.2676 37.0742ZM77.2676 36.0215C77.7962 36.0215 78.2292 35.887 78.5664 35.6182C78.9036 35.3493 79.1543 34.9961 79.3184 34.5586C79.4824 34.1165 79.5645 33.6426 79.5645 33.1367C79.5645 32.6217 79.4824 32.1432 79.3184 31.7012C79.1543 31.2591 78.9036 30.9036 78.5664 30.6348C78.2292 30.3613 77.7962 30.2246 77.2676 30.2246C76.748 30.2246 76.3197 30.3613 75.9824 30.6348C75.6452 30.9036 75.3945 31.2591 75.2305 31.7012C75.0664 32.1432 74.9844 32.6217 74.9844 33.1367C74.9844 33.6426 75.0664 34.1165 75.2305 34.5586C75.3945 34.9961 75.6452 35.3493 75.9824 35.6182C76.3197 35.887 76.748 36.0215 77.2676 36.0215ZM86.6875 33.793V29.2676H87.8496V36.9102H86.6875V35.6113H86.6055C86.4232 35.9987 86.1429 36.3291 85.7646 36.6025C85.391 36.876 84.9147 37.0104 84.3359 37.0059C83.8574 37.0059 83.4336 36.9033 83.0645 36.6982C82.6953 36.4886 82.4036 36.1696 82.1895 35.7412C81.9798 35.3128 81.875 34.7728 81.875 34.1211V29.2676H83.0371V34.0527C83.0371 34.6042 83.1943 35.0462 83.5088 35.3789C83.8278 35.7116 84.2311 35.8757 84.7188 35.8711C85.0104 35.8711 85.3066 35.7982 85.6074 35.6523C85.9128 35.502 86.168 35.2741 86.373 34.9688C86.5827 34.6589 86.6875 34.2669 86.6875 33.793ZM89.3535 36.9102V29.2676H90.4746V30.4297H90.5566C90.6979 30.0514 90.9508 29.7461 91.3154 29.5137C91.6846 29.2767 92.097 29.1582 92.5527 29.1582C92.6393 29.1582 92.7464 29.1605 92.874 29.165C93.0016 29.165 93.0996 29.1673 93.168 29.1719V30.3613C93.127 30.3522 93.0358 30.3385 92.8945 30.3203C92.7533 30.3021 92.6029 30.293 92.4434 30.293C92.0742 30.293 91.7438 30.3704 91.4521 30.5254C91.1605 30.6803 90.9303 30.8923 90.7617 31.1611C90.5977 31.43 90.5156 31.7376 90.5156 32.084V36.9102H89.3535ZM97.1875 39.7676V29.2676H98.3086V30.4844H98.4453C98.5319 30.3522 98.6527 30.1836 98.8076 29.9785C98.9626 29.7689 99.1859 29.582 99.4775 29.418C99.7692 29.2539 100.163 29.1719 100.66 29.1719C101.303 29.1719 101.868 29.3337 102.355 29.6572C102.843 29.9762 103.224 30.432 103.497 31.0244C103.775 31.6123 103.914 32.3073 103.914 33.1094C103.914 33.916 103.777 34.6178 103.504 35.2148C103.23 35.8073 102.85 36.2653 102.362 36.5889C101.875 36.9124 101.312 37.0742 100.674 37.0742C100.186 37.0742 99.7943 36.9922 99.498 36.8281C99.2018 36.6595 98.974 36.4704 98.8145 36.2607C98.6549 36.0465 98.5319 35.8711 98.4453 35.7344H98.3496V39.7676H97.1875ZM100.523 36.0215C101.011 36.0215 101.419 35.8916 101.747 35.6318C102.075 35.3675 102.321 35.0143 102.485 34.5723C102.654 34.1302 102.738 33.638 102.738 33.0957C102.738 32.5579 102.656 32.0726 102.492 31.6396C102.328 31.2067 102.082 30.8626 101.754 30.6074C101.43 30.3522 101.02 30.2246 100.523 30.2246C100.045 30.2246 99.6439 30.3454 99.3203 30.5869C98.9967 30.8239 98.7507 31.1589 98.582 31.5918C98.418 32.0202 98.3359 32.5215 98.3359 33.0957C98.3359 33.6699 98.4202 34.1781 98.5889 34.6201C98.7575 35.0576 99.0036 35.4017 99.3271 35.6523C99.6553 35.8984 100.054 36.0215 100.523 36.0215ZM105.049 36.9102V29.2676H106.17V30.4297H106.252C106.393 30.0514 106.646 29.7461 107.011 29.5137C107.38 29.2767 107.792 29.1582 108.248 29.1582C108.335 29.1582 108.442 29.1605 108.569 29.165C108.697 29.165 108.795 29.1673 108.863 29.1719V30.3613C108.822 30.3522 108.731 30.3385 108.59 30.3203C108.449 30.3021 108.298 30.293 108.139 30.293C107.77 30.293 107.439 30.3704 107.147 30.5254C106.856 30.6803 106.626 30.8923 106.457 31.1611C106.293 31.43 106.211 31.7376 106.211 32.084V36.9102H105.049ZM112.459 37.0742C111.771 37.0742 111.167 36.9102 110.647 36.582C110.128 36.2539 109.722 35.7936 109.431 35.2012C109.144 34.6087 109 33.9206 109 33.1367C109 32.3392 109.144 31.6442 109.431 31.0518C109.722 30.4548 110.128 29.9922 110.647 29.6641C111.167 29.3359 111.771 29.1719 112.459 29.1719C113.152 29.1719 113.758 29.3359 114.277 29.6641C114.797 29.9922 115.202 30.4548 115.494 31.0518C115.786 31.6442 115.932 32.3392 115.932 33.1367C115.932 33.9206 115.786 34.6087 115.494 35.2012C115.202 35.7936 114.797 36.2539 114.277 36.582C113.758 36.9102 113.152 37.0742 112.459 37.0742ZM112.459 36.0215C112.988 36.0215 113.421 35.887 113.758 35.6182C114.095 35.3493 114.346 34.9961 114.51 34.5586C114.674 34.1165 114.756 33.6426 114.756 33.1367C114.756 32.6217 114.674 32.1432 114.51 31.7012C114.346 31.2591 114.095 30.9036 113.758 30.6348C113.421 30.3613 112.988 30.2246 112.459 30.2246C111.939 30.2246 111.511 30.3613 111.174 30.6348C110.837 30.9036 110.586 31.2591 110.422 31.7012C110.258 32.1432 110.176 32.6217 110.176 33.1367C110.176 33.6426 110.258 34.1165 110.422 34.5586C110.586 34.9961 110.837 35.3493 111.174 35.6182C111.511 35.887 111.939 36.0215 112.459 36.0215ZM117.066 36.9102V29.2676H118.188V30.4707H118.297C118.456 30.0605 118.714 29.7415 119.069 29.5137C119.425 29.2858 119.851 29.1719 120.348 29.1719C120.849 29.1719 121.266 29.2858 121.599 29.5137C121.936 29.7415 122.198 30.0605 122.385 30.4707H122.467C122.667 30.0742 122.961 29.7598 123.349 29.5273C123.741 29.2904 124.208 29.1719 124.75 29.1719C125.434 29.1719 125.994 29.3861 126.432 29.8145C126.869 30.2383 127.088 30.8991 127.088 31.7969V36.9102H125.912V31.7969C125.912 31.2318 125.757 30.8285 125.447 30.5869C125.137 30.3454 124.773 30.2246 124.354 30.2246C123.82 30.2246 123.406 30.3887 123.109 30.7168C122.818 31.0404 122.672 31.446 122.672 31.9336V36.9102H121.469V31.6738C121.469 31.2409 121.33 30.8923 121.052 30.6279C120.774 30.359 120.411 30.2246 119.965 30.2246C119.66 30.2246 119.375 30.3066 119.11 30.4707C118.846 30.6348 118.632 30.8604 118.468 31.1475C118.308 31.4346 118.229 31.765 118.229 32.1387V36.9102H117.066ZM128.592 39.7676V29.2676H129.713V30.4844H129.85C129.936 30.3522 130.057 30.1836 130.212 29.9785C130.367 29.7689 130.59 29.582 130.882 29.418C131.174 29.2539 131.568 29.1719 132.064 29.1719C132.707 29.1719 133.272 29.3337 133.76 29.6572C134.247 29.9762 134.628 30.432 134.901 31.0244C135.179 31.6123 135.318 32.3073 135.318 33.1094C135.318 33.916 135.182 34.6178 134.908 35.2148C134.635 35.8073 134.254 36.2653 133.767 36.5889C133.279 36.9124 132.716 37.0742 132.078 37.0742C131.59 37.0742 131.199 36.9922 130.902 36.8281C130.606 36.6595 130.378 36.4704 130.219 36.2607C130.059 36.0465 129.936 35.8711 129.85 35.7344H129.754V39.7676H128.592ZM131.928 36.0215C132.415 36.0215 132.823 35.8916 133.151 35.6318C133.479 35.3675 133.726 35.0143 133.89 34.5723C134.058 34.1302 134.143 33.638 134.143 33.0957C134.143 32.5579 134.061 32.0726 133.896 31.6396C133.732 31.2067 133.486 30.8626 133.158 30.6074C132.835 30.3522 132.424 30.2246 131.928 30.2246C131.449 30.2246 131.048 30.3454 130.725 30.5869C130.401 30.8239 130.155 31.1589 129.986 31.5918C129.822 32.0202 129.74 32.5215 129.74 33.0957C129.74 33.6699 129.825 34.1781 129.993 34.6201C130.162 35.0576 130.408 35.4017 130.731 35.6523C131.06 35.8984 131.458 36.0215 131.928 36.0215ZM139.762 29.2676V30.2656H135.811V29.2676H139.762ZM136.959 27.4492H138.121V34.7227C138.121 35.1191 138.203 35.4108 138.367 35.5977C138.531 35.7799 138.791 35.8711 139.146 35.8711C139.224 35.8711 139.304 35.8665 139.386 35.8574C139.472 35.8483 139.566 35.8346 139.666 35.8164L139.912 36.8691C139.803 36.9102 139.668 36.9421 139.509 36.9648C139.354 36.9922 139.197 37.0059 139.037 37.0059C138.422 37.0059 137.921 36.8236 137.533 36.459C137.15 36.0944 136.959 35.6204 136.959 35.0371V27.4492ZM144 37.0742C143.266 37.0742 142.631 36.9102 142.093 36.582C141.56 36.2539 141.149 35.7959 140.862 35.208C140.575 34.6156 140.432 33.9297 140.432 33.1504C140.432 32.3665 140.573 31.6761 140.855 31.0791C141.138 30.4821 141.535 30.015 142.045 29.6777C142.56 29.3405 143.161 29.1719 143.85 29.1719C144.246 29.1719 144.64 29.238 145.032 29.3701C145.424 29.5023 145.78 29.7165 146.099 30.0127C146.422 30.3089 146.68 30.7008 146.871 31.1885C147.062 31.6761 147.158 32.2754 147.158 32.9863V33.4922H141.266V32.4805H146.522L145.982 32.8633C145.982 32.3529 145.903 31.8994 145.743 31.5029C145.584 31.1064 145.344 30.7943 145.025 30.5664C144.711 30.3385 144.319 30.2246 143.85 30.2246C143.38 30.2246 142.977 30.3408 142.64 30.5732C142.307 30.8011 142.052 31.0996 141.874 31.4688C141.696 31.8379 141.607 32.2344 141.607 32.6582V33.3281C141.607 33.9069 141.708 34.3968 141.908 34.7979C142.109 35.1989 142.389 35.5042 142.749 35.7139C143.109 35.9189 143.526 36.0215 144 36.0215C144.305 36.0215 144.583 35.9782 144.834 35.8916C145.085 35.8005 145.301 35.666 145.483 35.4883C145.666 35.306 145.805 35.0827 145.9 34.8184L147.035 35.1465C146.917 35.5293 146.716 35.8665 146.434 36.1582C146.156 36.4453 145.809 36.6709 145.395 36.835C144.98 36.9945 144.515 37.0742 144 37.0742Z" fill="#1A1A1C"/>
<g clip-path="url(#clip0_3495_21486)">
<path d="M191.287 0.960333L172.404 7.26048C171.87 7.43879 171.87 7.73596 172.375 7.94399L181.356 11.5398L185.866 20.5641C186.104 21.0396 186.43 21.0198 186.578 20.4948L191.959 1.59431C192.108 1.0792 191.801 0.791933 191.287 0.960333Z" fill="#1A1A1C"/>
</g>
<defs>
<clipPath id="clip0_3495_21486">
<rect width="20" height="20" fill="white" transform="translate(172 0.910156)"/>
</clipPath>
</defs>
</svg>
