<svg width="300" height="198" viewBox="0 0 300 198" fill="none" xmlns="http://www.w3.org/2000/svg">
<rect x="0.234375" y="44.9219" width="131.946" height="157.764" rx="10" transform="rotate(-15 0.234375 44.9219)" fill="#1A1A1C" fill-opacity="0.05"/>
<rect x="7.58203" y="49.1641" width="119.946" height="145.764" rx="6" transform="rotate(-15 7.58203 49.1641)" fill="#EAECEB"/>
<rect x="115.695" y="10.4609" width="131.946" height="157.764" rx="10" transform="rotate(15 115.695 10.4609)" fill="#1A1A1C" fill-opacity="0.05"/>
<rect x="119.938" y="17.8086" width="119.946" height="145.764" rx="6" transform="rotate(15 119.938 17.8086)" fill="#EAECEB"/>
<rect x="131.016" y="34.6113" width="131.95" height="157.76" rx="10" transform="rotate(-15 131.016 34.6113)" fill="#1A1A1C" fill-opacity="0.05"/>
<rect x="138.363" y="38.8535" width="119.95" height="145.76" rx="8" transform="rotate(-15 138.363 38.8535)" fill="white"/>
<rect x="164.152" y="57.8262" width="79.95" height="5.96571" rx="2.98286" transform="rotate(-15 164.152 57.8262)" fill="#1A1A1C" fill-opacity="0.4"/>
<rect x="167.766" y="71.3164" width="79.95" height="5.96571" rx="2.98286" transform="rotate(-15 167.766 71.3164)" fill="#1A1A1C" fill-opacity="0.4"/>
<rect x="171.383" y="84.8066" width="79.95" height="5.96571" rx="2.98286" transform="rotate(-15 171.383 84.8066)" fill="#1A1A1C" fill-opacity="0.4"/>
<rect x="174.996" y="98.2949" width="79.95" height="5.96571" rx="2.98286" transform="rotate(-15 174.996 98.2949)" fill="#1A1A1C" fill-opacity="0.4"/>
<rect x="178.609" y="111.785" width="79.95" height="5.96571" rx="2.98286" transform="rotate(-15 178.609 111.785)" fill="#1A1A1C" fill-opacity="0.4"/>
<rect x="182.227" y="125.275" width="53" height="5.96571" rx="2.98286" transform="rotate(-15 182.227 125.275)" fill="#1A1A1C" fill-opacity="0.4"/>
</svg>
