<svg width="243" height="268" viewBox="0 0 243 268" fill="none" xmlns="http://www.w3.org/2000/svg">
<rect x="2.5" y="1.41016" width="238" height="40" rx="20" fill="white"/>
<rect x="2.5" y="1.41016" width="238" height="40" rx="20" stroke="#DFE4EB"/>
<path d="M17.9023 16.7246H19.3789L22.8379 25.1738H22.9609L26.4199 16.7246H27.9443V26.9102H26.7344V19.1719H26.6387L23.4326 26.9102H22.3252L19.1602 19.1719H19.0645V26.9102H17.9023V16.7246ZM32.6953 27.0742C32.0072 27.0742 31.4033 26.9102 30.8838 26.582C30.3643 26.2539 29.9587 25.7936 29.667 25.2012C29.3799 24.6087 29.2363 23.9206 29.2363 23.1367C29.2363 22.3392 29.3799 21.6442 29.667 21.0518C29.9587 20.4548 30.3643 19.9922 30.8838 19.6641C31.4033 19.3359 32.0072 19.1719 32.6953 19.1719C33.388 19.1719 33.9941 19.3359 34.5137 19.6641C35.0332 19.9922 35.4388 20.4548 35.7305 21.0518C36.0221 21.6442 36.168 22.3392 36.168 23.1367C36.168 23.9206 36.0221 24.6087 35.7305 25.2012C35.4388 25.7936 35.0332 26.2539 34.5137 26.582C33.9941 26.9102 33.388 27.0742 32.6953 27.0742ZM32.6953 26.0215C33.224 26.0215 33.6569 25.887 33.9941 25.6182C34.3314 25.3493 34.582 24.9961 34.7461 24.5586C34.9102 24.1165 34.9922 23.6426 34.9922 23.1367C34.9922 22.6217 34.9102 22.1432 34.7461 21.7012C34.582 21.2591 34.3314 20.9036 33.9941 20.6348C33.6569 20.3613 33.224 20.2246 32.6953 20.2246C32.1758 20.2246 31.7474 20.3613 31.4102 20.6348C31.0729 20.9036 30.8223 21.2591 30.6582 21.7012C30.4941 22.1432 30.4121 22.6217 30.4121 23.1367C30.4121 23.6426 30.4941 24.1165 30.6582 24.5586C30.8223 24.9961 31.0729 25.3493 31.4102 25.6182C31.7474 25.887 32.1758 26.0215 32.6953 26.0215ZM40.1738 27.0742C39.5358 27.0742 38.973 26.9124 38.4854 26.5889C37.9977 26.2653 37.6172 25.8073 37.3438 25.2148C37.0703 24.6178 36.9336 23.916 36.9336 23.1094C36.9336 22.3073 37.0703 21.6123 37.3438 21.0244C37.6217 20.432 38.0046 19.9762 38.4922 19.6572C38.9798 19.3337 39.5449 19.1719 40.1875 19.1719C40.6888 19.1719 41.083 19.2539 41.3701 19.418C41.6618 19.582 41.8851 19.7689 42.04 19.9785C42.195 20.1836 42.3158 20.3522 42.4023 20.4844H42.498V16.7246H43.6602V26.9102H42.5391V25.7344H42.4023C42.3158 25.8711 42.1927 26.0465 42.0332 26.2607C41.8737 26.4704 41.6458 26.6595 41.3496 26.8281C41.0579 26.9922 40.666 27.0742 40.1738 27.0742ZM40.3242 26.0215C40.7982 26.0215 41.1969 25.8984 41.5205 25.6523C41.8441 25.4017 42.0902 25.0576 42.2588 24.6201C42.4274 24.1781 42.5117 23.6699 42.5117 23.0957C42.5117 22.5215 42.4297 22.0202 42.2656 21.5918C42.1016 21.1589 41.8555 20.8239 41.5273 20.5869C41.2038 20.3454 40.8027 20.2246 40.3242 20.2246C39.832 20.2246 39.4219 20.3522 39.0938 20.6074C38.7656 20.8626 38.5195 21.2067 38.3555 21.6396C38.1914 22.0726 38.1094 22.5579 38.1094 23.0957C38.1094 23.638 38.1914 24.1302 38.3555 24.5723C38.5241 25.0143 38.7725 25.3675 39.1006 25.6318C39.4287 25.8916 39.8366 26.0215 40.3242 26.0215ZM48.3633 27.0742C47.6296 27.0742 46.9938 26.9102 46.4561 26.582C45.9229 26.2539 45.5127 25.7959 45.2256 25.208C44.9385 24.6156 44.7949 23.9297 44.7949 23.1504C44.7949 22.3665 44.9362 21.6761 45.2188 21.0791C45.5013 20.4821 45.8978 20.015 46.4082 19.6777C46.9232 19.3405 47.5247 19.1719 48.2129 19.1719C48.6094 19.1719 49.0036 19.238 49.3955 19.3701C49.7874 19.5023 50.1429 19.7165 50.4619 20.0127C50.7855 20.3089 51.043 20.7008 51.2344 21.1885C51.4258 21.6761 51.5215 22.2754 51.5215 22.9863V23.4922H45.6289V22.4805H50.8857L50.3457 22.8633C50.3457 22.3529 50.266 21.8994 50.1064 21.5029C49.9469 21.1064 49.7077 20.7943 49.3887 20.5664C49.0742 20.3385 48.6823 20.2246 48.2129 20.2246C47.7435 20.2246 47.3402 20.3408 47.0029 20.5732C46.6702 20.8011 46.415 21.0996 46.2373 21.4688C46.0596 21.8379 45.9707 22.2344 45.9707 22.6582V23.3281C45.9707 23.9069 46.071 24.3968 46.2715 24.7979C46.472 25.1989 46.7523 25.5042 47.1123 25.7139C47.4723 25.9189 47.8893 26.0215 48.3633 26.0215C48.6686 26.0215 48.9466 25.9782 49.1973 25.8916C49.4479 25.8005 49.6644 25.666 49.8467 25.4883C50.029 25.306 50.168 25.0827 50.2637 24.8184L51.3984 25.1465C51.2799 25.5293 51.0794 25.8665 50.7969 26.1582C50.5189 26.4453 50.1725 26.6709 49.7578 26.835C49.3431 26.9945 48.8783 27.0742 48.3633 27.0742ZM52.6289 26.9102V19.2676H53.75V20.4297H53.832C53.9733 20.0514 54.2262 19.7461 54.5908 19.5137C54.96 19.2767 55.3724 19.1582 55.8281 19.1582C55.9147 19.1582 56.0218 19.1605 56.1494 19.165C56.277 19.165 56.375 19.1673 56.4434 19.1719V20.3613C56.4023 20.3522 56.3112 20.3385 56.1699 20.3203C56.0286 20.3021 55.8783 20.293 55.7188 20.293C55.3496 20.293 55.0192 20.3704 54.7275 20.5254C54.4359 20.6803 54.2057 20.8923 54.0371 21.1611C53.873 21.43 53.791 21.7376 53.791 22.084V26.9102H52.6289ZM58.3438 22.3164V26.9102H57.1816V19.2676H58.3027V20.4707H58.4121C58.5898 20.0788 58.861 19.7643 59.2256 19.5273C59.5902 19.2904 60.0618 19.1719 60.6406 19.1719C61.1556 19.1719 61.6068 19.2767 61.9941 19.4863C62.3815 19.696 62.6823 20.015 62.8965 20.4434C63.1152 20.8672 63.2246 21.4049 63.2246 22.0566V26.9102H62.0625V22.1387C62.0625 21.5417 61.9053 21.0745 61.5908 20.7373C61.2764 20.3955 60.848 20.2246 60.3057 20.2246C59.932 20.2246 59.597 20.3066 59.3008 20.4707C59.0046 20.6348 58.7699 20.8717 58.5967 21.1816C58.4281 21.4915 58.3438 21.8698 58.3438 22.3164Z" fill="#1A1A1C" fill-opacity="0.8"/>
<rect x="4.69671" y="34.4518" width="238" height="40" rx="20" transform="rotate(5 4.69671 34.4518)" fill="#EAECEB"/>
<rect x="4.69671" y="34.4518" width="238" height="40" rx="20" transform="rotate(5 4.69671 34.4518)" stroke="#DFE4EB"/>
<path d="M18.7046 51.0507L20.1756 51.1794L22.885 59.8979L23.0076 59.9086L27.1898 51.793L28.7084 51.9259L27.8207 62.0727L26.6153 61.9672L27.2898 54.2584L27.1944 54.25L23.3261 61.6794L22.2229 61.5829L19.7444 53.5982L19.649 53.5899L18.9746 61.2987L17.8169 61.1974L18.7046 51.0507ZM29.4755 62.2174L30.1416 54.6039L31.2993 54.7052L30.6332 62.3187L29.4755 62.2174ZM30.8381 53.3885C30.6111 53.3687 30.4226 53.2744 30.2727 53.1058C30.1227 52.9371 30.0573 52.7438 30.0764 52.5259C30.0954 52.308 30.1934 52.129 30.3704 51.9889C30.5473 51.8489 30.7493 51.7888 30.9763 51.8086C31.2033 51.8285 31.3918 51.9228 31.5417 52.0914C31.6916 52.2601 31.7571 52.4534 31.738 52.6713C31.7189 52.8892 31.6209 53.0682 31.444 53.2082C31.267 53.3483 31.0651 53.4084 30.8381 53.3885ZM33.6894 57.9748L33.2891 62.5511L32.1314 62.4498L32.7975 54.8363L33.9143 54.934L33.8094 56.1326L33.9184 56.1421C34.1296 55.7671 34.4272 55.4775 34.811 55.2732C35.1949 55.0689 35.6751 54.992 36.2516 55.0424C36.7647 55.0873 37.205 55.2311 37.5726 55.4737C37.9402 55.7163 38.2121 56.0603 38.3881 56.5057C38.5691 56.947 38.6312 57.4922 38.5744 58.1414L38.1514 62.9765L36.9937 62.8752L37.4095 58.1219C37.4616 57.5271 37.3456 57.0481 37.0618 56.6847C36.7783 56.3168 36.3665 56.1092 35.8262 56.062C35.4539 56.0294 35.1131 56.0819 34.8037 56.2195C34.4943 56.3572 34.2398 56.5728 34.0403 56.8664C33.8453 57.1604 33.7284 57.5299 33.6894 57.9748ZM39.6495 63.1076L40.3156 55.4941L41.4733 55.5953L40.8072 63.2088L39.6495 63.1076ZM41.0121 54.2787C40.7851 54.2588 40.5966 54.1645 40.4467 53.9959C40.2968 53.8272 40.2313 53.6339 40.2504 53.416C40.2695 53.1981 40.3675 53.0191 40.5444 52.879C40.7214 52.739 40.9233 52.6789 41.1503 52.6987C41.3773 52.7186 41.5658 52.8129 41.7157 52.9815C41.8657 53.1502 41.9311 53.3435 41.912 53.5614C41.893 53.7793 41.795 53.9583 41.618 54.0984C41.4411 54.2384 41.2391 54.2985 41.0121 54.2787ZM42.3054 63.3399L42.9715 55.7264L44.0883 55.8241L43.9835 57.0227L44.0924 57.0322C44.2871 56.6375 44.5714 56.3422 44.9454 56.1461C45.3193 55.9501 45.7538 55.8738 46.2486 55.9171C46.748 55.9607 47.1535 56.1106 47.465 56.3666C47.7811 56.623 48.0144 56.9636 48.1648 57.3885L48.2465 57.3956C48.4808 57.0181 48.801 56.7305 49.2072 56.5327C49.6183 56.3308 50.0939 56.2535 50.6342 56.3007C51.3152 56.3603 51.8549 56.6226 52.2534 57.0874C52.6523 57.5478 52.8127 58.2251 52.7344 59.1195L52.2888 64.2133L51.1175 64.1109L51.5631 59.017C51.6124 58.4541 51.4931 58.0388 51.2055 57.7712C50.9178 57.5035 50.5651 57.3515 50.1475 57.3149C49.6163 57.2684 49.1889 57.3957 48.8652 57.6968C48.5464 57.9937 48.3658 58.3851 48.3233 58.8708L47.8895 63.8285L46.691 63.7236L47.1474 58.5072C47.1851 58.0759 47.077 57.7165 46.8231 57.4289C46.5696 57.1369 46.2204 56.9713 45.7755 56.9324C45.4713 56.9058 45.1804 56.9627 44.9028 57.1031C44.6252 57.2435 44.3922 57.4496 44.2037 57.7213C44.0198 57.9934 43.9115 58.3156 43.879 58.6879L43.4631 63.4412L42.3054 63.3399ZM56.0051 64.7169C55.5239 64.6748 55.0937 64.5457 54.7146 64.3295C54.3359 64.1088 54.0461 63.8136 53.8452 63.4437C53.6442 63.0739 53.5654 62.6415 53.6087 62.1467C53.6468 61.7109 53.7638 61.3666 53.9598 61.1138C54.1561 60.8565 54.4041 60.6632 54.7036 60.5338C55.0081 60.4004 55.3362 60.3101 55.688 60.2631C56.0443 60.2165 56.4015 60.186 56.7596 60.1716C57.2278 60.1531 57.6063 60.1405 57.8951 60.1337C58.1885 60.1274 58.4044 60.0913 58.5428 60.0257C58.6857 59.9604 58.7653 59.8347 58.7816 59.6486L58.7852 59.6077C58.8277 59.1219 58.7267 58.7334 58.4823 58.4421C58.2428 58.1467 57.853 57.9753 57.3127 57.9281C56.7588 57.8796 56.3123 57.9641 55.973 58.1814C55.6342 58.3942 55.3891 58.6335 55.2377 58.8994L54.1555 58.4067C54.3957 57.9611 54.6929 57.6234 55.047 57.3936C55.4055 57.1642 55.7846 57.0144 56.1842 56.9441C56.5883 56.8743 56.981 56.856 57.3624 56.8894C57.6076 56.9108 57.8865 56.965 58.1991 57.0518C58.5121 57.1341 58.8105 57.2791 59.0943 57.4869C59.3829 57.6906 59.609 57.9826 59.7725 58.3629C59.9408 58.739 59.9986 59.229 59.9458 59.8328L59.5073 64.8449L58.336 64.7424L58.4265 63.7073L58.3721 63.7025C58.2806 63.8592 58.1334 64.0248 57.9306 64.1991C57.7282 64.369 57.4667 64.5085 57.146 64.6177C56.8303 64.7228 56.45 64.7558 56.0051 64.7169ZM56.2739 63.6837C56.737 63.7242 57.1354 63.6675 57.4691 63.5137C57.8027 63.3599 58.0638 63.1472 58.2523 62.8755C58.4411 62.5992 58.5493 62.3045 58.5767 61.9912L58.6708 60.9152C58.6157 60.9699 58.502 61.0148 58.3296 61.0501C58.1622 61.0812 57.968 61.1053 57.7469 61.1226C57.5303 61.1403 57.3187 61.1538 57.112 61.1631C56.9057 61.168 56.7407 61.1718 56.6169 61.1747C56.3092 61.189 56.0197 61.23 55.7484 61.2977C55.4776 61.3609 55.2529 61.4717 55.0743 61.6299C54.9003 61.7885 54.8002 62.0176 54.774 62.3173C54.7387 62.7213 54.8617 63.0409 55.143 63.2759C55.4293 63.5068 55.8063 63.6427 56.2739 63.6837ZM63.0509 54.9305L62.1631 65.0772L61.0055 64.976L61.8932 54.8292L63.0509 54.9305Z" fill="#1A1A1C" fill-opacity="0.8"/>
<circle cx="218.047" cy="73.1934" r="5" fill="white" stroke="#864FFE" stroke-width="4"/>
<rect x="2.5" y="98.084" width="238" height="40" rx="20" fill="white"/>
<rect x="2.5" y="98.084" width="238" height="40" rx="20" stroke="#DFE4EB"/>
<path d="M21.1289 123.762C20.3997 123.762 19.7686 123.646 19.2354 123.413C18.7021 123.176 18.2829 122.848 17.9775 122.429C17.6768 122.005 17.5059 121.515 17.4648 120.959H18.7363C18.7728 121.342 18.9027 121.659 19.126 121.909C19.3538 122.16 19.6432 122.347 19.9941 122.47C20.3451 122.593 20.7233 122.654 21.1289 122.654C21.5983 122.654 22.0199 122.577 22.3936 122.422C22.7718 122.267 23.0703 122.05 23.2891 121.772C23.5078 121.494 23.6172 121.169 23.6172 120.795C23.6172 120.458 23.5215 120.184 23.3301 119.975C23.1387 119.765 22.888 119.594 22.5781 119.462C22.2728 119.33 21.9401 119.214 21.5801 119.113L20.3359 118.758C19.5384 118.53 18.9072 118.204 18.4424 117.78C17.9821 117.352 17.752 116.794 17.752 116.105C17.752 115.536 17.9046 115.039 18.21 114.615C18.5199 114.187 18.9368 113.854 19.4609 113.617C19.9896 113.38 20.5775 113.262 21.2246 113.262C21.8809 113.262 22.4642 113.38 22.9746 113.617C23.485 113.85 23.8906 114.169 24.1914 114.574C24.4922 114.975 24.6517 115.431 24.6699 115.941H23.4668C23.4076 115.44 23.166 115.05 22.7422 114.772C22.3229 114.494 21.8034 114.355 21.1836 114.355C20.737 114.355 20.3451 114.428 20.0078 114.574C19.6706 114.72 19.4085 114.921 19.2217 115.176C19.0348 115.431 18.9414 115.723 18.9414 116.051C18.9414 116.411 19.0531 116.702 19.2764 116.926C19.4997 117.145 19.764 117.315 20.0693 117.438C20.3792 117.562 20.6595 117.66 20.9102 117.732L21.9355 118.02C22.1999 118.092 22.4938 118.19 22.8174 118.313C23.1455 118.437 23.46 118.603 23.7607 118.812C24.0661 119.022 24.3167 119.291 24.5127 119.619C24.7087 119.943 24.8066 120.344 24.8066 120.822C24.8066 121.369 24.6631 121.866 24.376 122.312C24.0889 122.755 23.6719 123.108 23.125 123.372C22.5781 123.632 21.9128 123.762 21.1289 123.762ZM29.332 115.941V116.939H25.3809V115.941H29.332ZM26.5293 114.123H27.6914V121.396C27.6914 121.793 27.7734 122.085 27.9375 122.271C28.1016 122.454 28.3613 122.545 28.7168 122.545C28.7943 122.545 28.874 122.54 28.9561 122.531C29.0426 122.522 29.1361 122.508 29.2363 122.49L29.4824 123.543C29.373 123.584 29.2386 123.616 29.0791 123.639C28.9242 123.666 28.7669 123.68 28.6074 123.68C27.9922 123.68 27.4909 123.497 27.1035 123.133C26.7207 122.768 26.5293 122.294 26.5293 121.711V114.123ZM31.2051 126.441C31.0046 126.446 30.8268 126.432 30.6719 126.4C30.5169 126.368 30.4076 126.337 30.3438 126.305L30.6445 125.279L30.7607 125.307C31.1527 125.398 31.4808 125.377 31.7451 125.245C32.014 125.118 32.2487 124.778 32.4492 124.227L32.668 123.625L29.8516 115.941H31.123L33.2285 122.039H33.3105L35.416 115.941H36.6875L33.4473 124.691C33.3014 125.088 33.1214 125.416 32.9072 125.676C32.693 125.936 32.4447 126.127 32.1621 126.25C31.8796 126.378 31.5605 126.441 31.2051 126.441ZM38.752 113.398V123.584H37.5898V113.398H38.752ZM40.2559 123.584V115.941H41.418V123.584H40.2559ZM40.8438 114.67C40.6159 114.67 40.4199 114.592 40.2559 114.438C40.0918 114.283 40.0098 114.096 40.0098 113.877C40.0098 113.658 40.0918 113.471 40.2559 113.316C40.4199 113.161 40.6159 113.084 40.8438 113.084C41.0716 113.084 41.2676 113.161 41.4316 113.316C41.5957 113.471 41.6777 113.658 41.6777 113.877C41.6777 114.096 41.5957 114.283 41.4316 114.438C41.2676 114.592 41.0716 114.67 40.8438 114.67ZM48.3223 117.664L47.2695 117.951C47.1693 117.691 46.9961 117.445 46.75 117.213C46.5085 116.976 46.1302 116.857 45.6152 116.857C45.1504 116.857 44.763 116.967 44.4531 117.186C44.1432 117.4 43.9883 117.669 43.9883 117.992C43.9883 118.284 44.0931 118.516 44.3027 118.689C44.5169 118.863 44.8496 119.004 45.3008 119.113L46.4355 119.387C47.1146 119.551 47.6204 119.804 47.9531 120.146C48.2904 120.487 48.459 120.923 48.459 121.451C48.459 121.889 48.3337 122.281 48.083 122.627C47.8324 122.973 47.4837 123.247 47.0371 123.447C46.5905 123.648 46.071 123.748 45.4785 123.748C44.6992 123.748 44.0544 123.577 43.5439 123.235C43.0381 122.894 42.7168 122.399 42.5801 121.752L43.6875 121.479C43.7923 121.889 43.9928 122.196 44.2891 122.401C44.5898 122.606 44.9818 122.709 45.4648 122.709C46.0072 122.709 46.4401 122.593 46.7637 122.36C47.0918 122.123 47.2559 121.843 47.2559 121.52C47.2559 120.982 46.8776 120.622 46.1211 120.439L44.8496 120.139C44.1478 119.97 43.6328 119.713 43.3047 119.366C42.9766 119.02 42.8125 118.585 42.8125 118.061C42.8125 117.628 42.9333 117.245 43.1748 116.912C43.4209 116.579 43.7559 116.32 44.1797 116.133C44.6035 115.941 45.082 115.846 45.6152 115.846C46.3763 115.846 46.971 116.014 47.3994 116.352C47.8324 116.684 48.14 117.122 48.3223 117.664ZM50.7422 118.99V123.584H49.5801V113.398H50.7422V117.145H50.8516C51.0293 116.748 51.2959 116.434 51.6514 116.201C52.0114 115.964 52.4922 115.846 53.0938 115.846C53.6133 115.846 54.069 115.951 54.4609 116.16C54.8529 116.365 55.1582 116.682 55.377 117.11C55.5957 117.534 55.7051 118.074 55.7051 118.73V123.584H54.5293V118.812C54.5293 118.202 54.3721 117.73 54.0576 117.397C53.7432 117.065 53.3079 116.898 52.752 116.898C52.3646 116.898 52.0205 116.98 51.7197 117.145C51.4189 117.309 51.1797 117.546 51.002 117.855C50.8288 118.165 50.7422 118.544 50.7422 118.99Z" fill="#1A1A1C" fill-opacity="0.8"/>
<rect x="2.5" y="141.084" width="238" height="40" rx="20" fill="white"/>
<rect x="2.5" y="141.084" width="238" height="40" rx="20" stroke="#DFE4EB"/>
<path d="M22.0039 166.721C21.138 166.721 20.3656 166.509 19.6865 166.085C19.0075 165.661 18.4743 165.06 18.0869 164.28C17.6995 163.496 17.5059 162.569 17.5059 161.498C17.5059 160.423 17.6995 159.493 18.0869 158.709C18.4743 157.925 19.0075 157.321 19.6865 156.897C20.3656 156.474 21.138 156.262 22.0039 156.262C22.5143 156.262 22.9951 156.337 23.4463 156.487C23.902 156.638 24.3122 156.856 24.6768 157.144C25.0413 157.426 25.3444 157.775 25.5859 158.189C25.832 158.6 26.0007 159.064 26.0918 159.584H24.8613C24.7884 159.229 24.6608 158.916 24.4785 158.647C24.3008 158.379 24.082 158.153 23.8223 157.971C23.5671 157.784 23.2845 157.645 22.9746 157.554C22.6647 157.458 22.3411 157.41 22.0039 157.41C21.3887 157.41 20.8304 157.567 20.3291 157.882C19.8278 158.192 19.429 158.652 19.1328 159.263C18.8411 159.869 18.6953 160.614 18.6953 161.498C18.6953 162.378 18.8411 163.12 19.1328 163.727C19.429 164.333 19.8278 164.793 20.3291 165.107C20.8304 165.417 21.3887 165.572 22.0039 165.572C22.3411 165.572 22.6647 165.527 22.9746 165.436C23.2845 165.34 23.5671 165.201 23.8223 165.019C24.082 164.832 24.3008 164.604 24.4785 164.335C24.6608 164.066 24.7884 163.754 24.8613 163.398H26.0918C26.0007 163.923 25.832 164.39 25.5859 164.8C25.3444 165.21 25.0413 165.559 24.6768 165.846C24.3122 166.128 23.902 166.345 23.4463 166.495C22.9951 166.646 22.5143 166.721 22.0039 166.721ZM27.2812 166.584V158.941H28.4023V160.104H28.4844C28.6257 159.725 28.8786 159.42 29.2432 159.188C29.6123 158.951 30.0247 158.832 30.4805 158.832C30.5671 158.832 30.6742 158.834 30.8018 158.839C30.9294 158.839 31.0273 158.841 31.0957 158.846V160.035C31.0547 160.026 30.9635 160.012 30.8223 159.994C30.681 159.976 30.5306 159.967 30.3711 159.967C30.002 159.967 29.6715 160.044 29.3799 160.199C29.0882 160.354 28.8581 160.566 28.6895 160.835C28.5254 161.104 28.4434 161.411 28.4434 161.758V166.584H27.2812ZM34.8008 166.748C34.0671 166.748 33.4313 166.584 32.8936 166.256C32.3604 165.928 31.9502 165.47 31.6631 164.882C31.376 164.289 31.2324 163.604 31.2324 162.824C31.2324 162.04 31.3737 161.35 31.6562 160.753C31.9388 160.156 32.3353 159.689 32.8457 159.352C33.3607 159.014 33.9622 158.846 34.6504 158.846C35.0469 158.846 35.4411 158.912 35.833 159.044C36.2249 159.176 36.5804 159.39 36.8994 159.687C37.223 159.983 37.4805 160.375 37.6719 160.862C37.8633 161.35 37.959 161.949 37.959 162.66V163.166H32.0664V162.154H37.3232L36.7832 162.537C36.7832 162.027 36.7035 161.573 36.5439 161.177C36.3844 160.78 36.1452 160.468 35.8262 160.24C35.5117 160.012 35.1198 159.898 34.6504 159.898C34.181 159.898 33.7777 160.015 33.4404 160.247C33.1077 160.475 32.8525 160.773 32.6748 161.143C32.4971 161.512 32.4082 161.908 32.4082 162.332V163.002C32.4082 163.581 32.5085 164.071 32.709 164.472C32.9095 164.873 33.1898 165.178 33.5498 165.388C33.9098 165.593 34.3268 165.695 34.8008 165.695C35.1061 165.695 35.3841 165.652 35.6348 165.565C35.8854 165.474 36.1019 165.34 36.2842 165.162C36.4665 164.98 36.6055 164.757 36.7012 164.492L37.8359 164.82C37.7174 165.203 37.5169 165.54 37.2344 165.832C36.9564 166.119 36.61 166.345 36.1953 166.509C35.7806 166.668 35.3158 166.748 34.8008 166.748ZM41.3086 166.762C40.8255 166.762 40.3857 166.671 39.9893 166.488C39.5928 166.301 39.2783 166.033 39.0459 165.682C38.8135 165.331 38.6973 164.907 38.6973 164.41C38.6973 163.973 38.7839 163.619 38.957 163.351C39.1302 163.077 39.3604 162.863 39.6475 162.708C39.9391 162.549 40.2581 162.43 40.6045 162.353C40.9554 162.275 41.3086 162.214 41.6641 162.168C42.1289 162.109 42.5049 162.063 42.792 162.031C43.0837 161.999 43.2956 161.945 43.4277 161.867C43.5645 161.79 43.6328 161.658 43.6328 161.471V161.43C43.6328 160.942 43.4984 160.564 43.2295 160.295C42.9652 160.021 42.5618 159.885 42.0195 159.885C41.4635 159.885 41.026 160.008 40.707 160.254C40.388 160.495 40.1647 160.755 40.0371 161.033L38.916 160.637C39.1165 160.172 39.3831 159.81 39.7158 159.55C40.0531 159.29 40.4176 159.108 40.8096 159.003C41.2061 158.898 41.5957 158.846 41.9785 158.846C42.2246 158.846 42.5072 158.875 42.8262 158.935C43.1452 158.989 43.4551 159.108 43.7559 159.29C44.0612 159.468 44.3118 159.739 44.5078 160.104C44.7083 160.464 44.8086 160.947 44.8086 161.553V166.584H43.6328V165.545H43.5781C43.5007 165.709 43.3685 165.887 43.1816 166.078C42.9948 166.265 42.7464 166.427 42.4365 166.563C42.1312 166.696 41.7552 166.762 41.3086 166.762ZM41.4863 165.709C41.9512 165.709 42.3431 165.618 42.6621 165.436C42.9811 165.253 43.2227 165.019 43.3867 164.731C43.5508 164.44 43.6328 164.137 43.6328 163.822V162.742C43.5827 162.801 43.4733 162.856 43.3047 162.906C43.1406 162.952 42.9492 162.993 42.7305 163.029C42.5163 163.066 42.3066 163.098 42.1016 163.125C41.8965 163.148 41.7324 163.166 41.6094 163.18C41.304 163.221 41.0192 163.287 40.7549 163.378C40.4906 163.465 40.2764 163.594 40.1123 163.768C39.9528 163.941 39.873 164.178 39.873 164.479C39.873 164.884 40.0234 165.192 40.3242 165.401C40.6296 165.606 41.0169 165.709 41.4863 165.709ZM49.6211 158.941V159.939H45.6699V158.941H49.6211ZM46.8184 157.123H47.9805V164.396C47.9805 164.793 48.0625 165.085 48.2266 165.271C48.3906 165.454 48.6504 165.545 49.0059 165.545C49.0833 165.545 49.1631 165.54 49.2451 165.531C49.3317 165.522 49.4251 165.508 49.5254 165.49L49.7715 166.543C49.6621 166.584 49.5277 166.616 49.3682 166.639C49.2132 166.666 49.056 166.68 48.8965 166.68C48.2812 166.68 47.7799 166.497 47.3926 166.133C47.0098 165.768 46.8184 165.294 46.8184 164.711V157.123ZM50.7422 166.584V158.941H51.9043V166.584H50.7422ZM51.3301 157.67C51.1022 157.67 50.9062 157.592 50.7422 157.438C50.5781 157.283 50.4961 157.096 50.4961 156.877C50.4961 156.658 50.5781 156.471 50.7422 156.316C50.9062 156.161 51.1022 156.084 51.3301 156.084C51.5579 156.084 51.7539 156.161 51.918 156.316C52.082 156.471 52.1641 156.658 52.1641 156.877C52.1641 157.096 52.082 157.283 51.918 157.438C51.7539 157.592 51.5579 157.67 51.3301 157.67ZM59.6426 158.941L56.8262 166.584H55.623L52.8066 158.941H54.0781L56.1836 165.039H56.2656L58.3711 158.941H59.6426ZM63.4707 166.748C62.737 166.748 62.1012 166.584 61.5635 166.256C61.0303 165.928 60.6201 165.47 60.333 164.882C60.0459 164.289 59.9023 163.604 59.9023 162.824C59.9023 162.04 60.0436 161.35 60.3262 160.753C60.6087 160.156 61.0052 159.689 61.5156 159.352C62.0306 159.014 62.6322 158.846 63.3203 158.846C63.7168 158.846 64.111 158.912 64.5029 159.044C64.8949 159.176 65.2503 159.39 65.5693 159.687C65.8929 159.983 66.1504 160.375 66.3418 160.862C66.5332 161.35 66.6289 161.949 66.6289 162.66V163.166H60.7363V162.154H65.9932L65.4531 162.537C65.4531 162.027 65.3734 161.573 65.2139 161.177C65.0544 160.78 64.8151 160.468 64.4961 160.24C64.1816 160.012 63.7897 159.898 63.3203 159.898C62.8509 159.898 62.4476 160.015 62.1104 160.247C61.7777 160.475 61.5225 160.773 61.3447 161.143C61.167 161.512 61.0781 161.908 61.0781 162.332V163.002C61.0781 163.581 61.1784 164.071 61.3789 164.472C61.5794 164.873 61.8597 165.178 62.2197 165.388C62.5798 165.593 62.9967 165.695 63.4707 165.695C63.776 165.695 64.054 165.652 64.3047 165.565C64.5553 165.474 64.7718 165.34 64.9541 165.162C65.1364 164.98 65.2754 164.757 65.3711 164.492L66.5059 164.82C66.3874 165.203 66.1868 165.54 65.9043 165.832C65.6263 166.119 65.2799 166.345 64.8652 166.509C64.4505 166.668 63.9857 166.748 63.4707 166.748Z" fill="#1A1A1C" fill-opacity="0.8"/>
<rect x="2.5" y="184.084" width="238" height="40" rx="20" fill="white"/>
<rect x="2.5" y="184.084" width="238" height="40" rx="20" stroke="#DFE4EB"/>
<path d="M21.0469 209.584H18.5996V208.49H20.9648C21.8079 208.49 22.5052 208.328 23.0566 208.005C23.6126 207.681 24.0273 207.219 24.3008 206.617C24.5742 206.016 24.7109 205.3 24.7109 204.471C24.7109 203.65 24.5765 202.944 24.3076 202.352C24.0387 201.755 23.6354 201.297 23.0977 200.978C22.5645 200.654 21.8991 200.492 21.1016 200.492H18.5449V199.398H21.1836C22.1725 199.398 23.0179 199.601 23.7197 200.007C24.4261 200.412 24.9661 200.996 25.3398 201.757C25.7135 202.513 25.9004 203.418 25.9004 204.471C25.9004 205.533 25.7113 206.446 25.333 207.212C24.9548 207.973 24.4033 208.559 23.6787 208.969C22.9587 209.379 22.0814 209.584 21.0469 209.584ZM19.1328 199.398V209.584H17.9023V199.398H19.1328ZM30.248 209.748C29.5599 209.748 28.9561 209.584 28.4365 209.256C27.917 208.928 27.5114 208.467 27.2197 207.875C26.9326 207.283 26.7891 206.594 26.7891 205.811C26.7891 205.013 26.9326 204.318 27.2197 203.726C27.5114 203.129 27.917 202.666 28.4365 202.338C28.9561 202.01 29.5599 201.846 30.248 201.846C30.9408 201.846 31.5469 202.01 32.0664 202.338C32.5859 202.666 32.9915 203.129 33.2832 203.726C33.5749 204.318 33.7207 205.013 33.7207 205.811C33.7207 206.594 33.5749 207.283 33.2832 207.875C32.9915 208.467 32.5859 208.928 32.0664 209.256C31.5469 209.584 30.9408 209.748 30.248 209.748ZM30.248 208.695C30.7767 208.695 31.2096 208.561 31.5469 208.292C31.8841 208.023 32.1348 207.67 32.2988 207.232C32.4629 206.79 32.5449 206.316 32.5449 205.811C32.5449 205.296 32.4629 204.817 32.2988 204.375C32.1348 203.933 31.8841 203.577 31.5469 203.309C31.2096 203.035 30.7767 202.898 30.248 202.898C29.7285 202.898 29.3001 203.035 28.9629 203.309C28.6257 203.577 28.375 203.933 28.2109 204.375C28.0469 204.817 27.9648 205.296 27.9648 205.811C27.9648 206.316 28.0469 206.79 28.2109 207.232C28.375 207.67 28.6257 208.023 28.9629 208.292C29.3001 208.561 29.7285 208.695 30.248 208.695ZM39.668 206.467V201.941H40.8301V209.584H39.668V208.285H39.5859C39.4036 208.673 39.1234 209.003 38.7451 209.276C38.3714 209.55 37.8952 209.684 37.3164 209.68C36.8379 209.68 36.4141 209.577 36.0449 209.372C35.6758 209.162 35.3841 208.843 35.1699 208.415C34.9603 207.987 34.8555 207.447 34.8555 206.795V201.941H36.0176V206.727C36.0176 207.278 36.1748 207.72 36.4893 208.053C36.8083 208.385 37.2116 208.549 37.6992 208.545C37.9909 208.545 38.2871 208.472 38.5879 208.326C38.8932 208.176 39.1484 207.948 39.3535 207.643C39.5632 207.333 39.668 206.941 39.668 206.467ZM45.8203 209.748C45.3327 209.748 44.9408 209.666 44.6445 209.502C44.3483 209.333 44.1204 209.144 43.9609 208.935C43.8014 208.72 43.6784 208.545 43.5918 208.408H43.4551V209.584H42.334V199.398H43.4961V203.158H43.5918C43.6784 203.026 43.7992 202.857 43.9541 202.652C44.109 202.443 44.3324 202.256 44.624 202.092C44.9157 201.928 45.3099 201.846 45.8066 201.846C46.4492 201.846 47.0143 202.007 47.502 202.331C47.9896 202.65 48.3701 203.106 48.6436 203.698C48.9215 204.286 49.0605 204.981 49.0605 205.783C49.0605 206.59 48.9238 207.292 48.6504 207.889C48.377 208.481 47.9964 208.939 47.5088 209.263C47.0212 209.586 46.4583 209.748 45.8203 209.748ZM45.6699 208.695C46.1576 208.695 46.5654 208.565 46.8936 208.306C47.2217 208.041 47.4678 207.688 47.6318 207.246C47.8005 206.804 47.8848 206.312 47.8848 205.77C47.8848 205.232 47.8027 204.746 47.6387 204.313C47.4746 203.881 47.2285 203.536 46.9004 203.281C46.5768 203.026 46.1667 202.898 45.6699 202.898C45.1914 202.898 44.7904 203.019 44.4668 203.261C44.1432 203.498 43.8971 203.833 43.7285 204.266C43.5645 204.694 43.4824 205.195 43.4824 205.77C43.4824 206.344 43.5667 206.852 43.7354 207.294C43.904 207.731 44.1501 208.076 44.4736 208.326C44.8018 208.572 45.2005 208.695 45.6699 208.695ZM51.3574 199.398V209.584H50.1953V199.398H51.3574ZM56.0605 209.748C55.3268 209.748 54.6911 209.584 54.1533 209.256C53.6201 208.928 53.21 208.47 52.9229 207.882C52.6357 207.289 52.4922 206.604 52.4922 205.824C52.4922 205.04 52.6335 204.35 52.916 203.753C53.1986 203.156 53.5951 202.689 54.1055 202.352C54.6204 202.014 55.222 201.846 55.9102 201.846C56.3066 201.846 56.7008 201.912 57.0928 202.044C57.4847 202.176 57.8402 202.39 58.1592 202.687C58.4827 202.983 58.7402 203.375 58.9316 203.862C59.123 204.35 59.2188 204.949 59.2188 205.66V206.166H53.3262V205.154H58.583L58.043 205.537C58.043 205.027 57.9632 204.573 57.8037 204.177C57.6442 203.78 57.4049 203.468 57.0859 203.24C56.7715 203.012 56.3796 202.898 55.9102 202.898C55.4408 202.898 55.0374 203.015 54.7002 203.247C54.3675 203.475 54.1123 203.773 53.9346 204.143C53.7568 204.512 53.668 204.908 53.668 205.332V206.002C53.668 206.581 53.7682 207.071 53.9688 207.472C54.1693 207.873 54.4495 208.178 54.8096 208.388C55.1696 208.593 55.5866 208.695 56.0605 208.695C56.3659 208.695 56.6439 208.652 56.8945 208.565C57.1452 208.474 57.3617 208.34 57.5439 208.162C57.7262 207.98 57.8652 207.757 57.9609 207.492L59.0957 207.82C58.9772 208.203 58.7767 208.54 58.4941 208.832C58.2161 209.119 57.8698 209.345 57.4551 209.509C57.0404 209.668 56.5755 209.748 56.0605 209.748Z" fill="#1A1A1C" fill-opacity="0.8"/>
<rect x="2.5" y="227.084" width="238" height="40" rx="20" fill="white"/>
<rect x="2.5" y="227.084" width="238" height="40" rx="20" stroke="#DFE4EB"/>
<path d="M22.0039 252.721C21.138 252.721 20.3656 252.509 19.6865 252.085C19.0075 251.661 18.4743 251.06 18.0869 250.28C17.6995 249.496 17.5059 248.569 17.5059 247.498C17.5059 246.423 17.6995 245.493 18.0869 244.709C18.4743 243.925 19.0075 243.321 19.6865 242.897C20.3656 242.474 21.138 242.262 22.0039 242.262C22.5143 242.262 22.9951 242.337 23.4463 242.487C23.902 242.638 24.3122 242.856 24.6768 243.144C25.0413 243.426 25.3444 243.775 25.5859 244.189C25.832 244.6 26.0007 245.064 26.0918 245.584H24.8613C24.7884 245.229 24.6608 244.916 24.4785 244.647C24.3008 244.379 24.082 244.153 23.8223 243.971C23.5671 243.784 23.2845 243.645 22.9746 243.554C22.6647 243.458 22.3411 243.41 22.0039 243.41C21.3887 243.41 20.8304 243.567 20.3291 243.882C19.8278 244.192 19.429 244.652 19.1328 245.263C18.8411 245.869 18.6953 246.614 18.6953 247.498C18.6953 248.378 18.8411 249.12 19.1328 249.727C19.429 250.333 19.8278 250.793 20.3291 251.107C20.8304 251.417 21.3887 251.572 22.0039 251.572C22.3411 251.572 22.6647 251.527 22.9746 251.436C23.2845 251.34 23.5671 251.201 23.8223 251.019C24.082 250.832 24.3008 250.604 24.4785 250.335C24.6608 250.066 24.7884 249.754 24.8613 249.398H26.0918C26.0007 249.923 25.832 250.39 25.5859 250.8C25.3444 251.21 25.0413 251.559 24.6768 251.846C24.3122 252.128 23.902 252.345 23.4463 252.495C22.9951 252.646 22.5143 252.721 22.0039 252.721ZM30.3711 252.748C29.6829 252.748 29.0791 252.584 28.5596 252.256C28.04 251.928 27.6344 251.467 27.3428 250.875C27.0557 250.283 26.9121 249.594 26.9121 248.811C26.9121 248.013 27.0557 247.318 27.3428 246.726C27.6344 246.129 28.04 245.666 28.5596 245.338C29.0791 245.01 29.6829 244.846 30.3711 244.846C31.0638 244.846 31.6699 245.01 32.1895 245.338C32.709 245.666 33.1146 246.129 33.4062 246.726C33.6979 247.318 33.8438 248.013 33.8438 248.811C33.8438 249.594 33.6979 250.283 33.4062 250.875C33.1146 251.467 32.709 251.928 32.1895 252.256C31.6699 252.584 31.0638 252.748 30.3711 252.748ZM30.3711 251.695C30.8997 251.695 31.3327 251.561 31.6699 251.292C32.0072 251.023 32.2578 250.67 32.4219 250.232C32.5859 249.79 32.668 249.316 32.668 248.811C32.668 248.296 32.5859 247.817 32.4219 247.375C32.2578 246.933 32.0072 246.577 31.6699 246.309C31.3327 246.035 30.8997 245.898 30.3711 245.898C29.8516 245.898 29.4232 246.035 29.0859 246.309C28.7487 246.577 28.498 246.933 28.334 247.375C28.1699 247.817 28.0879 248.296 28.0879 248.811C28.0879 249.316 28.1699 249.79 28.334 250.232C28.498 250.67 28.7487 251.023 29.0859 251.292C29.4232 251.561 29.8516 251.695 30.3711 251.695ZM36.1406 242.398V252.584H34.9785V242.398H36.1406ZM42.457 249.467V244.941H43.6191V252.584H42.457V251.285H42.375C42.1927 251.673 41.9124 252.003 41.5342 252.276C41.1605 252.55 40.6842 252.684 40.1055 252.68C39.627 252.68 39.2031 252.577 38.834 252.372C38.4648 252.162 38.1732 251.843 37.959 251.415C37.7493 250.987 37.6445 250.447 37.6445 249.795V244.941H38.8066V249.727C38.8066 250.278 38.9639 250.72 39.2783 251.053C39.5973 251.385 40.0007 251.549 40.4883 251.545C40.7799 251.545 41.0762 251.472 41.377 251.326C41.6823 251.176 41.9375 250.948 42.1426 250.643C42.3522 250.333 42.457 249.941 42.457 249.467ZM45.123 252.584V244.941H46.2441V246.145H46.3535C46.513 245.734 46.7705 245.415 47.126 245.188C47.4814 244.96 47.9076 244.846 48.4043 244.846C48.9056 244.846 49.3226 244.96 49.6553 245.188C49.9925 245.415 50.2546 245.734 50.4414 246.145H50.5234C50.724 245.748 51.0179 245.434 51.4053 245.201C51.7972 244.964 52.2643 244.846 52.8066 244.846C53.4902 244.846 54.0508 245.06 54.4883 245.488C54.9258 245.912 55.1445 246.573 55.1445 247.471V252.584H53.9688V247.471C53.9688 246.906 53.8138 246.502 53.5039 246.261C53.194 246.019 52.8294 245.898 52.4102 245.898C51.877 245.898 51.4622 246.062 51.166 246.391C50.8743 246.714 50.7285 247.12 50.7285 247.607V252.584H49.5254V247.348C49.5254 246.915 49.3864 246.566 49.1084 246.302C48.8304 246.033 48.4681 245.898 48.0215 245.898C47.7161 245.898 47.4313 245.98 47.167 246.145C46.9027 246.309 46.6885 246.534 46.5244 246.821C46.3649 247.108 46.2852 247.439 46.2852 247.812V252.584H45.123ZM57.8105 247.99V252.584H56.6484V244.941H57.7695V246.145H57.8789C58.0566 245.753 58.3278 245.438 58.6924 245.201C59.057 244.964 59.5286 244.846 60.1074 244.846C60.6224 244.846 61.0736 244.951 61.4609 245.16C61.8483 245.37 62.1491 245.689 62.3633 246.117C62.582 246.541 62.6914 247.079 62.6914 247.73V252.584H61.5293V247.812C61.5293 247.215 61.3721 246.748 61.0576 246.411C60.7432 246.069 60.3148 245.898 59.7725 245.898C59.3988 245.898 59.0638 245.98 58.7676 246.145C58.4714 246.309 58.2367 246.546 58.0635 246.855C57.8949 247.165 57.8105 247.544 57.8105 247.99Z" fill="#1A1A1C" fill-opacity="0.8"/>
</svg>
