<svg width="390" height="610" viewBox="0 0 390 610" fill="none" xmlns="http://www.w3.org/2000/svg">
<g clip-path="url(#clip0_3495_21384)">
<rect y="0.910156" width="390" height="627" rx="10" fill="white"/>
<mask id="path-3-inside-1_3495_21384" fill="white">
<path d="M16 24.9102H374V65.9102H16V24.9102Z"/>
</mask>
<path d="M16 24.9102H374V65.9102H16V24.9102Z" fill="white"/>
<path d="M374 65.9102V64.9102H16V65.9102V66.9102H374V65.9102Z" fill="#94AECF" fill-opacity="0.11" mask="url(#path-3-inside-1_3495_21384)"/>
<path d="M29.3262 50.9102H28.0273L31.7734 40.7246H33.0449L36.7773 50.9102H35.4922L32.4434 42.3379H32.3613L29.3262 50.9102ZM29.8047 46.9316H35.0137V48.0254H29.8047V46.9316ZM40.4277 51.0742C39.7897 51.0742 39.2269 50.9124 38.7393 50.5889C38.2516 50.2653 37.8711 49.8073 37.5977 49.2148C37.3242 48.6178 37.1875 47.916 37.1875 47.1094C37.1875 46.3073 37.3242 45.6123 37.5977 45.0244C37.8757 44.432 38.2585 43.9762 38.7461 43.6572C39.2337 43.3337 39.7988 43.1719 40.4414 43.1719C40.9427 43.1719 41.3369 43.2539 41.624 43.418C41.9157 43.582 42.139 43.7689 42.2939 43.9785C42.4489 44.1836 42.5697 44.3522 42.6562 44.4844H42.752V40.7246H43.9141V50.9102H42.793V49.7344H42.6562C42.5697 49.8711 42.4466 50.0465 42.2871 50.2607C42.1276 50.4704 41.8997 50.6595 41.6035 50.8281C41.3118 50.9922 40.9199 51.0742 40.4277 51.0742ZM40.5781 50.0215C41.0521 50.0215 41.4508 49.8984 41.7744 49.6523C42.098 49.4017 42.3441 49.0576 42.5127 48.6201C42.6813 48.1781 42.7656 47.6699 42.7656 47.0957C42.7656 46.5215 42.6836 46.0202 42.5195 45.5918C42.3555 45.1589 42.1094 44.8239 41.7812 44.5869C41.4577 44.3454 41.0566 44.2246 40.5781 44.2246C40.0859 44.2246 39.6758 44.3522 39.3477 44.6074C39.0195 44.8626 38.7734 45.2067 38.6094 45.6396C38.4453 46.0726 38.3633 46.5579 38.3633 47.0957C38.3633 47.638 38.4453 48.1302 38.6094 48.5723C38.778 49.0143 39.0264 49.3675 39.3545 49.6318C39.6826 49.8916 40.0905 50.0215 40.5781 50.0215ZM45.418 43.2676H46.5801V51.4707C46.5846 51.9401 46.5049 52.3457 46.3408 52.6875C46.1813 53.0339 45.9398 53.3005 45.6162 53.4873C45.2926 53.6742 44.8848 53.7676 44.3926 53.7676H44.1602V52.6738H44.3789C44.7389 52.6738 45.001 52.569 45.165 52.3594C45.3291 52.1543 45.4134 51.8581 45.418 51.4707V43.2676ZM45.9922 41.9961C45.7643 41.9961 45.5684 41.9186 45.4043 41.7637C45.2402 41.6087 45.1582 41.4219 45.1582 41.2031C45.1582 40.9844 45.2402 40.7975 45.4043 40.6426C45.5684 40.4876 45.7643 40.4102 45.9922 40.4102C46.2201 40.4102 46.416 40.4876 46.5801 40.6426C46.7441 40.7975 46.8262 40.9844 46.8262 41.2031C46.8262 41.4219 46.7441 41.6087 46.5801 41.7637C46.416 41.9186 46.2201 41.9961 45.9922 41.9961ZM52.8965 47.793V43.2676H54.0586V50.9102H52.8965V49.6113H52.8145C52.6322 49.9987 52.3519 50.3291 51.9736 50.6025C51.5999 50.876 51.1237 51.0104 50.5449 51.0059C50.0664 51.0059 49.6426 50.9033 49.2734 50.6982C48.9043 50.4886 48.6126 50.1696 48.3984 49.7412C48.1888 49.3128 48.084 48.7728 48.084 48.1211V43.2676H49.2461V48.0527C49.2461 48.6042 49.4033 49.0462 49.7178 49.3789C50.0368 49.7116 50.4401 49.8757 50.9277 49.8711C51.2194 49.8711 51.5156 49.7982 51.8164 49.6523C52.1217 49.502 52.377 49.2741 52.582 48.9688C52.7917 48.6589 52.8965 48.2669 52.8965 47.793ZM60.9629 44.9902L59.9102 45.2773C59.8099 45.0176 59.6367 44.7715 59.3906 44.5391C59.1491 44.3021 58.7708 44.1836 58.2559 44.1836C57.791 44.1836 57.4036 44.293 57.0938 44.5117C56.7839 44.7259 56.6289 44.9948 56.6289 45.3184C56.6289 45.61 56.7337 45.8424 56.9434 46.0156C57.1576 46.1888 57.4902 46.3301 57.9414 46.4395L59.0762 46.7129C59.7552 46.877 60.2611 47.1299 60.5938 47.4717C60.931 47.8135 61.0996 48.2487 61.0996 48.7773C61.0996 49.2148 60.9743 49.6068 60.7236 49.9531C60.473 50.2995 60.1243 50.5729 59.6777 50.7734C59.2311 50.974 58.7116 51.0742 58.1191 51.0742C57.3398 51.0742 56.695 50.9033 56.1846 50.5615C55.6787 50.2197 55.3574 49.7253 55.2207 49.0781L56.3281 48.8047C56.4329 49.2148 56.6335 49.5225 56.9297 49.7275C57.2305 49.9326 57.6224 50.0352 58.1055 50.0352C58.6478 50.0352 59.0807 49.9189 59.4043 49.6865C59.7324 49.4495 59.8965 49.1693 59.8965 48.8457C59.8965 48.3079 59.5182 47.9479 58.7617 47.7656L57.4902 47.4648C56.7884 47.2962 56.2734 47.0387 55.9453 46.6924C55.6172 46.346 55.4531 45.9108 55.4531 45.3867C55.4531 44.9538 55.5739 44.571 55.8154 44.2383C56.0615 43.9056 56.3965 43.6458 56.8203 43.459C57.2441 43.2676 57.7227 43.1719 58.2559 43.1719C59.0169 43.1719 59.6117 43.3405 60.04 43.6777C60.473 44.0104 60.7806 44.4479 60.9629 44.9902ZM65.5293 43.2676V44.2656H61.5781V43.2676H65.5293ZM62.7266 41.4492H63.8887V48.7227C63.8887 49.1191 63.9707 49.4108 64.1348 49.5977C64.2988 49.7799 64.5586 49.8711 64.9141 49.8711C64.9915 49.8711 65.0713 49.8665 65.1533 49.8574C65.2399 49.8483 65.3333 49.8346 65.4336 49.8164L65.6797 50.8691C65.5703 50.9102 65.4359 50.9421 65.2764 50.9648C65.1214 50.9922 64.9642 51.0059 64.8047 51.0059C64.1895 51.0059 63.6882 50.8236 63.3008 50.459C62.918 50.0944 62.7266 49.6204 62.7266 49.0371V41.4492Z" fill="#1A1A1C" fill-opacity="0.6"/>
<path d="M357 46.4102C357.552 46.4102 358 45.9624 358 45.4102C358 44.8579 357.552 44.4102 357 44.4102C356.448 44.4102 356 44.8579 356 45.4102C356 45.9624 356.448 46.4102 357 46.4102Z" stroke="#1A1A1C" stroke-linecap="round" stroke-linejoin="round"/>
<path d="M350 46.4102C350.552 46.4102 351 45.9624 351 45.4102C351 44.8579 350.552 44.4102 350 44.4102C349.448 44.4102 349 44.8579 349 45.4102C349 45.9624 349.448 46.4102 350 46.4102Z" stroke="#1A1A1C" stroke-linecap="round" stroke-linejoin="round"/>
<path d="M343 46.4102C343.552 46.4102 344 45.9624 344 45.4102C344 44.8579 343.552 44.4102 343 44.4102C342.448 44.4102 342 44.8579 342 45.4102C342 45.9624 342.448 46.4102 343 46.4102Z" stroke="#1A1A1C" stroke-linecap="round" stroke-linejoin="round"/>
<path d="M29.6885 102.91H28.0547L31.7188 92.7246H33.4961L37.1533 102.91H35.5264L32.6416 94.5771H32.5596L29.6885 102.91ZM29.9619 98.9248H35.2461V100.21H29.9619V98.9248ZM39.3887 92.7246V102.91H37.9121V92.7246H39.3887ZM40.8105 102.91V95.2676H42.2871V102.91H40.8105ZM41.5557 94.0918C41.2959 94.0918 41.0749 94.0052 40.8926 93.832C40.7103 93.6589 40.6191 93.4515 40.6191 93.21C40.6191 92.9639 40.7103 92.7542 40.8926 92.5811C41.0749 92.4079 41.2959 92.3213 41.5557 92.3213C41.8109 92.3213 42.0296 92.4079 42.2119 92.5811C42.3988 92.7542 42.4922 92.9639 42.4922 93.21C42.4922 93.4515 42.3988 93.6589 42.2119 93.832C42.0296 94.0052 41.8109 94.0918 41.5557 94.0918ZM46.8945 105.932C45.9831 105.932 45.2653 105.761 44.7412 105.419C44.2171 105.077 43.8548 104.672 43.6543 104.202L44.9258 103.676C45.0169 103.822 45.1377 103.977 45.2881 104.141C45.443 104.305 45.6504 104.444 45.9102 104.558C46.1699 104.672 46.5049 104.729 46.915 104.729C47.4756 104.729 47.9404 104.592 48.3096 104.318C48.6787 104.049 48.8633 103.617 48.8633 103.02V101.522H48.7607C48.6787 101.682 48.5534 101.862 48.3848 102.062C48.2161 102.258 47.986 102.429 47.6943 102.575C47.4027 102.721 47.0221 102.794 46.5527 102.794C45.9512 102.794 45.4089 102.653 44.9258 102.37C44.4473 102.083 44.0645 101.664 43.7773 101.112C43.4948 100.556 43.3535 99.8727 43.3535 99.0615C43.3535 98.2503 43.4925 97.5553 43.7705 96.9766C44.0531 96.3932 44.4359 95.9466 44.9189 95.6367C45.402 95.3268 45.9512 95.1719 46.5664 95.1719C47.0404 95.1719 47.4232 95.2516 47.7148 95.4111C48.0111 95.5661 48.2412 95.7484 48.4053 95.958C48.5693 96.1676 48.6969 96.3522 48.7881 96.5117H48.8975V95.2676H50.3398V103.081C50.3398 103.737 50.1872 104.275 49.8818 104.694C49.5811 105.114 49.1709 105.424 48.6514 105.624C48.1318 105.829 47.5462 105.932 46.8945 105.932ZM46.8809 101.557C47.5234 101.557 48.0156 101.336 48.3574 100.894C48.7038 100.447 48.877 99.8294 48.877 99.041C48.877 98.526 48.8018 98.0749 48.6514 97.6875C48.501 97.2956 48.2777 96.9902 47.9814 96.7715C47.6852 96.5482 47.3184 96.4365 46.8809 96.4365C46.4342 96.4365 46.0605 96.5527 45.7598 96.7852C45.4635 97.013 45.2402 97.3252 45.0898 97.7217C44.9395 98.1136 44.8643 98.5534 44.8643 99.041C44.8643 99.5378 44.9395 99.9775 45.0898 100.36C45.2402 100.739 45.4658 101.033 45.7666 101.242C46.0719 101.452 46.4434 101.557 46.8809 101.557ZM53.2383 98.3779V102.91H51.7617V95.2676H53.1973V96.5254H53.2998C53.473 96.1107 53.7441 95.7826 54.1133 95.541C54.4824 95.2949 54.9564 95.1719 55.5352 95.1719C56.0547 95.1719 56.5081 95.2812 56.8955 95.5C57.2874 95.7142 57.5905 96.0355 57.8047 96.4639C58.0234 96.8923 58.1328 97.4232 58.1328 98.0566V102.91H56.6562V98.2344C56.6562 97.6829 56.5104 97.25 56.2188 96.9355C55.9271 96.6165 55.5306 96.457 55.0293 96.457C54.6875 96.457 54.3799 96.5345 54.1064 96.6895C53.8376 96.8398 53.6257 97.0563 53.4707 97.3389C53.3158 97.6214 53.2383 97.9678 53.2383 98.3779Z" fill="#1A1A1C" fill-opacity="0.8"/>
<g clip-path="url(#clip1_3495_21384)">
<rect x="16" y="121.91" width="53.6667" height="31" rx="5" fill="#EAECEB"/>
<path d="M37.6758 132.254V142.566" stroke="#1A1A1C" stroke-linecap="round" stroke-linejoin="round"/>
<path d="M45.6445 133.191H40.0195C39.7606 133.191 39.5508 133.401 39.5508 133.66V136.004C39.5508 136.263 39.7606 136.473 40.0195 136.473H45.6445C45.9034 136.473 46.1133 136.263 46.1133 136.004V133.66C46.1133 133.401 45.9034 133.191 45.6445 133.191Z" stroke="#1A1A1C" stroke-linecap="round" stroke-linejoin="round"/>
<path d="M47.9883 138.348H40.0195C39.7606 138.348 39.5508 138.558 39.5508 138.816V141.16C39.5508 141.419 39.7606 141.629 40.0195 141.629H47.9883C48.2472 141.629 48.457 141.419 48.457 141.16V138.816C48.457 138.558 48.2472 138.348 47.9883 138.348Z" stroke="#1A1A1C" stroke-linecap="round" stroke-linejoin="round"/>
<rect x="71.668" y="121.91" width="53.6667" height="31" rx="5" fill="#EAECEB"/>
<path d="M98.5 131.785V133.191" stroke="#1A1A1C" stroke-linecap="round" stroke-linejoin="round"/>
<path d="M98.5 141.629V143.035" stroke="#1A1A1C" stroke-linecap="round" stroke-linejoin="round"/>
<path d="M98.5 136.473V138.348" stroke="#1A1A1C" stroke-linecap="round" stroke-linejoin="round"/>
<path d="M101.781 133.191H95.2188C94.9599 133.191 94.75 133.401 94.75 133.66V136.004C94.75 136.263 94.9599 136.473 95.2188 136.473H101.781C102.04 136.473 102.25 136.263 102.25 136.004V133.66C102.25 133.401 102.04 133.191 101.781 133.191Z" stroke="#1A1A1C" stroke-linecap="round" stroke-linejoin="round"/>
<path d="M103.188 138.348H93.8125C93.5536 138.348 93.3438 138.558 93.3438 138.816V141.16C93.3438 141.419 93.5536 141.629 93.8125 141.629H103.188C103.446 141.629 103.656 141.419 103.656 141.16V138.816C103.656 138.558 103.446 138.348 103.188 138.348Z" stroke="#1A1A1C" stroke-linecap="round" stroke-linejoin="round"/>
<rect x="127.332" y="121.91" width="53.6667" height="31" rx="5" fill="#EAECEB"/>
<path d="M159.32 132.254V142.566" stroke="#1A1A1C" stroke-linecap="round" stroke-linejoin="round"/>
<path d="M151.352 136.473H156.977C157.235 136.473 157.445 136.263 157.445 136.004V133.66C157.445 133.401 157.235 133.191 156.977 133.191H151.352C151.093 133.191 150.883 133.401 150.883 133.66V136.004C150.883 136.263 151.093 136.473 151.352 136.473Z" stroke="#1A1A1C" stroke-linecap="round" stroke-linejoin="round"/>
<path d="M156.977 138.348H149.008C148.749 138.348 148.539 138.558 148.539 138.816V141.16C148.539 141.419 148.749 141.629 149.008 141.629H156.977C157.235 141.629 157.445 141.419 157.445 141.16V138.816C157.445 138.558 157.235 138.348 156.977 138.348Z" stroke="#1A1A1C" stroke-linecap="round" stroke-linejoin="round"/>
</g>
<g clip-path="url(#clip2_3495_21384)">
<rect x="209" y="121.91" width="53.6667" height="31" rx="5" fill="#EAECEB"/>
<path d="M240.988 132.254H230.676" stroke="#1A1A1C" stroke-linecap="round" stroke-linejoin="round"/>
<path d="M240.051 140.223V134.598C240.051 134.339 239.841 134.129 239.582 134.129H237.238C236.979 134.129 236.77 134.339 236.77 134.598V140.223C236.77 140.482 236.979 140.691 237.238 140.691H239.582C239.841 140.691 240.051 140.482 240.051 140.223Z" stroke="#1A1A1C" stroke-linecap="round" stroke-linejoin="round"/>
<path d="M234.426 134.129H232.082C231.823 134.129 231.613 134.339 231.613 134.598V142.566C231.613 142.825 231.823 143.035 232.082 143.035H234.426C234.685 143.035 234.895 142.825 234.895 142.566V134.598C234.895 134.339 234.685 134.129 234.426 134.129Z" stroke="#1A1A1C" stroke-linecap="round" stroke-linejoin="round"/>
<rect x="264.668" y="121.91" width="53.6667" height="31" rx="5" fill="#EAECEB"/>
<path d="M297.125 137.41H295.719" stroke="#1A1A1C" stroke-linecap="round" stroke-linejoin="round"/>
<path d="M287.281 137.41H285.875" stroke="#1A1A1C" stroke-linecap="round" stroke-linejoin="round"/>
<path d="M292.438 137.41H290.562" stroke="#1A1A1C" stroke-linecap="round" stroke-linejoin="round"/>
<path d="M295.719 140.691V134.129C295.719 133.87 295.509 133.66 295.25 133.66H292.906C292.647 133.66 292.438 133.87 292.438 134.129V140.691C292.438 140.95 292.647 141.16 292.906 141.16H295.25C295.509 141.16 295.719 140.95 295.719 140.691Z" stroke="#1A1A1C" stroke-linecap="round" stroke-linejoin="round"/>
<path d="M290.094 132.254H287.75C287.491 132.254 287.281 132.464 287.281 132.723V142.098C287.281 142.357 287.491 142.566 287.75 142.566H290.094C290.353 142.566 290.562 142.357 290.562 142.098V132.723C290.562 132.464 290.353 132.254 290.094 132.254Z" stroke="#1A1A1C" stroke-linecap="round" stroke-linejoin="round"/>
<rect x="320.332" y="121.91" width="53.6667" height="31" rx="5" fill="#EAECEB"/>
<path d="M352.32 142.566H342.008" stroke="#1A1A1C" stroke-linecap="round" stroke-linejoin="round"/>
<path d="M348.102 134.598V140.223C348.102 140.482 348.311 140.691 348.57 140.691H350.914C351.173 140.691 351.383 140.482 351.383 140.223V134.598C351.383 134.339 351.173 134.129 350.914 134.129H348.57C348.311 134.129 348.102 134.339 348.102 134.598Z" stroke="#1A1A1C" stroke-linecap="round" stroke-linejoin="round"/>
<path d="M345.758 131.785H343.414C343.155 131.785 342.945 131.995 342.945 132.254V140.223C342.945 140.482 343.155 140.691 343.414 140.691H345.758C346.017 140.691 346.227 140.482 346.227 140.223V132.254C346.227 131.995 346.017 131.785 345.758 131.785Z" stroke="#1A1A1C" stroke-linecap="round" stroke-linejoin="round"/>
</g>
<path d="M28.8203 189.91V179.725H35.2119V181.044H30.3584V184.113H34.8701V185.426H30.3584V188.591H35.2598V189.91H28.8203ZM39.4023 190.061C38.7826 190.061 38.2311 189.903 37.748 189.589C37.265 189.27 36.8867 188.816 36.6133 188.229C36.3398 187.636 36.2031 186.93 36.2031 186.109C36.2031 185.28 36.3421 184.571 36.6201 183.983C36.8981 183.396 37.2786 182.947 37.7617 182.637C38.2448 182.327 38.7917 182.172 39.4023 182.172C39.8809 182.172 40.2637 182.252 40.5508 182.411C40.8424 182.566 41.068 182.748 41.2275 182.958C41.3916 183.168 41.5169 183.352 41.6035 183.512H41.6924V179.725H43.1689V189.91H41.7266V188.721H41.6035C41.5169 188.88 41.3893 189.065 41.2207 189.274C41.0521 189.484 40.8219 189.669 40.5303 189.828C40.2432 189.983 39.8672 190.061 39.4023 190.061ZM39.7236 188.796C40.152 188.796 40.5143 188.682 40.8105 188.454C41.1068 188.226 41.3301 187.91 41.4805 187.504C41.6354 187.098 41.7129 186.629 41.7129 186.096C41.7129 185.562 41.6377 185.098 41.4873 184.701C41.3369 184.3 41.1136 183.99 40.8174 183.771C40.5212 183.548 40.1566 183.437 39.7236 183.437C39.277 183.437 38.9056 183.553 38.6094 183.785C38.3132 184.018 38.0898 184.334 37.9395 184.735C37.7891 185.136 37.7139 185.59 37.7139 186.096C37.7139 186.606 37.7891 187.066 37.9395 187.477C38.0898 187.882 38.3132 188.203 38.6094 188.44C38.9102 188.677 39.2816 188.796 39.7236 188.796ZM44.5977 189.91V182.268H46.0742V189.91H44.5977ZM45.3428 181.092C45.083 181.092 44.862 181.005 44.6797 180.832C44.4974 180.659 44.4062 180.451 44.4062 180.21C44.4062 179.964 44.4974 179.754 44.6797 179.581C44.862 179.408 45.083 179.321 45.3428 179.321C45.598 179.321 45.8167 179.408 45.999 179.581C46.1859 179.754 46.2793 179.964 46.2793 180.21C46.2793 180.451 46.1859 180.659 45.999 180.832C45.8167 181.005 45.598 181.092 45.3428 181.092ZM51.0508 182.268V183.464H46.8809V182.268H51.0508ZM47.9951 180.449H49.4785V187.668C49.4785 188.019 49.5514 188.276 49.6973 188.44C49.8431 188.6 50.0778 188.68 50.4014 188.68C50.4788 188.68 50.5609 188.675 50.6475 188.666C50.7386 188.657 50.8298 188.643 50.9209 188.625L51.2012 189.855C51.0508 189.906 50.8867 189.944 50.709 189.972C50.5312 189.999 50.3535 190.013 50.1758 190.013C49.515 190.013 48.9863 189.828 48.5898 189.459C48.1934 189.085 47.9951 188.589 47.9951 187.969V180.449ZM54.8379 181.044V179.725H62.7266V181.044H59.5547V189.91H58.0234V181.044H54.8379ZM65.9463 190.067C65.1989 190.067 64.5518 189.906 64.0049 189.582C63.458 189.258 63.0365 188.803 62.7402 188.215C62.4486 187.622 62.3027 186.932 62.3027 186.144C62.3027 185.36 62.4463 184.669 62.7334 184.072C63.0251 183.475 63.4329 183.01 63.957 182.678C64.4857 182.34 65.1055 182.172 65.8164 182.172C66.2493 182.172 66.6686 182.243 67.0742 182.384C67.4798 182.525 67.8444 182.748 68.168 183.054C68.4915 183.359 68.7467 183.756 68.9336 184.243C69.125 184.731 69.2207 185.319 69.2207 186.007V186.54H63.1436V185.426H68.4551L67.7646 185.795C67.7646 185.326 67.6917 184.911 67.5459 184.551C67.4001 184.191 67.1813 183.91 66.8896 183.71C66.6025 183.505 66.2448 183.402 65.8164 183.402C65.388 183.402 65.0212 183.505 64.7158 183.71C64.415 183.915 64.1849 184.186 64.0254 184.523C63.8659 184.861 63.7861 185.23 63.7861 185.631V186.39C63.7861 186.914 63.8773 187.358 64.0596 187.723C64.2419 188.087 64.4948 188.365 64.8184 188.557C65.1465 188.748 65.527 188.844 65.96 188.844C66.2425 188.844 66.4977 188.803 66.7256 188.721C66.958 188.639 67.1585 188.516 67.3271 188.352C67.4958 188.188 67.6234 187.985 67.71 187.743L69.1182 188.01C69.0042 188.42 68.8037 188.78 68.5166 189.09C68.2295 189.4 67.8672 189.641 67.4297 189.814C66.9967 189.983 66.5023 190.067 65.9463 190.067ZM75.9746 184.141L74.6279 184.373C74.5413 184.118 74.3796 183.883 74.1426 183.669C73.9102 183.455 73.5615 183.348 73.0967 183.348C72.6774 183.348 72.3265 183.443 72.0439 183.635C71.766 183.822 71.627 184.061 71.627 184.353C71.627 184.608 71.7204 184.815 71.9072 184.975C72.0986 185.134 72.4017 185.262 72.8164 185.357L74.04 185.631C74.7373 185.79 75.2591 186.041 75.6055 186.383C75.9518 186.725 76.125 187.162 76.125 187.695C76.125 188.156 75.9928 188.566 75.7285 188.926C75.4642 189.281 75.0973 189.562 74.6279 189.767C74.1585 189.967 73.6162 190.067 73.001 190.067C72.1442 190.067 71.4469 189.883 70.9092 189.514C70.3714 189.145 70.041 188.625 69.918 187.955L71.3467 187.736C71.4378 188.11 71.6224 188.393 71.9004 188.584C72.1829 188.775 72.5475 188.871 72.9941 188.871C73.4772 188.871 73.8646 188.769 74.1562 188.563C74.4525 188.358 74.6006 188.11 74.6006 187.818C74.6006 187.335 74.2406 187.009 73.5205 186.841L72.2285 186.554C71.513 186.39 70.9844 186.132 70.6426 185.781C70.3053 185.426 70.1367 184.979 70.1367 184.441C70.1367 183.99 70.262 183.594 70.5127 183.252C70.7679 182.91 71.1165 182.646 71.5586 182.459C72.0052 182.268 72.5133 182.172 73.083 182.172C73.9124 182.172 74.5618 182.352 75.0312 182.712C75.5052 183.072 75.8197 183.548 75.9746 184.141ZM80.7188 182.268V183.464H76.5488V182.268H80.7188ZM77.6631 180.449H79.1465V187.668C79.1465 188.019 79.2194 188.276 79.3652 188.44C79.5111 188.6 79.7458 188.68 80.0693 188.68C80.1468 188.68 80.2288 188.675 80.3154 188.666C80.4066 188.657 80.4977 188.643 80.5889 188.625L80.8691 189.855C80.7188 189.906 80.5547 189.944 80.377 189.972C80.1992 189.999 80.0215 190.013 79.8438 190.013C79.1829 190.013 78.6543 189.828 78.2578 189.459C77.8613 189.085 77.6631 188.589 77.6631 187.969V180.449Z" fill="#1A1A1C"/>
<rect x="16.5" y="203.41" width="357" height="76" rx="7.5" stroke="#D7DDE5"/>
<path d="M30.0469 228.91H27.5996V227.816H29.9648C30.8079 227.816 31.5052 227.655 32.0566 227.331C32.6126 227.007 33.0273 226.545 33.3008 225.943C33.5742 225.342 33.7109 224.626 33.7109 223.797C33.7109 222.977 33.5765 222.27 33.3076 221.678C33.0387 221.081 32.6354 220.623 32.0977 220.304C31.5645 219.98 30.8991 219.818 30.1016 219.818H27.5449V218.725H30.1836C31.1725 218.725 32.0179 218.927 32.7197 219.333C33.4261 219.739 33.9661 220.322 34.3398 221.083C34.7135 221.84 34.9004 222.744 34.9004 223.797C34.9004 224.859 34.7113 225.772 34.333 226.538C33.9548 227.299 33.4033 227.885 32.6787 228.295C31.9587 228.705 31.0814 228.91 30.0469 228.91ZM28.1328 218.725V228.91H26.9023V218.725H28.1328ZM39.248 229.074C38.5599 229.074 37.9561 228.91 37.4365 228.582C36.917 228.254 36.5114 227.794 36.2197 227.201C35.9326 226.609 35.7891 225.921 35.7891 225.137C35.7891 224.339 35.9326 223.644 36.2197 223.052C36.5114 222.455 36.917 221.992 37.4365 221.664C37.9561 221.336 38.5599 221.172 39.248 221.172C39.9408 221.172 40.5469 221.336 41.0664 221.664C41.5859 221.992 41.9915 222.455 42.2832 223.052C42.5749 223.644 42.7207 224.339 42.7207 225.137C42.7207 225.921 42.5749 226.609 42.2832 227.201C41.9915 227.794 41.5859 228.254 41.0664 228.582C40.5469 228.91 39.9408 229.074 39.248 229.074ZM39.248 228.021C39.7767 228.021 40.2096 227.887 40.5469 227.618C40.8841 227.349 41.1348 226.996 41.2988 226.559C41.4629 226.117 41.5449 225.643 41.5449 225.137C41.5449 224.622 41.4629 224.143 41.2988 223.701C41.1348 223.259 40.8841 222.904 40.5469 222.635C40.2096 222.361 39.7767 222.225 39.248 222.225C38.7285 222.225 38.3001 222.361 37.9629 222.635C37.6257 222.904 37.375 223.259 37.2109 223.701C37.0469 224.143 36.9648 224.622 36.9648 225.137C36.9648 225.643 37.0469 226.117 37.2109 226.559C37.375 226.996 37.6257 227.349 37.9629 227.618C38.3001 227.887 38.7285 228.021 39.248 228.021ZM48.668 225.793V221.268H49.8301V228.91H48.668V227.611H48.5859C48.4036 227.999 48.1234 228.329 47.7451 228.603C47.3714 228.876 46.8952 229.01 46.3164 229.006C45.8379 229.006 45.4141 228.903 45.0449 228.698C44.6758 228.489 44.3841 228.17 44.1699 227.741C43.9603 227.313 43.8555 226.773 43.8555 226.121V221.268H45.0176V226.053C45.0176 226.604 45.1748 227.046 45.4893 227.379C45.8083 227.712 46.2116 227.876 46.6992 227.871C46.9909 227.871 47.2871 227.798 47.5879 227.652C47.8932 227.502 48.1484 227.274 48.3535 226.969C48.5632 226.659 48.668 226.267 48.668 225.793ZM54.8203 229.074C54.3327 229.074 53.9408 228.992 53.6445 228.828C53.3483 228.66 53.1204 228.47 52.9609 228.261C52.8014 228.047 52.6784 227.871 52.5918 227.734H52.4551V228.91H51.334V218.725H52.4961V222.484H52.5918C52.6784 222.352 52.7992 222.184 52.9541 221.979C53.109 221.769 53.3324 221.582 53.624 221.418C53.9157 221.254 54.3099 221.172 54.8066 221.172C55.4492 221.172 56.0143 221.334 56.502 221.657C56.9896 221.976 57.3701 222.432 57.6436 223.024C57.9215 223.612 58.0605 224.307 58.0605 225.109C58.0605 225.916 57.9238 226.618 57.6504 227.215C57.377 227.807 56.9964 228.265 56.5088 228.589C56.0212 228.912 55.4583 229.074 54.8203 229.074ZM54.6699 228.021C55.1576 228.021 55.5654 227.892 55.8936 227.632C56.2217 227.368 56.4678 227.014 56.6318 226.572C56.8005 226.13 56.8848 225.638 56.8848 225.096C56.8848 224.558 56.8027 224.073 56.6387 223.64C56.4746 223.207 56.2285 222.863 55.9004 222.607C55.5768 222.352 55.1667 222.225 54.6699 222.225C54.1914 222.225 53.7904 222.345 53.4668 222.587C53.1432 222.824 52.8971 223.159 52.7285 223.592C52.5645 224.02 52.4824 224.521 52.4824 225.096C52.4824 225.67 52.5667 226.178 52.7354 226.62C52.904 227.058 53.1501 227.402 53.4736 227.652C53.8018 227.898 54.2005 228.021 54.6699 228.021ZM60.3574 218.725V228.91H59.1953V218.725H60.3574ZM65.0605 229.074C64.3268 229.074 63.6911 228.91 63.1533 228.582C62.6201 228.254 62.21 227.796 61.9229 227.208C61.6357 226.616 61.4922 225.93 61.4922 225.15C61.4922 224.367 61.6335 223.676 61.916 223.079C62.1986 222.482 62.5951 222.015 63.1055 221.678C63.6204 221.34 64.222 221.172 64.9102 221.172C65.3066 221.172 65.7008 221.238 66.0928 221.37C66.4847 221.502 66.8402 221.716 67.1592 222.013C67.4827 222.309 67.7402 222.701 67.9316 223.188C68.123 223.676 68.2188 224.275 68.2188 224.986V225.492H62.3262V224.48H67.583L67.043 224.863C67.043 224.353 66.9632 223.899 66.8037 223.503C66.6442 223.106 66.4049 222.794 66.0859 222.566C65.7715 222.339 65.3796 222.225 64.9102 222.225C64.4408 222.225 64.0374 222.341 63.7002 222.573C63.3675 222.801 63.1123 223.1 62.9346 223.469C62.7568 223.838 62.668 224.234 62.668 224.658V225.328C62.668 225.907 62.7682 226.397 62.9688 226.798C63.1693 227.199 63.4495 227.504 63.8096 227.714C64.1696 227.919 64.5866 228.021 65.0605 228.021C65.3659 228.021 65.6439 227.978 65.8945 227.892C66.1452 227.8 66.3617 227.666 66.5439 227.488C66.7262 227.306 66.8652 227.083 66.9609 226.818L68.0957 227.146C67.9772 227.529 67.7767 227.867 67.4941 228.158C67.2161 228.445 66.8698 228.671 66.4551 228.835C66.0404 228.994 65.5755 229.074 65.0605 229.074ZM75.6973 229.074C74.9863 229.074 74.3711 228.906 73.8516 228.568C73.3366 228.227 72.9378 227.759 72.6553 227.167C72.3773 226.575 72.2383 225.898 72.2383 225.137C72.2383 224.357 72.3818 223.672 72.6689 223.079C72.9561 222.482 73.3571 222.015 73.8721 221.678C74.3916 221.34 74.9954 221.172 75.6836 221.172C76.2214 221.172 76.7044 221.272 77.1328 221.473C77.5658 221.669 77.9189 221.947 78.1924 222.307C78.4704 222.667 78.6413 223.086 78.7051 223.564H77.5293C77.4701 223.332 77.363 223.113 77.208 222.908C77.0531 222.703 76.848 222.539 76.5928 222.416C76.3421 222.288 76.0436 222.225 75.6973 222.225C75.2415 222.225 74.8428 222.343 74.501 222.58C74.1592 222.817 73.8926 223.152 73.7012 223.585C73.5098 224.013 73.4141 224.517 73.4141 225.096C73.4141 225.684 73.5075 226.199 73.6943 226.641C73.8812 227.078 74.1455 227.418 74.4873 227.659C74.8337 227.901 75.237 228.021 75.6973 228.021C76.1576 228.021 76.5518 227.903 76.8799 227.666C77.208 227.424 77.4245 227.096 77.5293 226.682H78.7051C78.6413 227.133 78.4772 227.538 78.2129 227.898C77.9531 228.258 77.609 228.546 77.1807 228.76C76.7568 228.969 76.2624 229.074 75.6973 229.074ZM80.9746 218.725V228.91H79.8125V218.725H80.9746ZM82.4785 228.91V221.268H83.6406V228.91H82.4785ZM83.0664 219.996C82.8385 219.996 82.6426 219.919 82.4785 219.764C82.3145 219.609 82.2324 219.422 82.2324 219.203C82.2324 218.984 82.3145 218.798 82.4785 218.643C82.6426 218.488 82.8385 218.41 83.0664 218.41C83.2943 218.41 83.4902 218.488 83.6543 218.643C83.8184 218.798 83.9004 218.984 83.9004 219.203C83.9004 219.422 83.8184 219.609 83.6543 219.764C83.4902 219.919 83.2943 219.996 83.0664 219.996ZM88.2344 229.074C87.5234 229.074 86.9082 228.906 86.3887 228.568C85.8737 228.227 85.4749 227.759 85.1924 227.167C84.9144 226.575 84.7754 225.898 84.7754 225.137C84.7754 224.357 84.9189 223.672 85.2061 223.079C85.4932 222.482 85.8942 222.015 86.4092 221.678C86.9287 221.34 87.5326 221.172 88.2207 221.172C88.7585 221.172 89.2415 221.272 89.6699 221.473C90.1029 221.669 90.4561 221.947 90.7295 222.307C91.0075 222.667 91.1784 223.086 91.2422 223.564H90.0664C90.0072 223.332 89.9001 223.113 89.7451 222.908C89.5902 222.703 89.3851 222.539 89.1299 222.416C88.8792 222.288 88.5807 222.225 88.2344 222.225C87.7786 222.225 87.3799 222.343 87.0381 222.58C86.6963 222.817 86.4297 223.152 86.2383 223.585C86.0469 224.013 85.9512 224.517 85.9512 225.096C85.9512 225.684 86.0446 226.199 86.2314 226.641C86.4183 227.078 86.6826 227.418 87.0244 227.659C87.3708 227.901 87.7741 228.021 88.2344 228.021C88.6947 228.021 89.0889 227.903 89.417 227.666C89.7451 227.424 89.9616 227.096 90.0664 226.682H91.2422C91.1784 227.133 91.0143 227.538 90.75 227.898C90.4902 228.258 90.1462 228.546 89.7178 228.76C89.2939 228.969 88.7995 229.074 88.2344 229.074ZM93.4434 226.121L93.416 224.672H93.6621L96.998 221.268H98.4473L94.8926 224.877H94.7832L93.4434 226.121ZM92.3496 228.91V218.725H93.5117V228.91H92.3496ZM97.1895 228.91L94.209 225.137L95.043 224.316L98.6934 228.91H97.1895ZM105.898 221.268V222.266H101.947V221.268H105.898ZM103.096 219.449H104.258V226.723C104.258 227.119 104.34 227.411 104.504 227.598C104.668 227.78 104.928 227.871 105.283 227.871C105.361 227.871 105.44 227.867 105.522 227.857C105.609 227.848 105.702 227.835 105.803 227.816L106.049 228.869C105.939 228.91 105.805 228.942 105.646 228.965C105.491 228.992 105.333 229.006 105.174 229.006C104.559 229.006 104.057 228.824 103.67 228.459C103.287 228.094 103.096 227.62 103.096 227.037V219.449ZM110.027 229.074C109.339 229.074 108.735 228.91 108.216 228.582C107.696 228.254 107.291 227.794 106.999 227.201C106.712 226.609 106.568 225.921 106.568 225.137C106.568 224.339 106.712 223.644 106.999 223.052C107.291 222.455 107.696 221.992 108.216 221.664C108.735 221.336 109.339 221.172 110.027 221.172C110.72 221.172 111.326 221.336 111.846 221.664C112.365 221.992 112.771 222.455 113.062 223.052C113.354 223.644 113.5 224.339 113.5 225.137C113.5 225.921 113.354 226.609 113.062 227.201C112.771 227.794 112.365 228.254 111.846 228.582C111.326 228.91 110.72 229.074 110.027 229.074ZM110.027 228.021C110.556 228.021 110.989 227.887 111.326 227.618C111.663 227.349 111.914 226.996 112.078 226.559C112.242 226.117 112.324 225.643 112.324 225.137C112.324 224.622 112.242 224.143 112.078 223.701C111.914 223.259 111.663 222.904 111.326 222.635C110.989 222.361 110.556 222.225 110.027 222.225C109.508 222.225 109.079 222.361 108.742 222.635C108.405 222.904 108.154 223.259 107.99 223.701C107.826 224.143 107.744 224.622 107.744 225.137C107.744 225.643 107.826 226.117 107.99 226.559C108.154 226.996 108.405 227.349 108.742 227.618C109.079 227.887 109.508 228.021 110.027 228.021ZM121.115 229.074C120.382 229.074 119.746 228.91 119.208 228.582C118.675 228.254 118.265 227.796 117.978 227.208C117.69 226.616 117.547 225.93 117.547 225.15C117.547 224.367 117.688 223.676 117.971 223.079C118.253 222.482 118.65 222.015 119.16 221.678C119.675 221.34 120.277 221.172 120.965 221.172C121.361 221.172 121.756 221.238 122.147 221.37C122.539 221.502 122.895 221.716 123.214 222.013C123.537 222.309 123.795 222.701 123.986 223.188C124.178 223.676 124.273 224.275 124.273 224.986V225.492H118.381V224.48H123.638L123.098 224.863C123.098 224.353 123.018 223.899 122.858 223.503C122.699 223.106 122.46 222.794 122.141 222.566C121.826 222.339 121.434 222.225 120.965 222.225C120.495 222.225 120.092 222.341 119.755 222.573C119.422 222.801 119.167 223.1 118.989 223.469C118.812 223.838 118.723 224.234 118.723 224.658V225.328C118.723 225.907 118.823 226.397 119.023 226.798C119.224 227.199 119.504 227.504 119.864 227.714C120.224 227.919 120.641 228.021 121.115 228.021C121.421 228.021 121.699 227.978 121.949 227.892C122.2 227.8 122.416 227.666 122.599 227.488C122.781 227.306 122.92 227.083 123.016 226.818L124.15 227.146C124.032 227.529 123.831 227.867 123.549 228.158C123.271 228.445 122.924 228.671 122.51 228.835C122.095 228.994 121.63 229.074 121.115 229.074ZM128.252 229.074C127.614 229.074 127.051 228.912 126.563 228.589C126.076 228.265 125.695 227.807 125.422 227.215C125.148 226.618 125.012 225.916 125.012 225.109C125.012 224.307 125.148 223.612 125.422 223.024C125.7 222.432 126.083 221.976 126.57 221.657C127.058 221.334 127.623 221.172 128.266 221.172C128.767 221.172 129.161 221.254 129.448 221.418C129.74 221.582 129.963 221.769 130.118 221.979C130.273 222.184 130.394 222.352 130.48 222.484H130.576V218.725H131.738V228.91H130.617V227.734H130.48C130.394 227.871 130.271 228.047 130.111 228.261C129.952 228.47 129.724 228.66 129.428 228.828C129.136 228.992 128.744 229.074 128.252 229.074ZM128.402 228.021C128.876 228.021 129.275 227.898 129.599 227.652C129.922 227.402 130.168 227.058 130.337 226.62C130.506 226.178 130.59 225.67 130.59 225.096C130.59 224.521 130.508 224.02 130.344 223.592C130.18 223.159 129.934 222.824 129.605 222.587C129.282 222.345 128.881 222.225 128.402 222.225C127.91 222.225 127.5 222.352 127.172 222.607C126.844 222.863 126.598 223.207 126.434 223.64C126.27 224.073 126.188 224.558 126.188 225.096C126.188 225.638 126.27 226.13 126.434 226.572C126.602 227.014 126.851 227.368 127.179 227.632C127.507 227.892 127.915 228.021 128.402 228.021ZM133.242 228.91V221.268H134.404V228.91H133.242ZM133.83 219.996C133.602 219.996 133.406 219.919 133.242 219.764C133.078 219.609 132.996 219.422 132.996 219.203C132.996 218.984 133.078 218.798 133.242 218.643C133.406 218.488 133.602 218.41 133.83 218.41C134.058 218.41 134.254 218.488 134.418 218.643C134.582 218.798 134.664 218.984 134.664 219.203C134.664 219.422 134.582 219.609 134.418 219.764C134.254 219.919 134.058 219.996 133.83 219.996ZM139.217 221.268V222.266H135.266V221.268H139.217ZM136.414 219.449H137.576V226.723C137.576 227.119 137.658 227.411 137.822 227.598C137.986 227.78 138.246 227.871 138.602 227.871C138.679 227.871 138.759 227.867 138.841 227.857C138.927 227.848 139.021 227.835 139.121 227.816L139.367 228.869C139.258 228.91 139.123 228.942 138.964 228.965C138.809 228.992 138.652 229.006 138.492 229.006C137.877 229.006 137.376 228.824 136.988 228.459C136.605 228.094 136.414 227.62 136.414 227.037V219.449Z" fill="#1A1A1C" fill-opacity="0.6"/>
<path d="M28.3145 303.044V301.725H36.2031V303.044H33.0312V311.91H31.5V303.044H28.3145ZM39.4229 312.067C38.6755 312.067 38.0283 311.906 37.4814 311.582C36.9346 311.258 36.513 310.803 36.2168 310.215C35.9251 309.622 35.7793 308.932 35.7793 308.144C35.7793 307.36 35.9229 306.669 36.21 306.072C36.5016 305.475 36.9095 305.01 37.4336 304.678C37.9622 304.34 38.582 304.172 39.293 304.172C39.7259 304.172 40.1452 304.243 40.5508 304.384C40.9564 304.525 41.321 304.748 41.6445 305.054C41.9681 305.359 42.2233 305.756 42.4102 306.243C42.6016 306.731 42.6973 307.319 42.6973 308.007V308.54H36.6201V307.426H41.9316L41.2412 307.795C41.2412 307.326 41.1683 306.911 41.0225 306.551C40.8766 306.191 40.6579 305.91 40.3662 305.71C40.0791 305.505 39.7214 305.402 39.293 305.402C38.8646 305.402 38.4977 305.505 38.1924 305.71C37.8916 305.915 37.6615 306.186 37.502 306.523C37.3424 306.861 37.2627 307.23 37.2627 307.631V308.39C37.2627 308.914 37.3538 309.358 37.5361 309.723C37.7184 310.087 37.9714 310.365 38.2949 310.557C38.623 310.748 39.0036 310.844 39.4365 310.844C39.7191 310.844 39.9743 310.803 40.2021 310.721C40.4346 310.639 40.6351 310.516 40.8037 310.352C40.9723 310.188 41.0999 309.985 41.1865 309.743L42.5947 310.01C42.4808 310.42 42.2803 310.78 41.9932 311.09C41.7061 311.4 41.3438 311.641 40.9062 311.814C40.4733 311.983 39.9788 312.067 39.4229 312.067ZM44.6045 304.268L46.2793 307.248L47.9814 304.268H49.6152L47.2363 308.096L49.6289 311.91H48.0088L46.2793 309.053L44.5771 311.91H42.9434L45.3154 308.096L42.9707 304.268H44.6045ZM54.127 304.268V305.464H49.957V304.268H54.127ZM51.0713 302.449H52.5547V309.668C52.5547 310.019 52.6276 310.276 52.7734 310.44C52.9193 310.6 53.154 310.68 53.4775 310.68C53.555 310.68 53.637 310.675 53.7236 310.666C53.8148 310.657 53.9059 310.643 53.9971 310.625L54.2773 311.855C54.127 311.906 53.9629 311.944 53.7852 311.972C53.6074 311.999 53.4297 312.013 53.252 312.013C52.5911 312.013 52.0625 311.828 51.666 311.459C51.2695 311.085 51.0713 310.589 51.0713 309.969V302.449Z" fill="#1A1A1C"/>
<rect x="16.5" y="325.41" width="357" height="43" rx="7.5" stroke="#D7DDE5"/>
<path d="M26.9023 352.41V342.225H28.1328V346.764H33.5605V342.225H34.791V352.41H33.5605V347.857H28.1328V352.41H26.9023ZM39.6445 352.574C38.9108 352.574 38.2751 352.41 37.7373 352.082C37.2041 351.754 36.7939 351.296 36.5068 350.708C36.2197 350.116 36.0762 349.43 36.0762 348.65C36.0762 347.867 36.2174 347.176 36.5 346.579C36.7826 345.982 37.179 345.515 37.6895 345.178C38.2044 344.84 38.806 344.672 39.4941 344.672C39.8906 344.672 40.2848 344.738 40.6768 344.87C41.0687 345.002 41.4242 345.216 41.7432 345.513C42.0667 345.809 42.3242 346.201 42.5156 346.688C42.707 347.176 42.8027 347.775 42.8027 348.486V348.992H36.9102V347.98H42.167L41.627 348.363C41.627 347.853 41.5472 347.399 41.3877 347.003C41.2282 346.606 40.9889 346.294 40.6699 346.066C40.3555 345.839 39.9635 345.725 39.4941 345.725C39.0247 345.725 38.6214 345.841 38.2842 346.073C37.9515 346.301 37.6963 346.6 37.5186 346.969C37.3408 347.338 37.252 347.734 37.252 348.158V348.828C37.252 349.407 37.3522 349.897 37.5527 350.298C37.7533 350.699 38.0335 351.004 38.3936 351.214C38.7536 351.419 39.1706 351.521 39.6445 351.521C39.9499 351.521 40.2279 351.478 40.4785 351.392C40.7292 351.3 40.9456 351.166 41.1279 350.988C41.3102 350.806 41.4492 350.583 41.5449 350.318L42.6797 350.646C42.5612 351.029 42.3607 351.367 42.0781 351.658C41.8001 351.945 41.4538 352.171 41.0391 352.335C40.6243 352.494 40.1595 352.574 39.6445 352.574ZM45.0723 342.225V352.41H43.9102V342.225H45.0723ZM47.7383 342.225V352.41H46.5762V342.225H47.7383ZM49.2422 352.41V344.768H50.4043V352.41H49.2422ZM49.8301 343.496C49.6022 343.496 49.4062 343.419 49.2422 343.264C49.0781 343.109 48.9961 342.922 48.9961 342.703C48.9961 342.484 49.0781 342.298 49.2422 342.143C49.4062 341.988 49.6022 341.91 49.8301 341.91C50.0579 341.91 50.2539 341.988 50.418 342.143C50.582 342.298 50.6641 342.484 50.6641 342.703C50.6641 342.922 50.582 343.109 50.418 343.264C50.2539 343.419 50.0579 343.496 49.8301 343.496ZM52.7832 344.768L54.6016 347.898L56.4336 344.768H57.7871L55.3262 348.596L57.7871 352.41H56.4336L54.6016 349.443L52.7832 352.41H51.4297L53.8496 348.596L51.4297 344.768H52.7832Z" fill="#1A1A1C" fill-opacity="0.8"/>
<path d="M357 344.08C356.812 343.894 356.559 343.789 356.295 343.789C356.031 343.789 355.777 343.894 355.59 344.08L352 347.62L348.46 344.08C348.272 343.894 348.019 343.789 347.755 343.789C347.491 343.789 347.237 343.894 347.05 344.08C346.956 344.173 346.882 344.283 346.831 344.405C346.78 344.527 346.754 344.658 346.754 344.79C346.754 344.922 346.78 345.053 346.831 345.174C346.882 345.296 346.956 345.407 347.05 345.5L351.29 349.74C351.383 349.834 351.493 349.908 351.615 349.959C351.737 350.01 351.868 350.036 352 350.036C352.132 350.036 352.262 350.01 352.384 349.959C352.506 349.908 352.617 349.834 352.71 349.74L357 345.5C357.093 345.407 357.168 345.296 357.219 345.174C357.269 345.053 357.296 344.922 357.296 344.79C357.296 344.658 357.269 344.527 357.219 344.405C357.168 344.283 357.093 344.173 357 344.08Z" fill="black"/>
<mask id="path-47-inside-2_3495_21384" fill="white">
<path d="M16 380.91H374V467.91H16V380.91Z"/>
</mask>
<path d="M16 380.91V381.91H374V380.91V379.91H16V380.91Z" fill="#94AECF" fill-opacity="0.11" mask="url(#path-47-inside-2_3495_21384)"/>
<path d="M28.9023 406.91V396.725H30.1328V405.816H34.877V406.91H28.9023ZM38.2129 407.088C37.7298 407.088 37.29 406.997 36.8936 406.814C36.4971 406.628 36.1826 406.359 35.9502 406.008C35.7178 405.657 35.6016 405.233 35.6016 404.736C35.6016 404.299 35.6882 403.946 35.8613 403.677C36.0345 403.403 36.2646 403.189 36.5518 403.034C36.8434 402.875 37.1624 402.756 37.5088 402.679C37.8597 402.601 38.2129 402.54 38.5684 402.494C39.0332 402.435 39.4092 402.389 39.6963 402.357C39.988 402.326 40.1999 402.271 40.332 402.193C40.4688 402.116 40.5371 401.984 40.5371 401.797V401.756C40.5371 401.268 40.4027 400.89 40.1338 400.621C39.8695 400.348 39.4661 400.211 38.9238 400.211C38.3678 400.211 37.9303 400.334 37.6113 400.58C37.2923 400.822 37.069 401.081 36.9414 401.359L35.8203 400.963C36.0208 400.498 36.2874 400.136 36.6201 399.876C36.9574 399.616 37.3219 399.434 37.7139 399.329C38.1104 399.224 38.5 399.172 38.8828 399.172C39.1289 399.172 39.4115 399.201 39.7305 399.261C40.0495 399.315 40.3594 399.434 40.6602 399.616C40.9655 399.794 41.2161 400.065 41.4121 400.43C41.6126 400.79 41.7129 401.273 41.7129 401.879V406.91H40.5371V405.871H40.4824C40.4049 406.035 40.2728 406.213 40.0859 406.404C39.8991 406.591 39.6507 406.753 39.3408 406.89C39.0355 407.022 38.6595 407.088 38.2129 407.088ZM38.3906 406.035C38.8555 406.035 39.2474 405.944 39.5664 405.762C39.8854 405.579 40.127 405.345 40.291 405.058C40.4551 404.766 40.5371 404.463 40.5371 404.148V403.068C40.487 403.128 40.3776 403.182 40.209 403.232C40.0449 403.278 39.8535 403.319 39.6348 403.355C39.4206 403.392 39.2109 403.424 39.0059 403.451C38.8008 403.474 38.6367 403.492 38.5137 403.506C38.2083 403.547 37.9235 403.613 37.6592 403.704C37.3949 403.791 37.1807 403.921 37.0166 404.094C36.8571 404.267 36.7773 404.504 36.7773 404.805C36.7773 405.21 36.9277 405.518 37.2285 405.728C37.5339 405.933 37.9212 406.035 38.3906 406.035ZM43.6953 409.768C43.4948 409.772 43.3171 409.758 43.1621 409.727C43.0072 409.695 42.8978 409.663 42.834 409.631L43.1348 408.605L43.251 408.633C43.6429 408.724 43.971 408.703 44.2354 408.571C44.5042 408.444 44.7389 408.104 44.9395 407.553L45.1582 406.951L42.3418 399.268H43.6133L45.7188 405.365H45.8008L47.9062 399.268H49.1777L45.9375 408.018C45.7917 408.414 45.6117 408.742 45.3975 409.002C45.1833 409.262 44.9349 409.453 44.6523 409.576C44.3698 409.704 44.0508 409.768 43.6953 409.768ZM52.8965 407.074C52.2083 407.074 51.6045 406.91 51.085 406.582C50.5654 406.254 50.1598 405.794 49.8682 405.201C49.5811 404.609 49.4375 403.921 49.4375 403.137C49.4375 402.339 49.5811 401.644 49.8682 401.052C50.1598 400.455 50.5654 399.992 51.085 399.664C51.6045 399.336 52.2083 399.172 52.8965 399.172C53.5892 399.172 54.1953 399.336 54.7148 399.664C55.2344 399.992 55.64 400.455 55.9316 401.052C56.2233 401.644 56.3691 402.339 56.3691 403.137C56.3691 403.921 56.2233 404.609 55.9316 405.201C55.64 405.794 55.2344 406.254 54.7148 406.582C54.1953 406.91 53.5892 407.074 52.8965 407.074ZM52.8965 406.021C53.4251 406.021 53.8581 405.887 54.1953 405.618C54.5326 405.349 54.7832 404.996 54.9473 404.559C55.1113 404.117 55.1934 403.643 55.1934 403.137C55.1934 402.622 55.1113 402.143 54.9473 401.701C54.7832 401.259 54.5326 400.904 54.1953 400.635C53.8581 400.361 53.4251 400.225 52.8965 400.225C52.377 400.225 51.9486 400.361 51.6113 400.635C51.2741 400.904 51.0234 401.259 50.8594 401.701C50.6953 402.143 50.6133 402.622 50.6133 403.137C50.6133 403.643 50.6953 404.117 50.8594 404.559C51.0234 404.996 51.2741 405.349 51.6113 405.618C51.9486 405.887 52.377 406.021 52.8965 406.021ZM62.3164 403.793V399.268H63.4785V406.91H62.3164V405.611H62.2344C62.0521 405.999 61.7718 406.329 61.3936 406.603C61.0199 406.876 60.5436 407.01 59.9648 407.006C59.4863 407.006 59.0625 406.903 58.6934 406.698C58.3242 406.489 58.0326 406.17 57.8184 405.741C57.6087 405.313 57.5039 404.773 57.5039 404.121V399.268H58.666V404.053C58.666 404.604 58.8232 405.046 59.1377 405.379C59.4567 405.712 59.86 405.876 60.3477 405.871C60.6393 405.871 60.9355 405.798 61.2363 405.652C61.5417 405.502 61.7969 405.274 62.002 404.969C62.2116 404.659 62.3164 404.267 62.3164 403.793ZM68.291 399.268V400.266H64.3398V399.268H68.291ZM65.4883 397.449H66.6504V404.723C66.6504 405.119 66.7324 405.411 66.8965 405.598C67.0605 405.78 67.3203 405.871 67.6758 405.871C67.7533 405.871 67.833 405.867 67.915 405.857C68.0016 405.848 68.0951 405.835 68.1953 405.816L68.4414 406.869C68.332 406.91 68.1976 406.942 68.0381 406.965C67.8831 406.992 67.7259 407.006 67.5664 407.006C66.9512 407.006 66.4499 406.824 66.0625 406.459C65.6797 406.094 65.4883 405.62 65.4883 405.037V397.449Z" fill="#1A1A1C" fill-opacity="0.6"/>
<rect x="16" y="433.91" width="173" height="34" rx="4" fill="#EAECEB"/>
<path d="M34.3965 454.91L32.0176 446.18H33.084L34.9121 453.293H34.9941L36.8574 446.18H38.0527L39.9043 453.293H39.998L41.8145 446.18H42.8926L40.502 454.91H39.4121L37.4902 447.961H37.4199L35.498 454.91H34.3965Z" fill="#1A1A1C"/>
<path d="M56.5742 455.027C56.0078 455.027 55.5059 454.932 55.0684 454.74C54.6309 454.549 54.2832 454.281 54.0254 453.938C53.7676 453.59 53.6289 453.188 53.6094 452.73H54.6758C54.6992 453.012 54.7949 453.254 54.9629 453.457C55.1348 453.66 55.3574 453.816 55.6309 453.926C55.9082 454.035 56.2148 454.09 56.5508 454.09C56.9258 454.09 57.2578 454.025 57.5469 453.896C57.8398 453.764 58.0684 453.582 58.2324 453.352C58.4004 453.117 58.4844 452.848 58.4844 452.543C58.4844 452.219 58.4043 451.934 58.2441 451.688C58.084 451.441 57.8496 451.25 57.541 451.113C57.2363 450.973 56.8633 450.902 56.4219 450.902H55.7188V449.965H56.4219C56.7656 449.965 57.0684 449.902 57.3301 449.777C57.5918 449.652 57.7969 449.477 57.9453 449.25C58.0938 449.023 58.168 448.758 58.168 448.453C58.168 448.156 58.1035 447.898 57.9746 447.68C57.8457 447.461 57.6621 447.291 57.4238 447.17C57.1895 447.049 56.9102 446.988 56.5859 446.988C56.2852 446.988 56.002 447.043 55.7363 447.152C55.4707 447.262 55.2539 447.418 55.0859 447.621C54.918 447.824 54.8281 448.07 54.8164 448.359H53.7969C53.8125 447.902 53.9492 447.502 54.207 447.158C54.4648 446.814 54.8027 446.547 55.2207 446.355C55.6426 446.16 56.1055 446.062 56.6094 446.062C57.1484 446.062 57.6113 446.172 57.998 446.391C58.3848 446.605 58.6816 446.891 58.8887 447.246C59.0957 447.602 59.1992 447.984 59.1992 448.395C59.1992 448.891 59.0703 449.311 58.8125 449.654C58.5586 449.998 58.2109 450.238 57.7695 450.375V450.445C58.3164 450.535 58.7441 450.77 59.0527 451.148C59.3613 451.523 59.5156 451.988 59.5156 452.543C59.5156 453.016 59.3867 453.439 59.1289 453.814C58.875 454.189 58.5254 454.486 58.0801 454.705C57.6387 454.92 57.1367 455.027 56.5742 455.027ZM63.4297 455.027C62.9297 455.027 62.4785 454.93 62.0762 454.734C61.6777 454.535 61.3574 454.262 61.1152 453.914C60.873 453.566 60.7422 453.172 60.7227 452.73H61.7422C61.7812 453.121 61.959 453.445 62.2754 453.703C62.5957 453.961 62.9805 454.09 63.4297 454.09C63.7891 454.09 64.1074 454.006 64.3848 453.838C64.6621 453.67 64.8809 453.439 65.041 453.146C65.2012 452.854 65.2812 452.52 65.2812 452.145C65.2812 451.766 65.1973 451.426 65.0293 451.125C64.8652 450.824 64.6387 450.588 64.3496 450.416C64.0605 450.24 63.7305 450.152 63.3594 450.152C63.0898 450.152 62.8145 450.195 62.5332 450.281C62.2559 450.363 62.0273 450.469 61.8477 450.598L60.8516 450.48L61.3789 446.18H65.9141V447.117H62.2695L61.9648 449.695H62.0117C62.1914 449.551 62.416 449.434 62.6855 449.344C62.9551 449.25 63.2383 449.203 63.5352 449.203C64.0703 449.203 64.5469 449.33 64.9648 449.584C65.3828 449.838 65.7109 450.186 65.9492 450.627C66.1914 451.064 66.3125 451.566 66.3125 452.133C66.3125 452.688 66.1875 453.184 65.9375 453.621C65.6875 454.059 65.3457 454.402 64.9121 454.652C64.4785 454.902 63.9844 455.027 63.4297 455.027ZM70.2148 455.027C69.8594 455.027 69.502 454.963 69.1426 454.834C68.7832 454.701 68.4551 454.48 68.1582 454.172C67.8652 453.859 67.6289 453.436 67.4492 452.9C67.2695 452.365 67.1797 451.695 67.1797 450.891C67.1797 450.117 67.252 449.432 67.3965 448.834C67.5449 448.236 67.7559 447.732 68.0293 447.322C68.3066 446.908 68.6406 446.596 69.0312 446.385C69.4219 446.17 69.8633 446.062 70.3555 446.062C70.8438 446.062 71.2773 446.16 71.6562 446.355C72.0391 446.551 72.3516 446.822 72.5938 447.17C72.8359 447.514 72.9922 447.91 73.0625 448.359H72.0312C71.9336 447.969 71.7441 447.645 71.4629 447.387C71.1855 447.129 70.8164 447 70.3555 447C69.6797 447 69.1465 447.295 68.7559 447.885C68.3691 448.471 68.1758 449.297 68.1758 450.363H68.2461C68.4062 450.121 68.5957 449.914 68.8145 449.742C69.0332 449.566 69.2754 449.434 69.541 449.344C69.8066 449.25 70.0898 449.203 70.3906 449.203C70.8906 449.203 71.3477 449.328 71.7617 449.578C72.1758 449.824 72.5078 450.166 72.7578 450.604C73.0078 451.037 73.1328 451.535 73.1328 452.098C73.1328 452.637 73.0117 453.129 72.7695 453.574C72.5312 454.016 72.1934 454.369 71.7559 454.635C71.3184 454.896 70.8047 455.027 70.2148 455.027ZM70.2148 454.09C70.5742 454.09 70.8965 454.002 71.1816 453.826C71.4668 453.646 71.6934 453.406 71.8613 453.105C72.0293 452.801 72.1133 452.465 72.1133 452.098C72.1133 451.734 72.0312 451.406 71.8672 451.113C71.707 450.816 71.4863 450.58 71.2051 450.404C70.9277 450.229 70.6094 450.141 70.25 450.141C69.8906 450.141 69.5645 450.232 69.2715 450.416C68.9824 450.6 68.752 450.842 68.5801 451.143C68.4121 451.439 68.3281 451.762 68.3281 452.109C68.3281 452.457 68.4102 452.783 68.5742 453.088C68.7383 453.389 68.9609 453.631 69.2422 453.814C69.5273 453.998 69.8516 454.09 70.2148 454.09Z" fill="#1A1A1C" fill-opacity="0.6"/>
<rect x="201" y="433.91" width="173" height="34" rx="4" fill="#EAECEB"/>
<path d="M217.773 454.91V446.18H218.828V450.07H223.48V446.18H224.535V454.91H223.48V451.008H218.828V454.91H217.773Z" fill="#1A1A1C"/>
<path d="M239.352 455.027C238.852 455.027 238.4 454.93 237.998 454.734C237.6 454.535 237.279 454.262 237.037 453.914C236.795 453.566 236.664 453.172 236.645 452.73H237.664C237.703 453.121 237.881 453.445 238.197 453.703C238.518 453.961 238.902 454.09 239.352 454.09C239.711 454.09 240.029 454.006 240.307 453.838C240.584 453.67 240.803 453.439 240.963 453.146C241.123 452.854 241.203 452.52 241.203 452.145C241.203 451.766 241.119 451.426 240.951 451.125C240.787 450.824 240.561 450.588 240.271 450.416C239.982 450.24 239.652 450.152 239.281 450.152C239.012 450.152 238.736 450.195 238.455 450.281C238.178 450.363 237.949 450.469 237.77 450.598L236.773 450.48L237.301 446.18H241.836V447.117H238.191L237.887 449.695H237.934C238.113 449.551 238.338 449.434 238.607 449.344C238.877 449.25 239.16 449.203 239.457 449.203C239.992 449.203 240.469 449.33 240.887 449.584C241.305 449.838 241.633 450.186 241.871 450.627C242.113 451.064 242.234 451.566 242.234 452.133C242.234 452.688 242.109 453.184 241.859 453.621C241.609 454.059 241.268 454.402 240.834 454.652C240.4 454.902 239.906 455.027 239.352 455.027ZM246.137 455.027C245.496 455.027 244.949 454.852 244.496 454.5C244.043 454.148 243.697 453.641 243.459 452.977C243.221 452.309 243.102 451.5 243.102 450.551C243.102 449.605 243.221 448.799 243.459 448.131C243.701 447.459 244.049 446.947 244.502 446.596C244.955 446.24 245.5 446.062 246.137 446.062C246.773 446.062 247.318 446.24 247.771 446.596C248.225 446.947 248.57 447.459 248.809 448.131C249.051 448.799 249.172 449.605 249.172 450.551C249.172 451.5 249.053 452.309 248.814 452.977C248.576 453.641 248.23 454.148 247.777 454.5C247.328 454.852 246.781 455.027 246.137 455.027ZM246.137 454.102C246.57 454.102 246.938 453.963 247.238 453.686C247.539 453.404 247.768 452.998 247.924 452.467C248.084 451.936 248.164 451.297 248.164 450.551C248.164 449.801 248.084 449.16 247.924 448.629C247.768 448.098 247.539 447.691 247.238 447.41C246.938 447.129 246.57 446.988 246.137 446.988C245.488 446.988 244.988 447.301 244.637 447.926C244.285 448.551 244.109 449.426 244.109 450.551C244.109 451.297 244.188 451.936 244.344 452.467C244.504 452.998 244.734 453.404 245.035 453.686C245.34 453.963 245.707 454.102 246.137 454.102Z" fill="#1A1A1C" fill-opacity="0.6"/>
<mask id="path-56-inside-3_3495_21384" fill="white">
<path d="M16 479.91H374V520.91H16V479.91Z"/>
</mask>
<path d="M16 479.91H374V520.91H16V479.91Z" fill="white"/>
<path d="M374 520.91V519.91H16V520.91V521.91H374V520.91Z" fill="#94AECF" fill-opacity="0.11" mask="url(#path-56-inside-3_3495_21384)"/>
<path d="M29.3262 505.91H28.0273L31.7734 495.725H33.0449L36.7773 505.91H35.4922L32.4434 497.338H32.3613L29.3262 505.91ZM29.8047 501.932H35.0137V503.025H29.8047V501.932ZM37.5566 508.768V498.268H38.6777V499.484H38.8145C38.901 499.352 39.0218 499.184 39.1768 498.979C39.3317 498.769 39.555 498.582 39.8467 498.418C40.1383 498.254 40.5326 498.172 41.0293 498.172C41.6719 498.172 42.237 498.334 42.7246 498.657C43.2122 498.976 43.5928 499.432 43.8662 500.024C44.1442 500.612 44.2832 501.307 44.2832 502.109C44.2832 502.916 44.1465 503.618 43.873 504.215C43.5996 504.807 43.2191 505.265 42.7314 505.589C42.2438 505.912 41.681 506.074 41.043 506.074C40.5553 506.074 40.1634 505.992 39.8672 505.828C39.571 505.66 39.3431 505.47 39.1836 505.261C39.0241 505.047 38.901 504.871 38.8145 504.734H38.7188V508.768H37.5566ZM40.8926 505.021C41.3802 505.021 41.7881 504.892 42.1162 504.632C42.4443 504.368 42.6904 504.014 42.8545 503.572C43.0231 503.13 43.1074 502.638 43.1074 502.096C43.1074 501.558 43.0254 501.073 42.8613 500.64C42.6973 500.207 42.4512 499.863 42.123 499.607C41.7995 499.352 41.3893 499.225 40.8926 499.225C40.4141 499.225 40.013 499.345 39.6895 499.587C39.3659 499.824 39.1198 500.159 38.9512 500.592C38.7871 501.02 38.7051 501.521 38.7051 502.096C38.7051 502.67 38.7894 503.178 38.958 503.62C39.1266 504.058 39.3727 504.402 39.6963 504.652C40.0244 504.898 40.4232 505.021 40.8926 505.021ZM45.418 508.768V498.268H46.5391V499.484H46.6758C46.7624 499.352 46.8831 499.184 47.0381 498.979C47.193 498.769 47.4163 498.582 47.708 498.418C47.9997 498.254 48.3939 498.172 48.8906 498.172C49.5332 498.172 50.0983 498.334 50.5859 498.657C51.0736 498.976 51.4541 499.432 51.7275 500.024C52.0055 500.612 52.1445 501.307 52.1445 502.109C52.1445 502.916 52.0078 503.618 51.7344 504.215C51.4609 504.807 51.0804 505.265 50.5928 505.589C50.1051 505.912 49.5423 506.074 48.9043 506.074C48.4167 506.074 48.0247 505.992 47.7285 505.828C47.4323 505.66 47.2044 505.47 47.0449 505.261C46.8854 505.047 46.7624 504.871 46.6758 504.734H46.5801V508.768H45.418ZM48.7539 505.021C49.2415 505.021 49.6494 504.892 49.9775 504.632C50.3057 504.368 50.5518 504.014 50.7158 503.572C50.8844 503.13 50.9688 502.638 50.9688 502.096C50.9688 501.558 50.8867 501.073 50.7227 500.64C50.5586 500.207 50.3125 499.863 49.9844 499.607C49.6608 499.352 49.2507 499.225 48.7539 499.225C48.2754 499.225 47.8743 499.345 47.5508 499.587C47.2272 499.824 46.9811 500.159 46.8125 500.592C46.6484 501.02 46.5664 501.521 46.5664 502.096C46.5664 502.67 46.6507 503.178 46.8193 503.62C46.988 504.058 47.234 504.402 47.5576 504.652C47.8857 504.898 48.2845 505.021 48.7539 505.021ZM56.4785 506.074C55.7448 506.074 55.109 505.91 54.5713 505.582C54.0381 505.254 53.6279 504.796 53.3408 504.208C53.0537 503.616 52.9102 502.93 52.9102 502.15C52.9102 501.367 53.0514 500.676 53.334 500.079C53.6165 499.482 54.013 499.015 54.5234 498.678C55.0384 498.34 55.64 498.172 56.3281 498.172C56.7246 498.172 57.1188 498.238 57.5107 498.37C57.9027 498.502 58.2581 498.716 58.5771 499.013C58.9007 499.309 59.1582 499.701 59.3496 500.188C59.541 500.676 59.6367 501.275 59.6367 501.986V502.492H53.7441V501.48H59.001L58.4609 501.863C58.4609 501.353 58.3812 500.899 58.2217 500.503C58.0622 500.106 57.8229 499.794 57.5039 499.566C57.1895 499.339 56.7975 499.225 56.3281 499.225C55.8587 499.225 55.4554 499.341 55.1182 499.573C54.7855 499.801 54.5303 500.1 54.3525 500.469C54.1748 500.838 54.0859 501.234 54.0859 501.658V502.328C54.0859 502.907 54.1862 503.397 54.3867 503.798C54.5872 504.199 54.8675 504.504 55.2275 504.714C55.5876 504.919 56.0046 505.021 56.4785 505.021C56.7839 505.021 57.0618 504.978 57.3125 504.892C57.5632 504.8 57.7796 504.666 57.9619 504.488C58.1442 504.306 58.2832 504.083 58.3789 503.818L59.5137 504.146C59.3952 504.529 59.1947 504.867 58.9121 505.158C58.6341 505.445 58.2878 505.671 57.873 505.835C57.4583 505.994 56.9935 506.074 56.4785 506.074ZM60.7441 505.91V498.268H61.8652V499.43H61.9473C62.0885 499.051 62.3415 498.746 62.7061 498.514C63.0752 498.277 63.4876 498.158 63.9434 498.158C64.0299 498.158 64.137 498.16 64.2646 498.165C64.3923 498.165 64.4902 498.167 64.5586 498.172V499.361C64.5176 499.352 64.4264 499.339 64.2852 499.32C64.1439 499.302 63.9935 499.293 63.834 499.293C63.4648 499.293 63.1344 499.37 62.8428 499.525C62.5511 499.68 62.321 499.892 62.1523 500.161C61.9883 500.43 61.9062 500.738 61.9062 501.084V505.91H60.7441ZM67.5391 506.088C67.056 506.088 66.6162 505.997 66.2197 505.814C65.8232 505.628 65.5088 505.359 65.2764 505.008C65.0439 504.657 64.9277 504.233 64.9277 503.736C64.9277 503.299 65.0143 502.946 65.1875 502.677C65.3607 502.403 65.5908 502.189 65.8779 502.034C66.1696 501.875 66.4886 501.756 66.835 501.679C67.1859 501.601 67.5391 501.54 67.8945 501.494C68.3594 501.435 68.7354 501.389 69.0225 501.357C69.3141 501.326 69.526 501.271 69.6582 501.193C69.7949 501.116 69.8633 500.984 69.8633 500.797V500.756C69.8633 500.268 69.7288 499.89 69.46 499.621C69.1956 499.348 68.7923 499.211 68.25 499.211C67.694 499.211 67.2565 499.334 66.9375 499.58C66.6185 499.822 66.3952 500.081 66.2676 500.359L65.1465 499.963C65.347 499.498 65.6136 499.136 65.9463 498.876C66.2835 498.616 66.6481 498.434 67.04 498.329C67.4365 498.224 67.8262 498.172 68.209 498.172C68.4551 498.172 68.7376 498.201 69.0566 498.261C69.3757 498.315 69.6855 498.434 69.9863 498.616C70.2917 498.794 70.5423 499.065 70.7383 499.43C70.9388 499.79 71.0391 500.273 71.0391 500.879V505.91H69.8633V504.871H69.8086C69.7311 505.035 69.599 505.213 69.4121 505.404C69.2253 505.591 68.9769 505.753 68.667 505.89C68.3617 506.022 67.9857 506.088 67.5391 506.088ZM67.7168 505.035C68.1816 505.035 68.5736 504.944 68.8926 504.762C69.2116 504.579 69.4531 504.345 69.6172 504.058C69.7812 503.766 69.8633 503.463 69.8633 503.148V502.068C69.8132 502.128 69.7038 502.182 69.5352 502.232C69.3711 502.278 69.1797 502.319 68.9609 502.355C68.7467 502.392 68.5371 502.424 68.332 502.451C68.127 502.474 67.9629 502.492 67.8398 502.506C67.5345 502.547 67.2497 502.613 66.9854 502.704C66.721 502.791 66.5068 502.921 66.3428 503.094C66.1833 503.267 66.1035 503.504 66.1035 503.805C66.1035 504.21 66.2539 504.518 66.5547 504.728C66.86 504.933 67.2474 505.035 67.7168 505.035ZM73.7051 501.316V505.91H72.543V498.268H73.6641V499.471H73.7734C73.9512 499.079 74.2223 498.764 74.5869 498.527C74.9515 498.29 75.4232 498.172 76.002 498.172C76.5169 498.172 76.9681 498.277 77.3555 498.486C77.7428 498.696 78.0436 499.015 78.2578 499.443C78.4766 499.867 78.5859 500.405 78.5859 501.057V505.91H77.4238V501.139C77.4238 500.542 77.2666 500.075 76.9521 499.737C76.6377 499.396 76.2093 499.225 75.667 499.225C75.2933 499.225 74.9583 499.307 74.6621 499.471C74.3659 499.635 74.1312 499.872 73.958 500.182C73.7894 500.492 73.7051 500.87 73.7051 501.316ZM83.1797 506.074C82.4688 506.074 81.8535 505.906 81.334 505.568C80.819 505.227 80.4202 504.759 80.1377 504.167C79.8597 503.575 79.7207 502.898 79.7207 502.137C79.7207 501.357 79.8643 500.672 80.1514 500.079C80.4385 499.482 80.8395 499.015 81.3545 498.678C81.874 498.34 82.4779 498.172 83.166 498.172C83.7038 498.172 84.1868 498.272 84.6152 498.473C85.0482 498.669 85.4014 498.947 85.6748 499.307C85.9528 499.667 86.1237 500.086 86.1875 500.564H85.0117C84.9525 500.332 84.8454 500.113 84.6904 499.908C84.5355 499.703 84.3304 499.539 84.0752 499.416C83.8245 499.288 83.526 499.225 83.1797 499.225C82.724 499.225 82.3252 499.343 81.9834 499.58C81.6416 499.817 81.375 500.152 81.1836 500.585C80.9922 501.013 80.8965 501.517 80.8965 502.096C80.8965 502.684 80.9899 503.199 81.1768 503.641C81.3636 504.078 81.6279 504.418 81.9697 504.659C82.3161 504.901 82.7194 505.021 83.1797 505.021C83.64 505.021 84.0342 504.903 84.3623 504.666C84.6904 504.424 84.9069 504.096 85.0117 503.682H86.1875C86.1237 504.133 85.9596 504.538 85.6953 504.898C85.4355 505.258 85.0915 505.546 84.6631 505.76C84.2393 505.969 83.7448 506.074 83.1797 506.074ZM90.4941 506.074C89.7604 506.074 89.1247 505.91 88.5869 505.582C88.0537 505.254 87.6436 504.796 87.3564 504.208C87.0693 503.616 86.9258 502.93 86.9258 502.15C86.9258 501.367 87.0671 500.676 87.3496 500.079C87.6322 499.482 88.0286 499.015 88.5391 498.678C89.054 498.34 89.6556 498.172 90.3438 498.172C90.7402 498.172 91.1344 498.238 91.5264 498.37C91.9183 498.502 92.2738 498.716 92.5928 499.013C92.9163 499.309 93.1738 499.701 93.3652 500.188C93.5566 500.676 93.6523 501.275 93.6523 501.986V502.492H87.7598V501.48H93.0166L92.4766 501.863C92.4766 501.353 92.3968 500.899 92.2373 500.503C92.0778 500.106 91.8385 499.794 91.5195 499.566C91.2051 499.339 90.8132 499.225 90.3438 499.225C89.8743 499.225 89.471 499.341 89.1338 499.573C88.8011 499.801 88.5459 500.1 88.3682 500.469C88.1904 500.838 88.1016 501.234 88.1016 501.658V502.328C88.1016 502.907 88.2018 503.397 88.4023 503.798C88.6029 504.199 88.8831 504.504 89.2432 504.714C89.6032 504.919 90.0202 505.021 90.4941 505.021C90.7995 505.021 91.0775 504.978 91.3281 504.892C91.5788 504.8 91.7952 504.666 91.9775 504.488C92.1598 504.306 92.2988 504.083 92.3945 503.818L93.5293 504.146C93.4108 504.529 93.2103 504.867 92.9277 505.158C92.6497 505.445 92.3034 505.671 91.8887 505.835C91.474 505.994 91.0091 506.074 90.4941 506.074Z" fill="#1A1A1C" fill-opacity="0.6"/>
<path fill-rule="evenodd" clip-rule="evenodd" d="M320 505.077C316.404 505.077 313.373 503.239 311.462 500.41C313.373 497.581 316.404 495.743 320 495.743C323.596 495.743 326.627 497.581 328.538 500.41C326.627 503.239 323.596 505.077 320 505.077ZM320 494.41C315.744 494.41 312.209 496.685 310.101 500.057C309.966 500.273 309.966 500.547 310.101 500.764C312.209 504.135 315.744 506.41 320 506.41C324.256 506.41 327.791 504.135 329.899 500.764C330.034 500.547 330.034 500.273 329.899 500.057C327.791 496.685 324.256 494.41 320 494.41ZM320 503.077C321.473 503.077 322.667 501.883 322.667 500.41C322.667 498.937 321.473 497.743 320 497.743C318.527 497.743 317.333 498.937 317.333 500.41C317.333 501.883 318.527 503.077 320 503.077Z" fill="#1A1A1C"/>
<path fill-rule="evenodd" clip-rule="evenodd" d="M346 502.41C346 499.077 348 496.077 352 492.41C356 496.077 358 499.077 358 502.41C358 505.724 355.314 508.41 352 508.41C348.686 508.41 346 505.724 346 502.41ZM356.603 501.481C354.898 500.838 353.051 501.693 351.319 502.494C349.91 503.145 348.578 503.761 347.463 503.506C347.378 503.154 347.333 502.787 347.333 502.41C347.333 499.893 348.702 497.439 352 494.242C354.891 497.045 356.3 499.277 356.603 501.481Z" fill="#1A1A1C"/>
<rect x="16" y="532.91" width="173" height="34" rx="4" fill="#EAECEB"/>
<path fill-rule="evenodd" clip-rule="evenodd" d="M34.8571 544.41H44.1429C44.6162 544.41 45 544.794 45 545.267V554.553C45 555.026 44.6162 555.41 44.1429 555.41H34.8571C34.3838 555.41 34 555.026 34 554.553V545.267C34 544.794 34.3838 544.41 34.8571 544.41ZM33 545.267C33 544.242 33.8315 543.41 34.8571 543.41H44.1429C45.1685 543.41 46 544.242 46 545.267V554.553C46 555.579 45.1685 556.41 44.1429 556.41H34.8571C33.8315 556.41 33 555.579 33 554.553V545.267ZM39.4999 547.41C39.776 547.41 39.9999 547.186 39.9999 546.91C39.9999 546.634 39.776 546.41 39.4999 546.41C39.2237 546.41 38.9999 546.634 38.9999 546.91C38.9999 547.186 39.2237 547.41 39.4999 547.41ZM36.4999 553.41C36.776 553.41 36.9999 553.186 36.9999 552.91C36.9999 552.634 36.776 552.41 36.4999 552.41C36.2237 552.41 35.9999 552.634 35.9999 552.91C35.9999 553.186 36.2237 553.41 36.4999 553.41ZM36.9999 549.91C36.9999 550.186 36.776 550.41 36.4999 550.41C36.2237 550.41 35.9999 550.186 35.9999 549.91C35.9999 549.634 36.2237 549.41 36.4999 549.41C36.776 549.41 36.9999 549.634 36.9999 549.91ZM36.4999 547.41C36.776 547.41 36.9999 547.186 36.9999 546.91C36.9999 546.634 36.776 546.41 36.4999 546.41C36.2237 546.41 35.9999 546.634 35.9999 546.91C35.9999 547.186 36.2237 547.41 36.4999 547.41ZM42.9999 552.91C42.9999 553.186 42.776 553.41 42.4999 553.41C42.2237 553.41 41.9999 553.186 41.9999 552.91C41.9999 552.634 42.2237 552.41 42.4999 552.41C42.776 552.41 42.9999 552.634 42.9999 552.91ZM42.4999 550.41C42.776 550.41 42.9999 550.186 42.9999 549.91C42.9999 549.634 42.776 549.41 42.4999 549.41C42.2237 549.41 41.9999 549.634 41.9999 549.91C41.9999 550.186 42.2237 550.41 42.4999 550.41ZM42.9999 546.91C42.9999 547.186 42.776 547.41 42.4999 547.41C42.2237 547.41 41.9999 547.186 41.9999 546.91C41.9999 546.634 42.2237 546.41 42.4999 546.41C42.776 546.41 42.9999 546.634 42.9999 546.91ZM39.4999 553.41C39.776 553.41 39.9999 553.186 39.9999 552.91C39.9999 552.634 39.776 552.41 39.4999 552.41C39.2237 552.41 38.9999 552.634 38.9999 552.91C38.9999 553.186 39.2237 553.41 39.4999 553.41Z" fill="#1A1A1C"/>
<path d="M60.4922 545.18V553.91H59.4609V546.293H59.4023L57.2812 547.711V546.633L59.4609 545.18H60.4922ZM64.7344 554.027C64.0938 554.027 63.5469 553.852 63.0938 553.5C62.6406 553.148 62.2949 552.641 62.0566 551.977C61.8184 551.309 61.6992 550.5 61.6992 549.551C61.6992 548.605 61.8184 547.799 62.0566 547.131C62.2988 546.459 62.6465 545.947 63.0996 545.596C63.5527 545.24 64.0977 545.062 64.7344 545.062C65.3711 545.062 65.916 545.24 66.3691 545.596C66.8223 545.947 67.168 546.459 67.4062 547.131C67.6484 547.799 67.7695 548.605 67.7695 549.551C67.7695 550.5 67.6504 551.309 67.4121 551.977C67.1738 552.641 66.8281 553.148 66.375 553.5C65.9258 553.852 65.3789 554.027 64.7344 554.027ZM64.7344 553.102C65.168 553.102 65.5352 552.963 65.8359 552.686C66.1367 552.404 66.3652 551.998 66.5215 551.467C66.6816 550.936 66.7617 550.297 66.7617 549.551C66.7617 548.801 66.6816 548.16 66.5215 547.629C66.3652 547.098 66.1367 546.691 65.8359 546.41C65.5352 546.129 65.168 545.988 64.7344 545.988C64.0859 545.988 63.5859 546.301 63.2344 546.926C62.8828 547.551 62.707 548.426 62.707 549.551C62.707 550.297 62.7852 550.936 62.9414 551.467C63.1016 551.998 63.332 552.404 63.6328 552.686C63.9375 552.963 64.3047 553.102 64.7344 553.102ZM71.6719 554.027C71.0312 554.027 70.4844 553.852 70.0312 553.5C69.5781 553.148 69.2324 552.641 68.9941 551.977C68.7559 551.309 68.6367 550.5 68.6367 549.551C68.6367 548.605 68.7559 547.799 68.9941 547.131C69.2363 546.459 69.584 545.947 70.0371 545.596C70.4902 545.24 71.0352 545.062 71.6719 545.062C72.3086 545.062 72.8535 545.24 73.3066 545.596C73.7598 545.947 74.1055 546.459 74.3438 547.131C74.5859 547.799 74.707 548.605 74.707 549.551C74.707 550.5 74.5879 551.309 74.3496 551.977C74.1113 552.641 73.7656 553.148 73.3125 553.5C72.8633 553.852 72.3164 554.027 71.6719 554.027ZM71.6719 553.102C72.1055 553.102 72.4727 552.963 72.7734 552.686C73.0742 552.404 73.3027 551.998 73.459 551.467C73.6191 550.936 73.6992 550.297 73.6992 549.551C73.6992 548.801 73.6191 548.16 73.459 547.629C73.3027 547.098 73.0742 546.691 72.7734 546.41C72.4727 546.129 72.1055 545.988 71.6719 545.988C71.0234 545.988 70.5234 546.301 70.1719 546.926C69.8203 547.551 69.6445 548.426 69.6445 549.551C69.6445 550.297 69.7227 550.936 69.8789 551.467C70.0391 551.998 70.2695 552.404 70.5703 552.686C70.875 552.963 71.2422 553.102 71.6719 553.102ZM80.2148 552.27V551.812C80.2148 551.492 80.2793 551.199 80.4082 550.934C80.541 550.668 80.7344 550.455 80.9883 550.295C81.2422 550.135 81.5508 550.055 81.9141 550.055C82.2852 550.055 82.5957 550.135 82.8457 550.295C83.0957 550.455 83.2832 550.668 83.4082 550.934C83.5371 551.199 83.6016 551.492 83.6016 551.812V552.27C83.6016 552.59 83.5371 552.883 83.4082 553.148C83.2793 553.414 83.0898 553.627 82.8398 553.787C82.5898 553.947 82.2812 554.027 81.9141 554.027C81.5469 554.027 81.2363 553.947 80.9824 553.787C80.7285 553.627 80.5371 553.414 80.4082 553.148C80.2793 552.883 80.2148 552.59 80.2148 552.27ZM81.082 551.812V552.27C81.082 552.535 81.1445 552.773 81.2695 552.984C81.3945 553.191 81.6094 553.297 81.9141 553.301C82.2148 553.297 82.4258 553.191 82.5469 552.984C82.6719 552.773 82.7344 552.535 82.7344 552.27V551.812C82.7344 551.547 82.6738 551.311 82.5527 551.104C82.4355 550.896 82.2227 550.793 81.9141 550.793C81.6172 550.793 81.4043 550.896 81.2754 551.104C81.1465 551.311 81.082 551.547 81.082 551.812ZM75.8672 547.277V546.82C75.8672 546.5 75.9336 546.207 76.0664 545.941C76.1992 545.676 76.3906 545.463 76.6406 545.303C76.8945 545.143 77.2031 545.062 77.5664 545.062C77.9375 545.062 78.248 545.143 78.498 545.303C78.752 545.463 78.9414 545.676 79.0664 545.941C79.1953 546.207 79.2578 546.5 79.2539 546.82V547.277C79.2578 547.594 79.1934 547.887 79.0605 548.156C78.9316 548.422 78.7422 548.635 78.4922 548.795C78.2422 548.955 77.9336 549.035 77.5664 549.035C77.1992 549.035 76.8887 548.955 76.6348 548.795C76.3809 548.635 76.1895 548.422 76.0605 548.156C75.9316 547.887 75.8672 547.594 75.8672 547.277ZM76.7344 546.82V547.277C76.7344 547.543 76.7969 547.781 76.9219 547.992C77.0469 548.199 77.2617 548.301 77.5664 548.297C77.8672 548.301 78.0781 548.199 78.1992 547.992C78.3242 547.781 78.3867 547.543 78.3867 547.277V546.82C78.3867 546.555 78.3262 546.318 78.2051 546.111C78.0879 545.9 77.875 545.797 77.5664 545.801C77.2695 545.797 77.0566 545.9 76.9277 546.111C76.7988 546.318 76.7344 546.555 76.7344 546.82ZM76.1953 553.91L82.1953 545.18H83.168L77.168 553.91H76.1953Z" fill="#1A1A1C" fill-opacity="0.6"/>
<rect x="201" y="532.91" width="173" height="34" rx="4" fill="#EAECEB"/>
<path fill-rule="evenodd" clip-rule="evenodd" d="M222.5 544.41H221.879C221.477 544.41 221.145 544.41 220.874 544.432C220.593 544.455 220.335 544.504 220.092 544.628C219.716 544.82 219.41 545.126 219.218 545.502C219.094 545.745 219.045 546.003 219.022 546.284C219 546.555 219 546.887 219 547.289V547.91C219 548.186 219.224 548.41 219.5 548.41C219.776 548.41 220 548.186 220 547.91V547.31C220 546.882 220 546.591 220.019 546.366C220.037 546.146 220.069 546.034 220.109 545.956C220.205 545.768 220.358 545.615 220.546 545.519C220.624 545.479 220.736 545.447 220.956 545.429C221.181 545.411 221.472 545.41 221.9 545.41H222.5C222.776 545.41 223 545.186 223 544.91C223 544.634 222.776 544.41 222.5 544.41ZM230 551.91C230 551.634 229.776 551.41 229.5 551.41C229.224 551.41 229 551.634 229 551.91V552.51C229 552.938 229 553.23 228.981 553.455C228.963 553.674 228.931 553.786 228.891 553.864C228.795 554.052 228.642 554.205 228.454 554.301C228.376 554.341 228.264 554.373 228.045 554.391C227.819 554.41 227.528 554.41 227.1 554.41H226.5C226.224 554.41 226 554.634 226 554.91C226 555.186 226.224 555.41 226.5 555.41H227.121C227.523 555.41 227.855 555.41 228.126 555.388C228.407 555.365 228.665 555.316 228.908 555.192C229.284 555 229.59 554.694 229.782 554.318C229.906 554.075 229.955 553.817 229.978 553.536C230 553.265 230 552.933 230 552.531V551.91ZM219.5 551.41C219.776 551.41 220 551.634 220 551.91V552.51C220 552.938 220 553.23 220.019 553.455C220.037 553.674 220.069 553.786 220.109 553.864C220.205 554.052 220.358 554.205 220.546 554.301C220.624 554.341 220.736 554.373 220.956 554.391C221.181 554.41 221.472 554.41 221.9 554.41H222.5C222.776 554.41 223 554.634 223 554.91C223 555.186 222.776 555.41 222.5 555.41H221.879C221.477 555.41 221.145 555.41 220.874 555.388C220.593 555.365 220.335 555.316 220.092 555.192C219.716 555 219.41 554.694 219.218 554.318C219.094 554.075 219.045 553.817 219.022 553.536C219 553.265 219 552.933 219 552.531V552.51V551.91C219 551.634 219.224 551.41 219.5 551.41ZM227.1 545.41C227.528 545.41 227.819 545.411 228.045 545.429C228.264 545.447 228.376 545.479 228.454 545.519C228.642 545.615 228.795 545.768 228.891 545.956C228.931 546.034 228.963 546.146 228.981 546.366C229 546.591 229 546.882 229 547.31V547.91C229 548.186 229.224 548.41 229.5 548.41C229.776 548.41 230 548.186 230 547.91V547.29C230 546.887 230 546.555 229.978 546.284C229.955 546.003 229.906 545.745 229.782 545.502C229.59 545.126 229.284 544.82 228.908 544.628C228.665 544.504 228.407 544.455 228.126 544.432C227.855 544.41 227.523 544.41 227.121 544.41H227.1H226.5C226.224 544.41 226 544.634 226 544.91C226 545.186 226.224 545.41 226.5 545.41H227.1Z" fill="#1A1A1C"/>
<path d="M242.621 553.91V553.148L245.504 549.984C245.84 549.617 246.115 549.297 246.33 549.023C246.549 548.75 246.711 548.492 246.816 548.25C246.926 548.008 246.98 547.754 246.98 547.488C246.98 547.18 246.906 546.914 246.758 546.691C246.613 546.465 246.416 546.291 246.166 546.17C245.916 546.049 245.633 545.988 245.316 545.988C244.98 545.988 244.688 546.057 244.438 546.193C244.191 546.33 244 546.523 243.863 546.773C243.73 547.02 243.664 547.309 243.664 547.641H242.656C242.656 547.129 242.773 546.68 243.008 546.293C243.246 545.906 243.568 545.605 243.975 545.391C244.385 545.172 244.844 545.062 245.352 545.062C245.863 545.062 246.316 545.172 246.711 545.391C247.105 545.605 247.414 545.896 247.637 546.264C247.863 546.627 247.977 547.035 247.977 547.488C247.977 547.809 247.918 548.121 247.801 548.426C247.688 548.727 247.488 549.064 247.203 549.439C246.922 549.814 246.531 550.27 246.031 550.805L244.074 552.902V552.973H248.129V553.91H242.621ZM252.172 554.027C251.531 554.027 250.984 553.852 250.531 553.5C250.078 553.148 249.732 552.641 249.494 551.977C249.256 551.309 249.137 550.5 249.137 549.551C249.137 548.605 249.256 547.799 249.494 547.131C249.736 546.459 250.084 545.947 250.537 545.596C250.99 545.24 251.535 545.062 252.172 545.062C252.809 545.062 253.354 545.24 253.807 545.596C254.26 545.947 254.605 546.459 254.844 547.131C255.086 547.799 255.207 548.605 255.207 549.551C255.207 550.5 255.088 551.309 254.85 551.977C254.611 552.641 254.266 553.148 253.812 553.5C253.363 553.852 252.816 554.027 252.172 554.027ZM252.172 553.102C252.605 553.102 252.973 552.963 253.273 552.686C253.574 552.404 253.803 551.998 253.959 551.467C254.119 550.936 254.199 550.297 254.199 549.551C254.199 548.801 254.119 548.16 253.959 547.629C253.803 547.098 253.574 546.691 253.273 546.41C252.973 546.129 252.605 545.988 252.172 545.988C251.523 545.988 251.023 546.301 250.672 546.926C250.32 547.551 250.145 548.426 250.145 549.551C250.145 550.297 250.223 550.936 250.379 551.467C250.539 551.998 250.77 552.404 251.07 552.686C251.375 552.963 251.742 553.102 252.172 553.102Z" fill="#1A1A1C" fill-opacity="0.6"/>
<rect x="16" y="578.91" width="173" height="34" rx="4" fill="#EAECEB"/>
<path fill-rule="evenodd" clip-rule="evenodd" d="M41.8774 591.41H41.9H43.5C43.7761 591.41 44 591.634 44 591.91C44 592.186 43.7761 592.41 43.5 592.41H41.9C40.7716 592.41 39.9555 592.411 39.3135 592.463C38.6774 592.515 38.2566 592.616 37.911 592.792C37.2525 593.127 36.717 593.663 36.3815 594.321C36.2054 594.667 36.1048 595.088 36.0528 595.724C36.0004 596.366 36 597.182 36 598.31V599.91C36 600.186 35.7761 600.41 35.5 600.41C35.2239 600.41 35 600.186 35 599.91V598.31V598.288C35 597.187 35 596.33 35.0562 595.642C35.1132 594.944 35.2306 594.377 35.4905 593.867C35.9219 593.02 36.6103 592.332 37.457 591.901C37.9671 591.641 38.5342 591.523 39.2321 591.466C39.9195 591.41 40.7764 591.41 41.8774 591.41Z" fill="#1A1A1C"/>
<path d="M57.6211 599.91V599.148L60.5039 595.984C60.8398 595.617 61.1152 595.297 61.3301 595.023C61.5488 594.75 61.7109 594.492 61.8164 594.25C61.9258 594.008 61.9805 593.754 61.9805 593.488C61.9805 593.18 61.9062 592.914 61.7578 592.691C61.6133 592.465 61.416 592.291 61.166 592.17C60.916 592.049 60.6328 591.988 60.3164 591.988C59.9805 591.988 59.6875 592.057 59.4375 592.193C59.1914 592.33 59 592.523 58.8633 592.773C58.7305 593.02 58.6641 593.309 58.6641 593.641H57.6562C57.6562 593.129 57.7734 592.68 58.0078 592.293C58.2461 591.906 58.5684 591.605 58.9746 591.391C59.3848 591.172 59.8438 591.062 60.3516 591.062C60.8633 591.062 61.3164 591.172 61.7109 591.391C62.1055 591.605 62.4141 591.896 62.6367 592.264C62.8633 592.627 62.9766 593.035 62.9766 593.488C62.9766 593.809 62.918 594.121 62.8008 594.426C62.6875 594.727 62.4883 595.064 62.2031 595.439C61.9219 595.814 61.5312 596.27 61.0312 596.805L59.0742 598.902V598.973H63.1289V599.91H57.6211ZM67.1719 600.027C66.5312 600.027 65.9844 599.852 65.5312 599.5C65.0781 599.148 64.7324 598.641 64.4941 597.977C64.2559 597.309 64.1367 596.5 64.1367 595.551C64.1367 594.605 64.2559 593.799 64.4941 593.131C64.7363 592.459 65.084 591.947 65.5371 591.596C65.9902 591.24 66.5352 591.062 67.1719 591.062C67.8086 591.062 68.3535 591.24 68.8066 591.596C69.2598 591.947 69.6055 592.459 69.8438 593.131C70.0859 593.799 70.207 594.605 70.207 595.551C70.207 596.5 70.0879 597.309 69.8496 597.977C69.6113 598.641 69.2656 599.148 68.8125 599.5C68.3633 599.852 67.8164 600.027 67.1719 600.027ZM67.1719 599.102C67.6055 599.102 67.9727 598.963 68.2734 598.686C68.5742 598.404 68.8027 597.998 68.959 597.467C69.1191 596.936 69.1992 596.297 69.1992 595.551C69.1992 594.801 69.1191 594.16 68.959 593.629C68.8027 593.098 68.5742 592.691 68.2734 592.41C67.9727 592.129 67.6055 591.988 67.1719 591.988C66.5234 591.988 66.0234 592.301 65.6719 592.926C65.3203 593.551 65.1445 594.426 65.1445 595.551C65.1445 596.297 65.2227 596.936 65.3789 597.467C65.5391 597.998 65.7695 598.404 66.0703 598.686C66.375 598.963 66.7422 599.102 67.1719 599.102Z" fill="#1A1A1C" fill-opacity="0.6"/>
<rect x="201" y="578.91" width="173" height="34" rx="4" fill="#EAECEB"/>
<path fill-rule="evenodd" clip-rule="evenodd" d="M222.123 591.41H222.1H220.5C220.224 591.41 220 591.634 220 591.91C220 592.186 220.224 592.41 220.5 592.41H222.1C223.228 592.41 224.045 592.411 224.686 592.463C225.323 592.515 225.743 592.616 226.089 592.792C226.748 593.127 227.283 593.663 227.618 594.321C227.795 594.667 227.895 595.088 227.947 595.724C228 596.366 228 597.182 228 598.31V599.91C228 600.186 228.224 600.41 228.5 600.41C228.776 600.41 229 600.186 229 599.91V598.31V598.288C229 597.187 229 596.33 228.944 595.642C228.887 594.944 228.769 594.377 228.509 593.867C228.078 593.02 227.39 592.332 226.543 591.901C226.033 591.641 225.466 591.523 224.768 591.466C224.081 591.41 223.224 591.41 222.123 591.41Z" fill="#1A1A1C"/>
<path d="M242.621 599.91V599.148L245.504 595.984C245.84 595.617 246.115 595.297 246.33 595.023C246.549 594.75 246.711 594.492 246.816 594.25C246.926 594.008 246.98 593.754 246.98 593.488C246.98 593.18 246.906 592.914 246.758 592.691C246.613 592.465 246.416 592.291 246.166 592.17C245.916 592.049 245.633 591.988 245.316 591.988C244.98 591.988 244.688 592.057 244.438 592.193C244.191 592.33 244 592.523 243.863 592.773C243.73 593.02 243.664 593.309 243.664 593.641H242.656C242.656 593.129 242.773 592.68 243.008 592.293C243.246 591.906 243.568 591.605 243.975 591.391C244.385 591.172 244.844 591.062 245.352 591.062C245.863 591.062 246.316 591.172 246.711 591.391C247.105 591.605 247.414 591.896 247.637 592.264C247.863 592.627 247.977 593.035 247.977 593.488C247.977 593.809 247.918 594.121 247.801 594.426C247.688 594.727 247.488 595.064 247.203 595.439C246.922 595.814 246.531 596.27 246.031 596.805L244.074 598.902V598.973H248.129V599.91H242.621ZM252.172 600.027C251.531 600.027 250.984 599.852 250.531 599.5C250.078 599.148 249.732 598.641 249.494 597.977C249.256 597.309 249.137 596.5 249.137 595.551C249.137 594.605 249.256 593.799 249.494 593.131C249.736 592.459 250.084 591.947 250.537 591.596C250.99 591.24 251.535 591.062 252.172 591.062C252.809 591.062 253.354 591.24 253.807 591.596C254.26 591.947 254.605 592.459 254.844 593.131C255.086 593.799 255.207 594.605 255.207 595.551C255.207 596.5 255.088 597.309 254.85 597.977C254.611 598.641 254.266 599.148 253.812 599.5C253.363 599.852 252.816 600.027 252.172 600.027ZM252.172 599.102C252.605 599.102 252.973 598.963 253.273 598.686C253.574 598.404 253.803 597.998 253.959 597.467C254.119 596.936 254.199 596.297 254.199 595.551C254.199 594.801 254.119 594.16 253.959 593.629C253.803 593.098 253.574 592.691 253.273 592.41C252.973 592.129 252.605 591.988 252.172 591.988C251.523 591.988 251.023 592.301 250.672 592.926C250.32 593.551 250.145 594.426 250.145 595.551C250.145 596.297 250.223 596.936 250.379 597.467C250.539 597.998 250.77 598.404 251.07 598.686C251.375 598.963 251.742 599.102 252.172 599.102Z" fill="#1A1A1C" fill-opacity="0.6"/>
</g>
<rect x="0.5" y="1.41016" width="389" height="626" rx="9.5" stroke="#ECEFF4"/>
<defs>
<clipPath id="clip0_3495_21384">
<rect y="0.910156" width="390" height="627" rx="10" fill="white"/>
</clipPath>
<clipPath id="clip1_3495_21384">
<rect x="16" y="121.91" width="165" height="31" rx="4" fill="white"/>
</clipPath>
<clipPath id="clip2_3495_21384">
<rect x="209" y="121.91" width="165" height="31" rx="4" fill="white"/>
</clipPath>
</defs>
</svg>
