<svg width="137" height="62" viewBox="0 0 137 62" fill="none" xmlns="http://www.w3.org/2000/svg">
<path d="M1 50.4378C11.8291 51.7399 34.1062 63.6026 36.5814 60.4777C39.6754 56.5715 38.6441 11 42.7695 11C46.8948 11 44.8322 52.0144 54.6299 52.0144C64.4277 52.0144 62.5163 60.4777 68.7044 60.4777C74.8924 60.4777 73.7098 42.6256 78.8665 42.6256C84.0233 42.6256 79.3822 57.8736 89.6957 57.8736C99.5507 57.8736 95.6087 30.5059 101.522 30.5059C107.435 30.5059 103.493 52.6654 110.391 52.6654C117.29 52.6654 113.348 11 119.261 11C125.174 11 120.246 23.1912 129.116 23.1912C137.986 23.1912 130.101 24.1235 137 24.1235" stroke="#ECE8FF" stroke-width="2"/>
<path d="M2 50.7814C12.7495 52.0783 34.8627 53.8939 37.3198 50.7814C40.3911 46.8908 39.3673 1.5 43.4623 1.5C47.5574 1.5 45.5099 42.3517 55.2356 42.3517C64.9613 42.3517 63.064 50.7814 69.2065 50.7814C75.3491 50.7814 74.1752 33.0001 79.294 33.0001C84.4128 33.0001 79.8059 48.1877 90.0435 48.1877C99.8261 48.1877 95.913 20.9286 101.783 20.9286C107.652 20.9286 103.739 43.0001 110.587 43.0001C117.435 43.0001 113.522 1.5 119.391 1.5C125.261 1.5 120.37 13.6429 129.174 13.6429C137.978 13.6429 130.152 24.5714 137 24.5714" stroke="#864FFE" stroke-width="2"/>
</svg>
