<svg width="253" height="258" viewBox="0 0 253 258" fill="none" xmlns="http://www.w3.org/2000/svg">
<rect width="253" height="258" fill="#1A1A1C"/>
<path d="M28.3906 48.6094V47.3594H37.125V48.6094H33.4688V59H32.0625V48.6094H28.3906ZM37.4688 59V50.2656H38.75V51.5938H38.8438C39.0052 51.1615 39.2943 50.8125 39.7109 50.5469C40.1328 50.276 40.6042 50.1406 41.125 50.1406C41.224 50.1406 41.3464 50.1432 41.4922 50.1484C41.638 50.1484 41.75 50.151 41.8281 50.1562V51.5156C41.7812 51.5052 41.6771 51.4896 41.5156 51.4688C41.3542 51.4479 41.1823 51.4375 41 51.4375C40.5781 51.4375 40.2005 51.526 39.8672 51.7031C39.5339 51.8802 39.2708 52.1224 39.0781 52.4297C38.8906 52.737 38.7969 53.0885 38.7969 53.4844V59H37.4688ZM45.2344 59.2031C44.6823 59.2031 44.1797 59.099 43.7266 58.8906C43.2734 58.6771 42.9141 58.3698 42.6484 57.9688C42.3828 57.5677 42.25 57.0833 42.25 56.5156C42.25 56.0156 42.349 55.612 42.5469 55.3047C42.7448 54.9922 43.0078 54.7474 43.3359 54.5703C43.6693 54.388 44.0339 54.2526 44.4297 54.1641C44.8307 54.0755 45.2344 54.0052 45.6406 53.9531C46.1719 53.8854 46.6016 53.8333 46.9297 53.7969C47.263 53.7604 47.5052 53.6979 47.6562 53.6094C47.8125 53.5208 47.8906 53.3698 47.8906 53.1562V53.1094C47.8906 52.5521 47.737 52.1198 47.4297 51.8125C47.1276 51.5 46.6667 51.3438 46.0469 51.3438C45.4115 51.3438 44.9115 51.4844 44.5469 51.7656C44.1823 52.0417 43.9271 52.3385 43.7812 52.6562L42.5 52.2031C42.7292 51.6719 43.0339 51.2578 43.4141 50.9609C43.7995 50.6641 44.2161 50.4557 44.6641 50.3359C45.1172 50.2161 45.5625 50.1562 46 50.1562C46.2812 50.1562 46.6042 50.1901 46.9688 50.2578C47.3333 50.3203 47.6875 50.4557 48.0312 50.6641C48.3802 50.8672 48.6667 51.1771 48.8906 51.5938C49.1198 52.0052 49.2344 52.5573 49.2344 53.25V59H47.8906V57.8125H47.8281C47.7396 58 47.5885 58.2031 47.375 58.4219C47.1615 58.6354 46.8776 58.8203 46.5234 58.9766C46.1745 59.1276 45.7448 59.2031 45.2344 59.2031ZM45.4375 58C45.9688 58 46.4167 57.8958 46.7812 57.6875C47.1458 57.4792 47.4219 57.2109 47.6094 56.8828C47.7969 56.5495 47.8906 56.2031 47.8906 55.8438V54.6094C47.8333 54.6771 47.7083 54.7396 47.5156 54.7969C47.3281 54.849 47.1094 54.8958 46.8594 54.9375C46.6146 54.9792 46.375 55.0156 46.1406 55.0469C45.9062 55.0729 45.7188 55.0938 45.5781 55.1094C45.2292 55.1562 44.9036 55.2318 44.6016 55.3359C44.2995 55.4349 44.0547 55.5833 43.8672 55.7812C43.6849 55.9792 43.5938 56.25 43.5938 56.5938C43.5938 57.0573 43.7656 57.4089 44.1094 57.6484C44.4583 57.8828 44.901 58 45.4375 58ZM52.2812 53.75V59H50.9531V50.2656H52.2344V51.6406H52.3594C52.5625 51.1927 52.8724 50.8333 53.2891 50.5625C53.7057 50.2917 54.2448 50.1562 54.9062 50.1562C55.4948 50.1562 56.0104 50.276 56.4531 50.5156C56.8958 50.7552 57.2396 51.1198 57.4844 51.6094C57.7344 52.0938 57.8594 52.7083 57.8594 53.4531V59H56.5312V53.5469C56.5312 52.8646 56.3516 52.3307 55.9922 51.9453C55.6328 51.5547 55.1432 51.3594 54.5234 51.3594C54.0964 51.3594 53.7135 51.4531 53.375 51.6406C53.0365 51.8281 52.7682 52.099 52.5703 52.4531C52.3776 52.8073 52.2812 53.2396 52.2812 53.75ZM65.75 52.2344L64.5469 52.5625C64.4323 52.2656 64.2344 51.9844 63.9531 51.7188C63.6771 51.4479 63.2448 51.3125 62.6562 51.3125C62.125 51.3125 61.6823 51.4375 61.3281 51.6875C60.974 51.9323 60.7969 52.2396 60.7969 52.6094C60.7969 52.9427 60.9167 53.2083 61.1562 53.4062C61.401 53.6042 61.7812 53.7656 62.2969 53.8906L63.5938 54.2031C64.3698 54.3906 64.9479 54.6797 65.3281 55.0703C65.7135 55.4609 65.9062 55.9583 65.9062 56.5625C65.9062 57.0625 65.763 57.5104 65.4766 57.9062C65.1901 58.3021 64.7917 58.6146 64.2812 58.8438C63.7708 59.0729 63.1771 59.1875 62.5 59.1875C61.6094 59.1875 60.8724 58.9922 60.2891 58.6016C59.7109 58.2109 59.3438 57.6458 59.1875 56.9062L60.4531 56.5938C60.5729 57.0625 60.8021 57.4141 61.1406 57.6484C61.4844 57.8828 61.9323 58 62.4844 58C63.1042 58 63.599 57.8672 63.9688 57.6016C64.3438 57.3307 64.5312 57.0104 64.5312 56.6406C64.5312 56.026 64.099 55.6146 63.2344 55.4062L61.7812 55.0625C60.9792 54.8698 60.3906 54.5755 60.0156 54.1797C59.6406 53.7839 59.4531 53.2865 59.4531 52.6875C59.4531 52.1927 59.5911 51.7552 59.8672 51.375C60.1484 50.9948 60.5312 50.6979 61.0156 50.4844C61.5 50.2656 62.0469 50.1562 62.6562 50.1562C63.526 50.1562 64.2057 50.349 64.6953 50.7344C65.1901 51.1146 65.5417 51.6146 65.75 52.2344ZM69.75 59.2031C69.1979 59.2031 68.6953 59.099 68.2422 58.8906C67.7891 58.6771 67.4297 58.3698 67.1641 57.9688C66.8984 57.5677 66.7656 57.0833 66.7656 56.5156C66.7656 56.0156 66.8646 55.612 67.0625 55.3047C67.2604 54.9922 67.5234 54.7474 67.8516 54.5703C68.1849 54.388 68.5495 54.2526 68.9453 54.1641C69.3464 54.0755 69.75 54.0052 70.1562 53.9531C70.6875 53.8854 71.1172 53.8333 71.4453 53.7969C71.7786 53.7604 72.0208 53.6979 72.1719 53.6094C72.3281 53.5208 72.4062 53.3698 72.4062 53.1562V53.1094C72.4062 52.5521 72.2526 52.1198 71.9453 51.8125C71.6432 51.5 71.1823 51.3438 70.5625 51.3438C69.9271 51.3438 69.4271 51.4844 69.0625 51.7656C68.6979 52.0417 68.4427 52.3385 68.2969 52.6562L67.0156 52.2031C67.2448 51.6719 67.5495 51.2578 67.9297 50.9609C68.3151 50.6641 68.7318 50.4557 69.1797 50.3359C69.6328 50.2161 70.0781 50.1562 70.5156 50.1562C70.7969 50.1562 71.1198 50.1901 71.4844 50.2578C71.849 50.3203 72.2031 50.4557 72.5469 50.6641C72.8958 50.8672 73.1823 51.1771 73.4062 51.5938C73.6354 52.0052 73.75 52.5573 73.75 53.25V59H72.4062V57.8125H72.3438C72.2552 58 72.1042 58.2031 71.8906 58.4219C71.6771 58.6354 71.3932 58.8203 71.0391 58.9766C70.6901 59.1276 70.2604 59.2031 69.75 59.2031ZM69.9531 58C70.4844 58 70.9323 57.8958 71.2969 57.6875C71.6615 57.4792 71.9375 57.2109 72.125 56.8828C72.3125 56.5495 72.4062 56.2031 72.4062 55.8438V54.6094C72.349 54.6771 72.224 54.7396 72.0312 54.7969C71.8438 54.849 71.625 54.8958 71.375 54.9375C71.1302 54.9792 70.8906 55.0156 70.6562 55.0469C70.4219 55.0729 70.2344 55.0938 70.0938 55.1094C69.7448 55.1562 69.4193 55.2318 69.1172 55.3359C68.8151 55.4349 68.5703 55.5833 68.3828 55.7812C68.2005 55.9792 68.1094 56.25 68.1094 56.5938C68.1094 57.0573 68.2812 57.4089 68.625 57.6484C68.974 57.8828 69.4167 58 69.9531 58ZM79 59.1875C78.1875 59.1875 77.4844 58.9948 76.8906 58.6094C76.3021 58.2188 75.8464 57.6849 75.5234 57.0078C75.2057 56.3307 75.0469 55.5573 75.0469 54.6875C75.0469 53.7969 75.2109 53.013 75.5391 52.3359C75.8672 51.6536 76.3255 51.1198 76.9141 50.7344C77.5078 50.349 78.1979 50.1562 78.9844 50.1562C79.599 50.1562 80.151 50.2708 80.6406 50.5C81.1354 50.724 81.5391 51.0417 81.8516 51.4531C82.1693 51.8646 82.3646 52.3438 82.4375 52.8906H81.0938C81.026 52.625 80.9036 52.375 80.7266 52.1406C80.5495 51.9062 80.3151 51.7188 80.0234 51.5781C79.737 51.4323 79.3958 51.3594 79 51.3594C78.4792 51.3594 78.0234 51.4948 77.6328 51.7656C77.2422 52.0365 76.9375 52.4193 76.7188 52.9141C76.5 53.4036 76.3906 53.9792 76.3906 54.6406C76.3906 55.3125 76.4974 55.901 76.7109 56.4062C76.9245 56.9062 77.2266 57.2943 77.6172 57.5703C78.013 57.8464 78.474 57.9844 79 57.9844C79.526 57.9844 79.9766 57.849 80.3516 57.5781C80.7266 57.3021 80.974 56.9271 81.0938 56.4531H82.4375C82.3646 56.9688 82.1771 57.4323 81.875 57.8438C81.5781 58.2552 81.1849 58.5833 80.6953 58.8281C80.2109 59.0677 79.6458 59.1875 79 59.1875ZM87.4844 50.2656V51.4062H82.9688V50.2656H87.4844ZM84.2812 48.1875H85.6094V56.5C85.6094 56.9531 85.7031 57.2865 85.8906 57.5C86.0781 57.7083 86.375 57.8125 86.7812 57.8125C86.8698 57.8125 86.9609 57.8073 87.0547 57.7969C87.1536 57.7865 87.2604 57.7708 87.375 57.75L87.6562 58.9531C87.5312 59 87.3776 59.0365 87.1953 59.0625C87.0182 59.0938 86.8385 59.1094 86.6562 59.1094C85.9531 59.1094 85.3802 58.901 84.9375 58.4844C84.5 58.0677 84.2812 57.526 84.2812 56.8594V48.1875ZM88.7656 59V50.2656H90.0938V59H88.7656ZM89.4375 48.8125C89.1771 48.8125 88.9531 48.724 88.7656 48.5469C88.5781 48.3698 88.4844 48.1562 88.4844 47.9062C88.4844 47.6562 88.5781 47.4427 88.7656 47.2656C88.9531 47.0885 89.1771 47 89.4375 47C89.6979 47 89.9219 47.0885 90.1094 47.2656C90.2969 47.4427 90.3906 47.6562 90.3906 47.9062C90.3906 48.1562 90.2969 48.3698 90.1094 48.5469C89.9219 48.724 89.6979 48.8125 89.4375 48.8125ZM95.3438 59.1875C94.5573 59.1875 93.8672 59 93.2734 58.625C92.6797 58.25 92.2161 57.724 91.8828 57.0469C91.5547 56.3698 91.3906 55.5833 91.3906 54.6875C91.3906 53.776 91.5547 52.9818 91.8828 52.3047C92.2161 51.6224 92.6797 51.0938 93.2734 50.7188C93.8672 50.3438 94.5573 50.1562 95.3438 50.1562C96.1354 50.1562 96.8281 50.3438 97.4219 50.7188C98.0156 51.0938 98.4792 51.6224 98.8125 52.3047C99.1458 52.9818 99.3125 53.776 99.3125 54.6875C99.3125 55.5833 99.1458 56.3698 98.8125 57.0469C98.4792 57.724 98.0156 58.25 97.4219 58.625C96.8281 59 96.1354 59.1875 95.3438 59.1875ZM95.3438 57.9844C95.9479 57.9844 96.4427 57.8307 96.8281 57.5234C97.2135 57.2161 97.5 56.8125 97.6875 56.3125C97.875 55.8073 97.9688 55.2656 97.9688 54.6875C97.9688 54.099 97.875 53.5521 97.6875 53.0469C97.5 52.5417 97.2135 52.1354 96.8281 51.8281C96.4427 51.5156 95.9479 51.3594 95.3438 51.3594C94.75 51.3594 94.2604 51.5156 93.875 51.8281C93.4896 52.1354 93.2031 52.5417 93.0156 53.0469C92.8281 53.5521 92.7344 54.099 92.7344 54.6875C92.7344 55.2656 92.8281 55.8073 93.0156 56.3125C93.2031 56.8125 93.4896 57.2161 93.875 57.5234C94.2604 57.8307 94.75 57.9844 95.3438 57.9844ZM101.938 53.75V59H100.609V50.2656H101.891V51.6406H102.016C102.219 51.1927 102.529 50.8333 102.945 50.5625C103.362 50.2917 103.901 50.1562 104.562 50.1562C105.151 50.1562 105.667 50.276 106.109 50.5156C106.552 50.7552 106.896 51.1198 107.141 51.6094C107.391 52.0938 107.516 52.7083 107.516 53.4531V59H106.188V53.5469C106.188 52.8646 106.008 52.3307 105.648 51.9453C105.289 51.5547 104.799 51.3594 104.18 51.3594C103.753 51.3594 103.37 51.4531 103.031 51.6406C102.693 51.8281 102.424 52.099 102.227 52.4531C102.034 52.8073 101.938 53.2396 101.938 53.75ZM119.156 52.2344L117.953 52.5625C117.839 52.2656 117.641 51.9844 117.359 51.7188C117.083 51.4479 116.651 51.3125 116.062 51.3125C115.531 51.3125 115.089 51.4375 114.734 51.6875C114.38 51.9323 114.203 52.2396 114.203 52.6094C114.203 52.9427 114.323 53.2083 114.562 53.4062C114.807 53.6042 115.188 53.7656 115.703 53.8906L117 54.2031C117.776 54.3906 118.354 54.6797 118.734 55.0703C119.12 55.4609 119.312 55.9583 119.312 56.5625C119.312 57.0625 119.169 57.5104 118.883 57.9062C118.596 58.3021 118.198 58.6146 117.688 58.8438C117.177 59.0729 116.583 59.1875 115.906 59.1875C115.016 59.1875 114.279 58.9922 113.695 58.6016C113.117 58.2109 112.75 57.6458 112.594 56.9062L113.859 56.5938C113.979 57.0625 114.208 57.4141 114.547 57.6484C114.891 57.8828 115.339 58 115.891 58C116.51 58 117.005 57.8672 117.375 57.6016C117.75 57.3307 117.938 57.0104 117.938 56.6406C117.938 56.026 117.505 55.6146 116.641 55.4062L115.188 55.0625C114.385 54.8698 113.797 54.5755 113.422 54.1797C113.047 53.7839 112.859 53.2865 112.859 52.6875C112.859 52.1927 112.997 51.7552 113.273 51.375C113.555 50.9948 113.938 50.6979 114.422 50.4844C114.906 50.2656 115.453 50.1562 116.062 50.1562C116.932 50.1562 117.612 50.349 118.102 50.7344C118.596 51.1146 118.948 51.6146 119.156 52.2344ZM124.375 50.2656V51.4062H119.859V50.2656H124.375ZM121.172 48.1875H122.5V56.5C122.5 56.9531 122.594 57.2865 122.781 57.5C122.969 57.7083 123.266 57.8125 123.672 57.8125C123.76 57.8125 123.852 57.8073 123.945 57.7969C124.044 57.7865 124.151 57.7708 124.266 57.75L124.547 58.9531C124.422 59 124.268 59.0365 124.086 59.0625C123.909 59.0938 123.729 59.1094 123.547 59.1094C122.844 59.1094 122.271 58.901 121.828 58.4844C121.391 58.0677 121.172 57.526 121.172 56.8594V48.1875ZM128.219 59.2031C127.667 59.2031 127.164 59.099 126.711 58.8906C126.258 58.6771 125.898 58.3698 125.633 57.9688C125.367 57.5677 125.234 57.0833 125.234 56.5156C125.234 56.0156 125.333 55.612 125.531 55.3047C125.729 54.9922 125.992 54.7474 126.32 54.5703C126.654 54.388 127.018 54.2526 127.414 54.1641C127.815 54.0755 128.219 54.0052 128.625 53.9531C129.156 53.8854 129.586 53.8333 129.914 53.7969C130.247 53.7604 130.49 53.6979 130.641 53.6094C130.797 53.5208 130.875 53.3698 130.875 53.1562V53.1094C130.875 52.5521 130.721 52.1198 130.414 51.8125C130.112 51.5 129.651 51.3438 129.031 51.3438C128.396 51.3438 127.896 51.4844 127.531 51.7656C127.167 52.0417 126.911 52.3385 126.766 52.6562L125.484 52.2031C125.714 51.6719 126.018 51.2578 126.398 50.9609C126.784 50.6641 127.201 50.4557 127.648 50.3359C128.102 50.2161 128.547 50.1562 128.984 50.1562C129.266 50.1562 129.589 50.1901 129.953 50.2578C130.318 50.3203 130.672 50.4557 131.016 50.6641C131.365 50.8672 131.651 51.1771 131.875 51.5938C132.104 52.0052 132.219 52.5573 132.219 53.25V59H130.875V57.8125H130.812C130.724 58 130.573 58.2031 130.359 58.4219C130.146 58.6354 129.862 58.8203 129.508 58.9766C129.159 59.1276 128.729 59.2031 128.219 59.2031ZM128.422 58C128.953 58 129.401 57.8958 129.766 57.6875C130.13 57.4792 130.406 57.2109 130.594 56.8828C130.781 56.5495 130.875 56.2031 130.875 55.8438V54.6094C130.818 54.6771 130.693 54.7396 130.5 54.7969C130.312 54.849 130.094 54.8958 129.844 54.9375C129.599 54.9792 129.359 55.0156 129.125 55.0469C128.891 55.0729 128.703 55.0938 128.562 55.1094C128.214 55.1562 127.888 55.2318 127.586 55.3359C127.284 55.4349 127.039 55.5833 126.852 55.7812C126.669 55.9792 126.578 56.25 126.578 56.5938C126.578 57.0573 126.75 57.4089 127.094 57.6484C127.443 57.8828 127.885 58 128.422 58ZM137.719 50.2656V51.4062H133.203V50.2656H137.719ZM134.516 48.1875H135.844V56.5C135.844 56.9531 135.938 57.2865 136.125 57.5C136.312 57.7083 136.609 57.8125 137.016 57.8125C137.104 57.8125 137.195 57.8073 137.289 57.7969C137.388 57.7865 137.495 57.7708 137.609 57.75L137.891 58.9531C137.766 59 137.612 59.0365 137.43 59.0625C137.253 59.0938 137.073 59.1094 136.891 59.1094C136.188 59.1094 135.615 58.901 135.172 58.4844C134.734 58.0677 134.516 57.526 134.516 56.8594V48.1875ZM139 59V50.2656H140.328V59H139ZM139.672 48.8125C139.411 48.8125 139.188 48.724 139 48.5469C138.812 48.3698 138.719 48.1562 138.719 47.9062C138.719 47.6562 138.812 47.4427 139 47.2656C139.188 47.0885 139.411 47 139.672 47C139.932 47 140.156 47.0885 140.344 47.2656C140.531 47.4427 140.625 47.6562 140.625 47.9062C140.625 48.1562 140.531 48.3698 140.344 48.5469C140.156 48.724 139.932 48.8125 139.672 48.8125ZM148.219 52.2344L147.016 52.5625C146.901 52.2656 146.703 51.9844 146.422 51.7188C146.146 51.4479 145.714 51.3125 145.125 51.3125C144.594 51.3125 144.151 51.4375 143.797 51.6875C143.443 51.9323 143.266 52.2396 143.266 52.6094C143.266 52.9427 143.385 53.2083 143.625 53.4062C143.87 53.6042 144.25 53.7656 144.766 53.8906L146.062 54.2031C146.839 54.3906 147.417 54.6797 147.797 55.0703C148.182 55.4609 148.375 55.9583 148.375 56.5625C148.375 57.0625 148.232 57.5104 147.945 57.9062C147.659 58.3021 147.26 58.6146 146.75 58.8438C146.24 59.0729 145.646 59.1875 144.969 59.1875C144.078 59.1875 143.341 58.9922 142.758 58.6016C142.18 58.2109 141.812 57.6458 141.656 56.9062L142.922 56.5938C143.042 57.0625 143.271 57.4141 143.609 57.6484C143.953 57.8828 144.401 58 144.953 58C145.573 58 146.068 57.8672 146.438 57.6016C146.812 57.3307 147 57.0104 147 56.6406C147 56.026 146.568 55.6146 145.703 55.4062L144.25 55.0625C143.448 54.8698 142.859 54.5755 142.484 54.1797C142.109 53.7839 141.922 53.2865 141.922 52.6875C141.922 52.1927 142.06 51.7552 142.336 51.375C142.617 50.9948 143 50.6979 143.484 50.4844C143.969 50.2656 144.516 50.1562 145.125 50.1562C145.995 50.1562 146.674 50.349 147.164 50.7344C147.659 51.1146 148.01 51.6146 148.219 52.2344ZM153.438 50.2656V51.4062H148.922V50.2656H153.438ZM150.234 48.1875H151.562V56.5C151.562 56.9531 151.656 57.2865 151.844 57.5C152.031 57.7083 152.328 57.8125 152.734 57.8125C152.823 57.8125 152.914 57.8073 153.008 57.7969C153.107 57.7865 153.214 57.7708 153.328 57.75L153.609 58.9531C153.484 59 153.331 59.0365 153.148 59.0625C152.971 59.0938 152.792 59.1094 152.609 59.1094C151.906 59.1094 151.333 58.901 150.891 58.4844C150.453 58.0677 150.234 57.526 150.234 56.8594V48.1875ZM154.719 59V50.2656H156.047V59H154.719ZM155.391 48.8125C155.13 48.8125 154.906 48.724 154.719 48.5469C154.531 48.3698 154.438 48.1562 154.438 47.9062C154.438 47.6562 154.531 47.4427 154.719 47.2656C154.906 47.0885 155.13 47 155.391 47C155.651 47 155.875 47.0885 156.062 47.2656C156.25 47.4427 156.344 47.6562 156.344 47.9062C156.344 48.1562 156.25 48.3698 156.062 48.5469C155.875 48.724 155.651 48.8125 155.391 48.8125ZM161.297 59.1875C160.484 59.1875 159.781 58.9948 159.188 58.6094C158.599 58.2188 158.143 57.6849 157.82 57.0078C157.503 56.3307 157.344 55.5573 157.344 54.6875C157.344 53.7969 157.508 53.013 157.836 52.3359C158.164 51.6536 158.622 51.1198 159.211 50.7344C159.805 50.349 160.495 50.1562 161.281 50.1562C161.896 50.1562 162.448 50.2708 162.938 50.5C163.432 50.724 163.836 51.0417 164.148 51.4531C164.466 51.8646 164.661 52.3438 164.734 52.8906H163.391C163.323 52.625 163.201 52.375 163.023 52.1406C162.846 51.9062 162.612 51.7188 162.32 51.5781C162.034 51.4323 161.693 51.3594 161.297 51.3594C160.776 51.3594 160.32 51.4948 159.93 51.7656C159.539 52.0365 159.234 52.4193 159.016 52.9141C158.797 53.4036 158.688 53.9792 158.688 54.6406C158.688 55.3125 158.794 55.901 159.008 56.4062C159.221 56.9062 159.523 57.2943 159.914 57.5703C160.31 57.8464 160.771 57.9844 161.297 57.9844C161.823 57.9844 162.273 57.849 162.648 57.5781C163.023 57.3021 163.271 56.9271 163.391 56.4531H164.734C164.661 56.9688 164.474 57.4323 164.172 57.8438C163.875 58.2552 163.482 58.5833 162.992 58.8281C162.508 59.0677 161.943 59.1875 161.297 59.1875ZM172.172 52.2344L170.969 52.5625C170.854 52.2656 170.656 51.9844 170.375 51.7188C170.099 51.4479 169.667 51.3125 169.078 51.3125C168.547 51.3125 168.104 51.4375 167.75 51.6875C167.396 51.9323 167.219 52.2396 167.219 52.6094C167.219 52.9427 167.339 53.2083 167.578 53.4062C167.823 53.6042 168.203 53.7656 168.719 53.8906L170.016 54.2031C170.792 54.3906 171.37 54.6797 171.75 55.0703C172.135 55.4609 172.328 55.9583 172.328 56.5625C172.328 57.0625 172.185 57.5104 171.898 57.9062C171.612 58.3021 171.214 58.6146 170.703 58.8438C170.193 59.0729 169.599 59.1875 168.922 59.1875C168.031 59.1875 167.294 58.9922 166.711 58.6016C166.133 58.2109 165.766 57.6458 165.609 56.9062L166.875 56.5938C166.995 57.0625 167.224 57.4141 167.562 57.6484C167.906 57.8828 168.354 58 168.906 58C169.526 58 170.021 57.8672 170.391 57.6016C170.766 57.3307 170.953 57.0104 170.953 56.6406C170.953 56.026 170.521 55.6146 169.656 55.4062L168.203 55.0625C167.401 54.8698 166.812 54.5755 166.438 54.1797C166.062 53.7839 165.875 53.2865 165.875 52.6875C165.875 52.1927 166.013 51.7552 166.289 51.375C166.57 50.9948 166.953 50.6979 167.438 50.4844C167.922 50.2656 168.469 50.1562 169.078 50.1562C169.948 50.1562 170.628 50.349 171.117 50.7344C171.612 51.1146 171.964 51.6146 172.172 52.2344Z" fill="#FCFCFC" fill-opacity="0.6"/>
<path d="M31.8281 85.2715V72.543H32.6348V85.2715H31.8281ZM32.2314 84.1641C31.4704 84.1641 30.8096 84.0456 30.249 83.8086C29.693 83.5671 29.2578 83.223 28.9434 82.7764C28.6289 82.3298 28.4535 81.7988 28.417 81.1836H29.9619C29.9938 81.5527 30.1123 81.8604 30.3174 82.1064C30.527 82.348 30.7982 82.528 31.1309 82.6465C31.4635 82.765 31.8281 82.8242 32.2246 82.8242C32.6576 82.8242 33.0449 82.7559 33.3867 82.6191C33.7285 82.4824 33.9951 82.291 34.1865 82.0449C34.3825 81.7943 34.4805 81.5026 34.4805 81.1699C34.4805 80.8691 34.3939 80.623 34.2207 80.4316C34.0521 80.2402 33.8219 80.083 33.5303 79.96C33.2386 79.8324 32.9105 79.7207 32.5459 79.625L31.3496 79.2969C30.5293 79.0781 29.8822 78.7523 29.4082 78.3193C28.9342 77.8818 28.6973 77.3099 28.6973 76.6035C28.6973 76.0156 28.8545 75.5029 29.1689 75.0654C29.488 74.6279 29.9186 74.2884 30.4609 74.0469C31.0078 73.8008 31.6208 73.6777 32.2998 73.6777C32.9925 73.6777 33.6009 73.8008 34.125 74.0469C34.6536 74.2884 35.0706 74.6211 35.376 75.0449C35.6859 75.4642 35.8477 75.945 35.8613 76.4873H34.3711C34.3164 76.0179 34.0977 75.6533 33.7148 75.3936C33.3366 75.1338 32.8535 75.0039 32.2656 75.0039C31.8555 75.0039 31.4954 75.07 31.1855 75.2021C30.8802 75.3298 30.6432 75.5075 30.4746 75.7354C30.3105 75.9632 30.2285 76.2253 30.2285 76.5215C30.2285 76.8405 30.3265 77.1003 30.5225 77.3008C30.723 77.5013 30.9645 77.6608 31.2471 77.7793C31.5342 77.8932 31.8099 77.9867 32.0742 78.0596L33.0654 78.3262C33.389 78.4082 33.7217 78.5176 34.0635 78.6543C34.4053 78.791 34.722 78.971 35.0137 79.1943C35.3099 79.4131 35.5469 79.6865 35.7246 80.0146C35.9069 80.3382 35.998 80.7301 35.998 81.1904C35.998 81.7601 35.8499 82.2705 35.5537 82.7217C35.2575 83.1683 34.8291 83.5215 34.2686 83.7812C33.708 84.0365 33.029 84.1641 32.2314 84.1641ZM40.0176 82.0107V80.7734L44.4131 73.8145H45.3906V75.6465H44.7617L41.6172 80.623V80.7051H47.6533V82.0107H40.0176ZM44.8301 84V81.6348L44.8438 81.0674V73.8145H46.3066V84H44.8301ZM52.3223 73.8145V84H50.8047V75.3594H50.7363L48.3164 76.9521V75.4756L50.8457 73.8145H52.3223ZM54.9609 84.0957C54.6829 84.0957 54.446 84 54.25 83.8086C54.0586 83.6172 53.9629 83.3825 53.9629 83.1045C53.9629 82.8265 54.0586 82.5918 54.25 82.4004C54.446 82.209 54.6829 82.1133 54.9609 82.1133C55.2389 82.1133 55.4736 82.209 55.665 82.4004C55.861 82.5918 55.959 82.8265 55.959 83.1045C55.959 83.3825 55.861 83.6172 55.665 83.8086C55.4736 84 55.2389 84.0957 54.9609 84.0957ZM60.6553 84.1367C59.9671 84.1367 59.3564 84.0205 58.8232 83.7881C58.29 83.5511 57.8685 83.223 57.5586 82.8037C57.2487 82.3844 57.0846 81.8991 57.0664 81.3477H58.6113C58.6341 81.6484 58.7367 81.9082 58.9189 82.127C59.1012 82.3457 59.3405 82.5166 59.6367 82.6396C59.9375 82.7581 60.2725 82.8174 60.6416 82.8174C61.0426 82.8174 61.3981 82.7467 61.708 82.6055C62.0179 82.4642 62.2594 82.2705 62.4326 82.0244C62.6104 81.7738 62.6992 81.4844 62.6992 81.1562C62.6992 80.8145 62.6126 80.5137 62.4395 80.2539C62.2663 79.9896 62.0133 79.7845 61.6807 79.6387C61.348 79.4928 60.9469 79.4199 60.4775 79.4199H59.6094V78.1621H60.4775C60.8512 78.1621 61.1816 78.0938 61.4688 77.957C61.7559 77.8203 61.9792 77.6312 62.1387 77.3896C62.3027 77.1481 62.3848 76.8633 62.3848 76.5352C62.3848 76.2207 62.3141 75.9473 62.1729 75.7148C62.0316 75.4779 61.8333 75.2956 61.5781 75.168C61.3229 75.0358 61.0221 74.9697 60.6758 74.9697C60.3431 74.9697 60.0332 75.029 59.7461 75.1475C59.459 75.266 59.2243 75.4368 59.042 75.6602C58.8643 75.8789 58.7708 76.1455 58.7617 76.46H57.2783C57.292 75.9085 57.4515 75.4255 57.7568 75.0107C58.0667 74.5915 58.4769 74.2656 58.9873 74.0332C59.5023 73.7962 60.0719 73.6777 60.6963 73.6777C61.348 73.6777 61.9108 73.8053 62.3848 74.0605C62.8633 74.3112 63.2324 74.6484 63.4922 75.0723C63.752 75.4915 63.8818 75.9495 63.8818 76.4463C63.8818 77.0251 63.7223 77.5127 63.4033 77.9092C63.0843 78.3011 62.6582 78.5677 62.125 78.709V78.7842C62.7995 78.889 63.3213 79.1579 63.6904 79.5908C64.0641 80.0238 64.251 80.5615 64.251 81.2041C64.251 81.7646 64.0938 82.266 63.7793 82.708C63.4694 83.1501 63.0433 83.4987 62.501 83.7539C61.9632 84.0091 61.348 84.1367 60.6553 84.1367ZM65.8848 84L70.3281 75.209V75.1338H65.1875V73.8145H71.9277V75.1885L67.4912 84H65.8848ZM76.1387 73.6709C76.5944 73.6755 77.041 73.7598 77.4785 73.9238C77.9206 74.0833 78.3193 74.3477 78.6748 74.7168C79.0348 75.0859 79.3219 75.585 79.5361 76.2139C79.7503 76.8382 79.8574 77.6175 79.8574 78.5518C79.8574 79.4404 79.7686 80.2311 79.5908 80.9238C79.4131 81.6165 79.1556 82.2021 78.8184 82.6807C78.4857 83.1592 78.0824 83.5238 77.6084 83.7744C77.1344 84.0205 76.6035 84.1436 76.0156 84.1436C75.4095 84.1436 74.8695 84.0228 74.3955 83.7812C73.9215 83.5397 73.5387 83.2093 73.2471 82.79C72.9554 82.3662 72.7708 81.8809 72.6934 81.334H74.2109C74.3112 81.7669 74.514 82.1201 74.8193 82.3936C75.1292 82.6624 75.528 82.7969 76.0156 82.7969C76.7585 82.7969 77.3372 82.471 77.752 81.8193C78.1712 81.1676 78.3831 80.2585 78.3877 79.0918H78.3125C78.1348 79.3789 77.9183 79.6273 77.6631 79.8369C77.4079 80.042 77.1208 80.1992 76.8018 80.3086C76.4827 80.418 76.1455 80.4727 75.79 80.4727C75.1976 80.4727 74.6598 80.3291 74.1768 80.042C73.6937 79.7549 73.3109 79.3607 73.0283 78.8594C72.7458 78.3535 72.6022 77.777 72.5977 77.1299C72.6022 76.4827 72.7503 75.8971 73.042 75.373C73.3382 74.849 73.7507 74.4342 74.2793 74.1289C74.8079 73.819 75.4277 73.6663 76.1387 73.6709ZM76.1455 74.9697C75.7581 74.9697 75.4095 75.0654 75.0996 75.2568C74.7897 75.4482 74.5459 75.7057 74.3682 76.0293C74.1904 76.3529 74.1016 76.7129 74.1016 77.1094C74.1016 77.5059 74.1859 77.8636 74.3545 78.1826C74.5277 78.5016 74.7669 78.7568 75.0723 78.9482C75.3776 79.1351 75.724 79.2285 76.1113 79.2285C76.5033 79.2285 76.8542 79.1305 77.1641 78.9346C77.4785 78.734 77.7292 78.472 77.916 78.1484C78.1029 77.8203 78.1963 77.4671 78.1963 77.0889C78.1963 76.7152 78.1074 76.3665 77.9297 76.043C77.752 75.7194 77.5081 75.4596 77.1982 75.2637C76.8929 75.0677 76.542 74.9697 76.1455 74.9697Z" fill="#FCFCFC"/>
<rect x="28" y="201" width="44" height="11" transform="rotate(-90 28 201)" fill="url(#paint0_linear_1202_20667)"/>
<rect x="59.168" y="201" width="27" height="10" transform="rotate(-90 59.168 201)" fill="url(#paint1_linear_1202_20667)"/>
<rect x="89.332" y="201" width="54" height="11" transform="rotate(-90 89.332 201)" fill="url(#paint2_linear_1202_20667)"/>
<rect x="120.5" y="201" width="34" height="11" transform="rotate(-90 120.5 201)" fill="url(#paint3_linear_1202_20667)"/>
<rect x="151.668" y="201" width="47" height="11" transform="rotate(-90 151.668 201)" fill="url(#paint4_linear_1202_20667)"/>
<rect x="182.832" y="201" width="61" height="11" transform="rotate(-90 182.832 201)" fill="url(#paint5_linear_1202_20667)"/>
<rect x="214" y="201" width="14" height="11" transform="rotate(-90 214 201)" fill="url(#paint6_linear_1202_20667)"/>
<path d="M37.1712 217.144C36.6112 217.144 36.0912 217.04 35.6112 216.832C35.1312 216.616 34.7232 216.324 34.3872 215.956C34.0512 215.588 33.8032 215.164 33.6432 214.684L34.8432 214.18C35.0592 214.732 35.3752 215.156 35.7912 215.452C36.2072 215.748 36.6872 215.896 37.2312 215.896C37.5512 215.896 37.8312 215.848 38.0712 215.752C38.3112 215.648 38.4952 215.504 38.6232 215.32C38.7592 215.136 38.8272 214.924 38.8272 214.684C38.8272 214.356 38.7352 214.096 38.5512 213.904C38.3672 213.712 38.0952 213.56 37.7352 213.448L36.0552 212.92C35.3832 212.712 34.8712 212.396 34.5192 211.972C34.1672 211.54 33.9912 211.036 33.9912 210.46C33.9912 209.956 34.1152 209.516 34.3632 209.14C34.6112 208.756 34.9512 208.456 35.3832 208.24C35.8232 208.024 36.3232 207.916 36.8832 207.916C37.4192 207.916 37.9072 208.012 38.3472 208.204C38.7872 208.388 39.1632 208.644 39.4752 208.972C39.7952 209.3 40.0272 209.68 40.1712 210.112L38.9952 210.628C38.8192 210.156 38.5432 209.792 38.1672 209.536C37.7992 209.28 37.3712 209.152 36.8832 209.152C36.5872 209.152 36.3272 209.204 36.1032 209.308C35.8792 209.404 35.7032 209.548 35.5752 209.74C35.4552 209.924 35.3952 210.14 35.3952 210.388C35.3952 210.676 35.4872 210.932 35.6712 211.156C35.8552 211.38 36.1352 211.548 36.5112 211.66L38.0712 212.152C38.7832 212.368 39.3192 212.68 39.6792 213.088C40.0392 213.488 40.2192 213.988 40.2192 214.588C40.2192 215.084 40.0872 215.524 39.8232 215.908C39.5672 216.292 39.2112 216.596 38.7552 216.82C38.2992 217.036 37.7712 217.144 37.1712 217.144Z" fill="#FCFCFC"/>
<path d="M63.0119 217V208.06H64.3319L67.6919 212.716H67.0319L70.3319 208.06H71.6519V217H70.2479V209.728L70.7759 209.872L67.4039 214.48H67.2599L63.9599 209.872L64.4279 209.728V217H63.0119Z" fill="#FCFCFC"/>
<path d="M96.4826 217V209.32H94.1066V208.06H100.227V209.32H97.8866V217H96.4826Z" fill="#FCFCFC"/>
<path d="M124.545 217L122.085 208.06H123.585L125.577 215.8H125.205L127.269 208.06H128.745L130.809 215.8H130.425L132.429 208.06H133.917L131.469 217H129.873L127.797 209.38H128.217L126.129 217H124.545Z" fill="#FCFCFC"/>
<path d="M158.147 217V209.32H155.771V208.06H161.891V209.32H159.551V217H158.147Z" fill="#FCFCFC"/>
<path d="M184.588 217V208.06H190.408V209.32H186.004V212.008H189.928V213.268H186.004V217H184.588Z" fill="#FCFCFC"/>
<path d="M216.171 217.144C215.611 217.144 215.091 217.04 214.611 216.832C214.131 216.616 213.723 216.324 213.387 215.956C213.051 215.588 212.803 215.164 212.643 214.684L213.843 214.18C214.059 214.732 214.375 215.156 214.791 215.452C215.207 215.748 215.687 215.896 216.231 215.896C216.551 215.896 216.831 215.848 217.071 215.752C217.311 215.648 217.495 215.504 217.623 215.32C217.759 215.136 217.827 214.924 217.827 214.684C217.827 214.356 217.735 214.096 217.551 213.904C217.367 213.712 217.095 213.56 216.735 213.448L215.055 212.92C214.383 212.712 213.871 212.396 213.519 211.972C213.167 211.54 212.991 211.036 212.991 210.46C212.991 209.956 213.115 209.516 213.363 209.14C213.611 208.756 213.951 208.456 214.383 208.24C214.823 208.024 215.323 207.916 215.883 207.916C216.419 207.916 216.907 208.012 217.347 208.204C217.787 208.388 218.163 208.644 218.475 208.972C218.795 209.3 219.027 209.68 219.171 210.112L217.995 210.628C217.819 210.156 217.543 209.792 217.167 209.536C216.799 209.28 216.371 209.152 215.883 209.152C215.587 209.152 215.327 209.204 215.103 209.308C214.879 209.404 214.703 209.548 214.575 209.74C214.455 209.924 214.395 210.14 214.395 210.388C214.395 210.676 214.487 210.932 214.671 211.156C214.855 211.38 215.135 211.548 215.511 211.66L217.071 212.152C217.783 212.368 218.319 212.68 218.679 213.088C219.039 213.488 219.219 213.988 219.219 214.588C219.219 215.084 219.087 215.524 218.823 215.908C218.567 216.292 218.211 216.596 217.755 216.82C217.299 217.036 216.771 217.144 216.171 217.144Z" fill="#FCFCFC"/>
<defs>
<linearGradient id="paint0_linear_1202_20667" x1="69.5556" y1="206.5" x2="28" y2="206.5" gradientUnits="userSpaceOnUse">
<stop stop-color="#C6F56F"/>
<stop offset="1" stop-color="#1A1A1C"/>
</linearGradient>
<linearGradient id="paint1_linear_1202_20667" x1="84.668" y1="206" x2="59.168" y2="206" gradientUnits="userSpaceOnUse">
<stop stop-color="#C6F56F"/>
<stop offset="1" stop-color="#1A1A1C"/>
</linearGradient>
<linearGradient id="paint2_linear_1202_20667" x1="140.332" y1="206.5" x2="89.332" y2="206.5" gradientUnits="userSpaceOnUse">
<stop stop-color="#C6F56F"/>
<stop offset="1" stop-color="#1A1A1C"/>
</linearGradient>
<linearGradient id="paint3_linear_1202_20667" x1="152.611" y1="206.5" x2="120.5" y2="206.5" gradientUnits="userSpaceOnUse">
<stop stop-color="#C6F56F"/>
<stop offset="1" stop-color="#1A1A1C"/>
</linearGradient>
<linearGradient id="paint4_linear_1202_20667" x1="196.057" y1="206.5" x2="151.668" y2="206.5" gradientUnits="userSpaceOnUse">
<stop stop-color="#C6F56F"/>
<stop offset="1" stop-color="#1A1A1C"/>
</linearGradient>
<linearGradient id="paint5_linear_1202_20667" x1="240.443" y1="206.5" x2="182.832" y2="206.5" gradientUnits="userSpaceOnUse">
<stop stop-color="#C6F56F"/>
<stop offset="1" stop-color="#1A1A1C"/>
</linearGradient>
<linearGradient id="paint6_linear_1202_20667" x1="227.222" y1="206.5" x2="214" y2="206.5" gradientUnits="userSpaceOnUse">
<stop stop-color="#C6F56F"/>
<stop offset="1" stop-color="#1A1A1C"/>
</linearGradient>
</defs>
</svg>
