<svg width="62" height="56" viewBox="0 0 62 56" fill="none" xmlns="http://www.w3.org/2000/svg">
<path id="Vector" d="M48.5167 29.6467C41.0688 29.6467 35.0321 35.5457 35.0321 42.8224C35.0321 50.0998 41.0688 56 48.5167 56C55.9634 56 62 50.0998 62 42.8224C62 35.5457 55.9634 29.6467 48.5167 29.6467ZM13.4839 29.6474C6.03725 29.648 0 35.5457 0 42.8231C0 50.0998 6.03725 55.9994 13.4839 55.9994C20.9312 55.9994 26.9685 50.0998 26.9685 42.8231C26.9685 35.5456 20.9319 29.6474 13.4839 29.6474ZM44.484 13.1763C44.484 20.4531 38.4474 26.3539 31.0007 26.3539C23.5528 26.3539 17.5161 20.4531 17.5161 13.1763C17.5161 5.89952 23.5528 0 31.0006 0C38.4473 0 44.484 5.89952 44.484 13.1763Z" fill="url(#paint0_radial_145_10766)"/>
<defs>
<radialGradient id="paint0_radial_145_10766" cx="0" cy="0" r="1" gradientUnits="userSpaceOnUse" gradientTransform="translate(31.0084 30.6401) scale(41.106 37.128)">
<stop stop-color="#FFB900"/>
<stop offset="0.6" stop-color="#F95D8F"/>
<stop offset="0.999" stop-color="#F95353"/>
</radialGradient>
</defs>
</svg>
