<svg width="128" height="45" viewBox="0 0 128 45" fill="none" xmlns="http://www.w3.org/2000/svg">
<g clip-path="url(#clip0_4451_4540)">
<g clip-path="url(#clip1_4451_4540)">
<path fill-rule="evenodd" clip-rule="evenodd" d="M21.0895 23.1881C17.8525 23.1881 15.2282 25.8123 15.2282 29.0497C15.2282 32.2868 17.8525 34.911 21.0895 34.911C24.3267 34.911 26.9509 32.2868 26.9509 29.0497C26.9509 25.8123 24.3267 23.1881 21.0895 23.1881ZM5.86134 23.1886C2.62424 23.1886 0 25.8123 0 29.0497C0 32.2868 2.62424 34.911 5.86134 34.911C9.09858 34.911 11.723 32.2868 11.723 29.0497C11.723 25.8123 9.09858 23.1886 5.86134 23.1886ZM19.3367 15.8612C19.3367 19.0986 16.7126 21.7231 13.4755 21.7231C10.2382 21.7231 7.61414 19.0986 7.61414 15.8612C7.61414 12.6245 10.2382 10 13.4755 10C16.7126 10 19.3367 12.6245 19.3367 15.8612Z" fill="#F06A6A"/>
<path fill-rule="evenodd" clip-rule="evenodd" d="M124.606 28.8402C124.682 29.7097 125.377 30.8165 126.583 30.8165H127.287C127.561 30.8165 127.785 30.5926 127.785 30.319V14.8133H127.782C127.768 14.5521 127.552 14.3429 127.287 14.3429H125.103C124.839 14.3429 124.623 14.5521 124.609 14.8133H124.606V16.0732C123.267 14.4233 121.157 13.7385 119.041 13.7385C114.23 13.7385 110.331 17.641 110.331 22.4552C110.331 27.2697 114.23 31.1722 119.041 31.1722C121.157 31.1722 123.464 30.351 124.606 28.8382V28.8402ZM119.049 28.1215C115.99 28.1215 113.51 25.5848 113.51 22.4552C113.51 19.3261 115.99 16.7893 119.049 16.7893C122.109 16.7893 124.589 19.3261 124.589 22.4552C124.589 25.5848 122.109 28.1215 119.049 28.1215Z" fill="white"/>
<path fill-rule="evenodd" clip-rule="evenodd" d="M107.568 21.3499C107.568 16.827 104.717 13.7759 100.171 13.7759C98.0005 13.7759 96.2215 15.0318 95.593 16.1107C95.4572 15.2671 95.0098 14.3804 93.6219 14.3804H92.9145C92.6409 14.3804 92.4175 14.6045 92.4175 14.8781V30.3851H92.4202C92.4345 30.6459 92.6505 30.8553 92.9148 30.8553H95.0994C95.1328 30.8553 95.1657 30.8514 95.1974 30.8452C95.2118 30.8424 95.2252 30.8367 95.2393 30.8327C95.2556 30.8277 95.2725 30.8239 95.2879 30.8175C95.3074 30.8094 95.325 30.7986 95.343 30.7885C95.3519 30.7831 95.3612 30.7793 95.3698 30.7736C95.3916 30.7595 95.4116 30.7426 95.4309 30.7253C95.4341 30.7222 95.4378 30.72 95.441 30.717C95.4627 30.696 95.4826 30.6728 95.5001 30.6487C95.5548 30.5736 95.5882 30.4827 95.5936 30.3851H95.5965V21.2254C95.5965 18.7964 97.5643 16.827 99.9917 16.827C102.419 16.827 104.387 18.7964 104.387 21.2254L104.389 28.8817L104.389 28.879C104.389 28.8858 104.39 28.8927 104.39 28.9V30.3851H104.393C104.408 30.6459 104.624 30.8553 104.888 30.8553H107.072C107.106 30.8553 107.139 30.8514 107.17 30.8452C107.183 30.8428 107.195 30.8376 107.208 30.8341C107.226 30.8289 107.244 30.8244 107.261 30.8175C107.279 30.8101 107.295 30.7998 107.312 30.7902C107.323 30.7844 107.334 30.7802 107.343 30.7736C107.364 30.7603 107.382 30.7443 107.4 30.7285C107.405 30.7242 107.41 30.721 107.414 30.7167C107.435 30.6967 107.454 30.6751 107.47 30.6525C107.472 30.6508 107.473 30.6494 107.474 30.6477C107.528 30.5733 107.561 30.4834 107.567 30.3864L107.567 30.3851H107.57L107.568 21.3499Z" fill="white"/>
<path fill-rule="evenodd" clip-rule="evenodd" d="M84.8168 28.8401C84.8931 29.7097 85.5887 30.8165 86.7937 30.8165H87.4987C87.772 30.8165 87.9957 30.5925 87.9957 30.319V14.8133H87.9929C87.9787 14.5521 87.7626 14.3429 87.4987 14.3429H85.314C85.0498 14.3429 84.834 14.5521 84.8193 14.8133H84.8168V16.0732C83.4781 14.4233 81.3678 13.7385 79.2515 13.7385C74.4413 13.7385 70.542 17.641 70.542 22.4552C70.542 27.2697 74.4413 31.1723 79.2515 31.1723C81.3678 31.1723 83.6741 30.351 84.8165 28.8382L84.8168 28.8401ZM79.2601 28.1215C76.201 28.1215 73.7207 25.5849 73.7207 22.4552C73.7207 19.3261 76.201 16.7893 79.2601 16.7893C82.3195 16.7893 84.7993 19.3261 84.7993 22.4552C84.7993 25.5849 82.3195 28.1215 79.2601 28.1215Z" fill="white"/>
<path fill-rule="evenodd" clip-rule="evenodd" d="M57.6228 26.6194C59.0812 27.6306 60.6731 28.1217 62.2029 28.1217C63.6603 28.1217 65.167 27.3656 65.167 26.0494C65.167 24.2924 61.8839 24.019 59.8212 23.3174C57.758 22.6158 55.9811 21.1654 55.9811 18.8166C55.9811 15.2226 59.181 13.7383 62.1676 13.7383C64.0598 13.7383 66.0122 14.3628 67.278 15.2573C67.7139 15.5879 67.4485 15.9674 67.4485 15.9674L66.2402 17.6945C66.1044 17.889 65.8669 18.0571 65.5261 17.8465C65.1852 17.6361 63.9896 16.7892 62.1676 16.7892C60.3453 16.7892 59.2477 17.6313 59.2477 18.6752C59.2477 19.9269 60.6743 20.3206 62.3452 20.7472C65.2571 21.5327 68.4336 22.4769 68.4336 26.0494C68.4336 29.216 65.4739 31.1729 62.2029 31.1729C59.7242 31.1729 57.6137 30.4658 55.8437 29.1659C55.475 28.7966 55.7325 28.4536 55.7325 28.4536L56.9349 26.7353C57.1795 26.4141 57.4879 26.5261 57.6228 26.6194Z" fill="white"/>
<path fill-rule="evenodd" clip-rule="evenodd" d="M49.2241 28.8401C49.3005 29.7097 49.996 30.8165 51.2009 30.8165H51.906C52.1793 30.8165 52.4033 30.5925 52.4033 30.319V14.8133H52.4002C52.3859 14.5521 52.1701 14.3429 51.906 14.3429H49.7214C49.4572 14.3429 49.2414 14.5521 49.2267 14.8133H49.2241V16.0732C47.8856 14.4233 45.7752 13.7385 43.659 13.7385C38.8488 13.7385 34.9492 17.641 34.9492 22.4552C34.9492 27.2697 38.8488 31.1723 43.659 31.1723C45.7752 31.1723 48.0815 30.351 49.2238 28.8382L49.2241 28.8401ZM43.6675 28.1215C40.6082 28.1215 38.1281 25.5849 38.1281 22.4552C38.1281 19.3261 40.6082 16.7893 43.6675 16.7893C46.7267 16.7893 49.2066 19.3261 49.2066 22.4552C49.2066 25.5849 46.7267 28.1215 43.6675 28.1215Z" fill="white"/>
</g>
</g>
<defs>
<clipPath id="clip0_4451_4540">
<rect width="127.787" height="44.911" fill="white"/>
</clipPath>
<clipPath id="clip1_4451_4540">
<rect width="127.787" height="44.911" fill="white"/>
</clipPath>
</defs>
</svg>
