<svg width="128" height="45" viewBox="0 0 128 45" fill="none" xmlns="http://www.w3.org/2000/svg">
<g clip-path="url(#clip0_3926_6887)">
<g clip-path="url(#clip1_3926_6887)">
<path fill-rule="evenodd" clip-rule="evenodd" d="M21.0895 23.1881C17.8525 23.1881 15.2282 25.8123 15.2282 29.0497C15.2282 32.2868 17.8525 34.911 21.0895 34.911C24.3267 34.911 26.9509 32.2868 26.9509 29.0497C26.9509 25.8123 24.3267 23.1881 21.0895 23.1881ZM5.86134 23.1886C2.62424 23.1886 0 25.8123 0 29.0497C0 32.2868 2.62424 34.911 5.86134 34.911C9.09858 34.911 11.723 32.2868 11.723 29.0497C11.723 25.8123 9.09858 23.1886 5.86134 23.1886ZM19.3367 15.8612C19.3367 19.0986 16.7126 21.7231 13.4755 21.7231C10.2382 21.7231 7.61414 19.0986 7.61414 15.8612C7.61414 12.6245 10.2382 10 13.4755 10C16.7126 10 19.3367 12.6245 19.3367 15.8612Z" fill="#F06A6A"/>
<path fill-rule="evenodd" clip-rule="evenodd" d="M124.608 28.8401C124.684 29.7096 125.379 30.8164 126.585 30.8164H127.289C127.563 30.8164 127.787 30.5925 127.787 30.3189V14.8132H127.784C127.77 14.552 127.554 14.3428 127.289 14.3428H125.105C124.84 14.3428 124.625 14.552 124.611 14.8132H124.608V16.0731C123.269 14.4232 121.159 13.7384 119.043 13.7384C114.232 13.7384 110.333 17.6409 110.333 22.4551C110.333 27.2696 114.232 31.1721 119.043 31.1721C121.159 31.1721 123.465 30.3509 124.608 28.8381V28.8401ZM119.051 28.1214C115.992 28.1214 113.512 25.5847 113.512 22.4551C113.512 19.326 115.992 16.7892 119.051 16.7892C122.111 16.7892 124.59 19.326 124.59 22.4551C124.59 25.5847 122.111 28.1214 119.051 28.1214Z" fill="#0D0E10"/>
<path fill-rule="evenodd" clip-rule="evenodd" d="M107.57 21.3498C107.57 16.827 104.719 13.7758 100.173 13.7758C98.0025 13.7758 96.2234 15.0317 95.595 16.1106C95.4592 15.267 95.0117 14.3803 93.6239 14.3803H92.9165C92.6428 14.3803 92.4194 14.6044 92.4194 14.878V30.385H92.4222C92.4365 30.6458 92.6525 30.8552 92.9167 30.8552H95.1014C95.1348 30.8552 95.1676 30.8513 95.1993 30.8451C95.2137 30.8423 95.2272 30.8366 95.2413 30.8326C95.2575 30.8276 95.2744 30.8238 95.2899 30.8174C95.3093 30.8093 95.3269 30.7985 95.345 30.7884C95.3539 30.783 95.3632 30.7792 95.3717 30.7735C95.3935 30.7594 95.4135 30.7425 95.4328 30.7252C95.436 30.7221 95.4398 30.7199 95.443 30.7169C95.4647 30.6959 95.4845 30.6727 95.502 30.6486C95.5567 30.5735 95.5901 30.4826 95.5956 30.385H95.5984V21.2253C95.5984 18.7963 97.5663 16.827 99.9936 16.827C102.421 16.827 104.389 18.7963 104.389 21.2253L104.391 28.8816L104.391 28.8789C104.391 28.8857 104.392 28.8926 104.392 28.8999V30.385H104.395C104.41 30.6458 104.626 30.8552 104.89 30.8552H107.074C107.108 30.8552 107.141 30.8513 107.172 30.8451C107.185 30.8427 107.197 30.8375 107.21 30.834C107.228 30.8288 107.246 30.8243 107.263 30.8174C107.281 30.81 107.297 30.7997 107.314 30.7901C107.325 30.7843 107.335 30.7801 107.345 30.7735C107.365 30.7602 107.384 30.7442 107.402 30.7284C107.407 30.7241 107.412 30.7209 107.416 30.7166C107.437 30.6966 107.455 30.675 107.472 30.6524C107.474 30.6507 107.475 30.6493 107.476 30.6476C107.53 30.5732 107.563 30.4833 107.569 30.3863L107.569 30.385H107.572L107.57 21.3498Z" fill="#0D0E10"/>
<path fill-rule="evenodd" clip-rule="evenodd" d="M84.8187 28.84C84.8951 29.7096 85.5906 30.8164 86.7956 30.8164H87.5006C87.7739 30.8164 87.9977 30.5924 87.9977 30.3189V14.8132H87.9949C87.9806 14.552 87.7645 14.3428 87.5006 14.3428H85.316C85.0518 14.3428 84.836 14.552 84.8212 14.8132H84.8187V16.0731C83.4801 14.4232 81.3697 13.7384 79.2535 13.7384C74.4433 13.7384 70.5439 17.6409 70.5439 22.4551C70.5439 27.2696 74.4433 31.1722 79.2535 31.1722C81.3697 31.1722 83.6761 30.3509 84.8185 28.8381L84.8187 28.84ZM79.262 28.1214C76.2029 28.1214 73.7227 25.5848 73.7227 22.4551C73.7227 19.326 76.2029 16.7892 79.262 16.7892C82.3214 16.7892 84.8012 19.326 84.8012 22.4551C84.8012 25.5848 82.3214 28.1214 79.262 28.1214Z" fill="#0D0E10"/>
<path fill-rule="evenodd" clip-rule="evenodd" d="M57.6248 26.6193C59.0832 27.6305 60.6751 28.1216 62.2049 28.1216C63.6623 28.1216 65.169 27.3655 65.169 26.0493C65.169 24.2923 61.8859 24.0189 59.8232 23.3173C57.76 22.6157 55.9831 21.1653 55.9831 18.8165C55.9831 15.2225 59.1829 13.7382 62.1695 13.7382C64.0618 13.7382 66.0142 14.3627 67.28 15.2572C67.7159 15.5878 67.4504 15.9673 67.4504 15.9673L66.2421 17.6944C66.1063 17.8889 65.8688 18.057 65.5281 17.8464C65.1871 17.636 63.9916 16.7891 62.1695 16.7891C60.3473 16.7891 59.2496 17.6312 59.2496 18.6751C59.2496 19.9268 60.6762 20.3205 62.3471 20.7471C65.2591 21.5326 68.4356 22.4768 68.4356 26.0493C68.4356 29.2159 65.4759 31.1728 62.2049 31.1728C59.7261 31.1728 57.6157 30.4657 55.8457 29.1658C55.4769 28.7965 55.7344 28.4535 55.7344 28.4535L56.9368 26.7352C57.1815 26.414 57.4899 26.526 57.6248 26.6193Z" fill="#0D0E10"/>
<path fill-rule="evenodd" clip-rule="evenodd" d="M49.2261 28.84C49.3024 29.7096 49.998 30.8164 51.2029 30.8164H51.908C52.1813 30.8164 52.4053 30.5924 52.4053 30.3189V14.8132H52.4022C52.3879 14.552 52.1721 14.3428 51.908 14.3428H49.7233C49.4591 14.3428 49.2433 14.552 49.2287 14.8132H49.2261V16.0731C47.8875 14.4232 45.7772 13.7384 43.6609 13.7384C38.8507 13.7384 34.9512 17.6409 34.9512 22.4551C34.9512 27.2696 38.8507 31.1722 43.6609 31.1722C45.7772 31.1722 48.0834 30.3509 49.2257 28.8381L49.2261 28.84ZM43.6695 28.1214C40.6102 28.1214 38.13 25.5848 38.13 22.4551C38.13 19.326 40.6102 16.7892 43.6695 16.7892C46.7287 16.7892 49.2086 19.326 49.2086 22.4551C49.2086 25.5848 46.7287 28.1214 43.6695 28.1214Z" fill="#0D0E10"/>
</g>
</g>
<defs>
<clipPath id="clip0_3926_6887">
<rect width="127.787" height="44.911" fill="white"/>
</clipPath>
<clipPath id="clip1_3926_6887">
<rect width="127.787" height="44.911" fill="white"/>
</clipPath>
</defs>
</svg>
