<svg width="24" height="25" viewBox="0 0 24 25" fill="none" xmlns="http://www.w3.org/2000/svg">
<path fill-rule="evenodd" clip-rule="evenodd" d="M5 12.5V6.5H8C9.65685 6.5 11 7.84315 11 9.5C11 11.1569 9.65685 12.5 8 12.5C9.65685 12.5 11 13.8431 11 15.5C11 17.1569 9.65685 18.5 8 18.5H5V12.5Z" stroke="#FCFCFC" stroke-width="1.5" stroke-linecap="round" stroke-linejoin="round"/>
<path fill-rule="evenodd" clip-rule="evenodd" d="M19 15.5C19 13.8431 17.6569 12.5 16 12.5C14.3431 12.5 13 13.8431 13 15.5H19Z" stroke="#FCFCFC" stroke-width="1.5" stroke-linecap="round" stroke-linejoin="round"/>
<path d="M5 11.75C4.58579 11.75 4.25 12.0858 4.25 12.5C4.25 12.9142 4.58579 13.25 5 13.25V11.75ZM8 13.25C8.41421 13.25 8.75 12.9142 8.75 12.5C8.75 12.0858 8.41421 11.75 8 11.75V13.25ZM13.75 15.5C13.75 15.0858 13.4142 14.75 13 14.75C12.5858 14.75 12.25 15.0858 12.25 15.5L13.75 15.5ZM14.9295 18.3024L14.6619 19.0031L14.9295 18.3024ZM18.795 18C19.0712 17.6913 19.0447 17.2172 18.736 16.941C18.4273 16.6648 17.9532 16.6913 17.677 17L18.795 18ZM18 11.25C18.4142 11.25 18.75 10.9142 18.75 10.5C18.75 10.0858 18.4142 9.75 18 9.75V11.25ZM14 9.75C13.5858 9.75 13.25 10.0858 13.25 10.5C13.25 10.9142 13.5858 11.25 14 11.25V9.75ZM5 12.5V13.25H8V12.5V11.75H5V12.5ZM13 15.5L12.25 15.5C12.25 17.0548 13.2095 18.4483 14.6619 19.0031L14.9295 18.3024L15.1971 17.6018C14.3257 17.2689 13.75 16.4328 13.75 15.5L13 15.5ZM14.9295 18.3024L14.6619 19.0031C16.1143 19.5578 17.7584 19.1588 18.795 18L18.236 17.5L17.677 17C17.0551 17.6953 16.0686 17.9347 15.1971 17.6018L14.9295 18.3024ZM18 10.5V9.75H14V10.5V11.25H18V10.5Z" fill="#FCFCFC"/>
</svg>
