<svg width="202" height="39" viewBox="0 0 202 39" fill="none" xmlns="http://www.w3.org/2000/svg">
<g clip-path="url(#clip0_6759_5523)">
<g clip-path="url(#clip1_6759_5523)">
<path fill-rule="evenodd" clip-rule="evenodd" d="M0.5 19.5L0.500001 3.5H32.5V19.5C23.6648 19.5 16.5021 12.3387 16.5 3.50383C16.4979 12.3387 9.33526 19.5 0.5 19.5ZM16.5 35.5C16.5 26.6634 23.6635 19.5 32.5 19.5V35.5H16.5ZM16.5 35.5C16.5 26.6634 9.33656 19.5 0.5 19.5V35.5H16.5Z" fill="#FCFCFC" fill-opacity="0.6"/>
</g>
<path d="M47.96 11.178V25.114H59.14V28H44.502V11.178H47.96ZM69.0198 28.312C67.3905 28.312 65.9518 28.052 64.7038 27.532C63.4731 27.012 62.5111 26.258 61.8178 25.27C61.1245 24.2647 60.7778 23.034 60.7778 21.578C60.7778 20.122 61.1245 18.8913 61.8178 17.886C62.5111 16.8633 63.4731 16.092 64.7038 15.572C65.9518 15.052 67.3905 14.792 69.0198 14.792C70.6491 14.792 72.0705 15.052 73.2838 15.572C74.5145 16.092 75.4765 16.8633 76.1698 17.886C76.8631 18.8913 77.2098 20.122 77.2098 21.578C77.2098 23.034 76.8631 24.2647 76.1698 25.27C75.4765 26.258 74.5145 27.012 73.2838 27.532C72.0705 28.052 70.6491 28.312 69.0198 28.312ZM69.0198 25.712C69.9211 25.712 70.7271 25.556 71.4378 25.244C72.1658 24.9147 72.7378 24.4467 73.1538 23.84C73.5698 23.216 73.7778 22.462 73.7778 21.578C73.7778 20.694 73.5698 19.94 73.1538 19.316C72.7378 18.6747 72.1745 18.1893 71.4638 17.86C70.7531 17.5307 69.9385 17.366 69.0198 17.366C68.1185 17.366 67.3038 17.5307 66.5758 17.86C65.8478 18.1893 65.2671 18.666 64.8338 19.29C64.4178 19.914 64.2098 20.6767 64.2098 21.578C64.2098 22.462 64.4178 23.216 64.8338 23.84C65.2498 24.4467 65.8218 24.9147 66.5498 25.244C67.2778 25.556 68.1011 25.712 69.0198 25.712ZM86.1564 26.024C84.7524 26.024 83.5131 25.816 82.4384 25.4C81.3811 24.9667 80.5578 24.334 79.9684 23.502C79.3791 22.67 79.0844 21.6647 79.0844 20.486C79.0844 19.3247 79.3704 18.3193 79.9424 17.47C80.5144 16.6207 81.3291 15.962 82.3864 15.494C83.4611 15.026 84.7178 14.792 86.1564 14.792C86.5551 14.792 86.9364 14.818 87.3004 14.87C87.6818 14.922 88.0544 14.9913 88.4184 15.078L94.9444 15.104V17.652C94.0604 17.6693 93.1591 17.5653 92.2404 17.34C91.3391 17.0973 90.5418 16.8373 89.8484 16.56L89.7704 16.378C90.3598 16.6553 90.9144 17.002 91.4344 17.418C91.9544 17.8167 92.3704 18.2847 92.6824 18.822C93.0118 19.342 93.1764 19.9487 93.1764 20.642C93.1764 21.7687 92.8904 22.7393 92.3184 23.554C91.7464 24.3513 90.9318 24.9667 89.8744 25.4C88.8344 25.816 87.5951 26.024 86.1564 26.024ZM90.4984 33.33V32.706C90.4984 31.9087 90.2384 31.354 89.7184 31.042C89.2158 30.73 88.5224 30.574 87.6384 30.574H83.6084C82.8284 30.574 82.1698 30.5133 81.6324 30.392C81.1124 30.2707 80.6964 30.0973 80.3844 29.872C80.0724 29.6467 79.8471 29.378 79.7084 29.066C79.5698 28.7713 79.5004 28.4507 79.5004 28.104C79.5004 27.4107 79.7258 26.8907 80.1764 26.544C80.6271 26.18 81.2338 25.9373 81.9964 25.816C82.7591 25.6947 83.5998 25.6687 84.5184 25.738L86.1564 26.024C85.0644 26.0587 84.2498 26.154 83.7124 26.31C83.1924 26.4487 82.9324 26.7347 82.9324 27.168C82.9324 27.428 83.0364 27.636 83.2444 27.792C83.4524 27.9307 83.7471 28 84.1284 28H88.3664C89.5278 28 90.5158 28.1213 91.3304 28.364C92.1624 28.624 92.7951 29.0487 93.2284 29.638C93.6618 30.2447 93.8784 31.068 93.8784 32.108V33.33H90.4984ZM86.1564 23.58C86.9018 23.58 87.5518 23.4587 88.1064 23.216C88.6784 22.9733 89.1204 22.6267 89.4324 22.176C89.7444 21.708 89.9004 21.1533 89.9004 20.512C89.9004 19.8533 89.7444 19.29 89.4324 18.822C89.1204 18.354 88.6871 17.9987 88.1324 17.756C87.5778 17.496 86.9191 17.366 86.1564 17.366C85.4111 17.366 84.7524 17.496 84.1804 17.756C83.6084 17.9987 83.1664 18.354 82.8544 18.822C82.5424 19.29 82.3864 19.8533 82.3864 20.512C82.3864 21.1533 82.5424 21.708 82.8544 22.176C83.1664 22.6267 83.5998 22.9733 84.1544 23.216C84.7264 23.4587 85.3938 23.58 86.1564 23.58ZM104.541 28.312C102.912 28.312 101.473 28.052 100.225 27.532C98.9946 27.012 98.0326 26.258 97.3393 25.27C96.6459 24.2647 96.2993 23.034 96.2993 21.578C96.2993 20.122 96.6459 18.8913 97.3393 17.886C98.0326 16.8633 98.9946 16.092 100.225 15.572C101.473 15.052 102.912 14.792 104.541 14.792C106.171 14.792 107.592 15.052 108.805 15.572C110.036 16.092 110.998 16.8633 111.691 17.886C112.385 18.8913 112.731 20.122 112.731 21.578C112.731 23.034 112.385 24.2647 111.691 25.27C110.998 26.258 110.036 27.012 108.805 27.532C107.592 28.052 106.171 28.312 104.541 28.312ZM104.541 25.712C105.443 25.712 106.249 25.556 106.959 25.244C107.687 24.9147 108.259 24.4467 108.675 23.84C109.091 23.216 109.299 22.462 109.299 21.578C109.299 20.694 109.091 19.94 108.675 19.316C108.259 18.6747 107.696 18.1893 106.985 17.86C106.275 17.5307 105.46 17.366 104.541 17.366C103.64 17.366 102.825 17.5307 102.097 17.86C101.369 18.1893 100.789 18.666 100.355 19.29C99.9393 19.914 99.7313 20.6767 99.7313 21.578C99.7313 22.462 99.9393 23.216 100.355 23.84C100.771 24.4467 101.343 24.9147 102.071 25.244C102.799 25.556 103.623 25.712 104.541 25.712ZM119.104 9.41V12.374H115.178V9.41H119.104ZM115.438 15.078H118.818V28H115.438V15.078ZM131.599 28.312C130.455 28.312 129.476 28.1127 128.661 27.714C127.864 27.298 127.214 26.7607 126.711 26.102C126.208 25.426 125.836 24.6893 125.593 23.892C125.35 23.0947 125.229 22.3147 125.229 21.552C125.229 20.5987 125.342 19.7147 125.567 18.9C125.81 18.0853 126.182 17.3747 126.685 16.768C127.188 16.144 127.838 15.6587 128.635 15.312C129.45 14.9653 130.438 14.792 131.599 14.792C132.899 14.792 134.069 15.078 135.109 15.65C136.149 16.222 136.972 17.0193 137.579 18.042C138.203 19.0473 138.515 20.2173 138.515 21.552C138.515 22.9213 138.203 24.1173 137.579 25.14C136.955 26.1453 136.123 26.9253 135.083 27.48C134.043 28.0347 132.882 28.312 131.599 28.312ZM130.507 25.686C131.426 25.686 132.223 25.5127 132.899 25.166C133.592 24.8193 134.121 24.3427 134.485 23.736C134.866 23.112 135.057 22.384 135.057 21.552C135.057 20.304 134.658 19.2987 133.861 18.536C133.081 17.7733 131.963 17.392 130.507 17.392C129.588 17.392 128.748 17.5567 127.985 17.886C127.24 18.2153 126.65 18.692 126.217 19.316C125.784 19.9227 125.567 20.668 125.567 21.552C125.567 22.384 125.766 23.112 126.165 23.736C126.564 24.3427 127.136 24.8193 127.881 25.166C128.626 25.5127 129.502 25.686 130.507 25.686ZM122.187 15.078H125.411L125.567 18.51V33.2H122.187V15.078ZM140.481 23.71H143.601C143.792 24.2993 144.182 24.7847 144.771 25.166C145.378 25.53 146.167 25.712 147.137 25.712C147.796 25.712 148.307 25.6513 148.671 25.53C149.035 25.4087 149.287 25.2353 149.425 25.01C149.564 24.7673 149.633 24.4987 149.633 24.204C149.633 23.84 149.521 23.5627 149.295 23.372C149.07 23.164 148.723 22.9993 148.255 22.878C147.787 22.7567 147.189 22.644 146.461 22.54C145.733 22.4187 145.031 22.2713 144.355 22.098C143.679 21.9247 143.081 21.6993 142.561 21.422C142.041 21.1273 141.625 20.7633 141.313 20.33C141.019 19.8793 140.871 19.3333 140.871 18.692C140.871 18.068 141.019 17.5133 141.313 17.028C141.625 16.5427 142.05 16.1353 142.587 15.806C143.142 15.4767 143.783 15.2253 144.511 15.052C145.257 14.8787 146.054 14.792 146.903 14.792C148.186 14.792 149.252 14.9827 150.101 15.364C150.951 15.728 151.583 16.248 151.999 16.924C152.433 17.5827 152.649 18.3453 152.649 19.212H149.659C149.521 18.5707 149.243 18.1113 148.827 17.834C148.411 17.5393 147.77 17.392 146.903 17.392C146.054 17.392 145.413 17.522 144.979 17.782C144.546 18.042 144.329 18.3973 144.329 18.848C144.329 19.212 144.459 19.498 144.719 19.706C144.997 19.8967 145.395 20.0527 145.915 20.174C146.453 20.2953 147.12 20.4253 147.917 20.564C148.593 20.7027 149.235 20.8587 149.841 21.032C150.465 21.2053 151.02 21.4307 151.505 21.708C151.991 21.968 152.372 22.3233 152.649 22.774C152.944 23.2073 153.091 23.762 153.091 24.438C153.091 25.27 152.849 25.972 152.363 26.544C151.895 27.116 151.219 27.558 150.335 27.87C149.451 28.1647 148.394 28.312 147.163 28.312C146.071 28.312 145.127 28.1993 144.329 27.974C143.549 27.7313 142.899 27.428 142.379 27.064C141.859 26.6827 141.452 26.284 141.157 25.868C140.88 25.4347 140.689 25.0273 140.585 24.646C140.481 24.2647 140.447 23.9527 140.481 23.71ZM170.627 28H167.247V15.078H170.627V28ZM167.429 21.786L167.455 22.67C167.421 22.9127 167.334 23.268 167.195 23.736C167.057 24.1867 166.84 24.672 166.545 25.192C166.268 25.712 165.904 26.2147 165.453 26.7C165.003 27.168 164.448 27.558 163.789 27.87C163.131 28.1647 162.351 28.312 161.449 28.312C160.739 28.312 160.037 28.2253 159.343 28.052C158.667 27.8787 158.052 27.5927 157.497 27.194C156.943 26.778 156.501 26.2233 156.171 25.53C155.842 24.8367 155.677 23.9613 155.677 22.904V15.078H159.057V22.332C159.057 23.164 159.187 23.8227 159.447 24.308C159.725 24.776 160.123 25.1053 160.643 25.296C161.163 25.4867 161.779 25.582 162.489 25.582C163.425 25.582 164.231 25.3827 164.907 24.984C165.583 24.568 166.129 24.0653 166.545 23.476C166.979 22.8867 167.273 22.3233 167.429 21.786ZM173.705 15.078H177.085V28H173.705V15.078ZM183.091 14.792C183.888 14.792 184.625 14.896 185.301 15.104C185.977 15.312 186.566 15.6327 187.069 16.066C187.571 16.4993 187.961 17.054 188.239 17.73C188.516 18.3887 188.655 19.1773 188.655 20.096V28H185.275V20.694C185.275 19.602 185.006 18.8047 184.469 18.302C183.949 17.782 183.091 17.522 181.895 17.522C180.993 17.522 180.179 17.6953 179.451 18.042C178.723 18.3887 178.133 18.8307 177.683 19.368C177.232 19.888 176.972 20.434 176.903 21.006L176.877 19.68C176.963 19.0733 177.163 18.484 177.475 17.912C177.787 17.34 178.203 16.82 178.723 16.352C179.26 15.8667 179.893 15.4853 180.621 15.208C181.349 14.9307 182.172 14.792 183.091 14.792ZM194.349 14.792C195.146 14.792 195.883 14.896 196.559 15.104C197.235 15.312 197.824 15.6327 198.327 16.066C198.829 16.4993 199.219 17.054 199.497 17.73C199.791 18.3887 199.939 19.1773 199.939 20.096V28H196.559V20.694C196.559 19.602 196.29 18.8047 195.753 18.302C195.215 17.782 194.349 17.522 193.153 17.522C192.251 17.522 191.437 17.6953 190.709 18.042C189.981 18.3887 189.391 18.8307 188.941 19.368C188.49 19.888 188.239 20.434 188.187 21.006L188.135 19.602C188.221 19.03 188.429 18.458 188.759 17.886C189.088 17.314 189.521 16.794 190.059 16.326C190.596 15.858 191.22 15.4853 191.931 15.208C192.659 14.9307 193.465 14.792 194.349 14.792Z" fill="#FCFCFC" fill-opacity="0.6"/>
</g>
<defs>
<clipPath id="clip0_6759_5523">
<rect width="201" height="39" fill="white" transform="translate(0.5)"/>
</clipPath>
<clipPath id="clip1_6759_5523">
<rect width="32" height="32" fill="white" transform="translate(0.5 3.5)"/>
</clipPath>
</defs>
</svg>
