<svg width="123" height="39" viewBox="0 0 123 39" fill="none" xmlns="http://www.w3.org/2000/svg">
<path d="M14.6771 3.5C6.83797 4.0995 0.58298 10.5318 0 18.5931C9.97933 16.987 13.1154 13.7621 14.6771 3.5Z" fill="#1A1A1C" fill-opacity="0.4"/>
<path d="M31.9999 18.5931C31.4169 10.5319 25.1618 4.09963 17.3227 3.5C18.8844 13.7621 22.0204 16.987 31.9999 18.5931Z" fill="#1A1A1C" fill-opacity="0.4"/>
<path d="M0 20.4069C0.58298 28.4681 6.8381 34.9004 14.6772 35.5C13.1154 25.2377 9.97933 22.0128 0 20.4069Z" fill="#1A1A1C" fill-opacity="0.4"/>
<path d="M17.3228 35.5C25.1619 34.9005 31.4169 28.4681 32 20.4069C22.0205 22.0128 18.8845 25.2377 17.3228 35.5Z" fill="#1A1A1C" fill-opacity="0.4"/>
<path d="M51.204 19.81L51.178 18.354L62.514 28H57.522L47.434 19.16L56.404 11.178H61.318L51.204 19.81ZM44.002 11.178H47.46V28H44.002V11.178ZM74.7364 23.71H78.0124C77.8738 24.594 77.5011 25.3827 76.8944 26.076C76.3051 26.7693 75.4991 27.3153 74.4764 27.714C73.4538 28.1127 72.2058 28.312 70.7324 28.312C69.0858 28.312 67.6298 28.052 66.3644 27.532C65.0991 26.9947 64.1111 26.2233 63.4004 25.218C62.6898 24.2127 62.3344 22.9993 62.3344 21.578C62.3344 20.1567 62.6811 18.9433 63.3744 17.938C64.0678 16.9153 65.0298 16.1353 66.2604 15.598C67.5084 15.0607 68.9644 14.792 70.6284 14.792C72.3271 14.792 73.7398 15.0607 74.8664 15.598C75.9931 16.1353 76.8251 16.95 77.3624 18.042C77.9171 19.1167 78.1511 20.4947 78.0644 22.176H65.7404C65.8271 22.8347 66.0698 23.4327 66.4684 23.97C66.8844 24.5073 67.4391 24.932 68.1324 25.244C68.8431 25.556 69.6838 25.712 70.6544 25.712C71.7291 25.712 72.6218 25.53 73.3324 25.166C74.0604 24.7847 74.5284 24.2993 74.7364 23.71ZM70.4724 17.366C69.2244 17.366 68.2104 17.6433 67.4304 18.198C66.6504 18.7353 66.1478 19.4027 65.9224 20.2H74.7104C74.6238 19.3333 74.2078 18.6487 73.4624 18.146C72.7344 17.626 71.7378 17.366 70.4724 17.366ZM80.5795 15.078H83.9595V28H80.5795V15.078ZM89.9655 14.792C90.7629 14.792 91.4995 14.896 92.1755 15.104C92.8515 15.312 93.4409 15.6327 93.9435 16.066C94.4462 16.4993 94.8362 17.054 95.1135 17.73C95.3909 18.3887 95.5295 19.1773 95.5295 20.096V28H92.1495V20.694C92.1495 19.602 91.8809 18.8047 91.3435 18.302C90.8235 17.782 89.9655 17.522 88.7695 17.522C87.8682 17.522 87.0535 17.6953 86.3255 18.042C85.5975 18.3887 85.0082 18.8307 84.5575 19.368C84.1069 19.888 83.8469 20.434 83.7775 21.006L83.7515 19.68C83.8382 19.0733 84.0375 18.484 84.3495 17.912C84.6615 17.34 85.0775 16.82 85.5975 16.352C86.1349 15.8667 86.7675 15.4853 87.4955 15.208C88.2235 14.9307 89.0469 14.792 89.9655 14.792ZM102.481 9.41V12.374H98.5549V9.41H102.481ZM98.8149 15.078H102.195V28H98.8149V15.078ZM113.182 28.312C111.553 28.312 110.114 28.052 108.866 27.532C107.635 27.012 106.673 26.258 105.98 25.27C105.287 24.2647 104.94 23.034 104.94 21.578C104.94 20.122 105.287 18.8913 105.98 17.886C106.673 16.8633 107.635 16.092 108.866 15.572C110.114 15.052 111.553 14.792 113.182 14.792C114.811 14.792 116.233 15.052 117.446 15.572C118.677 16.092 119.639 16.8633 120.332 17.886C121.025 18.8913 121.372 20.122 121.372 21.578C121.372 23.034 121.025 24.2647 120.332 25.27C119.639 26.258 118.677 27.012 117.446 27.532C116.233 28.052 114.811 28.312 113.182 28.312ZM113.182 25.712C114.083 25.712 114.889 25.556 115.6 25.244C116.328 24.9147 116.9 24.4467 117.316 23.84C117.732 23.216 117.94 22.462 117.94 21.578C117.94 20.694 117.732 19.94 117.316 19.316C116.9 18.6747 116.337 18.1893 115.626 17.86C114.915 17.5307 114.101 17.366 113.182 17.366C112.281 17.366 111.466 17.5307 110.738 17.86C110.01 18.1893 109.429 18.666 108.996 19.29C108.58 19.914 108.372 20.6767 108.372 21.578C108.372 22.462 108.58 23.216 108.996 23.84C109.412 24.4467 109.984 24.9147 110.712 25.244C111.44 25.556 112.263 25.712 113.182 25.712Z" fill="#1A1A1C" fill-opacity="0.4"/>
</svg>
