<svg width="160" height="45" viewBox="0 0 160 45" fill="none" xmlns="http://www.w3.org/2000/svg">
<path d="M32.1686 9.94234C29.7466 8.79129 27.1494 7.94325 24.4338 7.45754C24.3844 7.44817 24.335 7.4716 24.3095 7.51845C23.9755 8.13378 23.6055 8.93653 23.3464 9.56749C20.4256 9.11459 17.5199 9.11459 14.659 9.56749C14.3999 8.92251 14.0164 8.13378 13.6809 7.51845C13.6554 7.47316 13.606 7.44973 13.5566 7.45754C10.8425 7.9417 8.2453 8.78974 5.82181 9.94234C5.80083 9.95171 5.78285 9.96734 5.77092 9.98763C0.844537 17.6107 -0.505005 25.0464 0.157035 32.3899C0.160031 32.4258 0.179502 32.4602 0.206464 32.482C3.45675 34.9543 6.6052 36.4552 9.69519 37.45C9.74465 37.4657 9.79704 37.4469 9.82851 37.4047C10.5595 36.3709 11.211 35.2808 11.7697 34.1344C11.8026 34.0672 11.7712 33.9876 11.7038 33.961C10.6703 33.555 9.6862 33.0599 8.73957 32.4977C8.6647 32.4524 8.6587 32.3414 8.72758 32.2883C8.92679 32.1337 9.12605 31.9729 9.31626 31.8104C9.35068 31.7808 9.39863 31.7745 9.43909 31.7932C15.658 34.7341 22.3908 34.7341 28.5363 31.7932C28.5768 31.773 28.6248 31.7792 28.6607 31.8089C28.8509 31.9713 29.0501 32.1337 29.2508 32.2883C29.3197 32.3414 29.3152 32.4524 29.2404 32.4977C28.2937 33.0708 27.3096 33.555 26.2746 33.9595C26.2073 33.986 26.1773 34.0672 26.2103 34.1344C26.7809 35.2792 27.4325 36.3693 28.1499 37.4032C28.1799 37.4469 28.2338 37.4657 28.2832 37.45C31.3882 36.4552 34.5366 34.9543 37.7869 32.482C37.8154 32.4602 37.8334 32.4274 37.8364 32.3914C38.6287 23.9015 36.5093 16.5268 32.218 9.98918C32.2075 9.96734 32.1896 9.95171 32.1686 9.94234ZM12.6984 27.9185C10.826 27.9185 9.28329 26.1381 9.28329 23.9515C9.28329 21.765 10.7961 19.9846 12.6984 19.9846C14.6155 19.9846 16.1434 21.7807 16.1134 23.9515C16.1134 26.1381 14.6006 27.9185 12.6984 27.9185ZM25.325 27.9185C23.4527 27.9185 21.91 26.1381 21.91 23.9515C21.91 21.765 23.4228 19.9846 25.325 19.9846C27.2423 19.9846 28.77 21.7807 28.7401 23.9515C28.7401 26.1381 27.2423 27.9185 25.325 27.9185Z" fill="#5865F2"/>
<path d="M46 14.3273H55.1535C57.3601 14.3273 59.2242 14.68 60.7535 15.3821C62.2788 16.0841 63.4224 17.0636 64.1803 18.317C64.9377 19.5704 65.3198 21.0053 65.3198 22.6218C65.3198 24.204 64.9242 25.6389 64.133 26.9231C63.3417 28.2108 62.1379 29.228 60.5186 29.9779C58.8993 30.7279 56.8937 31.1046 54.4966 31.1046H46V14.3273ZM54.4025 26.841C55.888 26.841 57.0317 26.4608 57.8293 25.704C58.6276 24.9437 59.0267 23.9095 59.0267 22.5978C59.0267 21.382 58.6708 20.4128 57.9602 19.6868C57.2496 18.9608 56.1732 18.5944 54.7345 18.5944H51.871V26.841H54.4025Z" fill="#23272A"/>
<path d="M79.0238 31.0842C77.7563 30.7486 76.6127 30.2623 75.5971 29.6218V25.6424C76.3649 26.2485 77.394 26.7486 78.6849 27.1424C79.9758 27.5328 81.2234 27.728 82.4302 27.728C82.9935 27.728 83.4195 27.6527 83.7076 27.502C83.9963 27.3513 84.1406 27.1698 84.1406 26.9609C84.1406 26.7212 84.0635 26.5226 83.9057 26.3616C83.7479 26.2006 83.4429 26.067 82.9906 25.954L80.1739 25.3068C78.561 24.9232 77.4174 24.3924 76.7372 23.7109C76.0564 23.0328 75.7175 22.1424 75.7175 21.0397C75.7175 20.1116 76.0126 19.3068 76.6098 18.6184C77.2029 17.9301 78.0479 17.3992 79.1442 17.0259C80.2411 16.6493 81.5215 16.4609 82.9935 16.4609C84.3078 16.4609 85.5116 16.6047 86.6085 16.8924C87.7047 17.1801 88.6099 17.5465 89.3311 17.9951V21.7588C88.593 21.3102 87.748 20.9575 86.7826 20.6903C85.8201 20.4267 84.8314 20.2965 83.8116 20.2965C82.3396 20.2965 81.6056 20.5533 81.6056 21.0636C81.6056 21.3034 81.7196 21.4814 81.9475 21.6013C82.1754 21.7212 82.5944 21.8445 83.2016 21.9746L85.5484 22.4061C87.0812 22.6767 88.2243 23.1527 88.9752 23.8308C89.7267 24.5089 90.1019 25.5123 90.1019 26.841C90.1019 28.2965 89.4818 29.4506 88.2377 30.3068C86.9936 31.163 85.2299 31.591 82.9433 31.591C81.5986 31.5876 80.2914 31.4198 79.0238 31.0842Z" fill="#23272A"/>
<path d="M95.6421 30.5806C94.298 29.9093 93.2818 28.9984 92.6045 27.8477C91.9272 26.697 91.5854 25.4025 91.5854 23.9641C91.5854 22.5258 91.9372 21.2381 92.6413 20.1046C93.3455 18.971 94.3781 18.0806 95.7397 17.4333C97.1007 16.7861 98.727 16.4641 100.622 16.4641C102.968 16.4641 104.917 16.9676 106.466 17.9744V22.3614C105.919 21.9778 105.282 21.6662 104.554 21.4265C103.827 21.1868 103.049 21.0669 102.217 21.0669C100.762 21.0669 99.6258 21.3374 98.8041 21.8819C97.9825 22.4265 97.5705 23.1354 97.5705 24.0155C97.5705 24.8785 97.9691 25.584 98.7673 26.1388C99.5656 26.6902 100.722 26.9676 102.241 26.9676C103.022 26.9676 103.794 26.8511 104.554 26.6217C105.312 26.3888 105.966 26.1046 106.513 25.7689V30.0121C104.793 31.0669 102.798 31.5942 100.527 31.5942C98.6166 31.5874 96.9867 31.2518 95.6421 30.5806Z" fill="#23272A"/>
<path d="M112.32 30.5808C110.965 29.9096 109.933 28.9918 109.222 27.824C108.511 26.6562 108.152 25.3548 108.152 23.9165C108.152 22.4781 108.508 21.1939 109.222 20.0672C109.936 18.9404 110.962 18.0569 112.31 17.4165C113.654 16.776 115.261 16.4576 117.121 16.4576C118.982 16.4576 120.588 16.776 121.933 17.4165C123.278 18.0569 124.304 18.9336 125.008 20.0534C125.712 21.1733 126.064 22.4576 126.064 23.9131C126.064 25.3514 125.712 26.6528 125.008 27.8205C124.304 28.9884 123.274 29.9062 121.92 30.5774C120.565 31.2487 118.966 31.5843 117.118 31.5843C115.271 31.5843 113.671 31.2521 112.32 30.5808ZM119.452 26.3274C120.022 25.7453 120.31 24.9747 120.31 24.0158C120.31 23.0569 120.025 22.2932 119.452 21.7281C118.882 21.1596 118.104 20.8754 117.118 20.8754C116.116 20.8754 115.331 21.1596 114.757 21.7281C114.188 22.2966 113.902 23.0569 113.902 24.0158C113.902 24.9747 114.188 25.7453 114.757 26.3274C115.328 26.9096 116.116 27.2041 117.118 27.2041C118.104 27.2007 118.882 26.9096 119.452 26.3274Z" fill="#23272A"/>
<path d="M140.167 17.3479V22.526C139.57 22.1253 138.799 21.9267 137.843 21.9267C136.592 21.9267 135.627 22.3137 134.956 23.0877C134.282 23.8617 133.946 25.0671 133.946 26.6972V31.1082H128.196V17.0843H133.83V21.5432C134.141 19.913 134.648 18.711 135.345 17.9335C136.039 17.1596 136.937 16.7726 138.031 16.7726C138.859 16.7726 139.57 16.9644 140.167 17.3479Z" fill="#23272A"/>
<path d="M159.272 13.8478V31.1081H153.522V27.9677C153.035 29.1492 152.298 30.0499 151.306 30.6663C150.313 31.2793 149.086 31.5875 147.63 31.5875C146.33 31.5875 145.197 31.2656 144.227 30.6184C143.258 29.9711 142.511 29.0841 141.984 27.9574C141.461 26.8307 141.196 25.5567 141.196 24.1321C141.18 22.6629 141.458 21.3444 142.031 20.1766C142.601 19.0088 143.409 18.0978 144.449 17.4437C145.488 16.7896 146.675 16.4608 148.006 16.4608C150.746 16.4608 152.583 17.6766 153.522 20.1046V13.8478H159.272ZM152.664 26.2314C153.25 25.6492 153.542 24.8924 153.542 23.9677C153.542 23.0738 153.257 22.3444 152.687 21.7862C152.117 21.228 151.335 20.9471 150.353 20.9471C149.384 20.9471 148.61 21.2314 148.03 21.7998C147.449 22.3684 147.161 23.1046 147.161 24.0156C147.161 24.9266 147.449 25.6698 148.03 26.2451C148.61 26.8204 149.374 27.1081 150.33 27.1081C151.299 27.1047 152.076 26.8135 152.664 26.2314Z" fill="#23272A"/>
<path d="M70.1657 18.5771C71.7487 18.5771 73.0326 17.3995 73.0326 15.9469C73.0326 14.4943 71.7487 13.3168 70.1657 13.3168C68.582 13.3168 67.2987 14.4943 67.2987 15.9469C67.2987 17.3995 68.582 18.5771 70.1657 18.5771Z" fill="#23272A"/>
<path d="M67.2962 20.3889C69.0529 21.1628 71.2326 21.1971 73.0295 20.3889V31.1834H67.2962V20.3889Z" fill="#23272A"/>
</svg>
