<svg width="160" height="45" viewBox="0 0 160 45" fill="none" xmlns="http://www.w3.org/2000/svg">
<path d="M32.1686 9.9424C29.7466 8.79135 27.1494 7.94331 24.4338 7.4576C24.3844 7.44823 24.335 7.47166 24.3095 7.51851C23.9755 8.13384 23.6055 8.93659 23.3464 9.56755C20.4256 9.11465 17.5199 9.11465 14.659 9.56755C14.3999 8.92257 14.0164 8.13384 13.6809 7.51851C13.6554 7.47322 13.606 7.44979 13.5566 7.4576C10.8425 7.94176 8.2453 8.7898 5.82181 9.9424C5.80083 9.95177 5.78285 9.9674 5.77092 9.98769C0.844537 17.6108 -0.505005 25.0464 0.157035 32.39C0.160031 32.4259 0.179502 32.4602 0.206464 32.4821C3.45675 34.9544 6.6052 36.4553 9.69519 37.4501C9.74465 37.4657 9.79704 37.447 9.82851 37.4048C10.5595 36.3709 11.211 35.2808 11.7697 34.1344C11.8026 34.0673 11.7712 33.9876 11.7038 33.9611C10.6703 33.555 9.6862 33.0599 8.73957 32.4977C8.6647 32.4524 8.6587 32.3415 8.72758 32.2884C8.92679 32.1338 9.12605 31.9729 9.31626 31.8105C9.35068 31.7808 9.39863 31.7746 9.43909 31.7933C15.658 34.7342 22.3908 34.7342 28.5363 31.7933C28.5768 31.773 28.6248 31.7793 28.6607 31.8089C28.8509 31.9714 29.0501 32.1338 29.2508 32.2884C29.3197 32.3415 29.3152 32.4524 29.2404 32.4977C28.2937 33.0709 27.3096 33.555 26.2746 33.9595C26.2073 33.9861 26.1773 34.0673 26.2103 34.1344C26.7809 35.2792 27.4325 36.3693 28.1499 37.4033C28.1799 37.447 28.2338 37.4657 28.2832 37.4501C31.3882 36.4553 34.5366 34.9544 37.7869 32.4821C37.8154 32.4602 37.8334 32.4274 37.8364 32.3915C38.6287 23.9016 36.5093 16.5269 32.218 9.98924C32.2075 9.9674 32.1896 9.95177 32.1686 9.9424ZM12.6984 27.9185C10.826 27.9185 9.28329 26.1381 9.28329 23.9516C9.28329 21.7651 10.7961 19.9847 12.6984 19.9847C14.6155 19.9847 16.1434 21.7807 16.1134 23.9516C16.1134 26.1381 14.6006 27.9185 12.6984 27.9185ZM25.325 27.9185C23.4527 27.9185 21.91 26.1381 21.91 23.9516C21.91 21.7651 23.4228 19.9847 25.325 19.9847C27.2423 19.9847 28.77 21.7807 28.7401 23.9516C28.7401 26.1381 27.2423 27.9185 25.325 27.9185Z" fill="#5865F2"/>
<path d="M46 14.3274H55.1535C57.3601 14.3274 59.2242 14.6801 60.7535 15.3822C62.2788 16.0842 63.4224 17.0637 64.1803 18.3171C64.9377 19.5705 65.3198 21.0054 65.3198 22.6219C65.3198 24.2041 64.9242 25.639 64.133 26.9232C63.3417 28.2109 62.1379 29.2281 60.5186 29.978C58.8993 30.728 56.8937 31.1047 54.4966 31.1047H46V14.3274ZM54.4025 26.8411C55.888 26.8411 57.0317 26.4609 57.8293 25.704C58.6276 24.9438 59.0267 23.9095 59.0267 22.5979C59.0267 21.3821 58.6708 20.4129 57.9602 19.6869C57.2496 18.9609 56.1732 18.5945 54.7345 18.5945H51.871V26.8411H54.4025Z" fill="white"/>
<path d="M79.0238 31.0843C77.7563 30.7487 76.6127 30.2624 75.5971 29.6219V25.6425C76.3649 26.2486 77.394 26.7487 78.6849 27.1425C79.9758 27.5329 81.2234 27.7281 82.4302 27.7281C82.9935 27.7281 83.4195 27.6528 83.7076 27.5021C83.9963 27.3514 84.1406 27.1699 84.1406 26.961C84.1406 26.7213 84.0635 26.5226 83.9057 26.3617C83.7479 26.2007 83.4429 26.0671 82.9906 25.9541L80.1739 25.3069C78.561 24.9233 77.4174 24.3925 76.7372 23.711C76.0564 23.0329 75.7175 22.1425 75.7175 21.0398C75.7175 20.1116 76.0126 19.3069 76.6098 18.6185C77.2029 17.9302 78.0479 17.3993 79.1442 17.026C80.2411 16.6493 81.5215 16.461 82.9935 16.461C84.3078 16.461 85.5116 16.6048 86.6085 16.8925C87.7047 17.1802 88.6099 17.5466 89.3311 17.9952V21.7589C88.593 21.3103 87.748 20.9576 86.7826 20.6904C85.8201 20.4267 84.8314 20.2966 83.8116 20.2966C82.3396 20.2966 81.6056 20.5534 81.6056 21.0637C81.6056 21.3035 81.7196 21.4815 81.9475 21.6014C82.1754 21.7212 82.5944 21.8446 83.2016 21.9747L85.5484 22.4062C87.0812 22.6768 88.2243 23.1528 88.9752 23.8308C89.7267 24.509 90.1019 25.5124 90.1019 26.8411C90.1019 28.2966 89.4818 29.4507 88.2377 30.3069C86.9936 31.1631 85.2299 31.5911 82.9433 31.5911C81.5986 31.5877 80.2914 31.4199 79.0238 31.0843Z" fill="white"/>
<path d="M95.6421 30.5807C94.298 29.9094 93.2818 28.9985 92.6045 27.8478C91.9272 26.6971 91.5854 25.4026 91.5854 23.9642C91.5854 22.5259 91.9372 21.2382 92.6413 20.1047C93.3455 18.9711 94.3781 18.0807 95.7397 17.4334C97.1007 16.7862 98.727 16.4642 100.622 16.4642C102.968 16.4642 104.917 16.9677 106.466 17.9745V22.3615C105.919 21.9779 105.282 21.6663 104.554 21.4266C103.827 21.1869 103.049 21.0669 102.217 21.0669C100.762 21.0669 99.6258 21.3375 98.8041 21.882C97.9825 22.4266 97.5705 23.1355 97.5705 24.0156C97.5705 24.8786 97.9691 25.5841 98.7673 26.1389C99.5656 26.6903 100.722 26.9677 102.241 26.9677C103.022 26.9677 103.794 26.8512 104.554 26.6218C105.312 26.3889 105.966 26.1047 106.513 25.769V30.0121C104.793 31.0669 102.798 31.5943 100.527 31.5943C98.6166 31.5875 96.9867 31.2519 95.6421 30.5807Z" fill="white"/>
<path d="M112.32 30.5809C110.965 29.9097 109.933 28.9919 109.222 27.8241C108.511 26.6563 108.152 25.3549 108.152 23.9165C108.152 22.4782 108.508 21.1939 109.222 20.0673C109.936 18.9405 110.962 18.057 112.31 17.4165C113.654 16.7761 115.261 16.4576 117.121 16.4576C118.982 16.4576 120.588 16.7761 121.933 17.4165C123.278 18.057 124.304 18.9337 125.008 20.0535C125.712 21.1734 126.064 22.4577 126.064 23.9132C126.064 25.3515 125.712 26.6529 125.008 27.8206C124.304 28.9885 123.274 29.9063 121.92 30.5775C120.565 31.2488 118.966 31.5844 117.118 31.5844C115.271 31.5844 113.671 31.2521 112.32 30.5809ZM119.452 26.3275C120.022 25.7453 120.31 24.9748 120.31 24.0159C120.31 23.057 120.025 22.2933 119.452 21.7282C118.882 21.1597 118.104 20.8755 117.118 20.8755C116.116 20.8755 115.331 21.1597 114.757 21.7282C114.188 22.2967 113.902 23.057 113.902 24.0159C113.902 24.9748 114.188 25.7453 114.757 26.3275C115.328 26.9097 116.116 27.2042 117.118 27.2042C118.104 27.2008 118.882 26.9097 119.452 26.3275Z" fill="white"/>
<path d="M140.167 17.348V22.5261C139.57 22.1254 138.799 21.9268 137.843 21.9268C136.592 21.9268 135.627 22.3138 134.956 23.0877C134.282 23.8618 133.946 25.0672 133.946 26.6973V31.1083H128.196V17.0844H133.83V21.5432C134.141 19.9131 134.648 18.7111 135.345 17.9336C136.039 17.1597 136.937 16.7727 138.031 16.7727C138.859 16.7727 139.57 16.9645 140.167 17.348Z" fill="white"/>
<path d="M159.272 13.8479V31.1082H153.522V27.9678C153.035 29.1493 152.298 30.05 151.306 30.6664C150.313 31.2794 149.086 31.5876 147.63 31.5876C146.33 31.5876 145.197 31.2657 144.227 30.6184C143.258 29.9712 142.511 29.0842 141.984 27.9575C141.461 26.8308 141.196 25.5568 141.196 24.1322C141.18 22.663 141.458 21.3445 142.031 20.1767C142.601 19.0088 143.409 18.0979 144.449 17.4438C145.488 16.7897 146.675 16.4609 148.006 16.4609C150.746 16.4609 152.583 17.6766 153.522 20.1047V13.8479H159.272ZM152.664 26.2315C153.25 25.6493 153.542 24.8924 153.542 23.9678C153.542 23.0739 153.257 22.3445 152.687 21.7863C152.117 21.2281 151.335 20.9472 150.353 20.9472C149.384 20.9472 148.61 21.2315 148.03 21.7999C147.449 22.3685 147.161 23.1047 147.161 24.0157C147.161 24.9267 147.449 25.6698 148.03 26.2452C148.61 26.8205 149.374 27.1082 150.33 27.1082C151.299 27.1048 152.076 26.8136 152.664 26.2315Z" fill="white"/>
<path d="M70.1657 18.5771C71.7487 18.5771 73.0326 17.3996 73.0326 15.947C73.0326 14.4944 71.7487 13.3169 70.1657 13.3169C68.582 13.3169 67.2987 14.4944 67.2987 15.947C67.2987 17.3996 68.582 18.5771 70.1657 18.5771Z" fill="white"/>
<path d="M67.2962 20.389C69.0529 21.1629 71.2326 21.1972 73.0295 20.389V31.1835H67.2962V20.389Z" fill="white"/>
</svg>
