<svg width="164" height="45" viewBox="0 0 164 45" fill="none" xmlns="http://www.w3.org/2000/svg">
<g clip-path="url(#clip0_4451_4511)">
<path d="M19.11 12.4688L9.68392 18.482L19.11 24.4952L9.68392 30.5084L0.257812 24.4627L9.68392 18.4495L0.257812 12.4688L9.68392 6.45557L19.11 12.4688ZM9.63516 32.4424L19.0613 26.4292L28.4874 32.4424L19.0613 38.4556L9.63516 32.4424ZM19.11 24.4627L28.5361 18.4495L19.11 12.4688L28.4874 6.45557L37.9135 12.4688L28.4874 18.482L37.9135 24.4952L28.4874 30.5084L19.11 24.4627Z" fill="#0061FF"/>
<path d="M45.9141 10.4535H53.5362C58.3955 10.4535 62.4097 13.2651 62.4097 19.6846V21.0335C62.4097 27.5018 58.6556 30.4109 53.6825 30.4109H45.9141V10.4535ZM50.1721 14.0777V26.7704H53.4387C56.2015 26.7704 58.0542 24.9665 58.0542 20.9523V19.8959C58.0542 15.8817 56.104 14.0777 53.2924 14.0777H50.1721ZM64.6688 14.2727H68.0817L68.6342 18.0269C69.2843 15.4754 70.942 14.1102 73.9486 14.1102H75.005V18.417H73.2498C69.7881 18.417 68.943 19.6196 68.943 23.0325V30.4596H64.7338V14.2727H64.6688ZM75.8501 22.6912V22.2362C75.8501 16.8243 79.3117 13.8664 84.0248 13.8664C88.8353 13.8664 92.1995 16.8243 92.1995 22.2362V22.6912C92.1995 28.0056 88.9329 30.8659 84.0248 30.8659C78.8079 30.8172 75.8501 28.0218 75.8501 22.6912ZM87.8927 22.6425V22.2362C87.8927 19.2296 86.3813 17.4256 83.976 17.4256C81.6195 17.4256 80.0593 19.0833 80.0593 22.2362V22.6425C80.0593 25.5515 81.5707 27.2092 83.976 27.2092C86.3813 27.1605 87.8927 25.5515 87.8927 22.6425ZM94.4097 14.2727H97.9202L98.3265 17.3281C99.1716 15.2803 100.976 13.8664 103.641 13.8664C107.753 13.8664 110.467 16.8243 110.467 22.3012V22.7562C110.467 28.0706 107.46 30.8822 103.641 30.8822C101.089 30.8822 99.3341 29.7283 98.4727 27.8756V36.0503H94.361L94.4097 14.2727ZM106.192 22.6425V22.2849C106.192 19.067 104.535 17.4743 102.324 17.4743C99.9679 17.4743 98.4077 19.2783 98.4077 22.2849V22.5937C98.4077 25.454 99.9191 27.258 102.276 27.258C104.697 27.2092 106.192 25.6653 106.192 22.6425ZM116.691 27.4693L116.334 30.4271H112.726V8.86084H116.837V17.1331C117.747 15.0203 119.551 13.8664 122.103 13.8664C125.971 13.9152 128.831 16.5805 128.831 21.9436V22.4474C128.831 27.8106 126.117 30.8822 122.005 30.8822C119.291 30.8172 117.536 29.5658 116.691 27.4693ZM124.508 22.4474V22.0411C124.508 19.0833 122.899 17.4256 120.64 17.4256C118.333 17.4256 116.724 19.2783 116.724 22.0899V22.4474C116.724 25.454 118.284 27.2092 120.592 27.2092C123.062 27.2092 124.508 25.6653 124.508 22.4474ZM130.635 22.6912V22.2362C130.635 16.8243 134.097 13.8664 138.81 13.8664C143.621 13.8664 146.985 16.8243 146.985 22.2362V22.6912C146.985 28.0056 143.669 30.8659 138.81 30.8659C133.593 30.8172 130.635 28.0218 130.635 22.6912ZM142.71 22.6425V22.2362C142.71 19.2296 141.199 17.4256 138.794 17.4256C136.437 17.4256 134.877 19.0833 134.877 22.2362V22.6425C134.877 25.5515 136.388 27.2092 138.794 27.2092C141.215 27.1605 142.71 25.5515 142.71 22.6425ZM152.494 22.0411L146.822 14.2727H151.681L154.948 19.132L158.263 14.2727H163.074L157.321 21.9924L163.383 30.4271H158.621L154.916 25.064L151.308 30.4271H146.335L152.494 22.0411Z" fill="white"/>
</g>
<defs>
<clipPath id="clip0_4451_4511">
<rect width="163.643" height="44.911" fill="white"/>
</clipPath>
</defs>
</svg>
