<svg width="164" height="45" viewBox="0 0 164 45" fill="none" xmlns="http://www.w3.org/2000/svg">
<g clip-path="url(#clip0_3926_6815)">
<path d="M19.111 12.4687L9.68489 18.4819L19.111 24.4951L9.68489 30.5083L0.258789 24.4626L9.68489 18.4494L0.258789 12.4687L9.68489 6.45551L19.111 12.4687ZM9.63614 32.4423L19.0622 26.4291L28.4883 32.4423L19.0622 38.4555L9.63614 32.4423ZM19.111 24.4626L28.5371 18.4494L19.111 12.4687L28.4883 6.45551L37.9145 12.4687L28.4883 18.4819L37.9145 24.4951L28.4883 30.5083L19.111 24.4626Z" fill="#0061FF"/>
<path d="M45.9141 10.4535H53.5362C58.3955 10.4535 62.4097 13.265 62.4097 19.6845V21.0335C62.4097 27.5017 58.6556 30.4108 53.6825 30.4108H45.9141V10.4535ZM50.1721 14.0776V26.7704H53.4387C56.2015 26.7704 58.0542 24.9664 58.0542 20.9522V19.8958C58.0542 15.8816 56.104 14.0776 53.2924 14.0776H50.1721ZM64.6688 14.2727H68.0817L68.6342 18.0269C69.2843 15.4753 70.942 14.1101 73.9486 14.1101H75.005V18.4169H73.2498C69.7881 18.4169 68.943 19.6195 68.943 23.0324V30.4596H64.7338V14.2727H64.6688ZM75.8501 22.6911V22.2361C75.8501 16.8242 79.3117 13.8664 84.0248 13.8664C88.8353 13.8664 92.1995 16.8242 92.1995 22.2361V22.6911C92.1995 28.0055 88.9329 30.8659 84.0248 30.8659C78.8079 30.8171 75.8501 28.0218 75.8501 22.6911ZM87.8927 22.6424V22.2361C87.8927 19.2295 86.3813 17.4255 83.976 17.4255C81.6195 17.4255 80.0593 19.0832 80.0593 22.2361V22.6424C80.0593 25.5515 81.5707 27.2092 83.976 27.2092C86.3813 27.1604 87.8927 25.5515 87.8927 22.6424ZM94.4097 14.2727H97.9202L98.3265 17.328C99.1716 15.2803 100.976 13.8664 103.641 13.8664C107.753 13.8664 110.467 16.8242 110.467 22.3011V22.7562C110.467 28.0705 107.46 30.8821 103.641 30.8821C101.089 30.8821 99.3341 29.7282 98.4727 27.8755V36.0502H94.361L94.4097 14.2727ZM106.192 22.6424V22.2849C106.192 19.067 104.535 17.4743 102.324 17.4743C99.9679 17.4743 98.4077 19.2782 98.4077 22.2849V22.5936C98.4077 25.454 99.9191 27.2579 102.276 27.2579C104.697 27.2092 106.192 25.6652 106.192 22.6424ZM116.691 27.4692L116.334 30.4271H112.726V8.86078H116.837V17.133C117.747 15.0203 119.551 13.8664 122.103 13.8664C125.971 13.9151 128.831 16.5804 128.831 21.9436V22.4474C128.831 27.8105 126.117 30.8821 122.005 30.8821C119.291 30.8171 117.536 29.5657 116.691 27.4692ZM124.508 22.4474V22.0411C124.508 19.0832 122.899 17.4255 120.64 17.4255C118.333 17.4255 116.724 19.2782 116.724 22.0898V22.4474C116.724 25.454 118.284 27.2092 120.592 27.2092C123.062 27.2092 124.508 25.6652 124.508 22.4474ZM130.635 22.6911V22.2361C130.635 16.8242 134.097 13.8664 138.81 13.8664C143.621 13.8664 146.985 16.8242 146.985 22.2361V22.6911C146.985 28.0055 143.669 30.8659 138.81 30.8659C133.593 30.8171 130.635 28.0218 130.635 22.6911ZM142.71 22.6424V22.2361C142.71 19.2295 141.199 17.4255 138.794 17.4255C136.437 17.4255 134.877 19.0832 134.877 22.2361V22.6424C134.877 25.5515 136.388 27.2092 138.794 27.2092C141.215 27.1604 142.71 25.5515 142.71 22.6424ZM152.494 22.0411L146.822 14.2727H151.681L154.948 19.132L158.263 14.2727H163.074L157.321 21.9923L163.383 30.4271H158.621L154.916 25.0639L151.308 30.4271H146.335L152.494 22.0411Z" fill="black"/>
</g>
<defs>
<clipPath id="clip0_3926_6815">
<rect width="163.643" height="44.911" fill="white"/>
</clipPath>
</defs>
</svg>
