<svg width="165" height="45" viewBox="0 0 165 45" fill="none" xmlns="http://www.w3.org/2000/svg">
<g clip-path="url(#clip0_3615_3640)">
<path d="M19.6061 12.4683L10.18 18.4815L19.6061 24.4947L10.18 30.5079L0.753906 24.4622L10.18 18.449L0.753906 12.4683L10.18 6.45508L19.6061 12.4683ZM10.1313 32.4419L19.5574 26.4287L28.9835 32.4419L19.5574 38.4551L10.1313 32.4419ZM19.6061 24.4622L29.0322 18.449L19.6061 12.4683L28.9835 6.45508L38.4096 12.4683L28.9835 18.4815L38.4096 24.4947L28.9835 30.5079L19.6061 24.4622Z" fill="#1A1A1C" fill-opacity="0.4"/>
<path d="M46.4102 10.454H54.0323C58.8916 10.454 62.9058 13.2656 62.9058 19.6851V21.034C62.9058 27.5023 59.1516 30.4114 54.1786 30.4114H46.4102V10.454ZM50.6682 14.0782V26.7709H53.9348C56.6976 26.7709 58.5503 24.967 58.5503 20.9527V19.8964C58.5503 15.8821 56.6001 14.0782 53.7885 14.0782H50.6682ZM65.1649 14.2732H68.5778L69.1303 18.0274C69.7804 15.4759 71.4381 14.1107 74.4447 14.1107H75.5011V18.4174H73.7459C70.2842 18.4174 69.4391 19.6201 69.4391 23.033V30.4601H65.2299V14.2732H65.1649ZM76.3462 22.6917V22.2366C76.3462 16.8248 79.8078 13.8669 84.5209 13.8669C89.3314 13.8669 92.6956 16.8248 92.6956 22.2366V22.6917C92.6956 28.0061 89.429 30.8664 84.5209 30.8664C79.304 30.8176 76.3462 28.0223 76.3462 22.6917ZM88.3888 22.6429V22.2366C88.3888 19.23 86.8774 17.4261 84.4721 17.4261C82.1156 17.4261 80.5554 19.0838 80.5554 22.2366V22.6429C80.5554 25.552 82.0668 27.2097 84.4721 27.2097C86.8774 27.161 88.3888 25.552 88.3888 22.6429ZM94.9058 14.2732H98.4163L98.8225 17.3286C99.6676 15.2808 101.472 13.8669 104.137 13.8669C108.249 13.8669 110.963 16.8248 110.963 22.3017V22.7567C110.963 28.0711 107.956 30.8827 104.137 30.8827C101.585 30.8827 99.8302 29.7288 98.9688 27.8761V36.0508H94.8571L94.9058 14.2732ZM106.688 22.6429V22.2854C106.688 19.0675 105.031 17.4748 102.821 17.4748C100.464 17.4748 98.9038 19.2788 98.9038 22.2854V22.5942C98.9038 25.4545 100.415 27.2585 102.772 27.2585C105.193 27.2097 106.688 25.6658 106.688 22.6429ZM117.187 27.4698L116.83 30.4276H113.222V8.86133H117.333V17.1335C118.244 15.0208 120.048 13.8669 122.599 13.8669C126.467 13.9157 129.327 16.581 129.327 21.9441V22.4479C129.327 27.811 126.613 30.8827 122.502 30.8827C119.788 30.8176 118.032 29.5662 117.187 27.4698ZM125.004 22.4479V22.0416C125.004 19.0838 123.395 17.4261 121.136 17.4261C118.829 17.4261 117.22 19.2788 117.22 22.0904V22.4479C117.22 25.4545 118.78 27.2097 121.088 27.2097C123.558 27.2097 125.004 25.6658 125.004 22.4479ZM131.131 22.6917V22.2366C131.131 16.8248 134.593 13.8669 139.306 13.8669C144.117 13.8669 147.481 16.8248 147.481 22.2366V22.6917C147.481 28.0061 144.165 30.8664 139.306 30.8664C134.089 30.8176 131.131 28.0223 131.131 22.6917ZM143.207 22.6429V22.2366C143.207 19.23 141.695 17.4261 139.29 17.4261C136.933 17.4261 135.373 19.0838 135.373 22.2366V22.6429C135.373 25.552 136.885 27.2097 139.29 27.2097C141.711 27.161 143.207 25.552 143.207 22.6429ZM152.99 22.0416L147.318 14.2732H152.178L155.444 19.1325L158.76 14.2732H163.57L157.817 21.9929L163.879 30.4276H159.117L155.412 25.0645L151.804 30.4276H146.831L152.99 22.0416Z" fill="#1A1A1C" fill-opacity="0.4"/>
</g>
<defs>
<clipPath id="clip0_3615_3640">
<rect width="163.643" height="44.911" fill="white" transform="translate(0.496094)"/>
</clipPath>
</defs>
</svg>
