<svg width="24" height="24" viewBox="0 0 24 24" fill="none" xmlns="http://www.w3.org/2000/svg">
<path d="M21.7541 12.2165C21.7541 11.4148 21.6878 10.8298 21.5441 10.2231H12.2031V13.8414H17.6861C17.5756 14.7406 16.9786 16.0948 15.6521 17.0048L15.6335 17.1259L18.5869 19.3681L18.7915 19.3881C20.6708 17.6873 21.7541 15.1848 21.7541 12.2165Z" fill="#4285F4"/>
<path d="M12.2002 21.75C14.8864 21.75 17.1415 20.8832 18.7886 19.3883L15.6492 17.0049C14.8091 17.579 13.6815 17.9799 12.2002 17.9799C9.56932 17.9799 7.33635 16.2791 6.54036 13.9282L6.42369 13.9379L3.35266 16.2671L3.3125 16.3765C4.94853 19.5615 8.30907 21.75 12.2002 21.75Z" fill="#34A853"/>
<path d="M6.53907 13.9284C6.32904 13.3217 6.20749 12.6717 6.20749 12.0001C6.20749 11.3284 6.32904 10.6784 6.52802 10.0717L6.52246 9.94251L3.41294 7.57593L3.3112 7.62335C2.63691 8.94504 2.25 10.4292 2.25 12.0001C2.25 13.5709 2.63691 15.055 3.3112 16.3767L6.53907 13.9284Z" fill="#FBBC05"/>
<path d="M12.2003 6.01997C14.0685 6.01997 15.3286 6.8108 16.0472 7.47168L18.855 4.785C17.1306 3.21417 14.8865 2.25 12.2003 2.25C8.3091 2.25 4.94854 4.43832 3.3125 7.62329L6.52933 10.0717C7.33638 7.72083 9.56936 6.01997 12.2003 6.01997Z" fill="#EB4335"/>
</svg>
