<svg width="124" height="45" viewBox="0 0 124 45" fill="none" xmlns="http://www.w3.org/2000/svg">
<g clip-path="url(#clip0_3926_6851)">
<path d="M10.8237 19.775C14.2328 17.8811 18.9018 15.2866 18.9018 7.7359H13.2482C13.2482 11.9606 11.1915 13.1032 8.07812 14.8329C4.66904 16.7275 0 19.3208 0 26.8723H5.65362C5.65362 22.6473 7.71036 21.5047 10.8237 19.775Z" fill="#FF3C00"/>
<path d="M20.6084 18.0388C20.6084 22.2637 18.5516 23.4063 15.4382 25.1358C12.0301 27.0298 7.36011 29.6238 7.36011 37.1751H13.0135C13.0135 32.9503 15.0702 31.8076 18.1836 30.078C21.5927 28.184 26.2615 25.5903 26.2615 18.0388H20.6084Z" fill="#FF3C00"/>
<path d="M34.2617 30.459V6.98941H37.9238V16.2421C39.077 14.5318 40.8067 13.6763 43.1126 13.6757C45.0796 13.6757 46.6001 14.2554 47.6742 15.4147C48.7483 16.574 49.2854 18.1893 49.2856 20.2606V30.459H45.6234V20.7672C45.6234 18.0884 44.425 16.7489 42.0283 16.7486C40.8297 16.7486 39.8462 17.1088 39.0779 17.8292C38.3097 18.5496 37.9251 19.5627 37.9244 20.8685V30.4587L34.2617 30.459Z" fill="#323232"/>
<path d="M66.5932 28.433C64.9654 30.0539 62.9194 30.8643 60.4549 30.8643C57.9906 30.8643 55.9388 30.0539 54.2994 28.433C52.6601 26.812 51.8405 24.7518 51.8406 22.2523C51.8408 19.753 52.6603 17.6988 54.2994 16.0899C55.9385 14.4806 57.9903 13.6758 60.4549 13.6754C62.9195 13.675 64.9656 14.4799 66.5932 16.0899C68.2214 17.6998 69.0354 19.754 69.0353 22.2523C69.0351 24.7507 68.2211 26.811 66.5932 28.433ZM56.9788 26.3728C57.8486 27.3859 59.0074 27.8925 60.4549 27.8925C61.9026 27.8925 63.0613 27.3859 63.9311 26.3728C64.8011 25.3598 65.2363 23.9863 65.2367 22.2523C65.2367 20.5416 64.7959 19.1796 63.9142 18.1664C63.0325 17.1531 61.8794 16.6466 60.4549 16.6467C59.0078 16.6467 57.849 17.1476 56.9788 18.1494C56.1085 19.1512 55.6733 20.5186 55.673 22.2516C55.673 23.9863 56.1082 25.36 56.9788 26.3728Z" fill="#323232"/>
<path d="M77.5124 30.8642C74.1432 30.8642 72.4587 29.0631 72.4587 25.4611V17.154H69.9157V14.0811H72.561L73.409 9.25306H76.1556V14.0811H82.701V17.154H76.1559V25.3599C76.1559 26.8685 76.7098 27.6227 77.8176 27.6225C78.8573 27.6225 79.7956 26.6769 80.6324 24.7858L83.4814 26.238C82.0792 29.3225 80.0895 30.8645 77.5124 30.8642Z" fill="#323232"/>
<path d="M84.6584 37.9555C83.0305 37.9555 81.6852 37.5052 80.6226 36.6047L81.9793 33.7343C82.6351 34.4994 83.3473 34.8822 84.1159 34.883C85.1332 34.883 85.6418 34.2302 85.6418 32.9245V14.0808H89.304V32.9911C89.304 34.7471 88.8688 36.0135 87.9982 36.79C87.1278 37.5667 86.0145 37.9551 84.6584 37.9555ZM87.4733 11.3116C86.8712 11.3319 86.2856 11.1133 85.8454 10.7039C85.6335 10.5051 85.4667 10.2639 85.3557 9.9961C85.2446 9.72831 85.192 9.44008 85.2012 9.1505C85.193 8.85854 85.2462 8.56811 85.3571 8.29774C85.468 8.02736 85.6343 7.78297 85.8454 7.58017C86.2881 7.17828 86.8656 6.95551 87.4648 6.95551C88.0639 6.95551 88.6415 7.17828 89.0843 7.58017C89.2997 7.78045 89.4702 8.02398 89.5842 8.29468C89.6981 8.56536 89.7532 8.85706 89.7456 9.1505C89.7509 9.43863 89.6947 9.72459 89.5807 9.98946C89.4667 10.2543 89.2975 10.4921 89.0843 10.6869C88.8702 10.8915 88.6178 11.052 88.3414 11.1592C88.0649 11.2664 87.7699 11.3182 87.4733 11.3116Z" fill="#323232"/>
<path d="M98.3996 30.8638C96.5227 30.8638 95.0021 30.3966 93.8381 29.4624C92.674 28.5282 92.0919 27.2735 92.0917 25.698C92.0917 24.2573 92.6964 23.0357 93.9061 22.0333C95.1156 21.031 96.6361 20.53 98.4674 20.5307C100.344 20.5307 101.927 21.1273 103.215 22.3206V20.3279C103.215 19.1577 102.916 18.2516 102.317 17.6095C101.717 16.9675 100.864 16.6467 99.7563 16.6471C97.5179 16.6471 96.1274 17.7839 95.5847 20.0576L92.2271 19.3485C92.6788 17.5926 93.5719 16.2082 94.9065 15.195C96.2411 14.1819 97.9028 13.6754 99.8917 13.6754C102.062 13.6754 103.775 14.2439 105.03 15.3808C106.285 16.5178 106.912 18.178 106.912 20.3615V30.4586H103.351V28.3984C102.152 30.0421 100.502 30.864 98.3996 30.8638ZM99.077 28.1622C100.705 28.1622 102.085 27.3519 103.215 25.7311V25.224C102.084 23.8733 100.705 23.1979 99.077 23.198C98.1276 23.198 97.3586 23.4289 96.77 23.8908C96.4917 24.0949 96.2665 24.3623 96.1132 24.6707C95.9597 24.9791 95.8826 25.3195 95.8881 25.6635C95.8791 26.0112 95.953 26.3561 96.1032 26.6701C96.2535 26.984 96.4763 27.2582 96.7531 27.4702C97.3309 27.9317 98.105 28.1624 99.077 28.1622Z" fill="#323232"/>
<path d="M110.476 30.4593V14.0812H114.037V16.9178C114.942 14.8467 116.502 13.8111 118.718 13.811C120.029 13.811 121.114 14.2387 121.973 15.0942C122.833 15.9497 123.262 17.0978 123.262 18.5386C123.253 19.401 123.104 20.2563 122.821 21.0713L119.463 20.7337C119.532 20.2861 119.577 19.8352 119.599 19.383C119.599 17.6945 118.898 16.8503 117.496 16.8502C116.547 16.8502 115.75 17.351 115.105 18.3528C114.461 19.3546 114.139 20.6774 114.139 22.321V30.4593H110.476Z" fill="#323232"/>
</g>
<defs>
<clipPath id="clip0_3926_6851">
<rect width="123.262" height="44.911" fill="white"/>
</clipPath>
</defs>
</svg>
