<svg width="124" height="45" viewBox="0 0 124 45" fill="none" xmlns="http://www.w3.org/2000/svg">
<g clip-path="url(#clip0_4451_4518)">
<path d="M10.8237 19.7749C14.2328 17.881 18.9018 15.2866 18.9018 7.73584H13.2482C13.2482 11.9605 11.1915 13.1031 8.07812 14.8328C4.66904 16.7274 0 19.3207 0 26.8723H5.65362C5.65362 22.6472 7.71036 21.5046 10.8237 19.7749Z" fill="#FF3C00"/>
<path d="M20.6084 18.0388C20.6084 22.2637 18.5516 23.4063 15.4382 25.1358C12.0301 27.0297 7.36011 29.6238 7.36011 37.1751H13.0135C13.0135 32.9502 15.0702 31.8076 18.1836 30.0779C21.5927 28.184 26.2615 25.5902 26.2615 18.0388H20.6084Z" fill="#FF3C00"/>
<path d="M34.2617 30.459V6.98947H37.9238V16.2421C39.077 14.5318 40.8067 13.6764 43.1126 13.6758C45.0796 13.6758 46.6001 14.2554 47.6742 15.4147C48.7483 16.5741 49.2854 18.1894 49.2856 20.2607V30.459H45.6234V20.7673C45.6234 18.0885 44.425 16.749 42.0283 16.7486C40.8297 16.7486 39.8462 17.1088 39.0779 17.8292C38.3097 18.5497 37.9251 19.5627 37.9244 20.8685V30.4588L34.2617 30.459Z" fill="white"/>
<path d="M66.5932 28.4331C64.9654 30.054 62.9194 30.8644 60.4549 30.8644C57.9906 30.8644 55.9388 30.054 54.2994 28.4331C52.6601 26.812 51.8405 24.7518 51.8406 22.2523C51.8408 19.7531 52.6603 17.6989 54.2994 16.09C55.9385 14.4807 57.9903 13.6758 60.4549 13.6755C62.9195 13.6751 64.9656 14.4799 66.5932 16.09C68.2214 17.6999 69.0354 19.754 69.0353 22.2523C69.0351 24.7508 68.2211 26.811 66.5932 28.4331ZM56.9788 26.3729C57.8486 27.3859 59.0074 27.8925 60.4549 27.8925C61.9026 27.8925 63.0613 27.3859 63.9311 26.3729C64.8011 25.3598 65.2363 23.9864 65.2367 22.2523C65.2367 20.5417 64.7959 19.1796 63.9142 18.1664C63.0325 17.1532 61.8794 16.6466 60.4549 16.6468C59.0078 16.6468 57.849 17.1477 56.9788 18.1495C56.1085 19.1513 55.6733 20.5187 55.673 22.2517C55.673 23.9864 56.1082 25.3601 56.9788 26.3729Z" fill="white"/>
<path d="M77.5124 30.8643C74.1432 30.8643 72.4587 29.0632 72.4587 25.4611V17.154H69.9157V14.0812H72.561L73.409 9.25312H76.1556V14.0812H82.701V17.154H76.1559V25.36C76.1559 26.8685 76.7098 27.6227 77.8176 27.6226C78.8573 27.6226 79.7956 26.677 80.6324 24.7859L83.4814 26.2381C82.0792 29.3226 80.0895 30.8646 77.5124 30.8643Z" fill="white"/>
<path d="M84.6584 37.9556C83.0305 37.9556 81.6852 37.5053 80.6226 36.6047L81.9793 33.7344C82.6351 34.4995 83.3473 34.8823 84.1159 34.8831C85.1332 34.8831 85.6418 34.2303 85.6418 32.9245V14.0809H89.304V32.9912C89.304 34.7472 88.8688 36.0135 87.9982 36.7901C87.1278 37.5668 86.0145 37.9552 84.6584 37.9556ZM87.4733 11.3116C86.8712 11.332 86.2856 11.1134 85.8454 10.7039C85.6335 10.5052 85.4667 10.264 85.3557 9.99616C85.2446 9.72837 85.192 9.44014 85.2012 9.15056C85.193 8.8586 85.2462 8.56817 85.3571 8.2978C85.468 8.02742 85.6343 7.78303 85.8454 7.58023C86.2881 7.17834 86.8656 6.95557 87.4648 6.95557C88.0639 6.95557 88.6415 7.17834 89.0843 7.58023C89.2997 7.78051 89.4702 8.02404 89.5842 8.29474C89.6981 8.56542 89.7532 8.85712 89.7456 9.15056C89.7509 9.43869 89.6947 9.72465 89.5807 9.98952C89.4667 10.2544 89.2975 10.4921 89.0843 10.687C88.8702 10.8916 88.6178 11.0521 88.3414 11.1592C88.0649 11.2664 87.7699 11.3182 87.4733 11.3116Z" fill="white"/>
<path d="M98.3996 30.8638C96.5227 30.8638 95.0021 30.3966 93.8381 29.4625C92.674 28.5282 92.0919 27.2735 92.0917 25.6981C92.0917 24.2573 92.6964 23.0358 93.9061 22.0333C95.1156 21.031 96.6361 20.5301 98.4674 20.5308C100.344 20.5308 101.927 21.1274 103.215 22.3206V20.328C103.215 19.1577 102.916 18.2516 102.317 17.6096C101.717 16.9676 100.864 16.6468 99.7563 16.6471C97.5179 16.6471 96.1274 17.784 95.5847 20.0576L92.2271 19.3486C92.6788 17.5927 93.5719 16.2082 94.9065 15.1951C96.2411 14.182 97.9028 13.6755 99.8917 13.6755C102.062 13.6755 103.775 14.2439 105.03 15.3809C106.285 16.5179 106.912 18.1781 106.912 20.3615V30.4586H103.351V28.3984C102.152 30.0422 100.502 30.8641 98.3996 30.8638ZM99.077 28.1623C100.705 28.1623 102.085 27.3519 103.215 25.7311V25.224C102.084 23.8733 100.705 23.1979 99.077 23.198C98.1276 23.198 97.3586 23.429 96.77 23.8909C96.4917 24.095 96.2665 24.3624 96.1132 24.6708C95.9597 24.9791 95.8826 25.3196 95.8881 25.6636C95.8791 26.0113 95.953 26.3562 96.1032 26.6702C96.2535 26.984 96.4763 27.2583 96.7531 27.4702C97.3309 27.9317 98.105 28.1624 99.077 28.1623Z" fill="white"/>
<path d="M110.476 30.4593V14.0813H114.037V16.9178C114.942 14.8468 116.502 13.8112 118.718 13.8111C120.029 13.8111 121.114 14.2388 121.973 15.0943C122.833 15.9497 123.262 17.0979 123.262 18.5387C123.253 19.401 123.104 20.2563 122.821 21.0714L119.463 20.7337C119.532 20.2862 119.577 19.8353 119.599 19.383C119.599 17.6946 118.898 16.8503 117.496 16.8502C116.547 16.8502 115.75 17.3511 115.105 18.3529C114.461 19.3547 114.139 20.6774 114.139 22.3211V30.4593H110.476Z" fill="white"/>
</g>
<defs>
<clipPath id="clip0_4451_4518">
<rect width="123.262" height="44.911" fill="white"/>
</clipPath>
</defs>
</svg>
