<svg width="24" height="25" viewBox="0 0 24 25" fill="none" xmlns="http://www.w3.org/2000/svg">
<path fill-rule="evenodd" clip-rule="evenodd" d="M15 5.5H9C6.79086 5.5 5 7.29086 5 9.5V15.5C5 17.7091 6.79086 19.5 9 19.5H15C17.2091 19.5 19 17.7091 19 15.5V9.5C19 7.29086 17.2091 5.5 15 5.5Z" stroke="#FCFCFC" stroke-width="1.5" stroke-linecap="round" stroke-linejoin="round"/>
<path fill-rule="evenodd" clip-rule="evenodd" d="M12 15.5C10.3431 15.5 9 14.1569 9 12.5C9 10.8431 10.3431 9.5 12 9.5C13.6569 9.5 15 10.8431 15 12.5C15 13.2956 14.6839 14.0587 14.1213 14.6213C13.5587 15.1839 12.7956 15.5 12 15.5Z" stroke="#FCFCFC" stroke-width="1.5" stroke-linecap="round" stroke-linejoin="round"/>
<rect x="15" y="9.5" width="2" height="2" rx="1" transform="rotate(-90 15 9.5)" fill="#FCFCFC"/>
<rect x="15.5" y="9" width="1" height="1" rx="0.5" transform="rotate(-90 15.5 9)" stroke="#FCFCFC" stroke-linecap="round"/>
</svg>
