<svg width="148" height="45" viewBox="0 0 148 45" fill="none" xmlns="http://www.w3.org/2000/svg">
<path fill-rule="evenodd" clip-rule="evenodd" d="M11.6605 28.9154L4.96996 22.1942C3.83309 21.0521 1.98988 21.0521 0.852648 22.1942C-0.284216 23.3363 -0.284216 25.1879 0.852648 26.3303L9.60185 35.1198C10.7387 36.2618 12.5824 36.2618 13.7192 35.1198L21.9542 26.8466L17.8372 22.7104L11.6605 28.9154Z" fill="#16B8A2"/>
<path fill-rule="evenodd" clip-rule="evenodd" d="M36.882 15.9928L24.0166 28.9172L11.1496 15.9913C10.0124 14.8489 8.16919 14.8489 7.03233 15.9913C5.89547 17.1334 5.89547 18.9851 7.03233 20.1275L21.9578 35.1215C23.0948 36.2637 24.938 36.2637 26.0752 35.1215L40.9993 20.129C42.1361 18.9865 42.1361 17.1349 40.9993 15.9928C39.862 14.8507 38.0188 14.8507 36.882 15.9928Z" fill="#FFB41F"/>
<path fill-rule="evenodd" clip-rule="evenodd" d="M47.1712 26.3352L38.4234 35.1231C37.2866 36.2652 35.4433 36.2652 34.3064 35.1231L13.2042 13.924C12.0673 12.782 12.0673 10.9303 13.2042 9.7882C14.3414 8.64575 16.1847 8.64575 17.3215 9.7882L36.3648 28.9188L43.0538 22.199C44.191 21.0569 46.0343 21.0569 47.1712 22.199C48.308 23.3415 48.308 25.1932 47.1712 26.3352Z" fill="#F56358"/>
<path fill-rule="evenodd" clip-rule="evenodd" d="M34.8187 9.78793C33.6818 8.64585 31.8386 8.64585 30.7013 9.78793L17.8359 22.7124L21.9533 26.8486L34.8187 13.9241C35.9556 12.7817 35.9556 10.93 34.8187 9.78793Z" fill="#16B8A2"/>
<path fill-rule="evenodd" clip-rule="evenodd" d="M59.6035 11.8059H56.0234V32.9327H69.1411V29.7421H59.6035V11.8059ZM76.8894 18.1583C79.0662 18.1583 80.5269 19.0494 81.3289 20.1416L81.5006 18.4457H84.5939V32.9327H81.5006L81.3289 31.2368C80.5269 32.3291 79.0662 33.2201 76.8894 33.2201C72.9655 33.2201 70.302 30.0296 70.302 25.6892C70.302 21.3201 72.9655 18.1583 76.8894 18.1583ZM77.6341 21.2052C75.4001 21.2052 73.7961 22.9586 73.7961 25.6892C73.7961 28.4199 75.4001 30.1733 77.6341 30.1733C79.3526 30.1733 80.3837 29.2535 81.157 28.0175V23.3609C80.3837 22.125 79.3526 21.2052 77.6341 21.2052ZM93.2588 13.588H89.8219V18.4457H87.1009V21.3777H89.8219V27.8163C89.8219 31.323 91.9126 33.2201 95.2064 33.2201C96.6384 33.2201 97.6982 32.8177 98.4142 32.3578L97.4977 29.6559C97.068 29.9146 96.4379 30.1157 95.5215 30.1157C94.1753 30.1157 93.2588 29.2535 93.2588 27.7875V21.3777H97.6122V18.4457H93.2588V13.588ZM105.103 13.588H101.666V18.4457H98.9449V21.3777H101.666V27.8163C101.666 31.323 103.757 33.2201 107.05 33.2201C108.482 33.2201 109.542 32.8177 110.258 32.3578L109.342 29.6559C108.912 29.9146 108.282 30.1157 107.365 30.1157C106.019 30.1157 105.103 29.2535 105.103 27.7875V21.3777H109.456V18.4457H105.103V13.588ZM116.002 18.4457H112.565V32.9327H116.002V18.4457ZM114.283 11.6909C113.08 11.6909 112.164 12.582 112.164 13.818C112.164 15.054 113.08 15.945 114.283 15.945C115.515 15.945 116.431 15.054 116.431 13.818C116.431 12.582 115.515 11.6909 114.283 11.6909ZM126.385 18.1583C121.946 18.1583 118.996 21.3201 118.996 25.6892C118.996 30.0296 121.975 33.2201 126.413 33.2201C129.02 33.2201 130.996 32.0417 132.285 30.0296L129.822 28.1038C129.134 29.2535 128.018 30.2021 126.443 30.2021C123.893 30.2021 122.49 28.2187 122.49 25.6892C122.49 23.131 123.836 21.1764 126.413 21.1764C128.018 21.1764 129.077 22.0962 129.736 23.246L132.228 21.3489C130.938 19.3368 129.02 18.1583 126.385 18.1583ZM140.692 18.1583C145.132 18.1583 147.309 21.4926 147.309 25.5455V26.7527H137.112C137.198 29.0522 138.573 30.317 140.978 30.317C142.668 30.317 143.9 29.5696 144.559 28.6499L146.936 30.6044C145.503 32.3291 143.614 33.2201 140.95 33.2201C136.482 33.2201 133.618 30.0583 133.618 25.7179C133.618 21.3489 136.54 18.1583 140.692 18.1583ZM140.635 20.9177C138.602 20.9177 137.226 22.2687 137.112 24.2808H143.929C143.843 22.2974 142.697 20.9177 140.635 20.9177Z" fill="#0E0E29"/>
</svg>
