<svg width="148" height="45" viewBox="0 0 148 45" fill="none" xmlns="http://www.w3.org/2000/svg">
<path fill-rule="evenodd" clip-rule="evenodd" d="M12.3128 28.9157L5.62231 22.1945C4.48544 21.0524 2.64222 21.0524 1.50499 22.1945C0.368128 23.3365 0.368128 25.1882 1.50499 26.3306L10.2542 35.12C11.3911 36.2621 13.2347 36.2621 14.3715 35.12L22.6065 26.8469L18.4896 22.7107L12.3128 28.9157Z" fill="#1A1A1C" fill-opacity="0.4"/>
<path fill-rule="evenodd" clip-rule="evenodd" d="M37.5343 15.9931L24.6689 28.9175L11.802 15.9916C10.6648 14.8492 8.82154 14.8492 7.68468 15.9916C6.54782 17.1337 6.54782 18.9854 7.68468 20.1278L22.6102 35.1218C23.7471 36.2639 25.5904 36.2639 26.7275 35.1218L41.6516 20.1293C42.7884 18.9868 42.7884 17.1351 41.6516 15.9931C40.5144 14.851 38.6711 14.851 37.5343 15.9931Z" fill="#1A1A1C" fill-opacity="0.4"/>
<path fill-rule="evenodd" clip-rule="evenodd" d="M47.8235 26.3355L39.0757 35.1233C37.9389 36.2655 36.0957 36.2655 34.9587 35.1233L13.8566 13.9243C12.7197 12.7822 12.7197 10.9306 13.8566 9.78848C14.9938 8.64603 16.837 8.64603 17.9738 9.78848L37.0171 28.919L43.7062 22.1993C44.8433 21.0572 46.6866 21.0572 47.8235 22.1993C48.9603 23.3418 48.9603 25.1934 47.8235 26.3355Z" fill="#1A1A1C" fill-opacity="0.4"/>
<path fill-rule="evenodd" clip-rule="evenodd" d="M35.471 9.7882C34.3341 8.64612 32.491 8.64612 31.3537 9.7882L18.4883 22.7127L22.6056 26.8489L35.471 13.9244C36.6079 12.782 36.6079 10.9303 35.471 9.7882Z" fill="#1A1A1C" fill-opacity="0.4"/>
<path fill-rule="evenodd" clip-rule="evenodd" d="M60.2559 11.8064H56.6758V32.9332H69.7934V29.7426H60.2559V11.8064ZM77.5418 18.1588C79.7186 18.1588 81.1792 19.0499 81.9812 20.1421L82.153 18.4462H85.2463V32.9332H82.153L81.9812 31.2373C81.1792 32.3296 79.7186 33.2206 77.5418 33.2206C73.6179 33.2206 70.9543 30.03 70.9543 25.6897C70.9543 21.3206 73.6179 18.1588 77.5418 18.1588ZM78.2864 21.2057C76.0524 21.2057 74.4485 22.9591 74.4485 25.6897C74.4485 28.4204 76.0524 30.1738 78.2864 30.1738C80.0049 30.1738 81.036 29.254 81.8093 28.0179V23.3614C81.036 22.1255 80.0049 21.2057 78.2864 21.2057ZM93.9112 13.5885H90.4742V18.4462H87.7532V21.3782H90.4742V27.8168C90.4742 31.3235 92.565 33.2206 95.8588 33.2206C97.2908 33.2206 98.3505 32.8182 99.0666 32.3583L98.15 29.6564C97.7204 29.9151 97.0903 30.1162 96.1738 30.1162C94.8276 30.1162 93.9112 29.254 93.9112 27.788V21.3782H98.2646V18.4462H93.9112V13.5885ZM105.755 13.5885H102.318V18.4462H99.5972V21.3782H102.318V27.8168C102.318 31.3235 104.409 33.2206 107.703 33.2206C109.135 33.2206 110.195 32.8182 110.911 32.3583L109.994 29.6564C109.564 29.9151 108.934 30.1162 108.018 30.1162C106.672 30.1162 105.755 29.254 105.755 27.788V21.3782H110.109V18.4462H105.755V13.5885ZM116.654 18.4462H113.217V32.9332H116.654V18.4462ZM114.936 11.6914C113.733 11.6914 112.816 12.5825 112.816 13.8185C112.816 15.0545 113.733 15.9455 114.936 15.9455C116.167 15.9455 117.084 15.0545 117.084 13.8185C117.084 12.5825 116.167 11.6914 114.936 11.6914ZM127.038 18.1588C122.598 18.1588 119.648 21.3206 119.648 25.6897C119.648 30.03 122.627 33.2206 127.066 33.2206C129.672 33.2206 131.648 32.0421 132.937 30.03L130.474 28.1043C129.787 29.254 128.67 30.2025 127.095 30.2025C124.546 30.2025 123.142 28.2192 123.142 25.6897C123.142 23.1315 124.489 21.1769 127.066 21.1769C128.67 21.1769 129.729 22.0967 130.388 23.2465L132.88 21.3494C131.591 19.3373 129.672 18.1588 127.038 18.1588ZM141.345 18.1588C145.784 18.1588 147.961 21.4931 147.961 25.546V26.7532H137.764C137.851 29.0527 139.225 30.3175 141.631 30.3175C143.32 30.3175 144.552 29.5701 145.211 28.6504L147.589 30.6049C146.156 32.3296 144.266 33.2206 141.603 33.2206C137.135 33.2206 134.27 30.0588 134.27 25.7184C134.27 21.3494 137.192 18.1588 141.345 18.1588ZM141.287 20.9182C139.254 20.9182 137.879 22.2692 137.764 24.2813H144.582C144.495 22.2979 143.35 20.9182 141.287 20.9182Z" fill="#1A1A1C" fill-opacity="0.4"/>
</svg>
