<svg width="24" height="25" viewBox="0 0 24 25" fill="none" xmlns="http://www.w3.org/2000/svg">
<path d="M8.25 11.5C8.25 11.0858 7.91421 10.75 7.5 10.75C7.08579 10.75 6.75 11.0858 6.75 11.5H8.25ZM6.75 17.5C6.75 17.9142 7.08579 18.25 7.5 18.25C7.91421 18.25 8.25 17.9142 8.25 17.5H6.75ZM16.75 17.5C16.75 17.9142 17.0858 18.25 17.5 18.25C17.9142 18.25 18.25 17.9142 18.25 17.5H16.75ZM11.5 14.5H10.75H11.5ZM10.75 17.5C10.75 17.9142 11.0858 18.25 11.5 18.25C11.9142 18.25 12.25 17.9142 12.25 17.5H10.75ZM8.25 8.5C8.25 8.08579 7.91421 7.75 7.5 7.75C7.08579 7.75 6.75 8.08579 6.75 8.5H8.25ZM6.75 9.5C6.75 9.91421 7.08579 10.25 7.5 10.25C7.91421 10.25 8.25 9.91421 8.25 9.5H6.75ZM7.5 11.5H6.75V17.5H7.5H8.25V11.5H7.5ZM17.5 17.5H18.25V14.5H17.5H16.75V17.5H17.5ZM17.5 14.5H18.25C18.25 12.4289 16.5711 10.75 14.5 10.75V11.5V12.25C15.7426 12.25 16.75 13.2574 16.75 14.5H17.5ZM14.5 11.5V10.75C12.4289 10.75 10.75 12.4289 10.75 14.5H11.5H12.25C12.25 13.2574 13.2574 12.25 14.5 12.25V11.5ZM11.5 14.5H10.75V17.5H11.5H12.25V14.5H11.5ZM7.5 8.5H6.75V9.5H7.5H8.25V8.5H7.5Z" fill="#FCFCFC"/>
</svg>
