<svg width="41" height="40" viewBox="0 0 41 40" fill="none" xmlns="http://www.w3.org/2000/svg">
<path d="M38.2031 15.4297L35.5 12.8281V5.83594C35.5 2.61719 32.8828 0 29.6641 0H11.3359C8.11719 0 5.5 2.61719 5.5 5.83594V12.8281L2.79688 15.4375C1.33594 16.8438 0.5 18.8047 0.5 20.8359V32.5C0.5 36.6328 3.86719 40 8 40H33C37.1328 40 40.5 36.6328 40.5 32.5V20.8359C40.5 18.8047 39.6641 16.8438 38.2031 15.4297ZM37.0469 16.6328C37.2031 16.7812 37.3438 16.9375 37.4766 17.1016L35.5 19.0781V15.1328L37.0469 16.6328ZM7.16406 5.83594C7.16406 3.53906 9.03125 1.67188 11.3281 1.67188H29.6641C31.9609 1.67188 33.8281 3.53906 33.8281 5.83594V20.75L24.625 29.9609C22.4219 32.1641 18.5781 32.1641 16.375 29.9609L7.16406 20.75V5.83594ZM3.95312 16.6328L5.5 15.1406V19.0859L3.51562 17.1016C3.65625 16.9375 3.79688 16.7812 3.95312 16.6328ZM38.8359 32.5C38.8359 35.7188 36.2188 38.3359 33 38.3359H8C4.78125 38.3359 2.16406 35.7188 2.16406 32.5V20.8359C2.16406 20.0547 2.32031 19.2812 2.625 18.5703L15.1953 31.1406C16.6094 32.5547 18.4922 33.3359 20.5 33.3359C22.5078 33.3359 24.3828 32.5547 25.8047 31.1406L38.375 18.5703C38.6719 19.2812 38.8359 20.0547 38.8359 20.8359V32.5ZM12.1641 9.16406C12.1641 8.70312 12.5391 8.32812 13 8.32812H28C28.4609 8.32812 28.8359 8.70312 28.8359 9.16406C28.8359 9.625 28.4609 10 28 10H13C12.5391 10 12.1641 9.625 12.1641 9.16406ZM12.1641 15.8359C12.1641 15.375 12.5391 15 13 15H24.6641C25.125 15 25.5 15.375 25.5 15.8359C25.5 16.2969 25.125 16.6719 24.6641 16.6719H13C12.5391 16.6641 12.1641 16.2969 12.1641 15.8359Z" fill="#FCFCFC"/>
</svg>
