<svg width="129" height="45" viewBox="0 0 129 45" fill="none" xmlns="http://www.w3.org/2000/svg">
<path fill-rule="evenodd" clip-rule="evenodd" d="M5.71206 11.2626C6.79023 12.1324 7.18021 12.0637 9.19893 11.9264L28.2162 10.7819C28.6291 10.7819 28.285 10.3699 28.1474 10.3241L24.9816 8.05804C24.3852 7.60026 23.5594 7.05091 22.0224 7.18825L3.62452 8.53872C2.95926 8.60739 2.82162 8.95073 3.0969 9.20252L5.71206 11.2626ZM6.85905 15.6802V35.6398C6.85905 36.7156 7.38668 37.1048 8.60249 37.0361L29.5008 35.8229C30.7166 35.7543 30.8543 35.0218 30.8543 34.152V14.3298C30.8543 13.46 30.5102 12.9793 29.7761 13.0479L7.93723 14.3298C7.13433 14.3984 6.85905 14.8104 6.85905 15.6802ZM27.4821 16.756C27.6197 17.3512 27.4821 17.9692 26.8857 18.0378L25.8763 18.2439V32.9847C25.0046 33.4424 24.2017 33.7171 23.5135 33.7171C22.4353 33.7171 22.16 33.3738 21.3571 32.3666L14.7733 22.0435V32.0233L16.8609 32.4811C16.8609 32.4811 16.8609 33.6942 15.1863 33.6942L10.5524 33.9689C10.4148 33.6942 10.5524 33.0304 11.0112 32.8931L12.227 32.5498V19.3654L10.5524 19.2281C10.4148 18.633 10.7589 17.7632 11.6994 17.6945L16.6774 17.3512L23.5364 27.7887V18.5643L21.793 18.3583C21.6553 17.6258 22.2059 17.0765 22.8712 17.0078L27.4821 16.756ZM2.08754 6.70757L21.2424 5.31131C23.5823 5.1053 24.2017 5.24264 25.6698 6.31845L31.7719 10.5988C32.7812 11.3312 33.1253 11.5372 33.1253 12.3384V35.8458C33.1253 37.3108 32.5977 38.1806 30.7166 38.3179L8.48779 39.6684C7.06552 39.737 6.40026 39.531 5.66618 38.5926L1.147 32.7558C0.3441 31.68 0 30.8788 0 29.9404V9.04229C0 7.82915 0.550559 6.8449 2.08754 6.70757Z" fill="white"/>
<path d="M44.8294 33.9492V19.3942H45.0887L55.6834 33.9492H59.0174V12.575H55.313V27.0933H55.0536L44.459 12.575H41.125V33.9492H44.8294ZM69.5009 34.2792C74.3908 34.2792 77.3914 31.1262 77.3914 25.8468C77.3914 20.6041 74.3908 17.4144 69.5009 17.4144C64.6481 17.4144 61.6105 20.6041 61.6105 25.8468C61.6475 31.1262 64.6111 34.2792 69.5009 34.2792ZM69.5009 31.1996C66.9078 31.1996 65.426 29.2564 65.426 25.8468C65.426 22.4739 66.9078 20.4941 69.5009 20.4941C72.094 20.4941 73.5758 22.4739 73.5758 25.8468C73.5758 29.2564 72.094 31.1996 69.5009 31.1996ZM80.7624 13.7848V17.8544H78.1693V20.7874H80.7624V29.6231C80.7624 32.7761 82.2441 34.0226 86.0227 34.0226C86.7265 34.0226 87.4304 33.9493 87.986 33.8393V30.9796C87.5415 31.0162 87.2451 31.0529 86.7265 31.0529C85.1707 31.0529 84.4668 30.3563 84.4668 28.7432V20.7874H87.986V17.8544H84.4668V13.7848H80.7624ZM90.2087 33.9492H93.9131V17.7444H90.2087V33.9492ZM92.0609 15.068C93.2834 15.068 94.2836 14.0781 94.2836 12.8683C94.2836 11.6217 93.2834 10.6318 92.0609 10.6318C90.8384 10.6318 89.8382 11.6217 89.8382 12.8683C89.8382 14.0781 90.8384 15.068 92.0609 15.068ZM104.063 34.2792C108.953 34.2792 111.954 31.1262 111.954 25.8468C111.954 20.6041 108.953 17.4144 104.063 17.4144C99.2104 17.4144 96.1728 20.6041 96.1728 25.8468C96.1728 31.1262 99.1363 34.2792 104.063 34.2792ZM104.063 31.1996C101.47 31.1996 99.9884 29.2564 99.9884 25.8468C99.9884 22.4739 101.47 20.4941 104.063 20.4941C106.619 20.4941 108.138 22.4739 108.138 25.8468C108.101 29.2564 106.619 31.1996 104.063 31.1996ZM114.139 33.9492H117.844V24.527C117.844 22.1439 119.251 20.6407 121.437 20.6407C123.697 20.6407 124.734 21.8873 124.734 24.3436V33.9492H128.438V23.4637C128.438 19.5775 126.438 17.4144 122.808 17.4144C120.363 17.4144 118.733 18.5143 117.955 20.3474H117.696V17.7444H114.102C114.139 17.7444 114.139 33.9492 114.139 33.9492Z" fill="white"/>
</svg>
