<svg width="168" height="45" viewBox="0 0 168 45" fill="none" xmlns="http://www.w3.org/2000/svg">
<g clip-path="url(#clip0_4973_4535)">
<path d="M14.9656 6.45557C20.1219 6.45557 27.9107 8.05653 31.531 11.7278C32.4488 12.6601 33.6534 14.4797 33.6534 17.1544C33.6534 21.8994 29.8738 29.1841 25.7053 33.4148C23.551 35.6008 20.1219 38.4556 15.5073 38.4556C10.9947 38.4556 7.5529 35.3565 6.55859 34.3406C2.73434 30.47 0 24.5934 0 19.1218C0 15.6627 0.975184 12.6408 3.45457 10.1269C5.74912 7.80578 9.70722 6.45557 14.9656 6.45557ZM21.3457 25.3907C23.0857 23.629 23.5574 21.4558 23.5574 20.2599C23.5574 19.3919 23.3343 18.1252 22.2635 17.0386C20.6255 15.3734 18.8026 14.904 16.8267 14.904C14.3218 14.904 12.6391 15.7077 11.5174 16.8393C10.6378 17.7395 9.87932 19.1025 9.87932 21.0507C9.87932 22.9924 10.9055 24.8699 12.0145 26.0015C13.0471 27.0431 14.666 27.8146 16.2913 27.8146C17.923 27.8146 19.6057 27.1524 21.3457 25.3907Z" fill="#5952FF"/>
<path d="M166.062 19.0928C167.05 20.1408 167.547 21.5618 167.547 23.3621V32.8328H163.882V24.4358C163.882 23.3749 163.582 22.5391 162.983 21.9283C162.384 21.3174 161.574 21.0088 160.548 21.0088C159.337 21.0281 158.375 21.446 157.667 22.2562C156.96 23.0663 156.603 24.1079 156.603 25.3745V32.8328H152.964V11.7888H156.603V20.5523C157.629 18.5656 159.433 17.5561 162.008 17.5176C163.716 17.5176 165.074 18.0384 166.062 19.0928ZM144.869 20.7774C143.658 20.7774 142.67 21.1953 141.918 22.0247C141.166 22.8605 140.783 23.9343 140.783 25.2588C140.783 26.6219 141.166 27.7149 141.918 28.5507C142.676 29.3801 143.658 29.7981 144.875 29.7981C146.666 29.7981 148.011 29.2001 148.91 28.0106L151.179 29.9138C150.51 30.8975 149.592 31.6819 148.521 32.1834C147.418 32.7107 146.144 32.9743 144.684 32.9743C143.212 32.9743 141.899 32.6528 140.751 32.0098C139.623 31.3862 138.693 30.441 138.081 29.303C137.443 28.1392 137.125 26.8019 137.125 25.2909C137.125 23.7607 137.45 22.404 138.094 21.2339C138.712 20.083 139.649 19.1443 140.783 18.5142C141.931 17.8712 143.25 17.5497 144.748 17.5497C146.112 17.5497 147.329 17.7876 148.4 18.2698C149.471 18.752 150.344 19.44 151.02 20.3273L148.808 22.4555C147.782 21.3367 146.475 20.7774 144.869 20.7774ZM134.798 17.659V32.8328H131.159V30.4217C130.643 31.2319 129.922 31.8941 129.075 32.3377C128.227 32.7814 127.252 33.0064 126.149 33.0064C124.728 33.0064 123.485 32.6785 122.408 32.0291C121.337 31.3797 120.496 30.4603 119.903 29.2773C119.31 28.0942 119.011 26.7376 119.011 25.2073C119.011 23.6964 119.31 22.359 119.909 21.1953C120.502 20.0315 121.343 19.1314 122.414 18.4884C123.485 17.8455 124.721 17.524 126.124 17.524C127.226 17.524 128.208 17.749 129.062 18.1927C129.916 18.6363 130.643 19.2921 131.159 20.1087V17.6719L134.798 17.659ZM129.84 28.7886C130.604 28.0428 131.044 27.0526 131.159 25.8246V24.7508C131.044 23.5164 130.611 22.5326 129.846 21.7868C129.081 21.041 128.112 20.6681 126.933 20.6681C125.684 20.6681 124.664 21.0988 123.88 21.9604C123.096 22.822 122.695 23.9343 122.675 25.2909C122.695 26.654 123.096 27.7599 123.88 28.6214C124.664 29.483 125.684 29.9138 126.933 29.9138C128.106 29.9138 129.075 29.5409 129.84 28.7886ZM115.346 19.6136C116.55 20.996 117.149 22.9313 117.149 25.4259C117.149 25.9146 117.137 26.2875 117.124 26.5318H106.065C106.308 27.612 106.805 28.4543 107.563 29.0715C108.315 29.6888 109.246 29.9909 110.349 29.9909C111.101 29.9909 111.853 29.8431 112.548 29.5473C113.242 29.2644 113.867 28.8336 114.383 28.2871L116.34 30.3574C115.581 31.1997 114.651 31.8555 113.606 32.2863C112.535 32.7428 111.343 32.9678 110.036 32.9678C108.507 32.9678 107.155 32.6464 105.989 32.0034C104.848 31.3862 103.905 30.441 103.287 29.2966C102.649 28.1328 102.337 26.7954 102.337 25.2845C102.337 23.7735 102.656 22.4298 103.306 21.2596C103.93 20.1087 104.867 19.1571 106.008 18.5206C107.168 17.8648 108.481 17.5433 109.953 17.5433C112.344 17.5433 114.141 18.2377 115.346 19.6136ZM113.822 24.0693C113.784 22.9506 113.421 22.0633 112.732 21.401C112.044 20.7388 111.126 20.4044 109.985 20.4044C108.921 20.4044 108.029 20.7324 107.308 21.3817C106.588 22.0311 106.148 22.9248 105.976 24.0629H113.822V24.0693ZM98.3787 18.3277C99.2456 17.8069 100.259 17.5369 101.419 17.5176V21.0924C99.8702 20.996 98.6337 21.3625 97.7095 22.1854C96.7853 23.0084 96.32 24.1207 96.32 25.516V32.8328H92.6806V17.659H96.32V20.578C96.8299 19.5943 97.5119 18.8421 98.3787 18.3277ZM89.9526 31.8941C88.7607 32.6335 87.5051 33 86.1985 33C84.911 33 83.853 32.6142 83.0371 31.8491C82.2149 31.084 81.807 29.9524 81.807 28.4607V14.1099L85.4209 13.6727V18.2763H89.7041V20.9703H85.4209V27.8113C85.4209 28.5121 85.5484 29.0072 85.8097 29.2966C86.071 29.5923 86.4598 29.7338 86.9825 29.7338C87.5434 29.7338 88.2508 29.528 89.1113 29.1101L89.9526 31.8941ZM75.0636 17.659H78.6775V26.1653C78.6775 31.129 75.2548 32.9743 71.7811 32.9743C68.3074 32.9743 64.891 31.129 64.891 26.1653V17.659H68.505V26.2939C68.505 28.1971 69.9072 29.7402 71.7874 29.7402C73.6677 29.7402 75.0699 28.1971 75.0699 26.2939L75.0636 17.659ZM57.4019 14.0585C58.9635 14.9136 60.2637 16.1802 61.1688 17.7169C62.0866 19.2664 62.5391 20.9895 62.5391 22.8798C62.5391 24.7701 62.0802 26.4933 61.1688 28.0556C60.2637 29.6052 58.9635 30.8847 57.4019 31.7591C55.8021 32.6657 54.0365 33.1222 52.0926 33.1222C50.1486 33.1222 48.383 32.6657 46.7896 31.7591C45.228 30.8847 43.9278 29.6052 43.0227 28.0556C42.1113 26.4933 41.6523 24.7701 41.6523 22.8798C41.6523 20.9895 42.1113 19.2664 43.0227 17.7169C43.9278 16.1738 45.228 14.9136 46.7896 14.0585C48.383 13.1712 50.1549 12.7275 52.0926 12.7275C54.0365 12.7211 55.8084 13.1647 57.4019 14.0585ZM48.8228 17.0225C47.8094 17.6012 46.9681 18.4434 46.388 19.4593C45.7889 20.4945 45.4893 21.6325 45.4893 22.8798C45.4893 24.1272 45.7953 25.2716 46.4008 26.3132C46.9872 27.3355 47.8285 28.1842 48.8356 28.7822C49.8554 29.3866 50.958 29.6888 52.1563 29.6888C53.3099 29.6952 54.4445 29.3801 55.4324 28.7822C56.4331 28.1842 57.2553 27.3355 57.8289 26.3132C58.4217 25.2652 58.7213 24.0822 58.7085 22.8798C58.7085 21.6325 58.4153 20.4945 57.8289 19.4593C57.2617 18.4499 56.4331 17.6076 55.4324 17.0225C54.4381 16.431 53.3099 16.1224 52.1563 16.1288C50.9835 16.1224 49.8362 16.431 48.8228 17.0225Z" fill="white"/>
</g>
<defs>
<clipPath id="clip0_4973_4535">
<rect width="167.548" height="44.911" fill="white"/>
</clipPath>
</defs>
</svg>
