<svg width="168" height="45" viewBox="0 0 168 45" fill="none" xmlns="http://www.w3.org/2000/svg">
<g clip-path="url(#clip0_3615_3650)">
<path d="M15.1843 6.45508C20.3407 6.45508 28.1294 8.05604 31.7497 11.7273C32.6675 12.6596 33.8722 14.4792 33.8722 17.1539C33.8722 21.8989 30.0925 29.1836 25.9241 33.4143C23.7698 35.6003 20.3407 38.4551 15.7261 38.4551C11.2135 38.4551 7.77165 35.356 6.77734 34.3402C2.95309 30.4695 0.21875 24.5929 0.21875 19.1213C0.21875 15.6622 1.19393 12.6403 3.67332 10.1264C5.96787 7.80529 9.92597 6.45508 15.1843 6.45508ZM21.5644 25.3902C23.3045 23.6285 23.7761 21.4553 23.7761 20.2594C23.7761 19.3914 23.5531 18.1248 22.4823 17.0382C20.8442 15.3729 19.0213 14.9035 17.0455 14.9035C14.5406 14.9035 12.8579 15.7072 11.7361 16.8388C10.8565 17.739 10.0981 19.1021 10.0981 21.0502C10.0981 22.9919 11.1242 24.8694 12.2333 26.001C13.2658 27.0426 14.8848 27.8141 16.5101 27.8141C18.1417 27.8141 19.8244 27.1519 21.5644 25.3902Z" fill="#1A1A1C" fill-opacity="0.4"/>
<path d="M166.28 19.0931C167.268 20.1411 167.765 21.562 167.765 23.3623V32.8331H164.101V24.436C164.101 23.3752 163.801 22.5393 163.202 21.9285C162.603 21.3177 161.793 21.0091 160.767 21.0091C159.556 21.0284 158.594 21.4463 157.886 22.2564C157.179 23.0665 156.822 24.1081 156.822 25.3748V32.8331H153.182V11.7891H156.822V20.5526C157.848 18.5658 159.652 17.5564 162.227 17.5178C163.935 17.5178 165.292 18.0386 166.28 19.0931ZM145.088 20.7776C143.877 20.7776 142.889 21.1955 142.137 22.0249C141.384 22.8608 141.002 23.9345 141.002 25.259C141.002 26.6221 141.384 27.7151 142.137 28.551C142.895 29.3804 143.877 29.7983 145.094 29.7983C146.885 29.7983 148.23 29.2004 149.129 28.0109L151.398 29.914C150.728 30.8978 149.811 31.6822 148.74 32.1837C147.637 32.7109 146.362 32.9745 144.903 32.9745C143.43 32.9745 142.117 32.653 140.97 32.0101C139.842 31.3864 138.911 30.4413 138.3 29.3032C137.662 28.1395 137.344 26.8021 137.344 25.2912C137.344 23.7609 137.669 22.4043 138.312 21.2341C138.931 20.0832 139.868 19.1445 141.002 18.5144C142.149 17.8714 143.469 17.55 144.967 17.55C146.331 17.55 147.548 17.7879 148.619 18.2701C149.689 18.7523 150.563 19.4403 151.238 20.3275L149.027 22.4557C148 21.337 146.694 20.7776 145.088 20.7776ZM135.017 17.6593V32.8331H131.378V30.422C130.861 31.2321 130.141 31.8943 129.293 32.338C128.446 32.7816 127.471 33.0067 126.368 33.0067C124.947 33.0067 123.704 32.6788 122.627 32.0294C121.556 31.38 120.714 30.4606 120.122 29.2775C119.529 28.0945 119.229 26.7378 119.229 25.2076C119.229 23.6966 119.529 22.3593 120.128 21.1955C120.721 20.0318 121.562 19.1316 122.633 18.4887C123.704 17.8457 124.94 17.5242 126.342 17.5242C127.445 17.5242 128.427 17.7493 129.281 18.1929C130.135 18.6366 130.861 19.2924 131.378 20.1089V17.6721L135.017 17.6593ZM130.058 28.7889C130.823 28.043 131.263 27.0529 131.378 25.8248V24.7511C131.263 23.5166 130.83 22.5329 130.065 21.7871C129.3 21.0412 128.331 20.6683 127.152 20.6683C125.903 20.6683 124.883 21.0991 124.099 21.9607C123.315 22.8222 122.913 23.9345 122.894 25.2912C122.913 26.6542 123.315 27.7601 124.099 28.6217C124.883 29.4833 125.903 29.914 127.152 29.914C128.325 29.914 129.293 29.5411 130.058 28.7889ZM115.564 19.6139C116.769 20.9962 117.368 22.9315 117.368 25.4262C117.368 25.9148 117.355 26.2878 117.343 26.5321H106.284C106.526 27.6122 107.024 28.4545 107.782 29.0718C108.534 29.689 109.465 29.9912 110.567 29.9912C111.32 29.9912 112.072 29.8433 112.766 29.5476C113.461 29.2646 114.086 28.8339 114.602 28.2874L116.559 30.3577C115.8 31.2 114.87 31.8558 113.824 32.2866C112.754 32.743 111.562 32.9681 110.255 32.9681C108.725 32.9681 107.374 32.6466 106.208 32.0037C105.067 31.3864 104.124 30.4413 103.505 29.2968C102.868 28.133 102.556 26.7957 102.556 25.2847C102.556 23.7738 102.874 22.43 103.524 21.2598C104.149 20.1089 105.086 19.1574 106.227 18.5208C107.387 17.865 108.7 17.5435 110.172 17.5435C112.562 17.5435 114.36 18.2379 115.564 19.6139ZM114.041 24.0696C114.003 22.9508 113.64 22.0635 112.951 21.4013C112.263 20.739 111.345 20.4047 110.204 20.4047C109.14 20.4047 108.247 20.7326 107.527 21.382C106.807 22.0314 106.367 22.9251 106.195 24.0631H114.041V24.0696ZM98.5975 18.3279C99.4643 17.8071 100.478 17.5371 101.638 17.5178V21.0927C100.089 20.9962 98.8524 21.3627 97.9282 22.1857C97.004 23.0087 96.5388 24.121 96.5388 25.5162V32.8331H92.8994V17.6593H96.5388V20.5783C97.0487 19.5946 97.7307 18.8423 98.5975 18.3279ZM90.1714 31.8943C88.9795 32.6337 87.7239 33.0002 86.4172 33.0002C85.1297 33.0002 84.0717 32.6145 83.2559 31.8493C82.4337 31.0842 82.0257 29.9526 82.0257 28.461V14.1101L85.6397 13.6729V18.2765H89.9228V20.9705H85.6397V27.8116C85.6397 28.5124 85.7671 29.0075 86.0285 29.2968C86.2898 29.5926 86.6786 29.734 87.2012 29.734C87.7621 29.734 88.4696 29.5283 89.33 29.1103L90.1714 31.8943ZM75.2823 17.6593H78.8962V26.1656C78.8962 31.1292 75.4735 32.9745 71.9998 32.9745C68.5261 32.9745 65.1098 31.1292 65.1098 26.1656V17.6593H68.7237V26.2942C68.7237 28.1973 70.1259 29.7404 72.0062 29.7404C73.8865 29.7404 75.2887 28.1973 75.2887 26.2942L75.2823 17.6593ZM57.6206 14.0587C59.1822 14.9138 60.4825 16.1805 61.3875 17.7171C62.3053 19.2667 62.7579 20.9898 62.7579 22.8801C62.7579 24.7704 62.299 26.4935 61.3875 28.0559C60.4825 29.6054 59.1822 30.8849 57.6206 31.7593C56.0208 32.6659 54.2553 33.1224 52.3113 33.1224C50.3673 33.1224 48.6018 32.6659 47.0083 31.7593C45.4468 30.8849 44.1465 29.6054 43.2415 28.0559C42.33 26.4935 41.8711 24.7704 41.8711 22.8801C41.8711 20.9898 42.33 19.2667 43.2415 17.7171C44.1465 16.174 45.4468 14.9138 47.0083 14.0587C48.6018 13.1714 50.3737 12.7278 52.3113 12.7278C54.2553 12.7214 56.0272 13.165 57.6206 14.0587ZM49.0416 17.0227C48.0281 17.6014 47.1868 18.4437 46.6068 19.4595C46.0077 20.4947 45.7081 21.6327 45.7081 22.8801C45.7081 24.1274 46.014 25.2719 46.6195 26.3135C47.2059 27.3358 48.0473 28.1845 49.0543 28.7824C50.0741 29.3868 51.1768 29.689 52.375 29.689C53.5287 29.6954 54.6632 29.3804 55.6511 28.7824C56.6518 28.1845 57.474 27.3358 58.0477 26.3135C58.6404 25.2655 58.94 24.0824 58.9273 22.8801C58.9273 21.6327 58.6341 20.4947 58.0477 19.4595C57.4804 18.4501 56.6518 17.6078 55.6511 17.0227C54.6568 16.4312 53.5287 16.1226 52.375 16.129C51.2023 16.1226 50.055 16.4312 49.0416 17.0227Z" fill="#1A1A1C" fill-opacity="0.4"/>
</g>
<defs>
<clipPath id="clip0_3615_3650">
<rect width="167.548" height="44.911" fill="white" transform="translate(0.21875)"/>
</clipPath>
</defs>
</svg>
