<svg width="56" height="56" viewBox="0 0 56 56" fill="none" xmlns="http://www.w3.org/2000/svg">
<g id="Brand logo / reddit">
<path id="Icon" d="M28 3.5C14.4867 3.5 3.5 14.4867 3.5 28C3.5 41.5133 14.4867 52.5 28 52.5C41.5133 52.5 52.5 41.5133 52.5 28C52.5 14.4867 41.5133 3.5 28 3.5Z" fill="#FC471E"/>
<path id="Icon_2" fill-rule="evenodd" clip-rule="evenodd" d="M35.0337 15.5916C35.0115 15.7322 35 15.8765 35 16.0234C35 17.5076 36.1753 18.7107 37.625 18.7107C39.0747 18.7107 40.25 17.5076 40.25 16.0234C40.25 14.5393 39.0747 13.3362 37.625 13.3362C36.979 13.3362 36.3875 13.5751 35.9302 13.9713L29.1133 12.25L26.6495 22.3389C23.3719 22.5597 20.4242 23.5758 18.2005 25.1099C17.5692 24.476 16.7042 24.0851 15.75 24.0851C13.817 24.0851 12.25 25.6893 12.25 27.6681C12.25 29.0452 13.0089 30.2408 14.1219 30.8407C14.0415 31.268 14 31.704 14 32.1468C14 37.5886 20.268 42 28 42C35.732 42 42 37.5886 42 32.1468C42 31.704 41.9585 31.268 41.8781 30.8407C42.9911 30.2408 43.75 29.0452 43.75 27.6681C43.75 25.6893 42.183 24.0851 40.25 24.0851C39.2958 24.0851 38.4308 24.476 37.7995 25.1099C35.3768 23.4386 32.0948 22.382 28.4631 22.2989L30.3867 14.4225L35.0337 15.5916ZM21.875 33.0426C23.3247 33.0426 24.5 31.8395 24.5 30.3553C24.5 28.8712 23.3247 27.6681 21.875 27.6681C20.4253 27.6681 19.25 28.8712 19.25 30.3553C19.25 31.8395 20.4253 33.0426 21.875 33.0426ZM34.125 33.0426C35.5747 33.0426 36.75 31.8395 36.75 30.3553C36.75 28.8712 35.5747 27.6681 34.125 27.6681C32.6753 27.6681 31.5 28.8712 31.5 30.3553C31.5 31.8395 32.6753 33.0426 34.125 33.0426ZM22.3604 35.8802C21.9583 35.6058 21.415 35.717 21.147 36.1287C20.8789 36.5403 20.9876 37.0964 21.3896 37.3708C23.2938 38.6704 25.6469 39.3201 28 39.3201C30.3531 39.3201 32.7062 38.6704 34.6104 37.3708C35.0125 37.0964 35.1211 36.5403 34.853 36.1287C34.585 35.717 34.0417 35.6058 33.6396 35.8802C32.0294 36.9792 30.0147 37.5286 28 37.5286C26.8052 37.5286 25.6104 37.3354 24.5 36.9489C23.738 36.6837 23.0157 36.3275 22.3604 35.8802Z" fill="white"/>
</g>
</svg>
