<svg width="136" height="45" viewBox="0 0 136 45" fill="none" xmlns="http://www.w3.org/2000/svg">
<g clip-path="url(#clip0_3926_6833)">
<path d="M15.0825 30.7421C14.7017 30.7839 14.596 30.2618 14.9556 30.1574C14.9768 30.1574 14.9768 30.1574 14.9979 30.1365C22.5075 28.0481 28.0075 24.2681 27.2883 21.6992C26.5478 19.1305 19.8633 18.7337 12.3536 20.8222C4.844 22.9105 -0.656011 26.6906 0.0632211 29.2593C2.17861 36.6733 9.98439 41.0172 17.494 38.9288C23.6075 37.2372 27.6479 31.8073 27.796 25.8552C22.3595 30.4706 15.0825 30.7421 15.0825 30.7421Z" fill="#F54547"/>
<path d="M22.5274 11.7977C21.2158 7.18225 16.3504 4.48817 11.6543 5.78299C8.1004 6.78543 5.64655 9.81366 5.28694 13.2596C5.92155 12.8419 8.73502 11.1711 13.0082 10.8996C13.1139 10.8996 13.1774 10.8788 13.1774 10.8788C13.41 10.837 13.4734 11.192 13.2619 11.2547H13.2407C8.54464 12.5495 5.11771 14.9094 5.56193 16.5175C6.02732 18.1255 10.1735 18.3554 14.8697 17.0605C19.5658 15.7448 22.9927 13.4058 22.5274 11.7977Z" fill="#F54547"/>
<path d="M42.8614 33.2916C40.3017 33.1455 37.0864 31.4121 35.7959 30.1172L38.6306 26.546C39.3287 27.3187 42.671 29.2193 44.9556 28.8016C45.569 28.6763 46.2671 28.1541 46.2671 27.3396C46.3095 26.7966 45.844 26.2954 45.4421 26.1074C45.0613 25.8359 43.8556 25.7942 43.0729 25.7524C42.1844 25.7106 41.1691 25.6062 40.0902 25.1676C38.1017 24.207 36.7056 22.223 36.6421 20.1137C36.6421 17.6284 37.6574 16.2501 38.694 15.3938C40.7883 13.7857 43.7075 13.6395 45.7171 14.1617C47.3036 14.5376 49.0594 15.3938 50.096 16.3754L47.494 19.9675C47.1132 19.696 45.2728 18.8606 44.5748 18.6727C43.4959 18.3594 42.121 18.5265 41.5075 18.9024C41.3171 19.0068 41.0422 19.4454 41.1268 19.9675C41.1268 20.3433 41.4863 20.8863 41.7402 21.0325C42.2902 21.304 42.7979 21.4502 43.5171 21.492C44.5325 21.492 46.2248 21.492 47.5152 22.0977C49.6517 23.2463 50.8998 25.2094 50.7305 27.4649C50.6036 29.428 49.2498 31.3285 47.4729 32.2475C46.1614 33.1036 44.3844 33.4169 42.8614 33.2916Z" fill="#2A3137"/>
<path d="M61.7277 33.1044C59.2104 33.1044 56.8411 32.1438 55.0219 30.4313C53.1603 28.6771 52.1027 26.2962 52.0815 23.7275C52.0392 21.1586 53.0122 18.757 54.7892 16.8983C56.5661 15.1022 58.9777 14.0163 61.5796 13.9954C64.1815 13.9536 66.5931 14.9143 68.4546 16.6685L65.2393 19.9682C64.3084 19.0912 63.0604 18.5899 61.7489 18.5899H61.6643C60.3103 18.5899 59.0623 19.1329 58.1316 20.0935C57.2007 21.0542 56.693 22.3073 56.7353 23.6648C56.7353 25.0013 57.2854 26.2335 58.2584 27.1525C59.2315 28.0714 60.5007 28.5725 61.8758 28.5309C63.1238 28.5309 64.2873 28.0295 65.2181 27.1942L68.37 30.5566C66.6142 32.1647 64.3296 33.0835 61.9603 33.1253H61.7277V33.1044Z" fill="#2A3137"/>
<path d="M87.8565 14.0571V33.1453H83.9853V31.4119C82.3988 32.4771 80.495 33.1453 78.443 33.1453C73.0911 33.1453 68.7334 28.8222 68.7334 23.5595C68.7334 18.2757 73.07 13.9736 78.443 13.9736C80.495 13.9736 82.3988 14.621 83.9853 15.707V14.0571H87.8565ZM83.4565 23.5595C83.4565 20.8027 81.2141 18.589 78.4007 18.589C75.6507 18.589 73.3872 20.8027 73.3872 23.5595C73.3872 26.2744 75.6295 28.5091 78.4007 28.5091C81.2141 28.5091 83.4565 26.2744 83.4565 23.5595Z" fill="#2A3137"/>
<path d="M110.15 23.9382C110.15 29.1802 105.835 33.4406 100.567 33.4406C98.5788 33.4406 96.7595 32.8349 95.2576 31.8326V39.4553H90.6462V14.1853H95.2576V16.1067C96.7807 15.0625 98.5999 14.4986 100.567 14.4986C105.856 14.4777 110.15 18.7381 110.15 23.9382ZM105.538 23.9382C105.538 21.2233 103.317 19.0305 100.567 19.0305C97.8173 19.0305 95.5538 21.2233 95.5538 23.9382C95.5538 26.6532 97.7962 28.8878 100.567 28.8878C103.317 28.8878 105.538 26.6741 105.538 23.9382Z" fill="#2A3137"/>
<path d="M114.337 11.909C112.603 11.909 111.206 10.5306 111.206 8.75543V8.5466C111.206 6.83407 112.603 5.45572 114.337 5.45572C116.114 5.45572 117.574 6.83407 117.574 8.5466V8.75543C117.574 10.5097 116.114 11.909 114.337 11.909ZM116.749 33.023H112.18V13.9974H116.749V33.023Z" fill="#2A3137"/>
<path d="M128.429 33.1044C125.912 33.1044 123.543 32.1438 121.723 30.4313C119.862 28.6771 118.804 26.2962 118.783 23.7275C118.741 21.1586 119.714 18.757 121.491 16.8983C123.268 15.1022 125.679 14.0163 128.281 13.9954C130.884 13.9536 133.295 14.9143 135.156 16.6685L131.941 19.9682C131.01 19.0912 129.762 18.5899 128.451 18.5899H128.366C127.011 18.5899 125.763 19.1329 124.833 20.0935C123.902 21.0542 123.395 22.3073 123.437 23.6648C123.437 25.0013 123.987 26.2335 124.96 27.1525C125.933 28.0714 127.203 28.5725 128.578 28.5309C129.826 28.5309 130.989 28.0295 131.92 27.1942L135.072 30.5566C133.315 32.1647 131.031 33.0835 128.662 33.1253H128.429V33.1044Z" fill="#2A3137"/>
</g>
<defs>
<clipPath id="clip0_3926_6833">
<rect width="135.156" height="44.911" fill="white"/>
</clipPath>
</defs>
</svg>
