<svg width="136" height="45" viewBox="0 0 136 45" fill="none" xmlns="http://www.w3.org/2000/svg">
<g clip-path="url(#clip0_4451_4483)">
<path d="M15.0825 30.742C14.7017 30.7838 14.596 30.2618 14.9556 30.1574C14.9768 30.1574 14.9768 30.1574 14.9979 30.1365C22.5075 28.048 28.0075 24.268 27.2883 21.6992C26.5478 19.1304 19.8633 18.7336 12.3536 20.8221C4.844 22.9104 -0.656011 26.6905 0.0632211 29.2593C2.17861 36.6732 9.98439 41.0171 17.494 38.9288C23.6075 37.2371 27.6479 31.8072 27.796 25.8552C22.3595 30.4705 15.0825 30.742 15.0825 30.742Z" fill="#F54547"/>
<path d="M22.5274 11.7976C21.2158 7.18219 16.3504 4.48811 11.6543 5.78293C8.1004 6.78537 5.64655 9.8136 5.28694 13.2595C5.92155 12.8418 8.73502 11.1711 13.0082 10.8996C13.1139 10.8996 13.1774 10.8787 13.1774 10.8787C13.41 10.8369 13.4734 11.192 13.2619 11.2546H13.2407C8.54464 12.5494 5.11771 14.9094 5.56193 16.5175C6.02732 18.1255 10.1735 18.3553 14.8697 17.0604C19.5658 15.7447 22.9927 13.4057 22.5274 11.7976Z" fill="#F54547"/>
<path d="M42.8624 33.2917C40.3027 33.1455 37.0873 31.4122 35.7969 30.1173L38.6316 26.5461C39.3297 27.3188 42.672 29.2193 44.9566 28.8017C45.57 28.6764 46.2681 28.1542 46.2681 27.3397C46.3104 26.7967 45.845 26.2955 45.4431 26.1075C45.0623 25.836 43.8565 25.7943 43.0739 25.7525C42.1854 25.7107 41.1701 25.6063 40.0911 25.1677C38.1027 24.207 36.7066 22.2231 36.6431 20.1137C36.6431 17.6285 37.6584 16.2502 38.695 15.3939C40.7893 13.7858 43.7085 13.6396 45.7181 14.1617C47.3046 14.5377 49.0604 15.3939 50.097 16.3755L47.495 19.9676C47.1142 19.6961 45.2738 18.8607 44.5758 18.6728C43.4969 18.3595 42.1219 18.5266 41.5084 18.9025C41.318 19.0069 41.0431 19.4455 41.1278 19.9676C41.1278 20.3434 41.4873 20.8864 41.7411 21.0326C42.2912 21.3041 42.7989 21.4503 43.5181 21.4921C44.5335 21.4921 46.2258 21.4921 47.5162 22.0978C49.6527 23.2464 50.9008 25.2095 50.7315 27.465C50.6046 29.4281 49.2508 31.3286 47.4738 32.2476C46.1623 33.1037 44.3854 33.417 42.8624 33.2917Z" fill="white"/>
<path d="M61.7287 33.1045C59.2113 33.1045 56.8421 32.1438 55.0228 30.4314C53.1613 28.6771 52.1037 26.2963 52.0825 23.7276C52.0402 21.1587 53.0132 18.7571 54.7901 16.8984C56.5671 15.1023 58.9786 14.0163 61.5806 13.9955C64.1825 13.9537 66.594 14.9144 68.4556 16.6686L65.2402 19.9683C64.3094 19.0913 63.0614 18.59 61.7499 18.59H61.6652C60.3113 18.59 59.0633 19.133 58.1326 20.0936C57.2017 21.0543 56.694 22.3074 56.7363 23.6648C56.7363 25.0014 57.2863 26.2336 58.2594 27.1526C59.2325 28.0714 60.5017 28.5726 61.8768 28.5309C63.1248 28.5309 64.2882 28.0296 65.2191 27.1943L68.371 30.5567C66.6152 32.1647 64.3306 33.0836 61.9613 33.1254H61.7287V33.1045Z" fill="white"/>
<path d="M87.8575 14.0572V33.1454H83.9863V31.412C82.3998 32.4771 80.4959 33.1454 78.444 33.1454C73.0921 33.1454 68.7344 28.8223 68.7344 23.5596C68.7344 18.2758 73.0709 13.9737 78.444 13.9737C80.4959 13.9737 82.3998 14.6211 83.9863 15.7071V14.0572H87.8575ZM83.4574 23.5596C83.4574 20.8028 81.2151 18.5891 78.4017 18.5891C75.6516 18.5891 73.3881 20.8028 73.3881 23.5596C73.3881 26.2745 75.6305 28.5091 78.4017 28.5091C81.2151 28.5091 83.4574 26.2745 83.4574 23.5596Z" fill="white"/>
<path d="M110.151 23.9383C110.151 29.1803 105.836 33.4407 100.568 33.4407C98.5798 33.4407 96.7605 32.835 95.2586 31.8327V39.4554H90.6471V14.1854H95.2586V16.1068C96.7817 15.0625 98.6009 14.4987 100.568 14.4987C105.857 14.4778 110.151 18.7382 110.151 23.9383ZM105.539 23.9383C105.539 21.2234 103.318 19.0306 100.568 19.0306C97.8183 19.0306 95.5548 21.2234 95.5548 23.9383C95.5548 26.6533 97.7971 28.8879 100.568 28.8879C103.318 28.8879 105.539 26.6742 105.539 23.9383Z" fill="white"/>
<path d="M114.338 11.909C112.604 11.909 111.207 10.5307 111.207 8.75552V8.54669C111.207 6.83417 112.604 5.45581 114.338 5.45581C116.115 5.45581 117.575 6.83417 117.575 8.54669V8.75552C117.575 10.5098 116.115 11.909 114.338 11.909ZM116.75 33.0231H112.181V13.9975H116.75V33.0231Z" fill="white"/>
<path d="M128.43 33.1045C125.913 33.1045 123.544 32.1438 121.724 30.4314C119.863 28.6771 118.805 26.2963 118.784 23.7276C118.742 21.1587 119.715 18.7571 121.492 16.8984C123.269 15.1023 125.68 14.0163 128.282 13.9955C130.885 13.9537 133.296 14.9144 135.157 16.6686L131.942 19.9683C131.01 19.0913 129.763 18.59 128.452 18.59H128.367C127.012 18.59 125.764 19.133 124.834 20.0936C123.903 21.0543 123.396 22.3074 123.438 23.6648C123.438 25.0014 123.988 26.2336 124.961 27.1526C125.934 28.0714 127.204 28.5726 128.579 28.5309C129.827 28.5309 130.99 28.0296 131.921 27.1943L135.073 30.5567C133.316 32.1647 131.032 33.0836 128.663 33.1254H128.43V33.1045Z" fill="white"/>
</g>
<defs>
<clipPath id="clip0_4451_4483">
<rect width="135.156" height="44.911" fill="white"/>
</clipPath>
</defs>
</svg>
