<svg width="138" height="45" viewBox="0 0 138 45" fill="none" xmlns="http://www.w3.org/2000/svg">
<path d="M19.037 4.45551C9.09615 4.45551 1.03711 12.5145 1.03711 22.4556C1.03711 32.3971 9.09615 40.4555 19.037 40.4555C28.9789 40.4555 37.0371 32.3971 37.0371 22.4556C37.0371 12.5152 28.9789 4.45637 19.0368 4.45637L19.037 4.45551ZM27.2916 30.4168C26.9692 30.9456 26.2771 31.1133 25.7484 30.7887C21.5222 28.2072 16.2019 27.6225 9.93636 29.0541C9.33258 29.1916 8.73075 28.8133 8.59318 28.2093C8.45498 27.6053 8.83177 27.0035 9.43705 26.8659C16.2937 25.2994 22.1752 25.9739 26.9198 28.8735C27.4485 29.1981 27.6162 29.8881 27.2916 30.4168ZM29.4948 25.5156C29.0886 26.1759 28.2245 26.3844 27.5646 25.9782C22.7263 23.0042 15.351 22.1429 9.62813 23.8801C8.88593 24.1043 8.10204 23.686 7.87678 22.945C7.65324 22.2028 8.07173 21.4204 8.81264 21.1947C15.3497 19.2112 23.4764 20.172 29.0327 23.5864C29.6925 23.9927 29.901 24.8566 29.4948 25.5156ZM29.6839 20.4119C23.8827 16.9661 14.3113 16.6492 8.77245 18.3303C7.88302 18.6001 6.94243 18.098 6.67289 17.2085C6.40335 16.3187 6.90503 15.3787 7.7951 15.1083C14.1533 13.1781 24.7231 13.551 31.4022 17.5161C32.2039 17.9909 32.4662 19.0242 31.9911 19.8232C31.5183 20.6232 30.4814 20.8869 29.6839 20.4119Z" fill="#1ED760"/>
<path d="M53.8351 19.4514C50.2089 18.5867 49.5644 17.9799 49.5644 16.7047C49.5644 15.5 50.6979 14.6892 52.3856 14.6892C54.0206 14.6892 55.6406 15.3049 57.3408 16.5723C57.391 16.6106 57.4562 16.6259 57.5189 16.6159C57.5841 16.6064 57.6393 16.5715 57.6769 16.5191L59.4473 14.0234C59.5201 13.9206 59.5 13.7789 59.4022 13.7004C57.3785 12.0772 55.1015 11.288 52.4383 11.288C48.5237 11.288 45.7878 13.6375 45.7878 16.9991C45.7878 20.6039 48.1476 21.8804 52.2251 22.8656C55.6933 23.6649 56.2801 24.3344 56.2801 25.5311C56.2801 26.8577 55.0964 27.6827 53.1906 27.6827C51.0741 27.6827 49.3462 26.968 47.4153 25.2979C47.3677 25.2553 47.3025 25.2377 47.2423 25.2402C47.1771 25.2452 47.1194 25.2753 47.0793 25.323L45.0932 27.6852C45.0104 27.7855 45.0204 27.931 45.1157 28.0162C47.3626 30.0224 50.1261 31.0807 53.1103 31.0807C57.3283 31.0807 60.0542 28.7761 60.0542 25.2076C60.0617 22.1966 58.2587 20.529 53.8426 19.4547L53.8351 19.4514ZM69.5986 15.8754C67.7705 15.8754 66.2708 16.5956 65.032 18.0714V16.4103C65.032 16.2791 64.9267 16.1723 64.7963 16.1723H61.5488C61.4184 16.1723 61.3131 16.2791 61.3131 16.4103V34.8673C61.3131 34.9977 61.4184 35.1056 61.5488 35.1056H64.7963C64.9267 35.1056 65.032 34.9977 65.032 34.8673V29.0419C66.2708 30.4287 67.7705 31.1083 69.5986 31.1083C72.9965 31.1083 76.4371 28.4927 76.4371 23.4926C76.4421 18.4914 73.0015 15.8751 69.6011 15.8751L69.5986 15.8754ZM72.6605 23.4926C72.6605 26.0377 71.0932 27.8156 68.8463 27.8156C66.6269 27.8156 64.9518 25.9574 64.9518 23.4926C64.9518 21.0275 66.6269 19.1698 68.8463 19.1698C71.0556 19.1695 72.6605 20.9874 72.6605 23.4926ZM85.2518 15.8754C80.8758 15.8754 77.4477 19.2448 77.4477 23.547C77.4477 27.8031 80.8532 31.1358 85.1991 31.1358C89.5901 31.1358 93.0282 27.778 93.0282 23.4926C93.0282 19.2217 89.6127 15.8754 85.2518 15.8754ZM85.2518 27.8407C82.9246 27.8407 81.1692 25.9699 81.1692 23.4913C81.1692 21.0014 82.8644 19.1946 85.1991 19.1946C87.5413 19.1946 89.3067 21.0646 89.3067 23.5457C89.3067 26.0352 87.6015 27.8407 85.2518 27.8407ZM102.372 16.1723H98.7985V12.5196C98.7985 12.3887 98.6931 12.2818 98.5627 12.2818H95.3152C95.1848 12.2818 95.077 12.3887 95.077 12.5196V16.1723H93.5172C93.3868 16.1723 93.2815 16.2791 93.2815 16.4103V19.2006C93.2815 19.3315 93.3868 19.4386 93.5172 19.4386H95.077V26.6596C95.077 29.576 96.529 31.0556 99.3953 31.0556C100.559 31.0556 101.524 30.8149 102.435 30.2983C102.51 30.2581 102.555 30.1779 102.555 30.0926V27.4345C102.555 27.3542 102.512 27.2765 102.442 27.2338C102.372 27.1887 102.284 27.1862 102.211 27.2238C101.587 27.5373 100.983 27.6827 100.306 27.6827C99.2649 27.6827 98.7985 27.2088 98.7985 26.1505V19.4399H102.372C102.502 19.4399 102.608 19.333 102.608 19.2019V16.4118C102.613 16.2806 102.507 16.1738 102.374 16.1738L102.372 16.1723ZM114.82 16.1866V15.738C114.82 14.4182 115.327 13.8296 116.46 13.8296C117.137 13.8296 117.682 13.964 118.291 14.1671C118.366 14.1907 118.444 14.1789 118.504 14.134C118.567 14.0891 118.602 14.0172 118.602 13.9409V11.205C118.602 11.1004 118.537 11.0079 118.434 10.9771C117.792 10.7857 116.969 10.5894 115.736 10.5894C112.739 10.5894 111.151 12.2781 111.151 15.4711V16.1583H109.592C109.461 16.1583 109.353 16.2651 109.353 16.396V19.2006C109.353 19.3315 109.461 19.4386 109.592 19.4386H111.151V30.5741C111.151 30.707 111.259 30.8124 111.39 30.8124H114.635C114.768 30.8124 114.873 30.707 114.873 30.5741V19.4394H117.905L122.549 30.5741C122.022 31.7427 121.503 31.9759 120.796 31.9759C120.224 31.9759 119.62 31.8054 119.006 31.4669C118.948 31.4368 118.878 31.4318 118.818 31.4493C118.755 31.4719 118.702 31.517 118.677 31.5772L117.576 33.9921C117.524 34.1075 117.569 34.2404 117.679 34.3006C118.828 34.9225 119.863 35.1883 121.145 35.1883C123.542 35.1883 124.869 34.0699 126.035 31.0656L131.667 16.5116C131.697 16.4384 131.687 16.3556 131.642 16.2907C131.599 16.2262 131.527 16.1873 131.449 16.1873H128.069C127.966 16.1873 127.875 16.2518 127.843 16.3468L124.38 26.2358L120.588 16.3403C120.553 16.2483 120.465 16.1873 120.367 16.1873L114.82 16.1866ZM107.603 16.1723H104.356C104.225 16.1723 104.117 16.2791 104.117 16.4103V30.5741C104.117 30.707 104.225 30.8124 104.356 30.8124H107.603C107.733 30.8124 107.841 30.707 107.841 30.5741V16.4113C107.841 16.2801 107.736 16.1733 107.603 16.1733V16.1723ZM105.998 9.7227C104.712 9.7227 103.668 10.7639 103.668 12.0501C103.668 13.3371 104.712 14.3795 105.998 14.3795C107.285 14.3795 108.325 13.3371 108.325 12.0501C108.325 10.7642 107.282 9.7227 105.998 9.7227ZM134.441 20.7266C133.157 20.7266 132.156 19.6946 132.156 18.4415C132.156 17.1884 133.169 16.1447 134.453 16.1447C135.737 16.1447 136.738 17.1764 136.738 18.4285C136.738 19.6816 135.725 20.7266 134.441 20.7266ZM134.453 16.3719C133.282 16.3719 132.397 17.3023 132.397 18.4415C132.397 19.5803 133.277 20.4981 134.441 20.4981C135.612 20.4981 136.497 19.5685 136.497 18.4285C136.497 17.2897 135.617 16.3719 134.453 16.3719ZM134.96 18.6635L135.607 19.5683H135.06L134.478 18.7382H133.979V19.5683H133.523V17.1699H134.591C135.15 17.1699 135.516 17.455 135.516 17.935C135.519 18.3282 135.291 18.5684 134.962 18.6635H134.96ZM134.574 17.5814H133.979V18.34H134.574C134.869 18.34 135.048 18.1948 135.048 17.9603C135.048 17.7135 134.869 17.5814 134.574 17.5814Z" fill="#1ED760"/>
</svg>
