<svg width="138" height="45" viewBox="0 0 138 45" fill="none" xmlns="http://www.w3.org/2000/svg">
<path d="M19.035 4.45557C9.09419 4.45557 1.03516 12.5146 1.03516 22.4557C1.03516 32.3972 9.09419 40.4556 19.035 40.4556C28.977 40.4556 37.0352 32.3972 37.0352 22.4557C37.0352 12.5152 28.977 4.45643 19.0348 4.45643L19.035 4.45557ZM27.2897 30.4169C26.9673 30.9457 26.2752 31.1133 25.7464 30.7887C21.5202 28.2072 16.2 27.6226 9.9344 29.0541C9.33063 29.1917 8.72879 28.8134 8.59123 28.2094C8.45302 27.6054 8.82982 27.0035 9.43509 26.866C16.2917 25.2994 22.1732 25.9739 26.9178 28.8736C27.4466 29.1981 27.6142 29.8881 27.2897 30.4169ZM29.4928 25.5157C29.0866 26.176 28.2225 26.3845 27.5627 25.9782C22.7243 23.0042 15.349 22.1429 9.62618 23.8801C8.88398 24.1043 8.10009 23.686 7.87483 22.9451C7.65129 22.2029 8.06978 21.4205 8.81069 21.1948C15.3477 19.2113 23.4745 20.1721 29.0307 23.5865C29.6906 23.9928 29.8991 24.8566 29.4928 25.5157ZM29.682 20.412C23.8807 16.9661 14.3093 16.6493 8.77049 18.3304C7.88106 18.6002 6.94047 18.098 6.67094 17.2086C6.4014 16.3187 6.90307 15.3788 7.79315 15.1083C14.1514 13.1781 24.7211 13.5511 31.4002 17.5162C32.202 17.991 32.4642 19.0243 31.9892 19.8232C31.5163 20.6232 30.4794 20.887 29.682 20.412Z" fill="#1ED760"/>
<path d="M53.8331 19.4513C50.2069 18.5867 49.5625 17.9798 49.5625 16.7046C49.5625 15.4999 50.6959 14.6892 52.3836 14.6892C54.0187 14.6892 55.6387 15.3048 57.3389 16.5722C57.389 16.6106 57.4542 16.6259 57.5169 16.6159C57.5821 16.6063 57.6373 16.5715 57.6749 16.5191L59.4454 14.0234C59.5181 13.9206 59.498 13.7789 59.4002 13.7004C57.3765 12.0772 55.0995 11.288 52.4363 11.288C48.5218 11.288 45.7858 13.6375 45.7858 16.999C45.7858 20.6039 48.1456 21.8803 52.2231 22.8656C55.6913 23.6648 56.2781 24.3344 56.2781 25.5311C56.2781 26.8576 55.0945 27.6827 53.1886 27.6827C51.0721 27.6827 49.3443 26.968 47.4133 25.2978C47.3657 25.2552 47.3005 25.2377 47.2403 25.2402C47.1751 25.2452 47.1174 25.2753 47.0773 25.3229L45.0912 27.6852C45.0084 27.7855 45.0185 27.9309 45.1138 28.0162C47.3607 30.0224 50.1242 31.0806 53.1084 31.0806C57.3264 31.0806 60.0522 28.776 60.0522 25.2076C60.0598 22.1965 58.2567 20.5289 53.8406 19.4546L53.8331 19.4513ZM69.5966 15.8753C67.7685 15.8753 66.2689 16.5956 65.0301 18.0713V16.4102C65.0301 16.2791 64.9247 16.1723 64.7943 16.1723H61.5469C61.4165 16.1723 61.3111 16.2791 61.3111 16.4102V34.8673C61.3111 34.9977 61.4165 35.1055 61.5469 35.1055H64.7943C64.9247 35.1055 65.0301 34.9977 65.0301 34.8673V29.0419C66.2689 30.4286 67.7685 31.1082 69.5966 31.1082C72.9946 31.1082 76.4352 28.4927 76.4352 23.4925C76.4402 18.4914 72.9996 15.8751 69.5991 15.8751L69.5966 15.8753ZM72.6585 23.4925C72.6585 26.0376 71.0912 27.8156 68.8443 27.8156C66.625 27.8156 64.9498 25.9574 64.9498 23.4925C64.9498 21.0274 66.625 19.1697 68.8443 19.1697C71.0536 19.1695 72.6585 20.9873 72.6585 23.4925ZM85.2498 15.8753C80.8738 15.8753 77.4458 19.2447 77.4458 23.5469C77.4458 27.803 80.8513 31.1358 85.1971 31.1358C89.5882 31.1358 93.0262 27.778 93.0262 23.4925C93.0262 19.2216 89.6107 15.8753 85.2498 15.8753ZM85.2498 27.8407C82.9226 27.8407 81.1672 25.9699 81.1672 23.4913C81.1672 21.0014 82.8625 19.1946 85.1971 19.1946C87.5394 19.1946 89.3048 21.0646 89.3048 23.5457C89.3048 26.0351 87.5995 27.8407 85.2498 27.8407ZM102.37 16.1723H98.7965V12.5195C98.7965 12.3886 98.6912 12.2818 98.5608 12.2818H95.3133C95.1829 12.2818 95.075 12.3886 95.075 12.5195V16.1723H93.5152C93.3848 16.1723 93.2795 16.2791 93.2795 16.4102V19.2006C93.2795 19.3315 93.3848 19.4386 93.5152 19.4386H95.075V26.6595C95.075 29.576 96.527 31.0556 99.3933 31.0556C100.557 31.0556 101.522 30.8148 102.433 30.2982C102.508 30.2581 102.553 30.1779 102.553 30.0926V27.4344C102.553 27.3542 102.51 27.2764 102.44 27.2338C102.37 27.1887 102.282 27.1861 102.209 27.2238C101.585 27.5372 100.981 27.6827 100.304 27.6827C99.2629 27.6827 98.7965 27.2087 98.7965 26.1505V19.4398H102.37C102.5 19.4398 102.606 19.333 102.606 19.2018V16.4117C102.611 16.2806 102.505 16.1738 102.372 16.1738L102.37 16.1723ZM114.818 16.1865V15.7379C114.818 14.4181 115.325 13.8295 116.458 13.8295C117.135 13.8295 117.68 13.964 118.289 14.1671C118.364 14.1907 118.442 14.1789 118.502 14.134C118.565 14.0891 118.6 14.0171 118.6 13.9409V11.205C118.6 11.1004 118.535 11.0079 118.432 10.977C117.79 10.7857 116.967 10.5893 115.734 10.5893C112.737 10.5893 111.15 12.278 111.15 15.4711V16.1582H109.59C109.459 16.1582 109.351 16.265 109.351 16.3959V19.2006C109.351 19.3315 109.459 19.4386 109.59 19.4386H111.15V30.5741C111.15 30.707 111.257 30.8123 111.388 30.8123H114.633C114.766 30.8123 114.871 30.707 114.871 30.5741V19.4393H117.903L122.547 30.5741C122.02 31.7427 121.501 31.9759 120.794 31.9759C120.222 31.9759 119.618 31.8054 119.004 31.4668C118.946 31.4367 118.876 31.4317 118.816 31.4493C118.753 31.4718 118.7 31.517 118.675 31.5772L117.574 33.9921C117.522 34.1074 117.567 34.2404 117.677 34.3005C118.826 34.9225 119.861 35.1883 121.143 35.1883C123.54 35.1883 124.867 34.0698 126.033 31.0656L131.665 16.5115C131.695 16.4383 131.685 16.3556 131.64 16.2906C131.597 16.2262 131.525 16.1873 131.447 16.1873H128.067C127.964 16.1873 127.873 16.2517 127.841 16.3468L124.378 26.2357L120.586 16.3403C120.551 16.2482 120.463 16.1873 120.365 16.1873L114.818 16.1865ZM107.601 16.1723H104.354C104.223 16.1723 104.115 16.2791 104.115 16.4102V30.5741C104.115 30.707 104.223 30.8123 104.354 30.8123H107.601C107.731 30.8123 107.839 30.707 107.839 30.5741V16.4112C107.839 16.2801 107.734 16.1733 107.601 16.1733V16.1723ZM105.996 9.72266C104.71 9.72266 103.666 10.7639 103.666 12.0501C103.666 13.337 104.71 14.3795 105.996 14.3795C107.283 14.3795 108.323 13.337 108.323 12.0501C108.323 10.7641 107.28 9.72266 105.996 9.72266ZM134.439 20.7265C133.155 20.7265 132.154 19.6946 132.154 18.4415C132.154 17.1884 133.167 16.1447 134.451 16.1447C135.735 16.1447 136.736 17.1763 136.736 18.4284C136.736 19.6816 135.723 20.7265 134.439 20.7265ZM134.451 16.3719C133.28 16.3719 132.395 17.3022 132.395 18.4415C132.395 19.5802 133.275 20.4981 134.439 20.4981C135.61 20.4981 136.495 19.5685 136.495 18.4284C136.495 17.2897 135.615 16.3719 134.451 16.3719ZM134.958 18.6634L135.605 19.5682H135.058L134.476 18.7381H133.977V19.5682H133.521V17.1698H134.589C135.148 17.1698 135.515 17.455 135.515 17.9349C135.517 18.3281 135.289 18.5684 134.96 18.6634H134.958ZM134.572 17.5813H133.977V18.3399H134.572C134.868 18.3399 135.046 18.1947 135.046 17.9603C135.046 17.7135 134.868 17.5813 134.572 17.5813Z" fill="white"/>
</svg>
