<svg width="251" height="45" viewBox="0 0 251 45" fill="none" xmlns="http://www.w3.org/2000/svg">
<g clip-path="url(#clip0_3926_6824)">
<path d="M20.3664 13.4481C19.7635 12.7373 18.7859 12.7373 18.1834 13.4481L8.35878 25.0294C7.15241 26.4503 5.19792 26.4503 3.99242 25.0294C2.78568 23.608 2.78568 21.3037 3.99242 19.8815L13.6279 8.52374C12.4221 7.10198 10.4669 7.10198 9.26115 8.52374L1.80843 17.3087C-0.60281 20.1516 -0.60281 24.7601 1.80843 27.6033C4.2203 30.4464 8.12966 30.4464 10.5415 27.6033L20.3664 16.0219C20.9689 15.3112 20.9689 14.1588 20.3664 13.4481ZM23.6412 9.58804C21.2294 6.74466 17.32 6.74466 14.9081 9.58804L5.08379 21.1687C4.48129 21.879 4.48129 23.0321 5.08379 23.7425C5.68667 24.4531 6.66379 24.4531 7.26678 23.7425L17.092 12.1618C18.2977 10.74 20.2522 10.74 21.4577 12.1618C22.0612 12.872 23.0385 12.872 23.6413 12.1618C24.2442 11.4504 24.2442 10.2987 23.6413 9.58804H23.6412ZM26.9163 21.1687C26.3135 20.4588 25.3356 20.4588 24.7327 21.1687L14.9081 32.7499C13.7024 34.1712 11.7473 34.1712 10.5415 32.7499C9.93902 32.0397 8.96165 32.0397 8.35878 32.7499C7.75503 33.4608 7.75503 34.6133 8.35878 35.3232C10.7696 38.1663 14.68 38.1663 17.0919 35.3232L26.9163 23.7425C27.5188 23.0323 27.5188 21.8791 26.9163 21.1687ZM30.1916 17.3088C27.7797 14.4662 23.8697 14.4662 21.4585 17.3088L11.6333 28.8902C11.0304 29.6002 11.0304 30.7533 11.6333 31.4635C12.2365 32.1746 13.2141 32.1746 13.8166 31.4635L23.6412 19.8824C24.8466 18.4608 26.8021 18.4608 28.0076 19.8824C29.2133 21.3039 29.2133 23.6081 28.0076 25.0296L18.3721 36.3881C19.5779 37.809 21.5321 37.809 22.7388 36.3881L30.1916 27.6032C32.6028 24.7598 32.6028 20.1515 30.1916 17.3088Z" fill="#1A1918"/>
<path d="M43.2598 25.9418C43.4149 26.8414 43.905 27.6486 44.6316 28.2011C45.4649 28.7776 46.4651 29.0632 47.4773 29.0135C48.4405 29.0749 49.3942 28.7907 50.1669 28.2119C50.4748 27.9558 50.7202 27.6325 50.8842 27.2672C51.0483 26.9016 51.1268 26.5035 51.1136 26.1032C51.1245 25.7287 51.0373 25.3578 50.8607 25.0273C50.6839 24.7274 50.4411 24.4717 50.1507 24.2797C49.8043 24.0496 49.4277 23.8686 49.0317 23.7418L47.5364 23.2899L46.1109 22.9025C45.3205 22.6931 44.5515 22.4104 43.8138 22.058C43.1806 21.7585 42.595 21.3669 42.0764 20.8961C41.6138 20.4665 41.2471 19.944 41.0005 19.363C40.7374 18.7236 40.6092 18.0369 40.624 17.3457C40.6163 16.5799 40.7818 15.8223 41.1081 15.1294C41.4226 14.4551 41.8883 13.8624 42.469 13.3973C43.1079 12.886 43.8381 12.5008 44.6207 12.2622C45.5354 11.9724 46.491 11.8325 47.4504 11.848C49.4263 11.848 50.9916 12.3142 52.1464 13.2467C52.7187 13.7075 53.1934 14.278 53.5426 14.9245C53.8918 15.5711 54.1084 16.2808 54.1799 17.0122L50.9523 17.2758C50.7925 16.5352 50.3774 15.8744 49.7795 15.4091C49.0548 14.9246 48.1915 14.6904 47.3212 14.7421C46.4999 14.6938 45.6877 14.9335 45.0242 15.4199C44.7592 15.6264 44.5463 15.8921 44.4025 16.1957C44.2586 16.4993 44.1878 16.8323 44.1959 17.1682C44.1826 17.5262 44.2662 17.8812 44.4379 18.1956C44.611 18.4859 44.8484 18.7325 45.1317 18.9164C45.4773 19.1411 45.8495 19.322 46.24 19.4543C46.6757 19.6157 47.1705 19.788 47.7193 19.9654L49.0855 20.3904C49.9355 20.6593 50.7048 20.939 51.3933 21.2295C52.0265 21.4988 52.6158 21.8616 53.1416 22.3054C53.6155 22.7066 53.994 23.2082 54.2497 23.774C54.5264 24.4416 54.6585 25.1603 54.6371 25.8826C54.646 26.7271 54.4621 27.5624 54.0992 28.3249C53.749 29.0572 53.2378 29.701 52.6036 30.2076C51.9222 30.7465 51.1472 31.155 50.3174 31.4126C49.3722 31.7066 48.3864 31.8501 47.3966 31.8376C45.6459 31.9028 43.9186 31.4173 42.4583 30.4497C41.7765 29.9563 41.2056 29.3257 40.7823 28.5985C40.3589 27.8712 40.0924 27.0633 40 26.2269L43.2598 25.9418ZM68.2468 11.9018C69.5999 11.8843 70.9432 12.1329 72.2006 12.6334C73.3489 13.0933 74.3852 13.794 75.2399 14.6883C76.0975 15.6002 76.7617 16.6761 77.1925 17.8514C77.6656 19.1433 77.9007 20.5101 77.8865 21.8859C77.9057 23.2868 77.6556 24.6784 77.1496 25.9849C76.6777 27.1724 75.9653 28.2492 75.057 29.148L77.6175 32.1442V33.0749H74.3899L72.5987 30.8854C71.9496 31.196 71.2699 31.4376 70.5706 31.6063C69.8157 31.7676 69.0456 31.847 68.2737 31.843C66.905 31.8513 65.5484 31.588 64.2821 31.0683C63.1403 30.6054 62.1113 29.9029 61.2644 29.008C60.4173 28.1003 59.7638 27.0296 59.344 25.8611C58.8801 24.582 58.6487 23.2302 58.6607 21.8697C58.6473 20.5002 58.8787 19.1394 59.344 17.8514C59.7664 16.6789 60.4257 15.6059 61.2806 14.6991C62.133 13.8046 63.1651 13.1006 64.309 12.6334C65.5591 12.127 66.8984 11.8781 68.2468 11.9018ZM68.2199 14.7851C67.3316 14.7715 66.4517 14.9552 65.6432 15.3231C64.9004 15.6662 64.244 16.1717 63.7228 16.8024C63.1807 17.4637 62.7714 18.2236 62.5178 19.0402C62.2372 19.9495 62.0993 20.8967 62.109 21.8481C62.0996 22.808 62.243 23.763 62.5338 24.6776C62.7945 25.5017 63.2067 26.2699 63.7497 26.9425C64.2701 27.5807 64.9262 28.0953 65.6701 28.4487C66.4776 28.8191 67.3584 29.003 68.2468 28.9866C69.1344 28.9952 70.0134 28.8116 70.8235 28.4487C71.5648 28.1128 72.2212 27.6146 72.7439 26.9907C73.293 26.3285 73.7061 25.5644 73.9596 24.7423C74.2538 23.8061 74.3991 22.8295 74.3899 21.8481C74.3982 20.881 74.2528 19.9187 73.9596 18.9971C73.7024 18.1798 73.2896 17.4199 72.7439 16.7594C72.2156 16.1355 71.5562 15.6359 70.8127 15.2962C69.996 14.9386 69.111 14.7641 68.2199 14.7851ZM90.5656 29.1211C91.1637 29.1579 91.7625 29.0632 92.32 28.844C92.8776 28.6246 93.3804 28.2858 93.7932 27.8514C94.557 27.0087 94.9389 25.7141 94.9389 23.9676V12.273H98.2903V24.0752C98.3167 25.2843 98.1347 26.4889 97.7524 27.6363C97.4434 28.5553 96.9218 29.3884 96.2299 30.0678C95.5438 30.7175 94.7117 31.1934 93.8039 31.4556C91.6919 32.0397 89.4607 32.0397 87.3487 31.4556C86.4441 31.1933 85.6157 30.7172 84.9334 30.0678C84.2435 29.387 83.7221 28.5545 83.4111 27.6363C83.0289 26.4889 82.8469 25.2843 82.8732 24.0752V12.273H86.2353V23.9676C86.2353 25.7106 86.6189 27.0052 87.3863 27.8514C87.7933 28.28 88.2882 28.6154 88.8369 28.8346C89.3857 29.0537 89.9753 29.1514 90.5656 29.1211ZM101.647 30.5304L108.452 12.2945H113.498L120.227 30.5304V31.4449H116.919L114.993 25.9687H106.693L104.745 31.4449H101.625L101.647 30.5304ZM107.704 23.1069H114.035L112.992 20.0623C112.583 18.8735 112.255 17.9105 112.002 17.152C111.749 16.3936 111.534 15.748 111.335 15.1778H110.512L110.189 16.0869C110.082 16.3882 109.963 16.7271 109.829 17.0983C109.694 17.4694 109.549 17.8998 109.388 18.3839C109.226 18.868 109.033 19.4221 108.802 20.0623L107.704 23.1069ZM139.022 31.4449H135.795L129.948 23.9138H127.796V31.4449H124.482V12.273H130.706C131.639 12.2714 132.57 12.3379 133.493 12.472C134.35 12.5964 135.168 12.9126 135.886 13.3973C137.4 14.3942 138.156 15.8969 138.156 17.9052C138.171 18.6834 138.038 19.4576 137.764 20.1859C137.531 20.7993 137.182 21.3619 136.736 21.8428C136.311 22.2947 135.81 22.6696 135.257 22.9509C134.702 23.2345 134.115 23.4495 133.509 23.5911L139.022 30.5304V31.4449ZM127.785 21.0306H130.695C131.75 21.0868 132.8 20.8444 133.724 20.3312C134.096 20.0825 134.395 19.739 134.59 19.3362C134.784 18.9333 134.868 18.4857 134.832 18.0396C134.876 17.5969 134.794 17.1508 134.595 16.7529C134.396 16.355 134.088 16.0215 133.708 15.7911C132.774 15.3268 131.737 15.1083 130.695 15.1563H127.785V21.0306ZM143.294 12.273H155.71V15.2101H146.565V20.229H155.054V23.1123H146.581V28.4916H155.898V31.4449H143.294V12.273ZM163.32 25.9418C163.476 26.8414 163.967 27.6486 164.693 28.2011C165.525 28.7769 166.527 29.0624 167.538 29.0135C168.502 29.0749 169.455 28.7907 170.228 28.2119C170.535 27.9558 170.782 27.6325 170.945 27.2672C171.109 26.9016 171.188 26.5035 171.175 26.1032C171.185 25.7287 171.098 25.3578 170.923 25.0273C170.744 24.7274 170.503 24.4717 170.211 24.2797C169.865 24.0496 169.489 23.8686 169.093 23.7418L167.598 23.2899L166.156 22.8918C165.365 22.6824 164.597 22.3997 163.858 22.0473C163.225 21.7477 162.64 21.3562 162.121 20.8852C161.658 20.4557 161.292 19.9333 161.045 19.3521C160.78 18.6751 160.652 17.9517 160.671 17.2245C160.689 16.4974 160.853 15.7813 161.152 15.1187C161.47 14.4455 161.935 13.8531 162.513 13.3865C163.153 12.8752 163.883 12.49 164.665 12.2515C165.581 11.9617 166.537 11.8218 167.496 11.8373C169.471 11.8373 171.038 12.3035 172.196 13.2359C172.768 13.697 173.243 14.2676 173.59 14.9142C173.938 15.5608 174.153 16.2704 174.225 17.0014L170.997 17.265C170.84 16.526 170.428 15.8654 169.835 15.3984C169.111 14.9131 168.248 14.6788 167.377 14.7314C166.556 14.6831 165.743 14.9228 165.08 15.4091C164.816 15.6162 164.604 15.8821 164.461 16.1857C164.318 16.4893 164.249 16.822 164.257 17.1574C164.242 17.515 164.323 17.8699 164.493 18.1849C164.667 18.4751 164.903 18.7218 165.187 18.9057C165.534 19.1305 165.905 19.3111 166.295 19.4437C166.731 19.605 167.227 19.7771 167.781 19.9547L169.142 20.3797C169.994 20.6487 170.764 20.9283 171.449 21.2188C172.083 21.4881 172.671 21.8507 173.198 22.2947C173.671 22.6959 174.05 23.1975 174.306 23.7632C174.583 24.4309 174.714 25.1496 174.693 25.8719C174.701 26.7163 174.518 27.5517 174.155 28.3142C173.807 29.0477 173.295 29.6916 172.66 30.1969C171.977 30.7315 171.201 31.1362 170.373 31.3911C169.425 31.685 168.439 31.8284 167.447 31.8161C165.696 31.8806 163.97 31.3953 162.509 30.4282C161.831 29.9362 161.264 29.3085 160.843 28.5853C160.422 27.862 160.154 27.0588 160.06 26.2269L163.32 25.9418ZM179.47 12.273H186.463C187.571 12.2444 188.676 12.3989 189.734 12.7302C190.538 12.978 191.273 13.4068 191.886 13.9836C192.422 14.5068 192.826 15.153 193.057 15.8664C193.304 16.6198 193.427 17.4084 193.419 18.201C193.44 19.0942 193.271 19.9817 192.923 20.8045C192.608 21.5241 192.119 22.1529 191.499 22.6335C190.818 23.1366 190.047 23.502 189.227 23.7094C188.242 23.9623 187.227 24.0835 186.21 24.0699H182.82V31.4449H179.481L179.47 12.273ZM182.811 21.1919H186.011C186.552 21.196 187.093 21.1472 187.624 21.0466C188.078 20.9619 188.511 20.7961 188.904 20.5571C189.267 20.3304 189.562 20.0111 189.76 19.6319C189.977 19.1868 190.082 18.6957 190.066 18.201C190.082 17.6941 189.977 17.1906 189.76 16.7325C189.569 16.3485 189.277 16.0233 188.916 15.7911C188.529 15.5505 188.099 15.3844 187.652 15.3016C187.119 15.2001 186.579 15.1515 186.038 15.1563H182.783L182.811 21.1919ZM194.344 30.5304L201.154 12.2945H206.199L212.923 30.5304V31.4449H209.642L207.722 25.9687H199.389L197.469 31.4449H194.344V30.5304ZM200.405 23.1069H206.732L205.689 20.0623C205.279 18.8735 204.952 17.9105 204.704 17.152L204.036 15.1778H203.187L202.865 16.0869C202.756 16.3882 202.638 16.7271 202.503 17.0983C202.369 17.4694 202.225 17.8998 202.063 18.3839C201.901 18.868 201.708 19.4221 201.476 20.0623L200.405 23.1069ZM233.268 26.3721C232.965 27.1223 232.566 27.8309 232.085 28.4809C231.584 29.1473 230.985 29.7318 230.304 30.213C229.567 30.7308 228.752 31.1267 227.888 31.3857C226.898 31.6824 225.868 31.8276 224.834 31.8161C223.497 31.8363 222.172 31.5818 220.939 31.0683C219.81 30.5972 218.792 29.8933 217.953 29.0026C217.11 28.0917 216.461 27.0194 216.044 25.8504C215.587 24.579 215.36 23.2367 215.372 21.8859C215.359 20.5349 215.587 19.1927 216.044 17.9213C216.462 16.7471 217.115 15.6707 217.964 14.7583C218.808 13.8581 219.831 13.1436 220.965 12.6603C222.203 12.1401 223.535 11.8818 224.876 11.9018C226.743 11.8355 228.585 12.3484 230.149 13.3704C231.537 14.3171 232.59 15.681 233.156 17.265L229.761 17.932C229.338 17.0003 228.668 16.2022 227.824 15.6243C226.932 15.0466 225.886 14.7539 224.823 14.7851C223.951 14.7661 223.087 14.9503 222.3 15.3231C221.574 15.679 220.937 16.1916 220.433 16.8239C219.904 17.4974 219.51 18.2663 219.272 19.0887C218.996 19.9936 218.86 20.9348 218.868 21.8804C218.86 22.8323 218.999 23.7795 219.281 24.6885C219.534 25.5027 219.942 26.2605 220.482 26.9209C221.007 27.541 221.663 28.0386 222.402 28.3787C223.206 28.7476 224.082 28.9314 224.969 28.9166C226.067 28.9608 227.151 28.6413 228.05 28.0075C228.843 27.4268 229.488 26.6675 229.933 25.7913L233.268 26.3721ZM237.782 12.273H250.196V15.2101H241.051V20.229H249.556V23.1123H241.068V28.4916H250.386V31.4449H237.782V12.273Z" fill="black"/>
</g>
<defs>
<clipPath id="clip0_3926_6824">
<rect width="250.386" height="44.911" fill="white"/>
</clipPath>
</defs>
</svg>
