<svg width="251" height="45" viewBox="0 0 251 45" fill="none" xmlns="http://www.w3.org/2000/svg">
<g clip-path="url(#clip0_4451_4547)">
<path d="M20.3664 13.4482C19.7635 12.7374 18.7859 12.7374 18.1834 13.4482L8.35878 25.0295C7.15241 26.4504 5.19792 26.4504 3.99242 25.0295C2.78568 23.608 2.78568 21.3038 3.99242 19.8816L13.6279 8.52381C12.4221 7.10204 10.4669 7.10204 9.26115 8.52381L1.80843 17.3087C-0.60281 20.1517 -0.60281 24.7601 1.80843 27.6034C4.2203 30.4465 8.12966 30.4465 10.5415 27.6034L20.3664 16.0219C20.9689 15.3113 20.9689 14.1589 20.3664 13.4482ZM23.6412 9.5881C21.2294 6.74472 17.32 6.74472 14.9081 9.5881L5.08379 21.1688C4.48129 21.879 4.48129 23.0322 5.08379 23.7425C5.68667 24.4532 6.66379 24.4532 7.26678 23.7425L17.092 12.1618C18.2977 10.7401 20.2522 10.7401 21.4577 12.1618C22.0612 12.8721 23.0385 12.8721 23.6413 12.1618C24.2442 11.4504 24.2442 10.2988 23.6413 9.5881H23.6412ZM26.9163 21.1688C26.3135 20.4589 25.3356 20.4589 24.7327 21.1688L14.9081 32.75C13.7024 34.1713 11.7473 34.1713 10.5415 32.75C9.93902 32.0397 8.96165 32.0397 8.35878 32.75C7.75503 33.4609 7.75503 34.6133 8.35878 35.3232C10.7696 38.1663 14.68 38.1663 17.0919 35.3232L26.9163 23.7425C27.5188 23.0323 27.5188 21.8792 26.9163 21.1688ZM30.1916 17.3089C27.7797 14.4662 23.8697 14.4662 21.4585 17.3089L11.6333 28.8903C11.0304 29.6002 11.0304 30.7534 11.6333 31.4636C12.2365 32.1747 13.2141 32.1747 13.8166 31.4636L23.6412 19.8825C24.8466 18.4608 26.8021 18.4608 28.0076 19.8825C29.2133 21.3039 29.2133 23.6082 28.0076 25.0296L18.3721 36.3881C19.5779 37.809 21.5321 37.809 22.7388 36.3881L30.1916 27.6032C32.6028 24.7598 32.6028 20.1515 30.1916 17.3089Z" fill="white"/>
<path d="M43.2598 25.9418C43.4149 26.8414 43.905 27.6486 44.6316 28.2012C45.4649 28.7776 46.4651 29.0633 47.4773 29.0136C48.4405 29.075 49.3942 28.7908 50.1669 28.212C50.4748 27.9558 50.7202 27.6326 50.8842 27.2672C51.0483 26.9017 51.1268 26.5036 51.1136 26.1032C51.1245 25.7288 51.0373 25.3579 50.8607 25.0274C50.6839 24.7274 50.4411 24.4718 50.1507 24.2798C49.8043 24.0497 49.4277 23.8687 49.0317 23.7418L47.5364 23.2899L46.1109 22.9025C45.3205 22.6932 44.5515 22.4104 43.8138 22.058C43.1806 21.7586 42.595 21.367 42.0764 20.8961C41.6138 20.4666 41.2471 19.9441 41.0005 19.363C40.7374 18.7237 40.6092 18.0369 40.624 17.3458C40.6163 16.58 40.7818 15.8223 41.1081 15.1295C41.4226 14.4552 41.8883 13.8625 42.469 13.3973C43.1079 12.886 43.8381 12.5009 44.6207 12.2623C45.5354 11.9725 46.491 11.8326 47.4504 11.8481C49.4263 11.8481 50.9916 12.3143 52.1464 13.2467C52.7187 13.7076 53.1934 14.278 53.5426 14.9246C53.8918 15.5712 54.1084 16.2809 54.1799 17.0122L50.9523 17.2758C50.7925 16.5353 50.3774 15.8745 49.7795 15.4092C49.0548 14.9247 48.1915 14.6905 47.3212 14.7422C46.4999 14.6939 45.6877 14.9336 45.0242 15.42C44.7592 15.6265 44.5463 15.8922 44.4025 16.1958C44.2586 16.4993 44.1878 16.8324 44.1959 17.1682C44.1826 17.5263 44.2662 17.8812 44.4379 18.1957C44.611 18.486 44.8484 18.7326 45.1317 18.9165C45.4773 19.1412 45.8495 19.322 46.24 19.4544C46.6757 19.6158 47.1705 19.788 47.7193 19.9654L49.0855 20.3904C49.9355 20.6594 50.7048 20.9391 51.3933 21.2296C52.0265 21.4989 52.6158 21.8617 53.1416 22.3054C53.6155 22.7066 53.994 23.2083 54.2497 23.7741C54.5264 24.4416 54.6585 25.1604 54.6371 25.8827C54.646 26.7272 54.4621 27.5624 54.0992 28.3249C53.749 29.0573 53.2378 29.701 52.6036 30.2077C51.9222 30.7466 51.1472 31.1551 50.3174 31.4127C49.3722 31.7066 48.3864 31.8502 47.3966 31.8377C45.6459 31.9028 43.9186 31.4174 42.4583 30.4498C41.7765 29.9564 41.2056 29.3258 40.7823 28.5986C40.3589 27.8713 40.0924 27.0634 40 26.227L43.2598 25.9418ZM68.2468 11.9019C69.5999 11.8844 70.9432 12.1329 72.2006 12.6335C73.3489 13.0934 74.3852 13.7941 75.2399 14.6884C76.0975 15.6002 76.7617 16.6762 77.1925 17.8514C77.6656 19.1433 77.9007 20.5102 77.8865 21.886C77.9057 23.2869 77.6556 24.6785 77.1496 25.9849C76.6777 27.1724 75.9653 28.2493 75.057 29.148L77.6175 32.1443V33.0749H74.3899L72.5987 30.8855C71.9496 31.1961 71.2699 31.4377 70.5706 31.6063C69.8157 31.7677 69.0456 31.8471 68.2737 31.8431C66.905 31.8513 65.5484 31.588 64.2821 31.0684C63.1403 30.6055 62.1113 29.9029 61.2644 29.0081C60.4173 28.1004 59.7638 27.0297 59.344 25.8611C58.8801 24.5821 58.6487 23.2303 58.6607 21.8698C58.6473 20.5003 58.8787 19.1394 59.344 17.8514C59.7664 16.679 60.4257 15.606 61.2806 14.6991C62.133 13.8046 63.1651 13.1007 64.309 12.6335C65.5591 12.127 66.8984 11.8782 68.2468 11.9019ZM68.2199 14.7852C67.3316 14.7715 66.4517 14.9552 65.6432 15.3231C64.9004 15.6663 64.244 16.1718 63.7228 16.8025C63.1807 17.4637 62.7714 18.2236 62.5178 19.0403C62.2372 19.9496 62.0993 20.8968 62.109 21.8482C62.0996 22.8081 62.243 23.7631 62.5338 24.6777C62.7945 25.5018 63.2067 26.2699 63.7497 26.9425C64.2701 27.5807 64.9262 28.0954 65.6701 28.4487C66.4776 28.8191 67.3584 29.003 68.2468 28.9867C69.1344 28.9952 70.0134 28.8117 70.8235 28.4487C71.5648 28.1128 72.2212 27.6146 72.7439 26.9908C73.293 26.3286 73.7061 25.5645 73.9596 24.7423C74.2538 23.8062 74.3991 22.8296 74.3899 21.8482C74.3982 20.8811 74.2528 19.9188 73.9596 18.9972C73.7024 18.1799 73.2896 17.42 72.7439 16.7594C72.2156 16.1356 71.5562 15.636 70.8127 15.2962C69.996 14.9386 69.111 14.7642 68.2199 14.7852ZM90.5656 29.1211C91.1637 29.1579 91.7625 29.0633 92.32 28.8441C92.8776 28.6247 93.3804 28.2859 93.7932 27.8515C94.557 27.0088 94.9389 25.7142 94.9389 23.9677V12.2731H98.2903V24.0753C98.3167 25.2843 98.1347 26.489 97.7524 27.6363C97.4434 28.5553 96.9218 29.3885 96.2299 30.0679C95.5438 30.7176 94.7117 31.1935 93.8039 31.4556C91.6919 32.0398 89.4607 32.0398 87.3487 31.4556C86.4441 31.1933 85.6157 30.7173 84.9334 30.0679C84.2435 29.387 83.7221 28.5545 83.4111 27.6363C83.0289 26.489 82.8469 25.2843 82.8732 24.0753V12.2731H86.2353V23.9677C86.2353 25.7106 86.6189 27.0052 87.3863 27.8515C87.7933 28.2801 88.2882 28.6155 88.8369 28.8347C89.3857 29.0537 89.9753 29.1514 90.5656 29.1211ZM101.647 30.5305L108.452 12.2946H113.498L120.227 30.5305V31.4449H116.919L114.993 25.9687H106.693L104.745 31.4449H101.625L101.647 30.5305ZM107.704 23.107H114.035L112.992 20.0623C112.583 18.8735 112.255 17.9106 112.002 17.1521C111.749 16.3936 111.534 15.7481 111.335 15.1779H110.512L110.189 16.087C110.082 16.3882 109.963 16.7271 109.829 17.0983C109.694 17.4695 109.549 17.8998 109.388 18.384C109.226 18.868 109.033 19.4222 108.802 20.0623L107.704 23.107ZM139.022 31.4449H135.795L129.948 23.9139H127.796V31.4449H124.482V12.2731H130.706C131.639 12.2714 132.57 12.3379 133.493 12.4721C134.35 12.5964 135.168 12.9127 135.886 13.3973C137.4 14.3943 138.156 15.8969 138.156 17.9052C138.171 18.6835 138.038 19.4577 137.764 20.186C137.531 20.7994 137.182 21.362 136.736 21.8429C136.311 22.2948 135.81 22.6697 135.257 22.951C134.702 23.2345 134.115 23.4495 133.509 23.5911L139.022 30.5305V31.4449ZM127.785 21.0306H130.695C131.75 21.0868 132.8 20.8444 133.724 20.3313C134.096 20.0826 134.395 19.7391 134.59 19.3363C134.784 18.9333 134.868 18.4857 134.832 18.0397C134.876 17.597 134.794 17.1509 134.595 16.7529C134.396 16.355 134.088 16.0216 133.708 15.7911C132.774 15.3269 131.737 15.1084 130.695 15.1564H127.785V21.0306ZM143.294 12.2731H155.71V15.2102H146.565V20.2291H155.054V23.1123H146.581V28.4917H155.898V31.4449H143.294V12.2731ZM163.32 25.9418C163.476 26.8414 163.967 27.6486 164.693 28.2012C165.525 28.777 166.527 29.0625 167.538 29.0136C168.502 29.075 169.455 28.7908 170.228 28.212C170.535 27.9558 170.782 27.6326 170.945 27.2672C171.109 26.9017 171.188 26.5036 171.175 26.1032C171.185 25.7288 171.098 25.3579 170.923 25.0274C170.744 24.7274 170.503 24.4718 170.211 24.2798C169.865 24.0497 169.489 23.8687 169.093 23.7418L167.598 23.2899L166.156 22.8918C165.365 22.6825 164.597 22.3997 163.858 22.0473C163.225 21.7478 162.64 21.3563 162.121 20.8853C161.658 20.4557 161.292 19.9334 161.045 19.3522C160.78 18.6752 160.652 17.9517 160.671 17.2246C160.689 16.4975 160.853 15.7814 161.152 15.1187C161.47 14.4455 161.935 13.8532 162.513 13.3866C163.153 12.8753 163.883 12.4901 164.665 12.2515C165.581 11.9617 166.537 11.8219 167.496 11.8373C169.471 11.8373 171.038 12.3035 172.196 13.236C172.768 13.6971 173.243 14.2677 173.59 14.9143C173.938 15.5609 174.153 16.2705 174.225 17.0015L170.997 17.2651C170.84 16.5261 170.428 15.8655 169.835 15.3985C169.111 14.9132 168.248 14.6789 167.377 14.7314C166.556 14.6831 165.743 14.9228 165.08 15.4092C164.816 15.6163 164.604 15.8822 164.461 16.1858C164.318 16.4893 164.249 16.8221 164.257 17.1575C164.242 17.515 164.323 17.87 164.493 18.1849C164.667 18.4752 164.903 18.7219 165.187 18.9058C165.534 19.1305 165.905 19.3112 166.295 19.4437C166.731 19.6051 167.227 19.7772 167.781 19.9548L169.142 20.3798C169.994 20.6487 170.764 20.9284 171.449 21.2189C172.083 21.4882 172.671 21.8508 173.198 22.2948C173.671 22.6959 174.05 23.1976 174.306 23.7632C174.583 24.4309 174.714 25.1497 174.693 25.872C174.701 26.7163 174.518 27.5517 174.155 28.3142C173.807 29.0477 173.295 29.6916 172.66 30.197C171.977 30.7315 171.201 31.1363 170.373 31.3912C169.425 31.6851 168.439 31.8285 167.447 31.8162C165.696 31.8806 163.97 31.3954 162.509 30.4282C161.831 29.9363 161.264 29.3086 160.843 28.5853C160.422 27.862 160.154 27.0589 160.06 26.227L163.32 25.9418ZM179.47 12.2731H186.463C187.571 12.2445 188.676 12.3989 189.734 12.7303C190.538 12.978 191.273 13.4068 191.886 13.9837C192.422 14.5069 192.826 15.153 193.057 15.8665C193.304 16.6198 193.427 17.4084 193.419 18.2011C193.44 19.0942 193.271 19.9818 192.923 20.8046C192.608 21.5242 192.119 22.153 191.499 22.6336C190.818 23.1367 190.047 23.502 189.227 23.7094C188.242 23.9623 187.227 24.0835 186.21 24.0699H182.82V31.4449H179.481L179.47 12.2731ZM182.811 21.192H186.011C186.552 21.196 187.093 21.1473 187.624 21.0467C188.078 20.9619 188.511 20.7962 188.904 20.5572C189.267 20.3305 189.562 20.0111 189.76 19.632C189.977 19.1869 190.082 18.6958 190.066 18.2011C190.082 17.6941 189.977 17.1907 189.76 16.7325C189.569 16.3485 189.277 16.0233 188.916 15.7911C188.529 15.5505 188.099 15.3845 187.652 15.3016C187.119 15.2002 186.579 15.1516 186.038 15.1564H182.783L182.811 21.192ZM194.344 30.5305L201.154 12.2946H206.199L212.923 30.5305V31.4449H209.642L207.722 25.9687H199.389L197.469 31.4449H194.344V30.5305ZM200.405 23.107H206.732L205.689 20.0623C205.279 18.8735 204.952 17.9106 204.704 17.1521L204.036 15.1779H203.187L202.865 16.087C202.756 16.3882 202.638 16.7271 202.503 17.0983C202.369 17.4695 202.225 17.8998 202.063 18.384C201.901 18.868 201.708 19.4222 201.476 20.0623L200.405 23.107ZM233.268 26.3722C232.965 27.1224 232.566 27.8309 232.085 28.481C231.584 29.1474 230.985 29.7318 230.304 30.2131C229.567 30.7309 228.752 31.1267 227.888 31.3858C226.898 31.6825 225.868 31.8277 224.834 31.8162C223.497 31.8364 222.172 31.5819 220.939 31.0684C219.81 30.5972 218.792 29.8934 217.953 29.0027C217.11 28.0918 216.461 27.0195 216.044 25.8505C215.587 24.579 215.36 23.2368 215.372 21.886C215.359 20.535 215.587 19.1927 216.044 17.9214C216.462 16.7472 217.115 15.6708 217.964 14.7583C218.808 13.8582 219.831 13.1437 220.965 12.6604C222.203 12.1401 223.535 11.8819 224.876 11.9019C226.743 11.8355 228.585 12.3485 230.149 13.3704C231.537 14.3172 232.59 15.681 233.156 17.2651L229.761 17.9321C229.338 17.0004 228.668 16.2023 227.824 15.6244C226.932 15.0466 225.886 14.754 224.823 14.7852C223.951 14.7661 223.087 14.9503 222.3 15.3231C221.574 15.6791 220.937 16.1917 220.433 16.824C219.904 17.4975 219.51 18.2663 219.272 19.0887C218.996 19.9936 218.86 20.9349 218.868 21.8805C218.86 22.8324 218.999 23.7796 219.281 24.6886C219.534 25.5027 219.942 26.2605 220.482 26.921C221.007 27.5411 221.663 28.0386 222.402 28.3787C223.206 28.7477 224.082 28.9314 224.969 28.9167C226.067 28.9609 227.151 28.6414 228.05 28.0075C228.843 27.4268 229.488 26.6676 229.933 25.7913L233.268 26.3722ZM237.782 12.2731H250.196V15.2102H241.051V20.2291H249.556V23.1123H241.068V28.4917H250.386V31.4449H237.782V12.2731Z" fill="white"/>
</g>
<defs>
<clipPath id="clip0_4451_4547">
<rect width="250.386" height="44.911" fill="white"/>
</clipPath>
</defs>
</svg>
