<svg width="251" height="45" viewBox="0 0 251 45" fill="none" xmlns="http://www.w3.org/2000/svg">
<g clip-path="url(#clip0_3615_4373)">
<path d="M20.921 13.4497C20.3182 12.7388 19.3406 12.7388 18.7381 13.4497L8.91347 25.0309C7.7071 26.4518 5.7526 26.4518 4.54711 25.0309C3.34036 23.6095 3.34036 21.3052 4.54711 19.883L14.1826 8.52527C12.9768 7.10351 11.0216 7.10351 9.81584 8.52527L2.36312 17.3102C-0.0481227 20.1531 -0.0481227 24.7616 2.36312 27.6048C4.77498 30.4479 8.68434 30.4479 11.0962 27.6048L20.921 16.0234C21.5235 15.3127 21.5235 14.1603 20.921 13.4497V13.4497ZM24.1959 9.58957C21.784 6.74619 17.8747 6.74619 15.4628 9.58957L5.63848 21.1703C5.03598 21.8805 5.03598 23.0336 5.63848 23.744C6.24135 24.4547 7.21847 24.4547 7.82147 23.744L17.6467 12.1633C18.8524 10.7415 20.8069 10.7415 22.0124 12.1633C22.6159 12.8735 23.5932 12.8735 24.196 12.1633C24.7989 11.4519 24.7989 10.3002 24.196 9.58957H24.1959ZM27.471 21.1703C26.8681 20.4603 25.8903 20.4603 25.2874 21.1703L15.4628 32.7514C14.2571 34.1727 12.302 34.1727 11.0962 32.7514C10.4937 32.0412 9.51634 32.0412 8.91347 32.7514C8.30972 33.4624 8.30972 34.6148 8.91347 35.3247C11.3243 38.1678 15.2347 38.1678 17.6466 35.3247L27.471 23.744C28.0735 23.0338 28.0735 21.8806 27.471 21.1703ZM30.7463 17.3103C28.3344 14.4677 24.4244 14.4677 22.0132 17.3103L12.188 28.8918C11.5851 29.6017 11.5851 30.7548 12.188 31.4651C12.7912 32.1762 13.7688 32.1762 14.3713 31.4651L24.1959 19.8839C25.4013 18.4623 27.3568 18.4623 28.5623 19.8839C29.768 21.3054 29.768 23.6096 28.5623 25.0311L18.9268 36.3896C20.1325 37.8105 22.0868 37.8105 23.2935 36.3896L30.7463 27.6047C33.1575 24.7613 33.1575 20.153 30.7463 17.3103V17.3103Z" fill="#1A1A1C" fill-opacity="0.4"/>
<path d="M43.8145 25.9416C43.9696 26.8412 44.4597 27.6484 45.1862 28.2009C46.0196 28.7774 47.0198 29.0631 48.0319 29.0133C48.9952 29.0747 49.9489 28.7905 50.7216 28.2118C51.0295 27.9556 51.2749 27.6324 51.4389 27.267C51.603 26.9014 51.6815 26.5033 51.6683 26.103C51.6792 25.7285 51.592 25.3576 51.4154 25.0271C51.2386 24.7272 50.9958 24.4715 50.7054 24.2795C50.359 24.0494 49.9824 23.8684 49.5864 23.7416L48.0911 23.2897L46.6656 22.9023C45.8752 22.6929 45.1062 22.4102 44.3685 22.0578C43.7353 21.7584 43.1497 21.3667 42.6311 20.8959C42.1685 20.4664 41.8018 19.9438 41.5552 19.3628C41.2921 18.7234 41.1639 18.0367 41.1787 17.3455C41.171 16.5797 41.3365 15.8221 41.6628 15.1292C41.9773 14.4549 42.443 13.8622 43.0237 13.3971C43.6625 12.8858 44.3928 12.5006 45.1754 12.2621C46.09 11.9722 47.0457 11.8324 48.005 11.8479C49.981 11.8479 51.5463 12.3141 52.7011 13.2465C53.2734 13.7073 53.7481 14.2778 54.0973 14.9244C54.4465 15.5709 54.6631 16.2807 54.7345 17.012L51.507 17.2756C51.3472 16.535 50.9321 15.8743 50.3342 15.409C49.6094 14.9245 48.7462 14.6902 47.8759 14.7419C47.0546 14.6936 46.2423 14.9333 45.5788 15.4197C45.3139 15.6262 45.101 15.8919 44.9571 16.1955C44.8133 16.4991 44.7425 16.8322 44.7506 17.168C44.7373 17.526 44.8209 17.881 44.9926 18.1955C45.1657 18.4857 45.403 18.7323 45.6864 18.9162C46.032 19.141 46.4042 19.3218 46.7947 19.4542C47.2304 19.6155 47.7252 19.7878 48.274 19.9652L49.6402 20.3902C50.4902 20.6592 51.2595 20.9388 51.948 21.2293C52.5812 21.4986 53.1705 21.8614 53.6963 22.3052C54.1702 22.7064 54.5487 23.208 54.8044 23.7738C55.0811 24.4414 55.2132 25.1601 55.1918 25.8825C55.2007 26.7269 55.0168 27.5622 54.6539 28.3247C54.3037 29.0571 53.7925 29.7008 53.1583 30.2075C52.4768 30.7464 51.7019 31.1548 50.8721 31.4125C49.9269 31.7064 48.9411 31.8499 47.9513 31.8375C46.2005 31.9026 44.4733 31.4172 43.013 30.4495C42.3312 29.9562 41.7603 29.3255 41.337 28.5984C40.9136 27.871 40.647 27.0631 40.5547 26.2268L43.8145 25.9416ZM68.8015 11.9016C70.1546 11.8841 71.4979 12.1327 72.7553 12.6332C73.9036 13.0932 74.9399 13.7939 75.7946 14.6881C76.6522 15.6 77.3163 16.6759 77.7472 17.8512C78.2203 19.1431 78.4554 20.5099 78.4411 21.8857C78.4604 23.2866 78.2103 24.6783 77.7042 25.9847C77.2324 27.1722 76.52 28.249 75.6117 29.1478L78.1722 32.144V33.0747H74.9446L73.1534 30.8852C72.5043 31.1958 71.8246 31.4374 71.1253 31.6061C70.3704 31.7675 69.6003 31.8469 68.8284 31.8428C67.4597 31.8511 66.1031 31.5878 64.8368 31.0681C63.695 30.6052 62.666 29.9027 61.819 29.0078C60.972 28.1001 60.3185 27.0294 59.8987 25.8609C59.4348 24.5819 59.2034 23.2301 59.2154 21.8695C59.202 20.5001 59.4333 19.1392 59.8987 17.8512C60.3211 16.6787 60.9804 15.6057 61.8352 14.6989C62.6877 13.8044 63.7198 13.1004 64.8637 12.6332C66.1138 12.1268 67.4531 11.8779 68.8015 11.9016ZM68.7746 14.785C67.8863 14.7713 67.0064 14.955 66.1978 15.3229C65.4551 15.666 64.7987 16.1716 64.2775 16.8022C63.7353 17.4635 63.3261 18.2234 63.0725 19.04C62.7919 19.9493 62.654 20.8965 62.6637 21.848C62.6543 22.8078 62.7977 23.7628 63.0885 24.6775C63.3492 25.5015 63.7614 26.2697 64.3044 26.9423C64.8248 27.5805 65.4809 28.0951 66.2247 28.4485C67.0323 28.8189 67.9131 29.0028 68.8015 28.9864C69.6891 28.995 70.5681 28.8114 71.3782 28.4485C72.1195 28.1126 72.7758 27.6144 73.2985 26.9906C73.8477 26.3284 74.2608 25.5642 74.5142 24.7421C74.8085 23.8059 74.9538 22.8294 74.9446 21.848C74.9528 20.8808 74.8075 19.9185 74.5142 18.9969C74.2571 18.1796 73.8443 17.4197 73.2985 16.7592C72.7703 16.1353 72.1109 15.6357 71.3673 15.296C70.5507 14.9384 69.6657 14.764 68.7746 14.785ZM91.1203 29.1209C91.7183 29.1577 92.3172 29.0631 92.8747 28.8438C93.4323 28.6244 93.9351 28.2856 94.3479 27.8513C95.1117 27.0085 95.4936 25.7139 95.4936 23.9674V12.2728H98.845V24.075C98.8714 25.2841 98.6894 26.4888 98.307 27.6361C97.9981 28.5551 97.4765 29.3882 96.7846 30.0676C96.0984 30.7174 95.2664 31.1932 94.3586 31.4554C92.2466 32.0395 90.0154 32.0395 87.9034 31.4554C86.9988 31.1931 86.1704 30.717 85.4881 30.0676C84.7981 29.3868 84.2767 28.5543 83.9658 27.6361C83.5836 26.4888 83.4016 25.2841 83.4279 24.075V12.2728H86.7899V23.9674C86.7899 25.7104 87.1736 27.005 87.941 27.8513C88.348 28.2798 88.8428 28.6152 89.3916 28.8344C89.9404 29.0535 90.53 29.1512 91.1203 29.1209ZM102.202 30.5302L109.007 12.2943H114.052L120.782 30.5302V31.4447H117.473L115.548 25.9685H107.247L105.3 31.4447H102.18L102.202 30.5302ZM108.259 23.1068H114.59L113.547 20.0621C113.138 18.8733 112.81 17.9103 112.557 17.1519C112.304 16.3934 112.089 15.7479 111.89 15.1777H111.067L110.744 16.0868C110.636 16.388 110.518 16.7269 110.384 17.0981C110.249 17.4692 110.104 17.8996 109.942 18.3837C109.781 18.8678 109.587 19.4219 109.356 20.0621L108.259 23.1068ZM139.577 31.4447H136.35L130.502 23.9137H128.351V31.4447H125.037V12.2728H131.261C132.193 12.2712 133.125 12.3377 134.047 12.4719C134.905 12.5962 135.723 12.9125 136.441 13.3971C137.954 14.3941 138.711 15.8967 138.711 17.905C138.726 18.6832 138.593 19.4574 138.318 20.1857C138.086 20.7992 137.737 21.3617 137.291 21.8426C136.865 22.2945 136.365 22.6694 135.812 22.9507C135.257 23.2343 134.67 23.4493 134.063 23.5909L139.577 30.5302V31.4447ZM128.34 21.0304H131.25C132.305 21.0866 133.355 20.8442 134.278 20.3311C134.651 20.0823 134.949 19.7388 135.144 19.336C135.339 18.9331 135.423 18.4855 135.387 18.0395C135.431 17.5967 135.348 17.1506 135.15 16.7527C134.951 16.3548 134.643 16.0213 134.262 15.7909C133.329 15.3266 132.292 15.1081 131.25 15.1561H128.34V21.0304ZM143.848 12.2728H156.265V15.2099H147.12V20.2288H155.608V23.1121H147.136V28.4914H156.452V31.4447H143.848V12.2728ZM163.875 25.9416C164.031 26.8412 164.521 27.6484 165.247 28.2009C166.08 28.7768 167.081 29.0622 168.093 29.0133C169.057 29.0747 170.009 28.7905 170.782 28.2118C171.09 27.9556 171.336 27.6324 171.5 27.267C171.664 26.9014 171.743 26.5033 171.73 26.103C171.74 25.7285 171.652 25.3576 171.477 25.0271C171.299 24.7272 171.058 24.4715 170.766 24.2795C170.419 24.0494 170.043 23.8684 169.648 23.7416L168.152 23.2897L166.71 22.8916C165.92 22.6822 165.152 22.3995 164.413 22.0471C163.779 21.7475 163.194 21.356 162.676 20.885C162.213 20.4555 161.846 19.9331 161.6 19.3519C161.334 18.6749 161.206 17.9515 161.226 17.2244C161.244 16.4972 161.407 15.7812 161.707 15.1185C162.025 14.4453 162.49 13.8529 163.068 13.3863C163.708 12.875 164.437 12.4899 165.22 12.2513C166.135 11.9615 167.091 11.8216 168.05 11.8371C170.026 11.8371 171.592 12.3033 172.751 13.2357C173.323 13.6969 173.798 14.2675 174.144 14.9141C174.493 15.5606 174.708 16.2702 174.779 17.0012L171.552 17.2648C171.395 16.5258 170.983 15.8653 170.39 15.3982C169.666 14.913 168.802 14.6787 167.932 14.7312C167.111 14.6829 166.297 14.9226 165.635 15.409C165.37 15.616 165.158 15.882 165.016 16.1855C164.873 16.4891 164.803 16.8218 164.811 17.1572C164.797 17.5148 164.878 17.8697 165.048 18.1847C165.221 18.475 165.458 18.7216 165.742 18.9055C166.088 19.1303 166.459 19.3109 166.85 19.4435C167.286 19.6049 167.781 19.7769 168.336 19.9545L169.697 20.3795C170.549 20.6485 171.319 20.9281 172.004 21.2186C172.637 21.4879 173.226 21.8506 173.752 22.2945C174.225 22.6957 174.604 23.1973 174.86 23.763C175.138 24.4307 175.269 25.1494 175.248 25.8718C175.256 26.7161 175.073 27.5515 174.71 28.314C174.361 29.0475 173.849 29.6914 173.214 30.1968C172.532 30.7313 171.756 31.136 170.928 31.3909C169.98 31.6848 168.993 31.8282 168.002 31.8159C166.25 31.8804 164.525 31.3951 163.063 30.428C162.386 29.9361 161.819 29.3084 161.398 28.5851C160.976 27.8618 160.709 27.0586 160.615 26.2268L163.875 25.9416ZM180.024 12.2728H187.017C188.126 12.2442 189.231 12.3987 190.289 12.7301C191.092 12.9778 191.828 13.4066 192.44 13.9834C192.977 14.5066 193.38 15.1528 193.612 15.8662C193.858 16.6196 193.981 17.4082 193.973 18.2008C193.994 19.094 193.826 19.9816 193.477 20.8043C193.163 21.5239 192.674 22.1527 192.053 22.6333C191.373 23.1364 190.601 23.5018 189.782 23.7092C188.796 23.9621 187.782 24.0833 186.765 24.0697H183.375V31.4447H180.036L180.024 12.2728ZM183.365 21.1918H186.565C187.106 21.1958 187.648 21.147 188.179 21.0464C188.633 20.9617 189.065 20.7959 189.459 20.5569C189.822 20.3302 190.117 20.0109 190.315 19.6317C190.532 19.1867 190.637 18.6956 190.621 18.2008C190.637 17.6939 190.532 17.1905 190.315 16.7323C190.123 16.3483 189.832 16.0231 189.47 15.7909C189.083 15.5503 188.654 15.3842 188.207 15.3014C187.674 15.2 187.134 15.1513 186.593 15.1561H183.338L183.365 21.1918ZM194.898 30.5302L201.708 12.2943H206.754L213.478 30.5302V31.4447H210.197L208.277 25.9685H199.944L198.024 31.4447H194.898V30.5302ZM200.96 23.1068H207.287L206.244 20.0621C205.834 18.8733 205.506 17.9103 205.258 17.1519L204.591 15.1777H203.742L203.419 16.0868C203.311 16.388 203.193 16.7269 203.058 17.0981C202.924 17.4692 202.779 17.8996 202.617 18.3837C202.455 18.8678 202.263 19.4219 202.031 20.0621L200.96 23.1068ZM233.822 26.3719C233.519 27.1221 233.121 27.8307 232.64 28.4807C232.139 29.1472 231.539 29.7316 230.859 30.2128C230.122 30.7306 229.307 31.1265 228.443 31.3856C227.453 31.6822 226.423 31.8274 225.389 31.8159C224.052 31.8362 222.727 31.5816 221.494 31.0681C220.364 30.597 219.347 29.8931 218.507 29.0025C217.665 28.0915 217.015 27.0192 216.599 25.8502C216.142 24.5788 215.915 23.2365 215.926 21.8857C215.913 20.5347 216.142 19.1925 216.599 17.9211C217.017 16.7469 217.67 15.6705 218.519 14.7581C219.363 13.8579 220.385 13.1435 221.52 12.6601C222.757 12.1399 224.089 11.8816 225.431 11.9016C227.297 11.8353 229.14 12.3483 230.703 13.3702C232.092 14.317 233.145 15.6808 233.711 17.2648L230.316 17.9319C229.893 17.0002 229.222 16.202 228.378 15.6241C227.487 15.0464 226.44 14.7537 225.377 14.785C224.506 14.7659 223.642 14.9501 222.855 15.3229C222.129 15.6789 221.492 16.1915 220.988 16.8237C220.458 17.4973 220.065 18.2661 219.826 19.0885C219.551 19.9934 219.415 20.9346 219.423 21.8802C219.415 22.8321 219.554 23.7793 219.836 24.6883C220.089 25.5025 220.497 26.2603 221.037 26.9207C221.562 27.5408 222.218 28.0384 222.957 28.3785C223.76 28.7474 224.637 28.9312 225.523 28.9164C226.622 28.9607 227.706 28.6411 228.605 28.0073C229.397 27.4266 230.042 26.6673 230.488 25.7911L233.822 26.3719ZM238.336 12.2728H250.751V15.2099H241.606V20.2288H250.111V23.1121H241.622V28.4914H250.941V31.4447H238.336V12.2728Z" fill="#1A1A1C" fill-opacity="0.4"/>
</g>
<defs>
<clipPath id="clip0_3615_4373">
<rect width="250.386" height="44.911" fill="white" transform="translate(0.554688)"/>
</clipPath>
</defs>
</svg>
