<svg width="124" height="45" viewBox="0 0 124 45" fill="none" xmlns="http://www.w3.org/2000/svg">
<g clip-path="url(#clip0_4451_4525)">
<path d="M24 4.45557C30.6274 4.45557 36 9.82815 36 16.4556V28.4556C36 35.083 30.6274 40.4556 24 40.4556H12C5.37258 40.4556 1.93283e-07 35.083 0 28.4556V16.4556C0 9.82815 5.37258 4.45557 12 4.45557H24ZM17.9375 13.4556C13.771 13.4556 11.0002 15.6389 11 19.2847C11 24.9699 18.7998 24.0639 18.7998 26.5151C18.7998 27.4627 17.9785 27.772 16.8291 27.772C15.1255 27.772 12.9497 27.0711 11.2256 26.1235V31.0259C13.1344 31.8498 15.0639 32.2007 16.8291 32.2007C21.0983 32.2007 24.0332 30.0783 24.0332 26.3911C24.0123 20.2532 16.1924 21.3446 16.1924 19.0376C16.1925 18.2344 16.8498 17.9253 17.9375 17.9253C19.4973 17.9253 21.4675 18.3992 23.0273 19.2437V14.4028C21.3239 13.7232 19.6409 13.4556 17.9375 13.4556Z" fill="#635BFF"/>
<path fill-rule="evenodd" clip-rule="evenodd" d="M123.306 23.0063C123.306 17.3668 120.574 12.9169 115.353 12.9169C110.11 12.9169 106.938 17.3668 106.938 22.9623C106.938 29.5931 110.683 32.9416 116.058 32.9416C118.68 32.9416 120.662 32.3468 122.16 31.5097V27.1038C120.662 27.8528 118.944 28.3154 116.763 28.3154C114.626 28.3154 112.732 27.5664 112.489 24.967H123.262C123.262 24.6806 123.306 23.535 123.306 23.0063ZM112.423 20.9136C112.423 18.4242 113.943 17.3889 115.331 17.3889C116.675 17.3889 118.107 18.4242 118.107 20.9136H112.423Z" fill="white"/>
<path fill-rule="evenodd" clip-rule="evenodd" d="M98.4345 12.9169C96.2756 12.9169 94.8877 13.9302 94.1167 14.6352L93.8303 13.2694H88.9839V38.9556L94.4912 37.788L94.5132 31.5537C95.3063 32.1265 96.4739 32.9416 98.4124 32.9416C102.356 32.9416 105.946 29.7693 105.946 22.786C105.924 16.3975 102.29 12.9169 98.4345 12.9169ZM97.1127 28.0951C95.813 28.0951 95.0419 27.6325 94.5132 27.0597L94.4912 18.8868C95.064 18.248 95.857 17.8074 97.1127 17.8074C99.1174 17.8074 100.505 20.0544 100.505 22.9402C100.505 25.8922 99.1394 28.0951 97.1127 28.0951Z" fill="white"/>
<path fill-rule="evenodd" clip-rule="evenodd" d="M81.4057 11.6171L86.935 10.4275V5.95557L81.4057 7.12312V11.6171Z" fill="white"/>
<path d="M86.935 13.2914H81.4057V32.567H86.935V13.2914Z" fill="white"/>
<path fill-rule="evenodd" clip-rule="evenodd" d="M75.4795 14.9215L75.1271 13.2913H70.3687V32.567H75.8761V19.5036C77.1758 17.8074 79.3787 18.1158 80.0616 18.3581V13.2913C79.3567 13.027 76.7793 12.5423 75.4795 14.9215Z" fill="white"/>
<path fill-rule="evenodd" clip-rule="evenodd" d="M64.465 8.51095L59.0899 9.65647L59.0679 27.302C59.0679 30.5623 61.5131 32.9635 64.7735 32.9635C66.5799 32.9635 67.9016 32.6331 68.6286 32.2365V27.7646C67.9237 28.051 64.443 29.0643 64.443 25.804V17.9836H68.6286V13.2913H64.443L64.465 8.51095Z" fill="white"/>
<path fill-rule="evenodd" clip-rule="evenodd" d="M49.5734 18.8869C49.5734 18.0277 50.2784 17.6973 51.4459 17.6973C53.1201 17.6973 55.235 18.2039 56.9092 19.1071V13.9302C55.0808 13.2033 53.2744 12.9169 51.4459 12.9169C46.974 12.9169 44 15.252 44 19.1512C44 25.2313 52.3712 24.262 52.3712 26.8835C52.3712 27.8969 51.49 28.2273 50.2563 28.2273C48.4279 28.2273 46.0928 27.4783 44.2423 26.4649V31.7079C46.2911 32.5891 48.3618 32.9636 50.2563 32.9636C54.8384 32.9636 57.9886 30.6946 57.9886 26.7513C57.9666 20.1866 49.5734 21.3541 49.5734 18.8869Z" fill="white"/>
</g>
<defs>
<clipPath id="clip0_4451_4525">
<rect width="123.306" height="44.911" fill="white"/>
</clipPath>
</defs>
</svg>
