<svg width="124" height="45" viewBox="0 0 124 45" fill="none" xmlns="http://www.w3.org/2000/svg">
<g clip-path="url(#clip0_3926_6797)">
<path d="M24 4.45551C30.6274 4.45551 36 9.82809 36 16.4555V28.4555C36 35.0829 30.6274 40.4555 24 40.4555H12C5.37258 40.4555 1.93283e-07 35.0829 0 28.4555V16.4555C0 9.82809 5.37258 4.45551 12 4.45551H24ZM17.9375 13.4555C13.771 13.4555 11.0002 15.6388 11 19.2846C11 24.9698 18.7998 24.0638 18.7998 26.5151C18.7998 27.4626 17.9785 27.7719 16.8291 27.7719C15.1255 27.7719 12.9497 27.071 11.2256 26.1235V31.0258C13.1344 31.8498 15.0639 32.2006 16.8291 32.2006C21.0983 32.2006 24.0332 30.0782 24.0332 26.3911C24.0123 20.2531 16.1924 21.3445 16.1924 19.0375C16.1925 18.2343 16.8498 17.9252 17.9375 17.9252C19.4973 17.9252 21.4675 18.3992 23.0273 19.2436V14.4028C21.3239 13.7231 19.6409 13.4555 17.9375 13.4555Z" fill="#635BFF"/>
<path fill-rule="evenodd" clip-rule="evenodd" d="M123.306 23.0063C123.306 17.3668 120.574 12.9168 115.353 12.9168C110.11 12.9168 106.938 17.3668 106.938 22.9622C106.938 29.5931 110.683 32.9415 116.058 32.9415C118.68 32.9415 120.662 32.3467 122.16 31.5096V27.1037C120.662 27.8527 118.944 28.3154 116.763 28.3154C114.626 28.3154 112.732 27.5664 112.489 24.9669H123.262C123.262 24.6805 123.306 23.535 123.306 23.0063ZM112.423 20.9135C112.423 18.4242 113.943 17.3888 115.331 17.3888C116.675 17.3888 118.107 18.4242 118.107 20.9135H112.423Z" fill="#635BFF"/>
<path fill-rule="evenodd" clip-rule="evenodd" d="M98.4345 12.9168C96.2756 12.9168 94.8877 13.9302 94.1167 14.6351L93.8303 13.2693H88.9839V38.9555L94.4912 37.788L94.5132 31.5536C95.3063 32.1264 96.4739 32.9415 98.4124 32.9415C102.356 32.9415 105.946 29.7693 105.946 22.786C105.924 16.3975 102.29 12.9168 98.4345 12.9168ZM97.1127 28.095C95.813 28.095 95.0419 27.6324 94.5132 27.0597L94.4912 18.8868C95.064 18.2479 95.857 17.8073 97.1127 17.8073C99.1174 17.8073 100.505 20.0543 100.505 22.9402C100.505 25.8921 99.1394 28.095 97.1127 28.095Z" fill="#635BFF"/>
<path fill-rule="evenodd" clip-rule="evenodd" d="M81.4057 11.617L86.935 10.4275V5.95551L81.4057 7.12306V11.617Z" fill="#635BFF"/>
<path d="M86.935 13.2913H81.4057V32.567H86.935V13.2913Z" fill="#635BFF"/>
<path fill-rule="evenodd" clip-rule="evenodd" d="M75.4795 14.9215L75.1271 13.2913H70.3687V32.567H75.8761V19.5036C77.1758 17.8073 79.3787 18.1157 80.0616 18.358V13.2913C79.3567 13.0269 76.7793 12.5423 75.4795 14.9215Z" fill="#635BFF"/>
<path fill-rule="evenodd" clip-rule="evenodd" d="M64.465 8.51089L59.0899 9.65641L59.0679 27.3019C59.0679 30.5623 61.5131 32.9635 64.7735 32.9635C66.5799 32.9635 67.9016 32.633 68.6286 32.2365V27.7645C67.9237 28.0509 64.443 29.0643 64.443 25.8039V17.9835H68.6286V13.2913H64.443L64.465 8.51089Z" fill="#635BFF"/>
<path fill-rule="evenodd" clip-rule="evenodd" d="M49.5734 18.8868C49.5734 18.0276 50.2784 17.6972 51.4459 17.6972C53.1201 17.6972 55.235 18.2039 56.9092 19.1071V13.9302C55.0808 13.2032 53.2744 12.9168 51.4459 12.9168C46.974 12.9168 44 15.2519 44 19.1511C44 25.2312 52.3712 24.262 52.3712 26.8834C52.3712 27.8968 51.49 28.2272 50.2563 28.2272C48.4279 28.2272 46.0928 27.4782 44.2423 26.4649V31.7079C46.2911 32.589 48.3618 32.9635 50.2563 32.9635C54.8384 32.9635 57.9886 30.6945 57.9886 26.7513C57.9666 20.1865 49.5734 21.3541 49.5734 18.8868Z" fill="#635BFF"/>
</g>
<defs>
<clipPath id="clip0_3926_6797">
<rect width="123.306" height="44.911" fill="white"/>
</clipPath>
</defs>
</svg>
