<svg width="124" height="45" viewBox="0 0 124 45" fill="none" xmlns="http://www.w3.org/2000/svg">
<g clip-path="url(#clip0_3615_3644)">
<path d="M24.1406 4.45508C30.768 4.45508 36.1406 9.82766 36.1406 16.4551V28.4551C36.1406 35.0825 30.768 40.4551 24.1406 40.4551H12.1406C5.51321 40.4551 0.140625 35.0825 0.140625 28.4551V16.4551C0.140625 9.82766 5.51321 4.45508 12.1406 4.45508H24.1406ZM18.0781 13.4551C13.9116 13.4551 11.1408 15.6384 11.1406 19.2842C11.1406 24.9694 18.9404 24.0634 18.9404 26.5146C18.9404 27.4622 18.1191 27.7715 16.9697 27.7715C15.2661 27.7715 13.0903 27.0706 11.3662 26.123V31.0254C13.275 31.8493 15.2046 32.2002 16.9697 32.2002C21.239 32.2002 24.1738 30.0778 24.1738 26.3906C24.153 20.2527 16.333 21.3441 16.333 19.0371C16.3331 18.2339 16.9904 17.9248 18.0781 17.9248C19.6379 17.9248 21.6081 18.3987 23.168 19.2432V14.4023C21.4645 13.7227 19.7816 13.4551 18.0781 13.4551Z" fill="#1A1A1C" fill-opacity="0.4"/>
<path fill-rule="evenodd" clip-rule="evenodd" d="M123.446 23.0059C123.446 17.3663 120.715 12.9164 115.494 12.9164C110.251 12.9164 107.079 17.3663 107.079 22.9618C107.079 29.5926 110.824 32.9411 116.199 32.9411C118.82 32.9411 120.803 32.3463 122.301 31.5092V27.1033C120.803 27.8523 119.085 28.3149 116.904 28.3149C114.767 28.3149 112.872 27.5659 112.63 24.9665H123.402C123.402 24.6801 123.446 23.5346 123.446 23.0059ZM112.564 20.9131C112.564 18.4237 114.084 17.3884 115.472 17.3884C116.816 17.3884 118.247 18.4237 118.247 20.9131H112.564Z" fill="#1A1A1C" fill-opacity="0.4"/>
<path fill-rule="evenodd" clip-rule="evenodd" d="M98.5751 12.9164C96.4162 12.9164 95.0284 13.9297 94.2573 14.6347L93.971 13.2689H89.1245V38.9551L94.6318 37.7875L94.6539 31.5532C95.4469 32.126 96.6145 32.9411 98.5531 32.9411C102.496 32.9411 106.087 29.7688 106.087 22.7855C106.065 16.397 102.43 12.9164 98.5751 12.9164ZM97.2533 28.0946C95.9536 28.0946 95.1826 27.632 94.6539 27.0592L94.6318 18.8863C95.2046 18.2475 95.9977 17.8069 97.2533 17.8069C99.258 17.8069 100.646 20.0539 100.646 22.9397C100.646 25.8917 99.28 28.0946 97.2533 28.0946Z" fill="#1A1A1C" fill-opacity="0.4"/>
<path fill-rule="evenodd" clip-rule="evenodd" d="M81.5463 11.6166L87.0757 10.427V5.95508L81.5463 7.12263V11.6166Z" fill="#1A1A1C" fill-opacity="0.4"/>
<path d="M87.0757 13.2909H81.5463V32.5665H87.0757V13.2909Z" fill="#1A1A1C" fill-opacity="0.4"/>
<path fill-rule="evenodd" clip-rule="evenodd" d="M75.6202 14.921L75.2677 13.2909H70.5094V32.5665H76.0167V19.5031C77.3164 17.8069 79.5194 18.1153 80.2023 18.3576V13.2909C79.4973 13.0265 76.9199 12.5419 75.6202 14.921Z" fill="#1A1A1C" fill-opacity="0.4"/>
<path fill-rule="evenodd" clip-rule="evenodd" d="M64.6057 8.51046L59.2305 9.65599L59.2085 27.3015C59.2085 30.5618 61.6537 32.963 64.9141 32.963C66.7205 32.963 68.0422 32.6326 68.7692 32.2361V27.7641C68.0643 28.0505 64.5836 29.0638 64.5836 25.8035V17.9831H68.7692V13.2908H64.5836L64.6057 8.51046Z" fill="#1A1A1C" fill-opacity="0.4"/>
<path fill-rule="evenodd" clip-rule="evenodd" d="M49.714 18.8864C49.714 18.0272 50.419 17.6968 51.5865 17.6968C53.2608 17.6968 55.3756 18.2035 57.0498 19.1067V13.9298C55.2214 13.2028 53.415 12.9164 51.5865 12.9164C47.1146 12.9164 44.1406 15.2515 44.1406 19.1507C44.1406 25.2308 52.5118 24.2615 52.5118 26.883C52.5118 27.8964 51.6306 28.2268 50.397 28.2268C48.5685 28.2268 46.2334 27.4778 44.3829 26.4645V31.7074C46.4317 32.5886 48.5024 32.9631 50.397 32.9631C54.9791 32.9631 58.1293 30.6941 58.1293 26.7508C58.1072 20.1861 49.714 21.3536 49.714 18.8864Z" fill="#1A1A1C" fill-opacity="0.4"/>
</g>
<defs>
<clipPath id="clip0_3615_3644">
<rect width="123.306" height="44.911" fill="white" transform="translate(0.140625)"/>
</clipPath>
</defs>
</svg>
