<svg width="21" height="21" viewBox="0 0 21 21" fill="none" xmlns="http://www.w3.org/2000/svg">
<g id="remix-icons/line/user/user-line">
<g clip-path="url(#clip0_535_37071)">
<rect x="0.664062" y="0.25" width="20" height="20" rx="10" fill="#1A1A1C"/>
<g id="Group">
<path id="Vector" d="M0.664062 0.25H20.6641V20.25H0.664062V0.25Z" fill="#C6F56F"/>
<path id="Vector_2" d="M6.66406 14.75C6.66406 13.7397 7.08549 12.7707 7.83564 12.0563C8.58578 11.3418 9.6032 10.9405 10.6641 10.9405C11.7249 10.9405 12.7423 11.3418 13.4925 12.0563C14.2426 12.7707 14.6641 13.7397 14.6641 14.75H13.6641C13.6641 13.9922 13.348 13.2655 12.7854 12.7297C12.2228 12.1939 11.4597 11.8929 10.6641 11.8929C9.86841 11.8929 9.10535 12.1939 8.54274 12.7297C7.98013 13.2655 7.66406 13.9922 7.66406 14.75H6.66406ZM10.6641 10.4643C9.00656 10.4643 7.66406 9.18571 7.66406 7.60714C7.66406 6.02857 9.00656 4.75 10.6641 4.75C12.3216 4.75 13.6641 6.02857 13.6641 7.60714C13.6641 9.18571 12.3216 10.4643 10.6641 10.4643ZM10.6641 9.5119C11.7691 9.5119 12.6641 8.65952 12.6641 7.60714C12.6641 6.55476 11.7691 5.70238 10.6641 5.70238C9.55906 5.70238 8.66406 6.55476 8.66406 7.60714C8.66406 8.65952 9.55906 9.5119 10.6641 9.5119Z" fill="#1A1A1C"/>
</g>
</g>
</g>
<defs>
<clipPath id="clip0_535_37071">
<rect x="0.664062" y="0.25" width="20" height="20" rx="10" fill="white"/>
</clipPath>
</defs>
</svg>
