<svg width="56" height="57" viewBox="0 0 56 57" fill="none" xmlns="http://www.w3.org/2000/svg">
<g id="Brand logo / zapier">
<path id="zapier" d="M33.1714 33.6825C29.8471 34.9334 26.1219 34.9357 22.7974 33.6832C21.5449 30.3624 21.5446 26.6379 22.7955 23.3167C26.1191 22.0636 29.848 22.0633 33.1716 23.3165C34.4237 26.6368 34.4232 30.3621 33.1714 33.6825ZM52.1594 24.4159H37.849L47.9674 14.3033C46.3794 12.0741 44.4189 10.1158 42.1883 8.5288L32.0692 18.6414V4.34026C29.3685 3.88623 26.5988 3.88693 23.8981 4.34026V18.6414L13.779 8.5288C11.5489 10.1148 9.58785 12.0757 7.99975 14.3033L18.1196 24.4159H3.80945C3.45622 27.1958 3.34145 29.8083 3.80945 32.5824H18.1198L7.99995 42.695C9.59188 44.9276 11.545 46.8794 13.779 48.4703L23.8981 38.357V52.6588C26.5991 53.1112 29.368 53.1114 32.069 52.6588V38.357L42.1891 48.4703C44.4207 46.8817 46.3777 44.9251 47.9674 42.695L37.8475 32.5824H52.1594C52.6135 29.8858 52.6135 27.1125 52.1594 24.4159Z" fill="#FF4A00"/>
</g>
</svg>
