<svg width="1366" height="962" viewBox="0 0 1366 962" fill="none" xmlns="http://www.w3.org/2000/svg">
<path d="M0.5 0H1.5V1H0.5V0Z" fill="white"/>
<path d="M0.5 31H1.5V32H0.5V31Z" fill="white"/>
<path d="M0.5 62H1.5V63H0.5V62Z" fill="white"/>
<path d="M0.5 93H1.5V94H0.5V93Z" fill="white"/>
<path d="M0.5 124H1.5V125H0.5V124Z" fill="white"/>
<path d="M0.5 155H1.5V156H0.5V155Z" fill="white"/>
<path d="M0.5 186H1.5V187H0.5V186Z" fill="white"/>
<path d="M0.5 217H1.5V218H0.5V217Z" fill="white"/>
<path d="M0.5 248H1.5V249H0.5V248Z" fill="white"/>
<path d="M0.5 279H1.5V280H0.5V279Z" fill="white"/>
<path d="M0.5 310H1.5V311H0.5V310Z" fill="white"/>
<path d="M0.5 341H1.5V342H0.5V341Z" fill="white"/>
<path d="M0.5 372H1.5V373H0.5V372Z" fill="white"/>
<path d="M0.5 403H1.5V404H0.5V403Z" fill="white"/>
<path d="M0.5 434H1.5V435H0.5V434Z" fill="white"/>
<path d="M0.5 465H1.5V466H0.5V465Z" fill="white"/>
<path d="M0.5 496H1.5V497H0.5V496Z" fill="white"/>
<path d="M0.5 527H1.5V528H0.5V527Z" fill="white"/>
<path d="M0.5 558H1.5V559H0.5V558Z" fill="white"/>
<path d="M0.5 589H1.5V590H0.5V589Z" fill="white"/>
<path d="M0.5 620H1.5V621H0.5V620Z" fill="white"/>
<path d="M0.5 651H1.5V652H0.5V651Z" fill="white"/>
<path d="M0.5 682H1.5V683H0.5V682Z" fill="white"/>
<path d="M0.5 713H1.5V714H0.5V713Z" fill="white"/>
<path d="M0.5 744H1.5V745H0.5V744Z" fill="white"/>
<path d="M0.5 775H1.5V776H0.5V775Z" fill="white"/>
<path d="M0.5 806H1.5V807H0.5V806Z" fill="white"/>
<path d="M0.5 837H1.5V838H0.5V837Z" fill="white"/>
<path d="M0.5 868H1.5V869H0.5V868Z" fill="white"/>
<path d="M0.5 899H1.5V900H0.5V899Z" fill="white"/>
<path d="M0.5 930H1.5V931H0.5V930Z" fill="white"/>
<path d="M0.5 961H1.5V962H0.5V961Z" fill="white"/>
<path d="M31.5 0H32.5V1H31.5V0Z" fill="white"/>
<path d="M31.5 31H32.5V32H31.5V31Z" fill="white"/>
<path d="M31.5 62H32.5V63H31.5V62Z" fill="white"/>
<path d="M31.5 93H32.5V94H31.5V93Z" fill="white"/>
<path d="M31.5 124H32.5V125H31.5V124Z" fill="white"/>
<path d="M31.5 155H32.5V156H31.5V155Z" fill="white"/>
<path d="M31.5 186H32.5V187H31.5V186Z" fill="white"/>
<path d="M31.5 217H32.5V218H31.5V217Z" fill="white"/>
<path d="M31.5 248H32.5V249H31.5V248Z" fill="white"/>
<path d="M31.5 279H32.5V280H31.5V279Z" fill="white"/>
<path d="M31.5 310H32.5V311H31.5V310Z" fill="white"/>
<path d="M31.5 341H32.5V342H31.5V341Z" fill="white"/>
<path d="M31.5 372H32.5V373H31.5V372Z" fill="white"/>
<path d="M31.5 403H32.5V404H31.5V403Z" fill="white"/>
<path d="M31.5 434H32.5V435H31.5V434Z" fill="white"/>
<path d="M31.5 465H32.5V466H31.5V465Z" fill="white"/>
<path d="M31.5 496H32.5V497H31.5V496Z" fill="white"/>
<path d="M31.5 527H32.5V528H31.5V527Z" fill="white"/>
<path d="M31.5 558H32.5V559H31.5V558Z" fill="white"/>
<path d="M31.5 589H32.5V590H31.5V589Z" fill="white"/>
<path d="M31.5 620H32.5V621H31.5V620Z" fill="white"/>
<path d="M31.5 651H32.5V652H31.5V651Z" fill="white"/>
<path d="M31.5 682H32.5V683H31.5V682Z" fill="white"/>
<path d="M31.5 713H32.5V714H31.5V713Z" fill="white"/>
<path d="M31.5 744H32.5V745H31.5V744Z" fill="white"/>
<path d="M31.5 775H32.5V776H31.5V775Z" fill="white"/>
<path d="M31.5 806H32.5V807H31.5V806Z" fill="white"/>
<path d="M31.5 837H32.5V838H31.5V837Z" fill="white"/>
<path d="M31.5 868H32.5V869H31.5V868Z" fill="white"/>
<path d="M31.5 899H32.5V900H31.5V899Z" fill="white"/>
<path d="M31.5 930H32.5V931H31.5V930Z" fill="white"/>
<path d="M31.5 961H32.5V962H31.5V961Z" fill="white"/>
<path d="M62.5 0H63.5V1H62.5V0Z" fill="white"/>
<path d="M62.5 31H63.5V32H62.5V31Z" fill="white"/>
<path d="M62.5 62H63.5V63H62.5V62Z" fill="white"/>
<path d="M62.5 93H63.5V94H62.5V93Z" fill="white"/>
<path d="M62.5 124H63.5V125H62.5V124Z" fill="white"/>
<path d="M62.5 155H63.5V156H62.5V155Z" fill="white"/>
<path d="M62.5 186H63.5V187H62.5V186Z" fill="white"/>
<path d="M62.5 217H63.5V218H62.5V217Z" fill="white"/>
<path d="M62.5 248H63.5V249H62.5V248Z" fill="white"/>
<path d="M62.5 279H63.5V280H62.5V279Z" fill="white"/>
<path d="M62.5 310H63.5V311H62.5V310Z" fill="white"/>
<path d="M62.5 341H63.5V342H62.5V341Z" fill="white"/>
<path d="M62.5 372H63.5V373H62.5V372Z" fill="white"/>
<path d="M62.5 403H63.5V404H62.5V403Z" fill="white"/>
<path d="M62.5 434H63.5V435H62.5V434Z" fill="white"/>
<path d="M62.5 465H63.5V466H62.5V465Z" fill="white"/>
<path d="M62.5 496H63.5V497H62.5V496Z" fill="white"/>
<path d="M62.5 527H63.5V528H62.5V527Z" fill="white"/>
<path d="M62.5 558H63.5V559H62.5V558Z" fill="white"/>
<path d="M62.5 589H63.5V590H62.5V589Z" fill="white"/>
<path d="M62.5 620H63.5V621H62.5V620Z" fill="white"/>
<path d="M62.5 651H63.5V652H62.5V651Z" fill="white"/>
<path d="M62.5 682H63.5V683H62.5V682Z" fill="white"/>
<path d="M62.5 713H63.5V714H62.5V713Z" fill="white"/>
<path d="M62.5 744H63.5V745H62.5V744Z" fill="white"/>
<path d="M62.5 775H63.5V776H62.5V775Z" fill="white"/>
<path d="M62.5 806H63.5V807H62.5V806Z" fill="white"/>
<path d="M62.5 837H63.5V838H62.5V837Z" fill="white"/>
<path d="M62.5 868H63.5V869H62.5V868Z" fill="white"/>
<path d="M62.5 899H63.5V900H62.5V899Z" fill="white"/>
<path d="M62.5 930H63.5V931H62.5V930Z" fill="white"/>
<path d="M62.5 961H63.5V962H62.5V961Z" fill="white"/>
<path d="M93.5 0H94.5V1H93.5V0Z" fill="white"/>
<path d="M93.5 31H94.5V32H93.5V31Z" fill="white"/>
<path d="M93.5 62H94.5V63H93.5V62Z" fill="white"/>
<path d="M93.5 93H94.5V94H93.5V93Z" fill="white"/>
<path d="M93.5 124H94.5V125H93.5V124Z" fill="white"/>
<path d="M93.5 155H94.5V156H93.5V155Z" fill="white"/>
<path d="M93.5 186H94.5V187H93.5V186Z" fill="white"/>
<path d="M93.5 217H94.5V218H93.5V217Z" fill="white"/>
<path d="M93.5 248H94.5V249H93.5V248Z" fill="white"/>
<path d="M93.5 279H94.5V280H93.5V279Z" fill="white"/>
<path d="M93.5 310H94.5V311H93.5V310Z" fill="white"/>
<path d="M93.5 341H94.5V342H93.5V341Z" fill="white"/>
<path d="M93.5 372H94.5V373H93.5V372Z" fill="white"/>
<path d="M93.5 403H94.5V404H93.5V403Z" fill="white"/>
<path d="M93.5 434H94.5V435H93.5V434Z" fill="white"/>
<path d="M93.5 465H94.5V466H93.5V465Z" fill="white"/>
<path d="M93.5 496H94.5V497H93.5V496Z" fill="white"/>
<path d="M93.5 527H94.5V528H93.5V527Z" fill="white"/>
<path d="M93.5 558H94.5V559H93.5V558Z" fill="white"/>
<path d="M93.5 589H94.5V590H93.5V589Z" fill="white"/>
<path d="M93.5 620H94.5V621H93.5V620Z" fill="white"/>
<path d="M93.5 651H94.5V652H93.5V651Z" fill="white"/>
<path d="M93.5 682H94.5V683H93.5V682Z" fill="white"/>
<path d="M93.5 713H94.5V714H93.5V713Z" fill="white"/>
<path d="M93.5 744H94.5V745H93.5V744Z" fill="white"/>
<path d="M93.5 775H94.5V776H93.5V775Z" fill="white"/>
<path d="M93.5 806H94.5V807H93.5V806Z" fill="white"/>
<path d="M93.5 837H94.5V838H93.5V837Z" fill="white"/>
<path d="M93.5 868H94.5V869H93.5V868Z" fill="white"/>
<path d="M93.5 899H94.5V900H93.5V899Z" fill="white"/>
<path d="M93.5 930H94.5V931H93.5V930Z" fill="white"/>
<path d="M93.5 961H94.5V962H93.5V961Z" fill="white"/>
<path d="M124.5 0H125.5V1H124.5V0Z" fill="white"/>
<path d="M124.5 31H125.5V32H124.5V31Z" fill="white"/>
<path d="M124.5 62H125.5V63H124.5V62Z" fill="white"/>
<path d="M124.5 93H125.5V94H124.5V93Z" fill="white"/>
<path d="M124.5 124H125.5V125H124.5V124Z" fill="white"/>
<path d="M124.5 155H125.5V156H124.5V155Z" fill="white"/>
<path d="M124.5 186H125.5V187H124.5V186Z" fill="white"/>
<path d="M124.5 217H125.5V218H124.5V217Z" fill="white"/>
<path d="M124.5 248H125.5V249H124.5V248Z" fill="white"/>
<path d="M124.5 279H125.5V280H124.5V279Z" fill="white"/>
<path d="M124.5 310H125.5V311H124.5V310Z" fill="white"/>
<path d="M124.5 341H125.5V342H124.5V341Z" fill="white"/>
<path d="M124.5 372H125.5V373H124.5V372Z" fill="white"/>
<path d="M124.5 403H125.5V404H124.5V403Z" fill="white"/>
<path d="M124.5 434H125.5V435H124.5V434Z" fill="white"/>
<path d="M124.5 465H125.5V466H124.5V465Z" fill="white"/>
<path d="M124.5 496H125.5V497H124.5V496Z" fill="white"/>
<path d="M124.5 527H125.5V528H124.5V527Z" fill="white"/>
<path d="M124.5 558H125.5V559H124.5V558Z" fill="white"/>
<path d="M124.5 589H125.5V590H124.5V589Z" fill="white"/>
<path d="M124.5 620H125.5V621H124.5V620Z" fill="white"/>
<path d="M124.5 651H125.5V652H124.5V651Z" fill="white"/>
<path d="M124.5 682H125.5V683H124.5V682Z" fill="white"/>
<path d="M124.5 713H125.5V714H124.5V713Z" fill="white"/>
<path d="M124.5 744H125.5V745H124.5V744Z" fill="white"/>
<path d="M124.5 775H125.5V776H124.5V775Z" fill="white"/>
<path d="M124.5 806H125.5V807H124.5V806Z" fill="white"/>
<path d="M124.5 837H125.5V838H124.5V837Z" fill="white"/>
<path d="M124.5 868H125.5V869H124.5V868Z" fill="white"/>
<path d="M124.5 899H125.5V900H124.5V899Z" fill="white"/>
<path d="M124.5 930H125.5V931H124.5V930Z" fill="white"/>
<path d="M124.5 961H125.5V962H124.5V961Z" fill="white"/>
<path d="M155.5 0H156.5V1H155.5V0Z" fill="white"/>
<path d="M155.5 31H156.5V32H155.5V31Z" fill="white"/>
<path d="M155.5 62H156.5V63H155.5V62Z" fill="white"/>
<path d="M155.5 93H156.5V94H155.5V93Z" fill="white"/>
<path d="M155.5 124H156.5V125H155.5V124Z" fill="white"/>
<path d="M155.5 155H156.5V156H155.5V155Z" fill="white"/>
<path d="M155.5 186H156.5V187H155.5V186Z" fill="white"/>
<path d="M155.5 217H156.5V218H155.5V217Z" fill="white"/>
<path d="M155.5 248H156.5V249H155.5V248Z" fill="white"/>
<path d="M155.5 279H156.5V280H155.5V279Z" fill="white"/>
<path d="M155.5 310H156.5V311H155.5V310Z" fill="white"/>
<path d="M155.5 341H156.5V342H155.5V341Z" fill="white"/>
<path d="M155.5 372H156.5V373H155.5V372Z" fill="white"/>
<path d="M155.5 403H156.5V404H155.5V403Z" fill="white"/>
<path d="M155.5 434H156.5V435H155.5V434Z" fill="white"/>
<path d="M155.5 465H156.5V466H155.5V465Z" fill="white"/>
<path d="M155.5 496H156.5V497H155.5V496Z" fill="white"/>
<path d="M155.5 527H156.5V528H155.5V527Z" fill="white"/>
<path d="M155.5 558H156.5V559H155.5V558Z" fill="white"/>
<path d="M155.5 589H156.5V590H155.5V589Z" fill="white"/>
<path d="M155.5 620H156.5V621H155.5V620Z" fill="white"/>
<path d="M155.5 651H156.5V652H155.5V651Z" fill="white"/>
<path d="M155.5 682H156.5V683H155.5V682Z" fill="white"/>
<path d="M155.5 713H156.5V714H155.5V713Z" fill="white"/>
<path d="M155.5 744H156.5V745H155.5V744Z" fill="white"/>
<path d="M155.5 775H156.5V776H155.5V775Z" fill="white"/>
<path d="M155.5 806H156.5V807H155.5V806Z" fill="white"/>
<path d="M155.5 837H156.5V838H155.5V837Z" fill="white"/>
<path d="M155.5 868H156.5V869H155.5V868Z" fill="white"/>
<path d="M155.5 899H156.5V900H155.5V899Z" fill="white"/>
<path d="M155.5 930H156.5V931H155.5V930Z" fill="white"/>
<path d="M155.5 961H156.5V962H155.5V961Z" fill="white"/>
<path d="M186.5 0H187.5V1H186.5V0Z" fill="white"/>
<path d="M186.5 31H187.5V32H186.5V31Z" fill="white"/>
<path d="M186.5 62H187.5V63H186.5V62Z" fill="white"/>
<path d="M186.5 93H187.5V94H186.5V93Z" fill="white"/>
<path d="M186.5 124H187.5V125H186.5V124Z" fill="white"/>
<path d="M186.5 155H187.5V156H186.5V155Z" fill="white"/>
<path d="M186.5 186H187.5V187H186.5V186Z" fill="white"/>
<path d="M186.5 217H187.5V218H186.5V217Z" fill="white"/>
<path d="M186.5 248H187.5V249H186.5V248Z" fill="white"/>
<path d="M186.5 279H187.5V280H186.5V279Z" fill="white"/>
<path d="M186.5 310H187.5V311H186.5V310Z" fill="white"/>
<path d="M186.5 341H187.5V342H186.5V341Z" fill="white"/>
<path d="M186.5 372H187.5V373H186.5V372Z" fill="white"/>
<path d="M186.5 403H187.5V404H186.5V403Z" fill="white"/>
<path d="M186.5 434H187.5V435H186.5V434Z" fill="white"/>
<path d="M186.5 465H187.5V466H186.5V465Z" fill="white"/>
<path d="M186.5 496H187.5V497H186.5V496Z" fill="white"/>
<path d="M186.5 527H187.5V528H186.5V527Z" fill="white"/>
<path d="M186.5 558H187.5V559H186.5V558Z" fill="white"/>
<path d="M186.5 589H187.5V590H186.5V589Z" fill="white"/>
<path d="M186.5 620H187.5V621H186.5V620Z" fill="white"/>
<path d="M186.5 651H187.5V652H186.5V651Z" fill="white"/>
<path d="M186.5 682H187.5V683H186.5V682Z" fill="white"/>
<path d="M186.5 713H187.5V714H186.5V713Z" fill="white"/>
<path d="M186.5 744H187.5V745H186.5V744Z" fill="white"/>
<path d="M186.5 775H187.5V776H186.5V775Z" fill="white"/>
<path d="M186.5 806H187.5V807H186.5V806Z" fill="white"/>
<path d="M186.5 837H187.5V838H186.5V837Z" fill="white"/>
<path d="M186.5 868H187.5V869H186.5V868Z" fill="white"/>
<path d="M186.5 899H187.5V900H186.5V899Z" fill="white"/>
<path d="M186.5 930H187.5V931H186.5V930Z" fill="white"/>
<path d="M186.5 961H187.5V962H186.5V961Z" fill="white"/>
<path d="M217.5 0H218.5V1H217.5V0Z" fill="white"/>
<path d="M217.5 31H218.5V32H217.5V31Z" fill="white"/>
<path d="M217.5 62H218.5V63H217.5V62Z" fill="white"/>
<path d="M217.5 93H218.5V94H217.5V93Z" fill="white"/>
<path d="M217.5 124H218.5V125H217.5V124Z" fill="white"/>
<path d="M217.5 155H218.5V156H217.5V155Z" fill="white"/>
<path d="M217.5 186H218.5V187H217.5V186Z" fill="white"/>
<path d="M217.5 217H218.5V218H217.5V217Z" fill="white"/>
<path d="M217.5 248H218.5V249H217.5V248Z" fill="white"/>
<path d="M217.5 279H218.5V280H217.5V279Z" fill="white"/>
<path d="M217.5 310H218.5V311H217.5V310Z" fill="white"/>
<path d="M217.5 341H218.5V342H217.5V341Z" fill="white"/>
<path d="M217.5 372H218.5V373H217.5V372Z" fill="white"/>
<path d="M217.5 403H218.5V404H217.5V403Z" fill="white"/>
<path d="M217.5 434H218.5V435H217.5V434Z" fill="white"/>
<path d="M217.5 465H218.5V466H217.5V465Z" fill="white"/>
<path d="M217.5 496H218.5V497H217.5V496Z" fill="white"/>
<path d="M217.5 527H218.5V528H217.5V527Z" fill="white"/>
<path d="M217.5 558H218.5V559H217.5V558Z" fill="white"/>
<path d="M217.5 589H218.5V590H217.5V589Z" fill="white"/>
<path d="M217.5 620H218.5V621H217.5V620Z" fill="white"/>
<path d="M217.5 651H218.5V652H217.5V651Z" fill="white"/>
<path d="M217.5 682H218.5V683H217.5V682Z" fill="white"/>
<path d="M217.5 713H218.5V714H217.5V713Z" fill="white"/>
<path d="M217.5 744H218.5V745H217.5V744Z" fill="white"/>
<path d="M217.5 775H218.5V776H217.5V775Z" fill="white"/>
<path d="M217.5 806H218.5V807H217.5V806Z" fill="white"/>
<path d="M217.5 837H218.5V838H217.5V837Z" fill="white"/>
<path d="M217.5 868H218.5V869H217.5V868Z" fill="white"/>
<path d="M217.5 899H218.5V900H217.5V899Z" fill="white"/>
<path d="M217.5 930H218.5V931H217.5V930Z" fill="white"/>
<path d="M217.5 961H218.5V962H217.5V961Z" fill="white"/>
<path d="M248.5 0H249.5V1H248.5V0Z" fill="white"/>
<path d="M248.5 31H249.5V32H248.5V31Z" fill="white"/>
<path d="M248.5 62H249.5V63H248.5V62Z" fill="white"/>
<path d="M248.5 93H249.5V94H248.5V93Z" fill="white"/>
<path d="M248.5 124H249.5V125H248.5V124Z" fill="white"/>
<path d="M248.5 155H249.5V156H248.5V155Z" fill="white"/>
<path d="M248.5 186H249.5V187H248.5V186Z" fill="white"/>
<path d="M248.5 217H249.5V218H248.5V217Z" fill="white"/>
<path d="M248.5 248H249.5V249H248.5V248Z" fill="white"/>
<path d="M248.5 279H249.5V280H248.5V279Z" fill="white"/>
<path d="M248.5 310H249.5V311H248.5V310Z" fill="white"/>
<path d="M248.5 341H249.5V342H248.5V341Z" fill="white"/>
<path d="M248.5 372H249.5V373H248.5V372Z" fill="white"/>
<path d="M248.5 403H249.5V404H248.5V403Z" fill="white"/>
<path d="M248.5 434H249.5V435H248.5V434Z" fill="white"/>
<path d="M248.5 465H249.5V466H248.5V465Z" fill="white"/>
<path d="M248.5 496H249.5V497H248.5V496Z" fill="white"/>
<path d="M248.5 527H249.5V528H248.5V527Z" fill="white"/>
<path d="M248.5 558H249.5V559H248.5V558Z" fill="white"/>
<path d="M248.5 589H249.5V590H248.5V589Z" fill="white"/>
<path d="M248.5 620H249.5V621H248.5V620Z" fill="white"/>
<path d="M248.5 651H249.5V652H248.5V651Z" fill="white"/>
<path d="M248.5 682H249.5V683H248.5V682Z" fill="white"/>
<path d="M248.5 713H249.5V714H248.5V713Z" fill="white"/>
<path d="M248.5 744H249.5V745H248.5V744Z" fill="white"/>
<path d="M248.5 775H249.5V776H248.5V775Z" fill="white"/>
<path d="M248.5 806H249.5V807H248.5V806Z" fill="white"/>
<path d="M248.5 837H249.5V838H248.5V837Z" fill="white"/>
<path d="M248.5 868H249.5V869H248.5V868Z" fill="white"/>
<path d="M248.5 899H249.5V900H248.5V899Z" fill="white"/>
<path d="M248.5 930H249.5V931H248.5V930Z" fill="white"/>
<path d="M248.5 961H249.5V962H248.5V961Z" fill="white"/>
<path d="M279.5 0H280.5V1H279.5V0Z" fill="white"/>
<path d="M279.5 31H280.5V32H279.5V31Z" fill="white"/>
<path d="M279.5 62H280.5V63H279.5V62Z" fill="white"/>
<path d="M279.5 93H280.5V94H279.5V93Z" fill="white"/>
<path d="M279.5 124H280.5V125H279.5V124Z" fill="white"/>
<path d="M279.5 155H280.5V156H279.5V155Z" fill="white"/>
<path d="M279.5 186H280.5V187H279.5V186Z" fill="white"/>
<path d="M279.5 217H280.5V218H279.5V217Z" fill="white"/>
<path d="M279.5 248H280.5V249H279.5V248Z" fill="white"/>
<path d="M279.5 279H280.5V280H279.5V279Z" fill="white"/>
<path d="M279.5 310H280.5V311H279.5V310Z" fill="white"/>
<path d="M279.5 341H280.5V342H279.5V341Z" fill="white"/>
<path d="M279.5 372H280.5V373H279.5V372Z" fill="white"/>
<path d="M279.5 403H280.5V404H279.5V403Z" fill="white"/>
<path d="M279.5 434H280.5V435H279.5V434Z" fill="white"/>
<path d="M279.5 465H280.5V466H279.5V465Z" fill="white"/>
<path d="M279.5 496H280.5V497H279.5V496Z" fill="white"/>
<path d="M279.5 527H280.5V528H279.5V527Z" fill="white"/>
<path d="M279.5 558H280.5V559H279.5V558Z" fill="white"/>
<path d="M279.5 589H280.5V590H279.5V589Z" fill="white"/>
<path d="M279.5 620H280.5V621H279.5V620Z" fill="white"/>
<path d="M279.5 651H280.5V652H279.5V651Z" fill="white"/>
<path d="M279.5 682H280.5V683H279.5V682Z" fill="white"/>
<path d="M279.5 713H280.5V714H279.5V713Z" fill="white"/>
<path d="M279.5 744H280.5V745H279.5V744Z" fill="white"/>
<path d="M279.5 775H280.5V776H279.5V775Z" fill="white"/>
<path d="M279.5 806H280.5V807H279.5V806Z" fill="white"/>
<path d="M279.5 837H280.5V838H279.5V837Z" fill="white"/>
<path d="M279.5 868H280.5V869H279.5V868Z" fill="white"/>
<path d="M279.5 899H280.5V900H279.5V899Z" fill="white"/>
<path d="M279.5 930H280.5V931H279.5V930Z" fill="white"/>
<path d="M279.5 961H280.5V962H279.5V961Z" fill="white"/>
<path d="M310.5 0H311.5V1H310.5V0Z" fill="white"/>
<path d="M310.5 31H311.5V32H310.5V31Z" fill="white"/>
<path d="M310.5 62H311.5V63H310.5V62Z" fill="white"/>
<path d="M310.5 93H311.5V94H310.5V93Z" fill="white"/>
<path d="M310.5 124H311.5V125H310.5V124Z" fill="white"/>
<path d="M310.5 155H311.5V156H310.5V155Z" fill="white"/>
<path d="M310.5 186H311.5V187H310.5V186Z" fill="white"/>
<path d="M310.5 217H311.5V218H310.5V217Z" fill="white"/>
<path d="M310.5 248H311.5V249H310.5V248Z" fill="white"/>
<path d="M310.5 279H311.5V280H310.5V279Z" fill="white"/>
<path d="M310.5 310H311.5V311H310.5V310Z" fill="white"/>
<path d="M310.5 341H311.5V342H310.5V341Z" fill="white"/>
<path d="M310.5 372H311.5V373H310.5V372Z" fill="white"/>
<path d="M310.5 403H311.5V404H310.5V403Z" fill="white"/>
<path d="M310.5 434H311.5V435H310.5V434Z" fill="white"/>
<path d="M310.5 465H311.5V466H310.5V465Z" fill="white"/>
<path d="M310.5 496H311.5V497H310.5V496Z" fill="white"/>
<path d="M310.5 527H311.5V528H310.5V527Z" fill="white"/>
<path d="M310.5 558H311.5V559H310.5V558Z" fill="white"/>
<path d="M310.5 589H311.5V590H310.5V589Z" fill="white"/>
<path d="M310.5 620H311.5V621H310.5V620Z" fill="white"/>
<path d="M310.5 651H311.5V652H310.5V651Z" fill="white"/>
<path d="M310.5 682H311.5V683H310.5V682Z" fill="white"/>
<path d="M310.5 713H311.5V714H310.5V713Z" fill="white"/>
<path d="M310.5 744H311.5V745H310.5V744Z" fill="white"/>
<path d="M310.5 775H311.5V776H310.5V775Z" fill="white"/>
<path d="M310.5 806H311.5V807H310.5V806Z" fill="white"/>
<path d="M310.5 837H311.5V838H310.5V837Z" fill="white"/>
<path d="M310.5 868H311.5V869H310.5V868Z" fill="white"/>
<path d="M310.5 899H311.5V900H310.5V899Z" fill="white"/>
<path d="M310.5 930H311.5V931H310.5V930Z" fill="white"/>
<path d="M310.5 961H311.5V962H310.5V961Z" fill="white"/>
<path d="M341.5 0H342.5V1H341.5V0Z" fill="white"/>
<path d="M341.5 31H342.5V32H341.5V31Z" fill="white"/>
<path d="M341.5 62H342.5V63H341.5V62Z" fill="white"/>
<path d="M341.5 93H342.5V94H341.5V93Z" fill="white"/>
<path d="M341.5 124H342.5V125H341.5V124Z" fill="white"/>
<path d="M341.5 155H342.5V156H341.5V155Z" fill="white"/>
<path d="M341.5 186H342.5V187H341.5V186Z" fill="white"/>
<path d="M341.5 217H342.5V218H341.5V217Z" fill="white"/>
<path d="M341.5 248H342.5V249H341.5V248Z" fill="white"/>
<path d="M341.5 279H342.5V280H341.5V279Z" fill="white"/>
<path d="M341.5 310H342.5V311H341.5V310Z" fill="white"/>
<path d="M341.5 341H342.5V342H341.5V341Z" fill="white"/>
<path d="M341.5 372H342.5V373H341.5V372Z" fill="white"/>
<path d="M341.5 403H342.5V404H341.5V403Z" fill="white"/>
<path d="M341.5 434H342.5V435H341.5V434Z" fill="white"/>
<path d="M341.5 465H342.5V466H341.5V465Z" fill="white"/>
<path d="M341.5 496H342.5V497H341.5V496Z" fill="white"/>
<path d="M341.5 527H342.5V528H341.5V527Z" fill="white"/>
<path d="M341.5 558H342.5V559H341.5V558Z" fill="white"/>
<path d="M341.5 589H342.5V590H341.5V589Z" fill="white"/>
<path d="M341.5 620H342.5V621H341.5V620Z" fill="white"/>
<path d="M341.5 651H342.5V652H341.5V651Z" fill="white"/>
<path d="M341.5 682H342.5V683H341.5V682Z" fill="white"/>
<path d="M341.5 713H342.5V714H341.5V713Z" fill="white"/>
<path d="M341.5 744H342.5V745H341.5V744Z" fill="white"/>
<path d="M341.5 775H342.5V776H341.5V775Z" fill="white"/>
<path d="M341.5 806H342.5V807H341.5V806Z" fill="white"/>
<path d="M341.5 837H342.5V838H341.5V837Z" fill="white"/>
<path d="M341.5 868H342.5V869H341.5V868Z" fill="white"/>
<path d="M341.5 899H342.5V900H341.5V899Z" fill="white"/>
<path d="M341.5 930H342.5V931H341.5V930Z" fill="white"/>
<path d="M341.5 961H342.5V962H341.5V961Z" fill="white"/>
<path d="M372.5 0H373.5V1H372.5V0Z" fill="white"/>
<path d="M372.5 31H373.5V32H372.5V31Z" fill="white"/>
<path d="M372.5 62H373.5V63H372.5V62Z" fill="white"/>
<path d="M372.5 93H373.5V94H372.5V93Z" fill="white"/>
<path d="M372.5 124H373.5V125H372.5V124Z" fill="white"/>
<path d="M372.5 155H373.5V156H372.5V155Z" fill="white"/>
<path d="M372.5 186H373.5V187H372.5V186Z" fill="white"/>
<path d="M372.5 217H373.5V218H372.5V217Z" fill="white"/>
<path d="M372.5 248H373.5V249H372.5V248Z" fill="white"/>
<path d="M372.5 279H373.5V280H372.5V279Z" fill="white"/>
<path d="M372.5 310H373.5V311H372.5V310Z" fill="white"/>
<path d="M372.5 341H373.5V342H372.5V341Z" fill="white"/>
<path d="M372.5 372H373.5V373H372.5V372Z" fill="white"/>
<path d="M372.5 403H373.5V404H372.5V403Z" fill="white"/>
<path d="M372.5 434H373.5V435H372.5V434Z" fill="white"/>
<path d="M372.5 465H373.5V466H372.5V465Z" fill="white"/>
<path d="M372.5 496H373.5V497H372.5V496Z" fill="white"/>
<path d="M372.5 527H373.5V528H372.5V527Z" fill="white"/>
<path d="M372.5 558H373.5V559H372.5V558Z" fill="white"/>
<path d="M372.5 589H373.5V590H372.5V589Z" fill="white"/>
<path d="M372.5 620H373.5V621H372.5V620Z" fill="white"/>
<path d="M372.5 651H373.5V652H372.5V651Z" fill="white"/>
<path d="M372.5 682H373.5V683H372.5V682Z" fill="white"/>
<path d="M372.5 713H373.5V714H372.5V713Z" fill="white"/>
<path d="M372.5 744H373.5V745H372.5V744Z" fill="white"/>
<path d="M372.5 775H373.5V776H372.5V775Z" fill="white"/>
<path d="M372.5 806H373.5V807H372.5V806Z" fill="white"/>
<path d="M372.5 837H373.5V838H372.5V837Z" fill="white"/>
<path d="M372.5 868H373.5V869H372.5V868Z" fill="white"/>
<path d="M372.5 899H373.5V900H372.5V899Z" fill="white"/>
<path d="M372.5 930H373.5V931H372.5V930Z" fill="white"/>
<path d="M372.5 961H373.5V962H372.5V961Z" fill="white"/>
<path d="M403.5 0H404.5V1H403.5V0Z" fill="white"/>
<path d="M403.5 31H404.5V32H403.5V31Z" fill="white"/>
<path d="M403.5 62H404.5V63H403.5V62Z" fill="white"/>
<path d="M403.5 93H404.5V94H403.5V93Z" fill="white"/>
<path d="M403.5 124H404.5V125H403.5V124Z" fill="white"/>
<path d="M403.5 155H404.5V156H403.5V155Z" fill="white"/>
<path d="M403.5 186H404.5V187H403.5V186Z" fill="white"/>
<path d="M403.5 217H404.5V218H403.5V217Z" fill="white"/>
<path d="M403.5 248H404.5V249H403.5V248Z" fill="white"/>
<path d="M403.5 279H404.5V280H403.5V279Z" fill="white"/>
<path d="M403.5 310H404.5V311H403.5V310Z" fill="white"/>
<path d="M403.5 341H404.5V342H403.5V341Z" fill="white"/>
<path d="M403.5 372H404.5V373H403.5V372Z" fill="white"/>
<path d="M403.5 403H404.5V404H403.5V403Z" fill="white"/>
<path d="M403.5 434H404.5V435H403.5V434Z" fill="white"/>
<path d="M403.5 465H404.5V466H403.5V465Z" fill="white"/>
<path d="M403.5 496H404.5V497H403.5V496Z" fill="white"/>
<path d="M403.5 527H404.5V528H403.5V527Z" fill="white"/>
<path d="M403.5 558H404.5V559H403.5V558Z" fill="white"/>
<path d="M403.5 589H404.5V590H403.5V589Z" fill="white"/>
<path d="M403.5 620H404.5V621H403.5V620Z" fill="white"/>
<path d="M403.5 651H404.5V652H403.5V651Z" fill="white"/>
<path d="M403.5 682H404.5V683H403.5V682Z" fill="white"/>
<path d="M403.5 713H404.5V714H403.5V713Z" fill="white"/>
<path d="M403.5 744H404.5V745H403.5V744Z" fill="white"/>
<path d="M403.5 775H404.5V776H403.5V775Z" fill="white"/>
<path d="M403.5 806H404.5V807H403.5V806Z" fill="white"/>
<path d="M403.5 837H404.5V838H403.5V837Z" fill="white"/>
<path d="M403.5 868H404.5V869H403.5V868Z" fill="white"/>
<path d="M403.5 899H404.5V900H403.5V899Z" fill="white"/>
<path d="M403.5 930H404.5V931H403.5V930Z" fill="white"/>
<path d="M403.5 961H404.5V962H403.5V961Z" fill="white"/>
<path d="M434.5 0H435.5V1H434.5V0Z" fill="white"/>
<path d="M434.5 31H435.5V32H434.5V31Z" fill="white"/>
<path d="M434.5 62H435.5V63H434.5V62Z" fill="white"/>
<path d="M434.5 93H435.5V94H434.5V93Z" fill="white"/>
<path d="M434.5 124H435.5V125H434.5V124Z" fill="white"/>
<path d="M434.5 155H435.5V156H434.5V155Z" fill="white"/>
<path d="M434.5 186H435.5V187H434.5V186Z" fill="white"/>
<path d="M434.5 217H435.5V218H434.5V217Z" fill="white"/>
<path d="M434.5 248H435.5V249H434.5V248Z" fill="white"/>
<path d="M434.5 279H435.5V280H434.5V279Z" fill="white"/>
<path d="M434.5 310H435.5V311H434.5V310Z" fill="white"/>
<path d="M434.5 341H435.5V342H434.5V341Z" fill="white"/>
<path d="M434.5 372H435.5V373H434.5V372Z" fill="white"/>
<path d="M434.5 403H435.5V404H434.5V403Z" fill="white"/>
<path d="M434.5 434H435.5V435H434.5V434Z" fill="white"/>
<path d="M434.5 465H435.5V466H434.5V465Z" fill="white"/>
<path d="M434.5 496H435.5V497H434.5V496Z" fill="white"/>
<path d="M434.5 527H435.5V528H434.5V527Z" fill="white"/>
<path d="M434.5 558H435.5V559H434.5V558Z" fill="white"/>
<path d="M434.5 589H435.5V590H434.5V589Z" fill="white"/>
<path d="M434.5 620H435.5V621H434.5V620Z" fill="white"/>
<path d="M434.5 651H435.5V652H434.5V651Z" fill="white"/>
<path d="M434.5 682H435.5V683H434.5V682Z" fill="white"/>
<path d="M434.5 713H435.5V714H434.5V713Z" fill="white"/>
<path d="M434.5 744H435.5V745H434.5V744Z" fill="white"/>
<path d="M434.5 775H435.5V776H434.5V775Z" fill="white"/>
<path d="M434.5 806H435.5V807H434.5V806Z" fill="white"/>
<path d="M434.5 837H435.5V838H434.5V837Z" fill="white"/>
<path d="M434.5 868H435.5V869H434.5V868Z" fill="white"/>
<path d="M434.5 899H435.5V900H434.5V899Z" fill="white"/>
<path d="M434.5 930H435.5V931H434.5V930Z" fill="white"/>
<path d="M434.5 961H435.5V962H434.5V961Z" fill="white"/>
<path d="M465.5 0H466.5V1H465.5V0Z" fill="white"/>
<path d="M465.5 31H466.5V32H465.5V31Z" fill="white"/>
<path d="M465.5 62H466.5V63H465.5V62Z" fill="white"/>
<path d="M465.5 93H466.5V94H465.5V93Z" fill="white"/>
<path d="M465.5 124H466.5V125H465.5V124Z" fill="white"/>
<path d="M465.5 155H466.5V156H465.5V155Z" fill="white"/>
<path d="M465.5 186H466.5V187H465.5V186Z" fill="white"/>
<path d="M465.5 217H466.5V218H465.5V217Z" fill="white"/>
<path d="M465.5 248H466.5V249H465.5V248Z" fill="white"/>
<path d="M465.5 279H466.5V280H465.5V279Z" fill="white"/>
<path d="M465.5 310H466.5V311H465.5V310Z" fill="white"/>
<path d="M465.5 341H466.5V342H465.5V341Z" fill="white"/>
<path d="M465.5 372H466.5V373H465.5V372Z" fill="white"/>
<path d="M465.5 403H466.5V404H465.5V403Z" fill="white"/>
<path d="M465.5 434H466.5V435H465.5V434Z" fill="white"/>
<path d="M465.5 465H466.5V466H465.5V465Z" fill="white"/>
<path d="M465.5 496H466.5V497H465.5V496Z" fill="white"/>
<path d="M465.5 527H466.5V528H465.5V527Z" fill="white"/>
<path d="M465.5 558H466.5V559H465.5V558Z" fill="white"/>
<path d="M465.5 589H466.5V590H465.5V589Z" fill="white"/>
<path d="M465.5 620H466.5V621H465.5V620Z" fill="white"/>
<path d="M465.5 651H466.5V652H465.5V651Z" fill="white"/>
<path d="M465.5 682H466.5V683H465.5V682Z" fill="white"/>
<path d="M465.5 713H466.5V714H465.5V713Z" fill="white"/>
<path d="M465.5 744H466.5V745H465.5V744Z" fill="white"/>
<path d="M465.5 775H466.5V776H465.5V775Z" fill="white"/>
<path d="M465.5 806H466.5V807H465.5V806Z" fill="white"/>
<path d="M465.5 837H466.5V838H465.5V837Z" fill="white"/>
<path d="M465.5 868H466.5V869H465.5V868Z" fill="white"/>
<path d="M465.5 899H466.5V900H465.5V899Z" fill="white"/>
<path d="M465.5 930H466.5V931H465.5V930Z" fill="white"/>
<path d="M465.5 961H466.5V962H465.5V961Z" fill="white"/>
<path d="M496.5 0H497.5V1H496.5V0Z" fill="white"/>
<path d="M496.5 31H497.5V32H496.5V31Z" fill="white"/>
<path d="M496.5 62H497.5V63H496.5V62Z" fill="white"/>
<path d="M496.5 93H497.5V94H496.5V93Z" fill="white"/>
<path d="M496.5 124H497.5V125H496.5V124Z" fill="white"/>
<path d="M496.5 155H497.5V156H496.5V155Z" fill="white"/>
<path d="M496.5 186H497.5V187H496.5V186Z" fill="white"/>
<path d="M496.5 217H497.5V218H496.5V217Z" fill="white"/>
<path d="M496.5 248H497.5V249H496.5V248Z" fill="white"/>
<path d="M496.5 279H497.5V280H496.5V279Z" fill="white"/>
<path d="M496.5 310H497.5V311H496.5V310Z" fill="white"/>
<path d="M496.5 341H497.5V342H496.5V341Z" fill="white"/>
<path d="M496.5 372H497.5V373H496.5V372Z" fill="white"/>
<path d="M496.5 403H497.5V404H496.5V403Z" fill="white"/>
<path d="M496.5 434H497.5V435H496.5V434Z" fill="white"/>
<path d="M496.5 465H497.5V466H496.5V465Z" fill="white"/>
<path d="M496.5 496H497.5V497H496.5V496Z" fill="white"/>
<path d="M496.5 527H497.5V528H496.5V527Z" fill="white"/>
<path d="M496.5 558H497.5V559H496.5V558Z" fill="white"/>
<path d="M496.5 589H497.5V590H496.5V589Z" fill="white"/>
<path d="M496.5 620H497.5V621H496.5V620Z" fill="white"/>
<path d="M496.5 651H497.5V652H496.5V651Z" fill="white"/>
<path d="M496.5 682H497.5V683H496.5V682Z" fill="white"/>
<path d="M496.5 713H497.5V714H496.5V713Z" fill="white"/>
<path d="M496.5 744H497.5V745H496.5V744Z" fill="white"/>
<path d="M496.5 775H497.5V776H496.5V775Z" fill="white"/>
<path d="M496.5 806H497.5V807H496.5V806Z" fill="white"/>
<path d="M496.5 837H497.5V838H496.5V837Z" fill="white"/>
<path d="M496.5 868H497.5V869H496.5V868Z" fill="white"/>
<path d="M496.5 899H497.5V900H496.5V899Z" fill="white"/>
<path d="M496.5 930H497.5V931H496.5V930Z" fill="white"/>
<path d="M496.5 961H497.5V962H496.5V961Z" fill="white"/>
<path d="M527.5 0H528.5V1H527.5V0Z" fill="white"/>
<path d="M527.5 31H528.5V32H527.5V31Z" fill="white"/>
<path d="M527.5 62H528.5V63H527.5V62Z" fill="white"/>
<path d="M527.5 93H528.5V94H527.5V93Z" fill="white"/>
<path d="M527.5 124H528.5V125H527.5V124Z" fill="white"/>
<path d="M527.5 155H528.5V156H527.5V155Z" fill="white"/>
<path d="M527.5 186H528.5V187H527.5V186Z" fill="white"/>
<path d="M527.5 217H528.5V218H527.5V217Z" fill="white"/>
<path d="M527.5 248H528.5V249H527.5V248Z" fill="white"/>
<path d="M527.5 279H528.5V280H527.5V279Z" fill="white"/>
<path d="M527.5 310H528.5V311H527.5V310Z" fill="white"/>
<path d="M527.5 341H528.5V342H527.5V341Z" fill="white"/>
<path d="M527.5 372H528.5V373H527.5V372Z" fill="white"/>
<path d="M527.5 403H528.5V404H527.5V403Z" fill="white"/>
<path d="M527.5 434H528.5V435H527.5V434Z" fill="white"/>
<path d="M527.5 465H528.5V466H527.5V465Z" fill="white"/>
<path d="M527.5 496H528.5V497H527.5V496Z" fill="white"/>
<path d="M527.5 527H528.5V528H527.5V527Z" fill="white"/>
<path d="M527.5 558H528.5V559H527.5V558Z" fill="white"/>
<path d="M527.5 589H528.5V590H527.5V589Z" fill="white"/>
<path d="M527.5 620H528.5V621H527.5V620Z" fill="white"/>
<path d="M527.5 651H528.5V652H527.5V651Z" fill="white"/>
<path d="M527.5 682H528.5V683H527.5V682Z" fill="white"/>
<path d="M527.5 713H528.5V714H527.5V713Z" fill="white"/>
<path d="M527.5 744H528.5V745H527.5V744Z" fill="white"/>
<path d="M527.5 775H528.5V776H527.5V775Z" fill="white"/>
<path d="M527.5 806H528.5V807H527.5V806Z" fill="white"/>
<path d="M527.5 837H528.5V838H527.5V837Z" fill="white"/>
<path d="M527.5 868H528.5V869H527.5V868Z" fill="white"/>
<path d="M527.5 899H528.5V900H527.5V899Z" fill="white"/>
<path d="M527.5 930H528.5V931H527.5V930Z" fill="white"/>
<path d="M527.5 961H528.5V962H527.5V961Z" fill="white"/>
<path d="M558.5 0H559.5V1H558.5V0Z" fill="white"/>
<path d="M558.5 31H559.5V32H558.5V31Z" fill="white"/>
<path d="M558.5 62H559.5V63H558.5V62Z" fill="white"/>
<path d="M558.5 93H559.5V94H558.5V93Z" fill="white"/>
<path d="M558.5 124H559.5V125H558.5V124Z" fill="white"/>
<path d="M558.5 155H559.5V156H558.5V155Z" fill="white"/>
<path d="M558.5 186H559.5V187H558.5V186Z" fill="white"/>
<path d="M558.5 217H559.5V218H558.5V217Z" fill="white"/>
<path d="M558.5 248H559.5V249H558.5V248Z" fill="white"/>
<path d="M558.5 279H559.5V280H558.5V279Z" fill="white"/>
<path d="M558.5 310H559.5V311H558.5V310Z" fill="white"/>
<path d="M558.5 341H559.5V342H558.5V341Z" fill="white"/>
<path d="M558.5 372H559.5V373H558.5V372Z" fill="white"/>
<path d="M558.5 403H559.5V404H558.5V403Z" fill="white"/>
<path d="M558.5 434H559.5V435H558.5V434Z" fill="white"/>
<path d="M558.5 465H559.5V466H558.5V465Z" fill="white"/>
<path d="M558.5 496H559.5V497H558.5V496Z" fill="white"/>
<path d="M558.5 527H559.5V528H558.5V527Z" fill="white"/>
<path d="M558.5 558H559.5V559H558.5V558Z" fill="white"/>
<path d="M558.5 589H559.5V590H558.5V589Z" fill="white"/>
<path d="M558.5 620H559.5V621H558.5V620Z" fill="white"/>
<path d="M558.5 651H559.5V652H558.5V651Z" fill="white"/>
<path d="M558.5 682H559.5V683H558.5V682Z" fill="white"/>
<path d="M558.5 713H559.5V714H558.5V713Z" fill="white"/>
<path d="M558.5 744H559.5V745H558.5V744Z" fill="white"/>
<path d="M558.5 775H559.5V776H558.5V775Z" fill="white"/>
<path d="M558.5 806H559.5V807H558.5V806Z" fill="white"/>
<path d="M558.5 837H559.5V838H558.5V837Z" fill="white"/>
<path d="M558.5 868H559.5V869H558.5V868Z" fill="white"/>
<path d="M558.5 899H559.5V900H558.5V899Z" fill="white"/>
<path d="M558.5 930H559.5V931H558.5V930Z" fill="white"/>
<path d="M558.5 961H559.5V962H558.5V961Z" fill="white"/>
<path d="M589.5 0H590.5V1H589.5V0Z" fill="white"/>
<path d="M589.5 31H590.5V32H589.5V31Z" fill="white"/>
<path d="M589.5 62H590.5V63H589.5V62Z" fill="white"/>
<path d="M589.5 93H590.5V94H589.5V93Z" fill="white"/>
<path d="M589.5 124H590.5V125H589.5V124Z" fill="white"/>
<path d="M589.5 155H590.5V156H589.5V155Z" fill="white"/>
<path d="M589.5 186H590.5V187H589.5V186Z" fill="white"/>
<path d="M589.5 217H590.5V218H589.5V217Z" fill="white"/>
<path d="M589.5 248H590.5V249H589.5V248Z" fill="white"/>
<path d="M589.5 279H590.5V280H589.5V279Z" fill="white"/>
<path d="M589.5 310H590.5V311H589.5V310Z" fill="white"/>
<path d="M589.5 341H590.5V342H589.5V341Z" fill="white"/>
<path d="M589.5 372H590.5V373H589.5V372Z" fill="white"/>
<path d="M589.5 403H590.5V404H589.5V403Z" fill="white"/>
<path d="M589.5 434H590.5V435H589.5V434Z" fill="white"/>
<path d="M589.5 465H590.5V466H589.5V465Z" fill="white"/>
<path d="M589.5 496H590.5V497H589.5V496Z" fill="white"/>
<path d="M589.5 527H590.5V528H589.5V527Z" fill="white"/>
<path d="M589.5 558H590.5V559H589.5V558Z" fill="white"/>
<path d="M589.5 589H590.5V590H589.5V589Z" fill="white"/>
<path d="M589.5 620H590.5V621H589.5V620Z" fill="white"/>
<path d="M589.5 651H590.5V652H589.5V651Z" fill="white"/>
<path d="M589.5 682H590.5V683H589.5V682Z" fill="white"/>
<path d="M589.5 713H590.5V714H589.5V713Z" fill="white"/>
<path d="M589.5 744H590.5V745H589.5V744Z" fill="white"/>
<path d="M589.5 775H590.5V776H589.5V775Z" fill="white"/>
<path d="M589.5 806H590.5V807H589.5V806Z" fill="white"/>
<path d="M589.5 837H590.5V838H589.5V837Z" fill="white"/>
<path d="M589.5 868H590.5V869H589.5V868Z" fill="white"/>
<path d="M589.5 899H590.5V900H589.5V899Z" fill="white"/>
<path d="M589.5 930H590.5V931H589.5V930Z" fill="white"/>
<path d="M589.5 961H590.5V962H589.5V961Z" fill="white"/>
<path d="M620.5 0H621.5V1H620.5V0Z" fill="white"/>
<path d="M620.5 31H621.5V32H620.5V31Z" fill="white"/>
<path d="M620.5 62H621.5V63H620.5V62Z" fill="white"/>
<path d="M620.5 93H621.5V94H620.5V93Z" fill="white"/>
<path d="M620.5 124H621.5V125H620.5V124Z" fill="white"/>
<path d="M620.5 155H621.5V156H620.5V155Z" fill="white"/>
<path d="M620.5 186H621.5V187H620.5V186Z" fill="white"/>
<path d="M620.5 217H621.5V218H620.5V217Z" fill="white"/>
<path d="M620.5 248H621.5V249H620.5V248Z" fill="white"/>
<path d="M620.5 279H621.5V280H620.5V279Z" fill="white"/>
<path d="M620.5 310H621.5V311H620.5V310Z" fill="white"/>
<path d="M620.5 341H621.5V342H620.5V341Z" fill="white"/>
<path d="M620.5 372H621.5V373H620.5V372Z" fill="white"/>
<path d="M620.5 403H621.5V404H620.5V403Z" fill="white"/>
<path d="M620.5 434H621.5V435H620.5V434Z" fill="white"/>
<path d="M620.5 465H621.5V466H620.5V465Z" fill="white"/>
<path d="M620.5 496H621.5V497H620.5V496Z" fill="white"/>
<path d="M620.5 527H621.5V528H620.5V527Z" fill="white"/>
<path d="M620.5 558H621.5V559H620.5V558Z" fill="white"/>
<path d="M620.5 589H621.5V590H620.5V589Z" fill="white"/>
<path d="M620.5 620H621.5V621H620.5V620Z" fill="white"/>
<path d="M620.5 651H621.5V652H620.5V651Z" fill="white"/>
<path d="M620.5 682H621.5V683H620.5V682Z" fill="white"/>
<path d="M620.5 713H621.5V714H620.5V713Z" fill="white"/>
<path d="M620.5 744H621.5V745H620.5V744Z" fill="white"/>
<path d="M620.5 775H621.5V776H620.5V775Z" fill="white"/>
<path d="M620.5 806H621.5V807H620.5V806Z" fill="white"/>
<path d="M620.5 837H621.5V838H620.5V837Z" fill="white"/>
<path d="M620.5 868H621.5V869H620.5V868Z" fill="white"/>
<path d="M620.5 899H621.5V900H620.5V899Z" fill="white"/>
<path d="M620.5 930H621.5V931H620.5V930Z" fill="white"/>
<path d="M620.5 961H621.5V962H620.5V961Z" fill="white"/>
<path d="M651.5 0H652.5V1H651.5V0Z" fill="white"/>
<path d="M651.5 31H652.5V32H651.5V31Z" fill="white"/>
<path d="M651.5 62H652.5V63H651.5V62Z" fill="white"/>
<path d="M651.5 93H652.5V94H651.5V93Z" fill="white"/>
<path d="M651.5 124H652.5V125H651.5V124Z" fill="white"/>
<path d="M651.5 155H652.5V156H651.5V155Z" fill="white"/>
<path d="M651.5 186H652.5V187H651.5V186Z" fill="white"/>
<path d="M651.5 217H652.5V218H651.5V217Z" fill="white"/>
<path d="M651.5 248H652.5V249H651.5V248Z" fill="white"/>
<path d="M651.5 279H652.5V280H651.5V279Z" fill="white"/>
<path d="M651.5 310H652.5V311H651.5V310Z" fill="white"/>
<path d="M651.5 341H652.5V342H651.5V341Z" fill="white"/>
<path d="M651.5 372H652.5V373H651.5V372Z" fill="white"/>
<path d="M651.5 403H652.5V404H651.5V403Z" fill="white"/>
<path d="M651.5 434H652.5V435H651.5V434Z" fill="white"/>
<path d="M651.5 465H652.5V466H651.5V465Z" fill="white"/>
<path d="M651.5 496H652.5V497H651.5V496Z" fill="white"/>
<path d="M651.5 527H652.5V528H651.5V527Z" fill="white"/>
<path d="M651.5 558H652.5V559H651.5V558Z" fill="white"/>
<path d="M651.5 589H652.5V590H651.5V589Z" fill="white"/>
<path d="M651.5 620H652.5V621H651.5V620Z" fill="white"/>
<path d="M651.5 651H652.5V652H651.5V651Z" fill="white"/>
<path d="M651.5 682H652.5V683H651.5V682Z" fill="white"/>
<path d="M651.5 713H652.5V714H651.5V713Z" fill="white"/>
<path d="M651.5 744H652.5V745H651.5V744Z" fill="white"/>
<path d="M651.5 775H652.5V776H651.5V775Z" fill="white"/>
<path d="M651.5 806H652.5V807H651.5V806Z" fill="white"/>
<path d="M651.5 837H652.5V838H651.5V837Z" fill="white"/>
<path d="M651.5 868H652.5V869H651.5V868Z" fill="white"/>
<path d="M651.5 899H652.5V900H651.5V899Z" fill="white"/>
<path d="M651.5 930H652.5V931H651.5V930Z" fill="white"/>
<path d="M651.5 961H652.5V962H651.5V961Z" fill="white"/>
<path d="M682.5 0H683.5V1H682.5V0Z" fill="white"/>
<path d="M682.5 31H683.5V32H682.5V31Z" fill="white"/>
<path d="M682.5 62H683.5V63H682.5V62Z" fill="white"/>
<path d="M682.5 93H683.5V94H682.5V93Z" fill="white"/>
<path d="M682.5 124H683.5V125H682.5V124Z" fill="white"/>
<path d="M682.5 155H683.5V156H682.5V155Z" fill="white"/>
<path d="M682.5 186H683.5V187H682.5V186Z" fill="white"/>
<path d="M682.5 217H683.5V218H682.5V217Z" fill="white"/>
<path d="M682.5 248H683.5V249H682.5V248Z" fill="white"/>
<path d="M682.5 279H683.5V280H682.5V279Z" fill="white"/>
<path d="M682.5 310H683.5V311H682.5V310Z" fill="white"/>
<path d="M682.5 341H683.5V342H682.5V341Z" fill="white"/>
<path d="M682.5 372H683.5V373H682.5V372Z" fill="white"/>
<path d="M682.5 403H683.5V404H682.5V403Z" fill="white"/>
<path d="M682.5 434H683.5V435H682.5V434Z" fill="white"/>
<path d="M682.5 465H683.5V466H682.5V465Z" fill="white"/>
<path d="M682.5 496H683.5V497H682.5V496Z" fill="white"/>
<path d="M682.5 527H683.5V528H682.5V527Z" fill="white"/>
<path d="M682.5 558H683.5V559H682.5V558Z" fill="white"/>
<path d="M682.5 589H683.5V590H682.5V589Z" fill="white"/>
<path d="M682.5 620H683.5V621H682.5V620Z" fill="white"/>
<path d="M682.5 651H683.5V652H682.5V651Z" fill="white"/>
<path d="M682.5 682H683.5V683H682.5V682Z" fill="white"/>
<path d="M682.5 713H683.5V714H682.5V713Z" fill="white"/>
<path d="M682.5 744H683.5V745H682.5V744Z" fill="white"/>
<path d="M682.5 775H683.5V776H682.5V775Z" fill="white"/>
<path d="M682.5 806H683.5V807H682.5V806Z" fill="white"/>
<path d="M682.5 837H683.5V838H682.5V837Z" fill="white"/>
<path d="M682.5 868H683.5V869H682.5V868Z" fill="white"/>
<path d="M682.5 899H683.5V900H682.5V899Z" fill="white"/>
<path d="M682.5 930H683.5V931H682.5V930Z" fill="white"/>
<path d="M682.5 961H683.5V962H682.5V961Z" fill="white"/>
<path d="M713.5 0H714.5V1H713.5V0Z" fill="white"/>
<path d="M713.5 31H714.5V32H713.5V31Z" fill="white"/>
<path d="M713.5 62H714.5V63H713.5V62Z" fill="white"/>
<path d="M713.5 93H714.5V94H713.5V93Z" fill="white"/>
<path d="M713.5 124H714.5V125H713.5V124Z" fill="white"/>
<path d="M713.5 155H714.5V156H713.5V155Z" fill="white"/>
<path d="M713.5 186H714.5V187H713.5V186Z" fill="white"/>
<path d="M713.5 217H714.5V218H713.5V217Z" fill="white"/>
<path d="M713.5 248H714.5V249H713.5V248Z" fill="white"/>
<path d="M713.5 279H714.5V280H713.5V279Z" fill="white"/>
<path d="M713.5 310H714.5V311H713.5V310Z" fill="white"/>
<path d="M713.5 341H714.5V342H713.5V341Z" fill="white"/>
<path d="M713.5 372H714.5V373H713.5V372Z" fill="white"/>
<path d="M713.5 403H714.5V404H713.5V403Z" fill="white"/>
<path d="M713.5 434H714.5V435H713.5V434Z" fill="white"/>
<path d="M713.5 465H714.5V466H713.5V465Z" fill="white"/>
<path d="M713.5 496H714.5V497H713.5V496Z" fill="white"/>
<path d="M713.5 527H714.5V528H713.5V527Z" fill="white"/>
<path d="M713.5 558H714.5V559H713.5V558Z" fill="white"/>
<path d="M713.5 589H714.5V590H713.5V589Z" fill="white"/>
<path d="M713.5 620H714.5V621H713.5V620Z" fill="white"/>
<path d="M713.5 651H714.5V652H713.5V651Z" fill="white"/>
<path d="M713.5 682H714.5V683H713.5V682Z" fill="white"/>
<path d="M713.5 713H714.5V714H713.5V713Z" fill="white"/>
<path d="M713.5 744H714.5V745H713.5V744Z" fill="white"/>
<path d="M713.5 775H714.5V776H713.5V775Z" fill="white"/>
<path d="M713.5 806H714.5V807H713.5V806Z" fill="white"/>
<path d="M713.5 837H714.5V838H713.5V837Z" fill="white"/>
<path d="M713.5 868H714.5V869H713.5V868Z" fill="white"/>
<path d="M713.5 899H714.5V900H713.5V899Z" fill="white"/>
<path d="M713.5 930H714.5V931H713.5V930Z" fill="white"/>
<path d="M713.5 961H714.5V962H713.5V961Z" fill="white"/>
<path d="M744.5 0H745.5V1H744.5V0Z" fill="white"/>
<path d="M744.5 31H745.5V32H744.5V31Z" fill="white"/>
<path d="M744.5 62H745.5V63H744.5V62Z" fill="white"/>
<path d="M744.5 93H745.5V94H744.5V93Z" fill="white"/>
<path d="M744.5 124H745.5V125H744.5V124Z" fill="white"/>
<path d="M744.5 155H745.5V156H744.5V155Z" fill="white"/>
<path d="M744.5 186H745.5V187H744.5V186Z" fill="white"/>
<path d="M744.5 217H745.5V218H744.5V217Z" fill="white"/>
<path d="M744.5 248H745.5V249H744.5V248Z" fill="white"/>
<path d="M744.5 279H745.5V280H744.5V279Z" fill="white"/>
<path d="M744.5 310H745.5V311H744.5V310Z" fill="white"/>
<path d="M744.5 341H745.5V342H744.5V341Z" fill="white"/>
<path d="M744.5 372H745.5V373H744.5V372Z" fill="white"/>
<path d="M744.5 403H745.5V404H744.5V403Z" fill="white"/>
<path d="M744.5 434H745.5V435H744.5V434Z" fill="white"/>
<path d="M744.5 465H745.5V466H744.5V465Z" fill="white"/>
<path d="M744.5 496H745.5V497H744.5V496Z" fill="white"/>
<path d="M744.5 527H745.5V528H744.5V527Z" fill="white"/>
<path d="M744.5 558H745.5V559H744.5V558Z" fill="white"/>
<path d="M744.5 589H745.5V590H744.5V589Z" fill="white"/>
<path d="M744.5 620H745.5V621H744.5V620Z" fill="white"/>
<path d="M744.5 651H745.5V652H744.5V651Z" fill="white"/>
<path d="M744.5 682H745.5V683H744.5V682Z" fill="white"/>
<path d="M744.5 713H745.5V714H744.5V713Z" fill="white"/>
<path d="M744.5 744H745.5V745H744.5V744Z" fill="white"/>
<path d="M744.5 775H745.5V776H744.5V775Z" fill="white"/>
<path d="M744.5 806H745.5V807H744.5V806Z" fill="white"/>
<path d="M744.5 837H745.5V838H744.5V837Z" fill="white"/>
<path d="M744.5 868H745.5V869H744.5V868Z" fill="white"/>
<path d="M744.5 899H745.5V900H744.5V899Z" fill="white"/>
<path d="M744.5 930H745.5V931H744.5V930Z" fill="white"/>
<path d="M744.5 961H745.5V962H744.5V961Z" fill="white"/>
<path d="M775.5 0H776.5V1H775.5V0Z" fill="white"/>
<path d="M775.5 31H776.5V32H775.5V31Z" fill="white"/>
<path d="M775.5 62H776.5V63H775.5V62Z" fill="white"/>
<path d="M775.5 93H776.5V94H775.5V93Z" fill="white"/>
<path d="M775.5 124H776.5V125H775.5V124Z" fill="white"/>
<path d="M775.5 155H776.5V156H775.5V155Z" fill="white"/>
<path d="M775.5 186H776.5V187H775.5V186Z" fill="white"/>
<path d="M775.5 217H776.5V218H775.5V217Z" fill="white"/>
<path d="M775.5 248H776.5V249H775.5V248Z" fill="white"/>
<path d="M775.5 279H776.5V280H775.5V279Z" fill="white"/>
<path d="M775.5 310H776.5V311H775.5V310Z" fill="white"/>
<path d="M775.5 341H776.5V342H775.5V341Z" fill="white"/>
<path d="M775.5 372H776.5V373H775.5V372Z" fill="white"/>
<path d="M775.5 403H776.5V404H775.5V403Z" fill="white"/>
<path d="M775.5 434H776.5V435H775.5V434Z" fill="white"/>
<path d="M775.5 465H776.5V466H775.5V465Z" fill="white"/>
<path d="M775.5 496H776.5V497H775.5V496Z" fill="white"/>
<path d="M775.5 527H776.5V528H775.5V527Z" fill="white"/>
<path d="M775.5 558H776.5V559H775.5V558Z" fill="white"/>
<path d="M775.5 589H776.5V590H775.5V589Z" fill="white"/>
<path d="M775.5 620H776.5V621H775.5V620Z" fill="white"/>
<path d="M775.5 651H776.5V652H775.5V651Z" fill="white"/>
<path d="M775.5 682H776.5V683H775.5V682Z" fill="white"/>
<path d="M775.5 713H776.5V714H775.5V713Z" fill="white"/>
<path d="M775.5 744H776.5V745H775.5V744Z" fill="white"/>
<path d="M775.5 775H776.5V776H775.5V775Z" fill="white"/>
<path d="M775.5 806H776.5V807H775.5V806Z" fill="white"/>
<path d="M775.5 837H776.5V838H775.5V837Z" fill="white"/>
<path d="M775.5 868H776.5V869H775.5V868Z" fill="white"/>
<path d="M775.5 899H776.5V900H775.5V899Z" fill="white"/>
<path d="M775.5 930H776.5V931H775.5V930Z" fill="white"/>
<path d="M775.5 961H776.5V962H775.5V961Z" fill="white"/>
<path d="M806.5 0H807.5V1H806.5V0Z" fill="white"/>
<path d="M806.5 31H807.5V32H806.5V31Z" fill="white"/>
<path d="M806.5 62H807.5V63H806.5V62Z" fill="white"/>
<path d="M806.5 93H807.5V94H806.5V93Z" fill="white"/>
<path d="M806.5 124H807.5V125H806.5V124Z" fill="white"/>
<path d="M806.5 155H807.5V156H806.5V155Z" fill="white"/>
<path d="M806.5 186H807.5V187H806.5V186Z" fill="white"/>
<path d="M806.5 217H807.5V218H806.5V217Z" fill="white"/>
<path d="M806.5 248H807.5V249H806.5V248Z" fill="white"/>
<path d="M806.5 279H807.5V280H806.5V279Z" fill="white"/>
<path d="M806.5 310H807.5V311H806.5V310Z" fill="white"/>
<path d="M806.5 341H807.5V342H806.5V341Z" fill="white"/>
<path d="M806.5 372H807.5V373H806.5V372Z" fill="white"/>
<path d="M806.5 403H807.5V404H806.5V403Z" fill="white"/>
<path d="M806.5 434H807.5V435H806.5V434Z" fill="white"/>
<path d="M806.5 465H807.5V466H806.5V465Z" fill="white"/>
<path d="M806.5 496H807.5V497H806.5V496Z" fill="white"/>
<path d="M806.5 527H807.5V528H806.5V527Z" fill="white"/>
<path d="M806.5 558H807.5V559H806.5V558Z" fill="white"/>
<path d="M806.5 589H807.5V590H806.5V589Z" fill="white"/>
<path d="M806.5 620H807.5V621H806.5V620Z" fill="white"/>
<path d="M806.5 651H807.5V652H806.5V651Z" fill="white"/>
<path d="M806.5 682H807.5V683H806.5V682Z" fill="white"/>
<path d="M806.5 713H807.5V714H806.5V713Z" fill="white"/>
<path d="M806.5 744H807.5V745H806.5V744Z" fill="white"/>
<path d="M806.5 775H807.5V776H806.5V775Z" fill="white"/>
<path d="M806.5 806H807.5V807H806.5V806Z" fill="white"/>
<path d="M806.5 837H807.5V838H806.5V837Z" fill="white"/>
<path d="M806.5 868H807.5V869H806.5V868Z" fill="white"/>
<path d="M806.5 899H807.5V900H806.5V899Z" fill="white"/>
<path d="M806.5 930H807.5V931H806.5V930Z" fill="white"/>
<path d="M806.5 961H807.5V962H806.5V961Z" fill="white"/>
<path d="M837.5 0H838.5V1H837.5V0Z" fill="white"/>
<path d="M837.5 31H838.5V32H837.5V31Z" fill="white"/>
<path d="M837.5 62H838.5V63H837.5V62Z" fill="white"/>
<path d="M837.5 93H838.5V94H837.5V93Z" fill="white"/>
<path d="M837.5 124H838.5V125H837.5V124Z" fill="white"/>
<path d="M837.5 155H838.5V156H837.5V155Z" fill="white"/>
<path d="M837.5 186H838.5V187H837.5V186Z" fill="white"/>
<path d="M837.5 217H838.5V218H837.5V217Z" fill="white"/>
<path d="M837.5 248H838.5V249H837.5V248Z" fill="white"/>
<path d="M837.5 279H838.5V280H837.5V279Z" fill="white"/>
<path d="M837.5 310H838.5V311H837.5V310Z" fill="white"/>
<path d="M837.5 341H838.5V342H837.5V341Z" fill="white"/>
<path d="M837.5 372H838.5V373H837.5V372Z" fill="white"/>
<path d="M837.5 403H838.5V404H837.5V403Z" fill="white"/>
<path d="M837.5 434H838.5V435H837.5V434Z" fill="white"/>
<path d="M837.5 465H838.5V466H837.5V465Z" fill="white"/>
<path d="M837.5 496H838.5V497H837.5V496Z" fill="white"/>
<path d="M837.5 527H838.5V528H837.5V527Z" fill="white"/>
<path d="M837.5 558H838.5V559H837.5V558Z" fill="white"/>
<path d="M837.5 589H838.5V590H837.5V589Z" fill="white"/>
<path d="M837.5 620H838.5V621H837.5V620Z" fill="white"/>
<path d="M837.5 651H838.5V652H837.5V651Z" fill="white"/>
<path d="M837.5 682H838.5V683H837.5V682Z" fill="white"/>
<path d="M837.5 713H838.5V714H837.5V713Z" fill="white"/>
<path d="M837.5 744H838.5V745H837.5V744Z" fill="white"/>
<path d="M837.5 775H838.5V776H837.5V775Z" fill="white"/>
<path d="M837.5 806H838.5V807H837.5V806Z" fill="white"/>
<path d="M837.5 837H838.5V838H837.5V837Z" fill="white"/>
<path d="M837.5 868H838.5V869H837.5V868Z" fill="white"/>
<path d="M837.5 899H838.5V900H837.5V899Z" fill="white"/>
<path d="M837.5 930H838.5V931H837.5V930Z" fill="white"/>
<path d="M837.5 961H838.5V962H837.5V961Z" fill="white"/>
<path d="M868.5 0H869.5V1H868.5V0Z" fill="white"/>
<path d="M868.5 31H869.5V32H868.5V31Z" fill="white"/>
<path d="M868.5 62H869.5V63H868.5V62Z" fill="white"/>
<path d="M868.5 93H869.5V94H868.5V93Z" fill="white"/>
<path d="M868.5 124H869.5V125H868.5V124Z" fill="white"/>
<path d="M868.5 155H869.5V156H868.5V155Z" fill="white"/>
<path d="M868.5 186H869.5V187H868.5V186Z" fill="white"/>
<path d="M868.5 217H869.5V218H868.5V217Z" fill="white"/>
<path d="M868.5 248H869.5V249H868.5V248Z" fill="white"/>
<path d="M868.5 279H869.5V280H868.5V279Z" fill="white"/>
<path d="M868.5 310H869.5V311H868.5V310Z" fill="white"/>
<path d="M868.5 341H869.5V342H868.5V341Z" fill="white"/>
<path d="M868.5 372H869.5V373H868.5V372Z" fill="white"/>
<path d="M868.5 403H869.5V404H868.5V403Z" fill="white"/>
<path d="M868.5 434H869.5V435H868.5V434Z" fill="white"/>
<path d="M868.5 465H869.5V466H868.5V465Z" fill="white"/>
<path d="M868.5 496H869.5V497H868.5V496Z" fill="white"/>
<path d="M868.5 527H869.5V528H868.5V527Z" fill="white"/>
<path d="M868.5 558H869.5V559H868.5V558Z" fill="white"/>
<path d="M868.5 589H869.5V590H868.5V589Z" fill="white"/>
<path d="M868.5 620H869.5V621H868.5V620Z" fill="white"/>
<path d="M868.5 651H869.5V652H868.5V651Z" fill="white"/>
<path d="M868.5 682H869.5V683H868.5V682Z" fill="white"/>
<path d="M868.5 713H869.5V714H868.5V713Z" fill="white"/>
<path d="M868.5 744H869.5V745H868.5V744Z" fill="white"/>
<path d="M868.5 775H869.5V776H868.5V775Z" fill="white"/>
<path d="M868.5 806H869.5V807H868.5V806Z" fill="white"/>
<path d="M868.5 837H869.5V838H868.5V837Z" fill="white"/>
<path d="M868.5 868H869.5V869H868.5V868Z" fill="white"/>
<path d="M868.5 899H869.5V900H868.5V899Z" fill="white"/>
<path d="M868.5 930H869.5V931H868.5V930Z" fill="white"/>
<path d="M868.5 961H869.5V962H868.5V961Z" fill="white"/>
<path d="M899.5 0H900.5V1H899.5V0Z" fill="white"/>
<path d="M899.5 31H900.5V32H899.5V31Z" fill="white"/>
<path d="M899.5 62H900.5V63H899.5V62Z" fill="white"/>
<path d="M899.5 93H900.5V94H899.5V93Z" fill="white"/>
<path d="M899.5 124H900.5V125H899.5V124Z" fill="white"/>
<path d="M899.5 155H900.5V156H899.5V155Z" fill="white"/>
<path d="M899.5 186H900.5V187H899.5V186Z" fill="white"/>
<path d="M899.5 217H900.5V218H899.5V217Z" fill="white"/>
<path d="M899.5 248H900.5V249H899.5V248Z" fill="white"/>
<path d="M899.5 279H900.5V280H899.5V279Z" fill="white"/>
<path d="M899.5 310H900.5V311H899.5V310Z" fill="white"/>
<path d="M899.5 341H900.5V342H899.5V341Z" fill="white"/>
<path d="M899.5 372H900.5V373H899.5V372Z" fill="white"/>
<path d="M899.5 403H900.5V404H899.5V403Z" fill="white"/>
<path d="M899.5 434H900.5V435H899.5V434Z" fill="white"/>
<path d="M899.5 465H900.5V466H899.5V465Z" fill="white"/>
<path d="M899.5 496H900.5V497H899.5V496Z" fill="white"/>
<path d="M899.5 527H900.5V528H899.5V527Z" fill="white"/>
<path d="M899.5 558H900.5V559H899.5V558Z" fill="white"/>
<path d="M899.5 589H900.5V590H899.5V589Z" fill="white"/>
<path d="M899.5 620H900.5V621H899.5V620Z" fill="white"/>
<path d="M899.5 651H900.5V652H899.5V651Z" fill="white"/>
<path d="M899.5 682H900.5V683H899.5V682Z" fill="white"/>
<path d="M899.5 713H900.5V714H899.5V713Z" fill="white"/>
<path d="M899.5 744H900.5V745H899.5V744Z" fill="white"/>
<path d="M899.5 775H900.5V776H899.5V775Z" fill="white"/>
<path d="M899.5 806H900.5V807H899.5V806Z" fill="white"/>
<path d="M899.5 837H900.5V838H899.5V837Z" fill="white"/>
<path d="M899.5 868H900.5V869H899.5V868Z" fill="white"/>
<path d="M899.5 899H900.5V900H899.5V899Z" fill="white"/>
<path d="M899.5 930H900.5V931H899.5V930Z" fill="white"/>
<path d="M899.5 961H900.5V962H899.5V961Z" fill="white"/>
<path d="M930.5 0H931.5V1H930.5V0Z" fill="white"/>
<path d="M930.5 31H931.5V32H930.5V31Z" fill="white"/>
<path d="M930.5 62H931.5V63H930.5V62Z" fill="white"/>
<path d="M930.5 93H931.5V94H930.5V93Z" fill="white"/>
<path d="M930.5 124H931.5V125H930.5V124Z" fill="white"/>
<path d="M930.5 155H931.5V156H930.5V155Z" fill="white"/>
<path d="M930.5 186H931.5V187H930.5V186Z" fill="white"/>
<path d="M930.5 217H931.5V218H930.5V217Z" fill="white"/>
<path d="M930.5 248H931.5V249H930.5V248Z" fill="white"/>
<path d="M930.5 279H931.5V280H930.5V279Z" fill="white"/>
<path d="M930.5 310H931.5V311H930.5V310Z" fill="white"/>
<path d="M930.5 341H931.5V342H930.5V341Z" fill="white"/>
<path d="M930.5 372H931.5V373H930.5V372Z" fill="white"/>
<path d="M930.5 403H931.5V404H930.5V403Z" fill="white"/>
<path d="M930.5 434H931.5V435H930.5V434Z" fill="white"/>
<path d="M930.5 465H931.5V466H930.5V465Z" fill="white"/>
<path d="M930.5 496H931.5V497H930.5V496Z" fill="white"/>
<path d="M930.5 527H931.5V528H930.5V527Z" fill="white"/>
<path d="M930.5 558H931.5V559H930.5V558Z" fill="white"/>
<path d="M930.5 589H931.5V590H930.5V589Z" fill="white"/>
<path d="M930.5 620H931.5V621H930.5V620Z" fill="white"/>
<path d="M930.5 651H931.5V652H930.5V651Z" fill="white"/>
<path d="M930.5 682H931.5V683H930.5V682Z" fill="white"/>
<path d="M930.5 713H931.5V714H930.5V713Z" fill="white"/>
<path d="M930.5 744H931.5V745H930.5V744Z" fill="white"/>
<path d="M930.5 775H931.5V776H930.5V775Z" fill="white"/>
<path d="M930.5 806H931.5V807H930.5V806Z" fill="white"/>
<path d="M930.5 837H931.5V838H930.5V837Z" fill="white"/>
<path d="M930.5 868H931.5V869H930.5V868Z" fill="white"/>
<path d="M930.5 899H931.5V900H930.5V899Z" fill="white"/>
<path d="M930.5 930H931.5V931H930.5V930Z" fill="white"/>
<path d="M930.5 961H931.5V962H930.5V961Z" fill="white"/>
<path d="M961.5 0H962.5V1H961.5V0Z" fill="white"/>
<path d="M961.5 31H962.5V32H961.5V31Z" fill="white"/>
<path d="M961.5 62H962.5V63H961.5V62Z" fill="white"/>
<path d="M961.5 93H962.5V94H961.5V93Z" fill="white"/>
<path d="M961.5 124H962.5V125H961.5V124Z" fill="white"/>
<path d="M961.5 155H962.5V156H961.5V155Z" fill="white"/>
<path d="M961.5 186H962.5V187H961.5V186Z" fill="white"/>
<path d="M961.5 217H962.5V218H961.5V217Z" fill="white"/>
<path d="M961.5 248H962.5V249H961.5V248Z" fill="white"/>
<path d="M961.5 279H962.5V280H961.5V279Z" fill="white"/>
<path d="M961.5 310H962.5V311H961.5V310Z" fill="white"/>
<path d="M961.5 341H962.5V342H961.5V341Z" fill="white"/>
<path d="M961.5 372H962.5V373H961.5V372Z" fill="white"/>
<path d="M961.5 403H962.5V404H961.5V403Z" fill="white"/>
<path d="M961.5 434H962.5V435H961.5V434Z" fill="white"/>
<path d="M961.5 465H962.5V466H961.5V465Z" fill="white"/>
<path d="M961.5 496H962.5V497H961.5V496Z" fill="white"/>
<path d="M961.5 527H962.5V528H961.5V527Z" fill="white"/>
<path d="M961.5 558H962.5V559H961.5V558Z" fill="white"/>
<path d="M961.5 589H962.5V590H961.5V589Z" fill="white"/>
<path d="M961.5 620H962.5V621H961.5V620Z" fill="white"/>
<path d="M961.5 651H962.5V652H961.5V651Z" fill="white"/>
<path d="M961.5 682H962.5V683H961.5V682Z" fill="white"/>
<path d="M961.5 713H962.5V714H961.5V713Z" fill="white"/>
<path d="M961.5 744H962.5V745H961.5V744Z" fill="white"/>
<path d="M961.5 775H962.5V776H961.5V775Z" fill="white"/>
<path d="M961.5 806H962.5V807H961.5V806Z" fill="white"/>
<path d="M961.5 837H962.5V838H961.5V837Z" fill="white"/>
<path d="M961.5 868H962.5V869H961.5V868Z" fill="white"/>
<path d="M961.5 899H962.5V900H961.5V899Z" fill="white"/>
<path d="M961.5 930H962.5V931H961.5V930Z" fill="white"/>
<path d="M961.5 961H962.5V962H961.5V961Z" fill="white"/>
<path d="M992.5 0H993.5V1H992.5V0Z" fill="white"/>
<path d="M992.5 31H993.5V32H992.5V31Z" fill="white"/>
<path d="M992.5 62H993.5V63H992.5V62Z" fill="white"/>
<path d="M992.5 93H993.5V94H992.5V93Z" fill="white"/>
<path d="M992.5 124H993.5V125H992.5V124Z" fill="white"/>
<path d="M992.5 155H993.5V156H992.5V155Z" fill="white"/>
<path d="M992.5 186H993.5V187H992.5V186Z" fill="white"/>
<path d="M992.5 217H993.5V218H992.5V217Z" fill="white"/>
<path d="M992.5 248H993.5V249H992.5V248Z" fill="white"/>
<path d="M992.5 279H993.5V280H992.5V279Z" fill="white"/>
<path d="M992.5 310H993.5V311H992.5V310Z" fill="white"/>
<path d="M992.5 341H993.5V342H992.5V341Z" fill="white"/>
<path d="M992.5 372H993.5V373H992.5V372Z" fill="white"/>
<path d="M992.5 403H993.5V404H992.5V403Z" fill="white"/>
<path d="M992.5 434H993.5V435H992.5V434Z" fill="white"/>
<path d="M992.5 465H993.5V466H992.5V465Z" fill="white"/>
<path d="M992.5 496H993.5V497H992.5V496Z" fill="white"/>
<path d="M992.5 527H993.5V528H992.5V527Z" fill="white"/>
<path d="M992.5 558H993.5V559H992.5V558Z" fill="white"/>
<path d="M992.5 589H993.5V590H992.5V589Z" fill="white"/>
<path d="M992.5 620H993.5V621H992.5V620Z" fill="white"/>
<path d="M992.5 651H993.5V652H992.5V651Z" fill="white"/>
<path d="M992.5 682H993.5V683H992.5V682Z" fill="white"/>
<path d="M992.5 713H993.5V714H992.5V713Z" fill="white"/>
<path d="M992.5 744H993.5V745H992.5V744Z" fill="white"/>
<path d="M992.5 775H993.5V776H992.5V775Z" fill="white"/>
<path d="M992.5 806H993.5V807H992.5V806Z" fill="white"/>
<path d="M992.5 837H993.5V838H992.5V837Z" fill="white"/>
<path d="M992.5 868H993.5V869H992.5V868Z" fill="white"/>
<path d="M992.5 899H993.5V900H992.5V899Z" fill="white"/>
<path d="M992.5 930H993.5V931H992.5V930Z" fill="white"/>
<path d="M992.5 961H993.5V962H992.5V961Z" fill="white"/>
<path d="M1023.5 0H1024.5V1H1023.5V0Z" fill="white"/>
<path d="M1023.5 31H1024.5V32H1023.5V31Z" fill="white"/>
<path d="M1023.5 62H1024.5V63H1023.5V62Z" fill="white"/>
<path d="M1023.5 93H1024.5V94H1023.5V93Z" fill="white"/>
<path d="M1023.5 124H1024.5V125H1023.5V124Z" fill="white"/>
<path d="M1023.5 155H1024.5V156H1023.5V155Z" fill="white"/>
<path d="M1023.5 186H1024.5V187H1023.5V186Z" fill="white"/>
<path d="M1023.5 217H1024.5V218H1023.5V217Z" fill="white"/>
<path d="M1023.5 248H1024.5V249H1023.5V248Z" fill="white"/>
<path d="M1023.5 279H1024.5V280H1023.5V279Z" fill="white"/>
<path d="M1023.5 310H1024.5V311H1023.5V310Z" fill="white"/>
<path d="M1023.5 341H1024.5V342H1023.5V341Z" fill="white"/>
<path d="M1023.5 372H1024.5V373H1023.5V372Z" fill="white"/>
<path d="M1023.5 403H1024.5V404H1023.5V403Z" fill="white"/>
<path d="M1023.5 434H1024.5V435H1023.5V434Z" fill="white"/>
<path d="M1023.5 465H1024.5V466H1023.5V465Z" fill="white"/>
<path d="M1023.5 496H1024.5V497H1023.5V496Z" fill="white"/>
<path d="M1023.5 527H1024.5V528H1023.5V527Z" fill="white"/>
<path d="M1023.5 558H1024.5V559H1023.5V558Z" fill="white"/>
<path d="M1023.5 589H1024.5V590H1023.5V589Z" fill="white"/>
<path d="M1023.5 620H1024.5V621H1023.5V620Z" fill="white"/>
<path d="M1023.5 651H1024.5V652H1023.5V651Z" fill="white"/>
<path d="M1023.5 682H1024.5V683H1023.5V682Z" fill="white"/>
<path d="M1023.5 713H1024.5V714H1023.5V713Z" fill="white"/>
<path d="M1023.5 744H1024.5V745H1023.5V744Z" fill="white"/>
<path d="M1023.5 775H1024.5V776H1023.5V775Z" fill="white"/>
<path d="M1023.5 806H1024.5V807H1023.5V806Z" fill="white"/>
<path d="M1023.5 837H1024.5V838H1023.5V837Z" fill="white"/>
<path d="M1023.5 868H1024.5V869H1023.5V868Z" fill="white"/>
<path d="M1023.5 899H1024.5V900H1023.5V899Z" fill="white"/>
<path d="M1023.5 930H1024.5V931H1023.5V930Z" fill="white"/>
<path d="M1023.5 961H1024.5V962H1023.5V961Z" fill="white"/>
<path d="M1054.5 0H1055.5V1H1054.5V0Z" fill="white"/>
<path d="M1054.5 31H1055.5V32H1054.5V31Z" fill="white"/>
<path d="M1054.5 62H1055.5V63H1054.5V62Z" fill="white"/>
<path d="M1054.5 93H1055.5V94H1054.5V93Z" fill="white"/>
<path d="M1054.5 124H1055.5V125H1054.5V124Z" fill="white"/>
<path d="M1054.5 155H1055.5V156H1054.5V155Z" fill="white"/>
<path d="M1054.5 186H1055.5V187H1054.5V186Z" fill="white"/>
<path d="M1054.5 217H1055.5V218H1054.5V217Z" fill="white"/>
<path d="M1054.5 248H1055.5V249H1054.5V248Z" fill="white"/>
<path d="M1054.5 279H1055.5V280H1054.5V279Z" fill="white"/>
<path d="M1054.5 310H1055.5V311H1054.5V310Z" fill="white"/>
<path d="M1054.5 341H1055.5V342H1054.5V341Z" fill="white"/>
<path d="M1054.5 372H1055.5V373H1054.5V372Z" fill="white"/>
<path d="M1054.5 403H1055.5V404H1054.5V403Z" fill="white"/>
<path d="M1054.5 434H1055.5V435H1054.5V434Z" fill="white"/>
<path d="M1054.5 465H1055.5V466H1054.5V465Z" fill="white"/>
<path d="M1054.5 496H1055.5V497H1054.5V496Z" fill="white"/>
<path d="M1054.5 527H1055.5V528H1054.5V527Z" fill="white"/>
<path d="M1054.5 558H1055.5V559H1054.5V558Z" fill="white"/>
<path d="M1054.5 589H1055.5V590H1054.5V589Z" fill="white"/>
<path d="M1054.5 620H1055.5V621H1054.5V620Z" fill="white"/>
<path d="M1054.5 651H1055.5V652H1054.5V651Z" fill="white"/>
<path d="M1054.5 682H1055.5V683H1054.5V682Z" fill="white"/>
<path d="M1054.5 713H1055.5V714H1054.5V713Z" fill="white"/>
<path d="M1054.5 744H1055.5V745H1054.5V744Z" fill="white"/>
<path d="M1054.5 775H1055.5V776H1054.5V775Z" fill="white"/>
<path d="M1054.5 806H1055.5V807H1054.5V806Z" fill="white"/>
<path d="M1054.5 837H1055.5V838H1054.5V837Z" fill="white"/>
<path d="M1054.5 868H1055.5V869H1054.5V868Z" fill="white"/>
<path d="M1054.5 899H1055.5V900H1054.5V899Z" fill="white"/>
<path d="M1054.5 930H1055.5V931H1054.5V930Z" fill="white"/>
<path d="M1054.5 961H1055.5V962H1054.5V961Z" fill="white"/>
<path d="M1085.5 0H1086.5V1H1085.5V0Z" fill="white"/>
<path d="M1085.5 31H1086.5V32H1085.5V31Z" fill="white"/>
<path d="M1085.5 62H1086.5V63H1085.5V62Z" fill="white"/>
<path d="M1085.5 93H1086.5V94H1085.5V93Z" fill="white"/>
<path d="M1085.5 124H1086.5V125H1085.5V124Z" fill="white"/>
<path d="M1085.5 155H1086.5V156H1085.5V155Z" fill="white"/>
<path d="M1085.5 186H1086.5V187H1085.5V186Z" fill="white"/>
<path d="M1085.5 217H1086.5V218H1085.5V217Z" fill="white"/>
<path d="M1085.5 248H1086.5V249H1085.5V248Z" fill="white"/>
<path d="M1085.5 279H1086.5V280H1085.5V279Z" fill="white"/>
<path d="M1085.5 310H1086.5V311H1085.5V310Z" fill="white"/>
<path d="M1085.5 341H1086.5V342H1085.5V341Z" fill="white"/>
<path d="M1085.5 372H1086.5V373H1085.5V372Z" fill="white"/>
<path d="M1085.5 403H1086.5V404H1085.5V403Z" fill="white"/>
<path d="M1085.5 434H1086.5V435H1085.5V434Z" fill="white"/>
<path d="M1085.5 465H1086.5V466H1085.5V465Z" fill="white"/>
<path d="M1085.5 496H1086.5V497H1085.5V496Z" fill="white"/>
<path d="M1085.5 527H1086.5V528H1085.5V527Z" fill="white"/>
<path d="M1085.5 558H1086.5V559H1085.5V558Z" fill="white"/>
<path d="M1085.5 589H1086.5V590H1085.5V589Z" fill="white"/>
<path d="M1085.5 620H1086.5V621H1085.5V620Z" fill="white"/>
<path d="M1085.5 651H1086.5V652H1085.5V651Z" fill="white"/>
<path d="M1085.5 682H1086.5V683H1085.5V682Z" fill="white"/>
<path d="M1085.5 713H1086.5V714H1085.5V713Z" fill="white"/>
<path d="M1085.5 744H1086.5V745H1085.5V744Z" fill="white"/>
<path d="M1085.5 775H1086.5V776H1085.5V775Z" fill="white"/>
<path d="M1085.5 806H1086.5V807H1085.5V806Z" fill="white"/>
<path d="M1085.5 837H1086.5V838H1085.5V837Z" fill="white"/>
<path d="M1085.5 868H1086.5V869H1085.5V868Z" fill="white"/>
<path d="M1085.5 899H1086.5V900H1085.5V899Z" fill="white"/>
<path d="M1085.5 930H1086.5V931H1085.5V930Z" fill="white"/>
<path d="M1085.5 961H1086.5V962H1085.5V961Z" fill="white"/>
<path d="M1116.5 0H1117.5V1H1116.5V0Z" fill="white"/>
<path d="M1116.5 31H1117.5V32H1116.5V31Z" fill="white"/>
<path d="M1116.5 62H1117.5V63H1116.5V62Z" fill="white"/>
<path d="M1116.5 93H1117.5V94H1116.5V93Z" fill="white"/>
<path d="M1116.5 124H1117.5V125H1116.5V124Z" fill="white"/>
<path d="M1116.5 155H1117.5V156H1116.5V155Z" fill="white"/>
<path d="M1116.5 186H1117.5V187H1116.5V186Z" fill="white"/>
<path d="M1116.5 217H1117.5V218H1116.5V217Z" fill="white"/>
<path d="M1116.5 248H1117.5V249H1116.5V248Z" fill="white"/>
<path d="M1116.5 279H1117.5V280H1116.5V279Z" fill="white"/>
<path d="M1116.5 310H1117.5V311H1116.5V310Z" fill="white"/>
<path d="M1116.5 341H1117.5V342H1116.5V341Z" fill="white"/>
<path d="M1116.5 372H1117.5V373H1116.5V372Z" fill="white"/>
<path d="M1116.5 403H1117.5V404H1116.5V403Z" fill="white"/>
<path d="M1116.5 434H1117.5V435H1116.5V434Z" fill="white"/>
<path d="M1116.5 465H1117.5V466H1116.5V465Z" fill="white"/>
<path d="M1116.5 496H1117.5V497H1116.5V496Z" fill="white"/>
<path d="M1116.5 527H1117.5V528H1116.5V527Z" fill="white"/>
<path d="M1116.5 558H1117.5V559H1116.5V558Z" fill="white"/>
<path d="M1116.5 589H1117.5V590H1116.5V589Z" fill="white"/>
<path d="M1116.5 620H1117.5V621H1116.5V620Z" fill="white"/>
<path d="M1116.5 651H1117.5V652H1116.5V651Z" fill="white"/>
<path d="M1116.5 682H1117.5V683H1116.5V682Z" fill="white"/>
<path d="M1116.5 713H1117.5V714H1116.5V713Z" fill="white"/>
<path d="M1116.5 744H1117.5V745H1116.5V744Z" fill="white"/>
<path d="M1116.5 775H1117.5V776H1116.5V775Z" fill="white"/>
<path d="M1116.5 806H1117.5V807H1116.5V806Z" fill="white"/>
<path d="M1116.5 837H1117.5V838H1116.5V837Z" fill="white"/>
<path d="M1116.5 868H1117.5V869H1116.5V868Z" fill="white"/>
<path d="M1116.5 899H1117.5V900H1116.5V899Z" fill="white"/>
<path d="M1116.5 930H1117.5V931H1116.5V930Z" fill="white"/>
<path d="M1116.5 961H1117.5V962H1116.5V961Z" fill="white"/>
<path d="M1147.5 0H1148.5V1H1147.5V0Z" fill="white"/>
<path d="M1147.5 31H1148.5V32H1147.5V31Z" fill="white"/>
<path d="M1147.5 62H1148.5V63H1147.5V62Z" fill="white"/>
<path d="M1147.5 93H1148.5V94H1147.5V93Z" fill="white"/>
<path d="M1147.5 124H1148.5V125H1147.5V124Z" fill="white"/>
<path d="M1147.5 155H1148.5V156H1147.5V155Z" fill="white"/>
<path d="M1147.5 186H1148.5V187H1147.5V186Z" fill="white"/>
<path d="M1147.5 217H1148.5V218H1147.5V217Z" fill="white"/>
<path d="M1147.5 248H1148.5V249H1147.5V248Z" fill="white"/>
<path d="M1147.5 279H1148.5V280H1147.5V279Z" fill="white"/>
<path d="M1147.5 310H1148.5V311H1147.5V310Z" fill="white"/>
<path d="M1147.5 341H1148.5V342H1147.5V341Z" fill="white"/>
<path d="M1147.5 372H1148.5V373H1147.5V372Z" fill="white"/>
<path d="M1147.5 403H1148.5V404H1147.5V403Z" fill="white"/>
<path d="M1147.5 434H1148.5V435H1147.5V434Z" fill="white"/>
<path d="M1147.5 465H1148.5V466H1147.5V465Z" fill="white"/>
<path d="M1147.5 496H1148.5V497H1147.5V496Z" fill="white"/>
<path d="M1147.5 527H1148.5V528H1147.5V527Z" fill="white"/>
<path d="M1147.5 558H1148.5V559H1147.5V558Z" fill="white"/>
<path d="M1147.5 589H1148.5V590H1147.5V589Z" fill="white"/>
<path d="M1147.5 620H1148.5V621H1147.5V620Z" fill="white"/>
<path d="M1147.5 651H1148.5V652H1147.5V651Z" fill="white"/>
<path d="M1147.5 682H1148.5V683H1147.5V682Z" fill="white"/>
<path d="M1147.5 713H1148.5V714H1147.5V713Z" fill="white"/>
<path d="M1147.5 744H1148.5V745H1147.5V744Z" fill="white"/>
<path d="M1147.5 775H1148.5V776H1147.5V775Z" fill="white"/>
<path d="M1147.5 806H1148.5V807H1147.5V806Z" fill="white"/>
<path d="M1147.5 837H1148.5V838H1147.5V837Z" fill="white"/>
<path d="M1147.5 868H1148.5V869H1147.5V868Z" fill="white"/>
<path d="M1147.5 899H1148.5V900H1147.5V899Z" fill="white"/>
<path d="M1147.5 930H1148.5V931H1147.5V930Z" fill="white"/>
<path d="M1147.5 961H1148.5V962H1147.5V961Z" fill="white"/>
<path d="M1178.5 0H1179.5V1H1178.5V0Z" fill="white"/>
<path d="M1178.5 31H1179.5V32H1178.5V31Z" fill="white"/>
<path d="M1178.5 62H1179.5V63H1178.5V62Z" fill="white"/>
<path d="M1178.5 93H1179.5V94H1178.5V93Z" fill="white"/>
<path d="M1178.5 124H1179.5V125H1178.5V124Z" fill="white"/>
<path d="M1178.5 155H1179.5V156H1178.5V155Z" fill="white"/>
<path d="M1178.5 186H1179.5V187H1178.5V186Z" fill="white"/>
<path d="M1178.5 217H1179.5V218H1178.5V217Z" fill="white"/>
<path d="M1178.5 248H1179.5V249H1178.5V248Z" fill="white"/>
<path d="M1178.5 279H1179.5V280H1178.5V279Z" fill="white"/>
<path d="M1178.5 310H1179.5V311H1178.5V310Z" fill="white"/>
<path d="M1178.5 341H1179.5V342H1178.5V341Z" fill="white"/>
<path d="M1178.5 372H1179.5V373H1178.5V372Z" fill="white"/>
<path d="M1178.5 403H1179.5V404H1178.5V403Z" fill="white"/>
<path d="M1178.5 434H1179.5V435H1178.5V434Z" fill="white"/>
<path d="M1178.5 465H1179.5V466H1178.5V465Z" fill="white"/>
<path d="M1178.5 496H1179.5V497H1178.5V496Z" fill="white"/>
<path d="M1178.5 527H1179.5V528H1178.5V527Z" fill="white"/>
<path d="M1178.5 558H1179.5V559H1178.5V558Z" fill="white"/>
<path d="M1178.5 589H1179.5V590H1178.5V589Z" fill="white"/>
<path d="M1178.5 620H1179.5V621H1178.5V620Z" fill="white"/>
<path d="M1178.5 651H1179.5V652H1178.5V651Z" fill="white"/>
<path d="M1178.5 682H1179.5V683H1178.5V682Z" fill="white"/>
<path d="M1178.5 713H1179.5V714H1178.5V713Z" fill="white"/>
<path d="M1178.5 744H1179.5V745H1178.5V744Z" fill="white"/>
<path d="M1178.5 775H1179.5V776H1178.5V775Z" fill="white"/>
<path d="M1178.5 806H1179.5V807H1178.5V806Z" fill="white"/>
<path d="M1178.5 837H1179.5V838H1178.5V837Z" fill="white"/>
<path d="M1178.5 868H1179.5V869H1178.5V868Z" fill="white"/>
<path d="M1178.5 899H1179.5V900H1178.5V899Z" fill="white"/>
<path d="M1178.5 930H1179.5V931H1178.5V930Z" fill="white"/>
<path d="M1178.5 961H1179.5V962H1178.5V961Z" fill="white"/>
<path d="M1209.5 0H1210.5V1H1209.5V0Z" fill="white"/>
<path d="M1209.5 31H1210.5V32H1209.5V31Z" fill="white"/>
<path d="M1209.5 62H1210.5V63H1209.5V62Z" fill="white"/>
<path d="M1209.5 93H1210.5V94H1209.5V93Z" fill="white"/>
<path d="M1209.5 124H1210.5V125H1209.5V124Z" fill="white"/>
<path d="M1209.5 155H1210.5V156H1209.5V155Z" fill="white"/>
<path d="M1209.5 186H1210.5V187H1209.5V186Z" fill="white"/>
<path d="M1209.5 217H1210.5V218H1209.5V217Z" fill="white"/>
<path d="M1209.5 248H1210.5V249H1209.5V248Z" fill="white"/>
<path d="M1209.5 279H1210.5V280H1209.5V279Z" fill="white"/>
<path d="M1209.5 310H1210.5V311H1209.5V310Z" fill="white"/>
<path d="M1209.5 341H1210.5V342H1209.5V341Z" fill="white"/>
<path d="M1209.5 372H1210.5V373H1209.5V372Z" fill="white"/>
<path d="M1209.5 403H1210.5V404H1209.5V403Z" fill="white"/>
<path d="M1209.5 434H1210.5V435H1209.5V434Z" fill="white"/>
<path d="M1209.5 465H1210.5V466H1209.5V465Z" fill="white"/>
<path d="M1209.5 496H1210.5V497H1209.5V496Z" fill="white"/>
<path d="M1209.5 527H1210.5V528H1209.5V527Z" fill="white"/>
<path d="M1209.5 558H1210.5V559H1209.5V558Z" fill="white"/>
<path d="M1209.5 589H1210.5V590H1209.5V589Z" fill="white"/>
<path d="M1209.5 620H1210.5V621H1209.5V620Z" fill="white"/>
<path d="M1209.5 651H1210.5V652H1209.5V651Z" fill="white"/>
<path d="M1209.5 682H1210.5V683H1209.5V682Z" fill="white"/>
<path d="M1209.5 713H1210.5V714H1209.5V713Z" fill="white"/>
<path d="M1209.5 744H1210.5V745H1209.5V744Z" fill="white"/>
<path d="M1209.5 775H1210.5V776H1209.5V775Z" fill="white"/>
<path d="M1209.5 806H1210.5V807H1209.5V806Z" fill="white"/>
<path d="M1209.5 837H1210.5V838H1209.5V837Z" fill="white"/>
<path d="M1209.5 868H1210.5V869H1209.5V868Z" fill="white"/>
<path d="M1209.5 899H1210.5V900H1209.5V899Z" fill="white"/>
<path d="M1209.5 930H1210.5V931H1209.5V930Z" fill="white"/>
<path d="M1209.5 961H1210.5V962H1209.5V961Z" fill="white"/>
<path d="M1240.5 0H1241.5V1H1240.5V0Z" fill="white"/>
<path d="M1240.5 31H1241.5V32H1240.5V31Z" fill="white"/>
<path d="M1240.5 62H1241.5V63H1240.5V62Z" fill="white"/>
<path d="M1240.5 93H1241.5V94H1240.5V93Z" fill="white"/>
<path d="M1240.5 124H1241.5V125H1240.5V124Z" fill="white"/>
<path d="M1240.5 155H1241.5V156H1240.5V155Z" fill="white"/>
<path d="M1240.5 186H1241.5V187H1240.5V186Z" fill="white"/>
<path d="M1240.5 217H1241.5V218H1240.5V217Z" fill="white"/>
<path d="M1240.5 248H1241.5V249H1240.5V248Z" fill="white"/>
<path d="M1240.5 279H1241.5V280H1240.5V279Z" fill="white"/>
<path d="M1240.5 310H1241.5V311H1240.5V310Z" fill="white"/>
<path d="M1240.5 341H1241.5V342H1240.5V341Z" fill="white"/>
<path d="M1240.5 372H1241.5V373H1240.5V372Z" fill="white"/>
<path d="M1240.5 403H1241.5V404H1240.5V403Z" fill="white"/>
<path d="M1240.5 434H1241.5V435H1240.5V434Z" fill="white"/>
<path d="M1240.5 465H1241.5V466H1240.5V465Z" fill="white"/>
<path d="M1240.5 496H1241.5V497H1240.5V496Z" fill="white"/>
<path d="M1240.5 527H1241.5V528H1240.5V527Z" fill="white"/>
<path d="M1240.5 558H1241.5V559H1240.5V558Z" fill="white"/>
<path d="M1240.5 589H1241.5V590H1240.5V589Z" fill="white"/>
<path d="M1240.5 620H1241.5V621H1240.5V620Z" fill="white"/>
<path d="M1240.5 651H1241.5V652H1240.5V651Z" fill="white"/>
<path d="M1240.5 682H1241.5V683H1240.5V682Z" fill="white"/>
<path d="M1240.5 713H1241.5V714H1240.5V713Z" fill="white"/>
<path d="M1240.5 744H1241.5V745H1240.5V744Z" fill="white"/>
<path d="M1240.5 775H1241.5V776H1240.5V775Z" fill="white"/>
<path d="M1240.5 806H1241.5V807H1240.5V806Z" fill="white"/>
<path d="M1240.5 837H1241.5V838H1240.5V837Z" fill="white"/>
<path d="M1240.5 868H1241.5V869H1240.5V868Z" fill="white"/>
<path d="M1240.5 899H1241.5V900H1240.5V899Z" fill="white"/>
<path d="M1240.5 930H1241.5V931H1240.5V930Z" fill="white"/>
<path d="M1240.5 961H1241.5V962H1240.5V961Z" fill="white"/>
<path d="M1271.5 0H1272.5V1H1271.5V0Z" fill="white"/>
<path d="M1271.5 31H1272.5V32H1271.5V31Z" fill="white"/>
<path d="M1271.5 62H1272.5V63H1271.5V62Z" fill="white"/>
<path d="M1271.5 93H1272.5V94H1271.5V93Z" fill="white"/>
<path d="M1271.5 124H1272.5V125H1271.5V124Z" fill="white"/>
<path d="M1271.5 155H1272.5V156H1271.5V155Z" fill="white"/>
<path d="M1271.5 186H1272.5V187H1271.5V186Z" fill="white"/>
<path d="M1271.5 217H1272.5V218H1271.5V217Z" fill="white"/>
<path d="M1271.5 248H1272.5V249H1271.5V248Z" fill="white"/>
<path d="M1271.5 279H1272.5V280H1271.5V279Z" fill="white"/>
<path d="M1271.5 310H1272.5V311H1271.5V310Z" fill="white"/>
<path d="M1271.5 341H1272.5V342H1271.5V341Z" fill="white"/>
<path d="M1271.5 372H1272.5V373H1271.5V372Z" fill="white"/>
<path d="M1271.5 403H1272.5V404H1271.5V403Z" fill="white"/>
<path d="M1271.5 434H1272.5V435H1271.5V434Z" fill="white"/>
<path d="M1271.5 465H1272.5V466H1271.5V465Z" fill="white"/>
<path d="M1271.5 496H1272.5V497H1271.5V496Z" fill="white"/>
<path d="M1271.5 527H1272.5V528H1271.5V527Z" fill="white"/>
<path d="M1271.5 558H1272.5V559H1271.5V558Z" fill="white"/>
<path d="M1271.5 589H1272.5V590H1271.5V589Z" fill="white"/>
<path d="M1271.5 620H1272.5V621H1271.5V620Z" fill="white"/>
<path d="M1271.5 651H1272.5V652H1271.5V651Z" fill="white"/>
<path d="M1271.5 682H1272.5V683H1271.5V682Z" fill="white"/>
<path d="M1271.5 713H1272.5V714H1271.5V713Z" fill="white"/>
<path d="M1271.5 744H1272.5V745H1271.5V744Z" fill="white"/>
<path d="M1271.5 775H1272.5V776H1271.5V775Z" fill="white"/>
<path d="M1271.5 806H1272.5V807H1271.5V806Z" fill="white"/>
<path d="M1271.5 837H1272.5V838H1271.5V837Z" fill="white"/>
<path d="M1271.5 868H1272.5V869H1271.5V868Z" fill="white"/>
<path d="M1271.5 899H1272.5V900H1271.5V899Z" fill="white"/>
<path d="M1271.5 930H1272.5V931H1271.5V930Z" fill="white"/>
<path d="M1271.5 961H1272.5V962H1271.5V961Z" fill="white"/>
<path d="M1302.5 0H1303.5V1H1302.5V0Z" fill="white"/>
<path d="M1302.5 31H1303.5V32H1302.5V31Z" fill="white"/>
<path d="M1302.5 62H1303.5V63H1302.5V62Z" fill="white"/>
<path d="M1302.5 93H1303.5V94H1302.5V93Z" fill="white"/>
<path d="M1302.5 124H1303.5V125H1302.5V124Z" fill="white"/>
<path d="M1302.5 155H1303.5V156H1302.5V155Z" fill="white"/>
<path d="M1302.5 186H1303.5V187H1302.5V186Z" fill="white"/>
<path d="M1302.5 217H1303.5V218H1302.5V217Z" fill="white"/>
<path d="M1302.5 248H1303.5V249H1302.5V248Z" fill="white"/>
<path d="M1302.5 279H1303.5V280H1302.5V279Z" fill="white"/>
<path d="M1302.5 310H1303.5V311H1302.5V310Z" fill="white"/>
<path d="M1302.5 341H1303.5V342H1302.5V341Z" fill="white"/>
<path d="M1302.5 372H1303.5V373H1302.5V372Z" fill="white"/>
<path d="M1302.5 403H1303.5V404H1302.5V403Z" fill="white"/>
<path d="M1302.5 434H1303.5V435H1302.5V434Z" fill="white"/>
<path d="M1302.5 465H1303.5V466H1302.5V465Z" fill="white"/>
<path d="M1302.5 496H1303.5V497H1302.5V496Z" fill="white"/>
<path d="M1302.5 527H1303.5V528H1302.5V527Z" fill="white"/>
<path d="M1302.5 558H1303.5V559H1302.5V558Z" fill="white"/>
<path d="M1302.5 589H1303.5V590H1302.5V589Z" fill="white"/>
<path d="M1302.5 620H1303.5V621H1302.5V620Z" fill="white"/>
<path d="M1302.5 651H1303.5V652H1302.5V651Z" fill="white"/>
<path d="M1302.5 682H1303.5V683H1302.5V682Z" fill="white"/>
<path d="M1302.5 713H1303.5V714H1302.5V713Z" fill="white"/>
<path d="M1302.5 744H1303.5V745H1302.5V744Z" fill="white"/>
<path d="M1302.5 775H1303.5V776H1302.5V775Z" fill="white"/>
<path d="M1302.5 806H1303.5V807H1302.5V806Z" fill="white"/>
<path d="M1302.5 837H1303.5V838H1302.5V837Z" fill="white"/>
<path d="M1302.5 868H1303.5V869H1302.5V868Z" fill="white"/>
<path d="M1302.5 899H1303.5V900H1302.5V899Z" fill="white"/>
<path d="M1302.5 930H1303.5V931H1302.5V930Z" fill="white"/>
<path d="M1302.5 961H1303.5V962H1302.5V961Z" fill="white"/>
<path d="M1333.5 0H1334.5V1H1333.5V0Z" fill="white"/>
<path d="M1333.5 31H1334.5V32H1333.5V31Z" fill="white"/>
<path d="M1333.5 62H1334.5V63H1333.5V62Z" fill="white"/>
<path d="M1333.5 93H1334.5V94H1333.5V93Z" fill="white"/>
<path d="M1333.5 124H1334.5V125H1333.5V124Z" fill="white"/>
<path d="M1333.5 155H1334.5V156H1333.5V155Z" fill="white"/>
<path d="M1333.5 186H1334.5V187H1333.5V186Z" fill="white"/>
<path d="M1333.5 217H1334.5V218H1333.5V217Z" fill="white"/>
<path d="M1333.5 248H1334.5V249H1333.5V248Z" fill="white"/>
<path d="M1333.5 279H1334.5V280H1333.5V279Z" fill="white"/>
<path d="M1333.5 310H1334.5V311H1333.5V310Z" fill="white"/>
<path d="M1333.5 341H1334.5V342H1333.5V341Z" fill="white"/>
<path d="M1333.5 372H1334.5V373H1333.5V372Z" fill="white"/>
<path d="M1333.5 403H1334.5V404H1333.5V403Z" fill="white"/>
<path d="M1333.5 434H1334.5V435H1333.5V434Z" fill="white"/>
<path d="M1333.5 465H1334.5V466H1333.5V465Z" fill="white"/>
<path d="M1333.5 496H1334.5V497H1333.5V496Z" fill="white"/>
<path d="M1333.5 527H1334.5V528H1333.5V527Z" fill="white"/>
<path d="M1333.5 558H1334.5V559H1333.5V558Z" fill="white"/>
<path d="M1333.5 589H1334.5V590H1333.5V589Z" fill="white"/>
<path d="M1333.5 620H1334.5V621H1333.5V620Z" fill="white"/>
<path d="M1333.5 651H1334.5V652H1333.5V651Z" fill="white"/>
<path d="M1333.5 682H1334.5V683H1333.5V682Z" fill="white"/>
<path d="M1333.5 713H1334.5V714H1333.5V713Z" fill="white"/>
<path d="M1333.5 744H1334.5V745H1333.5V744Z" fill="white"/>
<path d="M1333.5 775H1334.5V776H1333.5V775Z" fill="white"/>
<path d="M1333.5 806H1334.5V807H1333.5V806Z" fill="white"/>
<path d="M1333.5 837H1334.5V838H1333.5V837Z" fill="white"/>
<path d="M1333.5 868H1334.5V869H1333.5V868Z" fill="white"/>
<path d="M1333.5 899H1334.5V900H1333.5V899Z" fill="white"/>
<path d="M1333.5 930H1334.5V931H1333.5V930Z" fill="white"/>
<path d="M1333.5 961H1334.5V962H1333.5V961Z" fill="white"/>
<path d="M1364.5 0H1365.5V1H1364.5V0Z" fill="white"/>
<path d="M1364.5 31H1365.5V32H1364.5V31Z" fill="white"/>
<path d="M1364.5 62H1365.5V63H1364.5V62Z" fill="white"/>
<path d="M1364.5 93H1365.5V94H1364.5V93Z" fill="white"/>
<path d="M1364.5 124H1365.5V125H1364.5V124Z" fill="white"/>
<path d="M1364.5 155H1365.5V156H1364.5V155Z" fill="white"/>
<path d="M1364.5 186H1365.5V187H1364.5V186Z" fill="white"/>
<path d="M1364.5 217H1365.5V218H1364.5V217Z" fill="white"/>
<path d="M1364.5 248H1365.5V249H1364.5V248Z" fill="white"/>
<path d="M1364.5 279H1365.5V280H1364.5V279Z" fill="white"/>
<path d="M1364.5 310H1365.5V311H1364.5V310Z" fill="white"/>
<path d="M1364.5 341H1365.5V342H1364.5V341Z" fill="white"/>
<path d="M1364.5 372H1365.5V373H1364.5V372Z" fill="white"/>
<path d="M1364.5 403H1365.5V404H1364.5V403Z" fill="white"/>
<path d="M1364.5 434H1365.5V435H1364.5V434Z" fill="white"/>
<path d="M1364.5 465H1365.5V466H1364.5V465Z" fill="white"/>
<path d="M1364.5 496H1365.5V497H1364.5V496Z" fill="white"/>
<path d="M1364.5 527H1365.5V528H1364.5V527Z" fill="white"/>
<path d="M1364.5 558H1365.5V559H1364.5V558Z" fill="white"/>
<path d="M1364.5 589H1365.5V590H1364.5V589Z" fill="white"/>
<path d="M1364.5 620H1365.5V621H1364.5V620Z" fill="white"/>
<path d="M1364.5 651H1365.5V652H1364.5V651Z" fill="white"/>
<path d="M1364.5 682H1365.5V683H1364.5V682Z" fill="white"/>
<path d="M1364.5 713H1365.5V714H1364.5V713Z" fill="white"/>
<path d="M1364.5 744H1365.5V745H1364.5V744Z" fill="white"/>
<path d="M1364.5 775H1365.5V776H1364.5V775Z" fill="white"/>
<path d="M1364.5 806H1365.5V807H1364.5V806Z" fill="white"/>
<path d="M1364.5 837H1365.5V838H1364.5V837Z" fill="white"/>
<path d="M1364.5 868H1365.5V869H1364.5V868Z" fill="white"/>
<path d="M1364.5 899H1365.5V900H1364.5V899Z" fill="white"/>
<path d="M1364.5 930H1365.5V931H1364.5V930Z" fill="white"/>
<path d="M1364.5 961H1365.5V962H1364.5V961Z" fill="white"/>
</svg>
