<svg width="244" height="266" viewBox="0 0 244 266" fill="none" xmlns="http://www.w3.org/2000/svg">
<rect width="244" height="266" rx="16" fill="white"/>
<circle cx="128" cy="95" r="12" fill="#864FFE"/>
<g clip-path="url(#clip0_646_14828)">
<path d="M128.009 88.75C124.559 88.75 121.766 91.55 121.766 95C121.766 98.45 124.559 101.25 128.009 101.25C131.466 101.25 134.266 98.45 134.266 95C134.266 91.55 131.466 88.75 128.009 88.75ZM128.016 100C125.253 100 123.016 97.7625 123.016 95C123.016 92.2375 125.253 90 128.016 90C130.778 90 133.016 92.2375 133.016 95C133.016 97.7625 130.778 100 128.016 100ZM130.203 94.375C130.722 94.375 131.141 93.9563 131.141 93.4375C131.141 92.9187 130.722 92.5 130.203 92.5C129.684 92.5 129.266 92.9187 129.266 93.4375C129.266 93.9563 129.684 94.375 130.203 94.375ZM125.828 94.375C126.347 94.375 126.766 93.9563 126.766 93.4375C126.766 92.9187 126.347 92.5 125.828 92.5C125.309 92.5 124.891 92.9187 124.891 93.4375C124.891 93.9563 125.309 94.375 125.828 94.375ZM128.016 98.4375C129.284 98.4375 130.391 97.7437 130.984 96.7188C131.103 96.5125 130.953 96.25 130.709 96.25H125.322C125.084 96.25 124.928 96.5125 125.047 96.7188C125.641 97.7437 126.747 98.4375 128.016 98.4375Z" fill="white"/>
</g>
<circle cx="127" cy="107" r="57.5" stroke="#ECE8FF" stroke-width="11"/>
<path d="M184.516 107C187.545 107 190.025 104.54 189.761 101.523C189.094 93.8713 187.031 86.3902 183.659 79.4549C179.487 70.872 173.419 63.3492 165.913 57.4545C158.408 51.5598 149.662 47.4472 140.334 45.4273C131.007 43.4074 121.343 43.5329 112.071 45.7943C102.8 48.0558 94.1629 52.3941 86.8132 58.4817C79.4635 64.5693 73.5929 72.2471 69.6446 80.9355C65.6963 89.6239 63.7734 99.0957 64.0212 108.636C64.2215 116.345 65.8348 123.935 68.7651 131.035C69.9205 133.835 73.2547 134.877 75.9433 133.482C78.6319 132.088 79.6513 128.785 78.5474 125.965C76.3526 120.358 75.1426 114.398 74.9856 108.351C74.7809 100.472 76.369 92.649 79.6299 85.4732C82.8908 78.2975 87.7394 71.9563 93.8096 66.9285C99.8797 61.9007 107.013 58.3177 114.67 56.45C122.328 54.5822 130.309 54.4786 138.013 56.1468C145.716 57.8151 152.94 61.2117 159.139 66.0802C165.337 70.9486 170.349 77.1617 173.795 84.2504C176.44 89.6908 178.11 95.5379 178.743 101.526C179.062 104.538 181.487 107 184.516 107Z" fill="url(#paint0_linear_646_14828)"/>
<rect x="28" y="148" width="188" height="74" rx="12" fill="#F9EB57"/>
<path d="M55.4688 180.117C54.8281 180.117 54.2812 179.941 53.8281 179.59C53.375 179.238 53.0293 178.73 52.791 178.066C52.5527 177.398 52.4336 176.59 52.4336 175.641C52.4336 174.695 52.5527 173.889 52.791 173.221C53.0332 172.549 53.3809 172.037 53.834 171.686C54.2871 171.33 54.832 171.152 55.4688 171.152C56.1055 171.152 56.6504 171.33 57.1035 171.686C57.5566 172.037 57.9023 172.549 58.1406 173.221C58.3828 173.889 58.5039 174.695 58.5039 175.641C58.5039 176.59 58.3848 177.398 58.1465 178.066C57.9082 178.73 57.5625 179.238 57.1094 179.59C56.6602 179.941 56.1133 180.117 55.4688 180.117ZM55.4688 179.191C55.9023 179.191 56.2695 179.053 56.5703 178.775C56.8711 178.494 57.0996 178.088 57.2559 177.557C57.416 177.025 57.4961 176.387 57.4961 175.641C57.4961 174.891 57.416 174.25 57.2559 173.719C57.0996 173.188 56.8711 172.781 56.5703 172.5C56.2695 172.219 55.9023 172.078 55.4688 172.078C54.8203 172.078 54.3203 172.391 53.9688 173.016C53.6172 173.641 53.4414 174.516 53.4414 175.641C53.4414 176.387 53.5195 177.025 53.6758 177.557C53.8359 178.088 54.0664 178.494 54.3672 178.775C54.6719 179.053 55.0391 179.191 55.4688 179.191ZM64.0117 178.359V177.902C64.0117 177.582 64.0762 177.289 64.2051 177.023C64.3379 176.758 64.5312 176.545 64.7852 176.385C65.0391 176.225 65.3477 176.145 65.7109 176.145C66.082 176.145 66.3926 176.225 66.6426 176.385C66.8926 176.545 67.0801 176.758 67.2051 177.023C67.334 177.289 67.3984 177.582 67.3984 177.902V178.359C67.3984 178.68 67.334 178.973 67.2051 179.238C67.0762 179.504 66.8867 179.717 66.6367 179.877C66.3867 180.037 66.0781 180.117 65.7109 180.117C65.3438 180.117 65.0332 180.037 64.7793 179.877C64.5254 179.717 64.334 179.504 64.2051 179.238C64.0762 178.973 64.0117 178.68 64.0117 178.359ZM64.8789 177.902V178.359C64.8789 178.625 64.9414 178.863 65.0664 179.074C65.1914 179.281 65.4062 179.387 65.7109 179.391C66.0117 179.387 66.2227 179.281 66.3438 179.074C66.4688 178.863 66.5312 178.625 66.5312 178.359V177.902C66.5312 177.637 66.4707 177.4 66.3496 177.193C66.2324 176.986 66.0195 176.883 65.7109 176.883C65.4141 176.883 65.2012 176.986 65.0723 177.193C64.9434 177.4 64.8789 177.637 64.8789 177.902ZM59.6641 173.367V172.91C59.6641 172.59 59.7305 172.297 59.8633 172.031C59.9961 171.766 60.1875 171.553 60.4375 171.393C60.6914 171.232 61 171.152 61.3633 171.152C61.7344 171.152 62.0449 171.232 62.2949 171.393C62.5488 171.553 62.7383 171.766 62.8633 172.031C62.9922 172.297 63.0547 172.59 63.0508 172.91V173.367C63.0547 173.684 62.9902 173.977 62.8574 174.246C62.7285 174.512 62.5391 174.725 62.2891 174.885C62.0391 175.045 61.7305 175.125 61.3633 175.125C60.9961 175.125 60.6855 175.045 60.4316 174.885C60.1777 174.725 59.9863 174.512 59.8574 174.246C59.7285 173.977 59.6641 173.684 59.6641 173.367ZM60.5312 172.91V173.367C60.5312 173.633 60.5938 173.871 60.7188 174.082C60.8438 174.289 61.0586 174.391 61.3633 174.387C61.6641 174.391 61.875 174.289 61.9961 174.082C62.1211 173.871 62.1836 173.633 62.1836 173.367V172.91C62.1836 172.645 62.123 172.408 62.002 172.201C61.8848 171.99 61.6719 171.887 61.3633 171.891C61.0664 171.887 60.8535 171.99 60.7246 172.201C60.5957 172.408 60.5312 172.645 60.5312 172.91ZM59.9922 180L65.9922 171.27H66.9648L60.9648 180H59.9922Z" fill="black"/>
<path d="M99.4844 183L105.988 170.129V170.012H98.4883V168.449H107.824V170.109L101.34 183H99.4844ZM113.703 183.195C112.87 183.195 112.118 183.033 111.447 182.707C110.783 182.375 110.249 181.919 109.846 181.34C109.442 180.76 109.224 180.103 109.191 179.367H110.891C110.956 180.018 111.252 180.559 111.779 180.988C112.313 181.418 112.954 181.633 113.703 181.633C114.302 181.633 114.833 181.493 115.295 181.213C115.757 180.933 116.122 180.549 116.389 180.061C116.656 179.572 116.789 179.016 116.789 178.391C116.789 177.759 116.649 177.193 116.369 176.691C116.096 176.19 115.718 175.796 115.236 175.51C114.755 175.217 114.204 175.07 113.586 175.07C113.137 175.07 112.678 175.142 112.209 175.285C111.747 175.422 111.366 175.598 111.066 175.812L109.406 175.617L110.285 168.449H117.844V170.012H111.77L111.262 174.309H111.34C111.639 174.068 112.014 173.872 112.463 173.723C112.912 173.566 113.384 173.488 113.879 173.488C114.771 173.488 115.565 173.7 116.262 174.123C116.958 174.546 117.505 175.126 117.902 175.861C118.306 176.59 118.508 177.427 118.508 178.371C118.508 179.296 118.299 180.122 117.883 180.852C117.466 181.581 116.896 182.154 116.174 182.57C115.451 182.987 114.628 183.195 113.703 183.195ZM127.688 180.266V179.504C127.688 178.97 127.795 178.482 128.01 178.039C128.231 177.596 128.553 177.242 128.977 176.975C129.4 176.708 129.914 176.574 130.52 176.574C131.138 176.574 131.656 176.708 132.072 176.975C132.489 177.242 132.801 177.596 133.01 178.039C133.225 178.482 133.332 178.97 133.332 179.504V180.266C133.332 180.799 133.225 181.288 133.01 181.73C132.795 182.173 132.479 182.528 132.062 182.795C131.646 183.062 131.132 183.195 130.52 183.195C129.908 183.195 129.39 183.062 128.967 182.795C128.544 182.528 128.225 182.173 128.01 181.73C127.795 181.288 127.688 180.799 127.688 180.266ZM129.133 179.504V180.266C129.133 180.708 129.237 181.105 129.445 181.457C129.654 181.802 130.012 181.978 130.52 181.984C131.021 181.978 131.372 181.802 131.574 181.457C131.783 181.105 131.887 180.708 131.887 180.266V179.504C131.887 179.061 131.786 178.667 131.584 178.322C131.389 177.977 131.034 177.805 130.52 177.805C130.025 177.805 129.67 177.977 129.455 178.322C129.24 178.667 129.133 179.061 129.133 179.504ZM120.441 171.945V171.184C120.441 170.65 120.552 170.161 120.773 169.719C120.995 169.276 121.314 168.921 121.73 168.654C122.154 168.387 122.668 168.254 123.273 168.254C123.892 168.254 124.41 168.387 124.826 168.654C125.249 168.921 125.565 169.276 125.773 169.719C125.988 170.161 126.092 170.65 126.086 171.184V171.945C126.092 172.473 125.985 172.961 125.764 173.41C125.549 173.853 125.233 174.208 124.816 174.475C124.4 174.742 123.885 174.875 123.273 174.875C122.661 174.875 122.144 174.742 121.721 174.475C121.298 174.208 120.979 173.853 120.764 173.41C120.549 172.961 120.441 172.473 120.441 171.945ZM121.887 171.184V171.945C121.887 172.388 121.991 172.785 122.199 173.137C122.408 173.482 122.766 173.651 123.273 173.645C123.775 173.651 124.126 173.482 124.328 173.137C124.536 172.785 124.641 172.388 124.641 171.945V171.184C124.641 170.741 124.54 170.347 124.338 170.002C124.143 169.65 123.788 169.478 123.273 169.484C122.779 169.478 122.424 169.65 122.209 170.002C121.994 170.347 121.887 170.741 121.887 171.184ZM120.988 183L130.988 168.449H132.609L122.609 183H120.988Z" fill="black"/>
<path d="M167.492 171.27V180H166.461V172.383H166.402L164.281 173.801V172.723L166.461 171.27H167.492ZM171.734 180.117C171.094 180.117 170.547 179.941 170.094 179.59C169.641 179.238 169.295 178.73 169.057 178.066C168.818 177.398 168.699 176.59 168.699 175.641C168.699 174.695 168.818 173.889 169.057 173.221C169.299 172.549 169.646 172.037 170.1 171.686C170.553 171.33 171.098 171.152 171.734 171.152C172.371 171.152 172.916 171.33 173.369 171.686C173.822 172.037 174.168 172.549 174.406 173.221C174.648 173.889 174.77 174.695 174.77 175.641C174.77 176.59 174.65 177.398 174.412 178.066C174.174 178.73 173.828 179.238 173.375 179.59C172.926 179.941 172.379 180.117 171.734 180.117ZM171.734 179.191C172.168 179.191 172.535 179.053 172.836 178.775C173.137 178.494 173.365 178.088 173.521 177.557C173.682 177.025 173.762 176.387 173.762 175.641C173.762 174.891 173.682 174.25 173.521 173.719C173.365 173.188 173.137 172.781 172.836 172.5C172.535 172.219 172.168 172.078 171.734 172.078C171.086 172.078 170.586 172.391 170.234 173.016C169.883 173.641 169.707 174.516 169.707 175.641C169.707 176.387 169.785 177.025 169.941 177.557C170.102 178.088 170.332 178.494 170.633 178.775C170.938 179.053 171.305 179.191 171.734 179.191ZM178.672 180.117C178.031 180.117 177.484 179.941 177.031 179.59C176.578 179.238 176.232 178.73 175.994 178.066C175.756 177.398 175.637 176.59 175.637 175.641C175.637 174.695 175.756 173.889 175.994 173.221C176.236 172.549 176.584 172.037 177.037 171.686C177.49 171.33 178.035 171.152 178.672 171.152C179.309 171.152 179.854 171.33 180.307 171.686C180.76 172.037 181.105 172.549 181.344 173.221C181.586 173.889 181.707 174.695 181.707 175.641C181.707 176.59 181.588 177.398 181.35 178.066C181.111 178.73 180.766 179.238 180.312 179.59C179.863 179.941 179.316 180.117 178.672 180.117ZM178.672 179.191C179.105 179.191 179.473 179.053 179.773 178.775C180.074 178.494 180.303 178.088 180.459 177.557C180.619 177.025 180.699 176.387 180.699 175.641C180.699 174.891 180.619 174.25 180.459 173.719C180.303 173.188 180.074 172.781 179.773 172.5C179.473 172.219 179.105 172.078 178.672 172.078C178.023 172.078 177.523 172.391 177.172 173.016C176.82 173.641 176.645 174.516 176.645 175.641C176.645 176.387 176.723 177.025 176.879 177.557C177.039 178.088 177.27 178.494 177.57 178.775C177.875 179.053 178.242 179.191 178.672 179.191ZM187.215 178.359V177.902C187.215 177.582 187.279 177.289 187.408 177.023C187.541 176.758 187.734 176.545 187.988 176.385C188.242 176.225 188.551 176.145 188.914 176.145C189.285 176.145 189.596 176.225 189.846 176.385C190.096 176.545 190.283 176.758 190.408 177.023C190.537 177.289 190.602 177.582 190.602 177.902V178.359C190.602 178.68 190.537 178.973 190.408 179.238C190.279 179.504 190.09 179.717 189.84 179.877C189.59 180.037 189.281 180.117 188.914 180.117C188.547 180.117 188.236 180.037 187.982 179.877C187.729 179.717 187.537 179.504 187.408 179.238C187.279 178.973 187.215 178.68 187.215 178.359ZM188.082 177.902V178.359C188.082 178.625 188.145 178.863 188.27 179.074C188.395 179.281 188.609 179.387 188.914 179.391C189.215 179.387 189.426 179.281 189.547 179.074C189.672 178.863 189.734 178.625 189.734 178.359V177.902C189.734 177.637 189.674 177.4 189.553 177.193C189.436 176.986 189.223 176.883 188.914 176.883C188.617 176.883 188.404 176.986 188.275 177.193C188.146 177.4 188.082 177.637 188.082 177.902ZM182.867 173.367V172.91C182.867 172.59 182.934 172.297 183.066 172.031C183.199 171.766 183.391 171.553 183.641 171.393C183.895 171.232 184.203 171.152 184.566 171.152C184.938 171.152 185.248 171.232 185.498 171.393C185.752 171.553 185.941 171.766 186.066 172.031C186.195 172.297 186.258 172.59 186.254 172.91V173.367C186.258 173.684 186.193 173.977 186.061 174.246C185.932 174.512 185.742 174.725 185.492 174.885C185.242 175.045 184.934 175.125 184.566 175.125C184.199 175.125 183.889 175.045 183.635 174.885C183.381 174.725 183.189 174.512 183.061 174.246C182.932 173.977 182.867 173.684 182.867 173.367ZM183.734 172.91V173.367C183.734 173.633 183.797 173.871 183.922 174.082C184.047 174.289 184.262 174.391 184.566 174.387C184.867 174.391 185.078 174.289 185.199 174.082C185.324 173.871 185.387 173.633 185.387 173.367V172.91C185.387 172.645 185.326 172.408 185.205 172.201C185.088 171.99 184.875 171.887 184.566 171.891C184.27 171.887 184.057 171.99 183.928 172.201C183.799 172.408 183.734 172.645 183.734 172.91ZM183.195 180L189.195 171.27H190.168L184.168 180H183.195Z" fill="black"/>
<path d="M88.8945 204H86.7969V203.062H88.8242C89.5469 203.062 90.1445 202.924 90.6172 202.646C91.0938 202.369 91.4492 201.973 91.6836 201.457C91.918 200.941 92.0352 200.328 92.0352 199.617C92.0352 198.914 91.9199 198.309 91.6895 197.801C91.459 197.289 91.1133 196.896 90.6523 196.623C90.1953 196.346 89.625 196.207 88.9414 196.207H86.75V195.27H89.0117C89.8594 195.27 90.584 195.443 91.1855 195.791C91.791 196.139 92.2539 196.639 92.5742 197.291C92.8945 197.939 93.0547 198.715 93.0547 199.617C93.0547 200.527 92.8926 201.311 92.5684 201.967C92.2441 202.619 91.7715 203.121 91.1504 203.473C90.5332 203.824 89.7812 204 88.8945 204ZM87.2539 195.27V204H86.1992V195.27H87.2539ZM96.0547 204.152C95.6406 204.152 95.2637 204.074 94.9238 203.918C94.584 203.758 94.3145 203.527 94.1152 203.227C93.916 202.926 93.8164 202.562 93.8164 202.137C93.8164 201.762 93.8906 201.459 94.0391 201.229C94.1875 200.994 94.3848 200.811 94.6309 200.678C94.8809 200.541 95.1543 200.439 95.4512 200.373C95.752 200.307 96.0547 200.254 96.3594 200.215C96.7578 200.164 97.0801 200.125 97.3262 200.098C97.5762 200.07 97.7578 200.023 97.8711 199.957C97.9883 199.891 98.0469 199.777 98.0469 199.617V199.582C98.0469 199.164 97.9316 198.84 97.7012 198.609C97.4746 198.375 97.1289 198.258 96.6641 198.258C96.1875 198.258 95.8125 198.363 95.5391 198.574C95.2656 198.781 95.0742 199.004 94.9648 199.242L94.0039 198.902C94.1758 198.504 94.4043 198.193 94.6895 197.971C94.9785 197.748 95.291 197.592 95.627 197.502C95.9668 197.412 96.3008 197.367 96.6289 197.367C96.8398 197.367 97.082 197.393 97.3555 197.443C97.6289 197.49 97.8945 197.592 98.1523 197.748C98.4141 197.9 98.6289 198.133 98.7969 198.445C98.9688 198.754 99.0547 199.168 99.0547 199.688V204H98.0469V203.109H98C97.9336 203.25 97.8203 203.402 97.6602 203.566C97.5 203.727 97.2871 203.865 97.0215 203.982C96.7598 204.096 96.4375 204.152 96.0547 204.152ZM96.207 203.25C96.6055 203.25 96.9414 203.172 97.2148 203.016C97.4883 202.859 97.6953 202.658 97.8359 202.412C97.9766 202.162 98.0469 201.902 98.0469 201.633V200.707C98.0039 200.758 97.9102 200.805 97.7656 200.848C97.625 200.887 97.4609 200.922 97.2734 200.953C97.0898 200.984 96.9102 201.012 96.7344 201.035C96.5586 201.055 96.418 201.07 96.3125 201.082C96.0508 201.117 95.8066 201.174 95.5801 201.252C95.3535 201.326 95.1699 201.438 95.0293 201.586C94.8926 201.734 94.8242 201.938 94.8242 202.195C94.8242 202.543 94.9531 202.807 95.2109 202.986C95.4727 203.162 95.8047 203.25 96.207 203.25ZM100.344 204V197.449H101.34V204H100.344ZM100.848 196.359C100.652 196.359 100.484 196.293 100.344 196.16C100.203 196.027 100.133 195.867 100.133 195.68C100.133 195.492 100.203 195.332 100.344 195.199C100.484 195.066 100.652 195 100.848 195C101.043 195 101.211 195.066 101.352 195.199C101.492 195.332 101.562 195.492 101.562 195.68C101.562 195.867 101.492 196.027 101.352 196.16C101.211 196.293 101.043 196.359 100.848 196.359ZM103.625 195.27V204H102.629V195.27H103.625ZM105.559 206.449C105.387 206.453 105.234 206.441 105.102 206.414C104.969 206.387 104.875 206.359 104.82 206.332L105.078 205.453L105.178 205.477C105.514 205.555 105.795 205.537 106.021 205.424C106.252 205.314 106.453 205.023 106.625 204.551L106.812 204.035L104.398 197.449H105.488L107.293 202.676H107.363L109.168 197.449H110.258L107.48 204.949C107.355 205.289 107.201 205.57 107.018 205.793C106.834 206.016 106.621 206.18 106.379 206.285C106.137 206.395 105.863 206.449 105.559 206.449ZM113.844 206.449V197.449H114.805V198.492H114.922C114.996 198.379 115.1 198.234 115.232 198.059C115.365 197.879 115.557 197.719 115.807 197.578C116.057 197.438 116.395 197.367 116.82 197.367C117.371 197.367 117.855 197.506 118.273 197.783C118.691 198.057 119.018 198.447 119.252 198.955C119.49 199.459 119.609 200.055 119.609 200.742C119.609 201.434 119.492 202.035 119.258 202.547C119.023 203.055 118.697 203.447 118.279 203.725C117.861 204.002 117.379 204.141 116.832 204.141C116.414 204.141 116.078 204.07 115.824 203.93C115.57 203.785 115.375 203.623 115.238 203.443C115.102 203.26 114.996 203.109 114.922 202.992H114.84V206.449H113.844ZM116.703 203.238C117.121 203.238 117.471 203.127 117.752 202.904C118.033 202.678 118.244 202.375 118.385 201.996C118.529 201.617 118.602 201.195 118.602 200.73C118.602 200.27 118.531 199.854 118.391 199.482C118.25 199.111 118.039 198.816 117.758 198.598C117.48 198.379 117.129 198.27 116.703 198.27C116.293 198.27 115.949 198.373 115.672 198.58C115.395 198.783 115.184 199.07 115.039 199.441C114.898 199.809 114.828 200.238 114.828 200.73C114.828 201.223 114.9 201.658 115.045 202.037C115.189 202.412 115.4 202.707 115.678 202.922C115.959 203.133 116.301 203.238 116.703 203.238ZM122.504 204.152C122.09 204.152 121.713 204.074 121.373 203.918C121.033 203.758 120.764 203.527 120.564 203.227C120.365 202.926 120.266 202.562 120.266 202.137C120.266 201.762 120.34 201.459 120.488 201.229C120.637 200.994 120.834 200.811 121.08 200.678C121.33 200.541 121.604 200.439 121.9 200.373C122.201 200.307 122.504 200.254 122.809 200.215C123.207 200.164 123.529 200.125 123.775 200.098C124.025 200.07 124.207 200.023 124.32 199.957C124.438 199.891 124.496 199.777 124.496 199.617V199.582C124.496 199.164 124.381 198.84 124.15 198.609C123.924 198.375 123.578 198.258 123.113 198.258C122.637 198.258 122.262 198.363 121.988 198.574C121.715 198.781 121.523 199.004 121.414 199.242L120.453 198.902C120.625 198.504 120.854 198.193 121.139 197.971C121.428 197.748 121.74 197.592 122.076 197.502C122.416 197.412 122.75 197.367 123.078 197.367C123.289 197.367 123.531 197.393 123.805 197.443C124.078 197.49 124.344 197.592 124.602 197.748C124.863 197.9 125.078 198.133 125.246 198.445C125.418 198.754 125.504 199.168 125.504 199.688V204H124.496V203.109H124.449C124.383 203.25 124.27 203.402 124.109 203.566C123.949 203.727 123.736 203.865 123.471 203.982C123.209 204.096 122.887 204.152 122.504 204.152ZM122.656 203.25C123.055 203.25 123.391 203.172 123.664 203.016C123.938 202.859 124.145 202.658 124.285 202.412C124.426 202.162 124.496 201.902 124.496 201.633V200.707C124.453 200.758 124.359 200.805 124.215 200.848C124.074 200.887 123.91 200.922 123.723 200.953C123.539 200.984 123.359 201.012 123.184 201.035C123.008 201.055 122.867 201.07 122.762 201.082C122.5 201.117 122.256 201.174 122.029 201.252C121.803 201.326 121.619 201.438 121.479 201.586C121.342 201.734 121.273 201.938 121.273 202.195C121.273 202.543 121.402 202.807 121.66 202.986C121.922 203.162 122.254 203.25 122.656 203.25ZM127.203 206.449C127.031 206.453 126.879 206.441 126.746 206.414C126.613 206.387 126.52 206.359 126.465 206.332L126.723 205.453L126.822 205.477C127.158 205.555 127.439 205.537 127.666 205.424C127.896 205.314 128.098 205.023 128.27 204.551L128.457 204.035L126.043 197.449H127.133L128.938 202.676H129.008L130.812 197.449H131.902L129.125 204.949C129 205.289 128.846 205.57 128.662 205.793C128.479 206.016 128.266 206.18 128.023 206.285C127.781 206.395 127.508 206.449 127.203 206.449ZM132.676 204V197.449H133.637V198.48H133.73C133.867 198.129 134.088 197.855 134.393 197.66C134.697 197.465 135.062 197.367 135.488 197.367C135.918 197.367 136.275 197.465 136.561 197.66C136.85 197.855 137.074 198.129 137.234 198.48H137.305C137.477 198.141 137.729 197.871 138.061 197.672C138.396 197.469 138.797 197.367 139.262 197.367C139.848 197.367 140.328 197.551 140.703 197.918C141.078 198.281 141.266 198.848 141.266 199.617V204H140.258V199.617C140.258 199.133 140.125 198.787 139.859 198.58C139.594 198.373 139.281 198.27 138.922 198.27C138.465 198.27 138.109 198.41 137.855 198.691C137.605 198.969 137.48 199.316 137.48 199.734V204H136.449V199.512C136.449 199.141 136.33 198.842 136.092 198.615C135.854 198.385 135.543 198.27 135.16 198.27C134.898 198.27 134.654 198.34 134.428 198.48C134.201 198.621 134.018 198.814 133.877 199.061C133.74 199.307 133.672 199.59 133.672 199.91V204H132.676ZM145.297 204.141C144.668 204.141 144.123 204 143.662 203.719C143.205 203.438 142.854 203.045 142.607 202.541C142.361 202.033 142.238 201.445 142.238 200.777C142.238 200.105 142.359 199.514 142.602 199.002C142.844 198.49 143.184 198.09 143.621 197.801C144.062 197.512 144.578 197.367 145.168 197.367C145.508 197.367 145.846 197.424 146.182 197.537C146.518 197.65 146.822 197.834 147.096 198.088C147.373 198.342 147.594 198.678 147.758 199.096C147.922 199.514 148.004 200.027 148.004 200.637V201.07H142.953V200.203H147.459L146.996 200.531C146.996 200.094 146.928 199.705 146.791 199.365C146.654 199.025 146.449 198.758 146.176 198.562C145.906 198.367 145.57 198.27 145.168 198.27C144.766 198.27 144.42 198.369 144.131 198.568C143.846 198.764 143.627 199.02 143.475 199.336C143.322 199.652 143.246 199.992 143.246 200.355V200.93C143.246 201.426 143.332 201.846 143.504 202.189C143.676 202.533 143.916 202.795 144.225 202.975C144.533 203.15 144.891 203.238 145.297 203.238C145.559 203.238 145.797 203.201 146.012 203.127C146.227 203.049 146.412 202.934 146.568 202.781C146.725 202.625 146.844 202.434 146.926 202.207L147.898 202.488C147.797 202.816 147.625 203.105 147.383 203.355C147.145 203.602 146.848 203.795 146.492 203.936C146.137 204.072 145.738 204.141 145.297 204.141ZM149.949 200.062V204H148.953V197.449H149.914V198.48H150.008C150.16 198.145 150.393 197.875 150.705 197.672C151.018 197.469 151.422 197.367 151.918 197.367C152.359 197.367 152.746 197.457 153.078 197.637C153.41 197.816 153.668 198.09 153.852 198.457C154.039 198.82 154.133 199.281 154.133 199.84V204H153.137V199.91C153.137 199.398 153.002 198.998 152.732 198.709C152.463 198.416 152.096 198.27 151.631 198.27C151.311 198.27 151.023 198.34 150.77 198.48C150.516 198.621 150.314 198.824 150.166 199.09C150.021 199.355 149.949 199.68 149.949 200.062ZM158.258 197.449V198.305H154.871V197.449H158.258ZM155.855 195.891H156.852V202.125C156.852 202.465 156.922 202.715 157.062 202.875C157.203 203.031 157.426 203.109 157.73 203.109C157.797 203.109 157.865 203.105 157.936 203.098C158.01 203.09 158.09 203.078 158.176 203.062L158.387 203.965C158.293 204 158.178 204.027 158.041 204.047C157.908 204.07 157.773 204.082 157.637 204.082C157.109 204.082 156.68 203.926 156.348 203.613C156.02 203.301 155.855 202.895 155.855 202.395V195.891Z" fill="black"/>
<defs>
<linearGradient id="paint0_linear_646_14828" x1="169.331" y1="144.822" x2="89.077" y2="155.449" gradientUnits="userSpaceOnUse">
<stop stop-color="#864FFE"/>
<stop offset="1" stop-color="#864FFE" stop-opacity="0.52549"/>
</linearGradient>
<clipPath id="clip0_646_14828">
<rect width="15" height="15" fill="white" transform="translate(120.5 87.5)"/>
</clipPath>
</defs>
</svg>
