<svg width="392" height="387" viewBox="0 0 392 387" fill="none" xmlns="http://www.w3.org/2000/svg">
<g filter="url(#filter0_d_603_29059)">
<rect x="68.7422" y="43.6348" width="254.36" height="250" rx="16" fill="white"/>
<path d="M93.0811 82.7422C92.1025 82.7422 91.2529 82.5898 90.5322 82.2852C89.8174 81.9746 89.2578 81.5322 88.8535 80.958C88.4492 80.3838 88.2236 79.7012 88.1768 78.9102H90.1631C90.2041 79.3848 90.3564 79.7803 90.6201 80.0967C90.8896 80.4072 91.2383 80.6387 91.666 80.791C92.0938 80.9434 92.5625 81.0195 93.0723 81.0195C93.6289 81.0195 94.127 80.9316 94.5664 80.7559C95.0059 80.5801 95.3486 80.334 95.5947 80.0176C95.8467 79.6953 95.9727 79.3203 95.9727 78.8926C95.9727 78.5059 95.8613 78.1895 95.6387 77.9434C95.4219 77.6973 95.126 77.4951 94.751 77.3369C94.376 77.1729 93.9541 77.0293 93.4854 76.9062L91.9473 76.4844C90.8926 76.2031 90.0605 75.7842 89.4512 75.2275C88.8418 74.665 88.5371 73.9297 88.5371 73.0215C88.5371 72.2656 88.7393 71.6064 89.1436 71.0439C89.5537 70.4814 90.1074 70.0449 90.8047 69.7344C91.5078 69.418 92.2959 69.2598 93.1689 69.2598C94.0596 69.2598 94.8418 69.418 95.5156 69.7344C96.1953 70.0449 96.7314 70.4727 97.124 71.0176C97.5225 71.5566 97.7305 72.1748 97.748 72.8721H95.832C95.7617 72.2686 95.4805 71.7998 94.9883 71.4658C94.502 71.1318 93.8809 70.9648 93.125 70.9648C92.5977 70.9648 92.1348 71.0498 91.7363 71.2197C91.3438 71.3838 91.0391 71.6123 90.8223 71.9053C90.6113 72.1982 90.5059 72.5352 90.5059 72.916C90.5059 73.3262 90.6318 73.6602 90.8838 73.918C91.1416 74.1758 91.4521 74.3809 91.8154 74.5332C92.1846 74.6797 92.5391 74.7998 92.8789 74.8936L94.1533 75.2363C94.5693 75.3418 94.9971 75.4824 95.4365 75.6582C95.876 75.834 96.2832 76.0654 96.6582 76.3525C97.0391 76.6338 97.3438 76.9854 97.5723 77.4072C97.8066 77.8232 97.9238 78.3271 97.9238 78.9189C97.9238 79.6514 97.7334 80.3076 97.3525 80.8877C96.9717 81.4619 96.4209 81.916 95.7002 82.25C94.9795 82.5781 94.1064 82.7422 93.0811 82.7422ZM102.23 82.7422C101.609 82.7422 101.047 82.6279 100.543 82.3994C100.039 82.165 99.6406 81.8252 99.3477 81.3799C99.0547 80.9346 98.9082 80.3926 98.9082 79.7539C98.9082 79.1973 99.0137 78.7432 99.2246 78.3916C99.4414 78.0342 99.7314 77.75 100.095 77.5391C100.458 77.3281 100.862 77.1699 101.308 77.0645C101.753 76.959 102.21 76.877 102.679 76.8184C103.271 76.7539 103.748 76.6982 104.111 76.6514C104.475 76.6045 104.738 76.5312 104.902 76.4316C105.072 76.3262 105.157 76.1592 105.157 75.9307V75.8867C105.157 75.3301 104.999 74.8994 104.683 74.5947C104.372 74.29 103.909 74.1377 103.294 74.1377C102.655 74.1377 102.148 74.2783 101.773 74.5596C101.404 74.835 101.149 75.1484 101.009 75.5L99.207 75.0869C99.4238 74.4893 99.7373 74.0088 100.147 73.6455C100.563 73.2764 101.038 73.0068 101.571 72.8369C102.11 72.667 102.673 72.582 103.259 72.582C103.651 72.582 104.067 72.6289 104.507 72.7227C104.946 72.8105 105.359 72.9775 105.746 73.2236C106.139 73.4639 106.458 73.8096 106.704 74.2607C106.95 74.7119 107.073 75.2949 107.073 76.0098V82.5312H105.201V81.1865H105.131C105.014 81.4268 104.829 81.667 104.577 81.9072C104.331 82.1475 104.015 82.3467 103.628 82.5049C103.241 82.6631 102.775 82.7422 102.23 82.7422ZM102.644 81.2129C103.177 81.2129 103.631 81.1104 104.006 80.9053C104.381 80.6943 104.668 80.4189 104.867 80.0791C105.066 79.7393 105.166 79.3789 105.166 78.998V77.7236C105.096 77.7881 104.964 77.8496 104.771 77.9082C104.577 77.9668 104.357 78.0166 104.111 78.0576C103.865 78.0986 103.625 78.1367 103.391 78.1719C103.156 78.2012 102.96 78.2246 102.802 78.2422C102.433 78.2949 102.096 78.377 101.791 78.4883C101.486 78.5938 101.24 78.752 101.053 78.9629C100.871 79.168 100.78 79.4404 100.78 79.7803C100.78 80.2549 100.956 80.6123 101.308 80.8525C101.659 81.0928 102.104 81.2129 102.644 81.2129ZM110.809 69.4355V82.5312H108.91V69.4355H110.809ZM116.864 82.7334C115.903 82.7334 115.071 82.5254 114.368 82.1094C113.665 81.6934 113.123 81.1074 112.742 80.3516C112.367 79.5898 112.18 78.7021 112.18 77.6885C112.18 76.6807 112.364 75.793 112.733 75.0254C113.108 74.2578 113.633 73.6602 114.307 73.2324C114.986 72.7988 115.783 72.582 116.697 72.582C117.254 72.582 117.793 72.6729 118.314 72.8545C118.836 73.0361 119.305 73.3232 119.721 73.7158C120.137 74.1084 120.465 74.6182 120.705 75.2451C120.951 75.8721 121.074 76.6279 121.074 77.5127V78.1982H113.261V76.7656H120.09L119.202 77.2402C119.202 76.6367 119.108 76.1035 118.921 75.6406C118.733 75.1777 118.452 74.8174 118.077 74.5596C117.708 74.2959 117.248 74.1641 116.697 74.1641C116.146 74.1641 115.675 74.2959 115.282 74.5596C114.896 74.8232 114.6 75.1719 114.395 75.6055C114.189 76.0391 114.087 76.5137 114.087 77.0293V78.0049C114.087 78.6787 114.204 79.25 114.438 79.7188C114.673 80.1875 114.998 80.5449 115.414 80.791C115.836 81.0371 116.325 81.1602 116.882 81.1602C117.245 81.1602 117.573 81.1074 117.866 81.002C118.165 80.8965 118.423 80.7383 118.64 80.5273C118.856 80.3164 119.021 80.0557 119.132 79.7451L120.942 80.0879C120.796 80.6152 120.538 81.0781 120.169 81.4766C119.8 81.875 119.334 82.1855 118.771 82.4082C118.215 82.625 117.579 82.7334 116.864 82.7334ZM129.758 75.1133L128.026 75.4121C127.915 75.084 127.707 74.7822 127.402 74.5068C127.104 74.2314 126.655 74.0938 126.058 74.0938C125.519 74.0938 125.067 74.2168 124.704 74.4629C124.347 74.7031 124.168 75.0107 124.168 75.3857C124.168 75.7139 124.288 75.9805 124.528 76.1855C124.774 76.3906 125.164 76.5547 125.697 76.6777L127.271 77.0293C128.167 77.2344 128.838 77.5566 129.283 77.9961C129.729 78.4355 129.951 78.998 129.951 79.6836C129.951 80.2754 129.781 80.8027 129.441 81.2656C129.102 81.7227 128.63 82.083 128.026 82.3467C127.423 82.6045 126.726 82.7334 125.935 82.7334C124.833 82.7334 123.937 82.4961 123.245 82.0215C122.554 81.5469 122.129 80.8789 121.971 80.0176L123.808 79.7363C123.925 80.2168 124.162 80.5801 124.52 80.8262C124.883 81.0723 125.352 81.1953 125.926 81.1953C126.547 81.1953 127.045 81.0635 127.42 80.7998C127.801 80.5361 127.991 80.2168 127.991 79.8418C127.991 79.2207 127.528 78.8018 126.603 78.585L124.941 78.2158C124.021 78.0049 123.342 77.6738 122.902 77.2227C122.469 76.7656 122.252 76.1914 122.252 75.5C122.252 74.9199 122.413 74.4102 122.735 73.9707C123.063 73.5312 123.512 73.1914 124.08 72.9512C124.654 72.7051 125.308 72.582 126.04 72.582C127.106 72.582 127.941 72.8135 128.545 73.2764C129.154 73.7393 129.559 74.3516 129.758 75.1133ZM139.865 72.7051V74.2432H134.504V72.7051H139.865ZM135.937 70.3672H137.844V79.6484C137.844 80.0996 137.938 80.4307 138.125 80.6416C138.312 80.8467 138.614 80.9492 139.03 80.9492C139.13 80.9492 139.235 80.9434 139.347 80.9316C139.464 80.9199 139.581 80.9023 139.698 80.8789L140.059 82.4609C139.865 82.5254 139.654 82.5752 139.426 82.6104C139.197 82.6455 138.969 82.6631 138.74 82.6631C137.891 82.6631 137.211 82.4258 136.701 81.9512C136.191 81.4707 135.937 80.832 135.937 80.0352V70.3672ZM145.253 82.7334C144.333 82.7334 143.527 82.5225 142.836 82.1006C142.15 81.6787 141.617 81.0869 141.236 80.3252C140.861 79.5635 140.674 78.6787 140.674 77.6709C140.674 76.6514 140.861 75.7607 141.236 74.999C141.617 74.2314 142.15 73.6367 142.836 73.2148C143.527 72.793 144.333 72.582 145.253 72.582C146.179 72.582 146.984 72.793 147.67 73.2148C148.355 73.6367 148.889 74.2314 149.27 74.999C149.65 75.7607 149.841 76.6514 149.841 77.6709C149.841 78.6787 149.65 79.5635 149.27 80.3252C148.889 81.0869 148.355 81.6787 147.67 82.1006C146.984 82.5225 146.179 82.7334 145.253 82.7334ZM145.253 81.125C145.856 81.125 146.354 80.9668 146.747 80.6504C147.14 80.334 147.43 79.915 147.617 79.3936C147.811 78.8662 147.907 78.292 147.907 77.6709C147.907 77.0381 147.811 76.458 147.617 75.9307C147.43 75.4033 147.14 74.9814 146.747 74.665C146.354 74.3486 145.856 74.1904 145.253 74.1904C144.655 74.1904 144.16 74.3486 143.768 74.665C143.381 74.9814 143.091 75.4033 142.897 75.9307C142.704 76.458 142.607 77.0381 142.607 77.6709C142.607 78.292 142.704 78.8662 142.897 79.3936C143.091 79.915 143.381 80.334 143.768 80.6504C144.16 80.9668 144.655 81.125 145.253 81.125ZM155.791 72.7051V74.2432H150.43V72.7051H155.791ZM151.862 70.3672H153.77V79.6484C153.77 80.0996 153.863 80.4307 154.051 80.6416C154.238 80.8467 154.54 80.9492 154.956 80.9492C155.056 80.9492 155.161 80.9434 155.272 80.9316C155.39 80.9199 155.507 80.9023 155.624 80.8789L155.984 82.4609C155.791 82.5254 155.58 82.5752 155.352 82.6104C155.123 82.6455 154.895 82.6631 154.666 82.6631C153.816 82.6631 153.137 82.4258 152.627 81.9512C152.117 81.4707 151.862 80.832 151.862 80.0352V70.3672ZM160.01 82.7422C159.389 82.7422 158.826 82.6279 158.322 82.3994C157.818 82.165 157.42 81.8252 157.127 81.3799C156.834 80.9346 156.688 80.3926 156.688 79.7539C156.688 79.1973 156.793 78.7432 157.004 78.3916C157.221 78.0342 157.511 77.75 157.874 77.5391C158.237 77.3281 158.642 77.1699 159.087 77.0645C159.532 76.959 159.989 76.877 160.458 76.8184C161.05 76.7539 161.527 76.6982 161.891 76.6514C162.254 76.6045 162.518 76.5312 162.682 76.4316C162.852 76.3262 162.937 76.1592 162.937 75.9307V75.8867C162.937 75.3301 162.778 74.8994 162.462 74.5947C162.151 74.29 161.688 74.1377 161.073 74.1377C160.435 74.1377 159.928 74.2783 159.553 74.5596C159.184 74.835 158.929 75.1484 158.788 75.5L156.986 75.0869C157.203 74.4893 157.517 74.0088 157.927 73.6455C158.343 73.2764 158.817 73.0068 159.351 72.8369C159.89 72.667 160.452 72.582 161.038 72.582C161.431 72.582 161.847 72.6289 162.286 72.7227C162.726 72.8105 163.139 72.9775 163.525 73.2236C163.918 73.4639 164.237 73.8096 164.483 74.2607C164.729 74.7119 164.853 75.2949 164.853 76.0098V82.5312H162.98V81.1865H162.91C162.793 81.4268 162.608 81.667 162.356 81.9072C162.11 82.1475 161.794 82.3467 161.407 82.5049C161.021 82.6631 160.555 82.7422 160.01 82.7422ZM160.423 81.2129C160.956 81.2129 161.41 81.1104 161.785 80.9053C162.16 80.6943 162.447 80.4189 162.646 80.0791C162.846 79.7393 162.945 79.3789 162.945 78.998V77.7236C162.875 77.7881 162.743 77.8496 162.55 77.9082C162.356 77.9668 162.137 78.0166 161.891 78.0576C161.645 78.0986 161.404 78.1367 161.17 78.1719C160.936 78.2012 160.739 78.2246 160.581 78.2422C160.212 78.2949 159.875 78.377 159.57 78.4883C159.266 78.5938 159.02 78.752 158.832 78.9629C158.65 79.168 158.56 79.4404 158.56 79.7803C158.56 80.2549 158.735 80.6123 159.087 80.8525C159.438 81.0928 159.884 81.2129 160.423 81.2129ZM168.588 69.4355V82.5312H166.689V69.4355H168.588Z" fill="black"/>
<path d="M90.8652 111.523V98.7949H91.6719V111.523H90.8652ZM91.2617 110.43C90.5326 110.43 89.9014 110.313 89.3682 110.081C88.835 109.844 88.4157 109.516 88.1104 109.097C87.8096 108.673 87.6387 108.183 87.5977 107.627H88.8691C88.9056 108.01 89.0355 108.326 89.2588 108.577C89.4867 108.828 89.776 109.015 90.127 109.138C90.4779 109.261 90.8561 109.322 91.2617 109.322C91.7311 109.322 92.1527 109.245 92.5264 109.09C92.9046 108.935 93.2031 108.718 93.4219 108.44C93.6406 108.162 93.75 107.837 93.75 107.463C93.75 107.126 93.6543 106.852 93.4629 106.643C93.2715 106.433 93.0208 106.262 92.7109 106.13C92.4056 105.998 92.0729 105.882 91.7129 105.781L90.4688 105.426C89.6712 105.198 89.04 104.872 88.5752 104.448C88.1149 104.02 87.8848 103.462 87.8848 102.773C87.8848 102.204 88.0374 101.707 88.3428 101.283C88.6527 100.855 89.0697 100.522 89.5938 100.285C90.1224 100.048 90.7103 99.9297 91.3574 99.9297C92.0137 99.9297 92.597 100.048 93.1074 100.285C93.6178 100.518 94.0234 100.837 94.3242 101.242C94.625 101.643 94.7845 102.099 94.8027 102.609H93.5996C93.5404 102.108 93.2988 101.718 92.875 101.44C92.4557 101.162 91.9362 101.023 91.3164 101.023C90.8698 101.023 90.4779 101.096 90.1406 101.242C89.8034 101.388 89.5413 101.589 89.3545 101.844C89.1676 102.099 89.0742 102.391 89.0742 102.719C89.0742 103.079 89.1859 103.37 89.4092 103.594C89.6325 103.812 89.8968 103.983 90.2021 104.106C90.512 104.229 90.7923 104.327 91.043 104.4L92.0684 104.688C92.3327 104.76 92.6266 104.858 92.9502 104.981C93.2783 105.104 93.5928 105.271 93.8936 105.48C94.1989 105.69 94.4495 105.959 94.6455 106.287C94.8415 106.611 94.9395 107.012 94.9395 107.49C94.9395 108.037 94.7959 108.534 94.5088 108.98C94.2217 109.423 93.8047 109.776 93.2578 110.04C92.7109 110.3 92.0456 110.43 91.2617 110.43ZM99.3145 110.389C98.7311 110.389 98.2048 110.275 97.7354 110.047C97.2705 109.814 96.8968 109.495 96.6143 109.09C96.3317 108.684 96.179 108.224 96.1562 107.709H97.3457C97.3913 108.165 97.5986 108.543 97.9678 108.844C98.3415 109.145 98.7904 109.295 99.3145 109.295C99.7337 109.295 100.105 109.197 100.429 109.001C100.752 108.805 101.007 108.536 101.194 108.194C101.381 107.853 101.475 107.463 101.475 107.025C101.475 106.583 101.377 106.187 101.181 105.836C100.989 105.485 100.725 105.209 100.388 105.009C100.05 104.804 99.6654 104.701 99.2324 104.701C98.918 104.701 98.5967 104.751 98.2686 104.852C97.945 104.947 97.6784 105.07 97.4688 105.221L96.3066 105.084L96.9219 100.066H102.213V101.16H97.9609L97.6055 104.168H97.6602C97.8698 103.999 98.1318 103.863 98.4463 103.758C98.7607 103.648 99.0911 103.594 99.4375 103.594C100.062 103.594 100.618 103.742 101.105 104.038C101.593 104.334 101.976 104.74 102.254 105.255C102.536 105.765 102.678 106.351 102.678 107.012C102.678 107.659 102.532 108.238 102.24 108.748C101.949 109.258 101.55 109.66 101.044 109.951C100.538 110.243 99.9616 110.389 99.3145 110.389ZM103.908 110.252V109.363L107.271 105.672C107.663 105.243 107.985 104.87 108.235 104.551C108.491 104.232 108.68 103.931 108.803 103.648C108.93 103.366 108.994 103.07 108.994 102.76C108.994 102.4 108.908 102.09 108.734 101.83C108.566 101.566 108.336 101.363 108.044 101.222C107.752 101.08 107.422 101.01 107.053 101.01C106.661 101.01 106.319 101.09 106.027 101.249C105.74 101.409 105.517 101.634 105.357 101.926C105.202 102.213 105.125 102.55 105.125 102.938H103.949C103.949 102.34 104.086 101.816 104.359 101.365C104.637 100.914 105.013 100.563 105.487 100.312C105.966 100.057 106.501 99.9297 107.094 99.9297C107.691 99.9297 108.219 100.057 108.68 100.312C109.14 100.563 109.5 100.903 109.76 101.331C110.024 101.755 110.156 102.231 110.156 102.76C110.156 103.133 110.088 103.498 109.951 103.854C109.819 104.204 109.587 104.599 109.254 105.036C108.926 105.474 108.47 106.005 107.887 106.629L105.604 109.076V109.158H110.334V110.252H103.908ZM115.174 110.389C114.513 110.389 113.927 110.277 113.417 110.054C112.907 109.83 112.501 109.518 112.2 109.117C111.899 108.712 111.738 108.242 111.715 107.709H112.959C112.986 108.037 113.098 108.32 113.294 108.557C113.494 108.794 113.754 108.976 114.073 109.104C114.397 109.231 114.755 109.295 115.146 109.295C115.584 109.295 115.971 109.22 116.309 109.069C116.65 108.914 116.917 108.702 117.108 108.434C117.304 108.16 117.402 107.846 117.402 107.49C117.402 107.112 117.309 106.779 117.122 106.492C116.935 106.205 116.662 105.982 116.302 105.822C115.946 105.658 115.511 105.576 114.996 105.576H114.176V104.482H114.996C115.397 104.482 115.75 104.41 116.056 104.264C116.361 104.118 116.6 103.913 116.773 103.648C116.947 103.384 117.033 103.074 117.033 102.719C117.033 102.372 116.958 102.072 116.808 101.816C116.657 101.561 116.443 101.363 116.165 101.222C115.892 101.08 115.566 101.01 115.188 101.01C114.837 101.01 114.506 101.074 114.196 101.201C113.886 101.329 113.633 101.511 113.438 101.748C113.242 101.985 113.137 102.272 113.123 102.609H111.934C111.952 102.076 112.111 101.609 112.412 101.208C112.713 100.807 113.107 100.495 113.595 100.271C114.087 100.044 114.627 99.9297 115.215 99.9297C115.844 99.9297 116.384 100.057 116.835 100.312C117.286 100.563 117.632 100.896 117.874 101.311C118.116 101.725 118.236 102.172 118.236 102.65C118.236 103.229 118.086 103.719 117.785 104.12C117.489 104.521 117.083 104.801 116.568 104.961V105.043C117.206 105.148 117.705 105.421 118.065 105.863C118.425 106.301 118.605 106.843 118.605 107.49C118.605 108.042 118.455 108.536 118.154 108.974C117.858 109.411 117.45 109.757 116.931 110.013C116.416 110.263 115.83 110.389 115.174 110.389ZM123.309 110.389C122.561 110.389 121.923 110.184 121.395 109.773C120.866 109.363 120.463 108.771 120.185 107.996C119.907 107.217 119.768 106.273 119.768 105.166C119.768 104.063 119.907 103.122 120.185 102.343C120.467 101.559 120.873 100.962 121.401 100.552C121.93 100.137 122.566 99.9297 123.309 99.9297C124.051 99.9297 124.687 100.137 125.216 100.552C125.744 100.962 126.148 101.559 126.426 102.343C126.708 103.122 126.85 104.063 126.85 105.166C126.85 106.273 126.711 107.217 126.433 107.996C126.155 108.771 125.751 109.363 125.223 109.773C124.699 110.184 124.061 110.389 123.309 110.389ZM123.309 109.309C123.814 109.309 124.243 109.147 124.594 108.823C124.945 108.495 125.211 108.021 125.394 107.401C125.58 106.782 125.674 106.036 125.674 105.166C125.674 104.291 125.58 103.544 125.394 102.924C125.211 102.304 124.945 101.83 124.594 101.502C124.243 101.174 123.814 101.01 123.309 101.01C122.552 101.01 121.969 101.374 121.559 102.104C121.148 102.833 120.943 103.854 120.943 105.166C120.943 106.036 121.035 106.782 121.217 107.401C121.404 108.021 121.673 108.495 122.023 108.823C122.379 109.147 122.807 109.309 123.309 109.309Z" fill="black"/>
<path d="M282.473 79.1641V78.4023L285.355 75.2383C285.691 74.8711 285.967 74.5508 286.182 74.2773C286.4 74.0039 286.562 73.7461 286.668 73.5039C286.777 73.2617 286.832 73.0078 286.832 72.7422C286.832 72.4336 286.758 72.168 286.609 71.9453C286.465 71.7188 286.268 71.5449 286.018 71.4238C285.768 71.3027 285.484 71.2422 285.168 71.2422C284.832 71.2422 284.539 71.3105 284.289 71.4473C284.043 71.584 283.852 71.7773 283.715 72.0273C283.582 72.2734 283.516 72.5625 283.516 72.8945H282.508C282.508 72.3828 282.625 71.9336 282.859 71.5469C283.098 71.1602 283.42 70.8594 283.826 70.6445C284.236 70.4258 284.695 70.3164 285.203 70.3164C285.715 70.3164 286.168 70.4258 286.562 70.6445C286.957 70.8594 287.266 71.1504 287.488 71.5176C287.715 71.8809 287.828 72.2891 287.828 72.7422C287.828 73.0625 287.77 73.375 287.652 73.6797C287.539 73.9805 287.34 74.3184 287.055 74.6934C286.773 75.0684 286.383 75.5234 285.883 76.0586L283.926 78.1562V78.2266H287.98V79.1641H282.473ZM292.023 79.2812C291.383 79.2812 290.836 79.1055 290.383 78.7539C289.93 78.4023 289.584 77.8945 289.346 77.2305C289.107 76.5625 288.988 75.7539 288.988 74.8047C288.988 73.8594 289.107 73.0527 289.346 72.3848C289.588 71.7129 289.936 71.2012 290.389 70.8496C290.842 70.4941 291.387 70.3164 292.023 70.3164C292.66 70.3164 293.205 70.4941 293.658 70.8496C294.111 71.2012 294.457 71.7129 294.695 72.3848C294.938 73.0527 295.059 73.8594 295.059 74.8047C295.059 75.7539 294.939 76.5625 294.701 77.2305C294.463 77.8945 294.117 78.4023 293.664 78.7539C293.215 79.1055 292.668 79.2812 292.023 79.2812ZM292.023 78.3555C292.457 78.3555 292.824 78.2168 293.125 77.9395C293.426 77.6582 293.654 77.252 293.811 76.7207C293.971 76.1895 294.051 75.5508 294.051 74.8047C294.051 74.0547 293.971 73.4141 293.811 72.8828C293.654 72.3516 293.426 71.9453 293.125 71.6641C292.824 71.3828 292.457 71.2422 292.023 71.2422C291.375 71.2422 290.875 71.5547 290.523 72.1797C290.172 72.8047 289.996 73.6797 289.996 74.8047C289.996 75.5508 290.074 76.1895 290.23 76.7207C290.391 77.252 290.621 77.6582 290.922 77.9395C291.227 78.2168 291.594 78.3555 292.023 78.3555ZM300.566 77.5234V77.0664C300.566 76.7461 300.631 76.4531 300.76 76.1875C300.893 75.9219 301.086 75.709 301.34 75.5488C301.594 75.3887 301.902 75.3086 302.266 75.3086C302.637 75.3086 302.947 75.3887 303.197 75.5488C303.447 75.709 303.635 75.9219 303.76 76.1875C303.889 76.4531 303.953 76.7461 303.953 77.0664V77.5234C303.953 77.8438 303.889 78.1367 303.76 78.4023C303.631 78.668 303.441 78.8809 303.191 79.041C302.941 79.2012 302.633 79.2812 302.266 79.2812C301.898 79.2812 301.588 79.2012 301.334 79.041C301.08 78.8809 300.889 78.668 300.76 78.4023C300.631 78.1367 300.566 77.8438 300.566 77.5234ZM301.434 77.0664V77.5234C301.434 77.7891 301.496 78.0273 301.621 78.2383C301.746 78.4453 301.961 78.5508 302.266 78.5547C302.566 78.5508 302.777 78.4453 302.898 78.2383C303.023 78.0273 303.086 77.7891 303.086 77.5234V77.0664C303.086 76.8008 303.025 76.5645 302.904 76.3574C302.787 76.1504 302.574 76.0469 302.266 76.0469C301.969 76.0469 301.756 76.1504 301.627 76.3574C301.498 76.5645 301.434 76.8008 301.434 77.0664ZM296.219 72.5312V72.0742C296.219 71.7539 296.285 71.4609 296.418 71.1953C296.551 70.9297 296.742 70.7168 296.992 70.5566C297.246 70.3965 297.555 70.3164 297.918 70.3164C298.289 70.3164 298.6 70.3965 298.85 70.5566C299.104 70.7168 299.293 70.9297 299.418 71.1953C299.547 71.4609 299.609 71.7539 299.605 72.0742V72.5312C299.609 72.8477 299.545 73.1406 299.412 73.4102C299.283 73.6758 299.094 73.8887 298.844 74.0488C298.594 74.209 298.285 74.2891 297.918 74.2891C297.551 74.2891 297.24 74.209 296.986 74.0488C296.732 73.8887 296.541 73.6758 296.412 73.4102C296.283 73.1406 296.219 72.8477 296.219 72.5312ZM297.086 72.0742V72.5312C297.086 72.7969 297.148 73.0352 297.273 73.2461C297.398 73.4531 297.613 73.5547 297.918 73.5508C298.219 73.5547 298.43 73.4531 298.551 73.2461C298.676 73.0352 298.738 72.7969 298.738 72.5312V72.0742C298.738 71.8086 298.678 71.5723 298.557 71.3652C298.439 71.1543 298.227 71.0508 297.918 71.0547C297.621 71.0508 297.408 71.1543 297.279 71.3652C297.15 71.5723 297.086 71.8086 297.086 72.0742ZM296.547 79.1641L302.547 70.4336H303.52L297.52 79.1641H296.547Z" fill="#1A1A1C" fill-opacity="0.6"/>
<path d="M291.125 256.57L291.125 233.246C291.125 229.991 293.764 227.352 297.019 227.352C300.274 227.352 302.913 229.991 302.913 233.246L302.913 256.57L291.125 256.57Z" fill="url(#paint0_linear_603_29059)"/>
<path d="M257.695 256.57L257.695 151.273C257.695 148.017 260.334 145.378 263.589 145.378C266.845 145.378 269.484 148.017 269.484 151.273L269.484 256.57L257.695 256.57Z" fill="url(#paint1_linear_603_29059)"/>
<path d="M224.266 256.57L224.266 178.056C224.266 174.801 226.905 172.162 230.16 172.162C233.415 172.162 236.054 174.801 236.054 178.056L236.054 256.57L224.266 256.57Z" fill="url(#paint2_linear_603_29059)"/>
<path d="M190.836 256.57L190.836 199.158C190.836 195.903 193.475 193.264 196.73 193.264C199.985 193.264 202.624 195.903 202.624 199.158L202.624 256.57L190.836 256.57Z" fill="url(#paint3_linear_603_29059)"/>
<path d="M157.406 256.57L157.406 161.824C157.406 158.568 160.045 155.93 163.3 155.93C166.556 155.93 169.195 158.568 169.195 161.824L169.195 256.57L157.406 256.57Z" fill="url(#paint4_linear_603_29059)"/>
<path d="M123.977 256.57L123.977 211.332C123.977 208.077 126.615 205.438 129.871 205.438C133.126 205.438 135.765 208.077 135.765 211.332L135.765 256.57L123.977 256.57Z" fill="url(#paint5_linear_603_29059)"/>
<path d="M90.5469 256.57L90.5469 190.23C90.5469 186.975 93.1858 184.336 96.441 184.336C99.6963 184.336 102.335 186.975 102.335 190.23L102.335 256.57L90.5469 256.57Z" fill="url(#paint6_linear_603_29059)"/>
<path d="M95.6973 273.623C95.0723 273.623 94.5312 273.523 94.0742 273.324C93.6172 273.121 93.2578 272.84 92.9961 272.48C92.7383 272.117 92.5918 271.697 92.5566 271.221H93.6465C93.6777 271.549 93.7891 271.82 93.9805 272.035C94.1758 272.25 94.4238 272.41 94.7246 272.516C95.0254 272.621 95.3496 272.674 95.6973 272.674C96.0996 272.674 96.4609 272.607 96.7812 272.475C97.1055 272.342 97.3613 272.156 97.5488 271.918C97.7363 271.68 97.8301 271.4 97.8301 271.08C97.8301 270.791 97.748 270.557 97.584 270.377C97.4199 270.197 97.2051 270.051 96.9395 269.938C96.6777 269.824 96.3926 269.725 96.084 269.639L95.0176 269.334C94.334 269.139 93.793 268.859 93.3945 268.496C93 268.129 92.8027 267.65 92.8027 267.061C92.8027 266.572 92.9336 266.146 93.1953 265.783C93.4609 265.416 93.8184 265.131 94.2676 264.928C94.7207 264.725 95.2246 264.623 95.7793 264.623C96.3418 264.623 96.8418 264.725 97.2793 264.928C97.7168 265.127 98.0645 265.4 98.3223 265.748C98.5801 266.092 98.7168 266.482 98.7324 266.92H97.7012C97.6504 266.49 97.4434 266.156 97.0801 265.918C96.7207 265.68 96.2754 265.561 95.7441 265.561C95.3613 265.561 95.0254 265.623 94.7363 265.748C94.4473 265.873 94.2227 266.045 94.0625 266.264C93.9023 266.482 93.8223 266.732 93.8223 267.014C93.8223 267.322 93.918 267.572 94.1094 267.764C94.3008 267.951 94.5273 268.098 94.7891 268.203C95.0547 268.309 95.2949 268.393 95.5098 268.455L96.3887 268.701C96.6152 268.764 96.8672 268.848 97.1445 268.953C97.4258 269.059 97.6953 269.201 97.9531 269.381C98.2148 269.561 98.4297 269.791 98.5977 270.072C98.7656 270.35 98.8496 270.693 98.8496 271.104C98.8496 271.572 98.7266 271.998 98.4805 272.381C98.2344 272.76 97.877 273.062 97.4082 273.289C96.9395 273.512 96.3691 273.623 95.6973 273.623Z" fill="#1A1A1C" fill-opacity="0.6"/>
<path d="M125.6 264.738H126.865L129.83 271.98H129.936L132.9 264.738H134.207V273.469H133.17V266.836H133.088L130.34 273.469H129.391L126.678 266.836H126.596V273.469H125.6V264.738Z" fill="#1A1A1C" fill-opacity="0.6"/>
<path d="M159.014 265.678V264.74H165.564V265.678H162.822V273.471H161.768V265.678H159.014Z" fill="#1A1A1C" fill-opacity="0.6"/>
<path d="M192.98 273.469L190.602 264.738H191.668L193.496 271.852H193.578L195.441 264.738H196.637L198.488 271.852H198.582L200.398 264.738H201.477L199.086 273.469H197.996L196.074 266.52H196.004L194.082 273.469H192.98Z" fill="#1A1A1C" fill-opacity="0.6"/>
<path d="M225.873 265.678V264.74H232.424V265.678H229.682V273.471H228.627V265.678H225.873Z" fill="#1A1A1C" fill-opacity="0.6"/>
<path d="M260.885 273.469V264.738H266.123V265.676H261.939V268.723H265.725V269.66H261.939V273.469H260.885Z" fill="#1A1A1C" fill-opacity="0.6"/>
<path d="M296.283 273.621C295.658 273.621 295.117 273.521 294.66 273.322C294.203 273.119 293.844 272.838 293.582 272.479C293.324 272.115 293.178 271.695 293.143 271.219H294.232C294.264 271.547 294.375 271.818 294.566 272.033C294.762 272.248 295.01 272.408 295.311 272.514C295.611 272.619 295.936 272.672 296.283 272.672C296.686 272.672 297.047 272.605 297.367 272.473C297.691 272.34 297.947 272.154 298.135 271.916C298.322 271.678 298.416 271.398 298.416 271.078C298.416 270.789 298.334 270.555 298.17 270.375C298.006 270.195 297.791 270.049 297.525 269.936C297.264 269.822 296.979 269.723 296.67 269.637L295.604 269.332C294.92 269.137 294.379 268.857 293.98 268.494C293.586 268.127 293.389 267.648 293.389 267.059C293.389 266.57 293.52 266.145 293.781 265.781C294.047 265.414 294.404 265.129 294.854 264.926C295.307 264.723 295.811 264.621 296.365 264.621C296.928 264.621 297.428 264.723 297.865 264.926C298.303 265.125 298.65 265.398 298.908 265.746C299.166 266.09 299.303 266.48 299.318 266.918H298.287C298.236 266.488 298.029 266.154 297.666 265.916C297.307 265.678 296.861 265.559 296.33 265.559C295.947 265.559 295.611 265.621 295.322 265.746C295.033 265.871 294.809 266.043 294.648 266.262C294.488 266.48 294.408 266.73 294.408 267.012C294.408 267.32 294.504 267.57 294.695 267.762C294.887 267.949 295.113 268.096 295.375 268.201C295.641 268.307 295.881 268.391 296.096 268.453L296.975 268.699C297.201 268.762 297.453 268.846 297.73 268.951C298.012 269.057 298.281 269.199 298.539 269.379C298.801 269.559 299.016 269.789 299.184 270.07C299.352 270.348 299.436 270.691 299.436 271.102C299.436 271.57 299.312 271.996 299.066 272.379C298.82 272.758 298.463 273.061 297.994 273.287C297.525 273.51 296.955 273.621 296.283 273.621Z" fill="#1A1A1C" fill-opacity="0.6"/>
</g>
<defs>
<filter id="filter0_d_603_29059" x="0.742188" y="0.634766" width="390.359" height="386" filterUnits="userSpaceOnUse" color-interpolation-filters="sRGB">
<feFlood flood-opacity="0" result="BackgroundImageFix"/>
<feColorMatrix in="SourceAlpha" type="matrix" values="0 0 0 0 0 0 0 0 0 0 0 0 0 0 0 0 0 0 127 0" result="hardAlpha"/>
<feMorphology radius="12" operator="erode" in="SourceAlpha" result="effect1_dropShadow_603_29059"/>
<feOffset dy="25"/>
<feGaussianBlur stdDeviation="40"/>
<feColorMatrix type="matrix" values="0 0 0 0 0.109804 0 0 0 0 0.133333 0 0 0 0 0.168627 0 0 0 0.1 0"/>
<feBlend mode="normal" in2="BackgroundImageFix" result="effect1_dropShadow_603_29059"/>
<feBlend mode="normal" in="SourceGraphic" in2="effect1_dropShadow_603_29059" result="shape"/>
</filter>
<linearGradient id="paint0_linear_603_29059" x1="297.019" y1="228.975" x2="297.019" y2="256.57" gradientUnits="userSpaceOnUse">
<stop stop-color="#864FFE"/>
<stop offset="1" stop-color="#864FFE" stop-opacity="0.28"/>
</linearGradient>
<linearGradient id="paint1_linear_603_29059" x1="263.589" y1="151.556" x2="263.589" y2="256.57" gradientUnits="userSpaceOnUse">
<stop stop-color="#864FFE"/>
<stop offset="1" stop-color="#864FFE" stop-opacity="0.28"/>
</linearGradient>
<linearGradient id="paint2_linear_603_29059" x1="230.16" y1="176.851" x2="230.16" y2="256.57" gradientUnits="userSpaceOnUse">
<stop stop-color="#864FFE"/>
<stop offset="1" stop-color="#864FFE" stop-opacity="0.28"/>
</linearGradient>
<linearGradient id="paint3_linear_603_29059" x1="196.73" y1="196.781" x2="196.73" y2="256.57" gradientUnits="userSpaceOnUse">
<stop stop-color="#864FFE"/>
<stop offset="1" stop-color="#864FFE" stop-opacity="0.28"/>
</linearGradient>
<linearGradient id="paint4_linear_603_29059" x1="163.3" y1="161.521" x2="163.3" y2="256.57" gradientUnits="userSpaceOnUse">
<stop stop-color="#864FFE"/>
<stop offset="1" stop-color="#864FFE" stop-opacity="0.28"/>
</linearGradient>
<linearGradient id="paint5_linear_603_29059" x1="129.871" y1="208.279" x2="129.871" y2="256.57" gradientUnits="userSpaceOnUse">
<stop stop-color="#864FFE"/>
<stop offset="1" stop-color="#864FFE" stop-opacity="0.28"/>
</linearGradient>
<linearGradient id="paint6_linear_603_29059" x1="96.4409" y1="188.349" x2="96.4409" y2="256.57" gradientUnits="userSpaceOnUse">
<stop stop-color="#864FFE"/>
<stop offset="1" stop-color="#864FFE" stop-opacity="0.28"/>
</linearGradient>
</defs>
</svg>
