<svg width="406" height="261" viewBox="0 0 406 261" fill="none" xmlns="http://www.w3.org/2000/svg">
<g filter="url(#filter0_d_603_29085)">
<mask id="mask0_603_29085" style="mask-type:alpha" maskUnits="userSpaceOnUse" x="68" y="43" width="270" height="125">
<rect x="68" y="43.0547" width="270" height="124" rx="16" fill="white"/>
</mask>
<g mask="url(#mask0_603_29085)">
<rect x="68" y="43.0547" width="270" height="124" rx="16" fill="#FCFCFD"/>
<path d="M313.611 133.478C318.999 139.678 317.581 118.317 324.955 131.845C329.619 139.871 351.898 165.483 351.898 174.765V254.217C351.898 263.054 344.735 270.217 335.898 270.217H23.8753C15.0388 270.217 7.87537 263.054 7.87537 254.217V141.363C7.87537 132.526 17.3322 127.26 22.1377 119.844C25.341 114.901 25.0544 107.994 35.9531 105.072C53.8207 100.281 33.6842 96.8824 42.7598 96.8824C72.5392 95.4734 68.285 165.099 89.556 152.981C110.827 140.863 104.02 113.228 113.663 108.155C123.306 103.082 126.142 133.478 137.203 133.478C146.052 133.478 149.777 124.084 150.533 119.387C152.802 111.778 160.459 110.65 163.579 119.387C166.699 128.123 168.117 130.096 179.745 131.505C191.373 132.914 190.239 147.005 199.598 148.132C208.957 149.259 212.077 131.787 219.167 128.969C226.258 126.15 221.72 133.478 228.243 132.35C234.766 131.223 236.184 116.569 243.274 114.596C250.365 112.623 254.335 138.269 270.501 150.95C286.667 163.632 290.922 118.823 295.459 112.905C299.997 106.987 308.222 127.278 313.611 133.478Z" fill="url(#paint0_linear_603_29085)"/>
<path d="M313.611 133.478C318.999 139.678 317.581 118.317 324.955 131.845C329.619 139.871 351.898 165.483 351.898 174.765V254.217C351.898 263.054 344.735 270.217 335.898 270.217H23.8753C15.0388 270.217 7.87537 263.054 7.87537 254.217V141.363C7.87537 132.526 17.3322 127.26 22.1377 119.844C25.341 114.901 25.0544 107.994 35.9531 105.072C53.8207 100.281 33.6842 96.8824 42.7598 96.8824C72.5392 95.4734 68.285 165.099 89.556 152.981C110.827 140.863 104.02 113.228 113.663 108.155C123.306 103.082 126.142 133.478 137.203 133.478C146.052 133.478 149.777 124.084 150.533 119.387C152.802 111.778 160.459 110.65 163.579 119.387C166.699 128.123 168.117 130.096 179.745 131.505C191.373 132.914 190.239 147.005 199.598 148.132C208.957 149.259 212.077 131.787 219.167 128.969C226.258 126.15 221.72 133.478 228.243 132.35C234.766 131.223 236.184 116.569 243.274 114.596C250.365 112.623 254.335 138.269 270.501 150.95C286.667 163.632 290.922 118.823 295.459 112.905C299.997 106.987 308.222 127.278 313.611 133.478Z" stroke="#864FFE" stroke-width="1.13636"/>
<path d="M216.977 93.6218C216.977 86.24 222.961 80.2559 230.342 80.2559H258.518C265.9 80.2559 271.884 86.24 271.884 93.6218V93.6218C271.884 101.004 265.9 106.988 258.518 106.988H250.258C249.126 106.988 248.055 107.5 247.344 108.382V108.382C245.847 110.242 243.014 110.242 241.516 108.382V108.382C240.806 107.5 239.735 106.988 238.602 106.988H230.342C222.961 106.988 216.977 101.004 216.977 93.6218V93.6218Z" fill="#1A1A1C"/>
<path d="M226.514 99.3066V88.3965H227.205V99.3066H226.514ZM226.853 98.3691C226.228 98.3691 225.687 98.2695 225.23 98.0703C224.773 97.8672 224.414 97.5859 224.152 97.2266C223.894 96.8633 223.748 96.4434 223.713 95.9668H224.803C224.834 96.2949 224.945 96.5664 225.137 96.7812C225.332 96.9961 225.58 97.1562 225.881 97.2617C226.182 97.3672 226.506 97.4199 226.853 97.4199C227.256 97.4199 227.617 97.3535 227.937 97.2207C228.262 97.0879 228.517 96.9023 228.705 96.6641C228.892 96.4258 228.986 96.1465 228.986 95.8262C228.986 95.5371 228.904 95.3027 228.74 95.123C228.576 94.9434 228.361 94.7969 228.096 94.6836C227.834 94.5703 227.549 94.4707 227.24 94.3848L226.174 94.0801C225.49 93.8848 224.949 93.6055 224.551 93.2422C224.156 92.875 223.959 92.3965 223.959 91.8066C223.959 91.3184 224.09 90.8926 224.351 90.5293C224.617 90.1621 224.974 89.877 225.424 89.6738C225.877 89.4707 226.381 89.3691 226.935 89.3691C227.498 89.3691 227.998 89.4707 228.435 89.6738C228.873 89.873 229.221 90.1465 229.478 90.4941C229.736 90.8379 229.873 91.2285 229.889 91.666H228.857C228.807 91.2363 228.599 90.9023 228.236 90.6641C227.877 90.4258 227.432 90.3066 226.9 90.3066C226.517 90.3066 226.182 90.3691 225.892 90.4941C225.603 90.6191 225.379 90.791 225.219 91.0098C225.058 91.2285 224.978 91.4785 224.978 91.7598C224.978 92.0684 225.074 92.3184 225.265 92.5098C225.457 92.6973 225.683 92.8438 225.945 92.9492C226.211 93.0547 226.451 93.1387 226.666 93.2012L227.545 93.4473C227.771 93.5098 228.023 93.5938 228.301 93.6992C228.582 93.8047 228.851 93.9473 229.109 94.127C229.371 94.3066 229.586 94.5371 229.754 94.8184C229.922 95.0957 230.006 95.4395 230.006 95.8496C230.006 96.3184 229.883 96.7441 229.637 97.127C229.39 97.5059 229.033 97.8086 228.564 98.0352C228.096 98.2578 227.525 98.3691 226.853 98.3691ZM233.896 89.4863V98.2168H232.865V90.5996H232.807L230.685 92.0176V90.9395L232.865 89.4863H233.896ZM238.139 98.334C237.498 98.334 236.951 98.1582 236.498 97.8066C236.045 97.4551 235.699 96.9473 235.461 96.2832C235.223 95.6152 235.103 94.8066 235.103 93.8574C235.103 92.9121 235.223 92.1055 235.461 91.4375C235.703 90.7656 236.051 90.2539 236.504 89.9023C236.957 89.5469 237.502 89.3691 238.139 89.3691C238.775 89.3691 239.32 89.5469 239.773 89.9023C240.226 90.2539 240.572 90.7656 240.81 91.4375C241.053 92.1055 241.174 92.9121 241.174 93.8574C241.174 94.8066 241.055 95.6152 240.816 96.2832C240.578 96.9473 240.232 97.4551 239.779 97.8066C239.33 98.1582 238.783 98.334 238.139 98.334ZM238.139 97.4082C238.572 97.4082 238.939 97.2695 239.24 96.9922C239.541 96.7109 239.769 96.3047 239.926 95.7734C240.086 95.2422 240.166 94.6035 240.166 93.8574C240.166 93.1074 240.086 92.4668 239.926 91.9355C239.769 91.4043 239.541 90.998 239.24 90.7168C238.939 90.4355 238.572 90.2949 238.139 90.2949C237.49 90.2949 236.99 90.6074 236.639 91.2324C236.287 91.8574 236.111 92.7324 236.111 93.8574C236.111 94.6035 236.189 95.2422 236.346 95.7734C236.506 96.3047 236.736 96.7109 237.037 96.9922C237.342 97.2695 237.709 97.4082 238.139 97.4082ZM245.006 98.334C244.42 98.334 243.904 98.2305 243.459 98.0234C243.014 97.8125 242.666 97.5234 242.416 97.1562C242.166 96.7891 242.041 96.3691 242.041 95.8965C242.041 95.5293 242.113 95.1895 242.258 94.877C242.406 94.5605 242.607 94.2969 242.861 94.0859C243.119 93.875 243.408 93.7402 243.728 93.6816V93.6348C243.31 93.5254 242.976 93.2891 242.726 92.9258C242.48 92.5625 242.357 92.1504 242.357 91.6895C242.357 91.2441 242.471 90.8477 242.697 90.5C242.924 90.1484 243.236 89.873 243.635 89.6738C244.037 89.4707 244.494 89.3691 245.006 89.3691C245.51 89.3691 245.961 89.4707 246.359 89.6738C246.758 89.873 247.07 90.1484 247.297 90.5C247.527 90.8477 247.642 91.2441 247.642 91.6895C247.642 92.1504 247.517 92.5625 247.267 92.9258C247.017 93.2891 246.689 93.5254 246.283 93.6348V93.6816C246.596 93.7402 246.879 93.875 247.133 94.0859C247.39 94.2969 247.594 94.5605 247.742 94.877C247.894 95.1895 247.971 95.5293 247.971 95.8965C247.971 96.3691 247.844 96.7891 247.59 97.1562C247.34 97.5234 246.992 97.8125 246.547 98.0234C246.101 98.2305 245.588 98.334 245.006 98.334ZM245.006 97.3965C245.4 97.3965 245.74 97.334 246.025 97.209C246.314 97.0801 246.537 96.9004 246.693 96.6699C246.849 96.4355 246.928 96.1621 246.928 95.8496C246.928 95.5215 246.844 95.2305 246.676 94.9766C246.508 94.7227 246.279 94.5234 245.99 94.3789C245.701 94.2344 245.373 94.1621 245.006 94.1621C244.631 94.1621 244.297 94.2344 244.004 94.3789C243.715 94.5234 243.486 94.7227 243.318 94.9766C243.154 95.2305 243.072 95.5215 243.072 95.8496C243.072 96.1621 243.15 96.4355 243.307 96.6699C243.463 96.9004 243.685 97.0801 243.974 97.209C244.264 97.334 244.607 97.3965 245.006 97.3965ZM245.006 93.2598C245.318 93.2598 245.596 93.1973 245.838 93.0723C246.08 92.9473 246.271 92.7734 246.412 92.5508C246.553 92.3242 246.623 92.0605 246.623 91.7598C246.623 91.4629 246.555 91.2051 246.418 90.9863C246.281 90.7676 246.092 90.5977 245.849 90.4766C245.607 90.3555 245.326 90.2949 245.006 90.2949C244.678 90.2949 244.39 90.3555 244.144 90.4766C243.902 90.5977 243.713 90.7676 243.576 90.9863C243.443 91.2051 243.377 91.4629 243.377 91.7598C243.377 92.0605 243.445 92.3242 243.582 92.5508C243.723 92.7734 243.914 92.9473 244.156 93.0723C244.402 93.1973 244.685 93.2598 245.006 93.2598ZM249.558 98.2871C249.348 98.2871 249.166 98.2129 249.014 98.0645C248.865 97.9121 248.791 97.7305 248.791 97.5195C248.791 97.3086 248.865 97.1289 249.014 96.9805C249.166 96.8281 249.348 96.752 249.558 96.752C249.769 96.752 249.949 96.8281 250.098 96.9805C250.25 97.1289 250.326 97.3086 250.326 97.5195C250.326 97.7305 250.25 97.9121 250.098 98.0645C249.949 98.2129 249.769 98.2871 249.558 98.2871ZM254.146 98.334C253.506 98.334 252.959 98.1582 252.506 97.8066C252.053 97.4551 251.707 96.9473 251.469 96.2832C251.23 95.6152 251.111 94.8066 251.111 93.8574C251.111 92.9121 251.23 92.1055 251.469 91.4375C251.711 90.7656 252.058 90.2539 252.512 89.9023C252.965 89.5469 253.51 89.3691 254.146 89.3691C254.783 89.3691 255.328 89.5469 255.781 89.9023C256.234 90.2539 256.58 90.7656 256.818 91.4375C257.06 92.1055 257.182 92.9121 257.182 93.8574C257.182 94.8066 257.062 95.6152 256.824 96.2832C256.586 96.9473 256.24 97.4551 255.787 97.8066C255.338 98.1582 254.791 98.334 254.146 98.334ZM254.146 97.4082C254.58 97.4082 254.947 97.2695 255.248 96.9922C255.549 96.7109 255.777 96.3047 255.933 95.7734C256.094 95.2422 256.174 94.6035 256.174 93.8574C256.174 93.1074 256.094 92.4668 255.933 91.9355C255.777 91.4043 255.549 90.998 255.248 90.7168C254.947 90.4355 254.58 90.2949 254.146 90.2949C253.498 90.2949 252.998 90.6074 252.646 91.2324C252.295 91.8574 252.119 92.7324 252.119 93.8574C252.119 94.6035 252.197 95.2422 252.353 95.7734C252.514 96.3047 252.744 96.7109 253.045 96.9922C253.349 97.2695 253.717 97.4082 254.146 97.4082ZM261.084 98.334C260.443 98.334 259.896 98.1582 259.443 97.8066C258.99 97.4551 258.644 96.9473 258.406 96.2832C258.168 95.6152 258.049 94.8066 258.049 93.8574C258.049 92.9121 258.168 92.1055 258.406 91.4375C258.648 90.7656 258.996 90.2539 259.449 89.9023C259.902 89.5469 260.447 89.3691 261.084 89.3691C261.721 89.3691 262.265 89.5469 262.719 89.9023C263.172 90.2539 263.517 90.7656 263.756 91.4375C263.998 92.1055 264.119 92.9121 264.119 93.8574C264.119 94.8066 264 95.6152 263.762 96.2832C263.523 96.9473 263.178 97.4551 262.724 97.8066C262.275 98.1582 261.728 98.334 261.084 98.334ZM261.084 97.4082C261.517 97.4082 261.885 97.2695 262.185 96.9922C262.486 96.7109 262.715 96.3047 262.871 95.7734C263.031 95.2422 263.111 94.6035 263.111 93.8574C263.111 93.1074 263.031 92.4668 262.871 91.9355C262.715 91.4043 262.486 90.998 262.185 90.7168C261.885 90.4355 261.517 90.2949 261.084 90.2949C260.435 90.2949 259.935 90.6074 259.584 91.2324C259.232 91.8574 259.057 92.7324 259.057 93.8574C259.057 94.6035 259.135 95.2422 259.291 95.7734C259.451 96.3047 259.682 96.7109 259.982 96.9922C260.287 97.2695 260.654 97.4082 261.084 97.4082Z" fill="#FCFCFD"/>
</g>
</g>
<defs>
<filter id="filter0_d_603_29085" x="0" y="0.0546875" width="406" height="260" filterUnits="userSpaceOnUse" color-interpolation-filters="sRGB">
<feFlood flood-opacity="0" result="BackgroundImageFix"/>
<feColorMatrix in="SourceAlpha" type="matrix" values="0 0 0 0 0 0 0 0 0 0 0 0 0 0 0 0 0 0 127 0" result="hardAlpha"/>
<feMorphology radius="12" operator="erode" in="SourceAlpha" result="effect1_dropShadow_603_29085"/>
<feOffset dy="25"/>
<feGaussianBlur stdDeviation="40"/>
<feColorMatrix type="matrix" values="0 0 0 0 0.109804 0 0 0 0 0.133333 0 0 0 0 0.168627 0 0 0 0.1 0"/>
<feBlend mode="normal" in2="BackgroundImageFix" result="effect1_dropShadow_603_29085"/>
<feBlend mode="normal" in="SourceGraphic" in2="effect1_dropShadow_603_29085" result="shape"/>
</filter>
<linearGradient id="paint0_linear_603_29085" x1="179.403" y1="80.2153" x2="179.403" y2="235.645" gradientUnits="userSpaceOnUse">
<stop stop-color="#E9E3FF"/>
<stop offset="0.72165" stop-color="#E9E3FF" stop-opacity="0"/>
</linearGradient>
</defs>
</svg>
