<svg width="267" height="228" viewBox="0 0 267 228" fill="none" xmlns="http://www.w3.org/2000/svg">
<path d="M0 24.5C0 13.1863 0 7.52944 3.51472 4.01472C7.02944 0.5 12.6863 0.5 24 0.5H229C240.314 0.5 245.971 0.5 249.485 4.01472C253 7.52944 253 13.1863 253 24.5V203.5C253 214.814 253 220.471 249.485 223.985C245.971 227.5 240.314 227.5 229 227.5H24C12.6863 227.5 7.02944 227.5 3.51472 223.985C0 220.471 0 214.814 0 203.5V24.5Z" fill="#181D26"/>
<path d="M24.6885 31.5H23.0547L26.7188 21.3145H28.4961L32.1533 31.5H30.5264L27.6416 23.167H27.5596L24.6885 31.5ZM24.9619 27.5146H30.2461V28.7998H24.9619V27.5146ZM38.4766 23.8574L35.7148 31.5H34.1152L31.3467 23.8574H32.9395L34.8809 29.75H34.9629L36.8906 23.8574H38.4766ZM42.3115 31.6572C41.5641 31.6572 40.917 31.4954 40.3701 31.1719C39.8232 30.8483 39.4017 30.3926 39.1055 29.8047C38.8138 29.2122 38.668 28.5218 38.668 27.7334C38.668 26.9495 38.8115 26.2591 39.0986 25.6621C39.3903 25.0651 39.7982 24.6003 40.3223 24.2676C40.8509 23.9303 41.4707 23.7617 42.1816 23.7617C42.6146 23.7617 43.0339 23.8324 43.4395 23.9736C43.8451 24.1149 44.2096 24.3382 44.5332 24.6436C44.8568 24.9489 45.112 25.3454 45.2988 25.833C45.4902 26.3206 45.5859 26.9085 45.5859 27.5967V28.1299H39.5088V27.0156H44.8203L44.1299 27.3848C44.1299 26.9154 44.057 26.5007 43.9111 26.1406C43.7653 25.7806 43.5465 25.5003 43.2549 25.2998C42.9678 25.0947 42.61 24.9922 42.1816 24.9922C41.7533 24.9922 41.3864 25.0947 41.0811 25.2998C40.7803 25.5049 40.5501 25.776 40.3906 26.1133C40.2311 26.4505 40.1514 26.8197 40.1514 27.2207V27.9795C40.1514 28.5036 40.2425 28.9479 40.4248 29.3125C40.6071 29.6771 40.86 29.9551 41.1836 30.1465C41.5117 30.3379 41.8923 30.4336 42.3252 30.4336C42.6077 30.4336 42.863 30.3926 43.0908 30.3105C43.3232 30.2285 43.5238 30.1055 43.6924 29.9414C43.861 29.7773 43.9886 29.5745 44.0752 29.333L45.4834 29.5996C45.3695 30.0098 45.1689 30.3698 44.8818 30.6797C44.5947 30.9896 44.2324 31.2311 43.7949 31.4043C43.362 31.5729 42.8675 31.6572 42.3115 31.6572ZM46.625 31.5V23.8574H48.0537V25.0811H48.1357C48.277 24.6709 48.5231 24.3473 48.874 24.1104C49.2295 23.8688 49.6305 23.748 50.0771 23.748C50.1683 23.748 50.2754 23.7526 50.3984 23.7617C50.526 23.7663 50.6286 23.7731 50.7061 23.7822V25.2041C50.6468 25.1859 50.5397 25.1676 50.3848 25.1494C50.2344 25.1312 50.0817 25.1221 49.9268 25.1221C49.5758 25.1221 49.2614 25.1973 48.9834 25.3477C48.71 25.4935 48.4935 25.6963 48.334 25.9561C48.179 26.2113 48.1016 26.5075 48.1016 26.8447V31.5H46.625ZM53.5703 31.6641C53.0872 31.6641 52.6497 31.5752 52.2578 31.3975C51.8659 31.2152 51.556 30.9508 51.3281 30.6045C51.1003 30.2581 50.9863 29.8366 50.9863 29.3398C50.9863 28.9069 51.0684 28.5537 51.2324 28.2803C51.401 28.0023 51.6266 27.7812 51.9092 27.6172C52.1917 27.4531 52.5062 27.3301 52.8525 27.248C53.1989 27.166 53.5544 27.1022 53.9189 27.0566C54.3792 27.0065 54.7507 26.9632 55.0332 26.9268C55.3158 26.8903 55.5208 26.8333 55.6484 26.7559C55.7806 26.6738 55.8467 26.5439 55.8467 26.3662V26.332C55.8467 25.8991 55.7236 25.5641 55.4775 25.3271C55.236 25.0902 54.876 24.9717 54.3975 24.9717C53.9007 24.9717 53.5065 25.0811 53.2148 25.2998C52.9277 25.514 52.7295 25.7578 52.6201 26.0312L51.2188 25.71C51.3874 25.2451 51.6312 24.8714 51.9502 24.5889C52.2738 24.3018 52.6429 24.0921 53.0576 23.96C53.4769 23.8278 53.9144 23.7617 54.3701 23.7617C54.6755 23.7617 54.999 23.7982 55.3408 23.8711C55.6826 23.9395 56.0039 24.0693 56.3047 24.2607C56.61 24.4476 56.8584 24.7165 57.0498 25.0674C57.2412 25.4183 57.3369 25.8717 57.3369 26.4277V31.5H55.8809V30.4541H55.8262C55.735 30.641 55.5915 30.8278 55.3955 31.0146C55.2041 31.2015 54.958 31.3564 54.6572 31.4795C54.3564 31.6025 53.9941 31.6641 53.5703 31.6641ZM53.8916 30.4746C54.3063 30.4746 54.6595 30.3949 54.9512 30.2354C55.2428 30.0713 55.4661 29.8571 55.6211 29.5928C55.776 29.3285 55.8535 29.0482 55.8535 28.752V27.7607C55.7988 27.8109 55.6963 27.8587 55.5459 27.9043C55.3955 27.9499 55.2246 27.9886 55.0332 28.0205C54.8418 28.0524 54.6549 28.082 54.4727 28.1094C54.2904 28.1322 54.1377 28.1504 54.0146 28.1641C53.7275 28.2051 53.4655 28.2689 53.2285 28.3555C52.9915 28.4375 52.8001 28.5605 52.6543 28.7246C52.513 28.8841 52.4424 29.096 52.4424 29.3604C52.4424 29.7295 52.5791 30.0075 52.8525 30.1943C53.126 30.3812 53.4723 30.4746 53.8916 30.4746ZM61.9512 34.5215C61.0397 34.5215 60.3219 34.3506 59.7979 34.0088C59.2738 33.667 58.9115 33.2614 58.7109 32.792L59.9824 32.2656C60.0736 32.4115 60.1943 32.5664 60.3447 32.7305C60.4997 32.8945 60.707 33.0335 60.9668 33.1475C61.2266 33.2614 61.5615 33.3184 61.9717 33.3184C62.5322 33.3184 62.9971 33.1816 63.3662 32.9082C63.7354 32.6393 63.9199 32.2064 63.9199 31.6094V30.1123H63.8174C63.7354 30.2718 63.61 30.4518 63.4414 30.6523C63.2728 30.8483 63.0426 31.0192 62.751 31.165C62.4593 31.3109 62.0788 31.3838 61.6094 31.3838C61.0078 31.3838 60.4655 31.2425 59.9824 30.96C59.5039 30.6729 59.1211 30.2536 58.834 29.7021C58.5514 29.1462 58.4102 28.4626 58.4102 27.6514C58.4102 26.8402 58.5492 26.1452 58.8271 25.5664C59.1097 24.9831 59.4925 24.5365 59.9756 24.2266C60.4587 23.9167 61.0078 23.7617 61.623 23.7617C62.097 23.7617 62.4798 23.8415 62.7715 24.001C63.0677 24.1559 63.2979 24.3382 63.4619 24.5479C63.626 24.7575 63.7536 24.9421 63.8447 25.1016H63.9541V23.8574H65.3965V31.6709C65.3965 32.3271 65.2438 32.8649 64.9385 33.2842C64.6377 33.7035 64.2275 34.0133 63.708 34.2139C63.1885 34.4189 62.6029 34.5215 61.9512 34.5215ZM61.9375 30.1465C62.5801 30.1465 63.0723 29.9255 63.4141 29.4834C63.7604 29.0368 63.9336 28.4193 63.9336 27.6309C63.9336 27.1159 63.8584 26.6647 63.708 26.2773C63.5576 25.8854 63.3343 25.5801 63.0381 25.3613C62.7419 25.138 62.375 25.0264 61.9375 25.0264C61.4909 25.0264 61.1172 25.1426 60.8164 25.375C60.5202 25.6029 60.2969 25.915 60.1465 26.3115C59.9961 26.7035 59.9209 27.1432 59.9209 27.6309C59.9209 28.1276 59.9961 28.5674 60.1465 28.9502C60.2969 29.3285 60.5225 29.6224 60.8232 29.832C61.1286 30.0417 61.5 30.1465 61.9375 30.1465ZM70.1064 31.6572C69.359 31.6572 68.7119 31.4954 68.165 31.1719C67.6182 30.8483 67.1966 30.3926 66.9004 29.8047C66.6087 29.2122 66.4629 28.5218 66.4629 27.7334C66.4629 26.9495 66.6064 26.2591 66.8936 25.6621C67.1852 25.0651 67.5931 24.6003 68.1172 24.2676C68.6458 23.9303 69.2656 23.7617 69.9766 23.7617C70.4095 23.7617 70.8288 23.8324 71.2344 23.9736C71.64 24.1149 72.0046 24.3382 72.3281 24.6436C72.6517 24.9489 72.9069 25.3454 73.0938 25.833C73.2852 26.3206 73.3809 26.9085 73.3809 27.5967V28.1299H67.3037V27.0156H72.6152L71.9248 27.3848C71.9248 26.9154 71.8519 26.5007 71.7061 26.1406C71.5602 25.7806 71.3415 25.5003 71.0498 25.2998C70.7627 25.0947 70.4049 24.9922 69.9766 24.9922C69.5482 24.9922 69.1813 25.0947 68.876 25.2998C68.5752 25.5049 68.3451 25.776 68.1855 26.1133C68.026 26.4505 67.9463 26.8197 67.9463 27.2207V27.9795C67.9463 28.5036 68.0374 28.9479 68.2197 29.3125C68.402 29.6771 68.6549 29.9551 68.9785 30.1465C69.3066 30.3379 69.6872 30.4336 70.1201 30.4336C70.4027 30.4336 70.6579 30.3926 70.8857 30.3105C71.1182 30.2285 71.3187 30.1055 71.4873 29.9414C71.6559 29.7773 71.7835 29.5745 71.8701 29.333L73.2783 29.5996C73.1644 30.0098 72.9639 30.3698 72.6768 30.6797C72.3896 30.9896 72.0273 31.2311 71.5898 31.4043C71.1569 31.5729 70.6624 31.6572 70.1064 31.6572ZM80.3809 31.6504C79.7611 31.6504 79.2096 31.4932 78.7266 31.1787C78.2435 30.8597 77.8652 30.4062 77.5918 29.8184C77.3184 29.2259 77.1816 28.5195 77.1816 27.6992C77.1816 26.8698 77.3206 26.1611 77.5986 25.5732C77.8766 24.9854 78.2572 24.5365 78.7402 24.2266C79.2233 23.9167 79.7702 23.7617 80.3809 23.7617C80.8594 23.7617 81.2422 23.8415 81.5293 24.001C81.821 24.1559 82.0465 24.3382 82.2061 24.5479C82.3701 24.7575 82.4954 24.9421 82.582 25.1016H82.6709V21.3145H84.1475V31.5H82.7051V30.3105H82.582C82.4954 30.4701 82.3678 30.6546 82.1992 30.8643C82.0306 31.0739 81.8005 31.2585 81.5088 31.418C81.2217 31.5729 80.8457 31.6504 80.3809 31.6504ZM80.7021 30.3857C81.1305 30.3857 81.4928 30.2718 81.7891 30.0439C82.0853 29.8161 82.3086 29.4993 82.459 29.0938C82.6139 28.6882 82.6914 28.2188 82.6914 27.6855C82.6914 27.1523 82.6162 26.6875 82.4658 26.291C82.3154 25.89 82.0921 25.5801 81.7959 25.3613C81.4997 25.138 81.1351 25.0264 80.7021 25.0264C80.2555 25.0264 79.8841 25.1426 79.5879 25.375C79.2917 25.6074 79.0684 25.9242 78.918 26.3252C78.7676 26.7262 78.6924 27.1797 78.6924 27.6855C78.6924 28.196 78.7676 28.6562 78.918 29.0664C79.0684 29.472 79.2917 29.7933 79.5879 30.0303C79.8887 30.2673 80.2601 30.3857 80.7021 30.3857ZM87.791 31.6641C87.3079 31.6641 86.8704 31.5752 86.4785 31.3975C86.0866 31.2152 85.7767 30.9508 85.5488 30.6045C85.321 30.2581 85.207 29.8366 85.207 29.3398C85.207 28.9069 85.2891 28.5537 85.4531 28.2803C85.6217 28.0023 85.8473 27.7812 86.1299 27.6172C86.4124 27.4531 86.7269 27.3301 87.0732 27.248C87.4196 27.166 87.7751 27.1022 88.1396 27.0566C88.5999 27.0065 88.9714 26.9632 89.2539 26.9268C89.5365 26.8903 89.7415 26.8333 89.8691 26.7559C90.0013 26.6738 90.0674 26.5439 90.0674 26.3662V26.332C90.0674 25.8991 89.9443 25.5641 89.6982 25.3271C89.4567 25.0902 89.0967 24.9717 88.6182 24.9717C88.1214 24.9717 87.7272 25.0811 87.4355 25.2998C87.1484 25.514 86.9502 25.7578 86.8408 26.0312L85.4395 25.71C85.6081 25.2451 85.8519 24.8714 86.1709 24.5889C86.4945 24.3018 86.8636 24.0921 87.2783 23.96C87.6976 23.8278 88.1351 23.7617 88.5908 23.7617C88.8962 23.7617 89.2197 23.7982 89.5615 23.8711C89.9033 23.9395 90.2246 24.0693 90.5254 24.2607C90.8307 24.4476 91.0791 24.7165 91.2705 25.0674C91.4619 25.4183 91.5576 25.8717 91.5576 26.4277V31.5H90.1016V30.4541H90.0469C89.9557 30.641 89.8122 30.8278 89.6162 31.0146C89.4248 31.2015 89.1787 31.3564 88.8779 31.4795C88.5771 31.6025 88.2148 31.6641 87.791 31.6641ZM88.1123 30.4746C88.527 30.4746 88.8802 30.3949 89.1719 30.2354C89.4635 30.0713 89.6868 29.8571 89.8418 29.5928C89.9967 29.3285 90.0742 29.0482 90.0742 28.752V27.7607C90.0195 27.8109 89.917 27.8587 89.7666 27.9043C89.6162 27.9499 89.4453 27.9886 89.2539 28.0205C89.0625 28.0524 88.8757 28.082 88.6934 28.1094C88.5111 28.1322 88.3584 28.1504 88.2354 28.1641C87.9482 28.2051 87.6862 28.2689 87.4492 28.3555C87.2122 28.4375 87.0208 28.5605 86.875 28.7246C86.7337 28.8841 86.6631 29.096 86.6631 29.3604C86.6631 29.7295 86.7998 30.0075 87.0732 30.1943C87.3467 30.3812 87.693 30.4746 88.1123 30.4746ZM92.9863 31.5V23.8574H94.4629V31.5H92.9863ZM93.7314 22.6816C93.4717 22.6816 93.2507 22.5951 93.0684 22.4219C92.8861 22.2487 92.7949 22.0413 92.7949 21.7998C92.7949 21.5537 92.8861 21.3441 93.0684 21.1709C93.2507 20.9977 93.4717 20.9111 93.7314 20.9111C93.9867 20.9111 94.2054 20.9977 94.3877 21.1709C94.5745 21.3441 94.668 21.5537 94.668 21.7998C94.668 22.0413 94.5745 22.2487 94.3877 22.4219C94.2054 22.5951 93.9867 22.6816 93.7314 22.6816ZM97.3613 21.3145V31.5H95.8848V21.3145H97.3613ZM99.7129 34.3574C99.4896 34.362 99.2868 34.346 99.1045 34.3096C98.9268 34.2777 98.79 34.2389 98.6943 34.1934L99.0566 32.9834L99.1592 33.0107C99.5374 33.1064 99.8564 33.0996 100.116 32.9902C100.381 32.8854 100.602 32.5915 100.779 32.1084L100.964 31.6025L98.1748 23.8574H99.7676L101.695 29.791H101.777L103.712 23.8574H105.305L102.16 32.5117C102.014 32.9128 101.83 33.25 101.606 33.5234C101.383 33.8014 101.114 34.0088 100.8 34.1455C100.49 34.2868 100.128 34.3574 99.7129 34.3574ZM114.957 25.7305L113.61 25.9629C113.524 25.7077 113.362 25.473 113.125 25.2588C112.893 25.0446 112.544 24.9375 112.079 24.9375C111.66 24.9375 111.309 25.0332 111.026 25.2246C110.748 25.4115 110.609 25.6507 110.609 25.9424C110.609 26.1976 110.703 26.4049 110.89 26.5645C111.081 26.724 111.384 26.8516 111.799 26.9473L113.022 27.2207C113.72 27.3802 114.242 27.6309 114.588 27.9727C114.934 28.3145 115.107 28.752 115.107 29.2852C115.107 29.7454 114.975 30.1556 114.711 30.5156C114.447 30.8711 114.08 31.1514 113.61 31.3564C113.141 31.557 112.599 31.6572 111.983 31.6572C111.127 31.6572 110.429 31.4727 109.892 31.1035C109.354 30.7344 109.023 30.2148 108.9 29.5449L110.329 29.3262C110.42 29.6999 110.605 29.9824 110.883 30.1738C111.165 30.3652 111.53 30.4609 111.977 30.4609C112.46 30.4609 112.847 30.3584 113.139 30.1533C113.435 29.9482 113.583 29.6999 113.583 29.4082C113.583 28.9251 113.223 28.5993 112.503 28.4307L111.211 28.1436C110.495 27.9795 109.967 27.722 109.625 27.3711C109.288 27.0156 109.119 26.569 109.119 26.0312C109.119 25.5801 109.244 25.1836 109.495 24.8418C109.75 24.5 110.099 24.2357 110.541 24.0488C110.988 23.8574 111.496 23.7617 112.065 23.7617C112.895 23.7617 113.544 23.9417 114.014 24.3018C114.488 24.6618 114.802 25.138 114.957 25.7305ZM118.361 31.6641C117.878 31.6641 117.441 31.5752 117.049 31.3975C116.657 31.2152 116.347 30.9508 116.119 30.6045C115.891 30.2581 115.777 29.8366 115.777 29.3398C115.777 28.9069 115.859 28.5537 116.023 28.2803C116.192 28.0023 116.418 27.7812 116.7 27.6172C116.983 27.4531 117.297 27.3301 117.644 27.248C117.99 27.166 118.345 27.1022 118.71 27.0566C119.17 27.0065 119.542 26.9632 119.824 26.9268C120.107 26.8903 120.312 26.8333 120.439 26.7559C120.572 26.6738 120.638 26.5439 120.638 26.3662V26.332C120.638 25.8991 120.515 25.5641 120.269 25.3271C120.027 25.0902 119.667 24.9717 119.188 24.9717C118.692 24.9717 118.298 25.0811 118.006 25.2998C117.719 25.514 117.521 25.7578 117.411 26.0312L116.01 25.71C116.178 25.2451 116.422 24.8714 116.741 24.5889C117.065 24.3018 117.434 24.0921 117.849 23.96C118.268 23.8278 118.705 23.7617 119.161 23.7617C119.466 23.7617 119.79 23.7982 120.132 23.8711C120.474 23.9395 120.795 24.0693 121.096 24.2607C121.401 24.4476 121.649 24.7165 121.841 25.0674C122.032 25.4183 122.128 25.8717 122.128 26.4277V31.5H120.672V30.4541H120.617C120.526 30.641 120.382 30.8278 120.187 31.0146C119.995 31.2015 119.749 31.3564 119.448 31.4795C119.147 31.6025 118.785 31.6641 118.361 31.6641ZM118.683 30.4746C119.097 30.4746 119.451 30.3949 119.742 30.2354C120.034 30.0713 120.257 29.8571 120.412 29.5928C120.567 29.3285 120.645 29.0482 120.645 28.752V27.7607C120.59 27.8109 120.487 27.8587 120.337 27.9043C120.187 27.9499 120.016 27.9886 119.824 28.0205C119.633 28.0524 119.446 28.082 119.264 28.1094C119.081 28.1322 118.929 28.1504 118.806 28.1641C118.519 28.2051 118.257 28.2689 118.02 28.3555C117.783 28.4375 117.591 28.5605 117.445 28.7246C117.304 28.8841 117.233 29.096 117.233 29.3604C117.233 29.7295 117.37 30.0075 117.644 30.1943C117.917 30.3812 118.263 30.4746 118.683 30.4746ZM125.033 21.3145V31.5H123.557V21.3145H125.033ZM129.743 31.6572C128.996 31.6572 128.349 31.4954 127.802 31.1719C127.255 30.8483 126.833 30.3926 126.537 29.8047C126.245 29.2122 126.1 28.5218 126.1 27.7334C126.1 26.9495 126.243 26.2591 126.53 25.6621C126.822 25.0651 127.23 24.6003 127.754 24.2676C128.283 23.9303 128.902 23.7617 129.613 23.7617C130.046 23.7617 130.465 23.8324 130.871 23.9736C131.277 24.1149 131.641 24.3382 131.965 24.6436C132.288 24.9489 132.544 25.3454 132.73 25.833C132.922 26.3206 133.018 26.9085 133.018 27.5967V28.1299H126.94V27.0156H132.252L131.562 27.3848C131.562 26.9154 131.489 26.5007 131.343 26.1406C131.197 25.7806 130.978 25.5003 130.687 25.2998C130.399 25.0947 130.042 24.9922 129.613 24.9922C129.185 24.9922 128.818 25.0947 128.513 25.2998C128.212 25.5049 127.982 25.776 127.822 26.1133C127.663 26.4505 127.583 26.8197 127.583 27.2207V27.9795C127.583 28.5036 127.674 28.9479 127.856 29.3125C128.039 29.6771 128.292 29.9551 128.615 30.1465C128.943 30.3379 129.324 30.4336 129.757 30.4336C130.039 30.4336 130.295 30.3926 130.522 30.3105C130.755 30.2285 130.955 30.1055 131.124 29.9414C131.293 29.7773 131.42 29.5745 131.507 29.333L132.915 29.5996C132.801 30.0098 132.601 30.3698 132.313 30.6797C132.026 30.9896 131.664 31.2311 131.227 31.4043C130.794 31.5729 130.299 31.6572 129.743 31.6572ZM139.771 25.7305L138.425 25.9629C138.338 25.7077 138.176 25.473 137.939 25.2588C137.707 25.0446 137.358 24.9375 136.894 24.9375C136.474 24.9375 136.123 25.0332 135.841 25.2246C135.563 25.4115 135.424 25.6507 135.424 25.9424C135.424 26.1976 135.517 26.4049 135.704 26.5645C135.896 26.724 136.199 26.8516 136.613 26.9473L137.837 27.2207C138.534 27.3802 139.056 27.6309 139.402 27.9727C139.749 28.3145 139.922 28.752 139.922 29.2852C139.922 29.7454 139.79 30.1556 139.525 30.5156C139.261 30.8711 138.894 31.1514 138.425 31.3564C137.955 31.557 137.413 31.6572 136.798 31.6572C135.941 31.6572 135.244 31.4727 134.706 31.1035C134.168 30.7344 133.838 30.2148 133.715 29.5449L135.144 29.3262C135.235 29.6999 135.419 29.9824 135.697 30.1738C135.98 30.3652 136.344 30.4609 136.791 30.4609C137.274 30.4609 137.661 30.3584 137.953 30.1533C138.249 29.9482 138.397 29.6999 138.397 29.4082C138.397 28.9251 138.037 28.5993 137.317 28.4307L136.025 28.1436C135.31 27.9795 134.781 27.722 134.439 27.3711C134.102 27.0156 133.934 26.569 133.934 26.0312C133.934 25.5801 134.059 25.1836 134.31 24.8418C134.565 24.5 134.913 24.2357 135.355 24.0488C135.802 23.8574 136.31 23.7617 136.88 23.7617C137.709 23.7617 138.359 23.9417 138.828 24.3018C139.302 24.6618 139.617 25.138 139.771 25.7305Z" fill="#FCFCFC"/>
<rect x="23" y="44.5" width="68" height="26" rx="13" fill="white"/>
<path d="M35.7695 58.8281V54.9492H36.7656V61.5H35.7695V60.3867H35.6992C35.543 60.7188 35.3027 61.002 34.9785 61.2363C34.6582 61.4707 34.25 61.5859 33.7539 61.582C33.3438 61.582 32.9805 61.4941 32.6641 61.3184C32.3477 61.1387 32.0977 60.8652 31.9141 60.498C31.7344 60.1309 31.6445 59.668 31.6445 59.1094V54.9492H32.6406V59.0508C32.6406 59.5234 32.7754 59.9023 33.0449 60.1875C33.3184 60.4727 33.6641 60.6133 34.082 60.6094C34.332 60.6094 34.5859 60.5469 34.8438 60.4219C35.1055 60.293 35.3242 60.0977 35.5 59.8359C35.6797 59.5703 35.7695 59.2344 35.7695 58.8281ZM38.0547 63.9492V54.9492H39.0156V55.9922H39.1328C39.207 55.8789 39.3105 55.7344 39.4434 55.5586C39.5762 55.3789 39.7676 55.2188 40.0176 55.0781C40.2676 54.9375 40.6055 54.8672 41.0312 54.8672C41.582 54.8672 42.0664 55.0059 42.4844 55.2832C42.9023 55.5566 43.2285 55.9473 43.4629 56.4551C43.7012 56.959 43.8203 57.5547 43.8203 58.2422C43.8203 58.9336 43.7031 59.5352 43.4688 60.0469C43.2344 60.5547 42.9082 60.9473 42.4902 61.2246C42.0723 61.502 41.5898 61.6406 41.043 61.6406C40.625 61.6406 40.2891 61.5703 40.0352 61.4297C39.7812 61.2852 39.5859 61.123 39.4492 60.9434C39.3125 60.7598 39.207 60.6094 39.1328 60.4922H39.0508V63.9492H38.0547ZM40.9141 60.7383C41.332 60.7383 41.6816 60.627 41.9629 60.4043C42.2441 60.1777 42.4551 59.875 42.5957 59.4961C42.7402 59.1172 42.8125 58.6953 42.8125 58.2305C42.8125 57.7695 42.7422 57.3535 42.6016 56.9824C42.4609 56.6113 42.25 56.3164 41.9688 56.0977C41.6914 55.8789 41.3398 55.7695 40.9141 55.7695C40.5039 55.7695 40.1602 55.873 39.8828 56.0801C39.6055 56.2832 39.3945 56.5703 39.25 56.9414C39.1094 57.3086 39.0391 57.7383 39.0391 58.2305C39.0391 58.7227 39.1113 59.1582 39.2559 59.5371C39.4004 59.9121 39.6113 60.207 39.8887 60.4219C40.1699 60.6328 40.5117 60.7383 40.9141 60.7383ZM47.4414 61.6406C46.832 61.6406 46.3047 61.4961 45.8594 61.207C45.418 60.9141 45.0762 60.5137 44.834 60.0059C44.5957 59.498 44.4766 58.918 44.4766 58.2656C44.4766 57.5977 44.5996 57.0098 44.8457 56.502C45.0918 55.9902 45.4355 55.5898 45.877 55.3008C46.3223 55.0117 46.8398 54.8672 47.4297 54.8672C47.8906 54.8672 48.3047 54.9531 48.6719 55.125C49.043 55.293 49.3457 55.5312 49.5801 55.8398C49.8184 56.1484 49.9648 56.5078 50.0195 56.918H49.0117C48.9609 56.7188 48.8691 56.5312 48.7363 56.3555C48.6035 56.1797 48.4277 56.0391 48.209 55.9336C47.9941 55.8242 47.7383 55.7695 47.4414 55.7695C47.0508 55.7695 46.709 55.8711 46.416 56.0742C46.123 56.2773 45.8945 56.5645 45.7305 56.9355C45.5664 57.3027 45.4844 57.7344 45.4844 58.2305C45.4844 58.7344 45.5645 59.1758 45.7246 59.5547C45.8848 59.9297 46.1113 60.2207 46.4043 60.4277C46.7012 60.6348 47.0469 60.7383 47.4414 60.7383C47.8359 60.7383 48.1738 60.6367 48.4551 60.4336C48.7363 60.2266 48.9219 59.9453 49.0117 59.5898H50.0195C49.9648 59.9766 49.8242 60.3242 49.5977 60.6328C49.375 60.9414 49.0801 61.1875 48.7129 61.3711C48.3496 61.5508 47.9258 61.6406 47.4414 61.6406ZM53.6172 61.6406C53.0273 61.6406 52.5098 61.5 52.0645 61.2188C51.6191 60.9375 51.2715 60.543 51.0215 60.0352C50.7754 59.5273 50.6523 58.9375 50.6523 58.2656C50.6523 57.582 50.7754 56.9863 51.0215 56.4785C51.2715 55.9668 51.6191 55.5703 52.0645 55.2891C52.5098 55.0078 53.0273 54.8672 53.6172 54.8672C54.2109 54.8672 54.7305 55.0078 55.1758 55.2891C55.6211 55.5703 55.9688 55.9668 56.2188 56.4785C56.4688 56.9863 56.5938 57.582 56.5938 58.2656C56.5938 58.9375 56.4688 59.5273 56.2188 60.0352C55.9688 60.543 55.6211 60.9375 55.1758 61.2188C54.7305 61.5 54.2109 61.6406 53.6172 61.6406ZM53.6172 60.7383C54.0703 60.7383 54.4414 60.623 54.7305 60.3926C55.0195 60.1621 55.2344 59.8594 55.375 59.4844C55.5156 59.1055 55.5859 58.6992 55.5859 58.2656C55.5859 57.8242 55.5156 57.4141 55.375 57.0352C55.2344 56.6562 55.0195 56.3516 54.7305 56.1211C54.4414 55.8867 54.0703 55.7695 53.6172 55.7695C53.1719 55.7695 52.8047 55.8867 52.5156 56.1211C52.2266 56.3516 52.0117 56.6562 51.8711 57.0352C51.7305 57.4141 51.6602 57.8242 51.6602 58.2656C51.6602 58.6992 51.7305 59.1055 51.8711 59.4844C52.0117 59.8594 52.2266 60.1621 52.5156 60.3926C52.8047 60.623 53.1719 60.7383 53.6172 60.7383ZM57.5664 61.5V54.9492H58.5273V55.9805H58.6211C58.7578 55.6289 58.9785 55.3555 59.2832 55.1602C59.5879 54.9648 59.9531 54.8672 60.3789 54.8672C60.8086 54.8672 61.166 54.9648 61.4512 55.1602C61.7402 55.3555 61.9648 55.6289 62.125 55.9805H62.1953C62.3672 55.6406 62.6191 55.3711 62.9512 55.1719C63.2871 54.9688 63.6875 54.8672 64.1523 54.8672C64.7383 54.8672 65.2188 55.0508 65.5938 55.418C65.9688 55.7812 66.1562 56.3477 66.1562 57.1172V61.5H65.1484V57.1172C65.1484 56.6328 65.0156 56.2871 64.75 56.0801C64.4844 55.873 64.1719 55.7695 63.8125 55.7695C63.3555 55.7695 63 55.9102 62.7461 56.1914C62.4961 56.4688 62.3711 56.8164 62.3711 57.2344V61.5H61.3398V57.0117C61.3398 56.6406 61.2207 56.3418 60.9824 56.1152C60.7441 55.8848 60.4336 55.7695 60.0508 55.7695C59.7891 55.7695 59.5449 55.8398 59.3184 55.9805C59.0918 56.1211 58.9082 56.3145 58.7676 56.5605C58.6309 56.8066 58.5625 57.0898 58.5625 57.4102V61.5H57.5664ZM67.4453 61.5V54.9492H68.4414V61.5H67.4453ZM67.9492 53.8594C67.7539 53.8594 67.5859 53.793 67.4453 53.6602C67.3047 53.5273 67.2344 53.3672 67.2344 53.1797C67.2344 52.9922 67.3047 52.832 67.4453 52.6992C67.5859 52.5664 67.7539 52.5 67.9492 52.5C68.1445 52.5 68.3125 52.5664 68.4531 52.6992C68.5938 52.832 68.6641 52.9922 68.6641 53.1797C68.6641 53.3672 68.5938 53.5273 68.4531 53.6602C68.3125 53.793 68.1445 53.8594 67.9492 53.8594ZM70.7266 57.5625V61.5H69.7305V54.9492H70.6914V55.9805H70.7852C70.9375 55.6445 71.1699 55.375 71.4824 55.1719C71.7949 54.9688 72.1992 54.8672 72.6953 54.8672C73.1367 54.8672 73.5234 54.957 73.8555 55.1367C74.1875 55.3164 74.4453 55.5898 74.6289 55.957C74.8164 56.3203 74.9102 56.7812 74.9102 57.3398V61.5H73.9141V57.4102C73.9141 56.8984 73.7793 56.498 73.5098 56.209C73.2402 55.916 72.873 55.7695 72.4082 55.7695C72.0879 55.7695 71.8008 55.8398 71.5469 55.9805C71.293 56.1211 71.0918 56.3242 70.9434 56.5898C70.7988 56.8555 70.7266 57.1797 70.7266 57.5625ZM78.8359 64.0898C78.1055 64.0898 77.5273 63.957 77.1016 63.6914C76.6797 63.4258 76.3672 63.1211 76.1641 62.7773L76.9609 62.2148C77.0508 62.3359 77.166 62.4727 77.3066 62.625C77.4473 62.7812 77.6387 62.916 77.8809 63.0293C78.123 63.1426 78.4414 63.1992 78.8359 63.1992C79.3633 63.1992 79.7988 63.0723 80.1426 62.8184C80.4902 62.5645 80.6641 62.1641 80.6641 61.6172V60.293H80.5703C80.5 60.4102 80.3965 60.5566 80.2598 60.7324C80.127 60.9043 79.9336 61.0586 79.6797 61.1953C79.4297 61.3281 79.0898 61.3945 78.6602 61.3945C78.1328 61.3945 77.6602 61.2695 77.2422 61.0195C76.8242 60.7695 76.4922 60.4062 76.2461 59.9297C76.0039 59.4531 75.8828 58.875 75.8828 58.1953C75.8828 57.5234 76 56.9395 76.2344 56.4434C76.4727 55.9434 76.8027 55.5566 77.2246 55.2832C77.6465 55.0059 78.1328 54.8672 78.6836 54.8672C79.1094 54.8672 79.4473 54.9375 79.6973 55.0781C79.9512 55.2188 80.1445 55.3789 80.2773 55.5586C80.4141 55.7344 80.5195 55.8789 80.5938 55.9922H80.6992V54.9492H81.6602V61.6875C81.6602 62.25 81.5332 62.707 81.2793 63.0586C81.0293 63.4141 80.6895 63.6738 80.2598 63.8379C79.834 64.0059 79.3594 64.0898 78.8359 64.0898ZM78.8008 60.4922C79.4062 60.4922 79.8691 60.2871 80.1895 59.877C80.5137 59.4668 80.6758 58.8984 80.6758 58.1719C80.6758 57.6992 80.6055 57.2832 80.4648 56.9238C80.3242 56.5645 80.1133 56.2832 79.832 56.0801C79.5547 55.873 79.2109 55.7695 78.8008 55.7695C78.375 55.7695 78.0195 55.8789 77.7344 56.0977C77.4531 56.3125 77.2422 56.6016 77.1016 56.9648C76.9609 57.3281 76.8906 57.7305 76.8906 58.1719C76.8906 58.625 76.9609 59.0273 77.1016 59.3789C77.2461 59.7266 77.4609 60 77.7461 60.1992C78.0312 60.3945 78.3828 60.4922 78.8008 60.4922Z" fill="#1A1A1C"/>
<path d="M35.7695 58.8281V54.9492H36.7656V61.5H35.7695V60.3867H35.6992C35.543 60.7188 35.3027 61.002 34.9785 61.2363C34.6582 61.4707 34.25 61.5859 33.7539 61.582C33.3438 61.582 32.9805 61.4941 32.6641 61.3184C32.3477 61.1387 32.0977 60.8652 31.9141 60.498C31.7344 60.1309 31.6445 59.668 31.6445 59.1094V54.9492H32.6406V59.0508C32.6406 59.5234 32.7754 59.9023 33.0449 60.1875C33.3184 60.4727 33.6641 60.6133 34.082 60.6094C34.332 60.6094 34.5859 60.5469 34.8438 60.4219C35.1055 60.293 35.3242 60.0977 35.5 59.8359C35.6797 59.5703 35.7695 59.2344 35.7695 58.8281ZM38.0547 63.9492V54.9492H39.0156V55.9922H39.1328C39.207 55.8789 39.3105 55.7344 39.4434 55.5586C39.5762 55.3789 39.7676 55.2188 40.0176 55.0781C40.2676 54.9375 40.6055 54.8672 41.0312 54.8672C41.582 54.8672 42.0664 55.0059 42.4844 55.2832C42.9023 55.5566 43.2285 55.9473 43.4629 56.4551C43.7012 56.959 43.8203 57.5547 43.8203 58.2422C43.8203 58.9336 43.7031 59.5352 43.4688 60.0469C43.2344 60.5547 42.9082 60.9473 42.4902 61.2246C42.0723 61.502 41.5898 61.6406 41.043 61.6406C40.625 61.6406 40.2891 61.5703 40.0352 61.4297C39.7812 61.2852 39.5859 61.123 39.4492 60.9434C39.3125 60.7598 39.207 60.6094 39.1328 60.4922H39.0508V63.9492H38.0547ZM40.9141 60.7383C41.332 60.7383 41.6816 60.627 41.9629 60.4043C42.2441 60.1777 42.4551 59.875 42.5957 59.4961C42.7402 59.1172 42.8125 58.6953 42.8125 58.2305C42.8125 57.7695 42.7422 57.3535 42.6016 56.9824C42.4609 56.6113 42.25 56.3164 41.9688 56.0977C41.6914 55.8789 41.3398 55.7695 40.9141 55.7695C40.5039 55.7695 40.1602 55.873 39.8828 56.0801C39.6055 56.2832 39.3945 56.5703 39.25 56.9414C39.1094 57.3086 39.0391 57.7383 39.0391 58.2305C39.0391 58.7227 39.1113 59.1582 39.2559 59.5371C39.4004 59.9121 39.6113 60.207 39.8887 60.4219C40.1699 60.6328 40.5117 60.7383 40.9141 60.7383ZM47.4414 61.6406C46.832 61.6406 46.3047 61.4961 45.8594 61.207C45.418 60.9141 45.0762 60.5137 44.834 60.0059C44.5957 59.498 44.4766 58.918 44.4766 58.2656C44.4766 57.5977 44.5996 57.0098 44.8457 56.502C45.0918 55.9902 45.4355 55.5898 45.877 55.3008C46.3223 55.0117 46.8398 54.8672 47.4297 54.8672C47.8906 54.8672 48.3047 54.9531 48.6719 55.125C49.043 55.293 49.3457 55.5312 49.5801 55.8398C49.8184 56.1484 49.9648 56.5078 50.0195 56.918H49.0117C48.9609 56.7188 48.8691 56.5312 48.7363 56.3555C48.6035 56.1797 48.4277 56.0391 48.209 55.9336C47.9941 55.8242 47.7383 55.7695 47.4414 55.7695C47.0508 55.7695 46.709 55.8711 46.416 56.0742C46.123 56.2773 45.8945 56.5645 45.7305 56.9355C45.5664 57.3027 45.4844 57.7344 45.4844 58.2305C45.4844 58.7344 45.5645 59.1758 45.7246 59.5547C45.8848 59.9297 46.1113 60.2207 46.4043 60.4277C46.7012 60.6348 47.0469 60.7383 47.4414 60.7383C47.8359 60.7383 48.1738 60.6367 48.4551 60.4336C48.7363 60.2266 48.9219 59.9453 49.0117 59.5898H50.0195C49.9648 59.9766 49.8242 60.3242 49.5977 60.6328C49.375 60.9414 49.0801 61.1875 48.7129 61.3711C48.3496 61.5508 47.9258 61.6406 47.4414 61.6406ZM53.6172 61.6406C53.0273 61.6406 52.5098 61.5 52.0645 61.2188C51.6191 60.9375 51.2715 60.543 51.0215 60.0352C50.7754 59.5273 50.6523 58.9375 50.6523 58.2656C50.6523 57.582 50.7754 56.9863 51.0215 56.4785C51.2715 55.9668 51.6191 55.5703 52.0645 55.2891C52.5098 55.0078 53.0273 54.8672 53.6172 54.8672C54.2109 54.8672 54.7305 55.0078 55.1758 55.2891C55.6211 55.5703 55.9688 55.9668 56.2188 56.4785C56.4688 56.9863 56.5938 57.582 56.5938 58.2656C56.5938 58.9375 56.4688 59.5273 56.2188 60.0352C55.9688 60.543 55.6211 60.9375 55.1758 61.2188C54.7305 61.5 54.2109 61.6406 53.6172 61.6406ZM53.6172 60.7383C54.0703 60.7383 54.4414 60.623 54.7305 60.3926C55.0195 60.1621 55.2344 59.8594 55.375 59.4844C55.5156 59.1055 55.5859 58.6992 55.5859 58.2656C55.5859 57.8242 55.5156 57.4141 55.375 57.0352C55.2344 56.6562 55.0195 56.3516 54.7305 56.1211C54.4414 55.8867 54.0703 55.7695 53.6172 55.7695C53.1719 55.7695 52.8047 55.8867 52.5156 56.1211C52.2266 56.3516 52.0117 56.6562 51.8711 57.0352C51.7305 57.4141 51.6602 57.8242 51.6602 58.2656C51.6602 58.6992 51.7305 59.1055 51.8711 59.4844C52.0117 59.8594 52.2266 60.1621 52.5156 60.3926C52.8047 60.623 53.1719 60.7383 53.6172 60.7383ZM57.5664 61.5V54.9492H58.5273V55.9805H58.6211C58.7578 55.6289 58.9785 55.3555 59.2832 55.1602C59.5879 54.9648 59.9531 54.8672 60.3789 54.8672C60.8086 54.8672 61.166 54.9648 61.4512 55.1602C61.7402 55.3555 61.9648 55.6289 62.125 55.9805H62.1953C62.3672 55.6406 62.6191 55.3711 62.9512 55.1719C63.2871 54.9688 63.6875 54.8672 64.1523 54.8672C64.7383 54.8672 65.2188 55.0508 65.5938 55.418C65.9688 55.7812 66.1562 56.3477 66.1562 57.1172V61.5H65.1484V57.1172C65.1484 56.6328 65.0156 56.2871 64.75 56.0801C64.4844 55.873 64.1719 55.7695 63.8125 55.7695C63.3555 55.7695 63 55.9102 62.7461 56.1914C62.4961 56.4688 62.3711 56.8164 62.3711 57.2344V61.5H61.3398V57.0117C61.3398 56.6406 61.2207 56.3418 60.9824 56.1152C60.7441 55.8848 60.4336 55.7695 60.0508 55.7695C59.7891 55.7695 59.5449 55.8398 59.3184 55.9805C59.0918 56.1211 58.9082 56.3145 58.7676 56.5605C58.6309 56.8066 58.5625 57.0898 58.5625 57.4102V61.5H57.5664ZM67.4453 61.5V54.9492H68.4414V61.5H67.4453ZM67.9492 53.8594C67.7539 53.8594 67.5859 53.793 67.4453 53.6602C67.3047 53.5273 67.2344 53.3672 67.2344 53.1797C67.2344 52.9922 67.3047 52.832 67.4453 52.6992C67.5859 52.5664 67.7539 52.5 67.9492 52.5C68.1445 52.5 68.3125 52.5664 68.4531 52.6992C68.5938 52.832 68.6641 52.9922 68.6641 53.1797C68.6641 53.3672 68.5938 53.5273 68.4531 53.6602C68.3125 53.793 68.1445 53.8594 67.9492 53.8594ZM70.7266 57.5625V61.5H69.7305V54.9492H70.6914V55.9805H70.7852C70.9375 55.6445 71.1699 55.375 71.4824 55.1719C71.7949 54.9688 72.1992 54.8672 72.6953 54.8672C73.1367 54.8672 73.5234 54.957 73.8555 55.1367C74.1875 55.3164 74.4453 55.5898 74.6289 55.957C74.8164 56.3203 74.9102 56.7812 74.9102 57.3398V61.5H73.9141V57.4102C73.9141 56.8984 73.7793 56.498 73.5098 56.209C73.2402 55.916 72.873 55.7695 72.4082 55.7695C72.0879 55.7695 71.8008 55.8398 71.5469 55.9805C71.293 56.1211 71.0918 56.3242 70.9434 56.5898C70.7988 56.8555 70.7266 57.1797 70.7266 57.5625ZM78.8359 64.0898C78.1055 64.0898 77.5273 63.957 77.1016 63.6914C76.6797 63.4258 76.3672 63.1211 76.1641 62.7773L76.9609 62.2148C77.0508 62.3359 77.166 62.4727 77.3066 62.625C77.4473 62.7812 77.6387 62.916 77.8809 63.0293C78.123 63.1426 78.4414 63.1992 78.8359 63.1992C79.3633 63.1992 79.7988 63.0723 80.1426 62.8184C80.4902 62.5645 80.6641 62.1641 80.6641 61.6172V60.293H80.5703C80.5 60.4102 80.3965 60.5566 80.2598 60.7324C80.127 60.9043 79.9336 61.0586 79.6797 61.1953C79.4297 61.3281 79.0898 61.3945 78.6602 61.3945C78.1328 61.3945 77.6602 61.2695 77.2422 61.0195C76.8242 60.7695 76.4922 60.4062 76.2461 59.9297C76.0039 59.4531 75.8828 58.875 75.8828 58.1953C75.8828 57.5234 76 56.9395 76.2344 56.4434C76.4727 55.9434 76.8027 55.5566 77.2246 55.2832C77.6465 55.0059 78.1328 54.8672 78.6836 54.8672C79.1094 54.8672 79.4473 54.9375 79.6973 55.0781C79.9512 55.2188 80.1445 55.3789 80.2773 55.5586C80.4141 55.7344 80.5195 55.8789 80.5938 55.9922H80.6992V54.9492H81.6602V61.6875C81.6602 62.25 81.5332 62.707 81.2793 63.0586C81.0293 63.4141 80.6895 63.6738 80.2598 63.8379C79.834 64.0059 79.3594 64.0898 78.8359 64.0898ZM78.8008 60.4922C79.4062 60.4922 79.8691 60.2871 80.1895 59.877C80.5137 59.4668 80.6758 58.8984 80.6758 58.1719C80.6758 57.6992 80.6055 57.2832 80.4648 56.9238C80.3242 56.5645 80.1133 56.2832 79.832 56.0801C79.5547 55.873 79.2109 55.7695 78.8008 55.7695C78.375 55.7695 78.0195 55.8789 77.7344 56.0977C77.4531 56.3125 77.2422 56.6016 77.1016 56.9648C76.9609 57.3281 76.8906 57.7305 76.8906 58.1719C76.8906 58.625 76.9609 59.0273 77.1016 59.3789C77.2461 59.7266 77.4609 60 77.7461 60.1992C78.0312 60.3945 78.3828 60.4922 78.8008 60.4922Z" fill="black" fill-opacity="0.2"/>
<path d="M35.7695 58.8281V54.9492H36.7656V61.5H35.7695V60.3867H35.6992C35.543 60.7188 35.3027 61.002 34.9785 61.2363C34.6582 61.4707 34.25 61.5859 33.7539 61.582C33.3438 61.582 32.9805 61.4941 32.6641 61.3184C32.3477 61.1387 32.0977 60.8652 31.9141 60.498C31.7344 60.1309 31.6445 59.668 31.6445 59.1094V54.9492H32.6406V59.0508C32.6406 59.5234 32.7754 59.9023 33.0449 60.1875C33.3184 60.4727 33.6641 60.6133 34.082 60.6094C34.332 60.6094 34.5859 60.5469 34.8438 60.4219C35.1055 60.293 35.3242 60.0977 35.5 59.8359C35.6797 59.5703 35.7695 59.2344 35.7695 58.8281ZM38.0547 63.9492V54.9492H39.0156V55.9922H39.1328C39.207 55.8789 39.3105 55.7344 39.4434 55.5586C39.5762 55.3789 39.7676 55.2188 40.0176 55.0781C40.2676 54.9375 40.6055 54.8672 41.0312 54.8672C41.582 54.8672 42.0664 55.0059 42.4844 55.2832C42.9023 55.5566 43.2285 55.9473 43.4629 56.4551C43.7012 56.959 43.8203 57.5547 43.8203 58.2422C43.8203 58.9336 43.7031 59.5352 43.4688 60.0469C43.2344 60.5547 42.9082 60.9473 42.4902 61.2246C42.0723 61.502 41.5898 61.6406 41.043 61.6406C40.625 61.6406 40.2891 61.5703 40.0352 61.4297C39.7812 61.2852 39.5859 61.123 39.4492 60.9434C39.3125 60.7598 39.207 60.6094 39.1328 60.4922H39.0508V63.9492H38.0547ZM40.9141 60.7383C41.332 60.7383 41.6816 60.627 41.9629 60.4043C42.2441 60.1777 42.4551 59.875 42.5957 59.4961C42.7402 59.1172 42.8125 58.6953 42.8125 58.2305C42.8125 57.7695 42.7422 57.3535 42.6016 56.9824C42.4609 56.6113 42.25 56.3164 41.9688 56.0977C41.6914 55.8789 41.3398 55.7695 40.9141 55.7695C40.5039 55.7695 40.1602 55.873 39.8828 56.0801C39.6055 56.2832 39.3945 56.5703 39.25 56.9414C39.1094 57.3086 39.0391 57.7383 39.0391 58.2305C39.0391 58.7227 39.1113 59.1582 39.2559 59.5371C39.4004 59.9121 39.6113 60.207 39.8887 60.4219C40.1699 60.6328 40.5117 60.7383 40.9141 60.7383ZM47.4414 61.6406C46.832 61.6406 46.3047 61.4961 45.8594 61.207C45.418 60.9141 45.0762 60.5137 44.834 60.0059C44.5957 59.498 44.4766 58.918 44.4766 58.2656C44.4766 57.5977 44.5996 57.0098 44.8457 56.502C45.0918 55.9902 45.4355 55.5898 45.877 55.3008C46.3223 55.0117 46.8398 54.8672 47.4297 54.8672C47.8906 54.8672 48.3047 54.9531 48.6719 55.125C49.043 55.293 49.3457 55.5312 49.5801 55.8398C49.8184 56.1484 49.9648 56.5078 50.0195 56.918H49.0117C48.9609 56.7188 48.8691 56.5312 48.7363 56.3555C48.6035 56.1797 48.4277 56.0391 48.209 55.9336C47.9941 55.8242 47.7383 55.7695 47.4414 55.7695C47.0508 55.7695 46.709 55.8711 46.416 56.0742C46.123 56.2773 45.8945 56.5645 45.7305 56.9355C45.5664 57.3027 45.4844 57.7344 45.4844 58.2305C45.4844 58.7344 45.5645 59.1758 45.7246 59.5547C45.8848 59.9297 46.1113 60.2207 46.4043 60.4277C46.7012 60.6348 47.0469 60.7383 47.4414 60.7383C47.8359 60.7383 48.1738 60.6367 48.4551 60.4336C48.7363 60.2266 48.9219 59.9453 49.0117 59.5898H50.0195C49.9648 59.9766 49.8242 60.3242 49.5977 60.6328C49.375 60.9414 49.0801 61.1875 48.7129 61.3711C48.3496 61.5508 47.9258 61.6406 47.4414 61.6406ZM53.6172 61.6406C53.0273 61.6406 52.5098 61.5 52.0645 61.2188C51.6191 60.9375 51.2715 60.543 51.0215 60.0352C50.7754 59.5273 50.6523 58.9375 50.6523 58.2656C50.6523 57.582 50.7754 56.9863 51.0215 56.4785C51.2715 55.9668 51.6191 55.5703 52.0645 55.2891C52.5098 55.0078 53.0273 54.8672 53.6172 54.8672C54.2109 54.8672 54.7305 55.0078 55.1758 55.2891C55.6211 55.5703 55.9688 55.9668 56.2188 56.4785C56.4688 56.9863 56.5938 57.582 56.5938 58.2656C56.5938 58.9375 56.4688 59.5273 56.2188 60.0352C55.9688 60.543 55.6211 60.9375 55.1758 61.2188C54.7305 61.5 54.2109 61.6406 53.6172 61.6406ZM53.6172 60.7383C54.0703 60.7383 54.4414 60.623 54.7305 60.3926C55.0195 60.1621 55.2344 59.8594 55.375 59.4844C55.5156 59.1055 55.5859 58.6992 55.5859 58.2656C55.5859 57.8242 55.5156 57.4141 55.375 57.0352C55.2344 56.6562 55.0195 56.3516 54.7305 56.1211C54.4414 55.8867 54.0703 55.7695 53.6172 55.7695C53.1719 55.7695 52.8047 55.8867 52.5156 56.1211C52.2266 56.3516 52.0117 56.6562 51.8711 57.0352C51.7305 57.4141 51.6602 57.8242 51.6602 58.2656C51.6602 58.6992 51.7305 59.1055 51.8711 59.4844C52.0117 59.8594 52.2266 60.1621 52.5156 60.3926C52.8047 60.623 53.1719 60.7383 53.6172 60.7383ZM57.5664 61.5V54.9492H58.5273V55.9805H58.6211C58.7578 55.6289 58.9785 55.3555 59.2832 55.1602C59.5879 54.9648 59.9531 54.8672 60.3789 54.8672C60.8086 54.8672 61.166 54.9648 61.4512 55.1602C61.7402 55.3555 61.9648 55.6289 62.125 55.9805H62.1953C62.3672 55.6406 62.6191 55.3711 62.9512 55.1719C63.2871 54.9688 63.6875 54.8672 64.1523 54.8672C64.7383 54.8672 65.2188 55.0508 65.5938 55.418C65.9688 55.7812 66.1562 56.3477 66.1562 57.1172V61.5H65.1484V57.1172C65.1484 56.6328 65.0156 56.2871 64.75 56.0801C64.4844 55.873 64.1719 55.7695 63.8125 55.7695C63.3555 55.7695 63 55.9102 62.7461 56.1914C62.4961 56.4688 62.3711 56.8164 62.3711 57.2344V61.5H61.3398V57.0117C61.3398 56.6406 61.2207 56.3418 60.9824 56.1152C60.7441 55.8848 60.4336 55.7695 60.0508 55.7695C59.7891 55.7695 59.5449 55.8398 59.3184 55.9805C59.0918 56.1211 58.9082 56.3145 58.7676 56.5605C58.6309 56.8066 58.5625 57.0898 58.5625 57.4102V61.5H57.5664ZM67.4453 61.5V54.9492H68.4414V61.5H67.4453ZM67.9492 53.8594C67.7539 53.8594 67.5859 53.793 67.4453 53.6602C67.3047 53.5273 67.2344 53.3672 67.2344 53.1797C67.2344 52.9922 67.3047 52.832 67.4453 52.6992C67.5859 52.5664 67.7539 52.5 67.9492 52.5C68.1445 52.5 68.3125 52.5664 68.4531 52.6992C68.5938 52.832 68.6641 52.9922 68.6641 53.1797C68.6641 53.3672 68.5938 53.5273 68.4531 53.6602C68.3125 53.793 68.1445 53.8594 67.9492 53.8594ZM70.7266 57.5625V61.5H69.7305V54.9492H70.6914V55.9805H70.7852C70.9375 55.6445 71.1699 55.375 71.4824 55.1719C71.7949 54.9688 72.1992 54.8672 72.6953 54.8672C73.1367 54.8672 73.5234 54.957 73.8555 55.1367C74.1875 55.3164 74.4453 55.5898 74.6289 55.957C74.8164 56.3203 74.9102 56.7812 74.9102 57.3398V61.5H73.9141V57.4102C73.9141 56.8984 73.7793 56.498 73.5098 56.209C73.2402 55.916 72.873 55.7695 72.4082 55.7695C72.0879 55.7695 71.8008 55.8398 71.5469 55.9805C71.293 56.1211 71.0918 56.3242 70.9434 56.5898C70.7988 56.8555 70.7266 57.1797 70.7266 57.5625ZM78.8359 64.0898C78.1055 64.0898 77.5273 63.957 77.1016 63.6914C76.6797 63.4258 76.3672 63.1211 76.1641 62.7773L76.9609 62.2148C77.0508 62.3359 77.166 62.4727 77.3066 62.625C77.4473 62.7812 77.6387 62.916 77.8809 63.0293C78.123 63.1426 78.4414 63.1992 78.8359 63.1992C79.3633 63.1992 79.7988 63.0723 80.1426 62.8184C80.4902 62.5645 80.6641 62.1641 80.6641 61.6172V60.293H80.5703C80.5 60.4102 80.3965 60.5566 80.2598 60.7324C80.127 60.9043 79.9336 61.0586 79.6797 61.1953C79.4297 61.3281 79.0898 61.3945 78.6602 61.3945C78.1328 61.3945 77.6602 61.2695 77.2422 61.0195C76.8242 60.7695 76.4922 60.4062 76.2461 59.9297C76.0039 59.4531 75.8828 58.875 75.8828 58.1953C75.8828 57.5234 76 56.9395 76.2344 56.4434C76.4727 55.9434 76.8027 55.5566 77.2246 55.2832C77.6465 55.0059 78.1328 54.8672 78.6836 54.8672C79.1094 54.8672 79.4473 54.9375 79.6973 55.0781C79.9512 55.2188 80.1445 55.3789 80.2773 55.5586C80.4141 55.7344 80.5195 55.8789 80.5938 55.9922H80.6992V54.9492H81.6602V61.6875C81.6602 62.25 81.5332 62.707 81.2793 63.0586C81.0293 63.4141 80.6895 63.6738 80.2598 63.8379C79.834 64.0059 79.3594 64.0898 78.8359 64.0898ZM78.8008 60.4922C79.4062 60.4922 79.8691 60.2871 80.1895 59.877C80.5137 59.4668 80.6758 58.8984 80.6758 58.1719C80.6758 57.6992 80.6055 57.2832 80.4648 56.9238C80.3242 56.5645 80.1133 56.2832 79.832 56.0801C79.5547 55.873 79.2109 55.7695 78.8008 55.7695C78.375 55.7695 78.0195 55.8789 77.7344 56.0977C77.4531 56.3125 77.2422 56.6016 77.1016 56.9648C76.9609 57.3281 76.8906 57.7305 76.8906 58.1719C76.8906 58.625 76.9609 59.0273 77.1016 59.3789C77.2461 59.7266 77.4609 60 77.7461 60.1992C78.0312 60.3945 78.3828 60.4922 78.8008 60.4922Z" fill="black" fill-opacity="0.2"/>
<path d="M35.7695 58.8281V54.9492H36.7656V61.5H35.7695V60.3867H35.6992C35.543 60.7188 35.3027 61.002 34.9785 61.2363C34.6582 61.4707 34.25 61.5859 33.7539 61.582C33.3438 61.582 32.9805 61.4941 32.6641 61.3184C32.3477 61.1387 32.0977 60.8652 31.9141 60.498C31.7344 60.1309 31.6445 59.668 31.6445 59.1094V54.9492H32.6406V59.0508C32.6406 59.5234 32.7754 59.9023 33.0449 60.1875C33.3184 60.4727 33.6641 60.6133 34.082 60.6094C34.332 60.6094 34.5859 60.5469 34.8438 60.4219C35.1055 60.293 35.3242 60.0977 35.5 59.8359C35.6797 59.5703 35.7695 59.2344 35.7695 58.8281ZM38.0547 63.9492V54.9492H39.0156V55.9922H39.1328C39.207 55.8789 39.3105 55.7344 39.4434 55.5586C39.5762 55.3789 39.7676 55.2188 40.0176 55.0781C40.2676 54.9375 40.6055 54.8672 41.0312 54.8672C41.582 54.8672 42.0664 55.0059 42.4844 55.2832C42.9023 55.5566 43.2285 55.9473 43.4629 56.4551C43.7012 56.959 43.8203 57.5547 43.8203 58.2422C43.8203 58.9336 43.7031 59.5352 43.4688 60.0469C43.2344 60.5547 42.9082 60.9473 42.4902 61.2246C42.0723 61.502 41.5898 61.6406 41.043 61.6406C40.625 61.6406 40.2891 61.5703 40.0352 61.4297C39.7812 61.2852 39.5859 61.123 39.4492 60.9434C39.3125 60.7598 39.207 60.6094 39.1328 60.4922H39.0508V63.9492H38.0547ZM40.9141 60.7383C41.332 60.7383 41.6816 60.627 41.9629 60.4043C42.2441 60.1777 42.4551 59.875 42.5957 59.4961C42.7402 59.1172 42.8125 58.6953 42.8125 58.2305C42.8125 57.7695 42.7422 57.3535 42.6016 56.9824C42.4609 56.6113 42.25 56.3164 41.9688 56.0977C41.6914 55.8789 41.3398 55.7695 40.9141 55.7695C40.5039 55.7695 40.1602 55.873 39.8828 56.0801C39.6055 56.2832 39.3945 56.5703 39.25 56.9414C39.1094 57.3086 39.0391 57.7383 39.0391 58.2305C39.0391 58.7227 39.1113 59.1582 39.2559 59.5371C39.4004 59.9121 39.6113 60.207 39.8887 60.4219C40.1699 60.6328 40.5117 60.7383 40.9141 60.7383ZM47.4414 61.6406C46.832 61.6406 46.3047 61.4961 45.8594 61.207C45.418 60.9141 45.0762 60.5137 44.834 60.0059C44.5957 59.498 44.4766 58.918 44.4766 58.2656C44.4766 57.5977 44.5996 57.0098 44.8457 56.502C45.0918 55.9902 45.4355 55.5898 45.877 55.3008C46.3223 55.0117 46.8398 54.8672 47.4297 54.8672C47.8906 54.8672 48.3047 54.9531 48.6719 55.125C49.043 55.293 49.3457 55.5312 49.5801 55.8398C49.8184 56.1484 49.9648 56.5078 50.0195 56.918H49.0117C48.9609 56.7188 48.8691 56.5312 48.7363 56.3555C48.6035 56.1797 48.4277 56.0391 48.209 55.9336C47.9941 55.8242 47.7383 55.7695 47.4414 55.7695C47.0508 55.7695 46.709 55.8711 46.416 56.0742C46.123 56.2773 45.8945 56.5645 45.7305 56.9355C45.5664 57.3027 45.4844 57.7344 45.4844 58.2305C45.4844 58.7344 45.5645 59.1758 45.7246 59.5547C45.8848 59.9297 46.1113 60.2207 46.4043 60.4277C46.7012 60.6348 47.0469 60.7383 47.4414 60.7383C47.8359 60.7383 48.1738 60.6367 48.4551 60.4336C48.7363 60.2266 48.9219 59.9453 49.0117 59.5898H50.0195C49.9648 59.9766 49.8242 60.3242 49.5977 60.6328C49.375 60.9414 49.0801 61.1875 48.7129 61.3711C48.3496 61.5508 47.9258 61.6406 47.4414 61.6406ZM53.6172 61.6406C53.0273 61.6406 52.5098 61.5 52.0645 61.2188C51.6191 60.9375 51.2715 60.543 51.0215 60.0352C50.7754 59.5273 50.6523 58.9375 50.6523 58.2656C50.6523 57.582 50.7754 56.9863 51.0215 56.4785C51.2715 55.9668 51.6191 55.5703 52.0645 55.2891C52.5098 55.0078 53.0273 54.8672 53.6172 54.8672C54.2109 54.8672 54.7305 55.0078 55.1758 55.2891C55.6211 55.5703 55.9688 55.9668 56.2188 56.4785C56.4688 56.9863 56.5938 57.582 56.5938 58.2656C56.5938 58.9375 56.4688 59.5273 56.2188 60.0352C55.9688 60.543 55.6211 60.9375 55.1758 61.2188C54.7305 61.5 54.2109 61.6406 53.6172 61.6406ZM53.6172 60.7383C54.0703 60.7383 54.4414 60.623 54.7305 60.3926C55.0195 60.1621 55.2344 59.8594 55.375 59.4844C55.5156 59.1055 55.5859 58.6992 55.5859 58.2656C55.5859 57.8242 55.5156 57.4141 55.375 57.0352C55.2344 56.6562 55.0195 56.3516 54.7305 56.1211C54.4414 55.8867 54.0703 55.7695 53.6172 55.7695C53.1719 55.7695 52.8047 55.8867 52.5156 56.1211C52.2266 56.3516 52.0117 56.6562 51.8711 57.0352C51.7305 57.4141 51.6602 57.8242 51.6602 58.2656C51.6602 58.6992 51.7305 59.1055 51.8711 59.4844C52.0117 59.8594 52.2266 60.1621 52.5156 60.3926C52.8047 60.623 53.1719 60.7383 53.6172 60.7383ZM57.5664 61.5V54.9492H58.5273V55.9805H58.6211C58.7578 55.6289 58.9785 55.3555 59.2832 55.1602C59.5879 54.9648 59.9531 54.8672 60.3789 54.8672C60.8086 54.8672 61.166 54.9648 61.4512 55.1602C61.7402 55.3555 61.9648 55.6289 62.125 55.9805H62.1953C62.3672 55.6406 62.6191 55.3711 62.9512 55.1719C63.2871 54.9688 63.6875 54.8672 64.1523 54.8672C64.7383 54.8672 65.2188 55.0508 65.5938 55.418C65.9688 55.7812 66.1562 56.3477 66.1562 57.1172V61.5H65.1484V57.1172C65.1484 56.6328 65.0156 56.2871 64.75 56.0801C64.4844 55.873 64.1719 55.7695 63.8125 55.7695C63.3555 55.7695 63 55.9102 62.7461 56.1914C62.4961 56.4688 62.3711 56.8164 62.3711 57.2344V61.5H61.3398V57.0117C61.3398 56.6406 61.2207 56.3418 60.9824 56.1152C60.7441 55.8848 60.4336 55.7695 60.0508 55.7695C59.7891 55.7695 59.5449 55.8398 59.3184 55.9805C59.0918 56.1211 58.9082 56.3145 58.7676 56.5605C58.6309 56.8066 58.5625 57.0898 58.5625 57.4102V61.5H57.5664ZM67.4453 61.5V54.9492H68.4414V61.5H67.4453ZM67.9492 53.8594C67.7539 53.8594 67.5859 53.793 67.4453 53.6602C67.3047 53.5273 67.2344 53.3672 67.2344 53.1797C67.2344 52.9922 67.3047 52.832 67.4453 52.6992C67.5859 52.5664 67.7539 52.5 67.9492 52.5C68.1445 52.5 68.3125 52.5664 68.4531 52.6992C68.5938 52.832 68.6641 52.9922 68.6641 53.1797C68.6641 53.3672 68.5938 53.5273 68.4531 53.6602C68.3125 53.793 68.1445 53.8594 67.9492 53.8594ZM70.7266 57.5625V61.5H69.7305V54.9492H70.6914V55.9805H70.7852C70.9375 55.6445 71.1699 55.375 71.4824 55.1719C71.7949 54.9688 72.1992 54.8672 72.6953 54.8672C73.1367 54.8672 73.5234 54.957 73.8555 55.1367C74.1875 55.3164 74.4453 55.5898 74.6289 55.957C74.8164 56.3203 74.9102 56.7812 74.9102 57.3398V61.5H73.9141V57.4102C73.9141 56.8984 73.7793 56.498 73.5098 56.209C73.2402 55.916 72.873 55.7695 72.4082 55.7695C72.0879 55.7695 71.8008 55.8398 71.5469 55.9805C71.293 56.1211 71.0918 56.3242 70.9434 56.5898C70.7988 56.8555 70.7266 57.1797 70.7266 57.5625ZM78.8359 64.0898C78.1055 64.0898 77.5273 63.957 77.1016 63.6914C76.6797 63.4258 76.3672 63.1211 76.1641 62.7773L76.9609 62.2148C77.0508 62.3359 77.166 62.4727 77.3066 62.625C77.4473 62.7812 77.6387 62.916 77.8809 63.0293C78.123 63.1426 78.4414 63.1992 78.8359 63.1992C79.3633 63.1992 79.7988 63.0723 80.1426 62.8184C80.4902 62.5645 80.6641 62.1641 80.6641 61.6172V60.293H80.5703C80.5 60.4102 80.3965 60.5566 80.2598 60.7324C80.127 60.9043 79.9336 61.0586 79.6797 61.1953C79.4297 61.3281 79.0898 61.3945 78.6602 61.3945C78.1328 61.3945 77.6602 61.2695 77.2422 61.0195C76.8242 60.7695 76.4922 60.4062 76.2461 59.9297C76.0039 59.4531 75.8828 58.875 75.8828 58.1953C75.8828 57.5234 76 56.9395 76.2344 56.4434C76.4727 55.9434 76.8027 55.5566 77.2246 55.2832C77.6465 55.0059 78.1328 54.8672 78.6836 54.8672C79.1094 54.8672 79.4473 54.9375 79.6973 55.0781C79.9512 55.2188 80.1445 55.3789 80.2773 55.5586C80.4141 55.7344 80.5195 55.8789 80.5938 55.9922H80.6992V54.9492H81.6602V61.6875C81.6602 62.25 81.5332 62.707 81.2793 63.0586C81.0293 63.4141 80.6895 63.6738 80.2598 63.8379C79.834 64.0059 79.3594 64.0898 78.8359 64.0898ZM78.8008 60.4922C79.4062 60.4922 79.8691 60.2871 80.1895 59.877C80.5137 59.4668 80.6758 58.8984 80.6758 58.1719C80.6758 57.6992 80.6055 57.2832 80.4648 56.9238C80.3242 56.5645 80.1133 56.2832 79.832 56.0801C79.5547 55.873 79.2109 55.7695 78.8008 55.7695C78.375 55.7695 78.0195 55.8789 77.7344 56.0977C77.4531 56.3125 77.2422 56.6016 77.1016 56.9648C76.9609 57.3281 76.8906 57.7305 76.8906 58.1719C76.8906 58.625 76.9609 59.0273 77.1016 59.3789C77.2461 59.7266 77.4609 60 77.7461 60.1992C78.0312 60.3945 78.3828 60.4922 78.8008 60.4922Z" fill="black" fill-opacity="0.2"/>
<path d="M110.469 61.5H108.371V60.5625H110.398C111.121 60.5625 111.719 60.4238 112.191 60.1465C112.668 59.8691 113.023 59.4727 113.258 58.957C113.492 58.4414 113.609 57.8281 113.609 57.1172C113.609 56.4141 113.494 55.8086 113.264 55.3008C113.033 54.7891 112.688 54.3965 112.227 54.123C111.77 53.8457 111.199 53.707 110.516 53.707H108.324V52.7695H110.586C111.434 52.7695 112.158 52.9434 112.76 53.291C113.365 53.6387 113.828 54.1387 114.148 54.791C114.469 55.4395 114.629 56.2148 114.629 57.1172C114.629 58.0273 114.467 58.8105 114.143 59.4668C113.818 60.1191 113.346 60.6211 112.725 60.9727C112.107 61.3242 111.355 61.5 110.469 61.5ZM108.828 52.7695V61.5H107.773V52.7695H108.828ZM117.629 61.6523C117.215 61.6523 116.838 61.5742 116.498 61.418C116.158 61.2578 115.889 61.0273 115.689 60.7266C115.49 60.4258 115.391 60.0625 115.391 59.6367C115.391 59.2617 115.465 58.959 115.613 58.7285C115.762 58.4941 115.959 58.3105 116.205 58.1777C116.455 58.041 116.729 57.9395 117.025 57.873C117.326 57.8066 117.629 57.7539 117.934 57.7148C118.332 57.6641 118.654 57.625 118.9 57.5977C119.15 57.5703 119.332 57.5234 119.445 57.457C119.562 57.3906 119.621 57.2773 119.621 57.1172V57.082C119.621 56.6641 119.506 56.3398 119.275 56.1094C119.049 55.875 118.703 55.7578 118.238 55.7578C117.762 55.7578 117.387 55.8633 117.113 56.0742C116.84 56.2812 116.648 56.5039 116.539 56.7422L115.578 56.4023C115.75 56.0039 115.979 55.6934 116.264 55.4707C116.553 55.248 116.865 55.0918 117.201 55.002C117.541 54.9121 117.875 54.8672 118.203 54.8672C118.414 54.8672 118.656 54.8926 118.93 54.9434C119.203 54.9902 119.469 55.0918 119.727 55.248C119.988 55.4004 120.203 55.6328 120.371 55.9453C120.543 56.2539 120.629 56.668 120.629 57.1875V61.5H119.621V60.6094H119.574C119.508 60.75 119.395 60.9023 119.234 61.0664C119.074 61.2266 118.861 61.3652 118.596 61.4824C118.334 61.5957 118.012 61.6523 117.629 61.6523ZM117.781 60.75C118.18 60.75 118.516 60.6719 118.789 60.5156C119.062 60.3594 119.27 60.1582 119.41 59.9121C119.551 59.6621 119.621 59.4023 119.621 59.1328V58.207C119.578 58.2578 119.484 58.3047 119.34 58.3477C119.199 58.3867 119.035 58.4219 118.848 58.4531C118.664 58.4844 118.484 58.5117 118.309 58.5352C118.133 58.5547 117.992 58.5703 117.887 58.582C117.625 58.6172 117.381 58.6738 117.154 58.752C116.928 58.8262 116.744 58.9375 116.604 59.0859C116.467 59.2344 116.398 59.4375 116.398 59.6953C116.398 60.043 116.527 60.3066 116.785 60.4863C117.047 60.6621 117.379 60.75 117.781 60.75ZM122.328 63.9492C122.156 63.9531 122.004 63.9414 121.871 63.9141C121.738 63.8867 121.645 63.8594 121.59 63.832L121.848 62.9531L121.947 62.9766C122.283 63.0547 122.564 63.0371 122.791 62.9238C123.021 62.8145 123.223 62.5234 123.395 62.0508L123.582 61.5352L121.168 54.9492H122.258L124.062 60.1758H124.133L125.938 54.9492H127.027L124.25 62.4492C124.125 62.7891 123.971 63.0703 123.787 63.293C123.604 63.5156 123.391 63.6797 123.148 63.7852C122.906 63.8945 122.633 63.9492 122.328 63.9492Z" fill="#FCFCFC"/>
<path d="M146.121 61.5L144.129 54.9492H145.184L146.602 59.9648H146.672L148.066 54.9492H149.145L150.516 59.9531H150.586L152.004 54.9492H153.059L151.066 61.5H150.082L148.641 56.4727H148.547L147.105 61.5H146.121ZM156.352 61.6406C155.723 61.6406 155.178 61.5 154.717 61.2188C154.26 60.9375 153.908 60.5449 153.662 60.041C153.416 59.5332 153.293 58.9453 153.293 58.2773C153.293 57.6055 153.414 57.0137 153.656 56.502C153.898 55.9902 154.238 55.5898 154.676 55.3008C155.117 55.0117 155.633 54.8672 156.223 54.8672C156.562 54.8672 156.9 54.9238 157.236 55.0371C157.572 55.1504 157.877 55.334 158.15 55.5879C158.428 55.8418 158.648 56.1777 158.812 56.5957C158.977 57.0137 159.059 57.5273 159.059 58.1367V58.5703H154.008V57.7031H158.514L158.051 58.0312C158.051 57.5938 157.982 57.2051 157.846 56.8652C157.709 56.5254 157.504 56.2578 157.23 56.0625C156.961 55.8672 156.625 55.7695 156.223 55.7695C155.82 55.7695 155.475 55.8691 155.186 56.0684C154.9 56.2637 154.682 56.5195 154.529 56.8359C154.377 57.1523 154.301 57.4922 154.301 57.8555V58.4297C154.301 58.9258 154.387 59.3457 154.559 59.6895C154.73 60.0332 154.971 60.2949 155.279 60.4746C155.588 60.6504 155.945 60.7383 156.352 60.7383C156.613 60.7383 156.852 60.7012 157.066 60.627C157.281 60.5488 157.467 60.4336 157.623 60.2812C157.779 60.125 157.898 59.9336 157.98 59.707L158.953 59.9883C158.852 60.3164 158.68 60.6055 158.438 60.8555C158.199 61.1016 157.902 61.2949 157.547 61.4355C157.191 61.5723 156.793 61.6406 156.352 61.6406ZM161.93 61.6523C161.516 61.6523 161.139 61.5742 160.799 61.418C160.459 61.2578 160.189 61.0273 159.99 60.7266C159.791 60.4258 159.691 60.0625 159.691 59.6367C159.691 59.2617 159.766 58.959 159.914 58.7285C160.062 58.4941 160.26 58.3105 160.506 58.1777C160.756 58.041 161.029 57.9395 161.326 57.873C161.627 57.8066 161.93 57.7539 162.234 57.7148C162.633 57.6641 162.955 57.625 163.201 57.5977C163.451 57.5703 163.633 57.5234 163.746 57.457C163.863 57.3906 163.922 57.2773 163.922 57.1172V57.082C163.922 56.6641 163.807 56.3398 163.576 56.1094C163.35 55.875 163.004 55.7578 162.539 55.7578C162.062 55.7578 161.688 55.8633 161.414 56.0742C161.141 56.2812 160.949 56.5039 160.84 56.7422L159.879 56.4023C160.051 56.0039 160.279 55.6934 160.564 55.4707C160.854 55.248 161.166 55.0918 161.502 55.002C161.842 54.9121 162.176 54.8672 162.504 54.8672C162.715 54.8672 162.957 54.8926 163.23 54.9434C163.504 54.9902 163.77 55.0918 164.027 55.248C164.289 55.4004 164.504 55.6328 164.672 55.9453C164.844 56.2539 164.93 56.668 164.93 57.1875V61.5H163.922V60.6094H163.875C163.809 60.75 163.695 60.9023 163.535 61.0664C163.375 61.2266 163.162 61.3652 162.896 61.4824C162.635 61.5957 162.312 61.6523 161.93 61.6523ZM162.082 60.75C162.48 60.75 162.816 60.6719 163.09 60.5156C163.363 60.3594 163.57 60.1582 163.711 59.9121C163.852 59.6621 163.922 59.4023 163.922 59.1328V58.207C163.879 58.2578 163.785 58.3047 163.641 58.3477C163.5 58.3867 163.336 58.4219 163.148 58.4531C162.965 58.4844 162.785 58.5117 162.609 58.5352C162.434 58.5547 162.293 58.5703 162.188 58.582C161.926 58.6172 161.682 58.6738 161.455 58.752C161.229 58.8262 161.045 58.9375 160.904 59.0859C160.768 59.2344 160.699 59.4375 160.699 59.6953C160.699 60.043 160.828 60.3066 161.086 60.4863C161.348 60.6621 161.68 60.75 162.082 60.75ZM167.156 59.1094L167.133 57.8672H167.344L170.203 54.9492H171.445L168.398 58.043H168.305L167.156 59.1094ZM166.219 61.5V52.7695H167.215V61.5H166.219ZM170.367 61.5L167.812 58.2656L168.527 57.5625L171.656 61.5H170.367Z" fill="#FCFCFC"/>
<path d="M188.773 52.7695H190.039L193.004 60.0117H193.109L196.074 52.7695H197.381V61.5H196.344V54.8672H196.262L193.514 61.5H192.564L189.852 54.8672H189.77V61.5H188.773V52.7695ZM201.453 61.6406C200.863 61.6406 200.346 61.5 199.9 61.2188C199.455 60.9375 199.107 60.543 198.857 60.0352C198.611 59.5273 198.488 58.9375 198.488 58.2656C198.488 57.582 198.611 56.9863 198.857 56.4785C199.107 55.9668 199.455 55.5703 199.9 55.2891C200.346 55.0078 200.863 54.8672 201.453 54.8672C202.047 54.8672 202.566 55.0078 203.012 55.2891C203.457 55.5703 203.805 55.9668 204.055 56.4785C204.305 56.9863 204.43 57.582 204.43 58.2656C204.43 58.9375 204.305 59.5273 204.055 60.0352C203.805 60.543 203.457 60.9375 203.012 61.2188C202.566 61.5 202.047 61.6406 201.453 61.6406ZM201.453 60.7383C201.906 60.7383 202.277 60.623 202.566 60.3926C202.855 60.1621 203.07 59.8594 203.211 59.4844C203.352 59.1055 203.422 58.6992 203.422 58.2656C203.422 57.8242 203.352 57.4141 203.211 57.0352C203.07 56.6562 202.855 56.3516 202.566 56.1211C202.277 55.8867 201.906 55.7695 201.453 55.7695C201.008 55.7695 200.641 55.8867 200.352 56.1211C200.062 56.3516 199.848 56.6562 199.707 57.0352C199.566 57.4141 199.496 57.8242 199.496 58.2656C199.496 58.6992 199.566 59.1055 199.707 59.4844C199.848 59.8594 200.062 60.1621 200.352 60.3926C200.641 60.623 201.008 60.7383 201.453 60.7383ZM206.398 57.5625V61.5H205.402V54.9492H206.363V55.9805H206.457C206.609 55.6445 206.842 55.375 207.154 55.1719C207.467 54.9688 207.871 54.8672 208.367 54.8672C208.809 54.8672 209.195 54.957 209.527 55.1367C209.859 55.3164 210.117 55.5898 210.301 55.957C210.488 56.3203 210.582 56.7812 210.582 57.3398V61.5H209.586V57.4102C209.586 56.8984 209.451 56.498 209.182 56.209C208.912 55.916 208.545 55.7695 208.08 55.7695C207.76 55.7695 207.473 55.8398 207.219 55.9805C206.965 56.1211 206.764 56.3242 206.615 56.5898C206.471 56.8555 206.398 57.1797 206.398 57.5625ZM214.707 54.9492V55.8047H211.32V54.9492H214.707ZM212.305 53.3906H213.301V59.625C213.301 59.9648 213.371 60.2148 213.512 60.375C213.652 60.5312 213.875 60.6094 214.18 60.6094C214.246 60.6094 214.314 60.6055 214.385 60.5977C214.459 60.5898 214.539 60.5781 214.625 60.5625L214.836 61.4648C214.742 61.5 214.627 61.5273 214.49 61.5469C214.357 61.5703 214.223 61.582 214.086 61.582C213.559 61.582 213.129 61.4258 212.797 61.1133C212.469 60.8008 212.305 60.3945 212.305 59.8945V53.3906ZM216.805 57.5625V61.5H215.809V52.7695H216.805V55.9805H216.898C217.051 55.6406 217.279 55.3711 217.584 55.1719C217.893 54.9688 218.305 54.8672 218.82 54.8672C219.266 54.8672 219.656 54.957 219.992 55.1367C220.328 55.3125 220.59 55.584 220.777 55.9512C220.965 56.3145 221.059 56.7773 221.059 57.3398V61.5H220.051V57.4102C220.051 56.8867 219.916 56.4824 219.646 56.1973C219.377 55.9121 219.004 55.7695 218.527 55.7695C218.195 55.7695 217.9 55.8398 217.643 55.9805C217.385 56.1211 217.18 56.3242 217.027 56.5898C216.879 56.8555 216.805 57.1797 216.805 57.5625Z" fill="#FCFCFC"/>
<path d="M16 195.5L16 161.214C16 156.796 19.5817 153.214 24 153.214C28.4183 153.214 32 156.796 32 161.214L32 195.5L16 195.5Z" fill="url(#paint0_linear_711_11280)"/>
<path d="M50.1641 195.5L50.1641 173.786C50.1641 169.367 53.7458 165.786 58.1641 165.786C62.5823 165.786 66.1641 169.367 66.1641 173.786L66.1641 195.5L50.1641 195.5Z" fill="url(#paint1_linear_711_11280)"/>
<path d="M84.3359 195.5L84.3359 145.214C84.3359 140.796 87.9177 137.214 92.3359 137.214C96.7542 137.214 100.336 140.796 100.336 145.214L100.336 195.5L84.3359 195.5Z" fill="url(#paint2_linear_711_11280)"/>
<path d="M118.5 195.5L118.5 166.929C118.5 162.51 122.082 158.929 126.5 158.929C130.918 158.929 134.5 162.51 134.5 166.929L134.5 195.5L118.5 195.5Z" fill="url(#paint3_linear_711_11280)"/>
<path d="M152.664 195.5L152.664 154.357C152.664 149.939 156.246 146.357 160.664 146.357C165.082 146.357 168.664 149.939 168.664 154.357L168.664 195.5L152.664 195.5Z" fill="url(#paint4_linear_711_11280)"/>
<path d="M186.836 195.5L186.836 139.5C186.836 135.082 190.418 131.5 194.836 131.5C199.254 131.5 202.836 135.082 202.836 139.5L202.836 195.5L186.836 195.5Z" fill="url(#paint5_linear_711_11280)"/>
<path d="M221 195.5L221 186.357C221 181.939 224.582 178.357 229 178.357C233.418 178.357 237 181.939 237 186.357L237 195.5L221 195.5Z" fill="url(#paint6_linear_711_11280)"/>
<path d="M24.1712 211.644C23.6112 211.644 23.0912 211.54 22.6112 211.332C22.1312 211.116 21.7232 210.824 21.3872 210.456C21.0512 210.088 20.8032 209.664 20.6432 209.184L21.8432 208.68C22.0592 209.232 22.3752 209.656 22.7912 209.952C23.2072 210.248 23.6872 210.396 24.2312 210.396C24.5512 210.396 24.8312 210.348 25.0712 210.252C25.3112 210.148 25.4952 210.004 25.6232 209.82C25.7592 209.636 25.8272 209.424 25.8272 209.184C25.8272 208.856 25.7352 208.596 25.5512 208.404C25.3672 208.212 25.0952 208.06 24.7352 207.948L23.0552 207.42C22.3832 207.212 21.8712 206.896 21.5192 206.472C21.1672 206.04 20.9912 205.536 20.9912 204.96C20.9912 204.456 21.1152 204.016 21.3632 203.64C21.6112 203.256 21.9512 202.956 22.3832 202.74C22.8232 202.524 23.3232 202.416 23.8832 202.416C24.4192 202.416 24.9072 202.512 25.3472 202.704C25.7872 202.888 26.1632 203.144 26.4752 203.472C26.7952 203.8 27.0272 204.18 27.1712 204.612L25.9952 205.128C25.8192 204.656 25.5432 204.292 25.1672 204.036C24.7992 203.78 24.3712 203.652 23.8832 203.652C23.5872 203.652 23.3272 203.704 23.1032 203.808C22.8792 203.904 22.7032 204.048 22.5752 204.24C22.4552 204.424 22.3952 204.64 22.3952 204.888C22.3952 205.176 22.4872 205.432 22.6712 205.656C22.8552 205.88 23.1352 206.048 23.5112 206.16L25.0712 206.652C25.7832 206.868 26.3192 207.18 26.6792 207.588C27.0392 207.988 27.2192 208.488 27.2192 209.088C27.2192 209.584 27.0872 210.024 26.8232 210.408C26.5672 210.792 26.2112 211.096 25.7552 211.32C25.2992 211.536 24.7712 211.644 24.1712 211.644Z" fill="#FCFCFC"/>
<path d="M54.3439 211.5V202.56H55.6639L59.0239 207.216H58.3639L61.6639 202.56H62.9839V211.5H61.5799V204.228L62.1079 204.372L58.7359 208.98H58.5919L55.2919 204.372L55.7599 204.228V211.5H54.3439Z" fill="#FCFCFC"/>
<path d="M92.1506 211.5V203.82H89.7746V202.56H95.8946V203.82H93.5546V211.5H92.1506Z" fill="#FCFCFC"/>
<path d="M124.545 211.5L122.085 202.56H123.585L125.577 210.3H125.205L127.269 202.56H128.745L130.809 210.3H130.425L132.429 202.56H133.917L131.469 211.5H129.873L127.797 203.88H128.217L126.129 211.5H124.545Z" fill="#FCFCFC"/>
<path d="M162.479 211.5V203.82H160.103V202.56H166.223V203.82H163.883V211.5H162.479Z" fill="#FCFCFC"/>
<path d="M193.256 211.5V202.56H199.076V203.82H194.672V206.508H198.596V207.768H194.672V211.5H193.256Z" fill="#FCFCFC"/>
<path d="M229.171 211.644C228.611 211.644 228.091 211.54 227.611 211.332C227.131 211.116 226.723 210.824 226.387 210.456C226.051 210.088 225.803 209.664 225.643 209.184L226.843 208.68C227.059 209.232 227.375 209.656 227.791 209.952C228.207 210.248 228.687 210.396 229.231 210.396C229.551 210.396 229.831 210.348 230.071 210.252C230.311 210.148 230.495 210.004 230.623 209.82C230.759 209.636 230.827 209.424 230.827 209.184C230.827 208.856 230.735 208.596 230.551 208.404C230.367 208.212 230.095 208.06 229.735 207.948L228.055 207.42C227.383 207.212 226.871 206.896 226.519 206.472C226.167 206.04 225.991 205.536 225.991 204.96C225.991 204.456 226.115 204.016 226.363 203.64C226.611 203.256 226.951 202.956 227.383 202.74C227.823 202.524 228.323 202.416 228.883 202.416C229.419 202.416 229.907 202.512 230.347 202.704C230.787 202.888 231.163 203.144 231.475 203.472C231.795 203.8 232.027 204.18 232.171 204.612L230.995 205.128C230.819 204.656 230.543 204.292 230.167 204.036C229.799 203.78 229.371 203.652 228.883 203.652C228.587 203.652 228.327 203.704 228.103 203.808C227.879 203.904 227.703 204.048 227.575 204.24C227.455 204.424 227.395 204.64 227.395 204.888C227.395 205.176 227.487 205.432 227.671 205.656C227.855 205.88 228.135 206.048 228.511 206.16L230.071 206.652C230.783 206.868 231.319 207.18 231.679 207.588C232.039 207.988 232.219 208.488 232.219 209.088C232.219 209.584 232.087 210.024 231.823 210.408C231.567 210.792 231.211 211.096 230.755 211.32C230.299 211.536 229.771 211.644 229.171 211.644Z" fill="#FCFCFC"/>
<rect x="198" y="73.4688" width="69" height="46" rx="8" fill="#FCFCFC"/>
<path d="M209.828 93.7402V81.0117H210.635V93.7402H209.828ZM210.231 92.6328C209.47 92.6328 208.81 92.5143 208.249 92.2773C207.693 92.0358 207.258 91.6917 206.943 91.2451C206.629 90.7985 206.453 90.2676 206.417 89.6523H207.962C207.994 90.0215 208.112 90.3291 208.317 90.5752C208.527 90.8167 208.798 90.9967 209.131 91.1152C209.464 91.2337 209.828 91.293 210.225 91.293C210.658 91.293 211.045 91.2246 211.387 91.0879C211.729 90.9512 211.995 90.7598 212.187 90.5137C212.382 90.263 212.48 89.9714 212.48 89.6387C212.48 89.3379 212.394 89.0918 212.221 88.9004C212.052 88.709 211.822 88.5518 211.53 88.4287C211.239 88.3011 210.91 88.1895 210.546 88.0938L209.35 87.7656C208.529 87.5469 207.882 87.221 207.408 86.7881C206.934 86.3506 206.697 85.7786 206.697 85.0723C206.697 84.4844 206.854 83.9717 207.169 83.5342C207.488 83.0967 207.919 82.7572 208.461 82.5156C209.008 82.2695 209.621 82.1465 210.3 82.1465C210.993 82.1465 211.601 82.2695 212.125 82.5156C212.654 82.7572 213.071 83.0898 213.376 83.5137C213.686 83.9329 213.848 84.4137 213.861 84.9561H212.371C212.316 84.4867 212.098 84.1221 211.715 83.8623C211.337 83.6025 210.854 83.4727 210.266 83.4727C209.855 83.4727 209.495 83.5387 209.186 83.6709C208.88 83.7985 208.643 83.9762 208.475 84.2041C208.311 84.432 208.229 84.694 208.229 84.9902C208.229 85.3092 208.326 85.569 208.522 85.7695C208.723 85.9701 208.965 86.1296 209.247 86.248C209.534 86.362 209.81 86.4554 210.074 86.5283L211.065 86.7949C211.389 86.877 211.722 86.9863 212.063 87.123C212.405 87.2598 212.722 87.4398 213.014 87.6631C213.31 87.8818 213.547 88.1553 213.725 88.4834C213.907 88.807 213.998 89.1989 213.998 89.6592C213.998 90.2288 213.85 90.7393 213.554 91.1904C213.257 91.637 212.829 91.9902 212.269 92.25C211.708 92.5052 211.029 92.6328 210.231 92.6328ZM218.018 90.4795V89.2422L222.413 82.2832H223.391V84.1152H222.762L219.617 89.0918V89.1738H225.653V90.4795H218.018ZM222.83 92.4688V90.1035L222.844 89.5361V82.2832H224.307V92.4688H222.83ZM230.322 82.2832V92.4688H228.805V83.8281H228.736L226.316 85.4209V83.9443L228.846 82.2832H230.322ZM232.961 92.5645C232.683 92.5645 232.446 92.4688 232.25 92.2773C232.059 92.0859 231.963 91.8512 231.963 91.5732C231.963 91.2952 232.059 91.0605 232.25 90.8691C232.446 90.6777 232.683 90.582 232.961 90.582C233.239 90.582 233.474 90.6777 233.665 90.8691C233.861 91.0605 233.959 91.2952 233.959 91.5732C233.959 91.8512 233.861 92.0859 233.665 92.2773C233.474 92.4688 233.239 92.5645 232.961 92.5645ZM238.655 92.6055C237.967 92.6055 237.356 92.4893 236.823 92.2568C236.29 92.0199 235.868 91.6917 235.559 91.2725C235.249 90.8532 235.085 90.3678 235.066 89.8164H236.611C236.634 90.1172 236.737 90.377 236.919 90.5957C237.101 90.8145 237.34 90.9854 237.637 91.1084C237.938 91.2269 238.272 91.2861 238.642 91.2861C239.043 91.2861 239.398 91.2155 239.708 91.0742C240.018 90.9329 240.259 90.7393 240.433 90.4932C240.61 90.2425 240.699 89.9531 240.699 89.625C240.699 89.2832 240.613 88.9824 240.439 88.7227C240.266 88.4583 240.013 88.2533 239.681 88.1074C239.348 87.9616 238.947 87.8887 238.478 87.8887H237.609V86.6309H238.478C238.851 86.6309 239.182 86.5625 239.469 86.4258C239.756 86.2891 239.979 86.0999 240.139 85.8584C240.303 85.6169 240.385 85.332 240.385 85.0039C240.385 84.6895 240.314 84.416 240.173 84.1836C240.032 83.9466 239.833 83.7643 239.578 83.6367C239.323 83.5046 239.022 83.4385 238.676 83.4385C238.343 83.4385 238.033 83.4977 237.746 83.6162C237.459 83.7347 237.224 83.9056 237.042 84.1289C236.864 84.3477 236.771 84.6143 236.762 84.9287H235.278C235.292 84.3773 235.451 83.8942 235.757 83.4795C236.067 83.0602 236.477 82.7344 236.987 82.502C237.502 82.265 238.072 82.1465 238.696 82.1465C239.348 82.1465 239.911 82.2741 240.385 82.5293C240.863 82.7799 241.232 83.1172 241.492 83.541C241.752 83.9603 241.882 84.4183 241.882 84.915C241.882 85.4938 241.722 85.9814 241.403 86.3779C241.084 86.7699 240.658 87.0365 240.125 87.1777V87.2529C240.799 87.3577 241.321 87.6266 241.69 88.0596C242.064 88.4925 242.251 89.0303 242.251 89.6729C242.251 90.2334 242.094 90.7347 241.779 91.1768C241.469 91.6188 241.043 91.9674 240.501 92.2227C239.963 92.4779 239.348 92.6055 238.655 92.6055ZM243.885 92.4688L248.328 83.6777V83.6025H243.188V82.2832H249.928V83.6572L245.491 92.4688H243.885ZM254.139 82.1396C254.594 82.1442 255.041 82.2285 255.479 82.3926C255.921 82.5521 256.319 82.8164 256.675 83.1855C257.035 83.5547 257.322 84.0537 257.536 84.6826C257.75 85.307 257.857 86.0863 257.857 87.0205C257.857 87.9092 257.769 88.6999 257.591 89.3926C257.413 90.0853 257.156 90.6709 256.818 91.1494C256.486 91.6279 256.082 91.9925 255.608 92.2432C255.134 92.4893 254.604 92.6123 254.016 92.6123C253.41 92.6123 252.869 92.4915 252.396 92.25C251.922 92.0085 251.539 91.6781 251.247 91.2588C250.955 90.835 250.771 90.3496 250.693 89.8027H252.211C252.311 90.2357 252.514 90.5889 252.819 90.8623C253.129 91.1312 253.528 91.2656 254.016 91.2656C254.758 91.2656 255.337 90.9398 255.752 90.2881C256.171 89.6364 256.383 88.7272 256.388 87.5605H256.312C256.135 87.8477 255.918 88.096 255.663 88.3057C255.408 88.5107 255.121 88.668 254.802 88.7773C254.483 88.8867 254.146 88.9414 253.79 88.9414C253.198 88.9414 252.66 88.7979 252.177 88.5107C251.694 88.2236 251.311 87.8294 251.028 87.3281C250.746 86.8223 250.602 86.2458 250.598 85.5986C250.602 84.9515 250.75 84.3659 251.042 83.8418C251.338 83.3177 251.751 82.903 252.279 82.5977C252.808 82.2878 253.428 82.1351 254.139 82.1396ZM254.146 83.4385C253.758 83.4385 253.41 83.5342 253.1 83.7256C252.79 83.917 252.546 84.1745 252.368 84.498C252.19 84.8216 252.102 85.1816 252.102 85.5781C252.102 85.9746 252.186 86.3324 252.354 86.6514C252.528 86.9704 252.767 87.2256 253.072 87.417C253.378 87.6038 253.724 87.6973 254.111 87.6973C254.503 87.6973 254.854 87.5993 255.164 87.4033C255.479 87.2028 255.729 86.9408 255.916 86.6172C256.103 86.2891 256.196 85.9359 256.196 85.5576C256.196 85.1839 256.107 84.8353 255.93 84.5117C255.752 84.1882 255.508 83.9284 255.198 83.7324C254.893 83.5365 254.542 83.4385 254.146 83.4385Z" fill="black"/>
<path d="M209.199 109.871V104.246H210.148V109.871H209.199ZM206.855 107.539V106.578H212.48V107.539H206.855ZM216.699 101.621C217.059 101.625 217.416 101.693 217.771 101.826C218.131 101.959 218.459 102.18 218.756 102.488C219.053 102.797 219.289 103.217 219.465 103.748C219.645 104.279 219.734 104.945 219.734 105.746C219.734 106.523 219.662 107.213 219.518 107.814C219.373 108.412 219.162 108.918 218.885 109.332C218.611 109.742 218.279 110.055 217.889 110.27C217.498 110.48 217.059 110.586 216.57 110.586C216.082 110.586 215.645 110.488 215.258 110.293C214.875 110.098 214.562 109.826 214.32 109.479C214.078 109.131 213.922 108.727 213.852 108.266H214.895C214.988 108.668 215.176 109 215.457 109.262C215.738 109.52 216.109 109.648 216.57 109.648C217.242 109.648 217.771 109.355 218.158 108.77C218.549 108.18 218.746 107.348 218.75 106.273H218.68C218.52 106.512 218.33 106.719 218.111 106.895C217.893 107.066 217.65 107.199 217.385 107.293C217.119 107.387 216.836 107.434 216.535 107.434C216.035 107.434 215.576 107.311 215.158 107.064C214.74 106.814 214.406 106.473 214.156 106.039C213.91 105.602 213.785 105.102 213.781 104.539C213.785 104.004 213.906 103.516 214.145 103.074C214.387 102.629 214.725 102.273 215.158 102.008C215.596 101.742 216.109 101.613 216.699 101.621ZM216.699 102.559C216.344 102.559 216.021 102.648 215.732 102.828C215.447 103.004 215.223 103.242 215.059 103.543C214.895 103.84 214.812 104.172 214.812 104.539C214.812 104.902 214.891 105.232 215.047 105.529C215.207 105.826 215.428 106.062 215.709 106.238C215.99 106.41 216.309 106.496 216.664 106.496C217.023 106.496 217.348 106.404 217.637 106.221C217.93 106.033 218.162 105.789 218.334 105.488C218.51 105.188 218.598 104.863 218.598 104.516C218.598 104.176 218.516 103.857 218.352 103.561C218.188 103.26 217.963 103.018 217.678 102.834C217.393 102.65 217.066 102.559 216.699 102.559ZM221.287 110.539C221.076 110.539 220.895 110.465 220.742 110.316C220.594 110.164 220.52 109.982 220.52 109.771C220.52 109.561 220.594 109.381 220.742 109.232C220.895 109.08 221.076 109.004 221.287 109.004C221.498 109.004 221.678 109.08 221.826 109.232C221.979 109.381 222.055 109.561 222.055 109.771C222.055 109.982 221.979 110.164 221.826 110.316C221.678 110.465 221.498 110.539 221.287 110.539ZM225.875 110.586C225.52 110.586 225.162 110.521 224.803 110.393C224.443 110.26 224.115 110.039 223.818 109.73C223.525 109.418 223.289 108.994 223.109 108.459C222.93 107.924 222.84 107.254 222.84 106.449C222.84 105.676 222.912 104.99 223.057 104.393C223.205 103.795 223.416 103.291 223.689 102.881C223.967 102.467 224.301 102.154 224.691 101.943C225.082 101.729 225.523 101.621 226.016 101.621C226.504 101.621 226.938 101.719 227.316 101.914C227.699 102.109 228.012 102.381 228.254 102.729C228.496 103.072 228.652 103.469 228.723 103.918H227.691C227.594 103.527 227.404 103.203 227.123 102.945C226.846 102.688 226.477 102.559 226.016 102.559C225.34 102.559 224.807 102.854 224.416 103.443C224.029 104.029 223.836 104.855 223.836 105.922H223.906C224.066 105.68 224.256 105.473 224.475 105.301C224.693 105.125 224.936 104.992 225.201 104.902C225.467 104.809 225.75 104.762 226.051 104.762C226.551 104.762 227.008 104.887 227.422 105.137C227.836 105.383 228.168 105.725 228.418 106.162C228.668 106.596 228.793 107.094 228.793 107.656C228.793 108.195 228.672 108.688 228.43 109.133C228.191 109.574 227.854 109.928 227.416 110.193C226.979 110.455 226.465 110.586 225.875 110.586ZM225.875 109.648C226.234 109.648 226.557 109.561 226.842 109.385C227.127 109.205 227.354 108.965 227.521 108.664C227.689 108.359 227.773 108.023 227.773 107.656C227.773 107.293 227.691 106.965 227.527 106.672C227.367 106.375 227.146 106.139 226.865 105.963C226.588 105.787 226.27 105.699 225.91 105.699C225.551 105.699 225.225 105.791 224.932 105.975C224.643 106.158 224.412 106.4 224.24 106.701C224.072 106.998 223.988 107.32 223.988 107.668C223.988 108.016 224.07 108.342 224.234 108.646C224.398 108.947 224.621 109.189 224.902 109.373C225.188 109.557 225.512 109.648 225.875 109.648ZM232.625 110.586C232.039 110.586 231.523 110.482 231.078 110.275C230.633 110.064 230.285 109.775 230.035 109.408C229.785 109.041 229.66 108.621 229.66 108.148C229.66 107.781 229.732 107.441 229.877 107.129C230.025 106.812 230.227 106.549 230.48 106.338C230.738 106.127 231.027 105.992 231.348 105.934V105.887C230.93 105.777 230.596 105.541 230.346 105.178C230.1 104.814 229.977 104.402 229.977 103.941C229.977 103.496 230.09 103.1 230.316 102.752C230.543 102.4 230.855 102.125 231.254 101.926C231.656 101.723 232.113 101.621 232.625 101.621C233.129 101.621 233.58 101.723 233.979 101.926C234.377 102.125 234.689 102.4 234.916 102.752C235.146 103.1 235.262 103.496 235.262 103.941C235.262 104.402 235.137 104.814 234.887 105.178C234.637 105.541 234.309 105.777 233.902 105.887V105.934C234.215 105.992 234.498 106.127 234.752 106.338C235.01 106.549 235.213 106.812 235.361 107.129C235.514 107.441 235.59 107.781 235.59 108.148C235.59 108.621 235.463 109.041 235.209 109.408C234.959 109.775 234.611 110.064 234.166 110.275C233.721 110.482 233.207 110.586 232.625 110.586ZM232.625 109.648C233.02 109.648 233.359 109.586 233.645 109.461C233.934 109.332 234.156 109.152 234.312 108.922C234.469 108.688 234.547 108.414 234.547 108.102C234.547 107.773 234.463 107.482 234.295 107.229C234.127 106.975 233.898 106.775 233.609 106.631C233.32 106.486 232.992 106.414 232.625 106.414C232.25 106.414 231.916 106.486 231.623 106.631C231.334 106.775 231.105 106.975 230.938 107.229C230.773 107.482 230.691 107.773 230.691 108.102C230.691 108.414 230.77 108.688 230.926 108.922C231.082 109.152 231.305 109.332 231.594 109.461C231.883 109.586 232.227 109.648 232.625 109.648ZM232.625 105.512C232.938 105.512 233.215 105.449 233.457 105.324C233.699 105.199 233.891 105.025 234.031 104.803C234.172 104.576 234.242 104.312 234.242 104.012C234.242 103.715 234.174 103.457 234.037 103.238C233.9 103.02 233.711 102.85 233.469 102.729C233.227 102.607 232.945 102.547 232.625 102.547C232.297 102.547 232.01 102.607 231.764 102.729C231.521 102.85 231.332 103.02 231.195 103.238C231.062 103.457 230.996 103.715 230.996 104.012C230.996 104.312 231.064 104.576 231.201 104.803C231.342 105.025 231.533 105.199 231.775 105.324C232.021 105.449 232.305 105.512 232.625 105.512ZM241.098 108.828V108.371C241.098 108.051 241.162 107.758 241.291 107.492C241.424 107.227 241.617 107.014 241.871 106.854C242.125 106.693 242.434 106.613 242.797 106.613C243.168 106.613 243.479 106.693 243.729 106.854C243.979 107.014 244.166 107.227 244.291 107.492C244.42 107.758 244.484 108.051 244.484 108.371V108.828C244.484 109.148 244.42 109.441 244.291 109.707C244.162 109.973 243.973 110.186 243.723 110.346C243.473 110.506 243.164 110.586 242.797 110.586C242.43 110.586 242.119 110.506 241.865 110.346C241.611 110.186 241.42 109.973 241.291 109.707C241.162 109.441 241.098 109.148 241.098 108.828ZM241.965 108.371V108.828C241.965 109.094 242.027 109.332 242.152 109.543C242.277 109.75 242.492 109.855 242.797 109.859C243.098 109.855 243.309 109.75 243.43 109.543C243.555 109.332 243.617 109.094 243.617 108.828V108.371C243.617 108.105 243.557 107.869 243.436 107.662C243.318 107.455 243.105 107.352 242.797 107.352C242.5 107.352 242.287 107.455 242.158 107.662C242.029 107.869 241.965 108.105 241.965 108.371ZM236.75 103.836V103.379C236.75 103.059 236.816 102.766 236.949 102.5C237.082 102.234 237.273 102.021 237.523 101.861C237.777 101.701 238.086 101.621 238.449 101.621C238.82 101.621 239.131 101.701 239.381 101.861C239.635 102.021 239.824 102.234 239.949 102.5C240.078 102.766 240.141 103.059 240.137 103.379V103.836C240.141 104.152 240.076 104.445 239.943 104.715C239.814 104.98 239.625 105.193 239.375 105.354C239.125 105.514 238.816 105.594 238.449 105.594C238.082 105.594 237.771 105.514 237.518 105.354C237.264 105.193 237.072 104.98 236.943 104.715C236.814 104.445 236.75 104.152 236.75 103.836ZM237.617 103.379V103.836C237.617 104.102 237.68 104.34 237.805 104.551C237.93 104.758 238.145 104.859 238.449 104.855C238.75 104.859 238.961 104.758 239.082 104.551C239.207 104.34 239.27 104.102 239.27 103.836V103.379C239.27 103.113 239.209 102.877 239.088 102.67C238.971 102.459 238.758 102.355 238.449 102.359C238.152 102.355 237.939 102.459 237.811 102.67C237.682 102.877 237.617 103.113 237.617 103.379ZM237.078 110.469L243.078 101.738H244.051L238.051 110.469H237.078Z" fill="black"/>
<defs>
<linearGradient id="paint0_linear_711_11280" x1="24" y1="153.214" x2="24" y2="195.5" gradientUnits="userSpaceOnUse">
<stop stop-color="#F9EB57"/>
<stop offset="1" stop-color="#83E7EE"/>
</linearGradient>
<linearGradient id="paint1_linear_711_11280" x1="58.1641" y1="165.786" x2="58.1641" y2="195.5" gradientUnits="userSpaceOnUse">
<stop stop-color="#F9EB57"/>
<stop offset="1" stop-color="#83E7EE"/>
</linearGradient>
<linearGradient id="paint2_linear_711_11280" x1="92.3359" y1="137.214" x2="92.3359" y2="195.5" gradientUnits="userSpaceOnUse">
<stop stop-color="#F9EB57"/>
<stop offset="1" stop-color="#83E7EE"/>
</linearGradient>
<linearGradient id="paint3_linear_711_11280" x1="126.5" y1="158.929" x2="126.5" y2="195.5" gradientUnits="userSpaceOnUse">
<stop stop-color="#F9EB57"/>
<stop offset="1" stop-color="#83E7EE"/>
</linearGradient>
<linearGradient id="paint4_linear_711_11280" x1="160.664" y1="146.357" x2="160.664" y2="195.5" gradientUnits="userSpaceOnUse">
<stop stop-color="#F9EB57"/>
<stop offset="1" stop-color="#83E7EE"/>
</linearGradient>
<linearGradient id="paint5_linear_711_11280" x1="194.836" y1="131.5" x2="194.836" y2="195.5" gradientUnits="userSpaceOnUse">
<stop stop-color="#F9EB57"/>
<stop offset="1" stop-color="#83E7EE"/>
</linearGradient>
<linearGradient id="paint6_linear_711_11280" x1="229" y1="178.357" x2="229" y2="195.5" gradientUnits="userSpaceOnUse">
<stop stop-color="#F9EB57"/>
<stop offset="1" stop-color="#83E7EE"/>
</linearGradient>
</defs>
</svg>
