<svg width="272" height="228" viewBox="0 0 272 228" fill="none" xmlns="http://www.w3.org/2000/svg">
<path d="M0 20.5C0 11.0719 0 6.35786 2.92893 3.42893C5.85786 0.5 10.5719 0.5 20 0.5H233C242.428 0.5 247.142 0.5 250.071 3.42893C253 6.35786 253 11.0719 253 20.5V207.5C253 216.928 253 221.642 250.071 224.571C247.142 227.5 242.428 227.5 233 227.5H20C10.5719 227.5 5.85786 227.5 2.92893 224.571C0 221.642 0 216.928 0 207.5V20.5Z" fill="url(#paint0_linear_711_11330)"/>
<path d="M16.3145 22.6338V21.3145H24.2031V22.6338H21.0312V31.5H19.5V22.6338H16.3145ZM24.4355 31.5V23.8574H25.8643V25.0811H25.9463C26.0876 24.6709 26.3337 24.3473 26.6846 24.1104C27.04 23.8688 27.4411 23.748 27.8877 23.748C27.9788 23.748 28.0859 23.7526 28.209 23.7617C28.3366 23.7663 28.4391 23.7731 28.5166 23.7822V25.2041C28.4574 25.1859 28.3503 25.1676 28.1953 25.1494C28.0449 25.1312 27.8923 25.1221 27.7373 25.1221C27.3864 25.1221 27.0719 25.1973 26.7939 25.3477C26.5205 25.4935 26.304 25.6963 26.1445 25.9561C25.9896 26.2113 25.9121 26.5075 25.9121 26.8447V31.5H24.4355ZM31.3809 31.6641C30.8978 31.6641 30.4603 31.5752 30.0684 31.3975C29.6764 31.2152 29.3665 30.9508 29.1387 30.6045C28.9108 30.2581 28.7969 29.8366 28.7969 29.3398C28.7969 28.9069 28.8789 28.5537 29.043 28.2803C29.2116 28.0023 29.4372 27.7812 29.7197 27.6172C30.0023 27.4531 30.3167 27.3301 30.6631 27.248C31.0094 27.166 31.3649 27.1022 31.7295 27.0566C32.1898 27.0065 32.5612 26.9632 32.8438 26.9268C33.1263 26.8903 33.3314 26.8333 33.459 26.7559C33.5911 26.6738 33.6572 26.5439 33.6572 26.3662V26.332C33.6572 25.8991 33.5342 25.5641 33.2881 25.3271C33.0465 25.0902 32.6865 24.9717 32.208 24.9717C31.7113 24.9717 31.3171 25.0811 31.0254 25.2998C30.7383 25.514 30.54 25.7578 30.4307 26.0312L29.0293 25.71C29.1979 25.2451 29.4417 24.8714 29.7607 24.5889C30.0843 24.3018 30.4535 24.0921 30.8682 23.96C31.2874 23.8278 31.7249 23.7617 32.1807 23.7617C32.486 23.7617 32.8096 23.7982 33.1514 23.8711C33.4932 23.9395 33.8145 24.0693 34.1152 24.2607C34.4206 24.4476 34.6689 24.7165 34.8604 25.0674C35.0518 25.4183 35.1475 25.8717 35.1475 26.4277V31.5H33.6914V30.4541H33.6367C33.5456 30.641 33.402 30.8278 33.2061 31.0146C33.0146 31.2015 32.7686 31.3564 32.4678 31.4795C32.167 31.6025 31.8047 31.6641 31.3809 31.6641ZM31.7021 30.4746C32.1169 30.4746 32.4701 30.3949 32.7617 30.2354C33.0534 30.0713 33.2767 29.8571 33.4316 29.5928C33.5866 29.3285 33.6641 29.0482 33.6641 28.752V27.7607C33.6094 27.8109 33.5068 27.8587 33.3564 27.9043C33.2061 27.9499 33.0352 27.9886 32.8438 28.0205C32.6523 28.0524 32.4655 28.082 32.2832 28.1094C32.1009 28.1322 31.9482 28.1504 31.8252 28.1641C31.5381 28.2051 31.276 28.2689 31.0391 28.3555C30.8021 28.4375 30.6107 28.5605 30.4648 28.7246C30.3236 28.8841 30.2529 29.096 30.2529 29.3604C30.2529 29.7295 30.3896 30.0075 30.6631 30.1943C30.9365 30.3812 31.2829 30.4746 31.7021 30.4746ZM38.0527 26.9678V31.5H36.5762V23.8574H38.0117V25.1152H38.1143C38.2874 24.7005 38.5586 24.3724 38.9277 24.1309C39.2969 23.8848 39.7708 23.7617 40.3496 23.7617C40.8691 23.7617 41.3226 23.8711 41.71 24.0898C42.1019 24.304 42.4049 24.6253 42.6191 25.0537C42.8379 25.4821 42.9473 26.013 42.9473 26.6465V31.5H41.4707V26.8242C41.4707 26.2728 41.3249 25.8398 41.0332 25.5254C40.7415 25.2064 40.3451 25.0469 39.8438 25.0469C39.502 25.0469 39.1943 25.1243 38.9209 25.2793C38.652 25.4297 38.4401 25.6462 38.2852 25.9287C38.1302 26.2113 38.0527 26.5576 38.0527 26.9678ZM50.084 25.7305L48.7373 25.9629C48.6507 25.7077 48.4889 25.473 48.252 25.2588C48.0195 25.0446 47.6709 24.9375 47.2061 24.9375C46.7868 24.9375 46.4359 25.0332 46.1533 25.2246C45.8753 25.4115 45.7363 25.6507 45.7363 25.9424C45.7363 26.1976 45.8298 26.4049 46.0166 26.5645C46.208 26.724 46.5111 26.8516 46.9258 26.9473L48.1494 27.2207C48.8467 27.3802 49.3685 27.6309 49.7148 27.9727C50.0612 28.3145 50.2344 28.752 50.2344 29.2852C50.2344 29.7454 50.1022 30.1556 49.8379 30.5156C49.5736 30.8711 49.2067 31.1514 48.7373 31.3564C48.2679 31.557 47.7256 31.6572 47.1104 31.6572C46.2536 31.6572 45.5563 31.4727 45.0186 31.1035C44.4808 30.7344 44.1504 30.2148 44.0273 29.5449L45.4561 29.3262C45.5472 29.6999 45.7318 29.9824 46.0098 30.1738C46.2923 30.3652 46.6569 30.4609 47.1035 30.4609C47.5866 30.4609 47.974 30.3584 48.2656 30.1533C48.5618 29.9482 48.71 29.6999 48.71 29.4082C48.71 28.9251 48.3499 28.5993 47.6299 28.4307L46.3379 28.1436C45.6224 27.9795 45.0938 27.722 44.752 27.3711C44.4147 27.0156 44.2461 26.569 44.2461 26.0312C44.2461 25.5801 44.3714 25.1836 44.6221 24.8418C44.8773 24.5 45.2259 24.2357 45.668 24.0488C46.1146 23.8574 46.6227 23.7617 47.1924 23.7617C48.0218 23.7617 48.6712 23.9417 49.1406 24.3018C49.6146 24.6618 49.929 25.138 50.084 25.7305ZM53.4883 31.6641C53.0052 31.6641 52.5677 31.5752 52.1758 31.3975C51.7839 31.2152 51.474 30.9508 51.2461 30.6045C51.0182 30.2581 50.9043 29.8366 50.9043 29.3398C50.9043 28.9069 50.9863 28.5537 51.1504 28.2803C51.319 28.0023 51.5446 27.7812 51.8271 27.6172C52.1097 27.4531 52.4242 27.3301 52.7705 27.248C53.1169 27.166 53.4723 27.1022 53.8369 27.0566C54.2972 27.0065 54.6686 26.9632 54.9512 26.9268C55.2337 26.8903 55.4388 26.8333 55.5664 26.7559C55.6986 26.6738 55.7646 26.5439 55.7646 26.3662V26.332C55.7646 25.8991 55.6416 25.5641 55.3955 25.3271C55.154 25.0902 54.7939 24.9717 54.3154 24.9717C53.8187 24.9717 53.4245 25.0811 53.1328 25.2998C52.8457 25.514 52.6475 25.7578 52.5381 26.0312L51.1367 25.71C51.3053 25.2451 51.5492 24.8714 51.8682 24.5889C52.1917 24.3018 52.5609 24.0921 52.9756 23.96C53.3949 23.8278 53.8324 23.7617 54.2881 23.7617C54.5934 23.7617 54.917 23.7982 55.2588 23.8711C55.6006 23.9395 55.9219 24.0693 56.2227 24.2607C56.528 24.4476 56.7764 24.7165 56.9678 25.0674C57.1592 25.4183 57.2549 25.8717 57.2549 26.4277V31.5H55.7988V30.4541H55.7441C55.653 30.641 55.5094 30.8278 55.3135 31.0146C55.1221 31.2015 54.876 31.3564 54.5752 31.4795C54.2744 31.6025 53.9121 31.6641 53.4883 31.6641ZM53.8096 30.4746C54.2243 30.4746 54.5775 30.3949 54.8691 30.2354C55.1608 30.0713 55.3841 29.8571 55.5391 29.5928C55.694 29.3285 55.7715 29.0482 55.7715 28.752V27.7607C55.7168 27.8109 55.6143 27.8587 55.4639 27.9043C55.3135 27.9499 55.1426 27.9886 54.9512 28.0205C54.7598 28.0524 54.5729 28.082 54.3906 28.1094C54.2083 28.1322 54.0557 28.1504 53.9326 28.1641C53.6455 28.2051 53.3835 28.2689 53.1465 28.3555C52.9095 28.4375 52.7181 28.5605 52.5723 28.7246C52.431 28.8841 52.3604 29.096 52.3604 29.3604C52.3604 29.7295 52.4971 30.0075 52.7705 30.1943C53.0439 30.3812 53.3903 30.4746 53.8096 30.4746ZM61.8896 31.6572C61.1559 31.6572 60.5225 31.4886 59.9893 31.1514C59.4561 30.8141 59.0459 30.3493 58.7588 29.7568C58.4717 29.1644 58.3281 28.4854 58.3281 27.7197C58.3281 26.9404 58.474 26.2546 58.7656 25.6621C59.0618 25.0651 59.4743 24.6003 60.0029 24.2676C60.5361 23.9303 61.1605 23.7617 61.876 23.7617C62.4593 23.7617 62.9766 23.8688 63.4277 24.083C63.8835 24.2926 64.2503 24.5911 64.5283 24.9785C64.8109 25.3659 64.9772 25.8171 65.0273 26.332H63.5781C63.528 26.0905 63.43 25.8695 63.2842 25.6689C63.1429 25.4684 62.9561 25.3089 62.7236 25.1904C62.4912 25.0719 62.2155 25.0127 61.8965 25.0127C61.4818 25.0127 61.1195 25.1221 60.8096 25.3408C60.5042 25.555 60.265 25.8626 60.0918 26.2637C59.9186 26.6647 59.832 27.1387 59.832 27.6855C59.832 28.237 59.9163 28.7178 60.085 29.1279C60.2536 29.5381 60.4928 29.8548 60.8027 30.0781C61.1172 30.2969 61.4818 30.4062 61.8965 30.4062C62.3249 30.4062 62.6895 30.2878 62.9902 30.0508C63.2956 29.8138 63.4915 29.4902 63.5781 29.0801H65.0273C64.9772 29.5768 64.8177 30.0189 64.5488 30.4062C64.2799 30.7936 63.9199 31.099 63.4688 31.3223C63.0176 31.5456 62.4912 31.6572 61.8896 31.6572ZM69.6348 23.8574V25.0537H65.4648V23.8574H69.6348ZM66.5791 22.0391H68.0625V29.2578C68.0625 29.6087 68.1354 29.8662 68.2812 30.0303C68.4271 30.1898 68.6618 30.2695 68.9854 30.2695C69.0628 30.2695 69.1449 30.265 69.2314 30.2559C69.3226 30.2467 69.4137 30.2331 69.5049 30.2148L69.7852 31.4453C69.6348 31.4954 69.4707 31.5342 69.293 31.5615C69.1152 31.5889 68.9375 31.6025 68.7598 31.6025C68.099 31.6025 67.5703 31.418 67.1738 31.0488C66.7773 30.6751 66.5791 30.1784 66.5791 29.5586V22.0391ZM70.7012 31.5V23.8574H72.1777V31.5H70.7012ZM71.4463 22.6816C71.1865 22.6816 70.9655 22.5951 70.7832 22.4219C70.6009 22.2487 70.5098 22.0413 70.5098 21.7998C70.5098 21.5537 70.6009 21.3441 70.7832 21.1709C70.9655 20.9977 71.1865 20.9111 71.4463 20.9111C71.7015 20.9111 71.9202 20.9977 72.1025 21.1709C72.2894 21.3441 72.3828 21.5537 72.3828 21.7998C72.3828 22.0413 72.2894 22.2487 72.1025 22.4219C71.9202 22.5951 71.7015 22.6816 71.4463 22.6816ZM76.8057 31.6572C76.0902 31.6572 75.4635 31.4932 74.9258 31.165C74.3926 30.8369 73.9779 30.3766 73.6816 29.7842C73.39 29.1917 73.2441 28.5036 73.2441 27.7197C73.2441 26.9268 73.39 26.234 73.6816 25.6416C73.9779 25.0446 74.3926 24.582 74.9258 24.2539C75.4635 23.9258 76.0902 23.7617 76.8057 23.7617C77.5257 23.7617 78.1523 23.9258 78.6855 24.2539C79.2188 24.582 79.6335 25.0446 79.9297 25.6416C80.2259 26.234 80.374 26.9268 80.374 27.7197C80.374 28.5036 80.2259 29.1917 79.9297 29.7842C79.6335 30.3766 79.2188 30.8369 78.6855 31.165C78.1523 31.4932 77.5257 31.6572 76.8057 31.6572ZM76.8057 30.4062C77.2751 30.4062 77.6624 30.2832 77.9678 30.0371C78.2731 29.791 78.4987 29.4652 78.6445 29.0596C78.7949 28.6494 78.8701 28.2028 78.8701 27.7197C78.8701 27.2275 78.7949 26.7764 78.6445 26.3662C78.4987 25.9561 78.2731 25.6279 77.9678 25.3818C77.6624 25.1357 77.2751 25.0127 76.8057 25.0127C76.3408 25.0127 75.9557 25.1357 75.6504 25.3818C75.3496 25.6279 75.124 25.9561 74.9736 26.3662C74.8232 26.7764 74.748 27.2275 74.748 27.7197C74.748 28.2028 74.8232 28.6494 74.9736 29.0596C75.124 29.4652 75.3496 29.791 75.6504 30.0371C75.9557 30.2832 76.3408 30.4062 76.8057 30.4062ZM82.9238 26.9678V31.5H81.4473V23.8574H82.8828V25.1152H82.9854C83.1585 24.7005 83.4297 24.3724 83.7988 24.1309C84.168 23.8848 84.6419 23.7617 85.2207 23.7617C85.7402 23.7617 86.1937 23.8711 86.5811 24.0898C86.973 24.304 87.276 24.6253 87.4902 25.0537C87.709 25.4821 87.8184 26.013 87.8184 26.6465V31.5H86.3418V26.8242C86.3418 26.2728 86.196 25.8398 85.9043 25.5254C85.6126 25.2064 85.2161 25.0469 84.7148 25.0469C84.373 25.0469 84.0654 25.1243 83.792 25.2793C83.5231 25.4297 83.3112 25.6462 83.1562 25.9287C83.0013 26.2113 82.9238 26.5576 82.9238 26.9678ZM98.0723 25.7305L96.7256 25.9629C96.639 25.7077 96.4772 25.473 96.2402 25.2588C96.0078 25.0446 95.6592 24.9375 95.1943 24.9375C94.7751 24.9375 94.4242 25.0332 94.1416 25.2246C93.8636 25.4115 93.7246 25.6507 93.7246 25.9424C93.7246 26.1976 93.818 26.4049 94.0049 26.5645C94.1963 26.724 94.4993 26.8516 94.9141 26.9473L96.1377 27.2207C96.835 27.3802 97.3568 27.6309 97.7031 27.9727C98.0495 28.3145 98.2227 28.752 98.2227 29.2852C98.2227 29.7454 98.0905 30.1556 97.8262 30.5156C97.5618 30.8711 97.195 31.1514 96.7256 31.3564C96.2562 31.557 95.7139 31.6572 95.0986 31.6572C94.2419 31.6572 93.5446 31.4727 93.0068 31.1035C92.4691 30.7344 92.1387 30.2148 92.0156 29.5449L93.4443 29.3262C93.5355 29.6999 93.7201 29.9824 93.998 30.1738C94.2806 30.3652 94.6452 30.4609 95.0918 30.4609C95.5749 30.4609 95.9622 30.3584 96.2539 30.1533C96.5501 29.9482 96.6982 29.6999 96.6982 29.4082C96.6982 28.9251 96.3382 28.5993 95.6182 28.4307L94.3262 28.1436C93.6107 27.9795 93.082 27.722 92.7402 27.3711C92.403 27.0156 92.2344 26.569 92.2344 26.0312C92.2344 25.5801 92.3597 25.1836 92.6104 24.8418C92.8656 24.5 93.2142 24.2357 93.6562 24.0488C94.1029 23.8574 94.611 23.7617 95.1807 23.7617C96.0101 23.7617 96.6595 23.9417 97.1289 24.3018C97.6029 24.6618 97.9173 25.138 98.0723 25.7305ZM102.816 23.8574V25.0537H98.6465V23.8574H102.816ZM99.7607 22.0391H101.244V29.2578C101.244 29.6087 101.317 29.8662 101.463 30.0303C101.609 30.1898 101.843 30.2695 102.167 30.2695C102.244 30.2695 102.326 30.265 102.413 30.2559C102.504 30.2467 102.595 30.2331 102.687 30.2148L102.967 31.4453C102.816 31.4954 102.652 31.5342 102.475 31.5615C102.297 31.5889 102.119 31.6025 101.941 31.6025C101.281 31.6025 100.752 31.418 100.355 31.0488C99.959 30.6751 99.7607 30.1784 99.7607 29.5586V22.0391ZM106.098 31.6641C105.615 31.6641 105.177 31.5752 104.785 31.3975C104.393 31.2152 104.083 30.9508 103.855 30.6045C103.628 30.2581 103.514 29.8366 103.514 29.3398C103.514 28.9069 103.596 28.5537 103.76 28.2803C103.928 28.0023 104.154 27.7812 104.437 27.6172C104.719 27.4531 105.034 27.3301 105.38 27.248C105.726 27.166 106.082 27.1022 106.446 27.0566C106.907 27.0065 107.278 26.9632 107.561 26.9268C107.843 26.8903 108.048 26.8333 108.176 26.7559C108.308 26.6738 108.374 26.5439 108.374 26.3662V26.332C108.374 25.8991 108.251 25.5641 108.005 25.3271C107.763 25.0902 107.403 24.9717 106.925 24.9717C106.428 24.9717 106.034 25.0811 105.742 25.2998C105.455 25.514 105.257 25.7578 105.147 26.0312L103.746 25.71C103.915 25.2451 104.159 24.8714 104.478 24.5889C104.801 24.3018 105.17 24.0921 105.585 23.96C106.004 23.8278 106.442 23.7617 106.897 23.7617C107.203 23.7617 107.526 23.7982 107.868 23.8711C108.21 23.9395 108.531 24.0693 108.832 24.2607C109.137 24.4476 109.386 24.7165 109.577 25.0674C109.769 25.4183 109.864 25.8717 109.864 26.4277V31.5H108.408V30.4541H108.354C108.262 30.641 108.119 30.8278 107.923 31.0146C107.731 31.2015 107.485 31.3564 107.185 31.4795C106.884 31.6025 106.521 31.6641 106.098 31.6641ZM106.419 30.4746C106.834 30.4746 107.187 30.3949 107.479 30.2354C107.77 30.0713 107.993 29.8571 108.148 29.5928C108.303 29.3285 108.381 29.0482 108.381 28.752V27.7607C108.326 27.8109 108.224 27.8587 108.073 27.9043C107.923 27.9499 107.752 27.9886 107.561 28.0205C107.369 28.0524 107.182 28.082 107 28.1094C106.818 28.1322 106.665 28.1504 106.542 28.1641C106.255 28.2051 105.993 28.2689 105.756 28.3555C105.519 28.4375 105.327 28.5605 105.182 28.7246C105.04 28.8841 104.97 29.096 104.97 29.3604C104.97 29.7295 105.106 30.0075 105.38 30.1943C105.653 30.3812 106 30.4746 106.419 30.4746ZM114.848 23.8574V25.0537H110.678V23.8574H114.848ZM111.792 22.0391H113.275V29.2578C113.275 29.6087 113.348 29.8662 113.494 30.0303C113.64 30.1898 113.875 30.2695 114.198 30.2695C114.276 30.2695 114.358 30.265 114.444 30.2559C114.535 30.2467 114.627 30.2331 114.718 30.2148L114.998 31.4453C114.848 31.4954 114.684 31.5342 114.506 31.5615C114.328 31.5889 114.15 31.6025 113.973 31.6025C113.312 31.6025 112.783 31.418 112.387 31.0488C111.99 30.6751 111.792 30.1784 111.792 29.5586V22.0391ZM115.914 31.5V23.8574H117.391V31.5H115.914ZM116.659 22.6816C116.399 22.6816 116.178 22.5951 115.996 22.4219C115.814 22.2487 115.723 22.0413 115.723 21.7998C115.723 21.5537 115.814 21.3441 115.996 21.1709C116.178 20.9977 116.399 20.9111 116.659 20.9111C116.914 20.9111 117.133 20.9977 117.315 21.1709C117.502 21.3441 117.596 21.5537 117.596 21.7998C117.596 22.0413 117.502 22.2487 117.315 22.4219C117.133 22.5951 116.914 22.6816 116.659 22.6816ZM124.527 25.7305L123.181 25.9629C123.094 25.7077 122.932 25.473 122.695 25.2588C122.463 25.0446 122.114 24.9375 121.649 24.9375C121.23 24.9375 120.879 25.0332 120.597 25.2246C120.319 25.4115 120.18 25.6507 120.18 25.9424C120.18 26.1976 120.273 26.4049 120.46 26.5645C120.651 26.724 120.954 26.8516 121.369 26.9473L122.593 27.2207C123.29 27.3802 123.812 27.6309 124.158 27.9727C124.505 28.3145 124.678 28.752 124.678 29.2852C124.678 29.7454 124.546 30.1556 124.281 30.5156C124.017 30.8711 123.65 31.1514 123.181 31.3564C122.711 31.557 122.169 31.6572 121.554 31.6572C120.697 31.6572 120 31.4727 119.462 31.1035C118.924 30.7344 118.594 30.2148 118.471 29.5449L119.899 29.3262C119.991 29.6999 120.175 29.9824 120.453 30.1738C120.736 30.3652 121.1 30.4609 121.547 30.4609C122.03 30.4609 122.417 30.3584 122.709 30.1533C123.005 29.9482 123.153 29.6999 123.153 29.4082C123.153 28.9251 122.793 28.5993 122.073 28.4307L120.781 28.1436C120.066 27.9795 119.537 27.722 119.195 27.3711C118.858 27.0156 118.689 26.569 118.689 26.0312C118.689 25.5801 118.815 25.1836 119.065 24.8418C119.321 24.5 119.669 24.2357 120.111 24.0488C120.558 23.8574 121.066 23.7617 121.636 23.7617C122.465 23.7617 123.115 23.9417 123.584 24.3018C124.058 24.6618 124.372 25.138 124.527 25.7305ZM129.271 23.8574V25.0537H125.102V23.8574H129.271ZM126.216 22.0391H127.699V29.2578C127.699 29.6087 127.772 29.8662 127.918 30.0303C128.064 30.1898 128.299 30.2695 128.622 30.2695C128.7 30.2695 128.782 30.265 128.868 30.2559C128.959 30.2467 129.05 30.2331 129.142 30.2148L129.422 31.4453C129.271 31.4954 129.107 31.5342 128.93 31.5615C128.752 31.5889 128.574 31.6025 128.396 31.6025C127.736 31.6025 127.207 31.418 126.811 31.0488C126.414 30.6751 126.216 30.1784 126.216 29.5586V22.0391ZM130.338 31.5V23.8574H131.814V31.5H130.338ZM131.083 22.6816C130.823 22.6816 130.602 22.5951 130.42 22.4219C130.238 22.2487 130.146 22.0413 130.146 21.7998C130.146 21.5537 130.238 21.3441 130.42 21.1709C130.602 20.9977 130.823 20.9111 131.083 20.9111C131.338 20.9111 131.557 20.9977 131.739 21.1709C131.926 21.3441 132.02 21.5537 132.02 21.7998C132.02 22.0413 131.926 22.2487 131.739 22.4219C131.557 22.5951 131.338 22.6816 131.083 22.6816ZM136.442 31.6572C135.709 31.6572 135.075 31.4886 134.542 31.1514C134.009 30.8141 133.599 30.3493 133.312 29.7568C133.024 29.1644 132.881 28.4854 132.881 27.7197C132.881 26.9404 133.027 26.2546 133.318 25.6621C133.615 25.0651 134.027 24.6003 134.556 24.2676C135.089 23.9303 135.713 23.7617 136.429 23.7617C137.012 23.7617 137.529 23.8688 137.98 24.083C138.436 24.2926 138.803 24.5911 139.081 24.9785C139.364 25.3659 139.53 25.8171 139.58 26.332H138.131C138.081 26.0905 137.983 25.8695 137.837 25.6689C137.696 25.4684 137.509 25.3089 137.276 25.1904C137.044 25.0719 136.768 25.0127 136.449 25.0127C136.035 25.0127 135.672 25.1221 135.362 25.3408C135.057 25.555 134.818 25.8626 134.645 26.2637C134.471 26.6647 134.385 27.1387 134.385 27.6855C134.385 28.237 134.469 28.7178 134.638 29.1279C134.806 29.5381 135.046 29.8548 135.355 30.0781C135.67 30.2969 136.035 30.4062 136.449 30.4062C136.878 30.4062 137.242 30.2878 137.543 30.0508C137.848 29.8138 138.044 29.4902 138.131 29.0801H139.58C139.53 29.5768 139.37 30.0189 139.102 30.4062C138.833 30.7936 138.473 31.099 138.021 31.3223C137.57 31.5456 137.044 31.6572 136.442 31.6572ZM146.348 25.7305L145.001 25.9629C144.914 25.7077 144.753 25.473 144.516 25.2588C144.283 25.0446 143.935 24.9375 143.47 24.9375C143.05 24.9375 142.7 25.0332 142.417 25.2246C142.139 25.4115 142 25.6507 142 25.9424C142 26.1976 142.093 26.4049 142.28 26.5645C142.472 26.724 142.775 26.8516 143.189 26.9473L144.413 27.2207C145.11 27.3802 145.632 27.6309 145.979 27.9727C146.325 28.3145 146.498 28.752 146.498 29.2852C146.498 29.7454 146.366 30.1556 146.102 30.5156C145.837 30.8711 145.47 31.1514 145.001 31.3564C144.532 31.557 143.989 31.6572 143.374 31.6572C142.517 31.6572 141.82 31.4727 141.282 31.1035C140.744 30.7344 140.414 30.2148 140.291 29.5449L141.72 29.3262C141.811 29.6999 141.995 29.9824 142.273 30.1738C142.556 30.3652 142.921 30.4609 143.367 30.4609C143.85 30.4609 144.238 30.3584 144.529 30.1533C144.826 29.9482 144.974 29.6999 144.974 29.4082C144.974 28.9251 144.614 28.5993 143.894 28.4307L142.602 28.1436C141.886 27.9795 141.357 27.722 141.016 27.3711C140.678 27.0156 140.51 26.569 140.51 26.0312C140.51 25.5801 140.635 25.1836 140.886 24.8418C141.141 24.5 141.49 24.2357 141.932 24.0488C142.378 23.8574 142.886 23.7617 143.456 23.7617C144.285 23.7617 144.935 23.9417 145.404 24.3018C145.878 24.6618 146.193 25.138 146.348 25.7305Z" fill="#1A1A1C" fill-opacity="0.6"/>
<path d="M19.8281 64.7715V52.043H20.6348V64.7715H19.8281ZM20.2314 63.6641C19.4704 63.6641 18.8096 63.5456 18.249 63.3086C17.693 63.0671 17.2578 62.723 16.9434 62.2764C16.6289 61.8298 16.4535 61.2988 16.417 60.6836H17.9619C17.9938 61.0527 18.1123 61.3604 18.3174 61.6064C18.527 61.848 18.7982 62.028 19.1309 62.1465C19.4635 62.265 19.8281 62.3242 20.2246 62.3242C20.6576 62.3242 21.0449 62.2559 21.3867 62.1191C21.7285 61.9824 21.9951 61.791 22.1865 61.5449C22.3825 61.2943 22.4805 61.0026 22.4805 60.6699C22.4805 60.3691 22.3939 60.123 22.2207 59.9316C22.0521 59.7402 21.8219 59.583 21.5303 59.46C21.2386 59.3324 20.9105 59.2207 20.5459 59.125L19.3496 58.7969C18.5293 58.5781 17.8822 58.2523 17.4082 57.8193C16.9342 57.3818 16.6973 56.8099 16.6973 56.1035C16.6973 55.5156 16.8545 55.0029 17.1689 54.5654C17.488 54.1279 17.9186 53.7884 18.4609 53.5469C19.0078 53.3008 19.6208 53.1777 20.2998 53.1777C20.9925 53.1777 21.6009 53.3008 22.125 53.5469C22.6536 53.7884 23.0706 54.1211 23.376 54.5449C23.6859 54.9642 23.8477 55.445 23.8613 55.9873H22.3711C22.3164 55.5179 22.0977 55.1533 21.7148 54.8936C21.3366 54.6338 20.8535 54.5039 20.2656 54.5039C19.8555 54.5039 19.4954 54.57 19.1855 54.7021C18.8802 54.8298 18.6432 55.0075 18.4746 55.2354C18.3105 55.4632 18.2285 55.7253 18.2285 56.0215C18.2285 56.3405 18.3265 56.6003 18.5225 56.8008C18.723 57.0013 18.9645 57.1608 19.2471 57.2793C19.5342 57.3932 19.8099 57.4867 20.0742 57.5596L21.0654 57.8262C21.389 57.9082 21.7217 58.0176 22.0635 58.1543C22.4053 58.291 22.722 58.471 23.0137 58.6943C23.3099 58.9131 23.5469 59.1865 23.7246 59.5146C23.9069 59.8382 23.998 60.2301 23.998 60.6904C23.998 61.2601 23.8499 61.7705 23.5537 62.2217C23.2575 62.6683 22.8291 63.0215 22.2686 63.2812C21.708 63.5365 21.029 63.6641 20.2314 63.6641ZM28.0176 61.5107V60.2734L32.4131 53.3145H33.3906V55.1465H32.7617L29.6172 60.123V60.2051H35.6533V61.5107H28.0176ZM32.8301 63.5V61.1348L32.8438 60.5674V53.3145H34.3066V63.5H32.8301ZM40.3223 53.3145V63.5H38.8047V54.8594H38.7363L36.3164 56.4521V54.9756L38.8457 53.3145H40.3223ZM42.9609 63.5957C42.6829 63.5957 42.446 63.5 42.25 63.3086C42.0586 63.1172 41.9629 62.8825 41.9629 62.6045C41.9629 62.3265 42.0586 62.0918 42.25 61.9004C42.446 61.709 42.6829 61.6133 42.9609 61.6133C43.2389 61.6133 43.4736 61.709 43.665 61.9004C43.861 62.0918 43.959 62.3265 43.959 62.6045C43.959 62.8825 43.861 63.1172 43.665 63.3086C43.4736 63.5 43.2389 63.5957 42.9609 63.5957ZM48.6553 63.6367C47.9671 63.6367 47.3564 63.5205 46.8232 63.2881C46.29 63.0511 45.8685 62.723 45.5586 62.3037C45.2487 61.8844 45.0846 61.3991 45.0664 60.8477H46.6113C46.6341 61.1484 46.7367 61.4082 46.9189 61.627C47.1012 61.8457 47.3405 62.0166 47.6367 62.1396C47.9375 62.2581 48.2725 62.3174 48.6416 62.3174C49.0426 62.3174 49.3981 62.2467 49.708 62.1055C50.0179 61.9642 50.2594 61.7705 50.4326 61.5244C50.6104 61.2738 50.6992 60.9844 50.6992 60.6562C50.6992 60.3145 50.6126 60.0137 50.4395 59.7539C50.2663 59.4896 50.0133 59.2845 49.6807 59.1387C49.348 58.9928 48.9469 58.9199 48.4775 58.9199H47.6094V57.6621H48.4775C48.8512 57.6621 49.1816 57.5938 49.4688 57.457C49.7559 57.3203 49.9792 57.1312 50.1387 56.8896C50.3027 56.6481 50.3848 56.3633 50.3848 56.0352C50.3848 55.7207 50.3141 55.4473 50.1729 55.2148C50.0316 54.9779 49.8333 54.7956 49.5781 54.668C49.3229 54.5358 49.0221 54.4697 48.6758 54.4697C48.3431 54.4697 48.0332 54.529 47.7461 54.6475C47.459 54.766 47.2243 54.9368 47.042 55.1602C46.8643 55.3789 46.7708 55.6455 46.7617 55.96H45.2783C45.292 55.4085 45.4515 54.9255 45.7568 54.5107C46.0667 54.0915 46.4769 53.7656 46.9873 53.5332C47.5023 53.2962 48.0719 53.1777 48.6963 53.1777C49.348 53.1777 49.9108 53.3053 50.3848 53.5605C50.8633 53.8112 51.2324 54.1484 51.4922 54.5723C51.752 54.9915 51.8818 55.4495 51.8818 55.9463C51.8818 56.5251 51.7223 57.0127 51.4033 57.4092C51.0843 57.8011 50.6582 58.0677 50.125 58.209V58.2842C50.7995 58.389 51.3213 58.6579 51.6904 59.0908C52.0641 59.5238 52.251 60.0615 52.251 60.7041C52.251 61.2646 52.0938 61.766 51.7793 62.208C51.4694 62.6501 51.0433 62.9987 50.501 63.2539C49.9632 63.5091 49.348 63.6367 48.6553 63.6367ZM53.8848 63.5L58.3281 54.709V54.6338H53.1875V53.3145H59.9277V54.6885L55.4912 63.5H53.8848ZM64.1387 53.1709C64.5944 53.1755 65.041 53.2598 65.4785 53.4238C65.9206 53.5833 66.3193 53.8477 66.6748 54.2168C67.0348 54.5859 67.3219 55.085 67.5361 55.7139C67.7503 56.3382 67.8574 57.1175 67.8574 58.0518C67.8574 58.9404 67.7686 59.7311 67.5908 60.4238C67.4131 61.1165 67.1556 61.7021 66.8184 62.1807C66.4857 62.6592 66.0824 63.0238 65.6084 63.2744C65.1344 63.5205 64.6035 63.6436 64.0156 63.6436C63.4095 63.6436 62.8695 63.5228 62.3955 63.2812C61.9215 63.0397 61.5387 62.7093 61.2471 62.29C60.9554 61.8662 60.7708 61.3809 60.6934 60.834H62.2109C62.3112 61.2669 62.514 61.6201 62.8193 61.8936C63.1292 62.1624 63.528 62.2969 64.0156 62.2969C64.7585 62.2969 65.3372 61.971 65.752 61.3193C66.1712 60.6676 66.3831 59.7585 66.3877 58.5918H66.3125C66.1348 58.8789 65.9183 59.1273 65.6631 59.3369C65.4079 59.542 65.1208 59.6992 64.8018 59.8086C64.4827 59.918 64.1455 59.9727 63.79 59.9727C63.1976 59.9727 62.6598 59.8291 62.1768 59.542C61.6937 59.2549 61.3109 58.8607 61.0283 58.3594C60.7458 57.8535 60.6022 57.277 60.5977 56.6299C60.6022 55.9827 60.7503 55.3971 61.042 54.873C61.3382 54.349 61.7507 53.9342 62.2793 53.6289C62.8079 53.319 63.4277 53.1663 64.1387 53.1709ZM64.1455 54.4697C63.7581 54.4697 63.4095 54.5654 63.0996 54.7568C62.7897 54.9482 62.5459 55.2057 62.3682 55.5293C62.1904 55.8529 62.1016 56.2129 62.1016 56.6094C62.1016 57.0059 62.1859 57.3636 62.3545 57.6826C62.5277 58.0016 62.7669 58.2568 63.0723 58.4482C63.3776 58.6351 63.724 58.7285 64.1113 58.7285C64.5033 58.7285 64.8542 58.6305 65.1641 58.4346C65.4785 58.234 65.7292 57.972 65.916 57.6484C66.1029 57.3203 66.1963 56.9671 66.1963 56.5889C66.1963 56.2152 66.1074 55.8665 65.9297 55.543C65.752 55.2194 65.5081 54.9596 65.1982 54.7637C64.8929 54.5677 64.542 54.4697 64.1455 54.4697Z" fill="#1A1A1C"/>
<path opacity="0.2" d="M16 195.5L16 161.214C16 156.796 19.5817 153.214 24 153.214C28.4183 153.214 32 156.796 32 161.214L32 195.5L16 195.5Z" fill="url(#paint1_linear_711_11330)"/>
<path opacity="0.2" d="M50.1641 195.5L50.1641 173.786C50.1641 169.367 53.7458 165.786 58.1641 165.786C62.5823 165.786 66.1641 169.367 66.1641 173.786L66.1641 195.5L50.1641 195.5Z" fill="url(#paint2_linear_711_11330)"/>
<path opacity="0.2" d="M84.3359 195.5L84.3359 145.214C84.3359 140.796 87.9177 137.214 92.3359 137.214C96.7542 137.214 100.336 140.796 100.336 145.214L100.336 195.5L84.3359 195.5Z" fill="url(#paint3_linear_711_11330)"/>
<path opacity="0.2" d="M118.5 195.5L118.5 166.929C118.5 162.51 122.082 158.929 126.5 158.929C130.918 158.929 134.5 162.51 134.5 166.929L134.5 195.5L118.5 195.5Z" fill="url(#paint4_linear_711_11330)"/>
<path d="M152.664 195.5L152.664 154.357C152.664 149.939 156.246 146.357 160.664 146.357C165.082 146.357 168.664 149.939 168.664 154.357L168.664 195.5L152.664 195.5Z" fill="url(#paint5_linear_711_11330)"/>
<path d="M186.836 195.5L186.836 139.5C186.836 135.082 190.418 131.5 194.836 131.5C199.254 131.5 202.836 135.082 202.836 139.5L202.836 195.5L186.836 195.5Z" fill="url(#paint6_linear_711_11330)"/>
<path d="M221 195.5L221 186.357C221 181.939 224.582 178.357 229 178.357C233.418 178.357 237 181.939 237 186.357L237 195.5L221 195.5Z" fill="url(#paint7_linear_711_11330)"/>
<path d="M24.1712 211.644C23.6112 211.644 23.0912 211.54 22.6112 211.332C22.1312 211.116 21.7232 210.824 21.3872 210.456C21.0512 210.088 20.8032 209.664 20.6432 209.184L21.8432 208.68C22.0592 209.232 22.3752 209.656 22.7912 209.952C23.2072 210.248 23.6872 210.396 24.2312 210.396C24.5512 210.396 24.8312 210.348 25.0712 210.252C25.3112 210.148 25.4952 210.004 25.6232 209.82C25.7592 209.636 25.8272 209.424 25.8272 209.184C25.8272 208.856 25.7352 208.596 25.5512 208.404C25.3672 208.212 25.0952 208.06 24.7352 207.948L23.0552 207.42C22.3832 207.212 21.8712 206.896 21.5192 206.472C21.1672 206.04 20.9912 205.536 20.9912 204.96C20.9912 204.456 21.1152 204.016 21.3632 203.64C21.6112 203.256 21.9512 202.956 22.3832 202.74C22.8232 202.524 23.3232 202.416 23.8832 202.416C24.4192 202.416 24.9072 202.512 25.3472 202.704C25.7872 202.888 26.1632 203.144 26.4752 203.472C26.7952 203.8 27.0272 204.18 27.1712 204.612L25.9952 205.128C25.8192 204.656 25.5432 204.292 25.1672 204.036C24.7992 203.78 24.3712 203.652 23.8832 203.652C23.5872 203.652 23.3272 203.704 23.1032 203.808C22.8792 203.904 22.7032 204.048 22.5752 204.24C22.4552 204.424 22.3952 204.64 22.3952 204.888C22.3952 205.176 22.4872 205.432 22.6712 205.656C22.8552 205.88 23.1352 206.048 23.5112 206.16L25.0712 206.652C25.7832 206.868 26.3192 207.18 26.6792 207.588C27.0392 207.988 27.2192 208.488 27.2192 209.088C27.2192 209.584 27.0872 210.024 26.8232 210.408C26.5672 210.792 26.2112 211.096 25.7552 211.32C25.2992 211.536 24.7712 211.644 24.1712 211.644Z" fill="#1A1A1C"/>
<path d="M54.3439 211.5V202.56H55.6639L59.0239 207.216H58.3639L61.6639 202.56H62.9839V211.5H61.5799V204.228L62.1079 204.372L58.7359 208.98H58.5919L55.2919 204.372L55.7599 204.228V211.5H54.3439Z" fill="#1A1A1C"/>
<path d="M92.1506 211.5V203.82H89.7746V202.56H95.8946V203.82H93.5546V211.5H92.1506Z" fill="#1A1A1C"/>
<path d="M124.545 211.5L122.085 202.56H123.585L125.577 210.3H125.205L127.269 202.56H128.745L130.809 210.3H130.425L132.429 202.56H133.917L131.469 211.5H129.873L127.797 203.88H128.217L126.129 211.5H124.545Z" fill="#1A1A1C"/>
<path d="M162.479 211.5V203.82H160.103V202.56H166.223V203.82H163.883V211.5H162.479Z" fill="#1A1A1C"/>
<path d="M193.256 211.5V202.56H199.076V203.82H194.672V206.508H198.596V207.768H194.672V211.5H193.256Z" fill="#1A1A1C"/>
<path d="M229.171 211.644C228.611 211.644 228.091 211.54 227.611 211.332C227.131 211.116 226.723 210.824 226.387 210.456C226.051 210.088 225.803 209.664 225.643 209.184L226.843 208.68C227.059 209.232 227.375 209.656 227.791 209.952C228.207 210.248 228.687 210.396 229.231 210.396C229.551 210.396 229.831 210.348 230.071 210.252C230.311 210.148 230.495 210.004 230.623 209.82C230.759 209.636 230.827 209.424 230.827 209.184C230.827 208.856 230.735 208.596 230.551 208.404C230.367 208.212 230.095 208.06 229.735 207.948L228.055 207.42C227.383 207.212 226.871 206.896 226.519 206.472C226.167 206.04 225.991 205.536 225.991 204.96C225.991 204.456 226.115 204.016 226.363 203.64C226.611 203.256 226.951 202.956 227.383 202.74C227.823 202.524 228.323 202.416 228.883 202.416C229.419 202.416 229.907 202.512 230.347 202.704C230.787 202.888 231.163 203.144 231.475 203.472C231.795 203.8 232.027 204.18 232.171 204.612L230.995 205.128C230.819 204.656 230.543 204.292 230.167 204.036C229.799 203.78 229.371 203.652 228.883 203.652C228.587 203.652 228.327 203.704 228.103 203.808C227.879 203.904 227.703 204.048 227.575 204.24C227.455 204.424 227.395 204.64 227.395 204.888C227.395 205.176 227.487 205.432 227.671 205.656C227.855 205.88 228.135 206.048 228.511 206.16L230.071 206.652C230.783 206.868 231.319 207.18 231.679 207.588C232.039 207.988 232.219 208.488 232.219 209.088C232.219 209.584 232.087 210.024 231.823 210.408C231.567 210.792 231.211 211.096 230.755 211.32C230.299 211.536 229.771 211.644 229.171 211.644Z" fill="#1A1A1C"/>
<rect x="198.906" y="32.5" width="62" height="50" rx="8" transform="rotate(-14 198.906 32.5)" fill="#1A1A1C"/>
<path d="M216.097 63.2533L215.728 61.7752L219.792 54.2402C220.266 53.3651 220.645 52.6102 220.93 51.9757C221.222 51.3392 221.412 50.7604 221.5 50.2394C221.595 49.7165 221.578 49.1973 221.449 48.6819C221.3 48.083 221.028 47.6034 220.632 47.2432C220.242 46.8734 219.775 46.6316 219.231 46.5175C218.687 46.4035 218.108 46.423 217.494 46.5761C216.842 46.7387 216.307 47.0131 215.888 47.3993C215.477 47.7837 215.199 48.2516 215.054 48.8029C214.916 49.3447 214.927 49.9378 215.087 50.5821L213.132 51.0697C212.884 50.0767 212.894 49.1483 213.162 48.2844C213.437 47.4186 213.917 46.679 214.601 46.0655C215.291 45.4426 216.129 45.0082 217.115 44.7625C218.108 44.5149 219.04 44.508 219.911 44.7416C220.781 44.9676 221.521 45.383 222.13 45.9879C222.746 46.5832 223.163 47.3206 223.382 48.1999C223.537 48.8215 223.575 49.4563 223.495 50.1043C223.421 50.7428 223.197 51.4949 222.826 52.3606C222.461 53.2244 221.923 54.2965 221.212 55.5769L218.429 60.5945L218.463 60.731L226.332 58.7691L226.785 60.5884L216.097 63.2533ZM234.688 58.8597C233.444 59.1696 232.298 59.0931 231.249 58.6301C230.199 58.1671 229.283 57.3489 228.499 56.1756C227.713 54.9946 227.091 53.4831 226.632 51.641C226.174 49.8066 226.015 48.1836 226.154 46.772C226.299 45.351 226.726 44.1898 227.436 43.2883C228.143 42.3792 229.114 41.7706 230.35 41.4626C231.586 41.1545 232.729 41.2358 233.781 41.7063C234.83 42.1693 235.748 42.9951 236.536 44.1836C237.329 45.3627 237.954 46.8695 238.412 48.704C238.871 50.546 239.031 52.1728 238.892 53.5843C238.751 54.9883 238.326 56.141 237.616 57.0425C236.915 57.9421 235.938 58.5478 234.688 58.8597ZM234.24 57.0631C235.081 56.8533 235.727 56.4066 236.176 55.7228C236.624 55.0315 236.871 54.1326 236.917 53.026C236.971 51.9176 236.817 50.6394 236.456 49.1916C236.093 47.7361 235.628 46.5317 235.06 45.5782C234.5 44.6229 233.86 43.9451 233.14 43.5448C232.42 43.1446 231.639 43.0493 230.798 43.2591C229.54 43.5729 228.721 44.4212 228.341 45.8042C227.961 47.1872 228.043 48.9702 228.587 51.1534C228.948 52.6013 229.409 53.8029 229.969 54.7582C230.537 55.7117 231.181 56.3885 231.901 56.7888C232.626 57.1796 233.406 57.271 234.24 57.0631ZM250.416 51.315L250.194 50.4281C250.039 49.8065 250.023 49.2068 250.144 48.629C250.274 48.0492 250.546 47.5425 250.961 47.1089C251.376 46.6752 251.936 46.3705 252.641 46.1948C253.362 46.0152 254.003 46.0203 254.566 46.2102C255.128 46.4 255.595 46.7224 255.966 47.1774C256.345 47.6305 256.612 48.1679 256.767 48.7895L256.988 49.6764C257.143 50.298 257.159 50.8977 257.038 51.4755C256.916 52.0534 256.652 52.5582 256.244 52.9899C255.836 53.4217 255.276 53.7264 254.564 53.9041C253.851 54.0817 253.21 54.0766 252.639 53.8886C252.069 53.7007 251.595 53.3802 251.216 52.9271C250.837 52.474 250.571 51.9366 250.416 51.315ZM251.877 50.0085L252.098 50.8954C252.227 51.4109 252.464 51.8431 252.808 52.1919C253.151 52.5332 253.619 52.6339 254.212 52.4941C254.794 52.341 255.152 52.0343 255.287 51.5739C255.427 51.1041 255.433 50.6114 255.305 50.096L255.084 49.209C254.955 48.6936 254.723 48.2643 254.388 47.9211C254.061 47.576 253.598 47.4781 252.999 47.6275C252.423 47.7711 252.059 48.075 251.91 48.5391C251.76 49.0033 251.749 49.4931 251.877 50.0085ZM239.563 43.7308L239.342 42.8439C239.187 42.2223 239.174 41.6216 239.303 41.0419C239.433 40.4622 239.701 39.9564 240.109 39.5247C240.524 39.091 241.084 38.7863 241.789 38.6105C242.509 38.431 243.151 38.4361 243.713 38.626C244.283 38.8139 244.754 39.1354 245.125 39.5904C245.504 40.0435 245.767 40.5818 245.914 41.2053L246.135 42.0922C246.296 42.7043 246.313 43.304 246.185 43.8913C246.064 44.4692 245.799 44.974 245.391 45.4057C244.984 45.8375 244.424 46.1422 243.711 46.3198C242.999 46.4975 242.357 46.4924 241.787 46.3044C241.217 46.1165 240.742 45.7959 240.364 45.3428C239.983 44.8822 239.716 44.3448 239.563 43.7308ZM241.025 42.4243L241.246 43.3112C241.375 43.8267 241.611 44.2589 241.956 44.6077C242.298 44.949 242.765 45.0421 243.354 44.8871C243.939 44.7492 244.3 44.45 244.435 43.9897C244.575 43.5199 244.581 43.0272 244.453 42.5117L244.231 41.6248C244.103 41.1094 243.871 40.68 243.536 40.3369C243.206 39.9842 242.743 39.8864 242.146 40.0432C241.568 40.1793 241.205 40.4832 241.057 40.9549C240.907 41.419 240.896 41.9088 241.025 42.4243ZM243.409 56.4436L250.828 36.5983L252.716 36.1277L245.297 55.973L243.409 56.4436Z" fill="white"/>
<defs>
<linearGradient id="paint0_linear_711_11330" x1="126.5" y1="0.5" x2="126.5" y2="227.5" gradientUnits="userSpaceOnUse">
<stop stop-color="#F9EB57" stop-opacity="0.4"/>
<stop offset="1" stop-color="#F9EB57" stop-opacity="0.1"/>
</linearGradient>
<linearGradient id="paint1_linear_711_11330" x1="23.9998" y1="155.563" x2="23.9998" y2="195.5" gradientUnits="userSpaceOnUse">
<stop stop-color="#864FFE"/>
<stop offset="1" stop-color="#864FFE" stop-opacity="0.28"/>
</linearGradient>
<linearGradient id="paint2_linear_711_11330" x1="58.1638" y1="167.437" x2="58.1638" y2="195.5" gradientUnits="userSpaceOnUse">
<stop stop-color="#864FFE"/>
<stop offset="1" stop-color="#864FFE" stop-opacity="0.28"/>
</linearGradient>
<linearGradient id="paint3_linear_711_11330" x1="92.3357" y1="140.452" x2="92.3357" y2="195.5" gradientUnits="userSpaceOnUse">
<stop stop-color="#864FFE"/>
<stop offset="1" stop-color="#864FFE" stop-opacity="0.28"/>
</linearGradient>
<linearGradient id="paint4_linear_711_11330" x1="126.5" y1="160.96" x2="126.5" y2="195.5" gradientUnits="userSpaceOnUse">
<stop stop-color="#864FFE"/>
<stop offset="1" stop-color="#864FFE" stop-opacity="0.28"/>
</linearGradient>
<linearGradient id="paint5_linear_711_11330" x1="160.664" y1="149.087" x2="160.664" y2="195.5" gradientUnits="userSpaceOnUse">
<stop stop-color="#864FFE"/>
<stop offset="1" stop-color="#864FFE" stop-opacity="0.28"/>
</linearGradient>
<linearGradient id="paint6_linear_711_11330" x1="194.836" y1="135.056" x2="194.836" y2="195.5" gradientUnits="userSpaceOnUse">
<stop stop-color="#864FFE"/>
<stop offset="1" stop-color="#864FFE" stop-opacity="0.28"/>
</linearGradient>
<linearGradient id="paint7_linear_711_11330" x1="229" y1="179.31" x2="229" y2="195.5" gradientUnits="userSpaceOnUse">
<stop stop-color="#864FFE"/>
<stop offset="1" stop-color="#864FFE" stop-opacity="0.28"/>
</linearGradient>
</defs>
</svg>
