<svg width="338" height="138" viewBox="0 0 338 138" fill="none" xmlns="http://www.w3.org/2000/svg">
<rect width="338" height="138" fill="#A585FF"/>
<rect x="20" y="21" width="40" height="40" rx="4" fill="#FCFCFC"/>
<path fill-rule="evenodd" clip-rule="evenodd" d="M39.9976 31.0003L39.9978 31V31.0006L44.9946 40.7747L44.9962 40.7756L39.9985 44.2582V44.2581L39.9978 44.2586V44.2589L39.9976 44.2587L39.9975 44.2588L39.9971 44.2584L35 40.7761L35.0002 40.7757L35 40.7756L35.0004 40.7754L39.9972 31.0012L39.9975 31L39.9976 31.0003ZM39.9978 50.9963V50.9983L35 42.6956L39.9969 46.1759L39.9976 46.1749L44.9984 42.694L39.9978 50.9963Z" fill="#1A1A1C"/>
<path fill-rule="evenodd" clip-rule="evenodd" d="M39.9976 31.0003L39.9978 31V31.0006L44.9946 40.7747L44.9962 40.7756L39.9985 44.2582V44.2581L39.9978 44.2586V44.2589L39.9976 44.2587L39.9975 44.2588L39.9971 44.2584L35 40.7761L35.0002 40.7757L35 40.7756L35.0004 40.7754L39.9972 31.0012L39.9975 31L39.9976 31.0003ZM39.9978 50.9963V50.9983L35 42.6956L39.9969 46.1759L39.9976 46.1749L44.9984 42.694L39.9978 50.9963Z" fill="black" fill-opacity="0.2"/>
<path fill-rule="evenodd" clip-rule="evenodd" d="M39.9976 31.0003L39.9978 31V31.0006L44.9946 40.7747L44.9962 40.7756L39.9985 44.2582V44.2581L39.9978 44.2586V44.2589L39.9976 44.2587L39.9975 44.2588L39.9971 44.2584L35 40.7761L35.0002 40.7757L35 40.7756L35.0004 40.7754L39.9972 31.0012L39.9975 31L39.9976 31.0003ZM39.9978 50.9963V50.9983L35 42.6956L39.9969 46.1759L39.9976 46.1749L44.9984 42.694L39.9978 50.9963Z" fill="black" fill-opacity="0.2"/>
<path fill-rule="evenodd" clip-rule="evenodd" d="M39.9976 31.0003L39.9978 31V31.0006L44.9946 40.7747L44.9962 40.7756L39.9985 44.2582V44.2581L39.9978 44.2586V44.2589L39.9976 44.2587L39.9975 44.2588L39.9971 44.2584L35 40.7761L35.0002 40.7757L35 40.7756L35.0004 40.7754L39.9972 31.0012L39.9975 31L39.9976 31.0003ZM39.9978 50.9963V50.9983L35 42.6956L39.9969 46.1759L39.9976 46.1749L44.9984 42.694L39.9978 50.9963Z" fill="black" fill-opacity="0.2"/>
<path d="M20.7734 88V79.2695H26.0469V80.207H21.8281V83.125H25.7656V84.0625H21.8281V87.0625H26.1055V88H20.7734ZM26.9023 80.207V79.2695H33.4531V80.207H30.7109V88H29.6562V80.207H26.9023ZM34.5195 79.2695H35.7852L38.75 86.5117H38.8555L41.8203 79.2695H43.127V88H42.0898V81.3672H42.0078L39.2598 88H38.3105L35.5977 81.3672H35.5156V88H34.5195V79.2695Z" fill="#FCFCFC"/>
<path d="M61.6394 83.5996C61.5444 83.5996 61.4494 83.5646 61.3744 83.4896C61.2294 83.3446 61.2294 83.1046 61.3744 82.9596L62.9694 81.3646L61.3744 79.7696C61.2294 79.6246 61.2294 79.3846 61.3744 79.2396C61.5194 79.0946 61.7594 79.0946 61.9044 79.2396L63.7644 81.0996C63.8344 81.1696 63.8744 81.2646 63.8744 81.3646C63.8744 81.4646 63.8344 81.5596 63.7644 81.6296L61.9044 83.4896C61.8294 83.5596 61.7344 83.5996 61.6394 83.5996Z" fill="#FCFCFC"/>
<path d="M63.5 81.7402H54.5C54.295 81.7402 54.125 81.5702 54.125 81.3652C54.125 81.1602 54.295 80.9902 54.5 80.9902H63.5C63.705 80.9902 63.875 81.1602 63.875 81.3652C63.875 81.5702 63.705 81.7402 63.5 81.7402Z" fill="#FCFCFC"/>
<path d="M56.36 88.875C56.265 88.875 56.17 88.84 56.095 88.765L54.235 86.905C54.165 86.835 54.125 86.74 54.125 86.64C54.125 86.54 54.165 86.445 54.235 86.375L56.095 84.515C56.24 84.37 56.48 84.37 56.625 84.515C56.77 84.66 56.77 84.9 56.625 85.045L55.03 86.64L56.625 88.235C56.77 88.38 56.77 88.62 56.625 88.765C56.555 88.84 56.46 88.875 56.36 88.875Z" fill="#FCFCFC"/>
<path d="M63.5 87.0098H54.5C54.295 87.0098 54.125 86.8398 54.125 86.6348C54.125 86.4298 54.295 86.2598 54.5 86.2598H63.5C63.705 86.2598 63.875 86.4298 63.875 86.6348C63.875 86.8398 63.705 87.0098 63.5 87.0098Z" fill="#FCFCFC"/>
<path d="M80.5039 79.2695H81.5586V85.0469C81.5586 85.6445 81.418 86.1777 81.1367 86.6465C80.8594 87.1113 80.4668 87.4785 79.959 87.748C79.4512 88.0176 78.8555 88.1523 78.1719 88.1523C77.4883 88.1523 76.8906 88.0176 76.3789 87.748C75.8711 87.4785 75.4766 87.1113 75.1953 86.6465C74.9141 86.1777 74.7734 85.6445 74.7734 85.0469V79.2695H75.8281V84.9648C75.8281 85.3906 75.9219 85.7695 76.1094 86.1016C76.2969 86.4336 76.5664 86.6953 76.918 86.8867C77.2695 87.0742 77.6875 87.168 78.1719 87.168C78.6562 87.168 79.0723 87.0742 79.4199 86.8867C79.7676 86.6953 80.0352 86.4336 80.2227 86.1016C80.4102 85.7695 80.5039 85.3906 80.5039 84.9648V79.2695ZM85.8711 88.1523C85.2461 88.1523 84.7051 88.0527 84.248 87.8535C83.791 87.6504 83.4316 87.3691 83.1699 87.0098C82.9121 86.6465 82.7656 86.2266 82.7305 85.75H83.8203C83.8516 86.0781 83.9629 86.3496 84.1543 86.5645C84.3496 86.7793 84.5977 86.9395 84.8984 87.0449C85.1992 87.1504 85.5234 87.2031 85.8711 87.2031C86.2734 87.2031 86.6348 87.1367 86.9551 87.0039C87.2793 86.8711 87.5352 86.6855 87.7227 86.4473C87.9102 86.209 88.0039 85.9297 88.0039 85.6094C88.0039 85.3203 87.9219 85.0859 87.7578 84.9062C87.5938 84.7266 87.3789 84.5801 87.1133 84.4668C86.8516 84.3535 86.5664 84.2539 86.2578 84.168L85.1914 83.8633C84.5078 83.668 83.9668 83.3887 83.5684 83.0254C83.1738 82.6582 82.9766 82.1797 82.9766 81.5898C82.9766 81.1016 83.1074 80.6758 83.3691 80.3125C83.6348 79.9453 83.9922 79.6602 84.4414 79.457C84.8945 79.2539 85.3984 79.1523 85.9531 79.1523C86.5156 79.1523 87.0156 79.2539 87.4531 79.457C87.8906 79.6562 88.2383 79.9297 88.4961 80.2773C88.7539 80.6211 88.8906 81.0117 88.9062 81.4492H87.875C87.8242 81.0195 87.6172 80.6855 87.2539 80.4473C86.8945 80.209 86.4492 80.0898 85.918 80.0898C85.5352 80.0898 85.1992 80.1523 84.9102 80.2773C84.6211 80.4023 84.3965 80.5742 84.2363 80.793C84.0762 81.0117 83.9961 81.2617 83.9961 81.543C83.9961 81.8516 84.0918 82.1016 84.2832 82.293C84.4746 82.4805 84.7012 82.627 84.9629 82.7324C85.2285 82.8379 85.4688 82.9219 85.6836 82.9844L86.5625 83.2305C86.7891 83.293 87.041 83.377 87.3184 83.4824C87.5996 83.5879 87.8691 83.7305 88.127 83.9102C88.3887 84.0898 88.6035 84.3203 88.7715 84.6016C88.9395 84.8789 89.0234 85.2227 89.0234 85.6328C89.0234 86.1016 88.9004 86.5273 88.6543 86.9102C88.4082 87.2891 88.0508 87.5918 87.582 87.8184C87.1133 88.041 86.543 88.1523 85.8711 88.1523ZM92.8906 88H90.793V87.0625H92.8203C93.543 87.0625 94.1406 86.9238 94.6133 86.6465C95.0898 86.3691 95.4453 85.9727 95.6797 85.457C95.9141 84.9414 96.0312 84.3281 96.0312 83.6172C96.0312 82.9141 95.916 82.3086 95.6855 81.8008C95.4551 81.2891 95.1094 80.8965 94.6484 80.623C94.1914 80.3457 93.6211 80.207 92.9375 80.207H90.7461V79.2695H93.0078C93.8555 79.2695 94.5801 79.4434 95.1816 79.791C95.7871 80.1387 96.25 80.6387 96.5703 81.291C96.8906 81.9395 97.0508 82.7148 97.0508 83.6172C97.0508 84.5273 96.8887 85.3105 96.5645 85.9668C96.2402 86.6191 95.7676 87.1211 95.1465 87.4727C94.5293 87.8242 93.7773 88 92.8906 88ZM91.25 79.2695V88H90.1953V79.2695H91.25Z" fill="#FCFCFC"/>
<path d="M182.57 84.8438V83.1641L187.516 75.3594H188.906V77.75H188.055L184.727 83.0156V83.1094H191.625V84.8438H182.57ZM188.117 87V84.3359L188.148 83.5781V75.3594H190.133V87H188.117ZM196.891 87.1562C196.13 87.1562 195.451 87.0156 194.852 86.7344C194.258 86.4479 193.784 86.0547 193.43 85.5547C193.081 85.0547 192.896 84.4818 192.875 83.8359H194.922C194.953 84.3099 195.156 84.6979 195.531 85C195.911 85.3021 196.365 85.4531 196.891 85.4531C197.307 85.4531 197.674 85.3594 197.992 85.1719C198.31 84.9792 198.56 84.7161 198.742 84.3828C198.93 84.0443 199.023 83.6589 199.023 83.2266C199.023 82.7839 198.93 82.3932 198.742 82.0547C198.555 81.7109 198.297 81.4427 197.969 81.25C197.641 81.0521 197.263 80.9531 196.836 80.9531C196.482 80.9531 196.138 81.0208 195.805 81.1562C195.471 81.2865 195.206 81.4583 195.008 81.6719L193.094 81.3594L193.703 75.3594H200.461V77.125H195.453L195.117 80.2109H195.18C195.398 79.9505 195.703 79.7396 196.094 79.5781C196.49 79.4115 196.924 79.3281 197.398 79.3281C198.107 79.3281 198.734 79.4948 199.281 79.8281C199.833 80.1562 200.268 80.6094 200.586 81.1875C200.904 81.7656 201.062 82.4297 201.062 83.1797C201.062 83.9453 200.885 84.6302 200.531 85.2344C200.177 85.8333 199.688 86.3047 199.062 86.6484C198.438 86.987 197.714 87.1562 196.891 87.1562ZM206.625 87.1562C206.068 87.1562 205.523 87.0625 204.992 86.875C204.461 86.6823 203.984 86.3698 203.562 85.9375C203.141 85.5 202.805 84.9193 202.555 84.1953C202.305 83.4714 202.18 82.5755 202.18 81.5078C202.18 80.513 202.286 79.6276 202.5 78.8516C202.714 78.0703 203.018 77.4089 203.414 76.8672C203.815 76.3255 204.294 75.9141 204.852 75.6328C205.414 75.3464 206.044 75.2031 206.742 75.2031C207.477 75.2031 208.125 75.349 208.688 75.6406C209.255 75.9271 209.714 76.3177 210.062 76.8125C210.411 77.3073 210.628 77.8698 210.711 78.5H208.641C208.536 78.0521 208.32 77.6953 207.992 77.4297C207.664 77.1641 207.247 77.0312 206.742 77.0312C205.94 77.0312 205.32 77.3802 204.883 78.0781C204.451 78.776 204.234 79.7396 204.234 80.9688H204.312C204.5 80.6354 204.74 80.349 205.031 80.1094C205.328 79.8646 205.661 79.6797 206.031 79.5547C206.406 79.4245 206.802 79.3594 207.219 79.3594C207.901 79.3594 208.513 79.5234 209.055 79.8516C209.596 80.1745 210.026 80.6224 210.344 81.1953C210.661 81.763 210.82 82.4141 210.82 83.1484C210.82 83.9141 210.646 84.599 210.297 85.2031C209.948 85.8073 209.458 86.2839 208.828 86.6328C208.198 86.9818 207.464 87.1562 206.625 87.1562ZM206.609 85.4531C207.026 85.4531 207.396 85.3542 207.719 85.1562C208.047 84.9531 208.305 84.6823 208.492 84.3438C208.685 84 208.781 83.6172 208.781 83.1953C208.781 82.7786 208.688 82.4036 208.5 82.0703C208.318 81.7318 208.065 81.4635 207.742 81.2656C207.424 81.0677 207.057 80.9688 206.641 80.9688C206.234 80.9688 205.865 81.0703 205.531 81.2734C205.203 81.4766 204.943 81.7474 204.75 82.0859C204.557 82.4245 204.461 82.7969 204.461 83.2031C204.461 83.6094 204.555 83.9844 204.742 84.3281C204.93 84.6667 205.185 84.9401 205.508 85.1484C205.831 85.3516 206.198 85.4531 206.609 85.4531ZM212.531 87L217.477 77.2031V77.125H211.734V75.3594H219.672V77.1719L214.719 87H212.531ZM220.273 87.1328C219.919 87.1328 219.62 87.013 219.375 86.7734C219.135 86.5286 219.016 86.2318 219.016 85.8828C219.016 85.5339 219.135 85.2396 219.375 85C219.62 84.7552 219.919 84.6328 220.273 84.6328C220.628 84.6328 220.924 84.7552 221.164 85C221.409 85.2396 221.531 85.5339 221.531 85.8828C221.531 86.2318 221.409 86.5286 221.164 86.7734C220.924 87.013 220.628 87.1328 220.273 87.1328ZM226.406 75.3594V87H224.312V77.4141H224.242L221.523 79.1562V77.2188L224.414 75.3594H226.406ZM232.25 87.1562C231.693 87.1562 231.148 87.0625 230.617 86.875C230.086 86.6823 229.609 86.3698 229.188 85.9375C228.766 85.5 228.43 84.9193 228.18 84.1953C227.93 83.4714 227.805 82.5755 227.805 81.5078C227.805 80.513 227.911 79.6276 228.125 78.8516C228.339 78.0703 228.643 77.4089 229.039 76.8672C229.44 76.3255 229.919 75.9141 230.477 75.6328C231.039 75.3464 231.669 75.2031 232.367 75.2031C233.102 75.2031 233.75 75.349 234.312 75.6406C234.88 75.9271 235.339 76.3177 235.688 76.8125C236.036 77.3073 236.253 77.8698 236.336 78.5H234.266C234.161 78.0521 233.945 77.6953 233.617 77.4297C233.289 77.1641 232.872 77.0312 232.367 77.0312C231.565 77.0312 230.945 77.3802 230.508 78.0781C230.076 78.776 229.859 79.7396 229.859 80.9688H229.938C230.125 80.6354 230.365 80.349 230.656 80.1094C230.953 79.8646 231.286 79.6797 231.656 79.5547C232.031 79.4245 232.427 79.3594 232.844 79.3594C233.526 79.3594 234.138 79.5234 234.68 79.8516C235.221 80.1745 235.651 80.6224 235.969 81.1953C236.286 81.763 236.445 82.4141 236.445 83.1484C236.445 83.9141 236.271 84.599 235.922 85.2031C235.573 85.8073 235.083 86.2839 234.453 86.6328C233.823 86.9818 233.089 87.1562 232.25 87.1562ZM232.234 85.4531C232.651 85.4531 233.021 85.3542 233.344 85.1562C233.672 84.9531 233.93 84.6823 234.117 84.3438C234.31 84 234.406 83.6172 234.406 83.1953C234.406 82.7786 234.312 82.4036 234.125 82.0703C233.943 81.7318 233.69 81.4635 233.367 81.2656C233.049 81.0677 232.682 80.9688 232.266 80.9688C231.859 80.9688 231.49 81.0703 231.156 81.2734C230.828 81.4766 230.568 81.7474 230.375 82.0859C230.182 82.4245 230.086 82.7969 230.086 83.2031C230.086 83.6094 230.18 83.9844 230.367 84.3281C230.555 84.6667 230.81 84.9401 231.133 85.1484C231.456 85.3516 231.823 85.4531 232.234 85.4531Z" fill="#FCFCFC"/>
<path fill-rule="evenodd" clip-rule="evenodd" d="M30.3698 106.924H28.6157V104.924H32.6157H33.6157V105.924V109.924H31.6157V108.506L28.318 111.804L27.6109 112.511L26.9038 111.804L24.7945 109.695L21.4142 113.075L20 111.661L24.0874 107.574L24.7945 106.866L25.5016 107.574L27.6109 109.683L30.3698 106.924Z" fill="#FCFCFC"/>
<path d="M41.6641 114.637C41.2493 114.637 40.8324 114.562 40.4131 114.411C39.9938 114.256 39.611 113.999 39.2646 113.639C38.9229 113.274 38.6471 112.78 38.4375 112.155C38.2279 111.531 38.123 110.749 38.123 109.811C38.123 108.908 38.2074 108.108 38.376 107.411C38.5492 106.714 38.7952 106.126 39.1143 105.647C39.4378 105.164 39.8275 104.8 40.2832 104.554C40.7389 104.303 41.2539 104.178 41.8281 104.178C42.3978 104.178 42.9036 104.292 43.3457 104.52C43.7923 104.747 44.1569 105.064 44.4395 105.47C44.722 105.871 44.9043 106.333 44.9863 106.857H43.7832C43.6693 106.402 43.4482 106.023 43.1201 105.723C42.7965 105.422 42.3659 105.271 41.8281 105.271C41.0397 105.271 40.4176 105.616 39.9619 106.304C39.5107 106.987 39.2852 107.951 39.2852 109.195H39.3672C39.554 108.913 39.7751 108.671 40.0303 108.471C40.2855 108.266 40.568 108.111 40.8779 108.006C41.1878 107.896 41.5182 107.842 41.8691 107.842C42.4525 107.842 42.9857 107.988 43.4688 108.279C43.9518 108.566 44.3392 108.965 44.6309 109.476C44.9225 109.981 45.0684 110.562 45.0684 111.219C45.0684 111.848 44.9271 112.422 44.6445 112.941C44.3665 113.456 43.9723 113.869 43.4619 114.179C42.9515 114.484 42.3522 114.637 41.6641 114.637ZM41.6641 113.543C42.0833 113.543 42.4593 113.44 42.792 113.235C43.1247 113.026 43.389 112.745 43.585 112.395C43.7809 112.039 43.8789 111.647 43.8789 111.219C43.8789 110.795 43.7832 110.412 43.5918 110.07C43.4049 109.724 43.1475 109.448 42.8193 109.243C42.4958 109.038 42.1243 108.936 41.7051 108.936C41.2858 108.936 40.9053 109.043 40.5635 109.257C40.2262 109.471 39.9574 109.754 39.7568 110.104C39.5609 110.451 39.4629 110.827 39.4629 111.232C39.4629 111.638 39.5586 112.019 39.75 112.374C39.9414 112.725 40.2012 113.007 40.5293 113.222C40.862 113.436 41.2402 113.543 41.6641 113.543ZM46.4768 114.582C46.2307 114.582 46.0188 114.495 45.8411 114.322C45.6679 114.145 45.5813 113.933 45.5813 113.687C45.5813 113.44 45.6679 113.231 45.8411 113.058C46.0188 112.88 46.2307 112.791 46.4768 112.791C46.7229 112.791 46.9326 112.88 47.1057 113.058C47.2835 113.231 47.3723 113.44 47.3723 113.687C47.3723 113.933 47.2835 114.145 47.1057 114.322C46.9326 114.495 46.7229 114.582 46.4768 114.582ZM51.563 114.637C50.9797 114.637 50.4533 114.523 49.9839 114.295C49.5191 114.062 49.1454 113.743 48.8629 113.338C48.5803 112.932 48.4276 112.472 48.4048 111.957H49.5943C49.6399 112.413 49.8472 112.791 50.2164 113.092C50.5901 113.393 51.039 113.543 51.563 113.543C51.9823 113.543 52.3537 113.445 52.6773 113.249C53.0009 113.053 53.2561 112.784 53.4429 112.442C53.6298 112.101 53.7232 111.711 53.7232 111.273C53.7232 110.831 53.6252 110.435 53.4293 110.084C53.2379 109.733 52.9735 109.457 52.6363 109.257C52.299 109.052 51.914 108.949 51.481 108.949C51.1666 108.949 50.8453 108.999 50.5171 109.1C50.1936 109.195 49.927 109.318 49.7173 109.469L48.5552 109.332L49.1705 104.314H54.4615V105.408H50.2095L49.8541 108.416H49.9087C50.1184 108.247 50.3804 108.111 50.6949 108.006C51.0093 107.896 51.3397 107.842 51.6861 107.842C52.3104 107.842 52.8664 107.99 53.3541 108.286C53.8417 108.582 54.2245 108.988 54.5025 109.503C54.7851 110.013 54.9263 110.599 54.9263 111.26C54.9263 111.907 54.7805 112.486 54.4888 112.996C54.1972 113.507 53.7984 113.908 53.2925 114.199C52.7867 114.491 52.2102 114.637 51.563 114.637ZM61.0721 112.586V112.053C61.0721 111.679 61.1473 111.337 61.2977 111.027C61.4526 110.717 61.6782 110.469 61.9745 110.282C62.2707 110.095 62.6307 110.002 63.0545 110.002C63.4875 110.002 63.8498 110.095 64.1414 110.282C64.4331 110.469 64.6519 110.717 64.7977 111.027C64.9481 111.337 65.0233 111.679 65.0233 112.053V112.586C65.0233 112.96 64.9481 113.301 64.7977 113.611C64.6473 113.921 64.4263 114.17 64.1346 114.356C63.8429 114.543 63.4829 114.637 63.0545 114.637C62.6261 114.637 62.2638 114.543 61.9676 114.356C61.6714 114.17 61.4481 113.921 61.2977 113.611C61.1473 113.301 61.0721 112.96 61.0721 112.586ZM62.0838 112.053V112.586C62.0838 112.896 62.1567 113.174 62.3026 113.42C62.4484 113.661 62.6991 113.785 63.0545 113.789C63.4054 113.785 63.6515 113.661 63.7928 113.42C63.9386 113.174 64.0116 112.896 64.0116 112.586V112.053C64.0116 111.743 63.9409 111.467 63.7996 111.226C63.6629 110.984 63.4146 110.863 63.0545 110.863C62.7082 110.863 62.4598 110.984 62.3094 111.226C62.159 111.467 62.0838 111.743 62.0838 112.053ZM55.9998 106.762V106.229C55.9998 105.855 56.0773 105.513 56.2323 105.203C56.3872 104.893 56.6105 104.645 56.9022 104.458C57.1984 104.271 57.5584 104.178 57.9823 104.178C58.4152 104.178 58.7775 104.271 59.0692 104.458C59.3654 104.645 59.5864 104.893 59.7323 105.203C59.8827 105.513 59.9556 105.855 59.951 106.229V106.762C59.9556 107.131 59.8804 107.473 59.7254 107.787C59.575 108.097 59.354 108.345 59.0623 108.532C58.7707 108.719 58.4107 108.812 57.9823 108.812C57.5539 108.812 57.1916 108.719 56.8954 108.532C56.5991 108.345 56.3758 108.097 56.2254 107.787C56.075 107.473 55.9998 107.131 55.9998 106.762ZM57.0116 106.229V106.762C57.0116 107.072 57.0845 107.35 57.2303 107.596C57.3761 107.837 57.6268 107.956 57.9823 107.951C58.3332 107.956 58.5793 107.837 58.7205 107.596C58.8664 107.35 58.9393 107.072 58.9393 106.762V106.229C58.9393 105.919 58.8687 105.643 58.7274 105.401C58.5907 105.155 58.3423 105.035 57.9823 105.039C57.6359 105.035 57.3875 105.155 57.2371 105.401C57.0868 105.643 57.0116 105.919 57.0116 106.229ZM56.3827 114.5L63.3827 104.314H64.5174L57.5174 114.5H56.3827Z" fill="#FCFCFC"/>
<path d="M310 17C297.913 43 286.515 76.1915 262.256 76.1915C232.65 76.9885 226.598 47.4255 201.215 49.0851C158.305 49.0851 174.019 121 116 121" stroke="url(#paint0_linear_931_10970)" stroke-width="2"/>
<defs>
<linearGradient id="paint0_linear_931_10970" x1="310" y1="17" x2="147.359" y2="157.341" gradientUnits="userSpaceOnUse">
<stop offset="0.125" stop-color="#864FFE" stop-opacity="0"/>
<stop offset="0.488932" stop-color="#864FFE"/>
<stop offset="1" stop-color="#864FFE" stop-opacity="0"/>
</linearGradient>
</defs>
</svg>
