<svg width="338" height="110" viewBox="0 0 338 110" fill="none" xmlns="http://www.w3.org/2000/svg">
<rect width="338" height="110" fill="#FCFCFC" fill-opacity="0.05"/>
<path d="M19.9941 89.7266C19.3691 89.7266 18.8281 89.627 18.3711 89.4277C17.9141 89.2246 17.5547 88.9434 17.293 88.584C17.0352 88.2207 16.8887 87.8008 16.8535 87.3242H17.9434C17.9746 87.6523 18.0859 87.9238 18.2773 88.1387C18.4727 88.3535 18.7207 88.5137 19.0215 88.6191C19.3223 88.7246 19.6465 88.7773 19.9941 88.7773C20.3965 88.7773 20.7578 88.7109 21.0781 88.5781C21.4023 88.4453 21.6582 88.2598 21.8457 88.0215C22.0332 87.7832 22.127 87.5039 22.127 87.1836C22.127 86.8945 22.0449 86.6602 21.8809 86.4805C21.7168 86.3008 21.502 86.1543 21.2363 86.041C20.9746 85.9277 20.6895 85.8281 20.3809 85.7422L19.3145 85.4375C18.6309 85.2422 18.0898 84.9629 17.6914 84.5996C17.2969 84.2324 17.0996 83.7539 17.0996 83.1641C17.0996 82.6758 17.2305 82.25 17.4922 81.8867C17.7578 81.5195 18.1152 81.2344 18.5645 81.0312C19.0176 80.8281 19.5215 80.7266 20.0762 80.7266C20.6387 80.7266 21.1387 80.8281 21.5762 81.0312C22.0137 81.2305 22.3613 81.5039 22.6191 81.8516C22.877 82.1953 23.0137 82.5859 23.0293 83.0234H21.998C21.9473 82.5938 21.7402 82.2598 21.377 82.0215C21.0176 81.7832 20.5723 81.6641 20.041 81.6641C19.6582 81.6641 19.3223 81.7266 19.0332 81.8516C18.7441 81.9766 18.5195 82.1484 18.3594 82.3672C18.1992 82.5859 18.1191 82.8359 18.1191 83.1172C18.1191 83.4258 18.2148 83.6758 18.4062 83.8672C18.5977 84.0547 18.8242 84.2012 19.0859 84.3066C19.3516 84.4121 19.5918 84.4961 19.8066 84.5586L20.6855 84.8047C20.9121 84.8672 21.1641 84.9512 21.4414 85.0566C21.7227 85.1621 21.9922 85.3047 22.25 85.4844C22.5117 85.6641 22.7266 85.8945 22.8945 86.1758C23.0625 86.4531 23.1465 86.7969 23.1465 87.207C23.1465 87.6758 23.0234 88.1016 22.7773 88.4844C22.5312 88.8633 22.1738 89.166 21.7051 89.3926C21.2363 89.6152 20.666 89.7266 19.9941 89.7266Z" fill="#FCFCFC"/>
<path d="M63.1934 80.8438H64.459L67.4238 88.0859H67.5293L70.4941 80.8438H71.8008V89.5742H70.7637V82.9414H70.6816L67.9336 89.5742H66.9844L64.2715 82.9414H64.1895V89.5742H63.1934V80.8438Z" fill="#FCFCFC"/>
<path d="M110.725 81.7812V80.8438H117.275V81.7812H114.533V89.5742H113.479V81.7812H110.725Z" fill="#FCFCFC"/>
<path d="M158.441 89.5742L156.062 80.8438H157.129L158.957 87.957H159.039L160.902 80.8438H162.098L163.949 87.957H164.043L165.859 80.8438H166.938L164.547 89.5742H163.457L161.535 82.625H161.465L159.543 89.5742H158.441Z" fill="#FCFCFC"/>
<path d="M204.725 81.7812V80.8438H211.275V81.7812H208.533V89.5742H207.479V81.7812H204.725Z" fill="#FCFCFC"/>
<path d="M253.033 89.5742V80.8438H258.271V81.7812H254.088V84.8281H257.873V85.7656H254.088V89.5742H253.033Z" fill="#FCFCFC"/>
<path d="M301.994 89.7266C301.369 89.7266 300.828 89.627 300.371 89.4277C299.914 89.2246 299.555 88.9434 299.293 88.584C299.035 88.2207 298.889 87.8008 298.854 87.3242H299.943C299.975 87.6523 300.086 87.9238 300.277 88.1387C300.473 88.3535 300.721 88.5137 301.021 88.6191C301.322 88.7246 301.646 88.7773 301.994 88.7773C302.396 88.7773 302.758 88.7109 303.078 88.5781C303.402 88.4453 303.658 88.2598 303.846 88.0215C304.033 87.7832 304.127 87.5039 304.127 87.1836C304.127 86.8945 304.045 86.6602 303.881 86.4805C303.717 86.3008 303.502 86.1543 303.236 86.041C302.975 85.9277 302.689 85.8281 302.381 85.7422L301.314 85.4375C300.631 85.2422 300.09 84.9629 299.691 84.5996C299.297 84.2324 299.1 83.7539 299.1 83.1641C299.1 82.6758 299.23 82.25 299.492 81.8867C299.758 81.5195 300.115 81.2344 300.564 81.0312C301.018 80.8281 301.521 80.7266 302.076 80.7266C302.639 80.7266 303.139 80.8281 303.576 81.0312C304.014 81.2305 304.361 81.5039 304.619 81.8516C304.877 82.1953 305.014 82.5859 305.029 83.0234H303.998C303.947 82.5938 303.74 82.2598 303.377 82.0215C303.018 81.7832 302.572 81.6641 302.041 81.6641C301.658 81.6641 301.322 81.7266 301.033 81.8516C300.744 81.9766 300.52 82.1484 300.359 82.3672C300.199 82.5859 300.119 82.8359 300.119 83.1172C300.119 83.4258 300.215 83.6758 300.406 83.8672C300.598 84.0547 300.824 84.2012 301.086 84.3066C301.352 84.4121 301.592 84.4961 301.807 84.5586L302.686 84.8047C302.912 84.8672 303.164 84.9512 303.441 85.0566C303.723 85.1621 303.992 85.3047 304.25 85.4844C304.512 85.6641 304.727 85.8945 304.895 86.1758C305.062 86.4531 305.146 86.7969 305.146 87.207C305.146 87.6758 305.023 88.1016 304.777 88.4844C304.531 88.8633 304.174 89.166 303.705 89.3926C303.236 89.6152 302.666 89.7266 301.994 89.7266Z" fill="#FCFCFC"/>
<path d="M20 38.5129C31.209 36.872 46.4109 32.2033 62.9751 43.4354C71.9698 49.5346 83.4713 60.0623 97.9006 54.429C110.761 49.4084 127.373 29.4882 151.782 43.4354C161 48.6861 178.838 58.6652 195.796 43.4354C214.248 26.8636 214.876 13.7369 248.113 26.8636C264.727 33.4248 279.149 32.9338 302 16.6895" stroke="#864FFE" stroke-width="2" stroke-linecap="round"/>
<path d="M20 64.9957C56.6234 54.9475 76.7662 92.8566 107.164 60.8845C121.557 45.7452 128.771 36.4961 152.394 32.8419C182.157 28.2376 208.284 77.0899 240.872 49.8996C273.459 22.7093 275.802 60.8845 302 46.4973" stroke="#C6F56F" stroke-width="2" stroke-linecap="round"/>
<line x1="226.5" y1="16.5" x2="226.5" y2="67.9599" stroke="#864FFE" stroke-linecap="round" stroke-dasharray="8 8"/>
<g filter="url(#filter0_d_711_11403)">
<mask id="path-11-inside-1_711_11403" fill="white">
<ellipse cx="227" cy="21.5228" rx="4" ry="2.76105"/>
</mask>
<ellipse cx="227" cy="21.5228" rx="4" ry="2.76105" fill="#864FFE"/>
<path d="M225 21.5228C225 19.7516 226.046 18.7955 226.42 18.5372C226.637 18.3878 226.8 18.3293 226.875 18.3073C226.956 18.2837 226.997 18.2838 227 18.2838V30.2838C229.167 30.2838 231.39 29.6876 233.237 28.413C235.059 27.1555 237 24.8188 237 21.5228H225ZM227 18.2838C227.003 18.2838 227.044 18.2837 227.125 18.3073C227.2 18.3293 227.363 18.3878 227.58 18.5372C227.954 18.7955 229 19.7516 229 21.5228H217C217 24.8188 218.941 27.1555 220.763 28.413C222.61 29.6876 224.833 30.2838 227 30.2838V18.2838ZM229 21.5228C229 23.2939 227.954 24.2501 227.58 24.5083C227.363 24.6578 227.2 24.7162 227.125 24.7382C227.044 24.7619 227.003 24.7617 227 24.7617V12.7617C224.833 12.7617 222.61 13.3579 220.763 14.6325C218.941 15.89 217 18.2267 217 21.5228H229ZM227 24.7617C226.997 24.7617 226.956 24.7619 226.875 24.7382C226.8 24.7162 226.637 24.6578 226.42 24.5083C226.046 24.2501 225 23.2939 225 21.5228H237C237 18.2267 235.059 15.89 233.237 14.6325C231.39 13.3579 229.167 12.7617 227 12.7617V24.7617Z" fill="#864FFE" mask="url(#path-11-inside-1_711_11403)"/>
</g>
<defs>
<filter id="filter0_d_711_11403" x="213" y="12.7617" width="28" height="25.5215" filterUnits="userSpaceOnUse" color-interpolation-filters="sRGB">
<feFlood flood-opacity="0" result="BackgroundImageFix"/>
<feColorMatrix in="SourceAlpha" type="matrix" values="0 0 0 0 0 0 0 0 0 0 0 0 0 0 0 0 0 0 127 0" result="hardAlpha"/>
<feOffset dy="4"/>
<feGaussianBlur stdDeviation="5"/>
<feComposite in2="hardAlpha" operator="out"/>
<feColorMatrix type="matrix" values="0 0 0 0 0 0 0 0 0 0 0 0 0 0 0 0 0 0 0.12 0"/>
<feBlend mode="normal" in2="BackgroundImageFix" result="effect1_dropShadow_711_11403"/>
<feBlend mode="normal" in="SourceGraphic" in2="effect1_dropShadow_711_11403" result="shape"/>
</filter>
</defs>
</svg>
