<?xml version="1.0" encoding="UTF-8"?>
<svg version="1.1" xmlns="http://www.w3.org/2000/svg" width="512" height="512">
<path d="M0 0 C1.57454891 -0.00679667 1.57454891 -0.00679667 3.18090689 -0.01373065 C6.66806459 -0.02630389 10.1550647 -0.02475887 13.64224243 -0.02310181 C16.15476175 -0.02909137 18.66727923 -0.0358979 21.17979431 -0.04345703 C27.27807187 -0.05925105 33.37629253 -0.06556336 39.47458862 -0.06668179 C44.43512788 -0.06763532 49.39565448 -0.07176075 54.35618973 -0.07808304 C68.4470977 -0.09567442 82.53797534 -0.1049249 96.62889437 -0.10342209 C97.3869174 -0.10334218 98.14494042 -0.10326227 98.92593384 -0.10317993 C99.68489128 -0.10309817 100.44384873 -0.10301641 101.22580488 -0.10293217 C113.52540894 -0.10211927 125.82489054 -0.12126338 138.12445919 -0.14945666 C150.77988779 -0.1782349 163.43525674 -0.19199433 176.09071887 -0.19026911 C183.18531197 -0.18960704 190.27977658 -0.19501899 197.37434006 -0.21662521 C204.0475293 -0.23681956 210.72040302 -0.23611315 217.39362144 -0.22159195 C219.83603627 -0.21950634 222.27846818 -0.22418981 224.72085381 -0.23631287 C245.45392495 -0.33252175 262.04621918 2.01622412 277.72671509 16.92758179 C291.55897955 31.11512701 295.33727521 46.34656561 295.20327759 65.57992554 C295.19954205 67.16032735 295.19669763 68.7407315 295.19470215 70.32113647 C295.18710824 74.45737228 295.16749676 78.59346504 295.14529419 82.72964478 C295.12112329 87.70490056 295.11203455 92.68020448 295.10038757 97.65550232 C295.08106943 105.19290919 295.04271755 112.73000291 295.00796509 120.26742554 C281.80796509 120.26742554 268.60796509 120.26742554 255.00796509 120.26742554 C254.95898071 116.02898804 254.90999634 111.79055054 254.85952759 107.42367554 C254.8149362 104.0270419 254.76844364 100.63044603 254.72067261 97.2338562 C254.6708964 93.65784434 254.6244075 90.08186135 254.58609009 86.50570679 C254.54899838 83.05611241 254.50257672 79.60675425 254.44990158 76.15736389 C254.42256944 74.21223731 254.4047009 72.26698511 254.38702393 70.32174683 C254.23914995 61.38635135 254.01290675 53.40843724 248.00796509 46.26742554 C241.34727467 41.19492894 234.23625355 41.11889629 226.23809814 41.10920715 C224.93183867 41.10180019 224.93183867 41.10180019 223.59919012 41.09424359 C220.68808702 41.07891449 217.77700591 41.07052042 214.86587524 41.06210327 C212.77634489 41.05252114 210.68681645 41.04251086 208.59729004 41.03210449 C202.92841697 41.00508568 197.2595356 40.98405973 191.59063387 40.96410251 C185.66489941 40.94222432 179.73919045 40.91484459 173.81347656 40.88804626 C162.59391189 40.83814418 151.37433305 40.79319612 140.15474069 40.7500239 C127.38094623 40.70063031 114.60717735 40.64572004 101.83340764 40.59034431 C75.55828282 40.47656239 49.28313447 40.37044333 23.00796509 40.26742554 C23.00796509 66.66742554 23.00796509 93.06742554 23.00796509 120.26742554 C-3.39203491 120.26742554 -29.79203491 120.26742554 -56.99203491 120.26742554 C-56.90860741 162.42612084 -56.81810817 204.58477364 -56.7119833 246.74341664 C-56.69946437 251.72016942 -56.6870316 256.69692241 -56.6746521 261.67367554 C-56.67218611 262.66446116 -56.66972011 263.65524678 -56.66717939 264.67605621 C-56.62745128 280.72056117 -56.59470416 296.76507317 -56.5645351 312.80959862 C-56.53342556 329.27167908 -56.49481827 345.73372963 -56.44924486 362.19577646 C-56.42135817 372.35444233 -56.39932589 382.51308631 -56.38477241 392.67178017 C-56.37423361 399.63713995 -56.35641464 406.60245735 -56.33286788 413.5677852 C-56.31949601 417.58691711 -56.30933687 421.60598961 -56.30782127 425.62514496 C-56.30636207 429.30673389 -56.29573472 432.98817979 -56.2779005 436.66972476 C-56.27077398 438.62823726 -56.27338346 440.58677777 -56.27637064 442.54530096 C-56.22004197 451.39141851 -55.93678325 459.19799508 -49.99203491 466.26742554 C-44.14783552 470.71811753 -38.1021047 471.38073749 -30.95556641 471.42564392 C-29.76933685 471.43543274 -28.5831073 471.44522156 -27.3609314 471.45530701 C-26.07339966 471.46106247 -24.78586792 471.46681793 -23.45932007 471.4727478 C-22.07913933 471.48233603 -20.69896148 471.49234665 -19.31878662 471.50274658 C-15.58374233 471.52969947 -11.84868553 471.55076086 -8.11359835 471.57074857 C-4.20581585 471.59266769 -0.2980715 471.6200273 3.60968018 471.64680481 C11.00431343 471.69665175 18.39896794 471.74162014 25.79364264 471.78482717 C34.2144448 471.83426804 42.63520867 471.8891607 51.05597377 471.94450676 C68.37327014 472.05820399 85.69060174 472.16434994 103.00796509 472.26742554 C103.00796509 485.46742554 103.00796509 498.66742554 103.00796509 512.26742554 C83.54452449 512.35790299 64.08125555 512.43151032 44.61765766 512.47467422 C35.57930761 512.49525335 26.54109801 512.52328447 17.50283813 512.56918335 C9.62025499 512.60919411 1.73777363 512.6348921 -6.14490825 512.64377952 C-10.31438704 512.6489703 -14.48357479 512.66107213 -18.65295982 512.69034576 C-22.58708599 512.71774067 -26.52080459 512.72582264 -30.45501709 512.71985626 C-31.88959286 512.72094585 -33.324184 512.7287554 -34.75867653 512.74424744 C-52.23252044 512.92350956 -66.97423686 507.71908159 -79.71078491 495.60726929 C-93.15478942 481.81795645 -97.30247945 466.91364182 -97.25946045 448.11413574 C-97.26319994 446.56500778 -97.26780266 445.01588171 -97.27319109 443.46675861 C-97.28540032 439.22116937 -97.28516306 434.97565906 -97.28280234 430.73005629 C-97.28239363 426.14629375 -97.29343878 421.56255633 -97.30291748 416.97880554 C-97.31951894 408.00085792 -97.32502671 399.02293657 -97.32614224 390.04497488 C-97.32709347 382.7422076 -97.33120754 375.43944896 -97.33754349 368.13668442 C-97.35515645 347.41287894 -97.3643827 326.68909416 -97.36288254 305.96528114 C-97.36280263 304.84843606 -97.36272271 303.73159097 -97.36264038 302.5809021 C-97.36255862 301.46268593 -97.36247686 300.34446976 -97.36239262 299.19236825 C-97.36158053 281.08902734 -97.38069855 262.9857698 -97.40891711 244.88245298 C-97.43769097 226.27532268 -97.45145482 207.66823296 -97.44972956 189.06107986 C-97.44906703 178.6223199 -97.45449852 168.18364724 -97.47608566 157.74490738 C-97.49435714 148.85267736 -97.49859631 139.96057419 -97.48506682 131.06833346 C-97.47856611 126.53746295 -97.47831405 122.00683534 -97.49577332 117.47598839 C-97.62131278 82.65959448 -92.96427227 54.36047044 -67.99203491 28.26742554 C-49.91099231 10.26247667 -25.50716677 -0.08237284 0 0 Z M-39.36312866 58.53695679 C-44.18740746 63.54761188 -52.99203491 72.82999523 -52.99203491 80.26742554 C-41.11203491 80.26742554 -29.23203491 80.26742554 -16.99203491 80.26742554 C-16.99203491 68.38742554 -16.99203491 56.50742554 -16.99203491 44.26742554 C-25.13818239 44.26742554 -33.87399923 53.14098729 -39.36312866 58.53695679 Z " fill="#000000" transform="translate(96.99203491210938,-0.267425537109375)"/>
<path d="M0 0 C1.11130436 -0.00679667 1.11130436 -0.00679667 2.24505931 -0.01373065 C4.70508934 -0.0262988 7.16489583 -0.02475922 9.62495422 -0.02310181 C11.39812502 -0.02909189 13.17129321 -0.03589853 14.94445801 -0.04345703 C19.74637093 -0.06107744 24.54821251 -0.0658108 29.35015464 -0.0670886 C32.35543093 -0.06851324 35.36068926 -0.0727888 38.36596107 -0.07808304 C48.86538971 -0.09657167 59.36476766 -0.10475529 69.86421204 -0.10317993 C79.62650064 -0.10197952 89.3885678 -0.12306524 99.15080041 -0.15466726 C107.55195513 -0.18088683 115.9530378 -0.19154482 124.35423309 -0.19026911 C129.36303203 -0.18976106 134.37163415 -0.19535691 139.38039207 -0.21662521 C144.0960186 -0.23610302 148.8112625 -0.23606731 153.52690315 -0.22159195 C155.24850402 -0.21951439 156.97012944 -0.22414124 158.69168854 -0.23631287 C177.00277138 -0.35729272 192.35275836 4.01177767 205.93476868 16.92758179 C217.79364839 29.09105602 223.53641749 43.20286668 223.48344421 60.08851624 C223.48797533 61.15607 223.49250644 62.22362376 223.49717486 63.32352763 C223.50980207 66.88909986 223.50819954 70.45451901 223.50654602 74.02011108 C223.51253235 76.58144832 223.51933813 79.14278375 223.52690125 81.70411682 C223.54272567 87.9331491 223.54900924 94.16212563 223.550126 100.39117613 C223.55107823 105.45809903 223.55519726 110.52500951 223.56152725 115.59192848 C223.57913106 129.97724843 223.5883676 144.3625386 223.5868663 158.74786939 C223.58678639 159.52252361 223.58670648 160.29717782 223.58662415 161.0953064 C223.58654238 161.87091342 223.58646062 162.64652044 223.58637638 163.44563071 C223.58556398 176.00731877 223.60469242 188.56888679 223.63290088 201.13054015 C223.66167803 214.04803648 223.67543849 226.96547436 223.67371333 239.88300353 C223.67305104 247.12742899 223.67847226 254.37172864 223.70006943 261.61612511 C223.72026245 268.43290017 223.71955828 275.24940615 223.70503616 282.06619453 C223.70295013 284.56182112 223.70763658 287.05746441 223.71975708 289.55306244 C223.81467048 310.45699851 221.60032704 327.16570693 206.55586243 342.98617554 C195.53760638 353.72851532 181.99511609 360.49527014 166.43203735 360.53485107 C165.32073299 360.54164774 165.32073299 360.54164774 164.18697804 360.54858172 C161.72694801 360.56114987 159.26714153 360.5596103 156.80708313 360.55795288 C155.03391234 360.56394296 153.26074415 360.57074961 151.48757935 360.57830811 C146.68566642 360.59592851 141.88382485 360.60066187 137.08188272 360.60193968 C134.07660643 360.60336431 131.0713481 360.60763988 128.06607628 360.61293411 C117.56664764 360.63142275 107.06726969 360.63960637 96.56782532 360.63803101 C86.80553671 360.63683059 77.04346955 360.65791631 67.28123695 360.68951833 C58.88008222 360.7157379 50.47899956 360.72639589 42.07780427 360.72512019 C37.06900532 360.72461214 32.0604032 360.73020798 27.05164528 360.75147629 C22.33601875 360.7709541 17.62077485 360.77091838 12.9051342 360.75644302 C11.18353333 360.75436547 9.46190791 360.75899231 7.74034882 360.77116394 C-10.57073403 360.89214379 -25.92072101 356.5230734 -39.50273132 343.60726929 C-51.36161104 331.44379506 -57.10438014 317.33198439 -57.05140686 300.44633484 C-57.05593797 299.37878108 -57.06046909 298.31122732 -57.06513751 297.21132344 C-57.07776472 293.64575121 -57.07616219 290.08033206 -57.07450867 286.51473999 C-57.08049499 283.95340275 -57.08730078 281.39206732 -57.09486389 278.83073425 C-57.11068832 272.60170197 -57.11697188 266.37272544 -57.11808865 260.14367495 C-57.11904088 255.07675204 -57.12315991 250.00984156 -57.1294899 244.94292259 C-57.1470937 230.55760265 -57.15633025 216.17231247 -57.15482895 201.78698168 C-57.15474904 201.01232747 -57.15466913 200.23767326 -57.15458679 199.43954468 C-57.15450503 198.66393766 -57.15442327 197.88833063 -57.15433903 197.08922037 C-57.15352662 184.5275323 -57.17265506 171.96596428 -57.20086353 159.40431092 C-57.22964068 146.48681459 -57.24340113 133.56937671 -57.24167597 120.65184754 C-57.24101368 113.40742208 -57.24643491 106.16312244 -57.26803207 98.91872597 C-57.28822509 92.1019509 -57.28752092 85.28544492 -57.27299881 78.46865654 C-57.27091278 75.97302995 -57.27559923 73.47738666 -57.28771973 70.98178864 C-57.38263312 50.07785257 -55.16828969 33.36914415 -40.12382507 17.54867554 C-29.10556903 6.80633575 -15.56307874 0.03958094 0 0 Z M-10.78398132 46.26742554 C-16.67942873 53.72436983 -16.93333574 60.84597185 -16.91769409 70.04644775 C-16.91995965 71.02598234 -16.9222252 72.00551693 -16.92455941 73.01473439 C-16.93088512 76.29412653 -16.93007097 79.57347719 -16.929245 82.85287476 C-16.93223736 85.20528212 -16.93564006 87.55768899 -16.93942261 89.91009521 C-16.94825847 96.29850571 -16.95060054 102.6869028 -16.95123839 109.07531881 C-16.95206832 113.73616195 -16.95496778 118.39700211 -16.95807487 123.0578442 C-16.96637695 135.59321772 -16.97011745 148.12858415 -16.96940514 160.66396032 C-16.96936518 161.37534505 -16.96932522 162.08672979 -16.96928406 162.81967163 C-16.96924318 163.53192768 -16.9692023 164.24418374 -16.96916018 164.97802331 C-16.96875371 176.5214676 -16.9783243 188.06487928 -16.99242242 199.60831414 C-17.0067936 211.4691552 -17.01369221 223.32998036 -17.01282865 235.19083035 C-17.01249696 241.84655097 -17.01542699 248.50224153 -17.0260067 255.15795517 C-17.0356848 261.41731933 -17.03576878 267.67661123 -17.02849007 273.93597794 C-17.02744391 276.23213049 -17.02980896 278.52828753 -17.03585052 280.82443237 C-17.0435688 283.96118526 -17.03892658 287.09768852 -17.03121948 290.23443604 C-17.03636305 291.14086818 -17.04150661 292.04730032 -17.04680604 292.9812001 C-17.0038209 300.90976444 -16.07900031 307.99700832 -10.78398132 314.26742554 C-4.22013425 319.45679182 1.66078132 320.38919239 9.95793152 320.40113831 C10.61078192 320.40340386 11.26363232 320.40566942 11.93626606 320.40800363 C14.11010165 320.41430188 16.28387423 320.41351697 18.4577179 320.41268921 C20.02195821 320.41568329 21.58619779 320.41908639 23.1504364 320.42286682 C27.39015642 320.43168522 31.62985625 320.43404401 35.86958456 320.43468261 C38.52069018 320.43539428 41.1717907 320.43753082 43.82289505 320.44017982 C53.07812576 320.44942577 62.33334209 320.45351561 71.58857727 320.45272827 C80.20569424 320.45212753 88.8227486 320.46268062 97.43984973 320.47847193 C104.84725611 320.49156104 112.25464205 320.4969116 119.6620599 320.49627286 C124.08213639 320.4960183 128.5021572 320.49884658 132.92222214 320.50945091 C137.08041186 320.51915508 141.23849293 320.51919521 145.39668655 320.51193428 C146.91881215 320.51089135 148.44094459 320.51323394 149.96305847 320.51929474 C164.54893553 320.77667435 164.54893553 320.77667435 177.21601868 314.26742554 C183.11146609 306.81048125 183.36537309 299.68887923 183.34973145 290.48840332 C183.35312978 289.01910144 183.35312978 289.01910144 183.35659677 287.52011669 C183.36292248 284.24072455 183.36210832 280.96137388 183.36128235 277.68197632 C183.36427471 275.32956896 183.36767742 272.97716208 183.37145996 270.62475586 C183.38029583 264.23634537 183.38263789 257.84794827 183.38327575 251.45953226 C183.38410567 246.79868912 183.38700514 242.13784896 183.39011222 237.47700687 C183.3984143 224.94163335 183.4021548 212.40626692 183.40144249 199.87089075 C183.40140253 199.15950602 183.40136258 198.44812129 183.40132141 197.71517944 C183.40126009 196.64679536 183.40126009 196.64679536 183.40119753 195.55682777 C183.40079107 184.01338347 183.41036165 172.46997179 183.42445978 160.92653693 C183.43883095 149.06569587 183.44572957 137.20487071 183.444866 125.34402072 C183.44453431 118.6883001 183.44746434 112.03260955 183.45804405 105.3768959 C183.46772215 99.11753174 183.46780613 92.85823984 183.46052742 86.59887314 C183.45948126 84.30272059 183.46184631 82.00656354 183.46788788 79.7104187 C183.47560615 76.57366581 183.47096393 73.43716256 183.46325684 70.30041504 C183.47097218 68.94076683 183.47097218 68.94076683 183.47884339 67.55365098 C183.43585825 59.62508663 182.51103766 52.53784275 177.21601868 46.26742554 C170.6521716 41.07805926 164.77125604 40.14565868 156.47410583 40.13371277 C155.82125543 40.13144721 155.16840503 40.12918166 154.49577129 40.12684745 C152.3219357 40.1205492 150.14816313 40.12133411 147.97431946 40.12216187 C146.41007914 40.11916778 144.84583956 40.11576468 143.28160095 40.11198425 C139.04188093 40.10316585 134.8021811 40.10080706 130.56245279 40.10016847 C127.91134717 40.09945679 125.26024666 40.09732025 122.6091423 40.09467125 C113.35391159 40.08542531 104.09869526 40.08133546 94.84346008 40.0821228 C86.22634311 40.08272355 77.60928875 40.07217045 68.99218762 40.05637914 C61.58478124 40.04329003 54.1773953 40.03793948 46.76997745 40.03857821 C42.34990096 40.03883278 37.92988015 40.03600449 33.50981522 40.02540016 C29.35162549 40.01569599 25.19354442 40.01565587 21.0353508 40.02291679 C19.51322521 40.02395972 17.99109277 40.02161714 16.46897888 40.01555634 C1.88310183 39.75817672 1.88310183 39.75817672 -10.78398132 46.26742554 Z " fill="#000000" transform="translate(288.7839813232422,151.73257446289063)"/>
<path d="M0 0 C39.6 0 79.2 0 120 0 C120 13.2 120 26.4 120 40 C80.4 40 40.8 40 0 40 C0 26.8 0 13.6 0 0 Z " fill="#000000" transform="translate(80,356)"/>
<path d="M0 0 C39.6 0 79.2 0 120 0 C120 13.2 120 26.4 120 40 C80.4 40 40.8 40 0 40 C0 26.8 0 13.6 0 0 Z " fill="#000000" transform="translate(80,276)"/>
<path d="M0 0 C39.6 0 79.2 0 120 0 C120 13.2 120 26.4 120 40 C80.4 40 40.8 40 0 40 C0 26.8 0 13.6 0 0 Z " fill="#000000" transform="translate(312,232)"/>
<path d="M0 0 C39.6 0 79.2 0 120 0 C120 13.2 120 26.4 120 40 C80.4 40 40.8 40 0 40 C0 26.8 0 13.6 0 0 Z " fill="#000000" transform="translate(80,196)"/>
<path d="M0 0 C4.68796317 2.8950501 8.77605467 6.42344712 10.234375 11.89453125 C11.16656452 18.74158704 11.3930195 24.99387098 7.671875 31.01953125 C3.66347868 35.99068326 0.31000422 38.47580101 -6.0078125 39.3359375 C-13.1275177 39.69575056 -18.34453314 39.19135672 -23.98828125 34.640625 C-29.08369757 29.63479842 -30.03494232 26.05750776 -30.390625 19.01953125 C-30.17838344 12.13997715 -28.58962241 7.80486419 -23.765625 2.89453125 C-17.29271618 -2.6344117 -7.84970384 -3.13766411 0 0 Z " fill="#000000" transform="translate(421.765625,393.10546875)"/>
<path d="M0 0 C4.68796317 2.8950501 8.77605467 6.42344712 10.234375 11.89453125 C11.16656452 18.74158704 11.3930195 24.99387098 7.671875 31.01953125 C3.66347868 35.99068326 0.31000422 38.47580101 -6.0078125 39.3359375 C-13.1275177 39.69575056 -18.34453314 39.19135672 -23.98828125 34.640625 C-29.08369757 29.63479842 -30.03494232 26.05750776 -30.390625 19.01953125 C-30.17838344 12.13997715 -28.58962241 7.80486419 -23.765625 2.89453125 C-17.29271618 -2.6344117 -7.84970384 -3.13766411 0 0 Z " fill="#000000" transform="translate(341.765625,393.10546875)"/>
<path d="M0 0 C4.68796317 2.8950501 8.77605467 6.42344712 10.234375 11.89453125 C11.16656452 18.74158704 11.3930195 24.99387098 7.671875 31.01953125 C3.66347868 35.99068326 0.31000422 38.47580101 -6.0078125 39.3359375 C-13.1275177 39.69575056 -18.34453314 39.19135672 -23.98828125 34.640625 C-29.08369757 29.63479842 -30.03494232 26.05750776 -30.390625 19.01953125 C-30.17838344 12.13997715 -28.58962241 7.80486419 -23.765625 2.89453125 C-17.29271618 -2.6344117 -7.84970384 -3.13766411 0 0 Z " fill="#000000" transform="translate(421.765625,313.10546875)"/>
<path d="M0 0 C4.68796317 2.8950501 8.77605467 6.42344712 10.234375 11.89453125 C11.16656452 18.74158704 11.3930195 24.99387098 7.671875 31.01953125 C3.66347868 35.99068326 0.31000422 38.47580101 -6.0078125 39.3359375 C-13.1275177 39.69575056 -18.34453314 39.19135672 -23.98828125 34.640625 C-29.08369757 29.63479842 -30.03494232 26.05750776 -30.390625 19.01953125 C-30.17838344 12.13997715 -28.58962241 7.80486419 -23.765625 2.89453125 C-17.29271618 -2.6344117 -7.84970384 -3.13766411 0 0 Z " fill="#000000" transform="translate(341.765625,313.10546875)"/>
</svg>
