<svg width="21" height="24" viewBox="0 0 21 24" fill="none" xmlns="http://www.w3.org/2000/svg">
<path d="M15.3486 5.61816C16.9387 5.61816 18.6235 6.511 19.8223 8.05176C15.892 10.273 16.5287 16.0603 20.5 17.6084C19.954 18.8558 19.6916 19.4137 18.9883 20.5186C18.0071 22.0609 16.6232 23.9808 14.9072 23.9951C13.3841 24.0121 12.9907 22.9727 10.9228 22.9854C8.85532 22.9967 8.42418 24.0155 6.89843 24C5.18373 23.9845 3.87281 22.2514 2.89159 20.709C0.146499 16.3995 -0.14276 11.3406 1.5498 8.64941C2.75408 6.7387 4.65394 5.62112 6.43847 5.62109C8.25449 5.62109 9.39736 6.64844 10.9014 6.64844C12.3601 6.64838 13.2482 5.61826 15.3486 5.61816ZM14.8887 0C15.098 1.45774 14.5195 2.88608 13.7559 3.89648C12.9388 4.98017 11.5303 5.81816 10.166 5.77441C9.91703 4.3789 10.5552 2.94122 11.331 1.97461C12.1822 0.907884 13.6407 0.08906 14.8887 0Z" fill="#1C1C1C"/>
</svg>
