<svg width="25" height="24" viewBox="0 0 25 24" fill="none" xmlns="http://www.w3.org/2000/svg">
<path d="M17.3486 5.61816C18.9387 5.61816 20.6235 6.511 21.8223 8.05176C17.892 10.273 18.5287 16.0603 22.5 17.6084C21.954 18.8558 21.6916 19.4137 20.9883 20.5186C20.0071 22.0609 18.6232 23.9808 16.9072 23.9951C15.3841 24.0121 14.9907 22.9727 12.9228 22.9854C10.8553 22.9967 10.4242 24.0155 8.89843 24C7.18373 23.9845 5.87281 22.2514 4.89159 20.709C2.1465 16.3995 1.85724 11.3406 3.5498 8.64941C4.75408 6.7387 6.65394 5.62112 8.43847 5.62109C10.2545 5.62109 11.3974 6.64844 12.9014 6.64844C14.3601 6.64838 15.2482 5.61826 17.3486 5.61816ZM16.8887 0C17.098 1.45774 16.5195 2.88608 15.7559 3.89648C14.9388 4.98017 13.5303 5.81816 12.166 5.77441C11.917 4.3789 12.5552 2.94122 13.331 1.97461C14.1822 0.907884 15.6407 0.08906 16.8887 0Z" fill="#FCFCFC"/>
</svg>
