<svg width="129" height="45" viewBox="0 0 129 45" fill="none" xmlns="http://www.w3.org/2000/svg">
<g clip-path="url(#clip0_3615_4369)">
<g clip-path="url(#clip1_3615_4369)">
<path fill-rule="evenodd" clip-rule="evenodd" d="M21.8591 23.1881C18.622 23.1881 15.9977 25.8123 15.9977 29.0497C15.9977 32.2868 18.622 34.911 21.8591 34.911C25.0962 34.911 27.7204 32.2868 27.7204 29.0497C27.7204 25.8123 25.0962 23.1881 21.8591 23.1881ZM6.63087 23.1886C3.39377 23.1886 0.769531 25.8123 0.769531 29.0497C0.769531 32.2868 3.39377 34.911 6.63087 34.911C9.86811 34.911 12.4925 32.2868 12.4925 29.0497C12.4925 25.8123 9.86811 23.1886 6.63087 23.1886ZM20.1062 15.8612C20.1062 19.0986 17.4821 21.7231 14.245 21.7231C11.0078 21.7231 8.38367 19.0986 8.38367 15.8612C8.38367 12.6245 11.0078 10 14.245 10C17.4821 10 20.1062 12.6245 20.1062 15.8612Z" fill="#1A1A1C" fill-opacity="0.4"/>
<path fill-rule="evenodd" clip-rule="evenodd" d="M125.375 28.8402C125.451 29.7097 126.147 30.8165 127.352 30.8165H128.057C128.331 30.8165 128.555 30.5926 128.555 30.319V14.8133H128.551C128.538 14.5521 128.322 14.3429 128.057 14.3429H125.873C125.608 14.3429 125.392 14.5521 125.379 14.8133H125.375V16.0732C124.036 14.4233 121.926 13.7385 119.81 13.7385C115 13.7385 111.101 17.641 111.101 22.4552C111.101 27.2697 115 31.1722 119.81 31.1722C121.926 31.1722 124.233 30.351 125.375 28.8382V28.8402ZM119.818 28.1215C116.759 28.1215 114.279 25.5848 114.279 22.4552C114.279 19.3261 116.759 16.7893 119.818 16.7893C122.879 16.7893 125.358 19.3261 125.358 22.4552C125.358 25.5848 122.879 28.1215 119.818 28.1215Z" fill="#1A1A1C" fill-opacity="0.4"/>
<path fill-rule="evenodd" clip-rule="evenodd" d="M108.338 21.3499C108.338 16.827 105.487 13.7759 100.94 13.7759C98.7701 13.7759 96.991 15.0318 96.3626 16.1107C96.2268 15.2671 95.7793 14.3804 94.3914 14.3804H93.6841C93.4104 14.3804 93.187 14.6045 93.187 14.8781V30.3851H93.1897C93.2041 30.6459 93.4201 30.8553 93.6843 30.8553H95.8689C95.9024 30.8553 95.9352 30.8514 95.9669 30.8452C95.9813 30.8424 95.9947 30.8367 96.0088 30.8327C96.0251 30.8277 96.042 30.8239 96.0575 30.8175C96.0769 30.8094 96.0945 30.7986 96.1126 30.7885C96.1214 30.7831 96.1308 30.7793 96.1393 30.7736C96.1611 30.7595 96.1811 30.7426 96.2004 30.7253C96.2036 30.7222 96.2074 30.72 96.2105 30.717C96.2322 30.696 96.2521 30.6728 96.2696 30.6487C96.3243 30.5736 96.3577 30.4827 96.3631 30.3851H96.366V21.2254C96.366 18.7964 98.3338 16.827 100.761 16.827C103.188 16.827 105.156 18.7964 105.156 21.2254L105.158 28.8817L105.159 28.879C105.159 28.8858 105.16 28.8927 105.16 28.9V30.3851H105.163C105.177 30.6459 105.393 30.8553 105.657 30.8553H107.842C107.876 30.8553 107.908 30.8514 107.94 30.8452C107.953 30.8428 107.965 30.8376 107.977 30.8341C107.995 30.8289 108.014 30.8244 108.031 30.8175C108.049 30.8101 108.065 30.7998 108.082 30.7902C108.092 30.7844 108.103 30.7802 108.113 30.7736C108.133 30.7603 108.152 30.7443 108.17 30.7285C108.174 30.7242 108.18 30.721 108.184 30.7167C108.205 30.6967 108.223 30.6751 108.24 30.6525C108.241 30.6508 108.242 30.6494 108.244 30.6477C108.298 30.5733 108.331 30.4834 108.336 30.3864L108.336 30.3851H108.339L108.338 21.3499Z" fill="#1A1A1C" fill-opacity="0.4"/>
<path fill-rule="evenodd" clip-rule="evenodd" d="M85.5863 28.8401C85.6627 29.7097 86.3582 30.8165 87.5632 30.8165H88.2682C88.5415 30.8165 88.7653 30.5925 88.7653 30.319V14.8133H88.7624C88.7482 14.5521 88.5321 14.3429 88.2682 14.3429H86.0836C85.8194 14.3429 85.6036 14.5521 85.5888 14.8133H85.5863V16.0732C84.2477 14.4233 82.1373 13.7385 80.0211 13.7385C75.2108 13.7385 71.3115 17.641 71.3115 22.4552C71.3115 27.2697 75.2108 31.1723 80.0211 31.1723C82.1373 31.1723 84.4437 30.351 85.5861 28.8382L85.5863 28.8401ZM80.0296 28.1215C76.9705 28.1215 74.4903 25.5849 74.4903 22.4552C74.4903 19.3261 76.9705 16.7893 80.0296 16.7893C83.089 16.7893 85.5688 19.3261 85.5688 22.4552C85.5688 25.5849 83.089 28.1215 80.0296 28.1215Z" fill="#1A1A1C" fill-opacity="0.4"/>
<path fill-rule="evenodd" clip-rule="evenodd" d="M58.3923 26.6194C59.8507 27.6306 61.4427 28.1217 62.9724 28.1217C64.4298 28.1217 65.9365 27.3656 65.9365 26.0494C65.9365 24.2924 62.6535 24.019 60.5907 23.3174C58.5276 22.6158 56.7506 21.1654 56.7506 18.8166C56.7506 15.2226 59.9505 13.7383 62.9371 13.7383C64.8294 13.7383 66.7818 14.3628 68.0476 15.2573C68.4835 15.5879 68.218 15.9674 68.218 15.9674L67.0097 17.6945C66.8739 17.889 66.6364 18.0571 66.2956 17.8465C65.9547 17.6361 64.7592 16.7892 62.9371 16.7892C61.1148 16.7892 60.0172 17.6313 60.0172 18.6752C60.0172 19.9269 61.4438 20.3206 63.1147 20.7472C66.0267 21.5327 69.2031 22.4769 69.2031 26.0494C69.2031 29.216 66.2435 31.1729 62.9724 31.1729C60.4937 31.1729 58.3832 30.4658 56.6132 29.1659C56.2445 28.7966 56.502 28.4536 56.502 28.4536L57.7044 26.7353C57.949 26.4141 58.2575 26.5261 58.3923 26.6194Z" fill="#1A1A1C" fill-opacity="0.4"/>
<path fill-rule="evenodd" clip-rule="evenodd" d="M49.9936 28.8401C50.07 29.7097 50.7656 30.8165 51.9705 30.8165H52.6756C52.9489 30.8165 53.1728 30.5925 53.1728 30.319V14.8133H53.1698C53.1555 14.5521 52.9397 14.3429 52.6756 14.3429H50.4909C50.2267 14.3429 50.0109 14.5521 49.9963 14.8133H49.9936V16.0732C48.6551 14.4233 46.5448 13.7385 44.4285 13.7385C39.6183 13.7385 35.7188 17.641 35.7188 22.4552C35.7188 27.2697 39.6183 31.1723 44.4285 31.1723C46.5448 31.1723 48.851 30.351 49.9933 28.8382L49.9936 28.8401ZM44.437 28.1215C41.3777 28.1215 38.8976 25.5849 38.8976 22.4552C38.8976 19.3261 41.3777 16.7893 44.437 16.7893C47.4963 16.7893 49.9761 19.3261 49.9761 22.4552C49.9761 25.5849 47.4963 28.1215 44.437 28.1215Z" fill="#1A1A1C" fill-opacity="0.4"/>
</g>
</g>
<defs>
<clipPath id="clip0_3615_4369">
<rect width="127.787" height="44.911" fill="white" transform="translate(0.769531)"/>
</clipPath>
<clipPath id="clip1_3615_4369">
<rect width="127.787" height="44.911" fill="white" transform="translate(0.769531)"/>
</clipPath>
</defs>
</svg>
