<svg width="132" height="39" viewBox="0 0 132 39" fill="none" xmlns="http://www.w3.org/2000/svg">
<g clip-path="url(#clip0_5681_12605)">
<g clip-path="url(#clip1_5681_12605)">
<path fill-rule="evenodd" clip-rule="evenodd" d="M8 19.5C12.4183 19.5 16 15.9183 16 11.5C16 15.9183 19.5818 19.5 24 19.5C19.5818 19.5 16 23.0818 16 27.5C16 23.0818 12.4183 19.5 8 19.5ZM8 19.5C3.58173 19.5 0 23.0818 0 27.5C0 31.9182 3.58173 35.5 8 35.5C12.4183 35.5 16 31.9182 16 27.5C16 31.9182 19.5818 35.5 24 35.5C28.4182 35.5 32 31.9182 32 27.5C32 23.0818 28.4182 19.5 24 19.5C28.4182 19.5 32 15.9183 32 11.5C32 7.08173 28.4182 3.5 24 3.5C19.5818 3.5 16 7.08173 16 11.5C16 7.08173 12.4183 3.5 8 3.5C3.58173 3.5 0 7.08173 0 11.5C0 15.9183 3.58173 19.5 8 19.5Z" fill="#1A1A1C" fill-opacity="0.8"/>
</g>
<path d="M53.674 28.338C52.114 28.338 50.7013 28.156 49.436 27.792C48.188 27.428 47.1047 26.882 46.186 26.154C45.2847 25.426 44.5913 24.5247 44.106 23.45C43.6207 22.3753 43.378 21.136 43.378 19.732C43.378 18.3107 43.6293 17.054 44.132 15.962C44.652 14.8527 45.38 13.9167 46.316 13.154C47.2693 12.3913 48.396 11.8193 49.696 11.438C51.0133 11.0393 52.4693 10.84 54.064 10.84C55.9533 10.84 57.5827 11.1087 58.952 11.646C60.3213 12.166 61.396 12.9027 62.176 13.856C62.9733 14.8093 63.424 15.9447 63.528 17.262H60.2C59.9747 16.5687 59.602 15.9707 59.082 15.468C58.5793 14.948 57.912 14.5493 57.08 14.272C56.248 13.9773 55.2427 13.83 54.064 13.83C52.556 13.83 51.2647 14.0727 50.19 14.558C49.1327 15.0433 48.3267 15.728 47.772 16.612C47.2173 17.496 46.94 18.536 46.94 19.732C46.94 20.8933 47.1827 21.8987 47.668 22.748C48.1533 23.58 48.8987 24.2213 49.904 24.672C50.9267 25.1227 52.2267 25.348 53.804 25.348C55.0173 25.348 56.0833 25.192 57.002 24.88C57.938 24.5507 58.718 24.1173 59.342 23.58C59.966 23.0253 60.408 22.41 60.668 21.734L62.02 21.24C61.7947 23.476 60.9453 25.218 59.472 26.466C58.016 27.714 56.0833 28.338 53.674 28.338ZM61.136 28C61.136 27.4627 61.1707 26.8473 61.24 26.154C61.3093 25.4433 61.396 24.7327 61.5 24.022C61.604 23.294 61.6993 22.6267 61.786 22.02H54.09V19.81H64.126V28H61.136ZM74.9436 28.312C73.3143 28.312 71.8756 28.052 70.6276 27.532C69.397 27.012 68.435 26.258 67.7416 25.27C67.0483 24.2647 66.7016 23.034 66.7016 21.578C66.7016 20.122 67.0483 18.8913 67.7416 17.886C68.435 16.8633 69.397 16.092 70.6276 15.572C71.8756 15.052 73.3143 14.792 74.9436 14.792C76.573 14.792 77.9943 15.052 79.2076 15.572C80.4383 16.092 81.4003 16.8633 82.0936 17.886C82.787 18.8913 83.1336 20.122 83.1336 21.578C83.1336 23.034 82.787 24.2647 82.0936 25.27C81.4003 26.258 80.4383 27.012 79.2076 27.532C77.9943 28.052 76.573 28.312 74.9436 28.312ZM74.9436 25.712C75.845 25.712 76.651 25.556 77.3616 25.244C78.0896 24.9147 78.6616 24.4467 79.0776 23.84C79.4936 23.216 79.7016 22.462 79.7016 21.578C79.7016 20.694 79.4936 19.94 79.0776 19.316C78.6616 18.6747 78.0983 18.1893 77.3876 17.86C76.677 17.5307 75.8623 17.366 74.9436 17.366C74.0423 17.366 73.2276 17.5307 72.4996 17.86C71.7716 18.1893 71.191 18.666 70.7576 19.29C70.3416 19.914 70.1336 20.6767 70.1336 21.578C70.1336 22.462 70.3416 23.216 70.7576 23.84C71.1736 24.4467 71.7456 24.9147 72.4736 25.244C73.2016 25.556 74.025 25.712 74.9436 25.712ZM95.0443 28.312C93.9003 28.312 92.9209 28.1127 92.1063 27.714C91.3089 27.298 90.6589 26.7607 90.1563 26.102C89.6536 25.426 89.2809 24.6893 89.0383 23.892C88.7956 23.0947 88.6743 22.3147 88.6743 21.552C88.6743 20.5987 88.7869 19.7147 89.0123 18.9C89.2549 18.0853 89.6276 17.3747 90.1303 16.768C90.6329 16.144 91.2829 15.6587 92.0803 15.312C92.8949 14.9653 93.8829 14.792 95.0443 14.792C96.3443 14.792 97.5143 15.078 98.5543 15.65C99.5943 16.222 100.418 17.0193 101.024 18.042C101.648 19.0473 101.96 20.2173 101.96 21.552C101.96 22.9213 101.648 24.1173 101.024 25.14C100.4 26.1453 99.5683 26.9253 98.5283 27.48C97.4883 28.0347 96.3269 28.312 95.0443 28.312ZM93.9523 25.686C94.8709 25.686 95.6683 25.5127 96.3443 25.166C97.0376 24.8193 97.5663 24.3427 97.9303 23.736C98.3116 23.112 98.5023 22.384 98.5023 21.552C98.5023 20.304 98.1036 19.2987 97.3063 18.536C96.5263 17.7733 95.4083 17.392 93.9523 17.392C93.0336 17.392 92.1929 17.5567 91.4303 17.886C90.6849 18.2153 90.0956 18.692 89.6623 19.316C89.2289 19.9227 89.0123 20.668 89.0123 21.552C89.0123 22.384 89.2116 23.112 89.6103 23.736C90.0089 24.3427 90.5809 24.8193 91.3263 25.166C92.0716 25.5127 92.9469 25.686 93.9523 25.686ZM85.6323 15.078H88.8563L89.0123 18.51V33.2H85.6323V15.078ZM104.447 15.078H107.827V28H104.447V15.078ZM112.793 17.86C111.822 17.86 110.981 18.0507 110.271 18.432C109.56 18.796 108.988 19.2467 108.555 19.784C108.121 20.3213 107.818 20.8413 107.645 21.344L107.619 19.914C107.636 19.706 107.705 19.4027 107.827 19.004C107.948 18.588 108.13 18.146 108.373 17.678C108.615 17.1927 108.936 16.7333 109.335 16.3C109.733 15.8493 110.219 15.4853 110.791 15.208C111.363 14.9307 112.03 14.792 112.793 14.792V17.86ZM122.5 28.312C120.871 28.312 119.432 28.052 118.184 27.532C116.954 27.012 115.992 26.258 115.298 25.27C114.605 24.2647 114.258 23.034 114.258 21.578C114.258 20.122 114.605 18.8913 115.298 17.886C115.992 16.8633 116.954 16.092 118.184 15.572C119.432 15.052 120.871 14.792 122.5 14.792C124.13 14.792 125.551 15.052 126.764 15.572C127.995 16.092 128.957 16.8633 129.65 17.886C130.344 18.8913 130.69 20.122 130.69 21.578C130.69 23.034 130.344 24.2647 129.65 25.27C128.957 26.258 127.995 27.012 126.764 27.532C125.551 28.052 124.13 28.312 122.5 28.312ZM122.5 25.712C123.402 25.712 124.208 25.556 124.918 25.244C125.646 24.9147 126.218 24.4467 126.634 23.84C127.05 23.216 127.258 22.462 127.258 21.578C127.258 20.694 127.05 19.94 126.634 19.316C126.218 18.6747 125.655 18.1893 124.944 17.86C124.234 17.5307 123.419 17.366 122.5 17.366C121.599 17.366 120.784 17.5307 120.056 17.86C119.328 18.1893 118.748 18.666 118.314 19.29C117.898 19.914 117.69 20.6767 117.69 21.578C117.69 22.462 117.898 23.216 118.314 23.84C118.73 24.4467 119.302 24.9147 120.03 25.244C120.758 25.556 121.582 25.712 122.5 25.712Z" fill="#1A1A1C" fill-opacity="0.8"/>
</g>
<defs>
<clipPath id="clip0_5681_12605">
<rect width="132" height="39" fill="white"/>
</clipPath>
<clipPath id="clip1_5681_12605">
<rect width="32" height="32" fill="white" transform="translate(0 3.5)"/>
</clipPath>
</defs>
</svg>
