<svg width="125" height="39" viewBox="0 0 125 39" fill="none" xmlns="http://www.w3.org/2000/svg">
<path d="M0 35.5H32L14 19.488L32 3.5H0V35.5Z" fill="#1A1A1C" fill-opacity="0.8"/>
<path d="M46.628 24.334V21.448H57.756V24.334H46.628ZM42.442 28L50.346 11.178H54.09L62.072 28H58.302L51.386 12.842H53.05L46.186 28H42.442ZM73.4876 28.312C72.3436 28.312 71.3643 28.1127 70.5496 27.714C69.7523 27.298 69.1023 26.7607 68.5996 26.102C68.097 25.426 67.7243 24.6893 67.4816 23.892C67.239 23.0947 67.1176 22.3147 67.1176 21.552C67.1176 20.5987 67.2303 19.7147 67.4556 18.9C67.6983 18.0853 68.071 17.3747 68.5736 16.768C69.0763 16.144 69.7263 15.6587 70.5236 15.312C71.3383 14.9653 72.3263 14.792 73.4876 14.792C74.7876 14.792 75.9576 15.078 76.9976 15.65C78.0376 16.222 78.861 17.0193 79.4676 18.042C80.0916 19.0473 80.4036 20.2173 80.4036 21.552C80.4036 22.9213 80.0916 24.1173 79.4676 25.14C78.8436 26.1453 78.0116 26.9253 76.9716 27.48C75.9316 28.0347 74.7703 28.312 73.4876 28.312ZM72.3956 25.686C73.3143 25.686 74.1116 25.5127 74.7876 25.166C75.481 24.8193 76.0096 24.3427 76.3736 23.736C76.755 23.112 76.9456 22.384 76.9456 21.552C76.9456 20.304 76.547 19.2987 75.7496 18.536C74.9696 17.7733 73.8516 17.392 72.3956 17.392C71.477 17.392 70.6363 17.5567 69.8736 17.886C69.1283 18.2153 68.539 18.692 68.1056 19.316C67.6723 19.9227 67.4556 20.668 67.4556 21.552C67.4556 22.384 67.655 23.112 68.0536 23.736C68.4523 24.3427 69.0243 24.8193 69.7696 25.166C70.515 25.5127 71.3903 25.686 72.3956 25.686ZM64.0756 15.078H67.2996L67.4556 18.51V33.2H64.0756V15.078ZM92.3021 28.312C91.1581 28.312 90.1787 28.1127 89.3641 27.714C88.5667 27.298 87.9167 26.7607 87.4141 26.102C86.9114 25.426 86.5387 24.6893 86.2961 23.892C86.0534 23.0947 85.9321 22.3147 85.9321 21.552C85.9321 20.5987 86.0447 19.7147 86.2701 18.9C86.5127 18.0853 86.8854 17.3747 87.3881 16.768C87.8907 16.144 88.5407 15.6587 89.3381 15.312C90.1527 14.9653 91.1407 14.792 92.3021 14.792C93.6021 14.792 94.7721 15.078 95.8121 15.65C96.8521 16.222 97.6754 17.0193 98.2821 18.042C98.9061 19.0473 99.2181 20.2173 99.2181 21.552C99.2181 22.9213 98.9061 24.1173 98.2821 25.14C97.6581 26.1453 96.8261 26.9253 95.7861 27.48C94.7461 28.0347 93.5847 28.312 92.3021 28.312ZM91.2101 25.686C92.1287 25.686 92.9261 25.5127 93.6021 25.166C94.2954 24.8193 94.8241 24.3427 95.1881 23.736C95.5694 23.112 95.7601 22.384 95.7601 21.552C95.7601 20.304 95.3614 19.2987 94.5641 18.536C93.7841 17.7733 92.6661 17.392 91.2101 17.392C90.2914 17.392 89.4507 17.5567 88.6881 17.886C87.9427 18.2153 87.3534 18.692 86.9201 19.316C86.4867 19.9227 86.2701 20.668 86.2701 21.552C86.2701 22.384 86.4694 23.112 86.8681 23.736C87.2667 24.3427 87.8387 24.8193 88.5841 25.166C89.3294 25.5127 90.2047 25.686 91.2101 25.686ZM82.8901 15.078H86.1141L86.2701 18.51V33.2H82.8901V15.078ZM101.965 9.878H105.345V28H101.965V9.878ZM120.541 23.71H123.817C123.678 24.594 123.306 25.3827 122.699 26.076C122.11 26.7693 121.304 27.3153 120.281 27.714C119.258 28.1127 118.01 28.312 116.537 28.312C114.89 28.312 113.434 28.052 112.169 27.532C110.904 26.9947 109.916 26.2233 109.205 25.218C108.494 24.2127 108.139 22.9993 108.139 21.578C108.139 20.1567 108.486 18.9433 109.179 17.938C109.872 16.9153 110.834 16.1353 112.065 15.598C113.313 15.0607 114.769 14.792 116.433 14.792C118.132 14.792 119.544 15.0607 120.671 15.598C121.798 16.1353 122.63 16.95 123.167 18.042C123.722 19.1167 123.956 20.4947 123.869 22.176H111.545C111.632 22.8347 111.874 23.4327 112.273 23.97C112.689 24.5073 113.244 24.932 113.937 25.244C114.648 25.556 115.488 25.712 116.459 25.712C117.534 25.712 118.426 25.53 119.137 25.166C119.865 24.7847 120.333 24.2993 120.541 23.71ZM116.277 17.366C115.029 17.366 114.015 17.6433 113.235 18.198C112.455 18.7353 111.952 19.4027 111.727 20.2H120.515C120.428 19.3333 120.012 18.6487 119.267 18.146C118.539 17.626 117.542 17.366 116.277 17.366Z" fill="#1A1A1C" fill-opacity="0.8"/>
</svg>
