<svg width="128" height="39" viewBox="0 0 128 39" fill="none" xmlns="http://www.w3.org/2000/svg">
<g clip-path="url(#clip0_3793_13058)">
<g clip-path="url(#clip1_3793_13058)">
<path fill-rule="evenodd" clip-rule="evenodd" d="M0 19.5L1.2207e-06 3.5H32V19.5C23.1648 19.5 16.0021 12.3387 16 3.50383C15.9979 12.3387 8.83526 19.5 0 19.5ZM16 35.5C16 26.6634 23.1635 19.5 32 19.5V35.5H16ZM16 35.5C16 26.6634 8.83656 19.5 0 19.5V35.5H16Z" fill="#FCFCFC" fill-opacity="0.8"/>
</g>
<path d="M46.628 24.334V21.448H57.756V24.334H46.628ZM42.442 28L50.346 11.178H54.09L62.072 28H58.302L51.386 12.842H53.05L46.186 28H42.442ZM79.2633 22.904C79.1766 24.0307 78.8126 25.0013 78.1713 25.816C77.5473 26.6307 76.6806 27.2547 75.5713 27.688C74.4619 28.104 73.1446 28.312 71.6193 28.312C70.0246 28.312 68.5946 28.0607 67.3293 27.558C66.0813 27.038 65.0933 26.284 64.3653 25.296C63.6546 24.2907 63.2993 23.0513 63.2993 21.578C63.2993 20.1047 63.6546 18.8653 64.3653 17.86C65.0933 16.8547 66.0813 16.092 67.3293 15.572C68.5946 15.052 70.0246 14.792 71.6193 14.792C73.1446 14.792 74.4533 15.0087 75.5453 15.442C76.6373 15.858 77.4953 16.4647 78.1193 17.262C78.7606 18.0593 79.1333 19.0213 79.2373 20.148H76.1433C75.8486 19.2813 75.3026 18.6053 74.5053 18.12C73.7079 17.6347 72.7459 17.392 71.6193 17.392C70.7179 17.392 69.8946 17.548 69.1493 17.86C68.4213 18.172 67.8319 18.64 67.3813 19.264C66.9479 19.8707 66.7313 20.642 66.7313 21.578C66.7313 22.4967 66.9479 23.268 67.3813 23.892C67.8146 24.4987 68.4039 24.958 69.1493 25.27C69.8946 25.5647 70.7179 25.712 71.6193 25.712C72.8326 25.712 73.8206 25.4693 74.5833 24.984C75.3633 24.4987 75.8919 23.8053 76.1693 22.904H79.2633ZM81.7475 15.078H85.1275V28H81.7475V15.078ZM91.1335 14.792C91.9308 14.792 92.6675 14.896 93.3435 15.104C94.0195 15.312 94.6088 15.6327 95.1115 16.066C95.6142 16.4993 96.0042 17.054 96.2815 17.73C96.5588 18.3887 96.6975 19.1773 96.6975 20.096V28H93.3175V20.694C93.3175 19.602 93.0488 18.8047 92.5115 18.302C91.9915 17.782 91.1335 17.522 89.9375 17.522C89.0362 17.522 88.2215 17.6953 87.4935 18.042C86.7655 18.3887 86.1762 18.8307 85.7255 19.368C85.2748 19.888 85.0148 20.434 84.9455 21.006L84.9195 19.68C85.0062 19.0733 85.2055 18.484 85.5175 17.912C85.8295 17.34 86.2455 16.82 86.7655 16.352C87.3028 15.8667 87.9355 15.4853 88.6635 15.208C89.3915 14.9307 90.2148 14.792 91.1335 14.792ZM102.392 14.792C103.189 14.792 103.926 14.896 104.602 15.104C105.278 15.312 105.867 15.6327 106.37 16.066C106.872 16.4993 107.262 17.054 107.54 17.73C107.834 18.3887 107.982 19.1773 107.982 20.096V28H104.602V20.694C104.602 19.602 104.333 18.8047 103.796 18.302C103.258 17.782 102.392 17.522 101.196 17.522C100.294 17.522 99.4795 17.6953 98.7515 18.042C98.0235 18.3887 97.4342 18.8307 96.9835 19.368C96.5328 19.888 96.2815 20.434 96.2295 21.006L96.1775 19.602C96.2642 19.03 96.4722 18.458 96.8015 17.886C97.1308 17.314 97.5642 16.794 98.1015 16.326C98.6388 15.858 99.2628 15.4853 99.9735 15.208C100.702 14.9307 101.508 14.792 102.392 14.792ZM122.826 23.71H126.102C125.964 24.594 125.591 25.3827 124.984 26.076C124.395 26.7693 123.589 27.3153 122.566 27.714C121.544 28.1127 120.296 28.312 118.822 28.312C117.176 28.312 115.72 28.052 114.454 27.532C113.189 26.9947 112.201 26.2233 111.49 25.218C110.78 24.2127 110.424 22.9993 110.424 21.578C110.424 20.1567 110.771 18.9433 111.464 17.938C112.158 16.9153 113.12 16.1353 114.35 15.598C115.598 15.0607 117.054 14.792 118.718 14.792C120.417 14.792 121.83 15.0607 122.956 15.598C124.083 16.1353 124.915 16.95 125.452 18.042C126.007 19.1167 126.241 20.4947 126.154 22.176H113.83C113.917 22.8347 114.16 23.4327 114.558 23.97C114.974 24.5073 115.529 24.932 116.222 25.244C116.933 25.556 117.774 25.712 118.744 25.712C119.819 25.712 120.712 25.53 121.422 25.166C122.15 24.7847 122.618 24.2993 122.826 23.71ZM118.562 17.366C117.314 17.366 116.3 17.6433 115.52 18.198C114.74 18.7353 114.238 19.4027 114.012 20.2H122.8C122.714 19.3333 122.298 18.6487 121.552 18.146C120.824 17.626 119.828 17.366 118.562 17.366Z" fill="#FCFCFC" fill-opacity="0.8"/>
</g>
<defs>
<clipPath id="clip0_3793_13058">
<rect width="128" height="39" fill="white"/>
</clipPath>
<clipPath id="clip1_3793_13058">
<rect width="32" height="32" fill="white" transform="translate(0 3.5)"/>
</clipPath>
</defs>
</svg>
