<svg width="144" height="39" viewBox="0 0 144 39" fill="none" xmlns="http://www.w3.org/2000/svg">
<g clip-path="url(#clip0_3793_13054)">
<g clip-path="url(#clip1_3793_13054)">
<path fill-rule="evenodd" clip-rule="evenodd" d="M17.1429 3.5H14.8571V13.6205L11.0659 4.23693L8.94666 5.09318L12.8361 14.7198L5.49442 7.37816L3.87818 8.99442L10.9148 16.0311L1.79586 12.0469L0.880734 14.1414L10.5297 18.3571H0V20.6429H10.5297L0.880738 24.8586L1.79586 26.9531L10.9148 22.969L3.87818 30.0056L5.49442 31.6218L12.8361 24.2802L8.94666 33.9069L11.0659 34.763L14.8571 25.3795V35.5H17.1429V25.3795L20.9341 34.763L23.0533 33.9069L19.164 24.2802L26.5056 31.6218L28.1218 30.0056L21.0851 22.969L30.2042 26.9531L31.1192 24.8586L21.4704 20.6429H32V18.3571H21.4702L31.1192 14.1414L30.2042 12.0469L21.0851 16.0311L28.1218 8.9944L26.5056 7.37816L19.164 14.7198L23.0533 5.09318L20.9341 4.23693L17.1429 13.6205V3.5Z" fill="#FCFCFC" fill-opacity="0.8"/>
</g>
<path d="M57.08 26.284H55.442L65.114 11.178H68.572V28H65.114V15.78L65.946 16.014L58.224 28H54.35L46.628 16.066L47.46 15.832V28H44.002V11.178H47.46L57.08 26.284ZM78.4165 28.286C77.1338 28.286 75.9638 28.0087 74.9065 27.454C73.8665 26.882 73.0345 26.0933 72.4105 25.088C71.8038 24.0653 71.5005 22.8867 71.5005 21.552C71.5005 20.1827 71.8125 18.9953 72.4365 17.99C73.0605 16.9847 73.9011 16.2047 74.9585 15.65C76.0331 15.078 77.2465 14.792 78.5985 14.792C80.0891 14.792 81.2851 15.0953 82.1865 15.702C83.1051 16.2913 83.7725 17.0973 84.1885 18.12C84.6045 19.1427 84.8125 20.2867 84.8125 21.552C84.8125 22.3147 84.6911 23.0947 84.4485 23.892C84.2058 24.672 83.8331 25.4 83.3305 26.076C82.8278 26.7347 82.1691 27.272 81.3545 27.688C80.5398 28.0867 79.5605 28.286 78.4165 28.286ZM79.5085 25.686C80.5311 25.686 81.4151 25.5127 82.1605 25.166C82.9058 24.8193 83.4778 24.334 83.8765 23.71C84.2751 23.086 84.4745 22.3667 84.4745 21.552C84.4745 20.668 84.2665 19.9227 83.8505 19.316C83.4518 18.692 82.8798 18.224 82.1345 17.912C81.4065 17.5827 80.5311 17.418 79.5085 17.418C78.0698 17.418 76.9518 17.7993 76.1545 18.562C75.3571 19.3073 74.9585 20.304 74.9585 21.552C74.9585 22.384 75.1491 23.112 75.5305 23.736C75.9118 24.3427 76.4405 24.8193 77.1165 25.166C77.8098 25.5127 78.6071 25.686 79.5085 25.686ZM84.4745 15.078H87.8545V28H84.7085C84.7085 28 84.6825 27.8353 84.6305 27.506C84.5958 27.1593 84.5611 26.726 84.5265 26.206C84.4918 25.686 84.4745 25.1747 84.4745 24.672V15.078ZM90.9135 15.078H94.2935V28H90.9135V15.078ZM100.3 14.792C101.097 14.792 101.834 14.896 102.51 15.104C103.186 15.312 103.775 15.6327 104.278 16.066C104.78 16.4993 105.17 17.054 105.448 17.73C105.725 18.3887 105.864 19.1773 105.864 20.096V28H102.484V20.694C102.484 19.602 102.215 18.8047 101.678 18.302C101.158 17.782 100.3 17.522 99.1035 17.522C98.2022 17.522 97.3875 17.6953 96.6595 18.042C95.9315 18.3887 95.3422 18.8307 94.8915 19.368C94.4408 19.888 94.1808 20.434 94.1115 21.006L94.0855 19.68C94.1722 19.0733 94.3715 18.484 94.6835 17.912C94.9955 17.34 95.4115 16.82 95.9315 16.352C96.4688 15.8667 97.1015 15.4853 97.8295 15.208C98.5575 14.9307 99.3808 14.792 100.3 14.792ZM108.031 15.078H118.067V17.704H108.031V15.078ZM111.359 11.542H114.739V28H111.359V11.542ZM124.088 9.41V12.374H120.162V9.41H124.088ZM120.422 15.078H123.802V28H120.422V15.078ZM134.789 28.312C133.16 28.312 131.721 28.052 130.473 27.532C129.243 27.012 128.281 26.258 127.587 25.27C126.894 24.2647 126.547 23.034 126.547 21.578C126.547 20.122 126.894 18.8913 127.587 17.886C128.281 16.8633 129.243 16.092 130.473 15.572C131.721 15.052 133.16 14.792 134.789 14.792C136.419 14.792 137.84 15.052 139.053 15.572C140.284 16.092 141.246 16.8633 141.939 17.886C142.633 18.8913 142.979 20.122 142.979 21.578C142.979 23.034 142.633 24.2647 141.939 25.27C141.246 26.258 140.284 27.012 139.053 27.532C137.84 28.052 136.419 28.312 134.789 28.312ZM134.789 25.712C135.691 25.712 136.497 25.556 137.207 25.244C137.935 24.9147 138.507 24.4467 138.923 23.84C139.339 23.216 139.547 22.462 139.547 21.578C139.547 20.694 139.339 19.94 138.923 19.316C138.507 18.6747 137.944 18.1893 137.233 17.86C136.523 17.5307 135.708 17.366 134.789 17.366C133.888 17.366 133.073 17.5307 132.345 17.86C131.617 18.1893 131.037 18.666 130.603 19.29C130.187 19.914 129.979 20.6767 129.979 21.578C129.979 22.462 130.187 23.216 130.603 23.84C131.019 24.4467 131.591 24.9147 132.319 25.244C133.047 25.556 133.871 25.712 134.789 25.712Z" fill="#FCFCFC" fill-opacity="0.8"/>
</g>
<defs>
<clipPath id="clip0_3793_13054">
<rect width="144" height="39" fill="white"/>
</clipPath>
<clipPath id="clip1_3793_13054">
<rect width="32" height="32" fill="white" transform="translate(0 3.5)"/>
</clipPath>
</defs>
</svg>
