<svg width="32" height="32" viewBox="0 0 32 32" fill="none" xmlns="http://www.w3.org/2000/svg">
<path d="M22.8358 22.3639L22.3643 22.8353C22.104 23.0956 21.6819 23.0956 21.4215 22.8353L16.0004 17.4141L10.5792 22.8352C10.3189 23.0956 9.89675 23.0956 9.6364 22.8352L9.16499 22.3638C8.90464 22.1035 8.90464 21.6814 9.16499 21.421L14.5862 15.9999L9.16499 10.5787C8.90464 10.3184 8.90464 9.89626 9.16499 9.63591L9.63639 9.16451C9.89674 8.90416 10.3189 8.90416 10.5792 9.16451L16.0004 14.5857L21.4215 9.1645C21.6819 8.90415 22.104 8.90415 22.3643 9.1645L22.8358 9.6359C23.0961 9.89625 23.0961 10.3184 22.8358 10.5787L17.4146 15.9999L22.8358 21.421C23.0961 21.6814 23.0961 22.1035 22.8358 22.3639Z" fill="#1A1A1C"/>
<path d="M22.8358 22.3639L22.3643 22.8353C22.104 23.0956 21.6819 23.0956 21.4215 22.8353L16.0004 17.4141L10.5792 22.8352C10.3189 23.0956 9.89675 23.0956 9.6364 22.8352L9.16499 22.3638C8.90464 22.1035 8.90464 21.6814 9.16499 21.421L14.5862 15.9999L9.16499 10.5787C8.90464 10.3184 8.90464 9.89626 9.16499 9.63591L9.63639 9.16451C9.89674 8.90416 10.3189 8.90416 10.5792 9.16451L16.0004 14.5857L21.4215 9.1645C21.6819 8.90415 22.104 8.90415 22.3643 9.1645L22.8358 9.6359C23.0961 9.89625 23.0961 10.3184 22.8358 10.5787L17.4146 15.9999L22.8358 21.421C23.0961 21.6814 23.0961 22.1035 22.8358 22.3639Z" fill="black" fill-opacity="0.2"/>
<path d="M22.8358 22.3639L22.3643 22.8353C22.104 23.0956 21.6819 23.0956 21.4215 22.8353L16.0004 17.4141L10.5792 22.8352C10.3189 23.0956 9.89675 23.0956 9.6364 22.8352L9.16499 22.3638C8.90464 22.1035 8.90464 21.6814 9.16499 21.421L14.5862 15.9999L9.16499 10.5787C8.90464 10.3184 8.90464 9.89626 9.16499 9.63591L9.63639 9.16451C9.89674 8.90416 10.3189 8.90416 10.5792 9.16451L16.0004 14.5857L21.4215 9.1645C21.6819 8.90415 22.104 8.90415 22.3643 9.1645L22.8358 9.6359C23.0961 9.89625 23.0961 10.3184 22.8358 10.5787L17.4146 15.9999L22.8358 21.421C23.0961 21.6814 23.0961 22.1035 22.8358 22.3639Z" fill="black" fill-opacity="0.2"/>
<path d="M22.8358 22.3639L22.3643 22.8353C22.104 23.0956 21.6819 23.0956 21.4215 22.8353L16.0004 17.4141L10.5792 22.8352C10.3189 23.0956 9.89675 23.0956 9.6364 22.8352L9.16499 22.3638C8.90464 22.1035 8.90464 21.6814 9.16499 21.421L14.5862 15.9999L9.16499 10.5787C8.90464 10.3184 8.90464 9.89626 9.16499 9.63591L9.63639 9.16451C9.89674 8.90416 10.3189 8.90416 10.5792 9.16451L16.0004 14.5857L21.4215 9.1645C21.6819 8.90415 22.104 8.90415 22.3643 9.1645L22.8358 9.6359C23.0961 9.89625 23.0961 10.3184 22.8358 10.5787L17.4146 15.9999L22.8358 21.421C23.0961 21.6814 23.0961 22.1035 22.8358 22.3639Z" fill="black" fill-opacity="0.2"/>
</svg>
