<svg width="160" height="45" viewBox="0 0 160 45" fill="none" xmlns="http://www.w3.org/2000/svg">
<path d="M32.3952 9.94191C29.9732 8.79087 27.376 7.94282 24.6604 7.45712C24.6109 7.44774 24.5615 7.47117 24.5361 7.51802C24.202 8.13335 23.8321 8.93611 23.573 9.56706C20.6522 9.11416 17.7464 9.11416 14.8856 9.56706C14.6264 8.92208 14.243 8.13335 13.9075 7.51802C13.882 7.47273 13.8326 7.4493 13.7831 7.45712C11.0691 7.94127 8.47187 8.78931 6.04838 9.94191C6.0274 9.95128 6.00941 9.96692 5.99748 9.9872C1.0711 17.6103 -0.278442 25.046 0.383598 32.3895C0.386593 32.4254 0.406065 32.4598 0.433026 32.4816C3.68331 34.9539 6.83177 36.4548 9.92175 37.4496C9.97121 37.4652 10.0236 37.4465 10.0551 37.4043C10.786 36.3705 11.4376 35.2803 11.9962 34.1339C12.0292 34.0668 11.9977 33.9872 11.9303 33.9606C10.8969 33.5545 9.91276 33.0594 8.96614 32.4972C8.89126 32.4519 8.88526 32.341 8.95415 32.2879C9.15335 32.1333 9.35261 31.9724 9.54282 31.81C9.57724 31.7803 9.62519 31.7741 9.66566 31.7928C15.8846 34.7337 22.6173 34.7337 28.7629 31.7928C28.8034 31.7725 28.8513 31.7788 28.8872 31.8085C29.0775 31.9709 29.2767 32.1333 29.4774 32.2879C29.5463 32.341 29.5418 32.4519 29.4669 32.4972C28.5203 33.0704 27.5362 33.5545 26.5012 33.959C26.4338 33.9856 26.4039 34.0668 26.4368 34.1339C27.0075 35.2787 27.659 36.3689 28.3765 37.4028C28.4065 37.4465 28.4603 37.4652 28.5098 37.4496C31.6148 36.4548 34.7632 34.9539 38.0135 32.4816C38.042 32.4598 38.0599 32.4269 38.0629 32.391C38.8553 23.9011 36.7358 16.5264 32.4446 9.98876C32.4341 9.96692 32.4161 9.95128 32.3952 9.94191ZM12.9249 27.918C11.0526 27.918 9.50986 26.1376 9.50986 23.9511C9.50986 21.7646 11.0227 19.9842 12.9249 19.9842C14.8421 19.9842 16.3699 21.7802 16.34 23.9511C16.34 26.1376 14.8271 27.918 12.9249 27.918ZM25.5516 27.918C23.6793 27.918 22.1366 26.1376 22.1366 23.9511C22.1366 21.7646 23.6493 19.9842 25.5516 19.9842C27.4688 19.9842 28.9966 21.7802 28.9667 23.9511C28.9667 26.1376 27.4688 27.918 25.5516 27.918Z" fill="#1A1A1C" fill-opacity="0.4"/>
<path d="M46.2266 14.3269H55.38C57.5866 14.3269 59.4508 14.6796 60.9801 15.3817C62.5053 16.0837 63.6489 17.0632 64.4069 18.3166C65.1642 19.57 65.5464 21.0049 65.5464 22.6214C65.5464 24.2036 65.1508 25.6385 64.3596 26.9227C63.5683 28.2104 62.3645 29.2276 60.7452 29.9776C59.1259 30.7275 57.1203 31.1042 54.7232 31.1042H46.2266V14.3269ZM54.6291 26.8406C56.1146 26.8406 57.2582 26.4604 58.0559 25.7036C58.8541 24.9433 59.2533 23.9091 59.2533 22.5974C59.2533 21.3816 58.8974 20.4124 58.1868 19.6864C57.4762 18.9604 56.3998 18.594 54.961 18.594H52.0976V26.8406H54.6291Z" fill="#1A1A1C" fill-opacity="0.4"/>
<path d="M79.2504 31.0838C77.9829 30.7482 76.8393 30.2619 75.8236 29.6215V25.642C76.5915 26.2481 77.6206 26.7482 78.9115 27.142C80.2024 27.5324 81.45 27.7276 82.6567 27.7276C83.2201 27.7276 83.6461 27.6523 83.9342 27.5016C84.2229 27.3509 84.3672 27.1694 84.3672 26.9605C84.3672 26.7208 84.2901 26.5222 84.1323 26.3612C83.9745 26.2002 83.6695 26.0666 83.2171 25.9536L80.4005 25.3064C78.7876 24.9228 77.644 24.392 76.9638 23.7105C76.283 23.0324 75.944 22.142 75.944 21.0393C75.944 20.1112 76.2391 19.3064 76.8364 18.618C77.4295 17.9297 78.2745 17.3988 79.3708 17.0255C80.4677 16.6489 81.748 16.4605 83.2201 16.4605C84.5343 16.4605 85.7382 16.6043 86.835 16.892C87.9313 17.1797 88.8365 17.5461 89.5576 17.9947V21.7585C88.8196 21.3098 87.9746 20.9571 87.0092 20.6899C86.0467 20.4263 85.0579 20.2961 84.0382 20.2961C82.5662 20.2961 81.8322 20.5529 81.8322 21.0632C81.8322 21.303 81.9461 21.481 82.174 21.6009C82.402 21.7208 82.8209 21.8441 83.4281 21.9742L85.775 22.4057C87.3078 22.6763 88.4508 23.1523 89.2017 23.8304C89.9533 24.5085 90.3284 25.5119 90.3284 26.8406C90.3284 28.2961 89.7084 29.4502 88.4643 30.3064C87.2201 31.1626 85.4565 31.5906 83.1698 31.5906C81.8252 31.5872 80.5179 31.4194 79.2504 31.0838Z" fill="#1A1A1C" fill-opacity="0.4"/>
<path d="M95.8687 30.5802C94.5246 29.9089 93.5084 28.998 92.8311 27.8473C92.1538 26.6966 91.8119 25.4021 91.8119 23.9637C91.8119 22.5254 92.1637 21.2377 92.8679 20.1042C93.5721 18.9706 94.6047 18.0802 95.9662 17.4329C97.3273 16.7857 98.9536 16.4637 100.848 16.4637C103.195 16.4637 105.143 16.9672 106.692 17.974V22.361C106.146 21.9774 105.508 21.6658 104.781 21.4261C104.053 21.1864 103.276 21.0665 102.444 21.0665C100.989 21.0665 99.8523 21.337 99.0307 21.8815C98.2091 22.4261 97.7971 23.135 97.7971 24.0151C97.7971 24.8781 98.1956 25.5836 98.9939 26.1384C99.7921 26.6898 100.949 26.9672 102.467 26.9672C103.249 26.9672 104.02 26.8507 104.781 26.6213C105.539 26.3884 106.193 26.1042 106.739 25.7685V30.0117C105.019 31.0665 103.024 31.5939 100.754 31.5939C98.8431 31.587 97.2133 31.2514 95.8687 30.5802Z" fill="#1A1A1C" fill-opacity="0.4"/>
<path d="M112.547 30.5804C111.192 29.9092 110.159 28.9914 109.448 27.8236C108.738 26.6558 108.379 25.3544 108.379 23.9161C108.379 22.4777 108.734 21.1935 109.448 20.0668C110.162 18.94 111.188 18.0565 112.537 17.4161C113.881 16.7756 115.487 16.4572 117.348 16.4572C119.209 16.4572 120.815 16.7756 122.16 17.4161C123.504 18.0565 124.53 18.9332 125.235 20.053C125.939 21.1729 126.29 22.4572 126.29 23.9127C126.29 25.351 125.939 26.6524 125.235 27.8201C124.53 28.988 123.501 29.9058 122.146 30.5771C120.792 31.2483 119.192 31.5839 117.345 31.5839C115.497 31.5839 113.898 31.2517 112.547 30.5804ZM119.678 26.327C120.249 25.7449 120.537 24.9743 120.537 24.0154C120.537 23.0565 120.252 22.2928 119.678 21.7277C119.109 21.1592 118.33 20.875 117.345 20.875C116.342 20.875 115.557 21.1592 114.984 21.7277C114.414 22.2962 114.129 23.0565 114.129 24.0154C114.129 24.9743 114.414 25.7449 114.984 26.327C115.554 26.9092 116.342 27.2037 117.345 27.2037C118.33 27.2003 119.109 26.9092 119.678 26.327Z" fill="#1A1A1C" fill-opacity="0.4"/>
<path d="M140.393 17.3475V22.5256C139.796 22.1249 139.025 21.9263 138.07 21.9263C136.818 21.9263 135.853 22.3133 135.182 23.0873C134.508 23.8613 134.173 25.0667 134.173 26.6968V31.1078H128.423V17.0839H134.056V21.5428C134.368 19.9126 134.874 18.7106 135.571 17.9331C136.266 17.1592 137.164 16.7722 138.257 16.7722C139.085 16.7722 139.796 16.964 140.393 17.3475Z" fill="#1A1A1C" fill-opacity="0.4"/>
<path d="M159.499 13.8474V31.1077H153.748V27.9673C153.262 29.1488 152.524 30.0495 151.532 30.6659C150.539 31.2789 149.312 31.5871 147.857 31.5871C146.556 31.5871 145.423 31.2652 144.454 30.618C143.485 29.9707 142.737 29.0837 142.211 27.957C141.688 26.8303 141.423 25.5563 141.423 24.1317C141.406 22.6625 141.684 21.344 142.258 20.1762C142.828 19.0084 143.636 18.0974 144.675 17.4433C145.715 16.7892 146.902 16.4604 148.233 16.4604C150.972 16.4604 152.81 17.6762 153.748 20.1042V13.8474H159.499ZM152.89 26.231C153.477 25.6488 153.769 24.892 153.769 23.9673C153.769 23.0734 153.483 22.344 152.914 21.7858C152.343 21.2276 151.562 20.9467 150.58 20.9467C149.611 20.9467 148.836 21.231 148.256 21.7994C147.676 22.368 147.388 23.1042 147.388 24.0152C147.388 24.9262 147.676 25.6694 148.256 26.2447C148.836 26.82 149.601 27.1077 150.556 27.1077C151.525 27.1043 152.303 26.8132 152.89 26.231Z" fill="#1A1A1C" fill-opacity="0.4"/>
<path d="M70.3922 18.5767C71.9753 18.5767 73.2592 17.3991 73.2592 15.9465C73.2592 14.4939 71.9753 13.3164 70.3922 13.3164C68.8086 13.3164 67.5253 14.4939 67.5253 15.9465C67.5253 17.3991 68.8086 18.5767 70.3922 18.5767Z" fill="#1A1A1C" fill-opacity="0.4"/>
<path d="M67.5228 20.3885C69.2794 21.1624 71.4591 21.1967 73.2561 20.3885V31.183H67.5228V20.3885Z" fill="#1A1A1C" fill-opacity="0.4"/>
</svg>
