<svg width="24" height="24" viewBox="0 0 24 24" fill="none" xmlns="http://www.w3.org/2000/svg">
<path fill-rule="evenodd" clip-rule="evenodd" d="M13.8115 18.7617C10.6979 19.5957 7.41731 18.1957 5.86521 15.3707C4.31312 12.5457 4.89079 9.02595 7.26447 6.84524C9.63814 4.66452 13.1941 4.38662 15.8777 6.1721C18.5614 7.95759 19.6788 11.3448 18.5845 14.3767C17.8079 16.532 16.0248 18.1702 13.8115 18.7617Z" stroke="#1A1A1C" stroke-width="1.5" stroke-linecap="round" stroke-linejoin="round"/>
<path d="M13.0614 18.7162C13.0365 19.1297 13.3515 19.485 13.765 19.5099C14.1785 19.5348 14.5338 19.2198 14.5587 18.8063L13.0614 18.7162ZM10.8429 4.87437C10.6419 4.51219 10.1853 4.3815 9.82315 4.58248C9.46097 4.78346 9.33028 5.24 9.53126 5.60219L10.8429 4.87437ZM17.2187 6.9035C17.3591 6.5138 17.157 6.08408 16.7673 5.94368C16.3776 5.80328 15.9479 6.00537 15.8075 6.39506L17.2187 6.9035ZM11.7401 11.0343L11.5464 10.3097L11.5455 10.31L11.7401 11.0343ZM5.89802 9.05032C5.58158 8.78304 5.10838 8.82289 4.8411 9.13932C4.57382 9.45576 4.61367 9.92896 4.9301 10.1962L5.89802 9.05032ZM6.77955 17.0958C6.63901 17.4855 6.84095 17.9153 7.23059 18.0558C7.62023 18.1963 8.05003 17.9944 8.19057 17.6048L6.77955 17.0958ZM12.2582 12.9638L12.0641 12.2394L12.2582 12.9638ZM18.1013 14.9494C18.4178 15.2166 18.891 15.1766 19.1582 14.8601C19.4254 14.5435 19.3854 14.0703 19.0688 13.8032L18.1013 14.9494ZM13.8101 18.7613L14.5587 18.8063C14.7186 16.1509 14.1178 13.2711 13.3277 10.7807C12.5353 8.28333 11.5336 6.11922 10.8429 4.87437L10.1871 5.23828L9.53126 5.60219C10.1745 6.76135 11.1363 8.83373 11.8979 11.2343C12.6618 13.6419 13.2056 16.3216 13.0614 18.7162L13.8101 18.7613ZM16.5131 6.64928L15.8075 6.39506C15.1142 8.31922 13.5223 9.7817 11.5464 10.3097L11.7401 11.0343L11.9337 11.7589C14.3844 11.104 16.3588 9.29004 17.2187 6.9035L16.5131 6.64928ZM11.7401 11.0343L11.5455 10.31C9.57029 10.8406 7.46046 10.37 5.89802 9.05032L5.41406 9.62328L4.9301 10.1962C6.86801 11.8331 9.48485 12.4168 11.9347 11.7586L11.7401 11.0343ZM7.48506 17.3503L8.19057 17.6048C8.88464 15.6805 10.4764 14.2177 12.4523 13.6883L12.2582 12.9638L12.0641 12.2394C9.614 12.8958 7.64019 14.7097 6.77955 17.0958L7.48506 17.3503ZM12.2582 12.9638L12.4523 13.6883C14.4282 13.1589 16.5381 13.6299 18.1013 14.9494L18.5851 14.3763L19.0688 13.8032C17.1305 12.167 14.5142 11.5829 12.0641 12.2394L12.2582 12.9638Z" fill="#1A1A1C"/>
</svg>
