<svg width="24" height="25" viewBox="0 0 24 25" fill="none" xmlns="http://www.w3.org/2000/svg">
<path fill-rule="evenodd" clip-rule="evenodd" d="M13.8115 19.2617C10.6979 20.0957 7.41731 18.6957 5.86521 15.8707C4.31312 13.0457 4.89079 9.52595 7.26447 7.34524C9.63814 5.16452 13.1941 4.88662 15.8777 6.6721C18.5614 8.45759 19.6788 11.8448 18.5845 14.8767C17.8079 17.032 16.0248 18.6702 13.8115 19.2617Z" stroke="#FCFCFC" stroke-width="1.5" stroke-linecap="round" stroke-linejoin="round"/>
<path d="M13.0614 19.2162C13.0365 19.6297 13.3515 19.985 13.765 20.0099C14.1785 20.0348 14.5338 19.7198 14.5587 19.3063L13.0614 19.2162ZM10.8429 5.37437C10.6419 5.01219 10.1853 4.8815 9.82315 5.08248C9.46097 5.28346 9.33028 5.74 9.53126 6.10219L10.8429 5.37437ZM17.2187 7.4035C17.3591 7.0138 17.157 6.58408 16.7673 6.44368C16.3776 6.30328 15.9479 6.50537 15.8075 6.89506L17.2187 7.4035ZM11.7401 11.5343L11.5464 10.8097L11.5455 10.81L11.7401 11.5343ZM5.89802 9.55032C5.58158 9.28304 5.10838 9.32289 4.8411 9.63932C4.57382 9.95576 4.61367 10.429 4.9301 10.6962L5.89802 9.55032ZM6.77955 17.5958C6.63901 17.9855 6.84095 18.4153 7.23059 18.5558C7.62023 18.6963 8.05003 18.4944 8.19057 18.1048L6.77955 17.5958ZM12.2582 13.4638L12.0641 12.7394L12.2582 13.4638ZM18.1013 15.4494C18.4178 15.7166 18.891 15.6766 19.1582 15.3601C19.4254 15.0435 19.3854 14.5703 19.0688 14.3032L18.1013 15.4494ZM13.8101 19.2613L14.5587 19.3063C14.7186 16.6509 14.1178 13.7711 13.3277 11.2807C12.5353 8.78333 11.5336 6.61922 10.8429 5.37437L10.1871 5.73828L9.53126 6.10219C10.1745 7.26135 11.1363 9.33373 11.8979 11.7343C12.6618 14.1419 13.2056 16.8216 13.0614 19.2162L13.8101 19.2613ZM16.5131 7.14928L15.8075 6.89506C15.1142 8.81922 13.5223 10.2817 11.5464 10.8097L11.7401 11.5343L11.9337 12.2589C14.3844 11.604 16.3588 9.79004 17.2187 7.4035L16.5131 7.14928ZM11.7401 11.5343L11.5455 10.81C9.57029 11.3406 7.46046 10.87 5.89802 9.55032L5.41406 10.1233L4.9301 10.6962C6.86801 12.3331 9.48485 12.9168 11.9347 12.2586L11.7401 11.5343ZM7.48506 17.8503L8.19057 18.1048C8.88464 16.1805 10.4764 14.7177 12.4523 14.1883L12.2582 13.4638L12.0641 12.7394C9.614 13.3958 7.64019 15.2097 6.77955 17.5958L7.48506 17.8503ZM12.2582 13.4638L12.4523 14.1883C14.4282 13.6589 16.5381 14.1299 18.1013 15.4494L18.5851 14.8763L19.0688 14.3032C17.1305 12.667 14.5142 12.0829 12.0641 12.7394L12.2582 13.4638Z" fill="#FCFCFC"/>
</svg>
