<svg width="62" height="56" viewBox="0 0 62 56" fill="none" xmlns="http://www.w3.org/2000/svg">
<g id="Vector">
<path d="M42.2167 37.9338H19.8855L10.323 55.0182C11.4734 55.6164 12.7798 56 13.6247 56C22.4092 56 40.3371 55.867 49.2367 55.867C50.1518 55.867 51.0084 55.548 51.7767 55.0481L42.2167 37.9338Z" fill="#4185F3"/>
<path d="M10.323 55.0182L19.8855 37.9338L0.508936 37.9346C0.499187 39.1218 0.911897 40.208 1.55859 41.4472C3.36021 44.8946 6.40842 50.4055 8.199 53.2839C8.64031 53.9932 10.3919 55.054 10.323 55.0182Z" fill="#1767D1"/>
<path d="M42.2198 37.9338L51.7829 55.0455C53.0224 54.2398 54.0324 52.9634 54.6882 51.7881C56.1687 49.1377 58.6723 44.7244 60.3992 41.7363C61.2018 40.3469 61.5138 39.0992 61.4943 37.9325L42.2198 37.9338Z" fill="#E94235"/>
<path d="M19.8875 37.9352L31.0418 18.1014L21.073 1.1021C19.9948 1.82735 19.0725 2.81187 18.654 3.56172C14.3026 11.3673 5.53691 27.3648 1.12903 35.2715C0.677364 36.0805 0.461112 37.0047 0.505742 37.9352H19.8875Z" fill="#30A753"/>
<path d="M42.2163 37.9351L31.0418 18.1014L40.737 1.12128C41.8153 1.8472 42.9988 2.81177 43.4174 3.56228C47.7687 11.3673 56.5344 27.3647 60.9443 35.2714C61.3992 36.0844 61.5363 37.0045 61.4921 37.9351H42.2163Z" fill="#F9BC00"/>
<path d="M21.0727 1.10475L31.0418 18.1014L40.737 1.12128C39.7361 0.522993 38.3195 0.16877 36.9468 0.124231C33.1278 -0.00606219 26.9365 -0.0585784 23.6042 0.0896635C22.7827 0.126225 21.0831 1.09744 21.0727 1.10475Z" fill="#0F8038"/>
</g>
</svg>
