<svg width="49" height="48" viewBox="0 0 49 48" fill="none" xmlns="http://www.w3.org/2000/svg">
<g clip-path="url(#clip0_1321_24996)">
<path d="M7.80156 34.2539C8.36478 34.5466 8.94557 34.8041 9.54062 35.025C11.4248 35.7263 13.42 36.082 15.4305 36.075C23.1906 36.075 29.95 30.743 29.95 23.8852C29.9399 22.9669 29.6853 22.0678 29.2124 21.2806C28.7395 20.4934 28.0654 19.8464 27.2594 19.4062C34.2812 19.7016 36.0859 27.0187 36.0859 31.3008C36.0859 43.4414 24.9133 44.6555 22.5016 44.6555C21.2055 44.6555 19.2531 44.2781 18.0719 43.9008L17.8586 43.8352C13.338 42.2729 9.48427 39.2177 6.93203 35.1727C6.85785 35.0498 6.82602 34.9059 6.84142 34.7632C6.85681 34.6205 6.91858 34.4867 7.01725 34.3825C7.11593 34.2782 7.24607 34.2092 7.38774 34.186C7.5294 34.1627 7.67477 34.1866 7.80156 34.2539Z" fill="url(#paint0_linear_1321_24996)"/>
<path opacity="0.35" d="M7.80156 34.2539C8.36478 34.5466 8.94557 34.8041 9.54062 35.025C11.4248 35.7263 13.42 36.082 15.4305 36.075C23.1906 36.075 29.95 30.743 29.95 23.8852C29.9399 22.9669 29.6853 22.0678 29.2124 21.2806C28.7395 20.4934 28.0654 19.8464 27.2594 19.4062C34.2812 19.7016 36.0859 27.0187 36.0859 31.3008C36.0859 43.4414 24.9133 44.6555 22.5016 44.6555C21.2055 44.6555 19.2531 44.2781 18.0719 43.9008L17.8586 43.8352C13.338 42.2729 9.48427 39.2177 6.93203 35.1727C6.85785 35.0498 6.82602 34.9059 6.84142 34.7632C6.85681 34.6205 6.91858 34.4867 7.01725 34.3825C7.11593 34.2782 7.24607 34.2092 7.38774 34.186C7.5294 34.1627 7.67477 34.1866 7.80156 34.2539Z" fill="url(#paint1_radial_1321_24996)"/>
<path d="M28.3773 42.5875C29.8376 41.6805 31.1035 40.4927 32.1015 39.093C33.2411 37.533 34.0256 35.7426 34.3999 33.8473C34.7742 31.952 34.7291 29.9978 34.2679 28.1217C33.8067 26.2457 32.9406 24.4933 31.7302 22.9876C30.5199 21.4818 28.9947 20.2592 27.2616 19.4055C26.7366 19.1594 25.8671 18.7328 24.7023 18.7492C23.8826 18.7556 23.0755 18.9514 22.344 19.3214C21.6126 19.6914 20.9766 20.2255 20.4858 20.882C19.8257 21.7697 19.4639 22.8438 19.4523 23.95C19.4523 23.9172 15.4327 10.8906 32.5773 10.8906C39.7796 10.8906 45.7023 17.7156 45.7023 23.7203C45.7309 26.8922 45.0528 30.0307 43.7171 32.9078C41.5297 37.5656 37.7082 41.2581 32.9782 43.2844C28.2481 45.3107 22.9386 45.5298 18.0577 43.9C19.7677 44.4401 21.5746 44.6024 23.3535 44.3758C25.1324 44.1492 26.8409 43.539 28.3608 42.5875H28.3773Z" fill="url(#paint2_linear_1321_24996)"/>
<path opacity="0.41" d="M28.3773 42.5875C29.8376 41.6805 31.1035 40.4927 32.1015 39.093C33.2411 37.533 34.0256 35.7426 34.3999 33.8473C34.7742 31.952 34.7291 29.9978 34.2679 28.1217C33.8067 26.2457 32.9406 24.4933 31.7302 22.9876C30.5199 21.4818 28.9947 20.2592 27.2616 19.4055C26.7366 19.1594 25.8671 18.7328 24.7023 18.7492C23.8826 18.7556 23.0755 18.9514 22.344 19.3214C21.6126 19.6914 20.9766 20.2255 20.4858 20.882C19.8257 21.7697 19.4639 22.8438 19.4523 23.95C19.4523 23.9172 15.4327 10.8906 32.5773 10.8906C39.7796 10.8906 45.7023 17.7156 45.7023 23.7203C45.7309 26.8922 45.0528 30.0307 43.7171 32.9078C41.5297 37.5656 37.7082 41.2581 32.9782 43.2844C28.2481 45.3107 22.9386 45.5298 18.0577 43.9C19.7677 44.4401 21.5746 44.6024 23.3535 44.3758C25.1324 44.1492 26.8409 43.539 28.3608 42.5875H28.3773Z" fill="url(#paint3_radial_1321_24996)"/>
<path d="M20.7156 27.4125C20.8633 27.5766 21.2734 27.8227 21.2734 28.3312C21.2734 28.7578 20.9945 29.1844 20.4859 29.5289C18.1398 31.1695 13.6938 30.9398 13.6773 30.9398C11.9284 30.9387 10.2117 30.4684 8.70625 29.5781C7.19064 28.6916 5.93306 27.4244 5.0582 25.902C4.18335 24.3796 3.7216 22.6551 3.71875 20.8992C3.66953 17.2242 5.03125 14.7797 5.57266 13.6969C9.06719 6.90469 16.5648 3 24.7188 3C30.2375 2.99945 35.5347 5.17136 39.4646 9.04598C43.3944 12.9206 45.6411 18.1865 45.7188 23.7047C45.6367 17.7164 39.6813 12.8766 32.5938 12.8766C32.0195 12.8766 28.7383 12.9258 25.7031 14.5172C23.5708 15.5768 21.805 17.2512 20.6336 19.3242C19.6328 21.0633 19.4523 23.2781 19.4523 24.1641C19.4523 25.05 19.8953 26.3461 20.732 27.4289L20.7156 27.4125Z" fill="url(#paint4_radial_1321_24996)"/>
<path d="M20.7156 27.4125C20.8633 27.5766 21.2734 27.8227 21.2734 28.3312C21.2734 28.7578 20.9945 29.1844 20.4859 29.5289C18.1398 31.1695 13.6938 30.9398 13.6773 30.9398C11.9284 30.9387 10.2117 30.4684 8.70625 29.5781C7.19064 28.6916 5.93306 27.4244 5.0582 25.902C4.18335 24.3796 3.7216 22.6551 3.71875 20.8992C3.66953 17.2242 5.03125 14.7797 5.57266 13.6969C9.06719 6.90469 16.5648 3 24.7188 3C30.2375 2.99945 35.5347 5.17136 39.4646 9.04598C43.3944 12.9206 45.6411 18.1865 45.7188 23.7047C45.6367 17.7164 39.6813 12.8766 32.5938 12.8766C32.0195 12.8766 28.7383 12.9258 25.7031 14.5172C23.5708 15.5768 21.805 17.2512 20.6336 19.3242C19.6328 21.0633 19.4523 23.2781 19.4523 24.1641C19.4523 25.05 19.8953 26.3461 20.732 27.4289L20.7156 27.4125Z" fill="url(#paint5_radial_1321_24996)"/>
</g>
<defs>
<linearGradient id="paint0_linear_1321_24996" x1="36.0859" y1="32.0391" x2="6.81719" y2="32.0391" gradientUnits="userSpaceOnUse">
<stop stop-color="#0C59A4"/>
<stop offset="1" stop-color="#114A8B"/>
</linearGradient>
<radialGradient id="paint1_radial_1321_24996" cx="0" cy="0" r="1" gradientUnits="userSpaceOnUse" gradientTransform="translate(19.9258 32.2597) rotate(180) scale(15.6516 14.869)">
<stop offset="0.7" stop-opacity="0"/>
<stop offset="0.9" stop-opacity="0.5"/>
<stop offset="1"/>
</radialGradient>
<linearGradient id="paint2_linear_1321_24996" x1="20.6663" y1="19.3398" x2="38.9265" y2="39.2406" gradientUnits="userSpaceOnUse">
<stop stop-color="#1B9DE2"/>
<stop offset="0.2" stop-color="#1595DF"/>
<stop offset="0.7" stop-color="#0680D7"/>
<stop offset="1" stop-color="#0078D4"/>
</linearGradient>
<radialGradient id="paint3_radial_1321_24996" cx="0" cy="0" r="1" gradientUnits="userSpaceOnUse" gradientTransform="translate(34.1432 35.6373) rotate(-98.6156) scale(23.5243 19.0052)">
<stop offset="0.8" stop-opacity="0"/>
<stop offset="0.9" stop-opacity="0.5"/>
<stop offset="1"/>
</radialGradient>
<radialGradient id="paint4_radial_1321_24996" cx="0" cy="0" r="1" gradientUnits="userSpaceOnUse" gradientTransform="translate(41.4712 10.7628) rotate(87.7094) scale(33.2328 70.779)">
<stop stop-color="#35C1F1"/>
<stop offset="0.1" stop-color="#34C1ED"/>
<stop offset="0.2" stop-color="#2FC2DF"/>
<stop offset="0.3" stop-color="#2BC3D2"/>
<stop offset="0.7" stop-color="#36C752"/>
</radialGradient>
<radialGradient id="paint5_radial_1321_24996" cx="0" cy="0" r="1" gradientUnits="userSpaceOnUse" gradientTransform="translate(6.3339 15.682) rotate(106.26) scale(15.9633 12.9813)">
<stop stop-color="#66EB6E"/>
<stop offset="1" stop-color="#66EB6E" stop-opacity="0"/>
</radialGradient>
<clipPath id="clip0_1321_24996">
<rect width="42" height="42" fill="white" transform="matrix(-1 0 0 1 45.7188 3)"/>
</clipPath>
</defs>
</svg>
