<?xml version="1.0" encoding="UTF-8"?>
<svg version="1.1" xmlns="http://www.w3.org/2000/svg" width="512" height="512">
<path d="M0 0 C1.39909974 -0.00374384 2.79819739 -0.00834826 4.19729179 -0.01373065 C8.01424735 -0.02588579 11.83111477 -0.02570908 15.64808524 -0.02334189 C19.77575931 -0.02293181 23.90340584 -0.03399113 28.03106689 -0.04345703 C36.10822901 -0.06002752 44.18536193 -0.06556481 52.26253963 -0.06668179 C58.83344674 -0.06763427 65.40434426 -0.07175452 71.97524834 -0.07808304 C90.63384129 -0.0956857 109.2924113 -0.10492359 127.95101262 -0.10342209 C129.45795768 -0.10330222 129.45795768 -0.10330222 130.99534607 -0.10317993 C132.00121299 -0.10309817 133.00707991 -0.10301641 134.04342764 -0.10293217 C150.33272112 -0.10211984 166.62192201 -0.12124664 182.91118873 -0.14945666 C199.66519432 -0.17824089 216.41915484 -0.19199388 233.17318577 -0.19026911 C242.56785459 -0.18960706 251.96242638 -0.19501794 261.35707283 -0.21662521 C269.35807796 -0.23491019 277.35894207 -0.23912476 285.35995913 -0.22560637 C289.43517548 -0.21911303 293.51012187 -0.21882631 297.58531189 -0.23631287 C331.34851439 -0.37186411 358.74379966 5.20077819 383.89060974 29.26742554 C405.84020476 51.30978543 412.19740802 77.99759237 412.18113708 108.1602478 C412.18712837 110.37894414 412.19393529 112.5976384 412.20149231 114.81632996 C412.21910084 120.82083913 412.22384559 126.82529123 412.22512388 132.82982373 C412.22654924 136.58911491 412.23082619 140.34839176 412.23611832 144.10767937 C412.253651 156.56846985 412.26296067 169.02923276 412.26145737 181.49003411 C412.2613375 182.49516391 412.2613375 182.49516391 412.26121521 183.52059937 C412.26113345 184.19151743 412.26105169 184.86243549 412.26096745 185.55368441 C412.26015566 196.41111564 412.27927167 207.26840778 412.30749194 218.12579883 C412.33633178 229.31109963 412.3496612 240.49634975 412.34830439 251.68169254 C412.34779674 257.94646913 412.35337018 264.21108827 412.37466049 270.47583199 C412.39416234 276.37504788 412.39408619 282.27395806 412.37962723 288.17318535 C412.37755261 290.32485277 412.3821585 292.47653994 412.39434814 294.62817383 C412.55484952 324.94944415 404.17021159 350.03274953 382.89060974 372.26742554 C364.98632592 390.09635951 340.56068499 400.49559809 315.26853013 400.67331785 C313.99866565 400.6673078 312.72880116 400.66129776 311.42045593 400.65510559 C310.01876519 400.65929018 308.61707785 400.6647738 307.21539664 400.6714254 C303.40517444 400.68575175 299.5951709 400.68167592 295.78493738 400.67425859 C291.65935449 400.66949705 287.53381691 400.68206306 283.4082489 400.692276 C275.34150745 400.70941202 267.27484406 400.71031473 259.20808914 400.7050631 C252.64583122 400.70100995 246.08359625 400.70247851 239.52133942 400.70781136 C238.58481047 400.70855978 237.64828152 400.7093082 236.6833729 400.7100793 C234.78035753 400.7116109 232.87734217 400.71314924 230.97432682 400.71469427 C213.15507435 400.72840086 195.33586586 400.7229949 177.51661441 400.71150906 C161.24690723 400.7015817 144.97731386 400.71451204 128.70762423 400.73844325 C111.96707857 400.76287984 95.22658583 400.77243074 78.48602271 400.76579052 C69.10146509 400.76230802 59.71699491 400.76446588 50.33245087 400.78204155 C42.34249025 400.79682082 34.35267863 400.79732479 26.36272076 400.77997064 C22.29356482 400.77150454 18.22467438 400.76920221 14.15553284 400.78462219 C-19.58888128 400.90308846 -46.97755195 395.31974422 -72.10939026 371.26742554 C-83.94678402 359.38000378 -92.75837479 344.50985692 -97.10939026 328.26742554 C-97.35575761 327.39011654 -97.60212496 326.51280754 -97.85595798 325.60891342 C-100.64047258 314.42425579 -100.54022857 303.49604448 -100.51344299 292.0340271 C-100.51915519 289.81488707 -100.52612272 287.59574997 -100.53424072 285.37661743 C-100.5520955 279.38465062 -100.55101795 273.39283088 -100.54529834 267.40084553 C-100.54219464 262.38146606 -100.54831219 257.36211437 -100.55433708 252.34273887 C-100.56915578 239.81513047 -100.56559032 227.28759256 -100.55347378 214.75998923 C-100.54355061 203.92214229 -100.55647303 193.0844663 -100.58040797 182.24664572 C-100.60489153 171.07480261 -100.61398586 159.90302119 -100.60775524 148.73114753 C-100.6043999 142.47648576 -100.60670536 136.22196507 -100.62400627 129.9673233 C-100.63958109 124.08036537 -100.63540382 118.19373121 -100.61670113 112.30678558 C-100.61304393 110.15995847 -100.61603871 108.0131068 -100.62658691 105.86630249 C-100.76398027 75.56385642 -92.37553977 50.48804543 -71.10939026 28.26742554 C-51.84169454 9.08081756 -26.92127714 -0.06521233 0 0 Z M-45.19923401 60.95492554 C-59.91333674 78.7683178 -60.26139635 97.75492276 -60.25465393 119.63754272 C-60.25765045 121.58524642 -60.2610541 123.53294952 -60.26483154 125.48065186 C-60.27362544 130.74530573 -60.2760077 136.00994333 -60.27664733 141.27460384 C-60.27736043 144.57087051 -60.27949966 147.8671331 -60.28214455 151.16339874 C-60.29138258 162.68310303 -60.29548135 174.20279579 -60.29469299 185.72250366 C-60.29409256 196.4282535 -60.30464168 207.13395289 -60.32043666 217.83968997 C-60.33354927 227.05875596 -60.33887533 236.27780554 -60.33823758 245.49688077 C-60.3379837 250.99077459 -60.34077414 256.48462354 -60.35141563 261.978508 C-60.36115951 267.14961626 -60.36113305 272.32063731 -60.353899 277.49174881 C-60.35286095 279.37860111 -60.35516913 281.26545903 -60.36125946 283.15230179 C-60.43175258 306.52416616 -58.00712004 325.67720071 -41.29689026 343.51742554 C-26.09641754 357.92252468 -8.15232539 360.42741162 11.91960144 360.40113831 C13.20050321 360.40340386 14.48140498 360.40566942 15.80112195 360.40800363 C19.33160059 360.41408241 22.8620554 360.4139927 26.39253807 360.41280925 C30.20998367 360.41260425 34.02742181 360.41813346 37.84486389 360.42286682 C45.31455178 360.43115228 52.78423177 360.4339207 60.25392386 360.4344792 C66.32908138 360.43495534 72.40423631 360.43701498 78.47939301 360.44017982 C95.72537747 360.4489805 112.97135574 360.4536001 130.21734247 360.45284935 C131.14592692 360.45280939 132.07451137 360.45276944 133.03123474 360.45272827 C133.96096042 360.45268739 134.8906861 360.45264651 135.84858528 360.45260439 C150.91197553 360.45219804 165.97534078 360.46176632 181.0387238 360.47586664 C196.52705973 360.49024969 212.01538347 360.49713577 227.50372624 360.49627286 C236.19066885 360.49594157 244.87758522 360.49865896 253.56452179 360.50945091 C260.96103845 360.51858131 268.357517 360.52071036 275.75403687 360.51394149 C279.52286336 360.51068913 283.29161683 360.51057286 287.06043625 360.51929474 C291.15823986 360.52867988 295.25587631 360.52235035 299.35368347 360.5146637 C300.52784026 360.51980726 301.70199705 360.52495082 302.91173434 360.53025025 C323.58765194 360.44501059 339.87048579 355.75784394 355.14060974 341.45492554 C371.59691719 324.18929149 372.20250207 302.88305406 372.1493988 280.44320679 C372.15211522 278.49491241 372.15567978 276.54661907 372.16001892 274.59832764 C372.16906781 269.35041619 372.16562988 264.10258416 372.15926075 258.85467148 C372.15416164 253.33641105 372.158903 247.81815697 372.16203308 242.29989624 C372.1656614 233.03678174 372.1609035 223.77369923 372.15135193 214.5105896 C372.14046959 203.83428921 372.14399597 193.15806524 372.15500474 182.4817667 C372.16411004 173.27960085 372.16534708 164.07745787 372.1601274 154.87528896 C372.15702548 149.39487393 372.15654907 143.9144947 372.16320038 138.43408203 C372.16902059 133.27932827 372.16489226 128.12467207 372.15341187 122.96992874 C372.15079011 121.08952623 372.15148728 119.20911536 372.15593719 117.32871628 C372.20604439 93.98466845 369.72868171 75.00006054 353.20310974 57.07992554 C337.86307053 42.48891168 320.03298659 40.10730929 299.86161804 40.13371277 C298.58071627 40.13144721 297.29981451 40.12918166 295.98009753 40.12684745 C292.4496189 40.12076866 288.91916408 40.12085838 285.38868141 40.12204182 C281.57123581 40.12224683 277.75379767 40.11671761 273.93635559 40.11198425 C266.46666771 40.10369879 258.99698772 40.10093037 251.52729562 40.10037187 C245.4521381 40.09989573 239.37698317 40.0978361 233.30182648 40.09467125 C216.05584201 40.08587058 198.80986375 40.08125098 181.56387702 40.08200172 C180.63529257 40.08204168 179.70670811 40.08208164 178.74998474 40.0821228 C177.82025906 40.08216368 176.89053339 40.08220456 175.9326342 40.08224668 C160.86924395 40.08265303 145.80587871 40.07308475 130.74249569 40.05898444 C115.25415976 40.04460138 99.76583601 40.03771531 84.27749324 40.03857821 C75.59055064 40.03890951 66.90363426 40.03619212 58.21669769 40.02540016 C50.82018103 40.01626976 43.42370248 40.01414071 36.02718261 40.02090959 C32.25835612 40.02416195 28.48960266 40.02427821 24.72078323 40.01555634 C20.62297962 40.00617119 16.52534317 40.01250073 12.42753601 40.02018738 C11.25337922 40.01504381 10.07922244 40.00990025 8.86948514 40.00460082 C-12.44832083 40.09248677 -30.19660461 45.18214063 -45.19923401 60.95492554 Z " fill="#000000" transform="translate(100.10939025878906,55.732574462890625)"/>
<path d="M0 0 C5.45384557 3.45014384 9.71549339 7.59207295 13.98999023 12.38378906 C21.48411675 20.57393613 29.27586869 28.42567067 37.17626953 36.21972656 C40.96254149 39.97132508 44.71413707 43.69727278 48.17358398 47.75488281 C53.20059848 53.62380921 58.80857801 58.95712963 64.30249023 64.38378906 C76.55371244 76.48504002 76.55371244 76.48504002 81.90209961 82.76074219 C86.46193443 87.85482281 91.43964295 92.58046949 96.30249023 97.38378906 C108.7745857 109.7032095 108.7745857 109.7032095 114.05834961 115.89501953 C117.79873406 120.16002118 121.81496572 124.16412808 125.80249023 128.19628906 C127.09799805 129.53530273 127.09799805 129.53530273 128.41967773 130.90136719 C134.24204248 136.7812477 138.32990794 140.38683547 146.73999023 141.32128906 C154.30984028 140.99651919 159.97374725 136.31328032 165.02514648 131.08691406 C165.57432236 130.53445007 166.12349823 129.98198608 166.6893158 129.41278076 C168.42417402 127.66233264 170.1443742 125.89822548 171.86499023 124.13378906 C173.02101348 122.96625261 174.17790864 121.79957878 175.33569336 120.63378906 C179.79457636 116.12622359 184.2404764 111.62820873 188.36108398 106.80566406 C193.65403877 100.61657777 199.61349212 95.01918026 205.4050293 89.30175781 C212.54505663 82.30424203 212.54505663 82.30424203 219.27124023 74.91503906 C224.76227176 68.48002875 230.96343675 62.66972677 236.9777832 56.72900391 C244.35315204 49.50785656 244.35315204 49.50785656 251.30249023 41.88378906 C256.77966065 35.45697493 262.97429165 29.65900474 268.9777832 23.72900391 C274.64999072 18.12002428 280.24177381 12.51373464 285.43286133 6.44824219 C289.34716928 1.97713962 293.27048918 -0.68198596 299.17358398 -1.69433594 C306.2134352 -2.02776269 311.45746063 -1.35170502 317.02514648 3.13769531 C323.03430464 9.04119794 323.28604317 13.9822304 323.52905273 22.18847656 C321.52037293 32.40466522 312.54786707 39.47938732 305.36499023 46.44628906 C303.34155902 48.42280572 301.32261276 50.40382055 299.30639648 52.38769531 C298.81696564 52.86844513 298.32753479 53.34919495 297.82327271 53.84451294 C295.22270173 56.41660545 292.73249421 59.0332386 290.36108398 61.81738281 C284.86234214 68.26603499 278.65242584 74.08710245 272.62719727 80.03857422 C267.08692914 85.51708517 261.60386611 90.97811271 256.54614258 96.91308594 C252.85024586 101.09024616 248.8267962 104.96114924 244.86499023 108.88378906 C243.99036133 109.75390625 243.11573242 110.62402344 242.21459961 111.52050781 C240.07951574 113.64392456 237.94211818 115.76495284 235.80249023 117.88378906 C239.78795599 122.62310268 243.91568875 127.06547528 248.36108398 131.37988281 C250.34729765 133.41694355 252.20283449 135.48324071 254.05639648 137.63769531 C257.93094712 142.1037645 262.08602572 146.24275325 266.30249023 150.38378906 C271.07106798 155.0670613 275.6522499 159.80345258 280.01147461 164.87011719 C283.27440023 168.5386846 286.80097736 171.94491505 290.30249023 175.38378906 C295.10985535 180.1051548 299.72984913 184.88116356 304.12329102 189.99072266 C307.27042408 193.53868278 310.72920875 196.77957953 314.17163086 200.03808594 C318.79929602 204.54469446 322.25434779 208.75866525 323.40405273 215.31347656 C323.45948786 223.46243993 322.63414057 228.94776914 316.80249023 234.88378906 C311.42945906 239.47325319 306.18186868 239.63553854 299.21655273 239.36425781 C289.13940512 237.946078 282.98426585 229.05776636 276.50561523 221.91113281 C272.38593963 217.38407677 268.06079881 213.08139005 263.68457031 208.80371094 C260.80314187 205.96592086 258.06228088 203.07094778 255.42358398 200.00488281 C251.59653684 195.57543501 247.47696137 191.48358272 243.30249023 187.38378906 C238.53791019 182.70444301 233.95830647 177.97273342 229.60229492 172.91064453 C226.28999307 169.18048583 222.72394617 165.70201714 219.17749023 162.19628906 C218.07147461 161.09704102 218.07147461 161.09704102 216.94311523 159.97558594 C215.52843733 158.56978146 214.11280298 157.16493856 212.69604492 155.76123047 C210.39103586 153.47583597 208.09544226 151.18127262 205.80249023 148.88378906 C201.86074043 152.73339406 198.00840776 156.57698443 194.48999023 160.82128906 C182.91265721 174.12346177 167.95095002 181.55429342 150.43530273 183.20019531 C132.91086391 183.81613364 116.96213728 177.94854044 104.05249023 166.07128906 C99.25265374 161.53305333 94.83655839 156.72467085 90.60717773 151.64941406 C88.86588058 149.5341248 88.86588058 149.5341248 85.80249023 149.88378906 C83.48981911 152.0566128 83.48981911 152.0566128 81.05249023 154.94628906 C75.9815227 160.67853583 70.66051325 166.09923472 65.1940918 171.4543457 C62.12966849 174.47710143 59.1888606 177.54220084 56.38061523 180.80566406 C51.9050658 185.99328971 47.00392912 190.73067645 42.11889648 195.52832031 C38.72330463 198.8870703 35.41831255 202.2623133 32.30249023 205.88378906 C27.85813771 211.04939651 22.97741935 215.75671199 18.11889648 220.52832031 C13.99821816 224.60428965 10.07317703 228.75816945 6.33398438 233.18847656 C2.70599467 237.20453913 -0.20613689 238.60994527 -5.43579102 239.32910156 C-12.55725084 239.68096746 -17.77439606 239.18224481 -23.42016602 234.62988281 C-29.42932417 228.72638018 -29.6810627 223.78534773 -29.92407227 215.57910156 C-28.16660486 206.64058457 -21.10656146 200.40971398 -14.76000977 194.32128906 C-9.95793924 189.66434778 -5.34494195 184.97504679 -0.98632812 179.8996582 C2.94717134 175.4668883 7.25986085 171.38987767 11.48608398 167.23925781 C14.88167584 163.88050782 18.18666792 160.50526482 21.30249023 156.88378906 C25.74684276 151.71818162 30.62756112 147.01086614 35.48608398 142.23925781 C39.58083512 138.18893436 43.47451989 134.0485329 47.23071289 129.68261719 C49.30154213 127.31264673 51.49793036 125.09135571 53.73999023 122.88378906 C54.51213867 122.12066406 55.28428711 121.35753906 56.07983398 120.57128906 C56.64831055 120.01441406 57.21678711 119.45753906 57.80249023 118.88378906 C52.23561185 112.16203153 46.09397663 106.11668966 39.87866211 99.99902344 C36.29291962 96.44762165 32.76062645 92.90984592 29.48608398 89.06738281 C24.43600739 83.18357754 18.81515165 77.82896818 13.30249023 72.38378906 C0.91345919 60.14641623 0.91345919 60.14641623 -4.47143555 53.82373047 C-8.84244737 48.91113359 -13.70378787 44.42562497 -18.43383789 39.86230469 C-28.47642149 29.99492874 -28.47642149 29.99492874 -29.79907227 22.45410156 C-29.85450739 14.3051382 -29.0291601 8.81980898 -23.19750977 2.88378906 C-17.11440909 -2.31219277 -7.28749296 -3.70163513 0 0 Z " fill="#000000" transform="translate(109.197509765625,137.1162109375)"/>
</svg>
