<svg width="24" height="25" viewBox="0 0 24 25" fill="none" xmlns="http://www.w3.org/2000/svg">
<path d="M11.25 19.5C11.25 19.9142 11.5858 20.25 12 20.25C12.4142 20.25 12.75 19.9142 12.75 19.5H11.25ZM12.75 11.5C12.75 11.0858 12.4142 10.75 12 10.75C11.5858 10.75 11.25 11.0858 11.25 11.5H12.75ZM15 6.25C15.4142 6.25 15.75 5.91421 15.75 5.5C15.75 5.08579 15.4142 4.75 15 4.75V6.25ZM12 8.5H11.25H12ZM11.25 11.5C11.25 11.9142 11.5858 12.25 12 12.25C12.4142 12.25 12.75 11.9142 12.75 11.5H11.25ZM12 10.75C11.5858 10.75 11.25 11.0858 11.25 11.5C11.25 11.9142 11.5858 12.25 12 12.25V10.75ZM14 12.25C14.4142 12.25 14.75 11.9142 14.75 11.5C14.75 11.0858 14.4142 10.75 14 10.75V12.25ZM12 12.25C12.4142 12.25 12.75 11.9142 12.75 11.5C12.75 11.0858 12.4142 10.75 12 10.75V12.25ZM10 10.75C9.58579 10.75 9.25 11.0858 9.25 11.5C9.25 11.9142 9.58579 12.25 10 12.25V10.75ZM12 19.5H12.75V11.5H12H11.25V19.5H12ZM15 5.5V4.75C12.9289 4.75 11.25 6.42893 11.25 8.5H12H12.75C12.75 7.25736 13.7574 6.25 15 6.25V5.5ZM12 8.5H11.25V11.5H12H12.75V8.5H12ZM12 11.5V12.25H14V11.5V10.75H12V11.5ZM12 11.5V10.75H10V11.5V12.25H12V11.5Z" fill="#FCFCFC"/>
</svg>
