<svg width="48" height="48" viewBox="0 0 48 48" fill="none" xmlns="http://www.w3.org/2000/svg">
<path d="M45 17.9333C45 12.7062 45 10.0926 43.9827 8.09609C43.0879 6.33991 41.6601 4.91209 39.9039 4.01727C37.9074 3 35.2938 3 30.0667 3H17.9333C12.7062 3 10.0926 3 8.09609 4.01727C6.33991 4.91209 4.91209 6.33991 4.01727 8.09609C3 10.0926 3 12.7062 3 17.9333V30.0667C3 35.2938 3 37.9074 4.01727 39.9039C4.91209 41.6601 6.33991 43.0879 8.09609 43.9827C10.0926 45 12.7062 45 17.9333 45H30.0667C35.2938 45 37.9074 45 39.9039 43.9827C41.6601 43.0879 43.0879 41.6601 43.9827 39.9039C45 37.9074 45 35.2938 45 30.0667V17.9333Z" fill="white"/>
<path d="M14.9271 12.7852L23.9078 19.7938L33.0938 12.7852V12.7871L33.0827 12.7965V22.6105L24.0113 29.7707L14.9271 22.8871V12.7852Z" fill="#EA4335"/>
<path d="M12.5634 11.0796L14.9219 12.7844V22.8863L7.50058 17.1885V13.7561C7.50058 13.7561 8.40141 8.85386 12.5634 11.0796Z" fill="#FBBC05"/>
<path d="M14.9219 22.8873V35.9896H9.23381C9.23381 35.9896 7.61526 35.8229 7.49873 33.978V17.1895L14.9219 22.8873Z" fill="#34A853"/>
<path d="M33.0744 35.9994V22.6091L33.0859 22.5996L33.0744 35.9994Z" fill="#C5221F"/>
<path d="M33.0898 12.7868L35.4353 11.0915C39.5973 8.86575 40.5 13.7661 40.5 13.7661V17.1984L33.0898 22.6008V12.7868Z" fill="#C5221F"/>
<path d="M33.0859 12.7871V22.6011L33.0744 22.6106V12.7966L33.0859 12.7871Z" fill="#C5221F"/>
<path d="M40.5 17.1992V33.9877C40.3853 35.8346 38.7649 35.9994 38.7649 35.9994H33.0768L33.0898 22.5997L40.5 17.1992Z" fill="#4285F4"/>
</svg>
