<svg width="34" height="26" viewBox="0 0 34 26" fill="none" xmlns="http://www.w3.org/2000/svg">
<path d="M26.0729 2.78516L17.0922 9.79379L7.90625 2.78516V2.78705L7.91735 2.79652V12.6105L16.9887 19.7707L26.0729 12.8871V2.78516Z" fill="#EA4335"/>
<path d="M28.4366 1.07958L26.0781 2.78438V12.8863L33.4994 7.18845V3.75612C33.4994 3.75612 32.5986 -1.14614 28.4366 1.07958Z" fill="#FBBC05"/>
<path d="M26.0781 12.8873V25.9896H31.7662C31.7662 25.9896 33.3847 25.8229 33.5013 23.978V7.18945L26.0781 12.8873Z" fill="#34A853"/>
<path d="M7.92558 25.9994V12.6091L7.91406 12.5996L7.92558 25.9994Z" fill="#C5221F"/>
<path d="M7.9102 2.7868L5.56469 1.09147C1.40269 -1.13425 0.5 3.76611 0.5 3.76611V7.19845L7.9102 12.6008V2.7868Z" fill="#C5221F"/>
<path d="M7.91406 2.78711V12.6011L7.92558 12.6106V2.79658L7.91406 2.78711Z" fill="#C5221F"/>
<path d="M0.5 7.19922V23.9877C0.614686 25.8346 2.23509 25.9994 2.23509 25.9994H7.92315L7.9102 12.5997L0.5 7.19922Z" fill="#4285F4"/>
</svg>
