<svg width="49" height="49" viewBox="0 0 49 49" fill="none" xmlns="http://www.w3.org/2000/svg">
<g clip-path="url(#clip0_1282_21211)">
<path d="M24.3072 23.5137L5.91797 42.8442C5.91897 42.8482 5.91972 42.8522 5.92072 42.8559C6.48497 44.9547 8.42022 46.5004 10.718 46.5004C11.636 46.5004 12.4982 46.2544 13.238 45.8229L13.2965 45.7882L33.993 33.9569L24.3072 23.5137Z" fill="#EA4335"/>
<path d="M42.9121 20.2211L42.8946 20.2096L33.9584 15.0781L23.8906 23.9516L33.9939 33.9561L42.8829 28.8764C44.4411 28.0426 45.4991 26.4159 45.4991 24.5401C45.4994 22.6759 44.4559 21.0579 42.9121 20.2211Z" fill="#FBBC04"/>
<path d="M5.9185 6.1543C5.80825 6.5583 5.75 6.98205 5.75 7.4203V41.5783C5.768 42.0685 5.80775 42.4413 5.9195 42.843L24.9412 24.0075L5.9185 6.1543Z" fill="#4285F4"/>
<path d="M24.444 24.5L33.9585 15.0785L13.286 3.2035C12.5345 2.75775 11.6575 2.5 10.7192 2.5C8.42147 2.5 6.48322 4.04875 5.91922 6.15025C5.91872 6.15175 5.91847 6.1535 5.91797 6.15525L24.444 24.5Z" fill="#34A853"/>
</g>
<defs>
<clipPath id="clip0_1282_21211">
<rect width="48" height="48" fill="white" transform="translate(0.5 0.5)"/>
</clipPath>
</defs>
</svg>
