<svg width="34" height="28" viewBox="0 0 34 28" fill="none" xmlns="http://www.w3.org/2000/svg">
<path d="M0.5 25.3398C0.5 26.5332 1.47497 27.4998 2.67621 27.4998H2.70749C1.48785 27.4998 0.5 26.5332 0.5 25.3398Z" fill="#FBBC05"/>
<path d="M19.2002 8.59996V14.2393L26.8032 8.10676V2.65999C26.8032 1.46659 25.8282 0.5 24.6269 0.5H8.15534L8.14062 8.59996H19.2002Z" fill="#FBBC05"/>
<path d="M19.2002 19.8816H8.12225L8.10938 27.5009H24.6269C25.83 27.5009 26.8032 26.5343 26.8032 25.3409V20.4234L19.2002 14.2422V19.8816Z" fill="#34A853"/>
<path d="M8.15632 0.5L0.5 8.59996H8.14345L8.15632 0.5Z" fill="#EA4335"/>
<path d="M0.5 19.8809V25.3402C0.5 26.5336 1.48785 27.5002 2.70749 27.5002H8.11034L8.12321 19.8809H0.5Z" fill="#1967D2"/>
<path d="M8.14345 8.59961H0.5V19.8802H8.12321L8.14345 8.59961Z" fill="#4285F4"/>
<path d="M33.4879 23.4204V4.88052C33.0592 2.41994 30.3606 5.24052 30.3606 5.24052L26.8047 8.10791V20.4216L31.8948 24.5598C33.7325 24.801 33.4879 23.4204 33.4879 23.4204Z" fill="#34A853"/>
<path d="M19.2031 14.2401L26.8079 20.4231V8.10938L19.2031 14.2401Z" fill="#188038"/>
</svg>
