<svg width="41" height="40" viewBox="0 0 41 40" fill="none" xmlns="http://www.w3.org/2000/svg">
<path d="M24.6641 30.0039H16.3359C14.9609 30.0039 13.8359 28.8793 13.8359 27.5049V19.1722C13.8359 17.7977 14.9609 16.6732 16.3359 16.6732H24.6719C26.0469 16.6732 27.1719 17.7977 27.1719 19.1722V27.5049C27.1641 28.8793 26.0469 30.0039 24.6641 30.0039ZM16.3359 18.3366C15.875 18.3366 15.5 18.7114 15.5 19.1722V27.5049C15.5 27.9656 15.875 28.3405 16.3359 28.3405H24.6719C25.1328 28.3405 25.5078 27.9656 25.5078 27.5049V19.1722C25.5078 18.7114 25.1328 18.3366 24.6719 18.3366H16.3359ZM33 40H8C3.86719 40 0.5 36.6341 0.5 32.5029V15.9391C0.5 13.4479 1.73438 11.1207 3.80469 9.72277L16.3047 1.28856C18.8516 -0.42952 22.1484 -0.42952 24.6953 1.28856L37.1953 9.72277C39.2656 11.1207 40.5 13.4401 40.5 15.9391V32.4951C40.5 36.6341 37.1328 40 33 40ZM20.5 1.67122C19.3672 1.67122 18.2266 2.00703 17.2422 2.67864L4.74219 11.105C3.13281 12.1906 2.17188 13.9945 2.17188 15.9391V32.4951C2.17188 35.7126 4.78906 38.3288 8.00781 38.3288H33.0078C36.2266 38.3288 38.8438 35.7126 38.8438 32.4951V15.9391C38.8438 13.9945 37.8828 12.1906 36.2734 11.105L23.7734 2.67083C22.7734 2.00703 21.6328 1.67122 20.5 1.67122Z" fill="#FCFCFC"/>
</svg>
