<svg width="125" height="45" viewBox="0 0 125 45" fill="none" xmlns="http://www.w3.org/2000/svg">
<g clip-path="url(#clip0_3615_3633)">
<path d="M11.7886 19.7754C15.1977 17.8815 19.8667 15.2871 19.8667 7.73633H14.2131C14.2131 11.961 12.1563 13.1036 9.04296 14.8333C5.63388 16.7279 0.964844 19.3212 0.964844 26.8727H6.61846C6.61846 22.6477 8.67521 21.5051 11.7886 19.7754Z" fill="#1A1A1C" fill-opacity="0.4"/>
<path d="M21.5732 18.0393C21.5732 22.2641 19.5164 23.4068 16.4031 25.1362C12.9949 27.0302 8.32495 29.6242 8.32495 37.1756H13.9783C13.9783 32.9507 16.0351 31.8081 19.1485 30.0784C22.5575 28.1845 27.2263 25.5907 27.2263 18.0393H21.5732Z" fill="#1A1A1C" fill-opacity="0.4"/>
<path d="M35.2266 30.4585V6.98898H38.8886V16.2416C40.0418 14.5313 41.7715 13.6759 44.0775 13.6753C46.0444 13.6753 47.5649 14.2549 48.639 15.4143C49.7131 16.5736 50.2503 18.1889 50.2504 20.2602V30.4585H46.5882V20.7668C46.5882 18.088 45.3899 16.7485 42.9931 16.7481C41.7945 16.7481 40.8111 17.1083 40.0427 17.8288C39.2745 18.5492 38.8899 19.5623 38.8893 20.868V30.4583L35.2266 30.4585Z" fill="#1A1A1C" fill-opacity="0.4"/>
<path d="M67.5581 28.4326C65.9302 30.0535 63.8842 30.8639 61.4198 30.8639C58.9555 30.8639 56.9036 30.0535 55.2642 28.4326C53.6249 26.8116 52.8053 24.7514 52.8055 22.2518C52.8056 19.7526 53.6252 17.6984 55.2642 16.0895C56.9034 14.4802 58.9552 13.6753 61.4198 13.675C63.8844 13.6746 65.9305 14.4795 67.5581 16.0895C69.1862 17.6994 70.0002 19.7535 70.0001 22.2518C70 24.7503 69.186 26.8105 67.5581 28.4326ZM57.9436 26.3724C58.8134 27.3855 59.9722 27.892 61.4198 27.892C62.8675 27.892 64.0261 27.3855 64.8959 26.3724C65.766 25.3593 66.2012 23.9859 66.2016 22.2518C66.2016 20.5412 65.7608 19.1792 64.8791 18.1659C63.9973 17.1527 62.8442 16.6462 61.4198 16.6463C59.9726 16.6463 58.8138 17.1472 57.9436 18.149C57.0733 19.1508 56.6381 20.5182 56.6378 22.2512C56.6378 23.9859 57.0731 25.3596 57.9436 26.3724Z" fill="#1A1A1C" fill-opacity="0.4"/>
<path d="M78.4772 30.8638C75.1081 30.8638 73.4235 29.0627 73.4235 25.4606V17.1535H70.8806V14.0807H73.5259L74.3739 9.25263H77.1205V14.0807H83.6658V17.1535H77.1207V25.3595C77.1207 26.868 77.6746 27.6222 78.7824 27.6221C79.8222 27.6221 80.7604 26.6765 81.5973 24.7854L84.4462 26.2376C83.0441 29.3221 81.0544 30.8641 78.4772 30.8638Z" fill="#1A1A1C" fill-opacity="0.4"/>
<path d="M85.6233 37.9551C83.9954 37.9551 82.65 37.5048 81.5875 36.6043L82.9441 33.7339C83.6 34.499 84.3122 34.8818 85.0808 34.8826C86.098 34.8826 86.6067 34.2298 86.6067 32.924V14.0804H90.2689V32.9907C90.2689 34.7467 89.8336 36.0131 88.9631 36.7896C88.0927 37.5663 86.9794 37.9547 85.6233 37.9551ZM88.4381 11.3111C87.8361 11.3315 87.2505 11.1129 86.8102 10.7035C86.5984 10.5047 86.4316 10.2635 86.3205 9.99567C86.2095 9.72789 86.1568 9.43965 86.166 9.15007C86.1578 8.85812 86.211 8.56769 86.3219 8.29731C86.4329 8.02694 86.5992 7.78255 86.8102 7.57974C87.253 7.17785 87.8305 6.95508 88.4297 6.95508C89.0287 6.95508 89.6064 7.17785 90.0491 7.57974C90.2646 7.78002 90.435 8.02356 90.5491 8.29425C90.663 8.56493 90.7181 8.85663 90.7104 9.15007C90.7158 9.4382 90.6596 9.72417 90.5456 9.98904C90.4315 10.2539 90.2624 10.4916 90.0491 10.6865C89.8351 10.8911 89.5826 11.0516 89.3062 11.1588C89.0298 11.266 88.7348 11.3177 88.4381 11.3111Z" fill="#1A1A1C" fill-opacity="0.4"/>
<path d="M99.3645 30.8633C97.4875 30.8633 95.9669 30.3961 94.8029 29.462C93.6388 28.5277 93.0568 27.273 93.0565 25.6976C93.0565 24.2569 93.6613 23.0353 94.8709 22.0329C96.0804 21.0305 97.6009 20.5296 99.4322 20.5303C101.309 20.5303 102.892 21.1269 104.18 22.3201V20.3275C104.18 19.1573 103.881 18.2511 103.281 17.6091C102.682 16.9671 101.829 16.6463 100.721 16.6466C98.4828 16.6466 97.0923 17.7835 96.5495 20.0571L93.1919 19.3481C93.6436 17.5922 94.5368 16.2077 95.8713 15.1946C97.2059 14.1815 98.8677 13.675 100.857 13.675C103.027 13.675 104.74 14.2435 105.995 15.3804C107.249 16.5174 107.877 18.1776 107.877 20.3611V30.4581H104.316V28.3979C103.117 30.0417 101.467 30.8636 99.3645 30.8633ZM100.042 28.1618C101.67 28.1618 103.049 27.3514 104.18 25.7306V25.2235C103.049 23.8728 101.67 23.1974 100.042 23.1976C99.0925 23.1976 98.3235 23.4285 97.7348 23.8904C97.4565 24.0945 97.2313 24.3619 97.078 24.6703C96.9245 24.9786 96.8475 25.3191 96.8529 25.6631C96.844 26.0108 96.9178 26.3557 97.068 26.6697C97.2184 26.9836 97.4411 27.2578 97.7179 27.4697C98.2957 27.9313 99.0699 28.1619 100.042 28.1618Z" fill="#1A1A1C" fill-opacity="0.4"/>
<path d="M111.441 30.4589V14.0808H115.002V16.9174C115.906 14.8463 117.466 13.8107 119.683 13.8106C120.993 13.8106 122.079 14.2383 122.938 15.0938C123.798 15.9492 124.227 17.0974 124.227 18.5382C124.217 19.4005 124.069 20.2558 123.786 21.0709L120.428 20.7332C120.497 20.2857 120.542 19.8348 120.564 19.3825C120.564 17.6941 119.863 16.8498 118.461 16.8497C117.512 16.8497 116.715 17.3506 116.07 18.3524C115.426 19.3542 115.104 20.6769 115.104 22.3206V30.4589H111.441Z" fill="#1A1A1C" fill-opacity="0.4"/>
</g>
<defs>
<clipPath id="clip0_3615_3633">
<rect width="123.262" height="44.911" fill="white" transform="translate(0.964844)"/>
</clipPath>
</defs>
</svg>
