<svg width="49" height="48" viewBox="0 0 49 48" fill="none" xmlns="http://www.w3.org/2000/svg">
<path d="M14.5063 3.00013C10.8148 3.00013 7.12279 2.9996 3.43132 3.00067C3.42917 3.83341 3.43563 4.66668 3.42755 5.49995C4.36549 5.54094 5.32444 5.64611 6.18808 6.03929C7.0641 6.43354 7.79852 7.15086 8.17649 8.03914C12.6654 18.609 17.151 29.18 21.6351 39.752C21.7126 39.9257 21.7751 40.1053 21.8655 40.273C23.4711 40.2542 25.0772 40.2703 26.6828 40.2644C27.3914 38.854 28.0887 37.4377 28.8032 36.0306C29.6221 38.2289 30.4459 40.4251 31.2649 42.6229C25.9683 42.6234 20.6718 42.6229 15.3753 42.6235C14.4056 42.6364 13.4068 42.5959 12.4995 42.2163C10.9919 41.6095 9.79178 40.437 8.81507 39.1658C7.63591 37.6254 6.74104 35.8915 5.94363 34.1295C5.0493 34.1219 4.15551 34.1322 3.26172 34.1305C4.95669 37.757 6.66028 41.3803 8.37033 44.9998C20.5754 45.0003 32.78 44.9998 44.9851 44.9998C44.6879 44.2226 44.4052 43.4389 44.0865 42.6698C44.0671 42.5906 43.9686 42.6105 43.9088 42.603C42.385 42.5916 40.851 42.5323 39.3558 42.2146C38.5778 42.0318 37.7728 41.788 37.1741 41.2314C36.8575 40.9289 36.759 40.4871 36.654 40.0794C35.2126 36.2156 33.7691 32.3524 32.3266 28.4891C35.3752 21.9826 38.434 15.4798 41.4842 8.97381C41.7298 8.40481 42.0539 7.8412 42.5638 7.47068C43.6191 6.67894 44.9905 6.57862 46.2612 6.52792C46.2623 5.59541 46.2612 4.66344 46.2617 3.73093C41.9764 3.72932 37.6915 3.72985 33.4062 3.73039C33.4057 4.6629 33.4051 5.59541 33.4067 6.52792C33.9651 6.56352 34.5579 6.55435 35.0635 6.83103C35.3144 6.94968 35.4619 7.24848 35.3973 7.5203C35.3182 7.96525 34.9671 8.28292 34.7894 8.68472C32.9798 12.589 31.1701 16.4938 29.3551 20.3964C28.4456 17.8491 27.5362 15.3024 26.6231 12.7567C26.489 12.4029 26.4416 11.9941 26.5945 11.6381C26.7146 11.3571 26.987 11.1835 27.2557 11.0664C27.778 10.8507 28.352 10.8529 28.9055 10.8129C28.6228 10.0261 28.3385 9.23916 28.0456 8.45659C27.9778 8.4129 27.8835 8.44634 27.8055 8.43555C23.4576 8.43825 19.1093 8.43555 14.7609 8.43717C15.0614 9.22783 15.3602 10.0185 15.6574 10.8102C16.7047 10.8588 17.7842 10.8852 18.7663 11.2951C19.2164 11.4839 19.6423 11.7724 19.9083 12.1899C20.093 12.4957 20.2077 12.8371 20.3315 13.1704C22.1482 18.1333 23.9815 23.0898 25.7777 28.0603C24.7827 30.3131 23.7457 32.5465 22.7308 34.7902C19.0452 26.0723 15.3608 17.3535 11.6709 8.63726C11.4221 8.11303 11.0172 7.63464 10.9855 7.03166C10.9548 6.55974 11.3042 6.15255 11.7091 5.95893C12.5819 5.5555 13.5629 5.53555 14.5063 5.50157C14.5073 4.66776 14.5073 3.83395 14.5063 3.00013Z" fill="#FCFCFC"/>
</svg>
