<svg width="56" height="56" viewBox="0 0 56 56" fill="none" xmlns="http://www.w3.org/2000/svg">
<g id="Brand logo / notion">
<path id="bg" fill-rule="evenodd" clip-rule="evenodd" d="M10.003 51.1311L3.98411 43.633C2.53598 41.829 1.75 39.6106 1.75 37.3273V10.1762C1.75 6.75612 4.48628 3.9182 8.01625 3.67719L35.9312 1.77132C37.9592 1.63286 39.9749 2.17191 41.6408 3.29823L51.4487 9.92935C53.2043 11.1163 54.25 13.0567 54.25 15.1274V45.9956C54.25 49.3426 51.5595 52.1138 48.1033 52.3265L17.1208 54.2337C14.3628 54.4034 11.697 53.2414 10.003 51.1311Z" fill="white"/>
<g id="vector">
<path d="M19.6832 23.7633V23.4079C19.6832 22.5068 20.4048 21.7595 21.3349 21.6974L28.1098 21.2451L37.4788 35.0418V22.9329L35.0673 22.6114V22.4426C35.0673 21.5309 35.8055 20.7787 36.7474 20.7304L42.9118 20.4146V21.3017C42.9118 21.7182 42.6021 22.0744 42.1777 22.1462L40.6943 22.3971V42.0071L38.8325 42.6473C37.2772 43.1822 35.5457 42.6096 34.6553 41.2661L25.5596 27.5407V40.6408L28.3593 41.1766L28.3203 41.4363C28.1981 42.2497 27.4958 42.8649 26.6462 42.9027L19.6832 43.2126C19.5911 42.3379 20.2467 41.5553 21.1511 41.4603L22.067 41.3641V23.8973L19.6832 23.7633Z" fill="#1A1A1C"/>
<path fill-rule="evenodd" clip-rule="evenodd" d="M36.1801 5.19248L8.2651 7.09835C6.59301 7.21251 5.29688 8.55679 5.29688 10.1768V37.3279C5.29688 38.8501 5.82086 40.329 6.78628 41.5317L12.8052 49.0298C13.7783 50.2421 15.3098 50.9097 16.8941 50.8121L47.8766 48.905C49.4646 48.8072 50.7008 47.534 50.7008 45.9962V15.1281C50.7008 14.1766 50.2203 13.2851 49.4137 12.7397L39.6058 6.10862C38.6063 5.43283 37.3969 5.1094 36.1801 5.19248ZM9.64934 10.6004C9.26109 10.3129 9.44587 9.71407 9.9336 9.67908L36.3679 7.78305C37.2101 7.72264 38.047 7.95457 38.7281 8.43715L44.032 12.1948C44.2333 12.3375 44.1389 12.6455 43.8896 12.659L15.8958 14.1815C15.0486 14.2276 14.2124 13.9787 13.5388 13.48L9.64934 10.6004ZM14.5828 18.9544C14.5828 18.0449 15.3175 17.2937 16.257 17.2425L45.8544 15.6307C46.77 15.5808 47.5408 16.2849 47.5408 17.1713V43.8998C47.5408 44.8076 46.8087 45.558 45.871 45.6114L16.4611 47.2848C15.4421 47.3428 14.5828 46.5597 14.5828 45.5732V18.9544Z" fill="#1A1A1C"/>
</g>
</g>
</svg>
