<svg width="129" height="45" viewBox="0 0 129 45" fill="none" xmlns="http://www.w3.org/2000/svg">
<path fill-rule="evenodd" clip-rule="evenodd" d="M5.9269 11.2626C7.00508 12.1324 7.39506 12.0637 9.41378 11.9264L28.431 10.7819C28.8439 10.7819 28.4998 10.3699 28.3622 10.3241L25.1965 8.05804C24.6 7.60026 23.7742 7.05091 22.2372 7.18825L3.83936 8.53872C3.1741 8.60739 3.03646 8.95073 3.31174 9.20252L5.9269 11.2626ZM7.0739 15.6802V35.6398C7.0739 36.7156 7.60152 37.1048 8.81734 37.0361L29.7157 35.8229C30.9315 35.7543 31.0691 35.0218 31.0691 34.152V14.3298C31.0691 13.46 30.725 12.9793 29.9909 13.0479L8.15208 14.3298C7.34918 14.3984 7.0739 14.8104 7.0739 15.6802ZM27.6969 16.756C27.8346 17.3512 27.6969 17.9692 27.1005 18.0378L26.0911 18.2439V32.9847C25.2194 33.4424 24.4165 33.7171 23.7283 33.7171C22.6501 33.7171 22.3749 33.3738 21.572 32.3666L14.9882 22.0435V32.0233L17.0757 32.4811C17.0757 32.4811 17.0757 33.6942 15.4011 33.6942L10.7672 33.9689C10.6296 33.6942 10.7672 33.0304 11.226 32.8931L12.4419 32.5498V19.3654L10.7672 19.2281C10.6296 18.633 10.9737 17.7632 11.9142 17.6945L16.8922 17.3512L23.7513 27.7887V18.5643L22.0078 18.3583C21.8702 17.6258 22.4207 17.0765 23.086 17.0078L27.6969 16.756ZM2.30238 6.70757L21.4573 5.31131C23.7971 5.1053 24.4165 5.24264 25.8847 6.31845L31.9867 10.5988C32.9961 11.3312 33.3402 11.5372 33.3402 12.3384V35.8458C33.3402 37.3108 32.8126 38.1806 30.9315 38.3179L8.70264 39.6684C7.28036 39.737 6.6151 39.531 5.88102 38.5926L1.36184 32.7558C0.558943 31.68 0.214844 30.8788 0.214844 29.9404V9.04229C0.214844 7.82915 0.765403 6.8449 2.30238 6.70757Z" fill="#1A1A1C" fill-opacity="0.4"/>
<path d="M45.0443 33.9483V19.3932H45.3036L55.8982 33.9483H59.2322V12.574H55.5278V27.0924H55.2685L44.6738 12.574H41.3398V33.9483H45.0443ZM69.7158 34.2782C74.6056 34.2782 77.6062 31.1253 77.6062 25.8458C77.6062 20.6031 74.6056 17.4134 69.7158 17.4134C64.863 17.4134 61.8253 20.6031 61.8253 25.8458C61.8624 31.1253 64.8259 34.2782 69.7158 34.2782ZM69.7158 31.1986C67.1227 31.1986 65.6409 29.2555 65.6409 25.8458C65.6409 22.4729 67.1227 20.4931 69.7158 20.4931C72.3089 20.4931 73.7906 22.4729 73.7906 25.8458C73.7906 29.2555 72.3089 31.1986 69.7158 31.1986ZM80.9772 13.7838V17.8534H78.3841V20.7864H80.9772V29.6221C80.9772 32.7751 82.459 34.0216 86.2375 34.0216C86.9414 34.0216 87.6452 33.9483 88.2009 33.8383V30.9786C87.7563 31.0153 87.46 31.0519 86.9414 31.0519C85.3855 31.0519 84.6817 30.3553 84.6817 28.7422V20.7864H88.2009V17.8534H84.6817V13.7838H80.9772ZM90.4235 33.9483H94.128V17.7434H90.4235V33.9483ZM92.2757 15.067C93.4982 15.067 94.4984 14.0771 94.4984 12.8673C94.4984 11.6207 93.4982 10.6309 92.2757 10.6309C91.0533 10.6309 90.0531 11.6207 90.0531 12.8673C90.0531 14.0771 91.0533 15.067 92.2757 15.067ZM104.278 34.2782C109.168 34.2782 112.169 31.1253 112.169 25.8458C112.169 20.6031 109.168 17.4134 104.278 17.4134C99.4253 17.4134 96.3876 20.6031 96.3876 25.8458C96.3876 31.1253 99.3512 34.2782 104.278 34.2782ZM104.278 31.1986C101.685 31.1986 100.203 29.2555 100.203 25.8458C100.203 22.4729 101.685 20.4931 104.278 20.4931C106.834 20.4931 108.353 22.4729 108.353 25.8458C108.316 29.2555 106.834 31.1986 104.278 31.1986ZM114.354 33.9483H118.059V24.526C118.059 22.1429 119.466 20.6398 121.652 20.6398C123.912 20.6398 124.949 21.8863 124.949 24.3427V33.9483H128.653V23.4628C128.653 19.5765 126.653 17.4134 123.022 17.4134C120.578 17.4134 118.948 18.5133 118.17 20.3464H117.91V17.7434H114.317C114.354 17.7434 114.354 33.9483 114.354 33.9483Z" fill="#1A1A1C" fill-opacity="0.4"/>
</svg>
