<svg width="41" height="40" viewBox="0 0 41 40" fill="none" xmlns="http://www.w3.org/2000/svg">
<path d="M37.5899 2.92928L35.7227 1.29615C34.0196 -0.407304 31.1367 -0.485445 29.3008 1.38211L26.1836 5.46884C24.4336 7.21918 24.4336 10.0713 26.1836 11.806L28.668 14.3534C25.9649 20.6906 20.9883 25.6915 14.8477 28.192L12.3008 25.6994C11.4492 24.8476 10.3321 24.3788 9.13675 24.3788C7.94143 24.3788 6.81643 24.8476 6.05081 25.629L1.81643 28.8953C0.0664327 30.6456 0.0664327 33.4978 1.78518 35.1934L3.48831 37.1469C5.32425 38.9832 7.78518 39.999 10.4727 39.999C23.3867 39.999 40.5039 22.8629 40.5039 9.96191C40.5039 7.29733 39.4883 4.81246 37.6211 2.94491L37.5899 2.92928ZM10.4336 38.319C8.19924 38.319 6.15237 37.4829 4.66799 35.9982L2.96487 34.0291C1.86331 32.9273 1.86331 31.1457 2.87893 30.1143L7.11331 26.848C7.64456 26.3167 8.34768 26.0119 9.11331 26.0119C9.87893 26.0119 10.5821 26.3088 11.1133 26.848L14.0664 29.7314C14.3008 29.9658 14.6367 30.0283 14.9492 29.9111C21.9024 27.2622 27.5508 21.6126 30.4336 14.4393C30.5508 14.1424 30.4805 13.7908 30.2539 13.5407L27.3711 10.587C26.2696 9.48525 26.2696 7.70365 27.4414 6.51592L30.5586 2.42919C31.6602 1.32741 33.4414 1.32741 34.5899 2.46044L36.4571 4.09357C37.9727 5.6095 38.8086 7.66458 38.8086 9.89158C38.8086 21.8236 22.3789 38.2643 10.4414 38.2643L10.4336 38.319Z" fill="#FCFCFC"/>
</svg>
