<svg width="21" height="21" viewBox="0 0 21 21" fill="none" xmlns="http://www.w3.org/2000/svg">
<rect x="0.664062" y="0.75" width="20" height="20" rx="10" fill="#FFB9A2"/>
<path d="M6.07031 12.4883C6.07031 12.4883 6.14131 13.3573 6.15781 13.6313C6.17981 13.9988 6.32181 14.4093 6.55881 14.6943C6.89331 15.0983 7.28731 15.2408 7.81331 15.2418C8.43181 15.2428 12.9293 15.2428 13.5478 15.2418C14.0738 15.2408 14.4678 15.0983 14.8023 14.6943C15.0393 14.4093 15.1813 13.9988 15.2038 13.6313C15.2198 13.3573 15.2908 12.4883 15.2908 12.4883" stroke="#1A1A1C" stroke-width="0.75" stroke-linecap="round" stroke-linejoin="round"/>
<path d="M8.91406 7.4145V7.229C8.91406 6.619 9.40806 6.125 10.0181 6.125H11.3091C11.9186 6.125 12.4131 6.619 12.4131 7.229L12.4136 7.4145" stroke="#1A1A1C" stroke-width="0.75" stroke-linecap="round" stroke-linejoin="round"/>
<path d="M10.6642 13.0887V12.4414" stroke="#1A1A1C" stroke-width="0.75" stroke-linecap="round" stroke-linejoin="round"/>
<path fill-rule="evenodd" clip-rule="evenodd" d="M6.03906 8.94306V10.6766C6.99806 11.3091 8.14706 11.7521 9.40806 11.9276C9.55906 11.3771 10.0556 10.9736 10.6591 10.9736C11.2531 10.9736 11.7596 11.3771 11.9006 11.9326C13.1666 11.7571 14.3201 11.3141 15.2841 10.6766V8.94306C15.2841 8.09606 14.6026 7.41406 13.7556 7.41406H7.57256C6.72556 7.41406 6.03906 8.09606 6.03906 8.94306Z" stroke="#1A1A1C" stroke-width="0.75" stroke-linecap="round" stroke-linejoin="round"/>
</svg>
