<svg width="136" height="45" viewBox="0 0 136 45" fill="none" xmlns="http://www.w3.org/2000/svg">
<g clip-path="url(#clip0_3615_3620)">
<path d="M15.1411 30.7428C14.7603 30.7846 14.6546 30.2625 15.0142 30.1581C15.0354 30.1581 15.0354 30.1581 15.0565 30.1372C22.5661 28.0487 28.0661 24.2687 27.3469 21.6999C26.6064 19.1312 19.9219 18.7344 12.4122 20.8228C4.9026 22.9112 -0.597417 26.6913 0.121815 29.26C2.23721 36.6739 10.043 41.0178 17.5526 38.9295C23.6661 37.2378 27.7065 31.808 27.8546 25.8559C22.4181 30.4713 15.1411 30.7428 15.1411 30.7428Z" fill="#1A1A1C" fill-opacity="0.4"/>
<path d="M22.586 11.7983C21.2744 7.18292 16.409 4.48884 11.7128 5.78367C8.159 6.7861 5.70514 9.81434 5.34553 13.2602C5.98014 12.8426 8.79362 11.1718 13.0667 10.9003C13.1725 10.9003 13.236 10.8794 13.236 10.8794C13.4686 10.8377 13.532 11.1927 13.3205 11.2554H13.2993C8.60323 12.5502 5.1763 14.9101 5.62052 16.5182C6.08592 18.1262 10.2321 18.356 14.9283 17.0612C19.6244 15.7455 23.0513 13.4064 22.586 11.7983Z" fill="#1A1A1C" fill-opacity="0.4"/>
<path d="M42.921 33.291C40.3613 33.1448 37.1459 31.4115 35.8555 30.1166L38.6902 26.5454C39.3883 27.318 42.7306 29.2186 45.0152 28.8009C45.6286 28.6756 46.3267 28.1534 46.3267 27.3389C46.369 26.796 45.9036 26.2948 45.5017 26.1068C45.1209 25.8353 43.9151 25.7936 43.1325 25.7518C42.244 25.71 41.2287 25.6056 40.1497 25.167C38.1613 24.2063 36.7651 22.2224 36.7017 20.113C36.7017 17.6278 37.717 16.2494 38.7536 15.3932C40.8479 13.7851 43.767 13.6389 45.7767 14.161C47.3632 14.5369 49.119 15.3932 50.1556 16.3747L47.5536 19.9668C47.1728 19.6953 45.3324 18.8599 44.6344 18.6721C43.5555 18.3588 42.1805 18.5259 41.567 18.9018C41.3766 19.0061 41.1017 19.4447 41.1864 19.9668C41.1864 20.3427 41.5459 20.8857 41.7997 21.0319C42.3498 21.3034 42.8575 21.4496 43.5766 21.4914C44.5921 21.4914 46.2844 21.4914 47.5747 22.0971C49.7113 23.2456 50.9593 25.2088 50.7901 27.4642C50.6632 29.4274 49.3094 31.3278 47.5324 32.2468C46.2209 33.103 44.444 33.4163 42.921 33.291Z" fill="#1A1A1C" fill-opacity="0.4"/>
<path d="M61.7873 33.1038C59.2699 33.1038 56.9007 32.1431 55.0814 30.4307C53.2199 28.6764 52.1623 26.2956 52.1411 23.7268C52.0988 21.158 53.0718 18.7563 54.8487 16.8976C56.6257 15.1016 59.0372 14.0156 61.6392 13.9947C64.2411 13.953 66.6526 14.9136 68.5142 16.6679L65.2988 19.9676C64.368 19.0905 63.12 18.5892 61.8085 18.5892H61.7238C60.3699 18.5892 59.1219 19.1322 58.1911 20.0929C57.2603 21.0536 56.7526 22.3066 56.7949 23.6641C56.7949 25.0007 57.3449 26.2328 58.318 27.1518C59.2911 28.0707 60.5603 28.5719 61.9354 28.5302C63.1834 28.5302 64.3468 28.0289 65.2777 27.1935L68.4296 30.556C66.6738 32.164 64.3891 33.0829 62.0199 33.1247H61.7873V33.1038Z" fill="#1A1A1C" fill-opacity="0.4"/>
<path d="M87.9161 14.0565V33.1447H84.0449V31.4112C82.4584 32.4764 80.5545 33.1447 78.5026 33.1447C73.1507 33.1447 68.7929 28.8216 68.7929 23.5588C68.7929 18.275 73.1295 13.9729 78.5026 13.9729C80.5545 13.9729 82.4584 14.6203 84.0449 15.7063V14.0565H87.9161ZM83.516 23.5588C83.516 20.8021 81.2737 18.5883 78.4603 18.5883C75.7102 18.5883 73.4467 20.8021 73.4467 23.5588C73.4467 26.2738 75.6891 28.5084 78.4603 28.5084C81.2737 28.5084 83.516 26.2738 83.516 23.5588Z" fill="#1A1A1C" fill-opacity="0.4"/>
<path d="M110.21 23.9376C110.21 29.1796 105.894 33.44 100.627 33.44C98.6383 33.44 96.8191 32.8343 95.3172 31.8319V39.4546H90.7057V14.1847H95.3172V16.106C96.8403 15.0618 98.6595 14.4979 100.627 14.4979C105.915 14.4771 110.21 18.7374 110.21 23.9376ZM105.598 23.9376C105.598 21.2227 103.377 19.0298 100.627 19.0298C97.8769 19.0298 95.6134 21.2227 95.6134 23.9376C95.6134 26.6525 97.8557 28.8872 100.627 28.8872C103.377 28.8872 105.598 26.6734 105.598 23.9376Z" fill="#1A1A1C" fill-opacity="0.4"/>
<path d="M114.397 11.9083C112.662 11.9083 111.266 10.53 111.266 8.75479V8.54596C111.266 6.83343 112.662 5.45508 114.397 5.45508C116.174 5.45508 117.633 6.83343 117.633 8.54596V8.75479C117.633 10.5091 116.174 11.9083 114.397 11.9083ZM116.808 33.0223H112.239V13.9967H116.808V33.0223Z" fill="#1A1A1C" fill-opacity="0.4"/>
<path d="M128.489 33.1038C125.972 33.1038 123.602 32.1431 121.783 30.4307C119.921 28.6764 118.864 26.2956 118.843 23.7268C118.8 21.158 119.773 18.7563 121.55 16.8976C123.327 15.1016 125.739 14.0156 128.34 13.9947C130.943 13.953 133.355 14.9136 135.216 16.6679L132.001 19.9676C131.069 19.0905 129.821 18.5892 128.51 18.5892H128.426C127.071 18.5892 125.823 19.1322 124.893 20.0929C123.962 21.0536 123.454 22.3066 123.496 23.6641C123.496 25.0007 124.047 26.2328 125.02 27.1518C125.993 28.0707 127.262 28.5719 128.637 28.5302C129.885 28.5302 131.049 28.0289 131.98 27.1935L135.131 30.556C133.375 32.164 131.09 33.0829 128.722 33.1247H128.489V33.1038Z" fill="#1A1A1C" fill-opacity="0.4"/>
</g>
<defs>
<clipPath id="clip0_3615_3620">
<rect width="135.156" height="44.911" fill="white" transform="translate(0.0585938)"/>
</clipPath>
</defs>
</svg>
