<svg width="56" height="57" viewBox="0 0 56 57" fill="none" xmlns="http://www.w3.org/2000/svg">
<path fill-rule="evenodd" clip-rule="evenodd" d="M23.0834 20.8698C23.0574 20.8698 23.0072 20.8698 22.9812 20.8698C22.5503 20.8172 22.1955 20.4223 22.1955 19.9748C22.1695 19.5535 21.9409 9.70723 27.4953 7.46955C28.8904 6.91664 30.1852 7.02188 31.2756 7.83817C32.6188 8.81223 33.5829 10.7604 34.1662 13.6037C34.5712 15.6045 34.6474 17.342 34.6474 17.421C34.6733 17.8422 34.3445 18.1583 33.9118 18.0792C33.4808 18.0265 33.126 17.6317 33.126 17.2104C33.0498 15.4202 32.4665 10.4972 30.54 9.07543C29.9308 8.62792 29.1691 8.57521 28.2569 8.94383C23.4883 10.8656 23.7169 20.1064 23.7169 20.2116C23.7169 20.5802 23.4642 20.8698 23.0834 20.8698Z" fill="#595961"/>
<path opacity="0.46" fill-rule="evenodd" clip-rule="evenodd" d="M30.9867 7.88864C29.9724 7.15142 28.7815 7.04617 27.4868 7.54638C25.2298 8.46774 23.6322 10.8899 22.8464 14.5757C22.2631 17.2872 22.3392 19.7357 22.3392 19.841C22.3392 19.9725 22.3894 20.1043 22.4915 20.2096C22.5919 20.3148 22.6941 20.3939 22.8204 20.3939C22.8464 20.3939 22.8723 20.3939 22.8966 20.3939C23.1251 20.3939 23.3033 20.2096 23.3033 19.9725C23.3033 19.8673 23.0749 10.4686 27.9698 8.49409C28.9582 8.0993 29.8201 8.15183 30.5315 8.6784C32.5843 10.179 33.1936 15.2602 33.2697 17.0767C33.2697 17.3399 33.4983 17.6033 33.7769 17.6295C34.0314 17.6558 34.2338 17.4715 34.2338 17.2083C34.2079 16.8924 33.9292 10.0474 30.9867 7.88864Z" fill="#1A1A1C" fill-opacity="0.1"/>
<path opacity="0.46" fill-rule="evenodd" clip-rule="evenodd" d="M22.8425 20.0789C22.8165 20.0789 22.8165 20.0789 22.7923 20.0789C22.64 20.0525 22.5119 19.8946 22.4876 19.7366C22.4876 19.6312 22.4115 17.2356 22.9948 14.5239C23.7547 10.9172 25.354 8.52138 27.5591 7.6262C28.8019 7.12599 29.9184 7.23141 30.8825 7.91593C33.7229 9.99565 34.0015 16.7354 34.0015 17.0249C34.0015 17.1829 33.8752 17.2881 33.7228 17.2619C33.5705 17.2356 33.4441 17.104 33.4182 16.9197C33.4182 16.8406 33.1395 10.2327 30.5778 8.33707C29.8162 7.78433 28.8781 7.70527 27.8136 8.12641C22.8425 10.2063 23.071 19.7366 23.071 19.8419C23.0952 19.9735 22.9948 20.0789 22.8425 20.0789Z" fill="#1A1A1C" fill-opacity="0.1"/>
<path opacity="0.62" fill-rule="evenodd" clip-rule="evenodd" d="M24.3496 14.2353C24.5019 13.814 24.6542 13.3665 24.7564 12.9453C24.7062 13.1033 24.4517 14.5248 22.8281 14.5248C22.8281 14.5248 23.7663 14.7091 24.3496 14.2353Z" fill="#595961"/>
<path opacity="0.62" fill-rule="evenodd" clip-rule="evenodd" d="M24.9074 12.5507C25.1099 12.156 25.3124 11.761 25.4906 11.3398C25.4145 11.4714 24.9073 12.8405 23.3599 12.6298C23.3339 12.6298 24.2722 12.9194 24.9074 12.5507Z" fill="#595961"/>
<path opacity="0.62" fill-rule="evenodd" clip-rule="evenodd" d="M25.6444 11.101C25.9491 10.7851 26.2017 10.4428 26.4804 10.0742C26.38 10.1795 25.5424 11.2589 24.0469 10.864C24.0469 10.864 24.9088 11.338 25.6444 11.101Z" fill="#595961"/>
<path opacity="0.62" fill-rule="evenodd" clip-rule="evenodd" d="M33.2462 10.8407C33.0437 10.3667 32.8152 9.91917 32.5867 9.44531C32.6629 9.60326 33.4245 11.1039 32.5625 12.1832C32.5625 12.1832 33.222 11.6568 33.2462 10.8407Z" fill="#595961"/>
<path opacity="0.62" fill-rule="evenodd" clip-rule="evenodd" d="M26.5819 9.89033C26.9368 9.62714 27.2656 9.36377 27.5962 9.07422C27.4699 9.15328 26.4297 10.0219 24.9844 9.39012C24.9844 9.39012 25.8203 9.99558 26.5819 9.89033Z" fill="#595961"/>
<path opacity="0.62" fill-rule="evenodd" clip-rule="evenodd" d="M27.9401 9.02114C28.3711 8.88954 28.7778 8.73159 29.1829 8.57364C29.0306 8.62617 27.7375 9.10003 26.4688 8.09961C26.4947 8.09961 27.1542 8.88954 27.9401 9.02114Z" fill="#595961"/>
<path opacity="0.62" fill-rule="evenodd" clip-rule="evenodd" d="M31.8514 8.47115C31.4447 8.12889 31.0396 7.81299 30.6328 7.52344C30.7851 7.65504 32.13 8.6291 32.0538 10.1035C32.0279 10.1035 32.2565 9.23473 31.8514 8.47115Z" fill="#595961"/>
<path opacity="0.62" fill-rule="evenodd" clip-rule="evenodd" d="M30.6675 9.12497C30.9202 9.41469 31.2005 9.70424 31.5035 9.96744C31.4031 9.86219 30.5411 8.99337 30.7437 7.91406C30.7177 7.91406 30.439 8.51951 30.6675 9.12497Z" fill="#595961"/>
<path opacity="0.62" fill-rule="evenodd" clip-rule="evenodd" d="M29.1947 8.54921C29.5495 8.60192 29.9043 8.62828 30.2592 8.65464C30.1328 8.62828 29.0163 8.54922 28.3828 7.49609C28.3828 7.49609 28.6373 8.20696 29.1947 8.54921Z" fill="#595961"/>
<path opacity="0.74" fill-rule="evenodd" clip-rule="evenodd" d="M33.7228 16.8946C33.7228 16.6048 33.4442 9.94418 30.68 7.91716C30.1468 7.5222 29.5635 7.33789 28.9543 7.33789C28.4973 7.33789 28.0161 7.44313 27.5089 7.65379C25.3021 8.52261 23.7547 10.8657 22.9948 14.4461C22.4115 17.1314 22.4876 19.5272 22.4876 19.6325C22.4876 19.7115 22.5638 19.7904 22.64 19.7904H22.6642C22.7403 19.7904 22.7923 19.7379 22.7923 19.6588C22.7923 19.5536 22.5378 9.94418 27.6353 7.89081C28.7517 7.44313 29.7158 7.5222 30.5276 8.12765C33.1638 10.0496 33.4442 16.763 33.4442 16.8419C33.4442 16.9209 33.5203 16.9998 33.5965 16.9998C33.5965 16.9998 33.5965 16.9998 33.6207 16.9998C33.6726 17.0262 33.7228 16.9735 33.7228 16.8946Z" fill="url(#paint0_linear_995_15017)"/>
<path fill-rule="evenodd" clip-rule="evenodd" d="M34.1663 13.6007C33.583 10.7574 32.6189 8.8355 31.2758 7.83508C30.5401 7.30869 29.7526 7.07167 28.8906 7.12438C29.5761 7.17692 30.2096 7.41393 30.7929 7.83508C32.1378 8.80932 33.1019 10.7574 33.6852 13.6007C34.0902 15.6016 34.1663 17.3391 34.1663 17.4181C34.1663 17.734 34.014 17.971 33.7596 18.0499C33.8115 18.0763 33.8618 18.0763 33.8877 18.0763C34.3187 18.129 34.6476 17.8393 34.6233 17.4181C34.6476 17.3391 34.5713 15.6279 34.1663 13.6007Z" fill="url(#paint1_linear_995_15017)"/>
<path fill-rule="evenodd" clip-rule="evenodd" d="M27.775 8.94379C23.0065 10.8656 23.2349 20.1063 23.2349 20.2116C23.2349 20.5275 23.0826 20.7645 22.8281 20.8434C22.8801 20.8697 22.9043 20.8697 22.9563 20.8697C22.9805 20.8697 23.0324 20.8697 23.0566 20.8697C23.4374 20.8697 23.6901 20.5802 23.6901 20.2116C23.6901 20.1063 23.4634 10.8919 28.2303 8.97014C28.5609 8.83854 28.8654 8.75948 29.1441 8.73313C28.7373 8.65424 28.2822 8.73313 27.775 8.94379Z" fill="url(#paint2_linear_995_15017)"/>
<path fill-rule="evenodd" clip-rule="evenodd" d="M34.9989 11.2325L13.4927 18.13C13.4927 18.13 12.5805 18.3934 12.3521 18.6829C12.1236 18.9725 12.0734 19.7886 12.0734 19.7886L8.75 46.3787L33.7059 51.2229L35.6342 11.2061C35.3555 11.1534 35.0751 11.2061 34.9989 11.2325Z" fill="url(#paint3_linear_995_15017)"/>
<path fill-rule="evenodd" clip-rule="evenodd" d="M26.12 33.4532C25.7392 32.9267 25.2839 32.4528 24.827 32.0315C24.37 31.6104 23.8889 31.2681 23.406 30.9522C23.0771 30.7415 22.7725 30.5309 22.518 30.3202C22.2653 30.1097 22.0628 29.8991 21.9105 29.7148C21.7581 29.5041 21.6317 29.3198 21.5556 29.1093C21.4794 28.8987 21.4534 28.688 21.4534 28.4773C21.4534 28.1878 21.5296 27.8982 21.6318 27.6612C21.7322 27.4244 21.9104 27.2137 22.087 27.0294C22.2912 26.8451 22.518 26.7135 22.7984 26.6083C23.0771 26.5029 23.4059 26.4503 23.7607 26.424C24.1415 26.3976 24.5223 26.424 24.8772 26.4503C25.232 26.4765 25.5626 26.5556 25.8915 26.6345C26.1961 26.7135 26.5007 26.8188 26.7534 26.9242C27.0079 27.0294 27.2606 27.1347 27.4388 27.2401L29.1127 22.08C28.86 21.9484 28.5553 21.8167 28.2247 21.7378C27.8699 21.6324 27.4891 21.5535 27.0581 21.5008C26.6271 21.4482 26.1701 21.4219 25.6889 21.4219C25.2078 21.4219 24.7007 21.4482 24.1676 21.5271C23.0269 21.6851 22.0109 22.001 21.0987 22.4748C20.2367 22.9225 19.4751 23.5016 18.8416 24.2125C18.2323 24.897 17.7511 25.6867 17.3963 26.5819C17.0657 27.4507 16.8632 28.4248 16.813 29.4778C16.787 30.1097 16.8372 30.6888 16.9895 31.2154C17.1159 31.742 17.3201 32.2422 17.5988 32.716C17.8515 33.1899 18.1821 33.6112 18.5369 34.006C18.8917 34.401 19.3227 34.7696 19.7537 35.1118C20.1085 35.375 20.4132 35.6382 20.6676 35.8752C20.9204 36.1122 21.1246 36.3491 21.2752 36.6125C21.4275 36.8493 21.5296 37.0863 21.6058 37.3495C21.6819 37.5865 21.7079 37.8497 21.6819 38.1131C21.6819 38.3763 21.6058 38.6395 21.5037 38.8501C21.4033 39.0608 21.2752 39.2715 21.0727 39.4294C20.8961 39.5874 20.6677 39.6926 20.4133 39.7453C20.1605 39.7978 19.8559 39.8242 19.5253 39.7717C19.1462 39.719 18.7654 39.6137 18.4105 39.4556C18.0557 39.324 17.6992 39.1397 17.3704 38.9554C17.0415 38.7712 16.7369 38.5606 16.4824 38.3763C16.2038 38.192 15.9752 37.9813 15.7987 37.8234L14.6562 41.7461C14.8345 42.0093 15.0873 42.2464 15.366 42.4832C15.6464 42.7202 15.9753 42.957 16.3561 43.1941C16.7369 43.4047 17.1419 43.6152 17.5729 43.7995C18.0039 43.9838 18.4867 44.1418 18.9679 44.2735H18.9939H19.0181H19.0441H19.0701C20.1086 44.5104 21.0987 44.5631 22.0368 44.4315C23.0009 44.2997 23.8888 43.9575 24.6487 43.4311C25.4345 42.8782 26.0697 42.1409 26.5509 41.1669C27.0338 40.1928 27.3125 39.0081 27.3627 37.6654C27.3886 36.8229 27.2866 36.0859 27.0581 35.4014C26.8296 34.6116 26.5008 34.006 26.12 33.4532Z" fill="url(#paint4_linear_995_15017)"/>
<path opacity="0.226763" fill-rule="evenodd" clip-rule="evenodd" d="M14.8234 41.9582C14.7646 41.8884 14.7091 41.8171 14.659 41.7439L15.8014 37.8211C15.817 37.8357 15.8343 37.8509 15.8516 37.8664C16.0212 38.018 16.2324 38.2068 16.4851 38.374C16.7396 38.5583 17.0442 38.769 17.3731 38.9533C17.7019 39.1374 18.0584 39.3217 18.4132 39.4535C18.7681 39.6115 19.1489 39.7167 19.528 39.7694C19.8586 39.8219 20.1632 39.7958 20.416 39.743C20.6704 39.6903 20.8988 39.5851 21.0754 39.4271C21.2779 39.2692 21.406 39.0585 21.5064 38.8479C21.6085 38.6372 21.6846 38.374 21.6846 38.1108C21.7106 37.8475 21.6846 37.5843 21.6085 37.3472C21.5323 37.0841 21.4302 36.847 21.2779 36.6102C21.1342 36.3599 20.9438 36.1336 20.7067 35.9083C20.8313 36.049 20.9369 36.1935 21.0252 36.3468C21.1775 36.5838 21.2779 36.8207 21.3541 37.084C21.4302 37.3209 21.4562 37.5843 21.4303 37.8475C21.4303 38.1108 21.3541 38.374 21.2537 38.5847C21.1516 38.7953 21.0252 39.0058 20.8227 39.1638C20.6444 39.3217 20.416 39.4271 20.1633 39.4797C19.9088 39.5324 19.6042 39.5587 19.2753 39.506C18.8945 39.4535 18.5137 39.3481 18.1589 39.1901C17.804 39.0585 17.4492 38.8742 17.1186 38.6899C16.7897 38.5056 16.4851 38.2951 16.2324 38.1108C15.978 37.9436 15.7668 37.7548 15.5972 37.6032C15.5799 37.5877 15.5642 37.5725 15.5469 37.5579L14.4062 41.4805C14.5188 41.6481 14.6625 41.805 14.8234 41.9582ZM18.5604 34.0277C18.4652 33.9335 18.3735 33.8379 18.2852 33.7405C17.9304 33.3456 17.6015 32.9244 17.3471 32.4506C17.0684 31.9765 16.8659 31.4763 16.7395 30.9499C16.5872 30.4234 16.5352 29.8441 16.5612 29.2123C16.6114 28.1592 16.8157 27.1851 17.1446 26.3163C17.4994 25.4213 17.9823 24.6315 18.5899 23.947C19.2251 23.2362 19.9849 22.6569 20.8469 22.2094C21.7608 21.7355 22.7751 21.4196 23.9158 21.2617C24.4489 21.1826 24.9561 21.1562 25.4372 21.1562C25.9202 21.1562 26.3771 21.1826 26.8081 21.2353C27.2391 21.288 27.6199 21.3669 27.9747 21.4723C28.3036 21.5512 28.6082 21.6828 28.8627 21.8144L28.8228 21.9376C28.6394 21.8578 28.4386 21.786 28.2274 21.7355C27.8726 21.6303 27.4918 21.5512 27.0608 21.4985C26.6298 21.446 26.1728 21.4196 25.6916 21.4196C25.2105 21.4196 24.7034 21.446 24.1703 21.5249C23.0296 21.6828 22.0136 21.9987 21.1014 22.4727C20.2394 22.9202 19.4778 23.4993 18.8443 24.2102C18.235 24.8947 17.7538 25.6845 17.399 26.5797C17.0684 27.4485 16.8659 28.4225 16.8157 29.4755C16.7897 30.1075 16.8399 30.6866 16.9922 31.2131C17.1186 31.7397 17.3228 32.2399 17.6015 32.7138C17.8542 33.1876 18.1848 33.6089 18.5396 34.0037C18.5465 34.0117 18.5535 34.0198 18.5604 34.0277ZM22.0049 29.8203C22.1433 29.9769 22.3165 30.1474 22.5207 30.318C22.7752 30.5286 23.0798 30.7393 23.4087 30.9499C23.8916 31.2658 24.3727 31.6081 24.8297 32.0293C24.963 32.1519 25.0945 32.2788 25.2261 32.4104C25.0149 32.1834 24.795 31.9686 24.5752 31.7661C24.12 31.3447 23.6371 31.0025 23.156 30.6866C22.8254 30.4759 22.5207 30.2654 22.268 30.0548C22.1728 29.9762 22.0862 29.8977 22.0049 29.8203Z" fill="#1A1A1C"/>
<path fill-rule="evenodd" clip-rule="evenodd" d="M18.2331 16.6291C17.8783 17.4188 17.5234 18.1033 17.269 18.5772C17.0422 18.9722 17.1686 19.3933 17.5493 19.4985C17.9284 19.6303 18.4355 19.3933 18.664 18.9983C18.69 18.9458 19.4257 17.6558 20.0851 16.0234L18.2331 16.6291Z" fill="url(#paint5_linear_995_15017)"/>
<path fill-rule="evenodd" clip-rule="evenodd" d="M29.6684 12.9445C29.3655 14.1818 28.9848 15.3402 28.7061 16.051C28.5278 16.4723 28.7303 16.8671 29.1111 16.9198C29.5179 16.9726 29.9731 16.6828 30.1254 16.2617C30.1514 16.1826 30.8351 14.4715 31.2678 12.4443V12.418L29.6684 12.9445Z" fill="url(#paint6_linear_995_15017)"/>
<path fill-rule="evenodd" clip-rule="evenodd" d="M42.4293 14.6558C42.4293 14.6558 42.4033 14.4451 42.2769 14.3662C42.1748 14.2872 42.0484 14.2872 42.0484 14.2872L38.5227 14.024L35.9367 11.365C35.8346 11.2859 35.7325 11.2334 35.6061 11.207L33.6797 51.2238L47.1961 48.1962L42.4293 14.6558Z" fill="url(#paint7_linear_995_15017)"/>
<path opacity="0.41" fill-rule="evenodd" clip-rule="evenodd" d="M39.3839 43.7743L38.5219 14.025L38.3696 13.867L38.7764 43.353C38.7764 43.353 35.2004 48.9869 34.6672 48.8289C33.8814 48.5921 36.2146 11.6555 36.2146 11.6555L35.9602 11.3923C35.8598 11.3133 35.7317 11.2607 35.6314 11.2344L33.7291 50.6982L33.7031 51.2511L34.3626 50.3823L39.3839 43.7743Z" fill="url(#paint8_linear_995_15017)"/>
<path opacity="0.32" fill-rule="evenodd" clip-rule="evenodd" d="M33.7031 51.2221L39.3839 43.7715L47.2473 48.1945L33.7031 51.2221Z" fill="url(#paint9_linear_995_15017)"/>
<path opacity="0.19" fill-rule="evenodd" clip-rule="evenodd" d="M33.7031 51.2221L39.3337 43.7715L47.2473 48.1945L33.7031 51.2221Z" fill="url(#paint10_linear_995_15017)"/>
<path opacity="0.19" fill-rule="evenodd" clip-rule="evenodd" d="M33.7031 51.2221L39.3337 43.7715L47.2473 48.1945L33.7031 51.2221Z" fill="url(#paint11_linear_995_15017)"/>
<path fill-rule="evenodd" clip-rule="evenodd" d="M42.2941 14.3909C42.4222 14.4963 42.4223 14.6543 42.4223 14.6543L47.1389 48.1681L39.3776 43.7453L38.5156 13.9961L41.9912 14.2593C42.0155 14.2856 42.1678 14.2856 42.2941 14.3909Z" fill="url(#paint12_linear_995_15017)"/>
<path fill-rule="evenodd" clip-rule="evenodd" d="M41.7499 14.4719C41.7499 14.4719 41.9022 14.4719 42.0286 14.6035C42.155 14.7089 42.1808 14.8669 42.1808 14.8669L46.8231 48.0123L47.1779 48.223L42.4595 14.6826C42.4595 14.6826 42.4353 14.5246 42.3332 14.4194C42.2068 14.314 42.0286 14.314 42.0286 14.314L38.5547 14.0508L41.7499 14.4719Z" fill="url(#paint13_linear_995_15017)"/>
<path opacity="0.6" fill-rule="evenodd" clip-rule="evenodd" d="M28.1731 30.3729C31.1156 34.5062 33.0939 38.9817 34.0822 43.3257L35.6297 11.1807C35.351 11.1281 35.0706 11.1807 34.9945 11.207L13.4883 18.1311C13.4883 18.1311 13.2857 18.1836 13.0312 18.289C18.4853 20.2372 23.9376 24.4231 28.1731 30.3729Z" fill="url(#paint14_linear_995_15017)"/>
<path fill-rule="evenodd" clip-rule="evenodd" d="M8.75 46.3795L33.7059 51.2236L34.9244 23.791L11.8534 24.4468L8.75 46.3795Z" fill="url(#paint15_linear_995_15017)"/>
<path opacity="0.3" fill-rule="evenodd" clip-rule="evenodd" d="M16.9401 18.5153C16.7134 19.1552 16.9366 19.8275 17.4421 20.0174C17.9458 20.207 18.5377 19.8422 18.7662 19.2025C18.993 18.5627 18.768 17.8903 18.2643 17.7006C17.7606 17.5108 17.1669 17.8756 16.9401 18.5153Z" fill="white"/>
<path opacity="0.89" fill-rule="evenodd" clip-rule="evenodd" d="M16.9164 18.2108C16.6897 18.8506 16.9147 19.523 17.4184 19.7127C17.922 19.9025 18.5158 19.5377 18.7425 18.8979C18.9693 18.258 18.746 17.5856 18.2406 17.3959C17.7369 17.2061 17.1449 17.5709 16.9164 18.2108Z" fill="#1A1A1C"/>
<path fill-rule="evenodd" clip-rule="evenodd" d="M38.5479 14.024L35.9602 11.365C35.8598 11.2859 35.7317 11.2334 35.6314 11.207L33.7031 51.2238L39.4098 43.7468L38.5479 14.024Z" fill="url(#paint16_linear_995_15017)"/>
<path fill-rule="evenodd" clip-rule="evenodd" d="M35.0018 11.2332L13.4956 18.1307C13.4956 18.1307 12.5835 18.394 12.355 18.6836C12.329 18.71 12.3289 18.7363 12.3047 18.7627L33.9875 12.5495C34.1658 12.4968 34.5968 12.3388 34.5466 13.6288L33.2276 51.1708L33.6846 51.2499L35.6111 11.2332C35.3584 11.1541 35.078 11.2068 35.0018 11.2332Z" fill="url(#paint17_linear_995_15017)"/>
<path fill-rule="evenodd" clip-rule="evenodd" d="M35.0018 11.2332L13.4956 18.1307C13.4956 18.1307 12.5835 18.394 12.355 18.6836C12.329 18.71 12.3289 18.7363 12.3047 18.7627L17.326 17.3146L34.5968 11.7597C34.6729 11.7334 34.9517 11.6807 35.2303 11.7334L33.3281 51.1708L33.6846 51.2499L35.6111 11.2332C35.3584 11.1541 35.078 11.2068 35.0018 11.2332Z" fill="url(#paint18_linear_995_15017)"/>
<path opacity="0.32" fill-rule="evenodd" clip-rule="evenodd" d="M40.5271 44.4062L39.3846 43.748L33.6797 51.2248L33.9826 51.1458C33.9826 51.1458 39.0056 44.4326 39.4608 44.2219C39.7914 44.0903 40.5271 44.4062 40.5271 44.4062Z" fill="url(#paint19_linear_995_15017)"/>
<path opacity="0.57" fill-rule="evenodd" clip-rule="evenodd" d="M33.7031 51.2248L39.4098 43.748C39.3839 43.7744 35.7836 47.855 33.7031 51.2248Z" fill="url(#paint20_linear_995_15017)"/>
<path opacity="0.46" fill-rule="evenodd" clip-rule="evenodd" d="M47.2442 48.1945L39.4068 43.7715C39.3808 43.7715 40.2947 43.9294 47.2442 48.1945Z" fill="url(#paint21_linear_995_15017)"/>
<path opacity="0.3" fill-rule="evenodd" clip-rule="evenodd" d="M28.5425 15.8903C28.314 16.5302 28.539 17.2026 29.0427 17.3925C29.5481 17.5823 30.1401 17.2175 30.3669 16.5777C30.5953 15.9378 30.3703 15.2654 29.8666 15.0756C29.3629 14.8859 28.7692 15.2506 28.5425 15.8903Z" fill="white"/>
<path opacity="0.89" fill-rule="evenodd" clip-rule="evenodd" d="M28.5102 15.5857C28.2834 16.2256 28.5085 16.898 29.0122 17.0878C29.5159 17.2775 30.1095 16.9128 30.3362 16.2729C30.563 15.6332 30.3397 14.9607 29.836 14.7709C29.3306 14.5811 28.7386 14.9459 28.5102 15.5857Z" fill="#1A1A1C"/>
<path fill-rule="evenodd" clip-rule="evenodd" d="M17.8274 19.5006C17.8014 19.5006 17.7512 19.5006 17.7252 19.5006C17.3202 19.4481 17.0416 19.0531 17.0918 18.6056C17.142 18.1843 18.5872 8.33809 24.5224 6.10041C26.0179 5.5475 27.2866 5.65274 28.2507 6.46903C29.4173 7.44309 30.0508 9.39122 30.153 12.2345C30.2291 14.2354 30.0007 15.9728 30.0007 16.0519C29.9505 16.473 29.5697 16.7891 29.163 16.71C28.7579 16.6573 28.4532 16.2626 28.5294 15.8412C28.7579 14.0511 29.0106 9.12802 27.3126 7.70628C26.7795 7.25878 26.0439 7.20607 25.0556 7.57469C19.9581 9.49646 18.6132 18.7372 18.6132 18.8161C18.511 19.2111 18.2082 19.5006 17.8274 19.5006Z" fill="#595961"/>
<path opacity="0.46" fill-rule="evenodd" clip-rule="evenodd" d="M27.9496 6.52129C27.0617 5.78424 25.8951 5.679 24.5 6.1792C22.0906 7.10056 20.0619 9.52255 18.6668 13.182C17.6283 15.8937 17.2718 18.342 17.2718 18.4474C17.2475 18.579 17.2978 18.7106 17.3739 18.816C17.4501 18.9213 17.5521 19.0003 17.6785 19.0003C17.7027 19.0003 17.7287 19.0003 17.7547 19.0003C17.9831 19.0003 18.1856 18.816 18.2116 18.579C18.2358 18.4738 19.5808 9.07505 24.8305 7.10056C25.895 6.7056 26.757 6.75831 27.3662 7.28487C29.1663 8.7855 28.9137 13.8665 28.6852 15.683C28.6592 15.9464 28.8375 16.2096 29.0902 16.2359C29.3447 16.2623 29.5974 16.078 29.6233 15.8148C29.6493 15.5251 30.5373 8.68025 27.9496 6.52129Z" fill="#1A1A1C" fill-opacity="0.1"/>
<path opacity="0.81" fill-rule="evenodd" clip-rule="evenodd" d="M17.7358 18.7098C17.7099 18.7098 17.7099 18.7098 17.6857 18.7098C17.5333 18.6834 17.4312 18.5255 17.4572 18.3675C17.4831 18.2621 17.812 15.8665 18.8523 13.1547C20.2474 9.54804 22.2257 7.15224 24.5832 6.25706C25.9281 5.75685 27.0186 5.86227 27.8546 6.54679C30.3402 8.62651 29.4782 15.3662 29.428 15.6558C29.402 15.8137 29.2757 15.919 29.0974 15.8928C28.9468 15.8665 28.8447 15.7349 28.8447 15.5506C28.8447 15.4715 29.7067 8.86353 27.4755 6.96793C26.8161 6.46772 25.9022 6.41519 24.7875 6.83633C19.4356 8.86352 18.0405 18.3675 18.0405 18.4727C18.0146 18.6043 17.8882 18.7098 17.7358 18.7098Z" fill="#1A1A1C" fill-opacity="0.1"/>
<path opacity="0.42" fill-rule="evenodd" clip-rule="evenodd" d="M18.9712 16.5243C19.1235 16.0504 19.2257 15.5766 19.3261 15.1289C19.2759 15.2869 19.0474 16.7875 17.5 17.1561C17.526 17.1561 18.4381 17.1297 18.9712 16.5243Z" fill="#595961"/>
<path opacity="0.42" fill-rule="evenodd" clip-rule="evenodd" d="M19.5526 14.6044C19.7552 14.1567 19.9075 13.7092 20.0598 13.2617C19.9837 13.4197 19.705 14.8676 18.0312 15.0519C18.0312 15.0255 18.9434 15.131 19.5526 14.6044Z" fill="#595961"/>
<path opacity="0.42" fill-rule="evenodd" clip-rule="evenodd" d="M20.2194 12.8642C20.4478 12.4429 20.6763 11.9954 20.8528 11.5742C20.7766 11.7322 20.2695 13.1537 18.6719 13.1537C18.6719 13.1537 19.5599 13.338 20.2194 12.8642Z" fill="#595961"/>
<path opacity="0.42" fill-rule="evenodd" clip-rule="evenodd" d="M21.0722 11.1797C21.3509 10.7849 21.6053 10.3899 21.858 9.96875C21.7576 10.1003 21.022 11.4694 19.5006 11.2587C19.4746 11.2587 20.3626 11.5483 21.0722 11.1797Z" fill="#595961"/>
<path opacity="0.62" fill-rule="evenodd" clip-rule="evenodd" d="M29.6934 9.4696C29.567 8.99557 29.4406 8.54807 29.2624 8.07422C29.3126 8.23217 29.8198 9.7328 28.7812 10.8121C28.7812 10.8121 29.5411 10.2857 29.6934 9.4696Z" fill="#595961"/>
<path opacity="0.62" fill-rule="evenodd" clip-rule="evenodd" d="M29.9548 11.8914C29.9289 11.4176 29.8528 10.9174 29.7766 10.4434C29.7766 10.6277 30.031 12.181 28.8125 13.0235C28.8125 13.0235 29.6502 12.6549 29.9548 11.8914Z" fill="#595961"/>
<path opacity="0.62" fill-rule="evenodd" clip-rule="evenodd" d="M30.0813 14.3659C30.1073 13.892 30.1073 13.3918 30.0813 12.918C30.0813 13.1023 30.1072 14.6556 28.8125 15.3663C28.8125 15.3401 29.7005 15.0768 30.0813 14.3659Z" fill="#595961"/>
<path opacity="0.42" fill-rule="evenodd" clip-rule="evenodd" d="M22.0404 9.7338C22.3953 9.4179 22.7258 9.07564 23.0304 8.70703C22.9023 8.81227 21.8881 9.89176 20.4688 9.49679C20.493 9.49679 21.2788 9.97082 22.0404 9.7338Z" fill="#595961"/>
<path opacity="0.42" fill-rule="evenodd" clip-rule="evenodd" d="M23.1752 8.51924C23.582 8.25604 23.9628 7.99267 24.3418 7.70312C24.1912 7.78219 23.0246 8.65083 21.6797 8.01903C21.6797 8.01903 22.3894 8.62448 23.1752 8.51924Z" fill="#595961"/>
<path opacity="0.62" fill-rule="evenodd" clip-rule="evenodd" d="M24.7329 7.652C25.1899 7.52023 25.6209 7.36228 26.0519 7.20433C25.8996 7.25703 24.5305 7.73089 23.4141 6.73047C23.4141 6.73047 23.9471 7.52023 24.7329 7.652Z" fill="#595961"/>
<path opacity="0.62" fill-rule="evenodd" clip-rule="evenodd" d="M28.7069 7.10005C28.3521 6.75779 27.9955 6.44189 27.6406 6.15234C27.7687 6.28394 28.9596 7.258 28.6307 8.73228C28.6048 8.73228 28.9856 7.86345 28.7069 7.10005Z" fill="#595961"/>
<path opacity="0.62" fill-rule="evenodd" clip-rule="evenodd" d="M27.3924 7.75795C27.6209 8.0475 27.8477 8.33705 28.0762 8.60042C28 8.495 27.2903 7.62636 27.6451 6.54688C27.6711 6.54688 27.2903 7.1525 27.3924 7.75795Z" fill="#595961"/>
<path opacity="0.62" fill-rule="evenodd" clip-rule="evenodd" d="M26.0164 7.17812C26.3729 7.23083 26.7278 7.25719 27.0826 7.28354C26.9563 7.25719 25.8657 7.17813 25.3828 6.125C25.4088 6.125 25.5352 6.83586 26.0164 7.17812Z" fill="#595961"/>
<path fill-rule="evenodd" clip-rule="evenodd" d="M29.1452 15.5233C29.1695 15.2338 30.0332 8.57309 27.6239 6.5459C27.1669 6.1511 26.6096 5.9668 26.0003 5.9668C25.5434 5.9668 25.0362 6.07204 24.5031 6.2827C22.1699 7.15152 20.2174 9.49462 18.8483 13.075C17.808 15.7603 17.4791 18.1561 17.4531 18.2614C17.4531 18.3403 17.5034 18.4193 17.5796 18.4193H17.6055C17.6816 18.4193 17.7318 18.3666 17.7318 18.2877C17.7578 18.1823 19.1269 8.57309 24.5792 6.51954C25.7458 6.07204 26.7359 6.1511 27.4455 6.75656C29.7528 8.67833 28.8909 15.3917 28.8667 15.4708C28.8667 15.5497 28.9169 15.6287 28.993 15.6287C28.993 15.6287 28.993 15.6287 29.0172 15.6287C29.0934 15.6551 29.1452 15.6024 29.1452 15.5233Z" fill="url(#paint22_linear_995_15017)"/>
<path fill-rule="evenodd" clip-rule="evenodd" d="M24.5511 7.57435C19.4536 9.49612 18.1088 18.7369 18.1088 18.8421C18.0586 19.158 17.8543 19.3951 17.6016 19.474C17.6518 19.5003 17.6777 19.5003 17.7279 19.5003C17.7539 19.5003 17.8041 19.5003 17.8301 19.5003C18.2109 19.5003 18.5137 19.2108 18.5657 18.8421C18.5899 18.7369 19.9089 9.52248 25.0063 7.60053C25.3629 7.46893 25.6658 7.39004 25.9462 7.36369C25.5654 7.31098 25.0825 7.39004 24.5511 7.57435Z" fill="url(#paint23_linear_995_15017)"/>
<path fill-rule="evenodd" clip-rule="evenodd" d="M30.1514 12.2336C30.0493 9.39025 29.4158 7.46831 28.2492 6.46789C27.6157 5.9415 26.8542 5.70448 25.9922 5.75719C26.6517 5.80973 27.2592 6.04674 27.7681 6.46789C28.9347 7.44213 29.5681 9.39025 29.6685 12.2336C29.7447 14.2344 29.518 15.9719 29.518 16.0509C29.466 16.3668 29.2635 16.6038 29.0091 16.6827C29.061 16.7091 29.0852 16.7091 29.1371 16.7091C29.5422 16.7618 29.923 16.4721 29.9732 16.0509C29.9992 15.9719 30.2276 14.2607 30.1514 12.2336Z" fill="url(#paint24_linear_995_15017)"/>
<defs>
<linearGradient id="paint0_linear_995_15017" x1="23.81" y1="7.39732" x2="23.0146" y2="18.2266" gradientUnits="userSpaceOnUse">
<stop stop-color="white" stop-opacity="0.65"/>
<stop offset="1" stop-color="white" stop-opacity="0.01"/>
</linearGradient>
<linearGradient id="paint1_linear_995_15017" x1="29.6349" y1="13.5928" x2="35.2349" y2="18.4977" gradientUnits="userSpaceOnUse">
<stop stop-opacity="0.01"/>
<stop offset="1" stop-opacity="0.4"/>
</linearGradient>
<linearGradient id="paint2_linear_995_15017" x1="27.389" y1="19.2699" x2="33.3164" y2="13.7489" gradientUnits="userSpaceOnUse">
<stop stop-opacity="0.01"/>
<stop offset="1" stop-opacity="0.4"/>
</linearGradient>
<linearGradient id="paint3_linear_995_15017" x1="19.8415" y1="3.15664" x2="-3.18118" y2="29.6838" gradientUnits="userSpaceOnUse">
<stop stop-color="#B8D26E"/>
<stop offset="1" stop-color="#7FB525"/>
</linearGradient>
<linearGradient id="paint4_linear_995_15017" x1="13.7493" y1="27.4873" x2="3.38997" y2="52.7142" gradientUnits="userSpaceOnUse">
<stop stop-color="white"/>
<stop offset="1" stop-color="#CECEEB"/>
</linearGradient>
<linearGradient id="paint5_linear_995_15017" x1="19.0968" y1="14.9949" x2="17.1834" y2="16.6393" gradientUnits="userSpaceOnUse">
<stop stop-opacity="0.01"/>
<stop offset="1" stop-opacity="0.4"/>
</linearGradient>
<linearGradient id="paint6_linear_995_15017" x1="30.5062" y1="10.651" x2="27.7843" y2="12.116" gradientUnits="userSpaceOnUse">
<stop stop-opacity="0.01"/>
<stop offset="1" stop-opacity="0.4"/>
</linearGradient>
<linearGradient id="paint7_linear_995_15017" x1="51.3329" y1="9.79873" x2="38.6975" y2="10.0334" gradientUnits="userSpaceOnUse">
<stop stop-color="#B4E034"/>
<stop offset="1" stop-color="#60A927"/>
</linearGradient>
<linearGradient id="paint8_linear_995_15017" x1="28.6022" y1="89.6141" x2="45.0092" y2="89.5809" gradientUnits="userSpaceOnUse">
<stop stop-color="#1D1D1B" stop-opacity="0.5"/>
<stop offset="0.038033" stop-color="#1D1D1B" stop-opacity="0.4837"/>
<stop offset="0.4243" stop-color="#1D1D1B" stop-opacity="0.3185"/>
<stop offset="1" stop-color="#1D1D1B" stop-opacity="0.01"/>
</linearGradient>
<linearGradient id="paint9_linear_995_15017" x1="37.7603" y1="48.2141" x2="37.954" y2="50.7677" gradientUnits="userSpaceOnUse">
<stop stop-opacity="0.01"/>
<stop offset="1" stop-opacity="0.4"/>
</linearGradient>
<linearGradient id="paint10_linear_995_15017" x1="33.2375" y1="44.4758" x2="33.6866" y2="51.1149" gradientUnits="userSpaceOnUse">
<stop stop-color="white" stop-opacity="0.5"/>
<stop offset="0.0896271" stop-color="white" stop-opacity="0.4552"/>
<stop offset="1" stop-color="white" stop-opacity="0.01"/>
</linearGradient>
<linearGradient id="paint11_linear_995_15017" x1="32.3738" y1="45.5084" x2="33.1727" y2="52.6004" gradientUnits="userSpaceOnUse">
<stop stop-opacity="0.01"/>
<stop offset="1" stop-opacity="0.4"/>
</linearGradient>
<linearGradient id="paint12_linear_995_15017" x1="33.1862" y1="66.6371" x2="51.2705" y2="66.6736" gradientUnits="userSpaceOnUse">
<stop stop-color="#1D1D1B" stop-opacity="0.5"/>
<stop offset="0.0896271" stop-color="#1D1D1B" stop-opacity="0.4552"/>
<stop offset="1" stop-color="#1D1D1B" stop-opacity="0.01"/>
</linearGradient>
<linearGradient id="paint13_linear_995_15017" x1="46.1498" y1="13.0531" x2="43.5808" y2="13.6826" gradientUnits="userSpaceOnUse">
<stop stop-color="white" stop-opacity="0.4"/>
<stop offset="1" stop-color="white" stop-opacity="0.01"/>
</linearGradient>
<linearGradient id="paint14_linear_995_15017" x1="29.2375" y1="4.7069" x2="8.74871" y2="16.5568" gradientUnits="userSpaceOnUse">
<stop stop-color="white" stop-opacity="0.5"/>
<stop offset="1" stop-color="white" stop-opacity="0.01"/>
</linearGradient>
<linearGradient id="paint15_linear_995_15017" x1="23.0973" y1="51.5166" x2="24.4331" y2="45.0764" gradientUnits="userSpaceOnUse">
<stop stop-color="#1D1D1B" stop-opacity="0.5"/>
<stop offset="0.0896271" stop-color="#1D1D1B" stop-opacity="0.4552"/>
<stop offset="1" stop-color="#1D1D1B" stop-opacity="0.01"/>
</linearGradient>
<linearGradient id="paint16_linear_995_15017" x1="30.8177" y1="88.7934" x2="47.2836" y2="88.8076" gradientUnits="userSpaceOnUse">
<stop stop-color="#1D1D1B" stop-opacity="0.5"/>
<stop offset="1" stop-color="#1D1D1B" stop-opacity="0.01"/>
</linearGradient>
<linearGradient id="paint17_linear_995_15017" x1="15.7768" y1="8.91315" x2="7.79094" y2="39.5948" gradientUnits="userSpaceOnUse">
<stop stop-color="white" stop-opacity="0.5"/>
<stop offset="1" stop-color="white" stop-opacity="0.01"/>
</linearGradient>
<linearGradient id="paint18_linear_995_15017" x1="15.7768" y1="8.91315" x2="7.79094" y2="39.5948" gradientUnits="userSpaceOnUse">
<stop stop-color="white" stop-opacity="0.5"/>
<stop offset="1" stop-color="white" stop-opacity="0.01"/>
</linearGradient>
<linearGradient id="paint19_linear_995_15017" x1="35.1527" y1="41.0772" x2="28.8406" y2="49.765" gradientUnits="userSpaceOnUse">
<stop stop-color="white" stop-opacity="0.5"/>
<stop offset="0.0896271" stop-color="white" stop-opacity="0.4552"/>
<stop offset="1" stop-color="white" stop-opacity="0.01"/>
</linearGradient>
<linearGradient id="paint20_linear_995_15017" x1="37.0558" y1="43.0746" x2="36.4309" y2="44.4755" gradientUnits="userSpaceOnUse">
<stop stop-opacity="0.01"/>
<stop offset="1" stop-opacity="0.4"/>
</linearGradient>
<linearGradient id="paint21_linear_995_15017" x1="43.2511" y1="44.9242" x2="43.2202" y2="45.3007" gradientUnits="userSpaceOnUse">
<stop stop-opacity="0.01"/>
<stop offset="1" stop-opacity="0.4"/>
</linearGradient>
<linearGradient id="paint22_linear_995_15017" x1="20.5306" y1="5.08058" x2="17.8019" y2="15.8605" gradientUnits="userSpaceOnUse">
<stop stop-color="white" stop-opacity="0.65"/>
<stop offset="1" stop-color="white" stop-opacity="0.01"/>
</linearGradient>
<linearGradient id="paint23_linear_995_15017" x1="23.5991" y1="18.4076" x2="30.1576" y2="11.672" gradientUnits="userSpaceOnUse">
<stop stop-opacity="0.01"/>
<stop offset="1" stop-opacity="0.4"/>
</linearGradient>
<linearGradient id="paint24_linear_995_15017" x1="26.6291" y1="11.3001" x2="31.376" y2="16.1261" gradientUnits="userSpaceOnUse">
<stop stop-opacity="0.01"/>
<stop offset="1" stop-opacity="0.4"/>
</linearGradient>
</defs>
</svg>
