<svg width="49" height="48" viewBox="0 0 49 48" fill="none" xmlns="http://www.w3.org/2000/svg">
<path d="M39.7738 22.4994C41.8447 22.4994 43.5234 20.8206 43.5234 18.7497C43.5234 16.6788 41.8445 15 39.7736 15C37.7025 15 36.0234 16.6789 36.0234 18.75V22.4994H39.7738ZM29.2734 22.4994C31.3445 22.4994 33.0234 20.8204 33.0234 18.7494V8.25C33.0234 6.17893 31.3445 4.5 29.2734 4.5C27.2024 4.5 25.5234 6.17893 25.5234 8.25V18.7494C25.5234 20.8204 27.2024 22.4994 29.2734 22.4994Z" fill="#2EB67D"/>
<path d="M8.27312 25.5006C6.20223 25.5006 4.52344 27.1794 4.52344 29.2503C4.52344 31.3212 6.20239 33 8.27328 33C10.3443 33 12.0234 31.3211 12.0234 29.25V25.5006H8.27312ZM18.7734 25.5006C16.7024 25.5006 15.0234 27.1796 15.0234 29.2506V39.75C15.0234 41.8211 16.7024 43.5 18.7734 43.5C20.8445 43.5 22.5234 41.8211 22.5234 39.75V29.2506C22.5234 27.1796 20.8445 25.5006 18.7734 25.5006Z" fill="#E01E5A"/>
<path d="M25.5241 39.7503C25.5241 41.8212 27.2029 43.5 29.2738 43.5C31.3446 43.5 33.0234 41.8211 33.0234 39.7502C33.0234 37.6791 31.3445 36 29.2734 36L25.5241 36L25.5241 39.7503ZM25.5241 29.25C25.5241 31.3211 27.203 33 29.2741 33L39.7734 33C41.8445 33 43.5234 31.3211 43.5234 29.25C43.5234 27.1789 41.8445 25.5 39.7734 25.5L29.2741 25.5C27.203 25.5 25.5241 27.1789 25.5241 29.25Z" fill="#ECB22E"/>
<path d="M22.5228 8.24968C22.5228 6.17879 20.844 4.5 18.7731 4.5C16.7022 4.5 15.0234 6.17895 15.0234 8.24984C15.0234 10.3209 16.7024 12 18.7734 12L22.5228 12L22.5228 8.24968ZM22.5228 18.75C22.5228 16.6789 20.8439 15 18.7728 15L8.27344 15C6.20237 15 4.52344 16.6789 4.52344 18.75C4.52344 20.8211 6.20237 22.5 8.27344 22.5L18.7728 22.5C20.8439 22.5 22.5228 20.8211 22.5228 18.75Z" fill="#36C5F0"/>
</svg>
