<?xml version="1.0" encoding="UTF-8"?>
<svg version="1.1" xmlns="http://www.w3.org/2000/svg" width="512" height="512">
<path d="M0 0 C0.91913475 -0.00523668 1.83826949 -0.01047336 2.7852568 -0.01586872 C5.84865809 -0.03080596 8.91189141 -0.0315725 11.97532654 -0.03224182 C14.1787443 -0.03986766 16.38215941 -0.04829588 18.58557129 -0.0574646 C24.56112593 -0.07937781 30.53662939 -0.08820455 36.51221967 -0.09329104 C40.25053272 -0.09693915 43.98883246 -0.10318165 47.72714043 -0.11029243 C58.09780958 -0.12974161 68.46846951 -0.14625852 78.83915806 -0.14916897 C79.5017838 -0.14935654 80.16440955 -0.14954411 80.84711486 -0.14973736 C82.19015467 -0.15010359 83.53319449 -0.15046729 84.8762343 -0.15082847 C85.54283122 -0.15101128 86.20942815 -0.1511941 86.89622498 -0.15138245 C87.56364525 -0.151563 88.23106552 -0.15174354 88.91871064 -0.15192956 C99.7201905 -0.15546714 110.52147049 -0.18246723 121.32288111 -0.21988034 C132.43914342 -0.25807262 143.55532302 -0.27688731 154.67165416 -0.27762848 C160.90232859 -0.27841932 167.1327451 -0.28706902 173.36335945 -0.31562614 C179.22974292 -0.34191292 185.09565659 -0.34395265 190.96207237 -0.3279705 C193.10532791 -0.32616431 195.24861112 -0.332771 197.39180756 -0.34878922 C216.84585023 -0.48522773 232.39988665 2.70401312 247.24656677 16.33665466 C258.30352832 27.94944193 263.74831923 42.68162813 263.67259216 58.57444763 C263.67273819 59.38487015 263.67288422 60.19529266 263.67303467 61.03027344 C263.67234148 63.69232417 263.66457701 66.35430375 263.65672302 69.01634216 C263.65485673 70.86864687 263.65343382 72.72095207 263.6524353 74.57325745 C263.64862675 79.43611527 263.63881069 84.29894297 263.62773132 89.16178894 C263.61748143 94.12892754 263.61293003 99.09607103 263.6078949 104.06321716 C263.59718689 113.80020952 263.58013048 123.53717958 263.55906677 133.27415466 C264.138946 133.26701698 264.71882523 133.2598793 265.31627655 133.25252533 C270.61634489 133.18845614 275.91617633 133.14163441 281.21653748 133.10935974 C283.21333152 133.09439706 285.21009342 133.07401955 287.20677185 133.0478363 C301.5655834 132.86444051 314.67012601 133.0455577 327.68406677 139.89915466 C328.35437927 140.24542908 329.02469177 140.59170349 329.71531677 140.94847107 C342.85776714 147.98232561 352.05828164 157.95785148 358.87156677 171.08665466 C359.36016174 172.00909973 359.36016174 172.00909973 359.85862732 172.95018005 C365.54926975 184.5046262 366.02425226 196.77688039 365.99266052 209.38743591 C365.9972377 211.01204645 366.00254774 212.63665507 366.00854492 214.26126099 C366.01741726 217.64739401 366.01512166 221.03329047 366.00511169 224.41941833 C365.99364414 228.71234129 366.01382949 233.00443887 366.04302883 237.29725361 C366.06156976 240.64777631 366.06106299 243.99810781 366.05539131 247.34866905 C366.05524019 248.9291671 366.06110661 250.50967992 366.07368279 252.09012794 C366.21269028 272.41981598 361.25384471 291.03866955 346.97654724 306.12303162 C330.29702293 322.74856769 310.36492194 327.39083859 287.59883118 327.36964417 C285.21055042 327.36195448 282.82232515 327.34944029 280.43406677 327.33665466 C278.79344314 327.33162904 277.15281802 327.32706801 275.51219177 327.32298279 C271.52777936 327.31206272 267.54343988 327.29485684 263.55906677 327.27415466 C263.56183215 327.95884701 263.56459753 328.64353935 263.56744671 329.34897995 C263.63386052 346.05191732 263.68342198 362.75481256 263.71450329 379.45785141 C263.72993563 387.53550221 263.75095516 395.61306456 263.78538513 403.69065857 C263.81539929 410.73565428 263.83466815 417.7805859 263.84133226 424.82564378 C263.84522429 428.55182476 263.85429412 432.27782248 263.87625694 436.0039444 C263.90064486 440.17580096 263.90102911 444.34734412 263.89964294 448.51927185 C263.91582169 450.34808144 263.91582169 450.34808144 263.93232727 452.21383667 C263.87244619 468.94697867 258.58366481 484.00837442 246.80906677 496.16087341 C235.67922973 506.61441828 222.2227512 512.77154516 206.86416626 512.66183472 C205.94191153 512.66722025 205.01965681 512.67260579 204.06945497 512.67815453 C201.00750321 512.69235672 197.94598852 512.68534953 194.88401794 512.6782074 C192.67705948 512.68391506 190.47010397 512.69088085 188.26315308 512.69900513 C182.28781356 512.71690923 176.31262113 512.71577309 170.33726287 512.71006274 C165.33998066 512.70696645 160.34272652 512.71306836 155.34544832 512.71910149 C142.87711551 512.73393803 130.40884788 512.73034094 117.94051824 512.71823818 C107.13783815 512.70831179 96.33532948 512.72123991 85.53267583 512.74517237 C74.41409074 512.76961724 63.29557459 512.77875907 52.17696172 512.77251965 C45.94531514 512.76915646 39.7138101 512.77152262 33.48218346 512.78877068 C27.61909579 512.80429107 21.75633408 512.80022759 15.89325905 512.78146553 C13.74917282 512.77779354 11.60506217 512.78084724 9.46099854 512.79135132 C-9.19868576 512.87574377 -22.07471737 509.76077339 -37.62843323 499.08665466 C-48.94272528 487.77236261 -56.68005845 474.02089991 -56.69820213 457.79802418 C-56.70170821 457.08694798 -56.70521428 456.37587178 -56.7088266 455.64324781 C-56.71809378 453.27231935 -56.7132295 450.90163905 -56.70835876 448.53070068 C-56.71209739 446.80889267 -56.71669976 445.08708635 -56.72208941 443.36528271 C-56.73430863 438.64257811 -56.73406021 433.9199444 -56.73170066 429.1972276 C-56.73129222 424.10026468 -56.74233427 419.00332441 -56.7518158 413.90637207 C-56.76842107 403.92344764 -56.77392514 393.94054683 -56.77504055 383.95760975 C-56.77599129 375.8414893 -56.78010287 367.72537664 -56.7864418 359.60925865 C-56.80405325 336.59128663 -56.81328087 313.57333326 -56.81178086 290.55535445 C-56.81170094 289.31472893 -56.81162103 288.07410341 -56.8115387 286.79588318 C-56.81145693 285.55374025 -56.81137517 284.31159733 -56.81129093 283.0318137 C-56.81047816 262.9043091 -56.82961407 242.77687935 -56.85781543 222.6493964 C-56.88655347 201.97549815 -56.9003552 181.3016364 -56.89862788 160.62771767 C-56.89796428 149.02378598 -56.90344353 137.41993275 -56.92498398 125.81601906 C-56.94320788 115.9355093 -56.94753315 106.05511357 -56.93396513 96.17459426 C-56.92744153 91.13601032 -56.92729642 86.09764508 -56.94467163 81.05908203 C-56.9604342 76.44054855 -56.95750623 71.8224066 -56.94010337 67.20388248 C-56.93704047 65.53902742 -56.9406389 63.87414291 -56.95182352 62.20932261 C-57.05767783 45.32582411 -52.75900238 32.93762686 -43.25343323 19.08665466 C-31.15864141 6.99186285 -17.11869099 -0.0488793 0 0 Z M-19.75343323 40.64915466 C-25.66474031 48.07041518 -26.56412673 56.06286611 -26.56956768 65.2920351 C-26.57132072 65.96571203 -26.57307375 66.63938895 -26.57487991 67.33348033 C-26.5795191 69.58311989 -26.57707981 71.83269423 -26.574646 74.08233643 C-26.57651502 75.71467236 -26.57881608 77.34700786 -26.58151132 78.97934264 C-26.58762443 83.4592494 -26.5874963 87.93913749 -26.58631694 92.41904747 C-26.58611281 97.25283796 -26.59163284 102.08662246 -26.59637451 106.92041016 C-26.60467885 116.38843984 -26.60742925 125.85646329 -26.60798689 135.32449631 C-26.60846213 143.02066005 -26.6105173 150.71682175 -26.61368752 158.41298485 C-26.62249334 180.23463347 -26.62710698 202.05627717 -26.62635704 223.87792758 C-26.62631709 225.05419277 -26.62627713 226.23045796 -26.62623596 227.44236755 C-26.62619508 228.62006939 -26.6261542 229.79777122 -26.62611208 231.01116099 C-26.62570559 250.09962141 -26.63527618 269.18806211 -26.64937433 288.27651683 C-26.66373711 307.87798323 -26.67064457 327.47944002 -26.66978055 347.08091182 C-26.66944856 358.08502484 -26.67219672 369.08911719 -26.6829586 380.09322548 C-26.69206229 389.46181637 -26.69423991 398.8303772 -26.68744918 408.19897059 C-26.68418338 412.97788296 -26.68412951 417.75673765 -26.69280243 422.53564453 C-26.70066557 426.91340762 -26.69923787 431.29106729 -26.6905183 435.66882785 C-26.68898291 437.24954024 -26.69080093 438.83026034 -26.69637837 440.41096363 C-26.80391115 458.69074711 -26.80391115 458.69074711 -17.80421448 473.99681091 C-9.66297309 481.44284517 -0.52748528 482.4265911 10.06472778 482.41459656 C10.89528665 482.41756768 11.72584551 482.4205388 12.58157283 482.42359996 C15.35101803 482.4322375 18.12041975 482.433791 20.88987732 482.43528748 C22.8812672 482.43991915 24.87265621 482.44494427 26.86404419 482.45033264 C32.26508927 482.46342485 37.66612193 482.46989536 43.0671804 482.4743433 C46.44514681 482.47727911 49.82310988 482.48138487 53.2010746 482.48584747 C63.78048266 482.49951391 74.35988301 482.50918479 84.93929929 482.51304936 C97.13219721 482.51752842 109.32498294 482.53507289 121.51784676 482.56404996 C130.9558916 482.58569789 140.39390494 482.5957553 149.83197433 482.59709048 C155.46279172 482.59813626 161.09350351 482.60399568 166.72429466 482.6219101 C172.02423027 482.63844463 177.32398151 482.64052019 182.62393379 482.63177109 C184.56203583 482.6310036 186.50014801 482.63530515 188.43822479 482.64522934 C207.78328997 482.99471327 207.78328997 482.99471327 224.60030174 474.45966721 C231.94046049 466.26980841 233.43122804 457.33288699 233.24021912 446.7028656 C233.24109528 445.4038884 233.24197144 444.10491119 233.24287415 442.76657104 C233.24457834 439.24415225 233.20959059 435.72298818 233.1674304 432.20085812 C233.12962828 428.50540666 233.12637506 424.80991857 233.11927795 421.11430359 C233.10071479 414.13394208 233.05159541 407.15415215 232.99118102 400.17404103 C232.92384797 392.21994444 232.89105997 384.26581888 232.86100841 376.3115077 C232.79848704 359.9653901 232.69312087 343.6198456 232.55906677 327.27415466 C188.1514379 324.98011258 155.43639869 323.98767714 117.23309326 350.24276733 C112.23210527 353.32393462 106.20436381 352.78603393 100.55906677 352.27415466 C96.2661642 351.01064078 93.5151917 348.62266607 91.18406677 344.83665466 C88.95513993 339.95016121 88.434509 335.84147349 88.41862488 330.50357056 C88.41291473 329.35025238 88.40720459 328.1969342 88.40132141 327.00866699 C88.39964462 325.12370766 88.39964462 325.12370766 88.39793396 323.20066833 C88.39330153 321.85644903 88.3882763 320.51223102 88.38288879 319.16801453 C88.36979458 315.52065889 88.36332443 311.87332165 88.35887814 308.22594619 C88.35593963 305.94045694 88.35183314 303.65497261 88.34737396 301.36948586 C88.33370033 294.19977791 88.32403578 287.03008135 88.32017207 279.86036128 C88.31570624 271.62087507 88.29822677 263.38155599 88.26917148 255.14212054 C88.24743136 248.75201024 88.2374611 242.3619465 88.23613095 235.97179967 C88.23509072 232.16621513 88.2293533 228.36078769 88.21131134 224.55524254 C88.09462792 198.43277382 88.68979678 173.91563201 107.62156677 153.64915466 C120.75569131 141.24840764 136.89203246 134.2015513 155.02122498 134.0688324 C155.86076218 134.0589328 156.70029938 134.0490332 157.5652771 134.03883362 C160.33010575 134.00733869 163.09495155 133.98250881 165.85984802 133.95774841 C167.78084755 133.93716851 169.70184265 133.91617177 171.62283325 133.89477539 C176.6714265 133.83966174 181.7200599 133.79020534 186.76872253 133.7419281 C191.92348287 133.69163479 197.07818512 133.63598964 202.2328949 133.58079529 C212.34156921 133.47334471 222.45029401 133.37187078 232.55906677 133.27415466 C232.69867315 122.92048996 232.80499352 112.56705266 232.8699398 102.21263504 C232.90112611 97.40353675 232.94336363 92.5950869 233.01170349 87.78636169 C233.07735335 83.13731858 233.11286809 78.48889535 233.12833023 73.83942413 C233.13933539 72.07411198 233.16082446 70.3088301 233.19344711 68.5437851 C233.39924582 56.93740215 232.88075449 46.98615104 224.44255066 38.02696228 C215.31180659 29.77441449 202.95548462 29.84006927 191.30906677 30.08665466 C189.45861755 30.1069574 189.45861755 30.1069574 187.57078552 30.12767029 C184.56640074 30.16260499 181.56298269 30.21165321 178.55906677 30.27415466 C178.54504822 31.14197571 178.54504822 31.14197571 178.53074646 32.02732849 C177.98227057 59.05052043 177.98227057 59.05052043 170.22686768 66.942276 C158.7235488 76.12863927 146.55903049 75.1242779 132.51609802 75.00071716 C130.17826336 74.9996782 127.84042694 75.0007204 125.50259399 75.0037384 C120.62149203 75.0035597 115.74105587 74.98285117 110.86009216 74.94651794 C104.61929707 74.90106957 98.37946979 74.90007683 92.13855457 74.91355324 C87.31794708 74.92024998 82.49755834 74.90694178 77.67699242 74.88729477 C75.37621392 74.87962576 73.07541103 74.87727976 70.77462196 74.88046646 C67.55622442 74.88121214 64.33904755 74.85585179 61.12083435 74.82347107 C60.18086609 74.8284259 59.24089783 74.83338074 58.27244568 74.83848572 C49.57567861 74.699546 42.51542798 71.87255943 36.06297302 65.98899841 C31.58537967 60.88337898 29.50143129 54.64100865 29.24266052 47.94993591 C29.20076599 46.92190857 29.15887146 45.89388123 29.1157074 44.83470154 C29.07639099 43.76284607 29.03707458 42.6909906 28.99656677 41.58665466 C28.95338318 40.50319763 28.91019958 39.4197406 28.8657074 38.30345154 C28.7595984 35.62714675 28.65754317 32.9507494 28.55906677 30.27415466 C24.26745886 30.21543976 19.97595619 30.18031984 15.68406677 30.14915466 C13.87809021 30.12401794 13.87809021 30.12401794 12.03562927 30.09837341 C-0.50091688 30.03024001 -10.93199599 31.00409429 -19.75343323 40.64915466 Z M59.55906677 30.27415466 C59.55906677 34.89415466 59.55906677 39.51415466 59.55906677 44.27415466 C88.59906677 44.27415466 117.63906677 44.27415466 147.55906677 44.27415466 C147.55906677 39.65415466 147.55906677 35.03415466 147.55906677 30.27415466 C118.51906677 30.27415466 89.47906677 30.27415466 59.55906677 30.27415466 Z M139.55906677 168.27415466 C138.66832458 168.73177185 137.7775824 169.18938904 136.85984802 169.66087341 C128.0649553 175.41470303 122.44024845 183.14354814 119.55906677 193.27415466 C118.44041304 199.40488698 118.42424587 205.40512593 118.44554138 211.62547302 C118.44539536 212.74815582 118.44524933 213.87083862 118.44509888 215.02754211 C118.44579323 218.72304748 118.4535633 222.41850189 118.46141052 226.11399841 C118.4632764 228.6823219 118.4646995 231.25064575 118.46569824 233.81896973 C118.46912087 239.8784182 118.47699523 245.93784577 118.48704773 251.99728638 C118.49824815 258.89937048 118.5037292 265.80145547 118.50874317 272.7035464 C118.51917897 286.89375889 118.53675386 301.08395613 118.55906677 315.27415466 C121.53762848 313.86937796 124.51521926 312.46255441 127.49266052 311.05540466 C128.32293762 310.66385193 129.15321472 310.27229919 130.00865173 309.86888123 C137.9214312 306.12710471 145.74886819 302.2246035 153.55906677 298.27415466 C156.19426666 296.95655472 158.16413407 297.14043288 161.11642456 297.12939453 C162.29808701 297.12249603 163.47974945 297.11559753 164.69721985 297.10848999 C166.00055267 297.10587662 167.3038855 297.10326324 168.64671326 297.10057068 C170.02815968 297.09426653 171.40960407 297.08750089 172.79104614 297.08030701 C175.77140314 297.0656202 178.7517522 297.0539018 181.73213005 297.04435921 C186.45264226 297.02890693 191.17308741 297.00495375 195.89355469 296.97946167 C209.31904349 296.90827189 222.7445718 296.84865238 236.17015076 296.79734802 C243.58106352 296.7689525 250.99191062 296.73351498 258.40275437 296.69069427 C263.08626441 296.66405398 267.76970015 296.64606704 272.45327079 296.63465703 C275.38304923 296.62546402 278.31273846 296.60807022 281.24246407 296.58847809 C283.22866975 296.57756292 285.21492115 296.57625846 287.20115662 296.5753479 C300.92929396 296.4648177 313.49231798 294.6756058 323.96531677 285.06712341 C333.43346687 274.41545455 335.02850039 263.2343441 334.99266052 249.56712341 C334.99723043 248.03548961 335.0025384 246.50385785 335.00854492 244.972229 C335.0174482 241.77062117 335.01508617 238.56926313 335.00511169 235.36766052 C334.99364488 231.29267995 335.01381181 227.21856895 335.04302883 223.14370251 C335.06150198 219.98209274 335.06107613 216.82068691 335.05539131 213.65903664 C335.05523935 212.15813798 335.06117896 210.65722437 335.07368279 209.15637779 C335.17362804 195.19146987 332.5697913 184.70125709 322.99656677 174.21165466 C315.94259458 167.30326164 307.02047505 164.16411137 297.29890442 164.12698364 C296.01207764 164.11982834 294.72525085 164.11267303 293.39942932 164.1053009 C291.97526574 164.10246079 290.55110191 164.09974905 289.12693787 164.09715271 C287.62534936 164.09088531 286.1237624 164.08423827 284.62217712 164.07723999 C279.6922971 164.05622632 274.76241687 164.04583867 269.83250427 164.03587341 C268.13264068 164.03182455 266.43277724 164.02770759 264.73291397 164.02352333 C256.74416 164.0044759 248.75541523 163.99024512 240.76664293 163.98191136 C231.55921191 163.97214666 222.35202179 163.9458454 213.14467561 163.90541047 C206.01923021 163.87519751 198.89385366 163.8604375 191.76834548 163.85713035 C187.51688097 163.85478537 183.26567393 163.84589741 179.01427841 163.82066917 C175.01032488 163.79729311 171.00679659 163.79319317 167.00279236 163.80343056 C165.53954779 163.80392376 164.0762816 163.79766746 162.61310196 163.78387451 C154.0653062 163.70785664 147.20961891 164.30640685 139.55906677 168.27415466 Z " fill="#000000" transform="translate(101.44093322753906,-0.2741546630859375)"/>
<path d="M0 0 C1.12562851 -0.00563965 2.25125702 -0.0112793 3.41099548 -0.01708984 C4.63142548 -0.01304138 5.85185547 -0.00899292 7.10926819 -0.00482178 C8.40587875 -0.00832642 9.70248932 -0.01183105 11.03839111 -0.01544189 C14.58388556 -0.02453597 18.12926321 -0.02103376 21.67475963 -0.01468372 C25.39239861 -0.00960719 29.11002784 -0.01431987 32.82766724 -0.01745605 C39.07096647 -0.02109134 45.31421834 -0.01630857 51.55751038 -0.0067749 C58.76479134 0.00410405 65.97195909 0.0005864 73.17923731 -0.01042771 C79.37730307 -0.01951877 85.57533485 -0.02077684 91.77340513 -0.01555037 C95.47077098 -0.01244005 99.16808371 -0.01199539 102.86544609 -0.01862335 C106.98975648 -0.02550059 111.11387335 -0.0159544 115.23817444 -0.00482178 C116.4565802 -0.00887024 117.67498596 -0.0129187 118.93031311 -0.01708984 C132.63008863 0.05137755 132.63008863 0.05137755 138.05091858 4.62896729 C141.96711278 9.32840032 142.6930615 12.74414317 142.55091858 18.78521729 C141.93971875 23.6136959 139.38426695 26.19062633 135.94129944 29.38568115 C130.83008133 32.66225032 124.45515542 31.8079953 118.61732483 31.77154541 C117.22717049 31.77697013 115.83702191 31.78409476 114.44688416 31.79278564 C110.68234973 31.81098071 106.91825508 31.80396756 103.15371323 31.7912693 C99.20871063 31.7811217 95.26374496 31.79053986 91.31874084 31.79681396 C84.69456747 31.80408527 78.07057264 31.79451633 71.44642639 31.77545166 C63.7948135 31.75368378 56.14362698 31.76073553 48.49202442 31.78275728 C41.91518162 31.80092611 35.33846696 31.8034624 28.76160717 31.79300261 C24.83674318 31.78677578 20.91207941 31.78590956 16.98722839 31.79914856 C13.29671965 31.81072819 9.60675906 31.80264355 5.91630936 31.77957153 C3.92081195 31.77178462 1.92526802 31.78362233 -0.07020569 31.79608154 C-10.95817185 31.69326008 -10.95817185 31.69326008 -15.76158142 27.25396729 C-18.65112639 24.00902374 -20.00862901 20.52218948 -20.19908142 16.19146729 C-19.60689277 10.86176943 -18.29809909 7.74895745 -14.44908142 4.00396729 C-9.81935848 0.98926397 -5.47941009 0.00424406 0 0 Z " fill="#000000" transform="translate(266.76158142089844,185.74603271484375)"/>
<path d="M0 0 C0.73250977 -0.00700928 1.46501953 -0.01401855 2.21972656 -0.02124023 C4.62604382 -0.03875584 7.03117209 -0.02722142 9.4375 -0.01367188 C11.11849186 -0.01636866 12.79948221 -0.02025264 14.48046875 -0.02526855 C17.99754743 -0.03115485 21.5142188 -0.02262896 25.03125 -0.00390625 C29.53052189 0.01888312 34.02883927 0.00575532 38.52807617 -0.01819611 C41.99746847 -0.03267779 45.46663594 -0.02803731 48.93603516 -0.01768494 C50.59456496 -0.01502418 52.25311544 -0.01826444 53.91162109 -0.02760315 C56.23329421 -0.03780834 58.55344011 -0.02221466 60.875 0 C62.19371094 0.00318237 63.51242187 0.00636475 64.87109375 0.00964355 C70.21698612 0.77101603 73.25160002 3.20684656 76.8125 7.14257812 C79.26378228 12.23370287 79.58673246 17.22352145 77.70703125 22.61132812 C75.68136395 26.5138382 73.43305018 28.76343415 69.4375 30.51757812 C65.49923074 31.50366018 61.79120693 31.64970425 57.73876953 31.6628418 C57.08604065 31.66620041 56.43331177 31.66955902 55.76080322 31.67301941 C53.61395335 31.68247843 51.46718189 31.68446996 49.3203125 31.68554688 C47.81965097 31.68876293 46.31898974 31.69212727 44.81832886 31.69563293 C41.6762418 31.70161155 38.53418219 31.70347414 35.39208984 31.70288086 C31.37853885 31.7027793 27.36516501 31.71643053 23.35165596 31.73365307 C20.2528707 31.74480629 17.15412783 31.74679905 14.05532455 31.74627113 C12.57624577 31.74744628 11.09716572 31.75184177 9.61810684 31.7596035 C7.54362041 31.76947099 5.46951289 31.76649912 3.39501953 31.76049805 C1.62893845 31.76263557 1.62893845 31.76263557 -0.17282104 31.76481628 C-4.69079635 31.43528186 -8.99446101 30.84197759 -12.5234375 27.86132812 C-12.99007813 27.25289063 -13.45671875 26.64445312 -13.9375 26.01757812 C-14.41960937 25.40914063 -14.90171875 24.80070312 -15.3984375 24.17382812 C-18.3805847 19.93077305 -18.11191156 15.54740226 -17.5625 10.51757812 C-13.85443336 2.81620896 -8.34264364 0.02013285 0 0 Z " fill="#000000" transform="translate(330.5625,237.482421875)"/>
<path d="M0 0 C0.66204437 -0.0065712 1.32408875 -0.0131424 2.00619507 -0.01991272 C4.20180372 -0.03965509 6.39734381 -0.05131267 8.59301758 -0.0612793 C9.71903098 -0.06739259 9.71903098 -0.06739259 10.86779213 -0.07362938 C14.84398753 -0.09449796 18.82014838 -0.10879406 22.79638672 -0.11816406 C26.89427239 -0.12920712 30.99161184 -0.16357973 35.08930492 -0.20333576 C38.24728875 -0.2295491 41.40514365 -0.23786023 44.5632267 -0.24144554 C46.07303859 -0.24630239 47.58284506 -0.25789068 49.09255028 -0.27648354 C63.77595081 -0.44602067 63.77595081 -0.44602067 69.55004883 4.17700195 C73.01434216 8.2186775 73.69290585 12.97164917 73.55004883 18.17700195 C72.01015516 23.39553049 70.16442653 26.279602 65.55004883 29.17700195 C61.30186645 30.84553054 57.74893996 31.43232522 53.19677734 31.45166016 C51.33938683 31.46595818 51.33938683 31.46595818 49.44447327 31.48054504 C48.10596691 31.48028359 46.76746054 31.4793464 45.42895508 31.4777832 C44.04182305 31.48167539 42.6546922 31.48601113 41.26756287 31.49076843 C38.36681242 31.49820948 35.46618374 31.49795471 32.56542969 31.49267578 C28.86230394 31.48688234 25.15967855 31.50381886 21.45663548 31.52702045 C18.593736 31.54180649 15.73095572 31.54262294 12.86802483 31.53951073 C11.50337673 31.54002145 10.13872153 31.54521203 8.77411079 31.55532265 C-6.50331825 31.65464038 -6.50331825 31.65464038 -12.19213867 26.6418457 C-16.26404311 21.15179524 -17.07739807 17.94202038 -16.44995117 11.17700195 C-13.50840694 2.97164172 -8.29310065 0.06801987 0 0 Z " fill="#000000" transform="translate(176.449951171875,423.822998046875)"/>
</svg>
