<svg width="56" height="56" viewBox="0 0 56 56" fill="none" xmlns="http://www.w3.org/2000/svg">
<circle cx="28" cy="28" r="24.5" fill="#FFFA37"/>
<path fill-rule="evenodd" clip-rule="evenodd" d="M36.7947 14.3246C35.1051 12.1954 32.3177 10.5 28.0206 10.5C24.3409 10.5362 16.9816 12.5728 16.9816 20.4291C16.9816 21.5765 17.0724 23.1131 17.1518 24.2447C17.0583 24.2175 16.9433 24.1667 16.7611 24.0793L16.7357 24.0672C16.4135 23.9124 15.9236 23.6772 15.2422 23.6772C14.5538 23.6772 13.8882 23.9469 13.3941 24.3467C12.9029 24.744 12.4833 25.3549 12.4833 26.0935C12.4833 27.0172 13.0032 27.6305 13.6111 28.0237C14.1511 28.3729 14.8319 28.596 15.3709 28.7726L15.4242 28.79C16.0011 28.9793 16.4239 29.1235 16.7155 29.3052C16.9424 29.4467 16.9768 29.5362 16.9811 29.6212C16.9781 29.6333 16.9712 29.6594 16.9561 29.7018C16.925 29.7892 16.8732 29.9073 16.7976 30.0551C16.6467 30.3498 16.4267 30.7121 16.1649 31.0986C15.6369 31.8782 14.9925 32.6778 14.5112 33.1408C14.0364 33.5975 13.2573 34.1651 12.4428 34.6169C12.0388 34.8409 11.6438 35.0266 11.2904 35.1541C10.9256 35.2857 10.6583 35.3359 10.4931 35.3359C10.3624 35.3359 10.2492 35.3628 10.1998 35.3752C10.1304 35.3926 10.0586 35.4154 9.98747 35.4421C9.8465 35.4951 9.67848 35.5746 9.51206 35.6866C9.19409 35.9006 8.75 36.3321 8.75 37.0128C8.75 37.3681 8.83341 37.6689 8.97759 37.9298C9.10379 38.1583 9.26603 38.3316 9.35941 38.4313L9.37325 38.4462L9.3991 38.4739C9.91261 39.0264 10.7626 39.4108 11.5878 39.6745C12.2969 39.9012 13.0896 40.0701 13.8621 40.1715C13.873 40.2212 13.8844 40.2749 13.8969 40.3337L13.9009 40.3526C13.9496 40.582 14.014 40.8859 14.1089 41.1659C14.1984 41.4302 14.3605 41.821 14.6924 42.0993C15.1151 42.4538 15.6679 42.4897 16.0286 42.4882C16.4158 42.4866 16.8679 42.4321 17.2969 42.3804L17.3334 42.376C17.937 42.3033 18.5685 42.2282 19.2225 42.2282C20.4161 42.2282 21.1811 42.7268 22.3815 43.5466L22.3896 43.5521C22.8053 43.836 23.2709 44.1539 23.8 44.4666C25.5713 45.5133 27.0105 45.5043 27.8262 45.4992C27.88 45.4988 27.9311 45.4985 27.9794 45.4985C28.0277 45.4985 28.079 45.4988 28.1332 45.4992C28.9502 45.5044 30.4277 45.5139 32.2 44.4666C32.7291 44.1539 33.1946 43.836 33.6104 43.5521L33.6185 43.5466C34.8189 42.7268 35.5839 42.2282 36.7775 42.2282C37.4315 42.2282 38.063 42.3033 38.6666 42.376L38.7031 42.3804C39.1321 42.4321 39.5842 42.4866 39.9714 42.4882C40.3321 42.4897 40.8849 42.4538 41.3076 42.0993C41.6395 41.821 41.8016 41.4302 41.8911 41.1659C41.986 40.8859 42.0504 40.5821 42.099 40.3527L42.1031 40.3337C42.1156 40.2749 42.127 40.2212 42.1379 40.1715C42.9104 40.0701 43.7031 39.9012 44.4122 39.6745C45.2374 39.4108 46.0875 39.0263 46.601 38.4738L46.6268 38.4461L46.6405 38.4314C46.7339 38.3316 46.8962 38.1583 47.0224 37.9298C47.1666 37.6689 47.25 37.3681 47.25 37.0128C47.25 36.3321 46.8059 35.9006 46.4879 35.6866C46.3215 35.5746 46.1535 35.4951 46.0125 35.4421C45.9414 35.4154 45.8696 35.3926 45.8002 35.3752C45.7508 35.3628 45.6376 35.3359 45.5069 35.3359C45.3417 35.3359 45.0744 35.2857 44.7096 35.1541C44.3562 35.0266 43.9612 34.8409 43.5572 34.6169C42.7427 34.1651 41.9636 33.5975 41.4888 33.1408C41.0074 32.6778 40.3631 31.8782 39.8351 31.0986C39.5733 30.7121 39.3533 30.3498 39.2024 30.0551C39.1268 29.9073 39.075 29.7892 39.0439 29.7018C39.0288 29.6594 39.0219 29.6333 39.0189 29.6212C39.0232 29.5361 39.0576 29.4467 39.2845 29.3052C39.5761 29.1235 39.9989 28.9793 40.5758 28.79L40.6291 28.7726C41.1681 28.596 41.8489 28.3729 42.3889 28.0237C42.9968 27.6305 43.5167 27.0172 43.5167 26.0935C43.5167 25.3549 43.0971 24.744 42.6059 24.3467C42.1118 23.9469 41.4462 23.6772 40.7578 23.6772C40.0764 23.6772 39.5865 23.9124 39.2643 24.0672L39.2389 24.0793C39.0567 24.1667 38.9417 24.2175 38.8482 24.2447C38.9276 23.1131 39.0184 21.5765 39.0184 20.4291C39.0184 18.8715 38.4521 16.4133 36.7947 14.3246ZM20.6207 15.3523C19.2188 17.1071 18.7385 19.1908 18.7385 20.4291C18.7385 21.5773 18.8357 23.1723 18.9178 24.316C18.9451 24.6959 18.8672 25.1387 18.5355 25.4902C18.1997 25.8459 17.7429 25.9614 17.3348 25.9614C16.7456 25.9614 16.2974 25.7458 16.0107 25.6079L15.9774 25.5919C15.6576 25.4386 15.4894 25.3673 15.2422 25.3673C15.0172 25.3673 14.7426 25.4639 14.5249 25.6401C14.3042 25.8186 14.2402 25.9934 14.2402 26.0935C14.2402 26.2971 14.3153 26.4426 14.5914 26.6212C14.9175 26.8321 15.3821 26.9906 15.9911 27.1904L16.0442 27.2078C16.55 27.3735 17.1764 27.5787 17.6708 27.8869C18.2258 28.2328 18.7385 28.7888 18.7385 29.6452C18.7385 29.8697 18.6764 30.0858 18.6181 30.2495C18.5549 30.4271 18.4694 30.6147 18.3737 30.8017C18.1818 31.1766 17.9222 31.6 17.637 32.0212C17.071 32.8569 16.3515 33.7606 15.7535 34.3358C15.149 34.9174 14.2398 35.5711 13.3203 36.0811C12.8572 36.3379 12.3737 36.5682 11.9075 36.7365C11.4902 36.8871 11.0404 37.005 10.6089 37.0235C10.5982 37.028 10.5863 37.0334 10.5738 37.0397C10.554 37.0497 10.5353 37.0605 10.5191 37.0714L10.5108 37.0772C10.5124 37.0888 10.5143 37.0974 10.5158 37.1035C10.5193 37.117 10.5234 37.1266 10.5289 37.1366C10.5458 37.1672 10.5725 37.2014 10.6804 37.317L10.7087 37.3473C10.9032 37.5565 11.3823 37.828 12.1418 38.0707C12.8651 38.3019 13.7204 38.4689 14.5285 38.5455C14.9328 38.5838 15.1659 38.8365 15.2645 38.9726C15.366 39.1127 15.4241 39.2607 15.458 39.3589C15.5237 39.5489 15.5732 39.783 15.6124 39.9677L15.6183 39.9957C15.6717 40.2474 15.7184 40.4625 15.7793 40.6424C15.8008 40.706 15.8207 40.7544 15.8378 40.7899C15.8764 40.7944 15.9355 40.7985 16.0211 40.7982C16.3927 40.7967 16.7647 40.7413 17.1329 40.6969C17.7219 40.6259 18.4508 40.5381 19.2225 40.5381C21.0124 40.5381 22.1935 41.3451 23.3344 42.1247L23.3985 42.1684C23.8207 42.4568 24.2438 42.7454 24.7196 43.0266C26.0605 43.8189 27.0807 43.8132 27.8261 43.809C27.8786 43.8088 27.9297 43.8085 27.9794 43.8085C28.0287 43.8085 28.0795 43.8087 28.1317 43.809C28.8854 43.8131 29.9398 43.8188 31.2804 43.0266C31.7562 42.7454 32.1793 42.4568 32.6015 42.1684L32.6656 42.1247C33.8065 41.3451 34.9876 40.5381 36.7775 40.5381C37.5492 40.5381 38.2781 40.6259 38.8671 40.6969L38.8849 40.6991C39.3612 40.7565 39.7098 40.7971 39.9789 40.7982C40.0645 40.7985 40.1236 40.7944 40.1622 40.7899C40.1793 40.7544 40.1992 40.706 40.2207 40.6424C40.2816 40.4625 40.3283 40.2474 40.3817 39.9957L40.3876 39.9677C40.4268 39.783 40.4763 39.5489 40.542 39.3589C40.5759 39.2607 40.634 39.1127 40.7355 38.9726C40.8341 38.8365 41.0672 38.5838 41.4715 38.5455C42.2796 38.4689 43.1349 38.3019 43.8582 38.0707C44.6177 37.828 45.0968 37.5565 45.2912 37.3474L45.3195 37.317C45.4275 37.2014 45.4542 37.1672 45.4711 37.1366C45.4766 37.1266 45.4807 37.117 45.4841 37.1035C45.4857 37.0974 45.4876 37.0888 45.4892 37.0772L45.4809 37.0714C45.4647 37.0605 45.446 37.0497 45.4262 37.0397C45.4137 37.0334 45.4018 37.028 45.3911 37.0235C44.9596 37.005 44.5098 36.8871 44.0925 36.7365C43.6263 36.5682 43.1428 36.3379 42.6797 36.0811C41.7602 35.5711 40.851 34.9174 40.2465 34.3358C39.6485 33.7606 38.929 32.8569 38.363 32.0212C38.0778 31.6 37.8182 31.1766 37.6263 30.8017C37.5306 30.6147 37.4451 30.4271 37.3819 30.2495C37.3236 30.0858 37.2615 29.8697 37.2615 29.6452C37.2615 28.7888 37.7742 28.2328 38.3292 27.8869C38.8236 27.5787 39.45 27.3735 39.9558 27.2078L40.0089 27.1904C40.6179 26.9906 41.0825 26.8321 41.4086 26.6212C41.6847 26.4426 41.7598 26.2971 41.7598 26.0935C41.7598 25.9934 41.6958 25.8186 41.4751 25.6401C41.2574 25.4639 40.9828 25.3673 40.7578 25.3673C40.5106 25.3673 40.3424 25.4386 40.0226 25.5919L39.9893 25.6079C39.7026 25.7458 39.2544 25.9614 38.6652 25.9614C38.2571 25.9614 37.8003 25.8459 37.4645 25.4902C37.1328 25.1387 37.0549 24.6959 37.0822 24.316C37.1643 23.1723 37.2615 21.5773 37.2615 20.4291C37.2615 19.1876 36.7897 17.1037 35.3982 15.3501C34.0389 13.6371 31.7666 12.1901 28.0206 12.1901C24.2742 12.1901 21.9905 13.6375 20.6207 15.3523Z" fill="#1A1A1C"/>
<path fill-rule="evenodd" clip-rule="evenodd" d="M20.6177 15.3517C19.2158 17.1065 18.7355 19.1902 18.7355 20.4285C18.7355 21.5767 18.8327 23.1717 18.9148 24.3154C18.9421 24.6953 18.8642 25.1381 18.5325 25.4896C18.1967 25.8453 17.7399 25.9608 17.3318 25.9608C16.7426 25.9608 16.2944 25.7452 16.0077 25.6073L15.9744 25.5913C15.6546 25.438 15.4864 25.3666 15.2392 25.3666C15.0143 25.3666 14.7396 25.4633 14.5219 25.6395C14.3012 25.818 14.2372 25.9928 14.2372 26.0928C14.2372 26.2965 14.3123 26.442 14.5884 26.6206C14.9145 26.8315 15.3791 26.99 15.9881 27.1898L16.0412 27.2072C16.547 27.3729 17.1734 27.5781 17.6678 27.8863C18.2228 28.2322 18.7355 28.7882 18.7355 29.6446C18.7355 29.8691 18.6734 30.0852 18.6151 30.2489C18.5519 30.4265 18.4664 30.6141 18.3707 30.8011C18.1788 31.176 17.9192 31.5994 17.634 32.0206C17.068 32.8563 16.3485 33.76 15.7505 34.3352C15.146 34.9168 14.2368 35.5705 13.3173 36.0805C12.8542 36.3373 12.3707 36.5676 11.9045 36.7359C11.4872 36.8865 11.0374 37.0044 10.6059 37.0229C10.5952 37.0274 10.5833 37.0328 10.5708 37.0391C10.551 37.0491 10.5323 37.0599 10.5161 37.0708L10.5078 37.0766C10.5094 37.0882 10.5113 37.0968 10.5129 37.1029C10.5163 37.1164 10.5204 37.126 10.5259 37.136C10.5428 37.1666 10.5695 37.2008 10.6774 37.3164L10.7057 37.3467C10.9002 37.5559 11.3793 37.8274 12.1388 38.0701C12.8621 38.3013 13.7174 38.4683 14.5255 38.5449C14.9298 38.5832 15.1629 38.8359 15.2615 38.972C15.363 39.1121 15.4211 39.2601 15.455 39.3583C15.5207 39.5483 15.5703 39.7824 15.6094 39.9671L15.6153 39.9951C15.6687 40.2468 15.7154 40.4619 15.7763 40.6418C15.7978 40.7054 15.8177 40.7537 15.8348 40.7893C15.8734 40.7937 15.9325 40.7979 16.0181 40.7976C16.3897 40.7961 16.7617 40.7407 17.1299 40.6963C17.7189 40.6253 18.4478 40.5375 19.2195 40.5375C21.0094 40.5375 22.1905 41.3445 23.3314 42.1241L23.3955 42.1678C23.8177 42.4562 24.2408 42.7448 24.7166 43.026C26.0575 43.8183 27.0777 43.8126 27.8231 43.8084C27.8756 43.8081 27.9267 43.8079 27.9764 43.8079C28.0257 43.8079 28.0765 43.8081 28.1287 43.8084C28.8824 43.8125 29.9368 43.8182 31.2774 43.026C31.7532 42.7448 32.1763 42.4562 32.5985 42.1678L32.6626 42.1241C33.8035 41.3445 34.9846 40.5375 36.7745 40.5375C37.5462 40.5375 38.2751 40.6253 38.8641 40.6963L38.8819 40.6985C39.3582 40.7558 39.7068 40.7965 39.9759 40.7976C40.0615 40.7979 40.1206 40.7937 40.1592 40.7893C40.1763 40.7537 40.1962 40.7054 40.2177 40.6418C40.2786 40.4619 40.3253 40.2468 40.3787 39.9951L40.3847 39.9671C40.4238 39.7824 40.4733 39.5483 40.539 39.3583C40.5729 39.2601 40.631 39.1121 40.7325 38.972C40.8311 38.8359 41.0642 38.5832 41.4685 38.5449C42.2766 38.4683 43.1319 38.3013 43.8552 38.0701C44.6147 37.8274 45.0938 37.5559 45.2882 37.3468L45.3165 37.3164C45.4245 37.2008 45.4512 37.1666 45.4681 37.136C45.4736 37.126 45.4777 37.1164 45.4812 37.1029C45.4827 37.0968 45.4846 37.0882 45.4862 37.0766L45.4779 37.0708C45.4617 37.0599 45.4431 37.0491 45.4232 37.0391C45.4107 37.0328 45.3988 37.0274 45.3881 37.0229C44.9566 37.0044 44.5068 36.8865 44.0895 36.7359C43.6233 36.5676 43.1398 36.3373 42.6767 36.0805C41.7572 35.5705 40.848 34.9168 40.2435 34.3352C39.6455 33.76 38.926 32.8563 38.3601 32.0206C38.0748 31.5993 37.8152 31.176 37.6233 30.8011C37.5276 30.6141 37.4421 30.4265 37.3789 30.2489C37.3206 30.0852 37.2585 29.8691 37.2585 29.6446C37.2585 28.7882 37.7712 28.2322 38.3262 27.8863C38.8206 27.5781 39.4471 27.3729 39.9528 27.2072L40.0059 27.1898C40.6149 26.99 41.0795 26.8315 41.4056 26.6206C41.6817 26.442 41.7568 26.2965 41.7568 26.0928C41.7568 25.9928 41.6928 25.818 41.4721 25.6395C41.2544 25.4633 40.9798 25.3666 40.7548 25.3666C40.5076 25.3666 40.3394 25.438 40.0196 25.5913L39.9863 25.6073C39.6996 25.7452 39.2514 25.9608 38.6622 25.9608C38.2541 25.9608 37.7973 25.8453 37.4615 25.4896C37.1298 25.1381 37.0519 24.6953 37.0792 24.3154C37.1613 23.1717 37.2585 21.5767 37.2585 20.4285C37.2585 19.187 36.7867 17.1031 35.3952 15.3495C34.0359 13.6365 31.7636 12.1895 28.0176 12.1895C24.2712 12.1895 21.9875 13.6369 20.6177 15.3517Z" fill="white"/>
</svg>
