<svg width="62" height="56" viewBox="0 0 62 56" fill="none" xmlns="http://www.w3.org/2000/svg">
<path id="Vector" d="M31.6084 1.00098H31.6094C34.3776 0.966095 37.0968 1.67963 39.4688 3.05566L39.9385 3.33984C42.3956 4.88765 44.3323 7.10155 45.5166 9.70508C46.5336 13.4714 46.769 17.3987 46.2051 21.2549L46.1992 21.2959L46.1963 21.3369L46.1836 21.5303V21.5312L46.0859 23.1123L46.0537 23.6396L46.4707 23.9639C47.1127 24.4627 47.9101 24.7227 48.7236 24.7041H48.749L48.7744 24.7021C49.8985 24.6193 50.9954 24.3226 52.0059 23.8311C52.1778 23.7577 52.3656 23.721 52.5547 23.7236H52.5693C52.8154 23.7233 53.0591 23.7696 53.2861 23.8594L53.335 23.8779L53.3848 23.8926L53.4062 23.8984L53.4268 23.9043L53.4473 23.9092C53.5978 23.9445 53.7358 24.0116 53.8525 24.1035L53.9619 24.2031C54.0763 24.3246 54.153 24.471 54.1924 24.626C54.178 24.6899 54.1311 24.8106 53.9639 24.9844C53.7293 25.2279 53.2771 25.5577 52.4375 25.917L52.0537 26.0723L52.0508 26.0742C51.9516 26.1128 51.8346 26.1529 51.7021 26.1963L51.2588 26.3359L51.2529 26.3379C50.6242 26.5336 49.7326 26.8068 48.9229 27.2227C48.1273 27.6312 47.2462 28.2576 46.8164 29.251L46.8008 29.2871L46.7881 29.3242C46.6137 29.8338 46.5402 30.3715 46.5723 30.9072L46.5928 31.1367C46.6618 31.7308 46.8596 32.3022 47.1709 32.8135H47.1719L47.1758 32.8203C47.3806 33.2756 48.4459 35.5212 50.501 37.8848C52.6257 40.3284 55.8637 42.961 60.3496 43.7959C60.2797 43.8698 60.1784 43.9602 60.0312 44.0625C59.7238 44.2762 59.2769 44.5042 58.6689 44.7324C57.6047 45.1318 56.1432 45.497 54.29 45.8086L53.4717 45.9395H53.4688C52.6887 46.0593 52.3481 46.7218 52.2002 47.083C52.0746 47.3897 51.9747 47.7668 51.8818 48.1611L51.791 48.5586L51.7881 48.5684C51.6991 48.9859 51.5949 49.4001 51.4766 49.8105H51.4619C51.1845 49.8005 50.9081 49.7731 50.6348 49.7275L50.3574 49.6748L50.3506 49.6729L49.9043 49.5869C49.0092 49.4263 48.1029 49.3325 47.1934 49.3057L46.7383 49.2979H46.7314C45.8526 49.2999 44.9753 49.372 44.1084 49.5137L44.0674 49.5205L44.0283 49.5303C42.2836 49.9633 40.6518 50.7512 39.2393 51.8428L38.96 52.0645L38.9531 52.0713C36.8291 53.8433 34.1585 54.874 31.3633 54.999C31.2202 54.9986 31.0774 54.9945 30.9707 54.9893L30.9023 54.9863L30.834 54.9922C30.7767 54.9973 30.71 54.9987 30.6348 54.999C28.0174 54.8813 25.5099 53.9681 23.459 52.3955L23.0537 52.0713L23.0459 52.0645L22.7656 51.8418C21.3513 50.7501 19.7171 49.9627 17.9707 49.5303L17.9316 49.5205L17.8926 49.5137L17.2393 49.4199C16.8028 49.3664 16.3643 49.3309 15.9248 49.3125L15.2646 49.2979H15.2529C14.1894 49.3091 13.1291 49.4136 12.085 49.6094L11.6387 49.6982L11.627 49.7012C11.2653 49.7828 10.8971 49.8334 10.5264 49.8545C10.4649 49.6473 10.4104 49.442 10.3604 49.2354L10.21 48.5752L10.209 48.5693L10.0215 47.7842C9.9548 47.5329 9.88186 47.297 9.79883 47.0928C9.66181 46.756 9.35571 46.1484 8.67285 45.9746L8.53125 45.9453H8.5293C6.28291 45.6057 4.54763 45.1935 3.33105 44.7363C2.72304 44.5079 2.27625 44.2791 1.96777 44.0645C1.81751 43.9599 1.71376 43.8679 1.64258 43.792C5.49737 43.025 8.96633 40.9642 11.4424 37.9541L11.4414 37.9531C12.804 36.4056 13.9399 34.6799 14.8154 32.8242L14.8223 32.8135L14.8213 32.8125C15.0923 32.3668 15.2785 31.8764 15.3672 31.3643L15.4004 31.1367C15.4713 30.526 15.4047 29.9073 15.2061 29.3252L15.1934 29.2881L15.1777 29.251L15.0918 29.0693C14.6379 28.1803 13.8167 27.6057 13.0703 27.2227C12.4625 26.9107 11.8087 26.6791 11.2539 26.5L10.7373 26.3369H10.7354C10.5706 26.2863 10.4227 26.2401 10.291 26.1973L9.94238 26.0752L9.93652 26.0723L9.5166 25.9004C9.08566 25.7114 8.63544 25.4737 8.28711 25.2041C7.8913 24.8978 7.80836 24.7005 7.7959 24.6025C7.89722 24.3997 8.04636 24.2203 8.23242 24.0791L8.33008 24.0107C8.5997 23.8373 8.92124 23.7495 9.24805 23.7617L9.27734 23.7627L9.30664 23.7617C9.41772 23.7594 9.52729 23.781 9.62793 23.8232C10.7032 24.3548 11.8808 24.6565 13.083 24.707V24.7051C13.9551 24.7601 14.8209 24.5016 15.5146 23.9707L15.9336 23.6494L15.9053 23.1221C15.8725 22.5231 15.8349 21.9242 15.7939 21.3252L15.792 21.2871L15.7861 21.249L15.6895 20.5215C15.2573 16.9039 15.5244 13.237 16.4785 9.71191C17.5852 7.27585 19.3522 5.18165 21.5879 3.65527L22.0449 3.35547C24.519 1.79528 27.4107 0.981204 30.3584 1.0166H30.3828L31.6084 1.00098Z" fill="#FFEE59" stroke="#1A1A1C" stroke-width="2"/>
</svg>
