<svg width="139" height="45" viewBox="0 0 139 45" fill="none" xmlns="http://www.w3.org/2000/svg">
<path d="M19.4804 4.45508C9.53951 4.45508 1.48047 12.5141 1.48047 22.4552C1.48047 32.3967 9.53951 40.4551 19.4804 40.4551C29.4223 40.4551 37.4805 32.3967 37.4805 22.4552C37.4805 12.5147 29.4223 4.45594 19.4801 4.45594L19.4804 4.45508ZM27.735 30.4164C27.4126 30.9452 26.7205 31.1128 26.1917 30.7883C21.9655 28.2067 16.6453 27.6221 10.3797 29.0536C9.77594 29.1912 9.17411 28.8129 9.03654 28.2089C8.89833 27.6049 9.27513 27.003 9.8804 26.8655C16.7371 25.2989 22.6185 25.9734 27.3631 28.8731C27.8919 29.1976 28.0596 29.8876 27.735 30.4164ZM29.9382 25.5152C29.5319 26.1755 28.6678 26.384 28.008 25.9777C23.1696 23.0037 15.7943 22.1424 10.0715 23.8796C9.32929 24.1038 8.5454 23.6855 8.32014 22.9446C8.0966 22.2024 8.51509 21.42 9.256 21.1943C15.793 19.2108 23.9198 20.1716 29.476 23.586C30.1359 23.9923 30.3444 24.8561 29.9382 25.5152ZM30.1273 20.4115C24.326 16.9656 14.7546 16.6488 9.2158 18.3299C8.32637 18.5997 7.38579 18.0976 7.11625 17.2081C6.84671 16.3182 7.34839 15.3783 8.23846 15.1079C14.5967 13.1776 25.1664 13.5506 31.8455 17.5157C32.6473 17.9905 32.9095 19.0238 32.4345 19.8227C31.9616 20.6228 30.9247 20.8865 30.1273 20.4115Z" fill="#1A1A1C" fill-opacity="0.4"/>
<path d="M54.2784 19.4513C50.6523 18.5867 50.0078 17.9798 50.0078 16.7046C50.0078 15.4999 51.1413 14.6892 52.829 14.6892C54.464 14.6892 56.084 15.3048 57.7842 16.5722C57.8344 16.6106 57.8996 16.6259 57.9623 16.6159C58.0275 16.6063 58.0826 16.5715 58.1202 16.5191L59.8907 14.0234C59.9634 13.9206 59.9434 13.7789 59.8455 13.7004C57.8218 12.0772 55.5448 11.288 52.8816 11.288C48.9671 11.288 46.2311 13.6375 46.2311 16.999C46.2311 20.6039 48.5909 21.8803 52.6685 22.8656C56.1366 23.6648 56.7234 24.3344 56.7234 25.5311C56.7234 26.8576 55.5398 27.6827 53.6339 27.6827C51.5174 27.6827 49.7896 26.968 47.8587 25.2978C47.811 25.2552 47.7458 25.2377 47.6856 25.2402C47.6204 25.2452 47.5627 25.2753 47.5226 25.3229L45.5365 27.6852C45.4538 27.7855 45.4638 27.9309 45.5591 28.0162C47.806 30.0224 50.5695 31.0806 53.5537 31.0806C57.7717 31.0806 60.4976 28.776 60.4976 25.2076C60.5051 22.1965 58.702 20.5289 54.2859 19.4546L54.2784 19.4513ZM70.0419 15.8753C68.2138 15.8753 66.7142 16.5956 65.4754 18.0713V16.4102C65.4754 16.2791 65.3701 16.1723 65.2397 16.1723H61.9922C61.8618 16.1723 61.7564 16.2791 61.7564 16.4102V34.8673C61.7564 34.9977 61.8618 35.1055 61.9922 35.1055H65.2397C65.3701 35.1055 65.4754 34.9977 65.4754 34.8673V29.0419C66.7142 30.4286 68.2138 31.1082 70.0419 31.1082C73.4399 31.1082 76.8805 28.4927 76.8805 23.4925C76.8855 18.4914 73.4449 15.8751 70.0444 15.8751L70.0419 15.8753ZM73.1039 23.4925C73.1039 26.0376 71.5365 27.8156 69.2896 27.8156C67.0703 27.8156 65.3951 25.9574 65.3951 23.4925C65.3951 21.0274 67.0703 19.1697 69.2896 19.1697C71.4989 19.1695 73.1039 20.9873 73.1039 23.4925ZM85.6951 15.8753C81.3191 15.8753 77.8911 19.2447 77.8911 23.5469C77.8911 27.803 81.2966 31.1358 85.6425 31.1358C90.0335 31.1358 93.4715 27.778 93.4715 23.4925C93.4715 19.2216 90.056 15.8753 85.6951 15.8753ZM85.6951 27.8407C83.368 27.8407 81.6125 25.9699 81.6125 23.4913C81.6125 21.0014 83.3078 19.1946 85.6425 19.1946C87.9847 19.1946 89.7501 21.0646 89.7501 23.5457C89.7501 26.0351 88.0448 27.8407 85.6951 27.8407ZM102.815 16.1723H99.2418V12.5195C99.2418 12.3886 99.1365 12.2818 99.0061 12.2818H95.7586C95.6282 12.2818 95.5203 12.3886 95.5203 12.5195V16.1723H93.9605C93.8301 16.1723 93.7248 16.2791 93.7248 16.4102V19.2006C93.7248 19.3315 93.8301 19.4386 93.9605 19.4386H95.5203V26.6595C95.5203 29.576 96.9723 31.0556 99.8386 31.0556C101.002 31.0556 101.968 30.8148 102.878 30.2982C102.953 30.2581 102.998 30.1779 102.998 30.0926V27.4344C102.998 27.3542 102.956 27.2764 102.886 27.2338C102.815 27.1887 102.728 27.1861 102.655 27.2238C102.03 27.5372 101.426 27.6827 100.749 27.6827C99.7082 27.6827 99.2418 27.2087 99.2418 26.1505V19.4398H102.815C102.946 19.4398 103.051 19.333 103.051 19.2018V16.4117C103.056 16.2806 102.951 16.1738 102.818 16.1738L102.815 16.1723ZM115.264 16.1865V15.7379C115.264 14.4181 115.77 13.8295 116.904 13.8295C117.581 13.8295 118.125 13.964 118.734 14.1671C118.81 14.1907 118.887 14.1789 118.947 14.134C119.01 14.0891 119.045 14.0171 119.045 13.9409V11.205C119.045 11.1004 118.98 11.0079 118.877 10.977C118.235 10.7857 117.413 10.5893 116.179 10.5893C113.182 10.5893 111.595 12.278 111.595 15.4711V16.1582H110.035C109.905 16.1582 109.797 16.265 109.797 16.3959V19.2006C109.797 19.3315 109.905 19.4386 110.035 19.4386H111.595V30.5741C111.595 30.707 111.703 30.8123 111.833 30.8123H115.078C115.211 30.8123 115.316 30.707 115.316 30.5741V19.4393H118.348L122.992 30.5741C122.466 31.7427 121.947 31.9759 121.24 31.9759C120.668 31.9759 120.063 31.8054 119.449 31.4668C119.391 31.4367 119.321 31.4317 119.261 31.4493C119.198 31.4718 119.146 31.517 119.12 31.5772L118.02 33.9921C117.967 34.1074 118.012 34.2404 118.122 34.3005C119.271 34.9225 120.307 35.1883 121.588 35.1883C123.985 35.1883 125.312 34.0698 126.478 31.0656L132.11 16.5115C132.141 16.4383 132.131 16.3556 132.085 16.2906C132.043 16.2262 131.97 16.1873 131.892 16.1873H128.512C128.409 16.1873 128.319 16.2517 128.286 16.3468L124.823 26.2357L121.031 16.3403C120.996 16.2482 120.908 16.1873 120.811 16.1873L115.264 16.1865ZM108.046 16.1723H104.799C104.669 16.1723 104.561 16.2791 104.561 16.4102V30.5741C104.561 30.707 104.669 30.8123 104.799 30.8123H108.046C108.177 30.8123 108.285 30.707 108.285 30.5741V16.4112C108.285 16.2801 108.179 16.1733 108.046 16.1733V16.1723ZM106.441 9.72266C105.155 9.72266 104.112 10.7639 104.112 12.0501C104.112 13.337 105.155 14.3795 106.441 14.3795C107.728 14.3795 108.769 13.337 108.769 12.0501C108.769 10.7641 107.725 9.72266 106.441 9.72266ZM134.884 20.7265C133.6 20.7265 132.599 19.6946 132.599 18.4415C132.599 17.1884 133.613 16.1447 134.897 16.1447C136.181 16.1447 137.181 17.1763 137.181 18.4284C137.181 19.6816 136.168 20.7265 134.884 20.7265ZM134.897 16.3719C133.725 16.3719 132.84 17.3022 132.84 18.4415C132.84 19.5802 133.72 20.4981 134.884 20.4981C136.055 20.4981 136.94 19.5685 136.94 18.4284C136.94 17.2897 136.06 16.3719 134.897 16.3719ZM135.403 18.6634L136.05 19.5682H135.503L134.922 18.7381H134.423V19.5682H133.966V17.1698H135.034C135.594 17.1698 135.96 17.455 135.96 17.9349C135.962 18.3281 135.734 18.5684 135.406 18.6634H135.403ZM135.017 17.5813H134.423V18.3399H135.017C135.313 18.3399 135.491 18.1947 135.491 17.9603C135.491 17.7135 135.313 17.5813 135.017 17.5813Z" fill="#1A1A1C" fill-opacity="0.4"/>
</svg>
