<svg width="37" height="53" viewBox="0 0 37 53" fill="none" xmlns="http://www.w3.org/2000/svg">
<g id="Vector">
<path d="M31.6112 21.6126L36.5 26.5014L31.6112 31.3902L26.7224 26.5014L31.6112 21.6126Z" fill="#FCFCFC"/>
<path d="M15.7646 47.2408L10.8758 52.1296L5.98694 47.2408L10.8758 42.352L15.7646 47.2408Z" fill="#FCFCFC"/>
<path d="M24.6974 14.6987L29.5862 19.5875L24.6974 24.4764L19.8086 19.5875L24.6974 14.6987Z" fill="#FCFCFC"/>
<path d="M22.6784 40.327L17.7896 45.2158L12.9008 40.327L17.7896 35.4382L22.6784 40.327Z" fill="#FCFCFC"/>
<path d="M17.7835 7.78491L22.6724 12.6737L17.7835 17.5625L12.8947 12.6737L17.7835 7.78491Z" fill="#FCFCFC"/>
<path d="M29.5922 33.4132L24.7034 38.302L19.8146 33.4132L24.7034 28.5243L29.5922 33.4132Z" fill="#FCFCFC"/>
<path d="M10.8697 0.871094L15.7585 5.7599L10.8697 10.6487L5.98092 5.7599L10.8697 0.871094Z" fill="#FCFCFC"/>
<path d="M22.6784 26.4993L17.7896 31.3881L12.9008 26.4993L17.7896 21.6105L22.6784 26.4993Z" fill="#FCFCFC"/>
<path d="M10.2776 26.4993L5.38881 31.3881L0.5 26.4993L5.38881 21.6105L10.2776 26.4993Z" fill="#FCFCFC"/>
</g>
</svg>
