<svg width="43" height="52" viewBox="0 0 43 52" fill="none" xmlns="http://www.w3.org/2000/svg">
<g id="Group 2">
<path id="Vector" d="M40.0169 6.96686C35.2667 0.0812428 25.81 -1.9362 19.0116 2.40568L7.02725 10.1246C3.75879 12.1859 1.49266 15.5629 0.838969 19.3785C0.272436 22.5801 0.75181 25.8694 2.27709 28.7201C1.23118 30.299 0.533913 32.0533 0.228857 33.8953C-0.468414 37.7986 0.446754 41.8335 2.71289 45.0351C7.50662 51.9207 16.9198 53.9381 23.7182 49.5963L35.7025 41.9212C38.971 39.8599 41.2371 36.4829 41.8908 32.6673C42.4573 29.4657 41.978 26.1764 40.4527 23.3257C41.4986 21.7468 42.1959 19.9925 42.5009 18.1505C43.2418 14.2033 42.3266 10.1684 40.0169 6.96686Z" fill="#FF3E00"/>
<path id="Vector_2" d="M17.8337 45.6924C13.9552 46.7011 9.90229 45.1661 7.63616 41.8768C6.24161 39.947 5.71866 37.5349 6.11088 35.1666C6.19804 34.7719 6.28519 34.421 6.37235 34.0263L6.59025 33.3246L7.20036 33.7631C8.63848 34.8157 10.2073 35.6052 11.9069 36.1314L12.3427 36.263L12.2992 36.7016C12.2556 37.3156 12.4299 37.9735 12.7785 38.4997C13.4758 39.5085 14.696 39.9909 15.8727 39.6839C16.1341 39.5962 16.3956 39.5085 16.6135 39.3769L28.5543 31.7019C29.1644 31.3071 29.5566 30.737 29.6874 30.0353C29.8181 29.3336 29.6438 28.588 29.2516 28.0178C28.5543 27.0091 27.3341 26.5705 26.1574 26.8775C25.8959 26.9653 25.6345 27.053 25.4166 27.1845L20.8407 30.123C20.0999 30.6054 19.2719 30.9563 18.4003 31.1756C14.5217 32.1843 10.4688 30.6493 8.20269 27.36C6.85173 25.4302 6.28519 23.0181 6.72099 20.6498C7.1132 18.3692 8.50775 16.3079 10.4688 15.0799L22.4532 7.40485C23.194 6.92242 24.022 6.57156 24.8936 6.30842C28.7722 5.2997 32.8251 6.83471 35.0912 10.124C36.4857 12.0537 37.0087 14.4659 36.6165 16.8342C36.5293 17.2289 36.4422 17.5798 36.3114 17.9745L36.0935 18.6762L35.4834 18.2376C34.0453 17.1851 32.4764 16.3956 30.7768 15.8693L30.341 15.7378L30.3846 15.2992C30.4282 14.6852 30.2539 14.0273 29.9052 13.501C29.208 12.4923 27.9878 12.0537 26.8111 12.3607C26.5496 12.4485 26.2882 12.5362 26.0703 12.6677L14.1295 20.3428C13.5194 20.7375 13.1272 21.3076 12.9964 22.0094C12.8657 22.7111 13.04 23.4567 13.4322 24.0268C14.1295 25.0355 15.3497 25.4741 16.5264 25.1671C16.7878 25.0794 17.0493 24.9917 17.2672 24.8601L21.8431 21.9217C22.5839 21.4392 23.4119 21.0884 24.2835 20.8252C28.1621 19.8165 32.215 21.3515 34.4811 24.6408C35.8756 26.5705 36.3986 28.9827 36.0064 31.351C35.6142 33.6316 34.2196 35.6929 32.2585 36.9209L20.2742 44.5959C19.5333 45.0784 18.7053 45.4292 17.8337 45.6924Z" fill="white"/>
</g>
</svg>
