<svg width="56" height="57" viewBox="0 0 56 57" fill="none" xmlns="http://www.w3.org/2000/svg">
<g id="Brand logo / tiktok">
<path id="Icon" d="M7.85938 40.3242V40.3288L8.00075 40.7119C7.98451 40.6673 7.93197 40.5317 7.85938 40.3242Z" fill="#69C9D0"/>
<path id="Icon_2" d="M14.7858 35.138C15.0592 32.8737 15.9879 31.6059 17.7379 30.3063C20.2419 28.5461 23.3698 29.5418 23.3698 29.5418V23.6352C24.1302 23.6158 24.8909 23.6609 25.6431 23.7699V31.3711C25.6431 31.3711 22.5162 30.3754 20.0122 32.1365C18.2631 33.4352 17.3325 34.7039 17.06 36.9682C17.0514 38.1977 17.2822 39.805 18.3447 41.1947C18.082 41.06 17.8142 40.9065 17.5414 40.7342C15.2007 39.1624 14.7744 36.8044 14.7858 35.138ZM38.5581 12.7141C36.8356 10.8265 36.1842 8.92079 35.9487 7.58203H38.1156C38.1156 7.58203 37.6836 11.0923 40.8323 14.5443L40.876 14.5907C40.0273 14.0569 39.2491 13.4268 38.5581 12.7141ZM48.9967 18.0655V25.5137C48.9967 25.5137 46.2315 25.4054 44.1852 24.8848C41.328 24.1567 39.4915 23.04 39.4915 23.04C39.4915 23.04 38.2229 22.2437 38.1204 22.1882V37.5688C38.1204 38.4253 37.8858 40.564 37.1708 42.3478C36.2374 44.6813 34.7969 46.213 34.5319 46.526C34.5319 46.526 32.78 48.5965 29.6892 49.9908C26.9031 51.2485 24.4571 51.2167 23.7259 51.2485C23.7259 51.2485 19.4975 51.416 15.6926 48.9433C14.8698 48.3982 14.1018 47.781 13.3984 47.0994L13.4174 47.113C17.2233 49.5858 21.4507 49.4183 21.4507 49.4183C22.1829 49.3865 24.6289 49.4183 27.414 48.1606C30.502 46.7663 32.2568 44.6958 32.2568 44.6958C32.5189 44.3828 33.966 42.8511 34.8956 40.5167C35.6088 38.7338 35.8452 36.5941 35.8452 35.7377V20.3589C35.9478 20.4153 37.2154 21.2117 37.2154 21.2117C37.2154 21.2117 39.0528 22.3293 41.9101 23.0564C43.9573 23.577 46.7215 23.6853 46.7215 23.6853V17.8488C47.6673 18.0609 48.4735 18.1182 48.9967 18.0655Z" fill="#EE1D52"/>
<path id="Icon_3" d="M46.7226 17.8488V23.6835C46.7226 23.6835 43.9584 23.5752 41.9112 23.0546C39.0539 22.3265 37.2165 21.2098 37.2165 21.2098C37.2165 21.2098 35.9488 20.4135 35.8463 20.3571V35.7396C35.8463 36.596 35.6117 38.7356 34.8967 40.5185C33.9633 42.8529 32.5228 44.3846 32.2579 44.6976C32.2579 44.6976 30.505 46.7681 27.4151 48.1624C24.63 49.4201 22.1839 49.3883 21.4518 49.4201C21.4518 49.4201 17.2244 49.5876 13.4185 47.1149L13.3995 47.1012C12.9977 46.7121 12.6195 46.3013 12.2667 45.8708C11.0522 44.39 10.3077 42.639 10.1207 42.1394C10.1203 42.1372 10.1203 42.1351 10.1207 42.133C9.81966 41.2648 9.18725 39.1797 9.27366 37.1602C9.42654 33.5972 10.68 31.4102 11.0114 30.8623C11.889 29.3683 13.0306 28.0315 14.3852 26.9116C15.5805 25.9452 16.9354 25.1763 18.3942 24.6364C19.9713 24.0024 21.66 23.6627 23.3699 23.6352V29.5418C23.3699 29.5418 20.2421 28.5498 17.739 30.3063C15.989 31.6059 15.0603 32.8737 14.7868 35.138C14.7754 36.8044 15.2018 39.1624 17.5406 40.7351C17.8134 40.908 18.0812 41.0615 18.3439 41.1956C18.7525 41.7267 19.2498 42.1895 19.8157 42.5653C22.1004 44.0114 24.0147 44.1125 26.4627 43.1732C28.095 42.5453 29.3237 41.1301 29.8935 39.562C30.2514 38.5827 30.2467 37.5971 30.2467 36.5777V7.58203H35.9441C36.1796 8.92079 36.831 10.8265 38.5535 12.7141C39.2445 13.4268 40.0227 14.0569 40.8714 14.5907C41.1221 14.8501 42.404 16.1324 44.0496 16.9196C44.9005 17.3266 45.7974 17.6383 46.7226 17.8488Z" fill="#1A1A1C"/>
<path id="Icon_4" d="M18.3974 24.6351C16.9386 25.175 15.5837 25.944 14.3884 26.9104C13.0333 28.0329 11.8921 29.3724 11.0155 30.8693C10.6841 31.4154 9.43069 33.6042 9.27781 37.1672C9.1914 39.1867 9.82381 41.2717 10.1248 42.14C10.1245 42.1421 10.1245 42.1442 10.1248 42.1463C10.3147 42.6414 11.0563 44.3925 12.2708 45.8777C12.6236 46.3083 13.0019 46.7191 13.4037 47.1082C12.1162 46.2548 10.9681 45.223 9.99663 44.0466C8.79258 42.5786 8.05002 40.8458 7.85631 40.3343C7.85608 40.3307 7.85608 40.327 7.85631 40.3234V40.317C7.55435 39.4497 6.92004 37.3638 7.00835 35.3415C7.16123 31.7785 8.41466 29.5915 8.74605 29.0437C9.62238 27.5466 10.7637 26.207 12.1189 25.0847C13.314 24.118 14.6689 23.349 16.128 22.8095C17.038 22.4476 17.9861 22.1806 18.9558 22.0131C20.4171 21.7687 21.9096 21.7475 23.3779 21.9503V23.634C21.6664 23.6609 19.976 24.0007 18.3974 24.6351Z" fill="#69C9D0"/>
<path id="Icon_5" d="M35.9555 7.58112H30.2582V36.5777C30.2582 37.5971 30.2582 38.58 29.9049 39.562C29.3295 41.1291 28.1055 42.5443 26.4741 43.1723C24.0252 44.1152 22.1109 44.0105 19.8272 42.5644C19.2603 42.1903 18.7617 41.729 18.3516 41.1992C20.2972 42.194 22.0387 42.1767 24.1961 41.3467C25.8265 40.7187 27.0524 39.3035 27.626 37.7354C27.9849 36.7561 27.9801 35.7705 27.9801 34.7521V5.75H35.8473C35.8473 5.75 35.759 6.4708 35.9555 7.58112ZM46.7293 16.2343V17.8479C45.8057 17.6371 44.9104 17.3253 44.061 16.9187C42.4154 16.1315 41.1335 14.8492 40.8828 14.5898C41.1737 14.7728 41.4756 14.9394 41.7868 15.0885C43.7875 16.0459 45.7579 16.3317 46.7293 16.2343Z" fill="#69C9D0"/>
</g>
</svg>
