<svg width="25" height="25" viewBox="0 0 25 25" fill="none" xmlns="http://www.w3.org/2000/svg">
<g id="remix-icons/line/system/timer-line" clip-path="url(#clip0_1216_22187)">
<g id="Group">
<path id="Vector" d="M18.1176 6.468L19.5706 5.015L20.9846 6.429L19.5316 7.882C20.9673 9.67917 21.6605 11.9579 21.4687 14.2501C21.2768 16.5424 20.2146 18.6742 18.5001 20.2077C16.7856 21.7412 14.5489 22.5601 12.2496 22.4961C9.95018 22.4321 7.76258 21.4901 6.13604 19.8635C4.50951 18.237 3.5675 16.0494 3.50349 13.75C3.43948 11.4506 4.25832 9.21402 5.79185 7.49951C7.32538 5.785 9.45718 4.72275 11.7494 4.53092C14.0417 4.33909 16.3204 5.03223 18.1176 6.468ZM12.4996 20.5C13.4188 20.5 14.3291 20.3189 15.1784 19.9672C16.0276 19.6154 16.7993 19.0998 17.4493 18.4497C18.0993 17.7997 18.6149 17.0281 18.9667 16.1788C19.3185 15.3295 19.4996 14.4193 19.4996 13.5C19.4996 12.5807 19.3185 11.6705 18.9667 10.8212C18.6149 9.97194 18.0993 9.20026 17.4493 8.55025C16.7993 7.90024 16.0276 7.38463 15.1784 7.03284C14.3291 6.68106 13.4188 6.5 12.4996 6.5C10.6431 6.5 8.86258 7.2375 7.54982 8.55025C6.23707 9.86301 5.49957 11.6435 5.49957 13.5C5.49957 15.3565 6.23707 17.137 7.54982 18.4497C8.86258 19.7625 10.6431 20.5 12.4996 20.5ZM11.4996 8.5H13.4996V14.5H11.4996V8.5ZM8.49957 1.5H16.4996V3.5H8.49957V1.5Z" fill="black"/>
</g>
</g>
<defs>
<clipPath id="clip0_1216_22187">
<rect width="24" height="24" fill="white" transform="translate(0.5 0.5)"/>
</clipPath>
</defs>
</svg>
