<svg width="82" height="40" viewBox="0 0 82 40" fill="none" xmlns="http://www.w3.org/2000/svg">
<g id="trustpilot-logo">
<path id="Shape" d="M21.7734 8.01172H30.0323V9.5999H26.8558V18.1761H24.9499V9.5999H21.7734V8.01172ZM29.5559 10.7116H31.1441V12.141C31.1441 11.9822 31.3029 11.8234 31.4618 11.5057C31.6206 11.1881 31.7794 11.1881 31.9382 11.0293C32.0971 10.8704 32.4147 10.7116 32.5735 10.7116C32.7324 10.5528 33.05 10.5528 33.3677 10.5528C33.5265 10.5528 33.6853 10.5528 33.6853 10.5528H33.8442V12.141C33.6853 12.141 33.6853 12.141 33.5265 12.141C33.3677 12.141 33.3677 12.141 33.2089 12.141C32.8912 12.141 32.7324 12.141 32.4147 12.2998C32.0971 12.4586 31.9382 12.6174 31.7794 12.7763C31.6206 12.9351 31.4618 13.2527 31.3029 13.5704C31.1441 13.888 31.1441 14.2056 31.1441 14.6821V18.1761H29.5559V10.7116ZM41.3089 18.1761H39.7207V17.2232C39.5619 17.5408 39.2442 17.8585 38.7677 18.1761C38.4501 18.3349 37.9736 18.4937 37.4971 18.4937C36.5442 18.4937 35.9089 18.3349 35.4324 17.6996C34.9559 17.0644 34.7971 16.4291 34.7971 15.4762V10.8704H36.3854V15.3174C36.3854 15.9526 36.5442 16.4291 36.703 16.7467C37.0207 17.0644 37.3383 17.2232 37.8148 17.2232C38.1324 17.2232 38.4501 17.2232 38.6089 17.0644C38.7677 16.9055 39.0854 16.7467 39.0854 16.5879C39.2442 16.4291 39.403 16.2703 39.403 15.9526C39.403 15.635 39.5619 15.4762 39.5619 15.1585V10.8704H41.1501V18.1761H41.3089ZM44.009 15.7938C44.009 16.2703 44.1678 16.5879 44.4854 16.7467C44.8031 16.9055 45.1207 17.0644 45.5972 17.0644C45.756 17.0644 45.9149 17.0644 46.0737 17.0644C46.2325 17.0644 46.3913 17.0644 46.5502 16.9055C46.709 16.9055 46.8678 16.7467 47.0266 16.5879C47.1855 16.4291 47.1855 16.2703 47.1855 16.1115C47.1855 15.9526 47.0266 15.7938 47.0266 15.635C46.8678 15.4762 46.709 15.4762 46.5502 15.3174C46.3913 15.3174 46.0737 15.1585 45.756 15.1585C45.4384 15.1585 45.1207 14.9997 44.9619 14.9997C44.6443 14.9997 44.3266 14.8409 44.1678 14.6821C44.009 14.5233 43.6913 14.5233 43.3737 14.3644C43.2148 14.2056 42.8972 14.0468 42.8972 13.7292C42.7384 13.4115 42.7384 13.0939 42.7384 12.7763C42.7384 12.2998 42.8972 11.9822 43.056 11.8234C43.2148 11.6645 43.5325 11.3469 43.8501 11.1881C44.1678 11.0293 44.4854 10.8704 44.8031 10.8704C45.1207 10.8704 45.5972 10.7116 45.9149 10.7116C46.2325 10.7116 46.709 10.7116 47.0266 10.8704C47.3443 10.8704 47.6619 11.0293 47.9796 11.1881C48.2972 11.3469 48.4561 11.6645 48.6149 11.8234C48.7737 12.141 48.9325 12.4586 48.9325 12.9351H47.1855C47.1855 12.6174 46.8678 12.2998 46.709 12.141C46.2325 11.9822 45.9149 11.8234 45.5972 11.8234C45.4384 11.8234 45.2796 11.8234 45.1207 11.8234C44.9619 11.8234 44.8031 11.8234 44.6443 11.9822C44.4854 11.9822 44.3266 12.141 44.3266 12.141C44.1678 12.2998 44.1678 12.2998 44.1678 12.4586C44.1678 12.6174 44.1678 12.7763 44.3266 12.9351C44.4854 13.0939 44.6443 13.0939 44.8031 13.2527C44.9619 13.2527 45.2796 13.4115 45.5972 13.4115C45.9149 13.4115 46.2325 13.5704 46.5502 13.5704C46.8678 13.5704 47.1855 13.7292 47.3443 13.888C47.6619 14.0468 47.8208 14.0468 48.1384 14.2056C48.4561 14.3644 48.6149 14.5233 48.6149 14.8409C48.7737 15.1585 48.7737 15.3174 48.7737 15.7938C48.7737 16.2703 48.6149 16.5879 48.4561 16.9055C48.2972 17.2232 47.9796 17.382 47.6619 17.6996C47.5031 18.0173 47.1855 18.1761 46.8678 18.1761C46.5502 18.1761 46.0737 18.3349 45.756 18.3349C45.2796 18.3349 44.8031 18.3349 44.4854 18.1761C44.1678 18.0173 43.6913 17.8585 43.5325 17.6996C43.2148 17.5408 43.056 17.2232 42.8972 16.9055C42.5795 16.5879 42.4207 16.2703 42.4207 15.7938H44.009ZM49.409 10.7116H50.6796V8.64699H52.2679V10.8704H53.6973V12.141H52.2679V16.1115C52.2679 16.2703 52.2679 16.4291 52.2679 16.5879C52.2679 16.7467 52.2679 16.7467 52.4267 16.9055C52.5855 17.0644 52.5855 17.0644 52.5855 17.0644C52.7444 17.0644 52.9032 17.0644 53.062 17.0644C53.2208 17.0644 53.2208 17.0644 53.3797 17.0644C53.5385 17.0644 53.5385 17.0644 53.6973 17.0644V18.1761C53.5385 18.1761 53.3796 18.1761 53.2208 18.1761C53.062 18.1761 52.9032 18.1761 52.7443 18.1761C52.2679 18.1761 51.9502 18.1761 51.7914 18.0173C51.4737 18.0173 51.3149 17.8585 51.1561 17.6996C50.9973 17.5408 50.8384 17.382 50.8384 17.0644C50.8384 16.9055 50.6796 16.5879 50.6796 16.2703V11.9822H49.409V10.7116ZM54.8091 10.7116H56.3973V11.8234C56.5562 11.3469 56.8738 11.0293 57.3503 10.8704C57.8268 10.7116 58.1444 10.5528 58.6209 10.5528C59.2562 10.5528 59.7327 10.7116 60.2091 10.8704C60.6856 11.0293 61.0033 11.3469 61.3209 11.6645C61.6386 11.9822 61.7974 12.4586 61.9562 12.9351C62.115 13.4115 62.115 13.888 62.115 14.5233C62.115 14.9997 62.115 15.4762 61.9562 15.9526C61.7974 16.4291 61.6386 16.7467 61.3209 17.2232C61.0033 17.5408 60.6856 17.8584 60.368 18.0173C59.8915 18.1761 59.5738 18.3349 58.9385 18.3349C58.7797 18.3349 58.4621 18.3349 58.3032 18.3349C58.1444 18.3349 57.8268 18.1761 57.6679 18.1761C57.5091 18.0173 57.1915 18.0173 57.0326 17.8584C56.8738 17.6996 56.715 17.5408 56.5562 17.382V21.0348H54.9679V10.7116H54.8091ZM60.5268 14.5233C60.5268 14.2056 60.5268 13.888 60.368 13.5704C60.2091 13.2527 60.2091 12.9351 60.0503 12.7763C59.8915 12.6174 59.7327 12.2998 59.415 12.141C59.0974 11.9822 58.9385 11.9822 58.4621 11.9822C57.8268 11.9822 57.1915 12.141 56.8738 12.6174C56.5561 13.0939 56.3973 13.7292 56.3973 14.5233C56.3973 14.8409 56.3973 15.3174 56.5562 15.4762C56.715 15.7938 56.715 16.1114 57.0326 16.2703C57.1915 16.4291 57.3503 16.7467 57.6679 16.7467C57.9856 16.9055 58.1444 16.9055 58.4621 16.9055C58.7797 16.9055 59.0974 16.9055 59.415 16.7467C59.7327 16.5879 59.8915 16.4291 60.0503 16.1115C60.2091 15.7938 60.368 15.635 60.368 15.3174C60.368 15.1585 60.5268 14.8409 60.5268 14.5233ZM63.3856 8.01172H64.9739V9.5999H63.3856V8.01172ZM63.3856 10.7116H64.9739V18.1761H63.3856V10.7116ZM66.4033 8.01172H67.9916V18.1761H66.4033V8.01172ZM72.9151 18.3349C72.2798 18.3349 71.8034 18.1761 71.3269 18.0173C70.8504 17.8584 70.5328 17.5408 70.2151 17.2232C69.8975 16.9055 69.5798 16.4291 69.421 15.9526C69.2622 15.4762 69.1033 14.9997 69.1033 14.3644C69.1033 13.7292 69.2622 13.2527 69.421 12.7763C69.5798 12.2998 69.8975 11.8234 70.2151 11.5057C70.5328 11.1881 70.8504 10.8704 71.3269 10.7116C71.8034 10.5528 72.2798 10.394 72.9151 10.394C73.5504 10.394 74.0269 10.5528 74.5034 10.7116C74.9799 10.8704 75.2975 11.1881 75.6152 11.5057C75.9328 11.8234 76.2505 12.2998 76.4093 12.7763C76.5681 13.2527 76.7269 13.7292 76.7269 14.3644C76.7269 14.9997 76.5681 15.4762 76.4093 15.9526C76.2505 16.4291 75.9328 16.9055 75.6152 17.2232C75.2975 17.5408 74.9799 17.8584 74.5034 18.0173C74.0269 18.1761 73.5504 18.3349 72.9151 18.3349ZM72.9151 17.0644C73.2328 17.0644 73.5504 17.0644 73.8681 16.9055C74.1857 16.7467 74.3446 16.5879 74.5034 16.2703C74.6622 15.9526 74.8211 15.7938 74.8211 15.4762C74.8211 15.1585 74.9799 14.8409 74.9799 14.5233C74.9799 14.2056 74.9799 13.888 74.8211 13.5704C74.8211 13.2527 74.6622 12.9351 74.5034 12.7763C74.3446 12.6174 74.1857 12.2998 73.8681 12.141C73.5504 11.9822 73.2328 11.9822 72.9151 11.9822C72.5975 11.9822 72.2798 11.9822 71.9622 12.141C71.6445 12.2998 71.4857 12.4586 71.3269 12.7763C71.1681 13.0939 71.0092 13.2527 71.0092 13.5704C71.0092 13.888 70.8504 14.2056 70.8504 14.5233C70.8504 14.8409 70.8504 15.1585 71.0092 15.4762C71.0092 15.7938 71.1681 16.1114 71.3269 16.2703C71.4857 16.5879 71.6445 16.7467 71.9622 16.9055C72.2798 16.9055 72.5975 17.0644 72.9151 17.0644ZM77.2034 10.7116H78.474V8.64699H80.0623V10.8704H81.4917V12.141H80.0623V16.1115C80.0623 16.2703 80.0623 16.4291 80.0623 16.5879C80.0623 16.7467 80.0623 16.7467 80.2211 16.9055C80.3799 17.0644 80.3799 17.0644 80.3799 17.0644C80.5388 17.0644 80.6976 17.0644 80.8564 17.0644C81.0152 17.0644 81.0152 17.0644 81.1741 17.0644C81.3329 17.0644 81.3329 17.0644 81.4917 17.0644V18.1761C81.3329 18.1761 81.1741 18.1761 81.0152 18.1761C80.8564 18.1761 80.6976 18.1761 80.5388 18.1761C80.0623 18.1761 79.7446 18.1761 79.5858 18.0173C79.2682 18.0173 79.1093 17.8585 78.9505 17.6996C78.7917 17.5408 78.6329 17.382 78.6329 17.0644C78.6329 16.9055 78.474 16.5879 78.474 16.2703V11.9822H77.2034V10.7116Z" fill="white"/>
<g id="Star">
<path id="Path" d="M19.8767 8.0101H12.4119L10.1883 0.863281L7.80596 8.0101H0.5L6.37653 12.2982L4.15298 19.445L10.1883 14.9981L16.0649 19.445L13.8413 12.2982L19.8767 8.0101Z" fill="#00B67A"/>
<path id="Path_00000139974370896774244940000013599419466242447510_" d="M14.317 13.887L13.8405 12.2988L10.1875 14.9987L14.317 13.887Z" fill="#005128"/>
</g>
<path id="Rectangle" d="M15.7472 23.8926H0.5V39.1391H15.7472V23.8926Z" fill="#00B67A"/>
<path id="Rectangle_00000119823381696065812290000006309620969489227403_" d="M32.091 23.8926H16.8438V39.1391H32.091V23.8926Z" fill="#00B67A"/>
<path id="Rectangle_00000111193577153650357570000000971353195221845171_" d="M48.6378 23.8926H33.3906V39.1391H48.6378V23.8926Z" fill="#00B67A"/>
<path id="Rectangle_00000008833768892528033700000000322006702697863864_" d="M64.9816 23.8926H49.7344V39.1391H64.9816V23.8926Z" fill="#00B67A"/>
<path id="Rectangle_00000134962926880305233990000003318531366453452990_" d="M81.4972 23.8926H66.25V39.1391H81.4972V23.8926Z" fill="#DCDCE6"/>
<path id="Rectangle_00000044876543712720924350000008132246518786235026_" d="M66.25 23.8926H73.8736V38.9803H66.25V23.8926Z" fill="#00B67A"/>
<path id="Shape_00000004503963772281965500000004689748023012954798_" d="M7.95998 34.0549L10.3424 33.4196L11.2953 36.4372L7.95998 34.0549ZM13.36 30.2433H9.23058L7.95998 26.4316L6.68938 30.2433H2.71875L6.05408 32.6255L4.78348 36.4372L8.11881 34.0549L10.1835 32.6255L13.36 30.2433Z" fill="white"/>
<path id="Shape_00000062892359206520126170000006215398374882685355_" d="M24.4808 34.0549L26.8631 33.4196L27.8161 36.4372L24.4808 34.0549ZM29.722 30.2433H25.5925L24.3219 26.4316L23.0513 30.2433H18.9219L22.2572 32.6255L20.9866 36.4372L24.3219 34.0549L26.3867 32.6255L29.722 30.2433Z" fill="white"/>
<path id="Shape_00000041986034659674372480000017210300048664811149_" d="M40.9964 34.0549L43.3788 33.4196L44.3317 36.4372L40.9964 34.0549ZM46.2376 30.2433H42.1082L40.8376 26.4316L39.567 30.2433H35.4375L38.7728 32.6255L37.6611 36.4372L40.9964 34.0549L43.0611 32.6255L46.2376 30.2433Z" fill="white"/>
<path id="Shape_00000155124147350657945740000004241176506388462744_" d="M57.3532 34.0549L59.7356 33.4196L60.6885 36.4372L57.3532 34.0549ZM62.7532 30.2433H58.6238L57.3532 26.4316L56.0826 30.2433H51.9531L55.2885 32.6255L54.0179 36.4372L57.3532 34.0549L59.4179 32.6255L62.7532 30.2433Z" fill="white"/>
<path id="Shape_00000131362776327819300620000011855054010791946398_" d="M73.8688 34.0549L76.2512 33.4196L77.2041 36.4372L73.8688 34.0549ZM79.11 30.2433H74.9806L73.71 26.4316L72.5982 30.2433H68.4688L71.8041 32.6255L70.5335 36.4372L73.8688 34.0549L75.9335 32.6255L79.11 30.2433Z" fill="white"/>
</g>
</svg>
