<svg width="21" height="21" viewBox="0 0 21 21" fill="none" xmlns="http://www.w3.org/2000/svg">
<g id="remix-icons/line/user/user-line">
<g clip-path="url(#clip0_535_37100)">
<rect x="0.328125" y="0.75" width="20" height="20" rx="10" fill="#1A1A1C"/>
<g id="Group">
<path id="Vector" d="M0.328125 0.75H20.3281V20.75H0.328125V0.75Z" fill="#83E7EE"/>
<path id="Vector_2" d="M6.32812 15.25C6.32812 14.2397 6.74955 13.2707 7.4997 12.5563C8.24984 11.8418 9.26726 11.4405 10.3281 11.4405C11.389 11.4405 12.4064 11.8418 13.1566 12.5563C13.9067 13.2707 14.3281 14.2397 14.3281 15.25H13.3281C13.3281 14.4922 13.0121 13.7655 12.4494 13.2297C11.8868 12.6939 11.1238 12.3929 10.3281 12.3929C9.53248 12.3929 8.76941 12.6939 8.2068 13.2297C7.6442 13.7655 7.32812 14.4922 7.32812 15.25H6.32812ZM10.3281 10.9643C8.67062 10.9643 7.32812 9.68571 7.32812 8.10714C7.32812 6.52857 8.67062 5.25 10.3281 5.25C11.9856 5.25 13.3281 6.52857 13.3281 8.10714C13.3281 9.68571 11.9856 10.9643 10.3281 10.9643ZM10.3281 10.0119C11.4331 10.0119 12.3281 9.15952 12.3281 8.10714C12.3281 7.05476 11.4331 6.20238 10.3281 6.20238C9.22312 6.20238 8.32812 7.05476 8.32812 8.10714C8.32812 9.15952 9.22312 10.0119 10.3281 10.0119Z" fill="#1A1A1C"/>
</g>
</g>
</g>
<defs>
<clipPath id="clip0_535_37100">
<rect x="0.328125" y="0.75" width="20" height="20" rx="10" fill="white"/>
</clipPath>
</defs>
</svg>
