<svg width="44" height="42" viewBox="0 0 44 42" fill="none" xmlns="http://www.w3.org/2000/svg">
<path d="M32.2555 0.000134828C35.9469 0.000134828 39.6389 -0.000404495 43.3304 0.000674175C43.3326 0.833407 43.3261 1.66668 43.3342 2.49995C42.3962 2.54094 41.4373 2.64611 40.5736 3.03929C39.6976 3.43354 38.9632 4.15086 38.5852 5.03914C34.0963 15.609 29.6107 26.18 25.1267 36.752C25.0491 36.9257 24.9867 37.1053 24.8962 37.273C23.2906 37.2542 21.6845 37.2703 20.0789 37.2644C19.3703 35.854 18.673 34.4377 17.9586 33.0306C17.1396 35.229 16.3158 37.4251 15.4969 39.6229C20.7934 39.6235 26.0899 39.6229 31.3864 39.6235C32.3561 39.6364 33.3549 39.5959 34.2622 39.2163C35.7698 38.6095 36.9699 37.437 37.9466 36.1658C39.1258 34.6254 40.0207 32.8915 40.8181 31.1295C41.7124 31.1219 42.6062 31.1322 43.5 31.1305C41.805 34.757 40.1014 38.3803 38.3914 41.9998C26.1863 42.0003 13.9817 41.9998 1.77661 41.9998C2.07383 41.2226 2.3565 40.4389 2.67525 39.6698C2.69464 39.5905 2.79317 39.6105 2.85293 39.603C4.37669 39.5916 5.91067 39.5323 7.40589 39.2146C8.18392 39.0318 8.98887 38.788 9.5876 38.2314C9.9042 37.9289 10.0027 37.4871 10.1077 37.0794C11.5491 33.2156 12.9926 29.3524 14.4351 25.4891C11.3865 18.9826 8.32768 12.4798 5.27748 5.97381C5.03195 5.40481 4.70782 4.8412 4.19793 4.47068C3.14261 3.67894 1.77123 3.57862 0.500538 3.52792C0.499462 2.59541 0.500538 1.66344 0.5 0.730934C4.78535 0.729316 9.07017 0.729855 13.3555 0.730394C13.3561 1.6629 13.3566 2.59541 13.355 3.52792C12.7966 3.56352 12.2038 3.55435 11.6982 3.83103C11.4473 3.94968 11.2998 4.24848 11.3644 4.5203C11.4436 4.96525 11.7946 5.28292 11.9723 5.68472C13.782 9.58897 15.5916 13.4938 17.4067 17.3964C18.3161 14.8491 19.2255 12.3024 20.1387 9.7567C20.2727 9.4029 20.3201 8.99408 20.1672 8.63812C20.0471 8.35713 19.7747 8.18346 19.506 8.06643C18.9837 7.85069 18.4098 7.85285 17.8563 7.81294C18.1389 7.02605 18.4232 6.23916 18.7161 5.45659C18.784 5.4129 18.8782 5.44634 18.9563 5.43555C23.3041 5.43825 27.6524 5.43555 32.0008 5.43717C31.7003 6.22783 31.4015 7.0185 31.1043 7.81024C30.0571 7.85878 28.9775 7.88521 27.9954 8.29511C27.5453 8.48387 27.1194 8.77242 26.8534 9.18986C26.6687 9.49567 26.554 9.83706 26.4302 10.1704C24.6135 15.1333 22.7802 20.0898 20.984 25.0603C21.979 27.3131 23.016 29.5465 24.031 31.7902C27.7165 23.0723 31.401 14.3535 35.0908 5.63726C35.3396 5.11303 35.7445 4.63464 35.7762 4.03166C35.8069 3.55974 35.4575 3.15255 35.0526 2.95893C34.1798 2.5555 33.1988 2.53555 32.2555 2.50157C32.2544 1.66776 32.2544 0.833947 32.2555 0.000134828Z" fill="#FCFCFC"/>
</svg>
