<svg width="26" height="26" viewBox="0 0 26 26" fill="none" xmlns="http://www.w3.org/2000/svg">
<g id="icon/weixin-favorites">
<rect x="0.453125" y="7.09961" width="20" height="20" rx="10" transform="rotate(-19 0.453125 7.09961)" fill="#F9EB57"/>
<path id="Vector (Stroke)" fill-rule="evenodd" clip-rule="evenodd" d="M10.9986 7.7549C11.1228 7.6392 11.2903 7.58154 11.4594 7.59623L17.3466 8.10741C17.5828 8.12792 17.7848 8.28562 17.862 8.50982L19.8154 14.1829C19.8926 14.4071 19.8305 14.6558 19.657 14.8173L15.3326 18.8447C15.2083 18.9604 15.0409 19.018 14.8717 19.0033L8.98458 18.4922C8.74836 18.4716 8.54637 18.3139 8.46918 18.0897L6.51577 12.4166C6.43857 12.1924 6.50065 11.9438 6.67417 11.7822L10.9986 7.7549ZM7.95097 12.8989L12.5299 13.2965L14.0558 17.728L9.47685 17.3304L7.95097 12.8989ZM15.1904 17.3373L18.5538 14.2049L17.028 9.77345L13.6645 12.9058L15.1904 17.3373ZM12.7565 12.1117L15.8978 9.18613L11.6213 8.8148L8.47992 11.7403L12.7565 12.1117Z" fill="#1A1A1C"/>
</g>
</svg>
