<svg width="24" height="25" viewBox="0 0 24 25" fill="none" xmlns="http://www.w3.org/2000/svg">
<path fill-rule="evenodd" clip-rule="evenodd" d="M17.668 19.5028C19.9724 19.5867 21.91 17.79 22 15.4858V9.51982C21.91 7.21569 19.9724 5.41893 17.668 5.50282H6.332C4.02763 5.41893 2.08998 7.21569 2 9.51982V15.4858C2.08998 17.79 4.02763 19.5867 6.332 19.5028H17.668Z" stroke="#FCFCFC" stroke-width="1.5" stroke-linecap="round" stroke-linejoin="round"/>
<path fill-rule="evenodd" clip-rule="evenodd" d="M11.508 9.67711L14.669 11.8251C14.8738 11.9447 14.9997 12.164 14.9997 12.4011C14.9997 12.6382 14.8738 12.8575 14.669 12.9771L11.508 15.3271C10.908 15.7341 10 15.3871 10 14.7511V10.2511C10 9.61811 10.909 9.27011 11.508 9.67711Z" stroke="#FCFCFC" stroke-width="1.5" stroke-linecap="round" stroke-linejoin="round"/>
</svg>
