<svg width="24" height="24" viewBox="0 0 24 24" fill="none" xmlns="http://www.w3.org/2000/svg">
<path fill-rule="evenodd" clip-rule="evenodd" d="M17.668 19.0028C19.9724 19.0867 21.91 17.29 22 14.9858V9.01982C21.91 6.71569 19.9724 4.91893 17.668 5.00282H6.332C4.02763 4.91893 2.08998 6.71569 2 9.01982V14.9858C2.08998 17.29 4.02763 19.0867 6.332 19.0028H17.668Z" stroke="#1A1A1C" stroke-width="1.5" stroke-linecap="round" stroke-linejoin="round"/>
<path fill-rule="evenodd" clip-rule="evenodd" d="M11.508 9.17711L14.669 11.3251C14.8738 11.4447 14.9997 11.664 14.9997 11.9011C14.9997 12.1382 14.8738 12.3575 14.669 12.4771L11.508 14.8271C10.908 15.2341 10 14.8871 10 14.2511V9.75111C10 9.11811 10.909 8.77011 11.508 9.17711Z" stroke="#1A1A1C" stroke-width="1.5" stroke-linecap="round" stroke-linejoin="round"/>
</svg>
