<svg width="255" height="179" viewBox="0 0 255 179" fill="none" xmlns="http://www.w3.org/2000/svg">
<rect width="255" height="178" transform="translate(0 0.5)" fill="#070B10"/>
<rect x="16" y="16.5" width="40" height="40" rx="8" fill="#F9EB57"/>
<path d="M41.5332 39.9668L41.5322 39.9678L36.002 45.5L30.4707 39.9707L30.4688 39.9678L32.5059 37.9365L36.002 41.4326L39.499 37.9355L41.5332 39.9668ZM38.0645 36.499H38.0654L38.0645 36.501L36.001 38.5645L33.9385 36.5029L33.9355 36.499L34.2998 36.1348L34.4756 35.96L36.001 34.4346L38.0645 36.499ZM31.0674 36.5L29.0342 38.5342L27 36.5L29.0342 34.4668L31.0674 36.5ZM45 36.501L42.9658 38.5342L40.9316 36.501L42.9658 34.4668L45 36.501ZM41.5322 33.0322L39.499 35.0664L36.002 31.5693L32.5059 35.0635L30.4707 33.0303L36.002 27.5L41.5322 33.0322Z" fill="#1A1A1C"/>
<path d="M41.5332 39.9668L41.5322 39.9678L36.002 45.5L30.4707 39.9707L30.4688 39.9678L32.5059 37.9365L36.002 41.4326L39.499 37.9355L41.5332 39.9668ZM38.0645 36.499H38.0654L38.0645 36.501L36.001 38.5645L33.9385 36.5029L33.9355 36.499L34.2998 36.1348L34.4756 35.96L36.001 34.4346L38.0645 36.499ZM31.0674 36.5L29.0342 38.5342L27 36.5L29.0342 34.4668L31.0674 36.5ZM45 36.501L42.9658 38.5342L40.9316 36.501L42.9658 34.4668L45 36.501ZM41.5322 33.0322L39.499 35.0664L36.002 31.5693L32.5059 35.0635L30.4707 33.0303L36.002 27.5L41.5322 33.0322Z" fill="black" fill-opacity="0.2"/>
<path d="M41.5332 39.9668L41.5322 39.9678L36.002 45.5L30.4707 39.9707L30.4688 39.9678L32.5059 37.9365L36.002 41.4326L39.499 37.9355L41.5332 39.9668ZM38.0645 36.499H38.0654L38.0645 36.501L36.001 38.5645L33.9385 36.5029L33.9355 36.499L34.2998 36.1348L34.4756 35.96L36.001 34.4346L38.0645 36.499ZM31.0674 36.5L29.0342 38.5342L27 36.5L29.0342 34.4668L31.0674 36.5ZM45 36.501L42.9658 38.5342L40.9316 36.501L42.9658 34.4668L45 36.501ZM41.5322 33.0322L39.499 35.0664L36.002 31.5693L32.5059 35.0635L30.4707 33.0303L36.002 27.5L41.5322 33.0322Z" fill="black" fill-opacity="0.2"/>
<path d="M41.5332 39.9668L41.5322 39.9678L36.002 45.5L30.4707 39.9707L30.4688 39.9678L32.5059 37.9365L36.002 41.4326L39.499 37.9355L41.5332 39.9668ZM38.0645 36.499H38.0654L38.0645 36.501L36.001 38.5645L33.9385 36.5029L33.9355 36.499L34.2998 36.1348L34.4756 35.96L36.001 34.4346L38.0645 36.499ZM31.0674 36.5L29.0342 38.5342L27 36.5L29.0342 34.4668L31.0674 36.5ZM45 36.501L42.9658 38.5342L40.9316 36.501L42.9658 34.4668L45 36.501ZM41.5322 33.0322L39.499 35.0664L36.002 31.5693L32.5059 35.0635L30.4707 33.0303L36.002 27.5L41.5322 33.0322Z" fill="black" fill-opacity="0.2"/>
<path d="M17.0312 87.5V75.8594H21.1094C21.9167 75.8594 22.5833 76 23.1094 76.2812C23.6354 76.5573 24.026 76.9297 24.2812 77.3984C24.5417 77.8672 24.6719 78.3854 24.6719 78.9531C24.6719 79.4531 24.5833 79.8672 24.4062 80.1953C24.2292 80.5182 23.9974 80.776 23.7109 80.9688C23.4245 81.1562 23.1146 81.2969 22.7812 81.3906V81.5C23.1406 81.5208 23.5 81.6458 23.8594 81.875C24.2188 82.1042 24.5182 82.4297 24.7578 82.8516C25.0026 83.2734 25.125 83.7917 25.125 84.4062C25.125 84.9896 24.9922 85.5156 24.7266 85.9844C24.4609 86.4479 24.0417 86.8177 23.4688 87.0938C22.901 87.3646 22.1562 87.5 21.2344 87.5H17.0312ZM18.4375 86.25H21.2344C22.1562 86.25 22.8099 86.0703 23.1953 85.7109C23.5859 85.3516 23.7812 84.9167 23.7812 84.4062C23.7812 84.0104 23.6797 83.6458 23.4766 83.3125C23.2786 82.9792 22.9948 82.7109 22.625 82.5078C22.2552 82.3047 21.8177 82.2031 21.3125 82.2031H18.4375V86.25ZM18.4375 80.9844H21.0625C21.4844 80.9844 21.8672 80.901 22.2109 80.7344C22.5547 80.5625 22.8255 80.3255 23.0234 80.0234C23.2266 79.7161 23.3281 79.3594 23.3281 78.9531C23.3281 78.4427 23.151 78.0078 22.7969 77.6484C22.4427 77.2891 21.8802 77.1094 21.1094 77.1094H18.4375V80.9844ZM36.1935 75.8594V87.5H34.8029L28.4747 78.3594H28.3497V87.5H26.9435V75.8594H28.3029L34.6779 85.0156H34.7872V75.8594H36.1935ZM38.512 87.5V75.8594H42.5901C43.3974 75.8594 44.0641 76 44.5901 76.2812C45.1162 76.5573 45.5068 76.9297 45.762 77.3984C46.0224 77.8672 46.1526 78.3854 46.1526 78.9531C46.1526 79.4531 46.0641 79.8672 45.887 80.1953C45.7099 80.5182 45.4781 80.776 45.1917 80.9688C44.9052 81.1562 44.5953 81.2969 44.262 81.3906V81.5C44.6214 81.5208 44.9807 81.6458 45.3401 81.875C45.6995 82.1042 45.999 82.4297 46.2386 82.8516C46.4834 83.2734 46.6057 83.7917 46.6057 84.4062C46.6057 84.9896 46.4729 85.5156 46.2073 85.9844C45.9417 86.4479 45.5224 86.8177 44.9495 87.0938C44.3818 87.3646 43.637 87.5 42.7151 87.5H38.512ZM39.9182 86.25H42.7151C43.637 86.25 44.2906 86.0703 44.6761 85.7109C45.0667 85.3516 45.262 84.9167 45.262 84.4062C45.262 84.0104 45.1604 83.6458 44.9573 83.3125C44.7594 82.9792 44.4755 82.7109 44.1057 82.5078C43.736 82.3047 43.2985 82.2031 42.7932 82.2031H39.9182V86.25ZM39.9182 80.9844H42.5432C42.9651 80.9844 43.3479 80.901 43.6917 80.7344C44.0354 80.5625 44.3063 80.3255 44.5042 80.0234C44.7073 79.7161 44.8089 79.3594 44.8089 78.9531C44.8089 78.4427 44.6318 78.0078 44.2776 77.6484C43.9235 77.2891 43.361 77.1094 42.5901 77.1094H39.9182V80.9844Z" fill="#FCFCFC" fill-opacity="0.6"/>
<path d="M65.6394 80.1006C65.5444 80.1006 65.4494 80.0656 65.3744 79.9906C65.2294 79.8456 65.2294 79.6056 65.3744 79.4606L66.9694 77.8656L65.3744 76.2706C65.2294 76.1256 65.2294 75.8856 65.3744 75.7406C65.5194 75.5956 65.7594 75.5956 65.9044 75.7406L67.7644 77.6006C67.8344 77.6706 67.8744 77.7656 67.8744 77.8656C67.8744 77.9656 67.8344 78.0606 67.7644 78.1306L65.9044 79.9906C65.8294 80.0606 65.7344 80.1006 65.6394 80.1006Z" fill="#FCFCFC"/>
<path d="M67.5 78.2402H58.5C58.295 78.2402 58.125 78.0702 58.125 77.8652C58.125 77.6602 58.295 77.4902 58.5 77.4902H67.5C67.705 77.4902 67.875 77.6602 67.875 77.8652C67.875 78.0702 67.705 78.2402 67.5 78.2402Z" fill="#FCFCFC"/>
<path d="M60.36 85.375C60.265 85.375 60.17 85.34 60.095 85.265L58.235 83.405C58.165 83.335 58.125 83.24 58.125 83.14C58.125 83.04 58.165 82.945 58.235 82.875L60.095 81.015C60.24 80.87 60.48 80.87 60.625 81.015C60.77 81.16 60.77 81.4 60.625 81.545L59.03 83.14L60.625 84.735C60.77 84.88 60.77 85.12 60.625 85.265C60.555 85.34 60.46 85.375 60.36 85.375Z" fill="#FCFCFC"/>
<path d="M67.5 83.5098H58.5C58.295 83.5098 58.125 83.3398 58.125 83.1348C58.125 82.9298 58.295 82.7598 58.5 82.7598H67.5C67.705 82.7598 67.875 82.9298 67.875 83.1348C67.875 83.3398 67.705 83.5098 67.5 83.5098Z" fill="#FCFCFC"/>
<path d="M86.6719 75.8594H88.0781V83.5625C88.0781 84.3594 87.8906 85.0703 87.5156 85.6953C87.1458 86.3151 86.6224 86.8047 85.9453 87.1641C85.2682 87.5234 84.474 87.7031 83.5625 87.7031C82.651 87.7031 81.8542 87.5234 81.1719 87.1641C80.4948 86.8047 79.9688 86.3151 79.5938 85.6953C79.2188 85.0703 79.0312 84.3594 79.0312 83.5625V75.8594H80.4375V83.4531C80.4375 84.0208 80.5625 84.526 80.8125 84.9688C81.0625 85.4115 81.4219 85.7604 81.8906 86.0156C82.3594 86.2656 82.9167 86.3906 83.5625 86.3906C84.2083 86.3906 84.763 86.2656 85.2266 86.0156C85.6901 85.7604 86.0469 85.4115 86.2969 84.9688C86.5469 84.526 86.6719 84.0208 86.6719 83.4531V75.8594ZM94.0841 87.7031C93.2508 87.7031 92.5294 87.5703 91.9201 87.3047C91.3107 87.0339 90.8315 86.6589 90.4826 86.1797C90.1388 85.6953 89.9435 85.1354 89.8966 84.5H91.3497C91.3914 84.9375 91.5399 85.2995 91.7951 85.5859C92.0555 85.8724 92.3862 86.0859 92.7872 86.2266C93.1883 86.3672 93.6206 86.4375 94.0841 86.4375C94.6206 86.4375 95.1024 86.349 95.5294 86.1719C95.9617 85.9948 96.3029 85.7474 96.5529 85.4297C96.8029 85.112 96.9279 84.7396 96.9279 84.3125C96.9279 83.9271 96.8185 83.6146 96.5997 83.375C96.381 83.1354 96.0945 82.9401 95.7404 82.7891C95.3914 82.638 95.0112 82.5052 94.5997 82.3906L93.1779 81.9844C92.2664 81.724 91.5451 81.3516 91.0138 80.8672C90.4878 80.3776 90.2247 79.7396 90.2247 78.9531C90.2247 78.3021 90.3992 77.7344 90.7482 77.25C91.1024 76.7604 91.5789 76.3802 92.1779 76.1094C92.782 75.8385 93.4539 75.7031 94.1935 75.7031C94.9435 75.7031 95.6102 75.8385 96.1935 76.1094C96.7768 76.375 97.2404 76.7396 97.5841 77.2031C97.9279 77.6615 98.1102 78.1823 98.131 78.7656H96.756C96.6883 78.1927 96.4122 77.7474 95.9279 77.4297C95.4487 77.112 94.855 76.9531 94.1466 76.9531C93.6362 76.9531 93.1883 77.0365 92.8029 77.2031C92.4175 77.3698 92.118 77.599 91.9044 77.8906C91.6909 78.1823 91.5841 78.5156 91.5841 78.8906C91.5841 79.3021 91.7117 79.6354 91.9669 79.8906C92.2221 80.1406 92.5242 80.3359 92.8732 80.4766C93.2274 80.6172 93.5477 80.7292 93.8341 80.8125L95.006 81.1406C95.3081 81.224 95.644 81.3359 96.0138 81.4766C96.3888 81.6172 96.7482 81.8073 97.0919 82.0469C97.4409 82.2865 97.7274 82.5938 97.9513 82.9688C98.1753 83.3385 98.2872 83.7969 98.2872 84.3438C98.2872 84.9688 98.1232 85.5365 97.7951 86.0469C97.4669 86.5521 96.9904 86.9557 96.3654 87.2578C95.7404 87.5547 94.98 87.7031 94.0841 87.7031ZM103.699 87.5H100.903V86.25H103.606C104.569 86.25 105.366 86.0651 105.996 85.6953C106.632 85.3255 107.106 84.7969 107.418 84.1094C107.731 83.4219 107.887 82.6042 107.887 81.6562C107.887 80.7188 107.733 79.9115 107.426 79.2344C107.119 78.5521 106.658 78.0286 106.043 77.6641C105.434 77.2943 104.673 77.1094 103.762 77.1094H100.84V75.8594H103.856C104.986 75.8594 105.952 76.0911 106.754 76.5547C107.561 77.0182 108.179 77.6849 108.606 78.5547C109.033 79.4193 109.246 80.4531 109.246 81.6562C109.246 82.8698 109.03 83.9141 108.598 84.7891C108.166 85.6589 107.535 86.3281 106.707 86.7969C105.884 87.2656 104.882 87.5 103.699 87.5ZM101.512 75.8594V87.5H100.106V75.8594H101.512Z" fill="#FCFCFC" fill-opacity="0.6"/>
<path d="M22.9375 115.734C22.2266 115.734 21.5117 115.605 20.793 115.348C20.0742 115.082 19.418 114.641 18.8242 114.023C18.2383 113.398 17.7656 112.551 17.4062 111.48C17.0469 110.41 16.8672 109.07 16.8672 107.461C16.8672 105.914 17.0117 104.543 17.3008 103.348C17.5977 102.152 18.0195 101.145 18.5664 100.324C19.1211 99.4961 19.7891 98.8711 20.5703 98.4492C21.3516 98.0195 22.2344 97.8047 23.2188 97.8047C24.1953 97.8047 25.0625 98 25.8203 98.3906C26.5859 98.7812 27.2109 99.3242 27.6953 100.02C28.1797 100.707 28.4922 101.5 28.6328 102.398H26.5703C26.375 101.617 25.9961 100.969 25.4336 100.453C24.8789 99.9375 24.1406 99.6797 23.2188 99.6797C21.8672 99.6797 20.8008 100.27 20.0195 101.449C19.2461 102.621 18.8594 104.273 18.8594 106.406H19C19.3203 105.922 19.6992 105.508 20.1367 105.164C20.5742 104.812 21.0586 104.547 21.5898 104.367C22.1211 104.18 22.6875 104.086 23.2891 104.086C24.2891 104.086 25.2031 104.336 26.0312 104.836C26.8594 105.328 27.5234 106.012 28.0234 106.887C28.5234 107.754 28.7734 108.75 28.7734 109.875C28.7734 110.953 28.5312 111.938 28.0469 112.828C27.5703 113.711 26.8945 114.418 26.0195 114.949C25.1445 115.473 24.1172 115.734 22.9375 115.734ZM22.9375 113.859C23.6562 113.859 24.3008 113.684 24.8711 113.332C25.4414 112.973 25.8945 112.492 26.2305 111.891C26.5664 111.281 26.7344 110.609 26.7344 109.875C26.7344 109.148 26.5703 108.492 26.2422 107.906C25.9219 107.312 25.4805 106.84 24.918 106.488C24.3633 106.137 23.7266 105.961 23.0078 105.961C22.2891 105.961 21.6367 106.145 21.0508 106.512C20.4727 106.879 20.0117 107.363 19.668 107.965C19.332 108.559 19.1641 109.203 19.1641 109.898C19.1641 110.594 19.3281 111.246 19.6562 111.855C19.9844 112.457 20.4297 112.941 20.9922 113.309C21.5625 113.676 22.2109 113.859 22.9375 113.859ZM36.7277 115.734C35.7277 115.734 34.8254 115.539 34.0207 115.148C33.2238 114.75 32.5832 114.203 32.0988 113.508C31.6145 112.812 31.3527 112.023 31.3137 111.141H33.3527C33.4309 111.922 33.7863 112.57 34.4192 113.086C35.0598 113.602 35.8293 113.859 36.7277 113.859C37.4465 113.859 38.0832 113.691 38.6379 113.355C39.1926 113.02 39.6301 112.559 39.9504 111.973C40.2707 111.387 40.4309 110.719 40.4309 109.969C40.4309 109.211 40.2629 108.531 39.927 107.93C39.5988 107.328 39.1457 106.855 38.5676 106.512C37.9895 106.16 37.3293 105.984 36.5871 105.984C36.0481 105.984 35.4973 106.07 34.9348 106.242C34.3801 106.406 33.9231 106.617 33.5637 106.875L31.5715 106.641L32.6262 98.0391H41.6965V99.9141H34.4074L33.7981 105.07H33.8918C34.2512 104.781 34.7004 104.547 35.2395 104.367C35.7785 104.18 36.3449 104.086 36.9387 104.086C38.009 104.086 38.9621 104.34 39.7981 104.848C40.634 105.355 41.2902 106.051 41.7668 106.934C42.2512 107.809 42.4934 108.812 42.4934 109.945C42.4934 111.055 42.2434 112.047 41.7434 112.922C41.2434 113.797 40.5598 114.484 39.6926 114.984C38.8254 115.484 37.8371 115.734 36.7277 115.734ZM44.5883 111.914V110.18L52.2524 98.0391H53.518V100.734H52.6508L46.8617 109.898V110.039H57.1977V111.914H44.5883ZM52.7914 115.5V111.398V110.578V98.0391H54.8071V115.5H52.7914ZM60.1833 115.5L67.9879 100.055V99.9141H58.9879V98.0391H70.1911V100.031L62.4098 115.5H60.1833ZM71.0087 115.641C70.5868 115.641 70.2235 115.492 69.9188 115.195C69.6219 114.891 69.4735 114.527 69.4735 114.105C69.4735 113.684 69.6219 113.324 69.9188 113.027C70.2235 112.723 70.5868 112.57 71.0087 112.57C71.4305 112.57 71.7899 112.723 72.0868 113.027C72.3915 113.324 72.5438 113.684 72.5438 114.105C72.5438 114.527 72.3915 114.891 72.0868 115.195C71.7899 115.492 71.4305 115.641 71.0087 115.641ZM75.67 115.5L83.4747 100.055V99.9141H74.4747V98.0391H85.6778V100.031L77.8966 115.5H75.67ZM93.1165 97.8047C93.8353 97.8125 94.5501 97.9492 95.261 98.2148C95.9798 98.4805 96.636 98.9219 97.2298 99.5391C97.8235 100.156 98.2962 100.996 98.6478 102.059C99.0071 103.121 99.1868 104.453 99.1868 106.055C99.1868 107.609 99.0423 108.988 98.7532 110.191C98.4642 111.387 98.0423 112.398 97.4876 113.227C96.9407 114.047 96.2767 114.672 95.4954 115.102C94.7142 115.523 93.8353 115.734 92.8587 115.734C91.8821 115.734 91.0071 115.539 90.2337 115.148C89.4681 114.758 88.8431 114.215 88.3587 113.52C87.8743 112.824 87.5618 112.016 87.4212 111.094H89.5071C89.6946 111.898 90.0696 112.562 90.6321 113.086C91.1946 113.602 91.9368 113.859 92.8587 113.859C94.2024 113.859 95.261 113.273 96.0345 112.102C96.8157 110.922 97.2103 109.258 97.2181 107.109H97.0774C96.7571 107.586 96.3782 108 95.9407 108.352C95.5032 108.695 95.0188 108.961 94.4876 109.148C93.9563 109.336 93.3899 109.43 92.7884 109.43C91.7884 109.43 90.8704 109.184 90.0345 108.691C89.1985 108.191 88.5306 107.508 88.0306 106.641C87.5384 105.766 87.2884 104.766 87.2806 103.641C87.2884 102.57 87.5306 101.594 88.0071 100.711C88.4915 99.8203 89.1673 99.1094 90.0345 98.5781C90.9095 98.0469 91.9368 97.7891 93.1165 97.8047ZM93.1165 99.6797C92.4056 99.6797 91.761 99.8594 91.1829 100.219C90.6126 100.57 90.1634 101.047 89.8353 101.648C89.5071 102.242 89.3431 102.906 89.3431 103.641C89.3431 104.367 89.4993 105.027 89.8118 105.621C90.1321 106.215 90.5735 106.688 91.136 107.039C91.6985 107.383 92.3353 107.555 93.0462 107.555C93.7649 107.555 94.4134 107.371 94.9915 107.004C95.5774 106.629 96.0423 106.141 96.386 105.539C96.7376 104.938 96.9134 104.289 96.9134 103.594C96.9134 102.914 96.7493 102.277 96.4212 101.684C96.0931 101.082 95.6438 100.598 95.0735 100.23C94.5032 99.8633 93.8509 99.6797 93.1165 99.6797Z" fill="#FCFCFC"/>
<path d="M29.6162 141.424H27.6162V140.006L24.3184 143.304L23.6104 144.011L20.7939 141.194L17.4141 144.575L16 143.161L20.0869 139.073L20.7939 138.366L21.502 139.073L23.6104 141.182L26.3691 138.424H24.6162V136.424H29.6162V141.424Z" fill="#F9EB57"/>
<path d="M37.5273 135.678C37.9466 135.682 38.3636 135.762 38.7783 135.917C39.1976 136.072 39.5804 136.329 39.9268 136.689C40.2731 137.049 40.5488 137.539 40.7539 138.159C40.9635 138.779 41.0684 139.556 41.0684 140.49C41.0684 141.397 40.984 142.201 40.8154 142.903C40.6468 143.601 40.4007 144.191 40.0771 144.674C39.7581 145.152 39.3708 145.517 38.915 145.768C38.4593 146.014 37.9466 146.137 37.377 146.137C36.8073 146.137 36.2969 146.023 35.8457 145.795C35.3991 145.567 35.0345 145.25 34.752 144.845C34.4694 144.439 34.2871 143.967 34.2051 143.43H35.4219C35.5312 143.899 35.75 144.286 36.0781 144.592C36.4062 144.893 36.8392 145.043 37.377 145.043C38.1608 145.043 38.7783 144.701 39.2295 144.018C39.6852 143.329 39.9154 142.359 39.9199 141.105H39.8379C39.651 141.383 39.43 141.625 39.1748 141.83C38.9196 142.031 38.637 142.186 38.3271 142.295C38.0173 142.404 37.6868 142.459 37.3359 142.459C36.7526 142.459 36.2171 142.315 35.7295 142.028C35.2419 141.737 34.8522 141.338 34.5605 140.832C34.2734 140.322 34.1276 139.738 34.123 139.082C34.1276 138.458 34.2689 137.888 34.5469 137.373C34.8294 136.854 35.2236 136.439 35.7295 136.129C36.2399 135.819 36.8392 135.669 37.5273 135.678ZM37.5273 136.771C37.1126 136.771 36.7367 136.876 36.3994 137.086C36.0667 137.291 35.8047 137.569 35.6133 137.92C35.4219 138.266 35.3262 138.654 35.3262 139.082C35.3262 139.506 35.4173 139.891 35.5996 140.237C35.7865 140.584 36.0439 140.859 36.3721 141.064C36.7002 141.265 37.0716 141.365 37.4863 141.365C37.9056 141.365 38.2839 141.258 38.6211 141.044C38.9629 140.825 39.234 140.54 39.4346 140.189C39.6396 139.839 39.7422 139.46 39.7422 139.055C39.7422 138.658 39.6465 138.287 39.4551 137.94C39.2637 137.59 39.0016 137.307 38.6689 137.093C38.3363 136.879 37.9557 136.771 37.5273 136.771ZM42.5999 146.082C42.3538 146.082 42.1419 145.995 41.9641 145.822C41.791 145.645 41.7044 145.433 41.7044 145.187C41.7044 144.94 41.791 144.731 41.9641 144.558C42.1419 144.38 42.3538 144.291 42.5999 144.291C42.846 144.291 43.0556 144.38 43.2288 144.558C43.4065 144.731 43.4954 144.94 43.4954 145.187C43.4954 145.433 43.4065 145.645 43.2288 145.822C43.0556 145.995 42.846 146.082 42.5999 146.082ZM47.6861 146.137C47.1028 146.137 46.5764 146.023 46.107 145.795C45.6421 145.562 45.2685 145.243 44.9859 144.838C44.7033 144.432 44.5507 143.972 44.5279 143.457H45.7173C45.7629 143.913 45.9703 144.291 46.3394 144.592C46.7131 144.893 47.162 145.043 47.6861 145.043C48.1054 145.043 48.4768 144.945 48.8004 144.749C49.1239 144.553 49.3791 144.284 49.566 143.942C49.7528 143.601 49.8462 143.211 49.8462 142.773C49.8462 142.331 49.7483 141.935 49.5523 141.584C49.3609 141.233 49.0966 140.957 48.7593 140.757C48.4221 140.552 48.037 140.449 47.6041 140.449C47.2896 140.449 46.9683 140.499 46.6402 140.6C46.3166 140.695 46.05 140.818 45.8404 140.969L44.6783 140.832L45.2935 135.814H50.5845V136.908H46.3326L45.9771 139.916H46.0318C46.2414 139.747 46.5035 139.611 46.8179 139.506C47.1324 139.396 47.4628 139.342 47.8091 139.342C48.4335 139.342 48.9895 139.49 49.4771 139.786C49.9647 140.082 50.3476 140.488 50.6255 141.003C50.9081 141.513 51.0494 142.099 51.0494 142.76C51.0494 143.407 50.9035 143.986 50.6119 144.496C50.3202 145.007 49.9214 145.408 49.4156 145.699C48.9097 145.991 48.3332 146.137 47.6861 146.137ZM57.1952 144.086V143.553C57.1952 143.179 57.2704 142.837 57.4207 142.527C57.5757 142.217 57.8013 141.969 58.0975 141.782C58.3937 141.595 58.7537 141.502 59.1776 141.502C59.6105 141.502 59.9728 141.595 60.2645 141.782C60.5562 141.969 60.7749 142.217 60.9207 142.527C61.0711 142.837 61.1463 143.179 61.1463 143.553V144.086C61.1463 144.46 61.0711 144.801 60.9207 145.111C60.7704 145.421 60.5493 145.67 60.2577 145.856C59.966 146.043 59.606 146.137 59.1776 146.137C58.7492 146.137 58.3869 146.043 58.0907 145.856C57.7944 145.67 57.5711 145.421 57.4207 145.111C57.2704 144.801 57.1952 144.46 57.1952 144.086ZM58.2069 143.553V144.086C58.2069 144.396 58.2798 144.674 58.4256 144.92C58.5715 145.161 58.8221 145.285 59.1776 145.289C59.5285 145.285 59.7746 145.161 59.9159 144.92C60.0617 144.674 60.1346 144.396 60.1346 144.086V143.553C60.1346 143.243 60.064 142.967 59.9227 142.726C59.786 142.484 59.5376 142.363 59.1776 142.363C58.8312 142.363 58.5829 142.484 58.4325 142.726C58.2821 142.967 58.2069 143.243 58.2069 143.553ZM52.1229 138.262V137.729C52.1229 137.355 52.2004 137.013 52.3553 136.703C52.5103 136.393 52.7336 136.145 53.0252 135.958C53.3215 135.771 53.6815 135.678 54.1053 135.678C54.5383 135.678 54.9006 135.771 55.1922 135.958C55.4885 136.145 55.7095 136.393 55.8553 136.703C56.0057 137.013 56.0786 137.355 56.0741 137.729V138.262C56.0786 138.631 56.0034 138.973 55.8485 139.287C55.6981 139.597 55.4771 139.845 55.1854 140.032C54.8937 140.219 54.5337 140.312 54.1053 140.312C53.6769 140.312 53.3146 140.219 53.0184 140.032C52.7222 139.845 52.4989 139.597 52.3485 139.287C52.1981 138.973 52.1229 138.631 52.1229 138.262ZM53.1346 137.729V138.262C53.1346 138.572 53.2075 138.85 53.3534 139.096C53.4992 139.337 53.7498 139.456 54.1053 139.451C54.4562 139.456 54.7023 139.337 54.8436 139.096C54.9894 138.85 55.0623 138.572 55.0623 138.262V137.729C55.0623 137.419 54.9917 137.143 54.8504 136.901C54.7137 136.655 54.4653 136.535 54.1053 136.539C53.759 136.535 53.5106 136.655 53.3602 136.901C53.2098 137.143 53.1346 137.419 53.1346 137.729ZM52.5057 146L59.5057 135.814H60.6405L53.6405 146H52.5057Z" fill="#F9EB57"/>
<path d="M239 61.5C231.96 75.5 225.321 93.3724 211.19 93.3724C193.945 93.8015 190.421 77.883 175.636 78.7766C150.642 78.7766 159.794 117.5 126 117.5" stroke="#F9EB57" stroke-width="2"/>
</svg>
