<svg width="227" height="186" viewBox="0 0 227 186" fill="none" xmlns="http://www.w3.org/2000/svg">
<rect x="0.5" y="0.5" width="226" height="185" stroke="#303B49"/>
<rect width="227" height="186" rx="16" fill="#0F1217"/>
<path d="M30.2812 26.3594V38H28.8906L22.5625 28.8594H22.4375V38H21.0312V26.3594H22.3906L28.7656 35.5156H28.875V26.3594H30.2812ZM35.8281 38.1875C34.9896 38.1875 34.263 38 33.6484 37.625C33.0391 37.25 32.5703 36.7266 32.2422 36.0547C31.9141 35.3776 31.75 34.5938 31.75 33.7031C31.75 32.8073 31.9115 32.0182 32.2344 31.3359C32.5573 30.6536 33.0104 30.1198 33.5938 29.7344C34.1823 29.349 34.8698 29.1562 35.6562 29.1562C36.1094 29.1562 36.5599 29.2318 37.0078 29.3828C37.4557 29.5339 37.862 29.7786 38.2266 30.1172C38.5964 30.4557 38.8906 30.9036 39.1094 31.4609C39.3281 32.0182 39.4375 32.7031 39.4375 33.5156V34.0938H32.7031V32.9375H38.7109L38.0938 33.375C38.0938 32.7917 38.0026 32.2734 37.8203 31.8203C37.638 31.3672 37.3646 31.0104 37 30.75C36.6406 30.4896 36.1927 30.3594 35.6562 30.3594C35.1198 30.3594 34.6589 30.4922 34.2734 30.7578C33.8932 31.0182 33.6016 31.3594 33.3984 31.7812C33.1953 32.2031 33.0938 32.6562 33.0938 33.1406V33.9062C33.0938 34.5677 33.2083 35.1276 33.4375 35.5859C33.6667 36.0443 33.987 36.3932 34.3984 36.6328C34.8099 36.8672 35.2865 36.9844 35.8281 36.9844C36.1771 36.9844 36.4948 36.9349 36.7812 36.8359C37.0677 36.7318 37.3151 36.5781 37.5234 36.375C37.7318 36.1667 37.8906 35.9115 38 35.6094L39.2969 35.9844C39.1615 36.4219 38.9323 36.8073 38.6094 37.1406C38.2917 37.4688 37.8958 37.7266 37.4219 37.9141C36.9479 38.0964 36.4167 38.1875 35.8281 38.1875ZM44.4844 29.2656V30.4062H39.9688V29.2656H44.4844ZM41.2812 27.1875H42.6094V35.5C42.6094 35.9531 42.7031 36.2865 42.8906 36.5C43.0781 36.7083 43.375 36.8125 43.7812 36.8125C43.8698 36.8125 43.9609 36.8073 44.0547 36.7969C44.1536 36.7865 44.2604 36.7708 44.375 36.75L44.6562 37.9531C44.5312 38 44.3776 38.0365 44.1953 38.0625C44.0182 38.0938 43.8385 38.1094 43.6562 38.1094C42.9531 38.1094 42.3802 37.901 41.9375 37.4844C41.5 37.0677 41.2812 36.526 41.2812 35.8594V27.1875ZM55.6875 31.2344L54.4844 31.5625C54.3698 31.2656 54.1719 30.9844 53.8906 30.7188C53.6146 30.4479 53.1823 30.3125 52.5938 30.3125C52.0625 30.3125 51.6198 30.4375 51.2656 30.6875C50.9115 30.9323 50.7344 31.2396 50.7344 31.6094C50.7344 31.9427 50.8542 32.2083 51.0938 32.4062C51.3385 32.6042 51.7188 32.7656 52.2344 32.8906L53.5312 33.2031C54.3073 33.3906 54.8854 33.6797 55.2656 34.0703C55.651 34.4609 55.8438 34.9583 55.8438 35.5625C55.8438 36.0625 55.7005 36.5104 55.4141 36.9062C55.1276 37.3021 54.7292 37.6146 54.2188 37.8438C53.7083 38.0729 53.1146 38.1875 52.4375 38.1875C51.5469 38.1875 50.8099 37.9922 50.2266 37.6016C49.6484 37.2109 49.2812 36.6458 49.125 35.9062L50.3906 35.5938C50.5104 36.0625 50.7396 36.4141 51.0781 36.6484C51.4219 36.8828 51.8698 37 52.4219 37C53.0417 37 53.5365 36.8672 53.9062 36.6016C54.2812 36.3307 54.4688 36.0104 54.4688 35.6406C54.4688 35.026 54.0365 34.6146 53.1719 34.4062L51.7188 34.0625C50.9167 33.8698 50.3281 33.5755 49.9531 33.1797C49.5781 32.7839 49.3906 32.2865 49.3906 31.6875C49.3906 31.1927 49.5286 30.7552 49.8047 30.375C50.0859 29.9948 50.4688 29.6979 50.9531 29.4844C51.4375 29.2656 51.9844 29.1562 52.5938 29.1562C53.4635 29.1562 54.1432 29.349 54.6328 29.7344C55.1276 30.1146 55.4792 30.6146 55.6875 31.2344ZM59.6875 38.2031C59.1354 38.2031 58.6328 38.099 58.1797 37.8906C57.7266 37.6771 57.3672 37.3698 57.1016 36.9688C56.8359 36.5677 56.7031 36.0833 56.7031 35.5156C56.7031 35.0156 56.8021 34.612 57 34.3047C57.1979 33.9922 57.4609 33.7474 57.7891 33.5703C58.1224 33.388 58.487 33.2526 58.8828 33.1641C59.2839 33.0755 59.6875 33.0052 60.0938 32.9531C60.625 32.8854 61.0547 32.8333 61.3828 32.7969C61.7161 32.7604 61.9583 32.6979 62.1094 32.6094C62.2656 32.5208 62.3438 32.3698 62.3438 32.1562V32.1094C62.3438 31.5521 62.1901 31.1198 61.8828 30.8125C61.5807 30.5 61.1198 30.3438 60.5 30.3438C59.8646 30.3438 59.3646 30.4844 59 30.7656C58.6354 31.0417 58.3802 31.3385 58.2344 31.6562L56.9531 31.2031C57.1823 30.6719 57.487 30.2578 57.8672 29.9609C58.2526 29.6641 58.6693 29.4557 59.1172 29.3359C59.5703 29.2161 60.0156 29.1562 60.4531 29.1562C60.7344 29.1562 61.0573 29.1901 61.4219 29.2578C61.7865 29.3203 62.1406 29.4557 62.4844 29.6641C62.8333 29.8672 63.1198 30.1771 63.3438 30.5938C63.5729 31.0052 63.6875 31.5573 63.6875 32.25V38H62.3438V36.8125H62.2812C62.1927 37 62.0417 37.2031 61.8281 37.4219C61.6146 37.6354 61.3307 37.8203 60.9766 37.9766C60.6276 38.1276 60.1979 38.2031 59.6875 38.2031ZM59.8906 37C60.4219 37 60.8698 36.8958 61.2344 36.6875C61.599 36.4792 61.875 36.2109 62.0625 35.8828C62.25 35.5495 62.3438 35.2031 62.3438 34.8438V33.6094C62.2865 33.6771 62.1615 33.7396 61.9688 33.7969C61.7812 33.849 61.5625 33.8958 61.3125 33.9375C61.0677 33.9792 60.8281 34.0156 60.5938 34.0469C60.3594 34.0729 60.1719 34.0938 60.0312 34.1094C59.6823 34.1562 59.3568 34.2318 59.0547 34.3359C58.7526 34.4349 58.5078 34.5833 58.3203 34.7812C58.138 34.9792 58.0469 35.25 58.0469 35.5938C58.0469 36.0573 58.2188 36.4089 58.5625 36.6484C58.9115 36.8828 59.3542 37 59.8906 37ZM66.7344 26.3594V38H65.4062V26.3594H66.7344ZM72.1094 38.1875C71.2708 38.1875 70.5443 38 69.9297 37.625C69.3203 37.25 68.8516 36.7266 68.5234 36.0547C68.1953 35.3776 68.0312 34.5938 68.0312 33.7031C68.0312 32.8073 68.1927 32.0182 68.5156 31.3359C68.8385 30.6536 69.2917 30.1198 69.875 29.7344C70.4635 29.349 71.151 29.1562 71.9375 29.1562C72.3906 29.1562 72.8411 29.2318 73.2891 29.3828C73.737 29.5339 74.1432 29.7786 74.5078 30.1172C74.8776 30.4557 75.1719 30.9036 75.3906 31.4609C75.6094 32.0182 75.7188 32.7031 75.7188 33.5156V34.0938H68.9844V32.9375H74.9922L74.375 33.375C74.375 32.7917 74.2839 32.2734 74.1016 31.8203C73.9193 31.3672 73.6458 31.0104 73.2812 30.75C72.9219 30.4896 72.474 30.3594 71.9375 30.3594C71.401 30.3594 70.9401 30.4922 70.5547 30.7578C70.1745 31.0182 69.8828 31.3594 69.6797 31.7812C69.4766 32.2031 69.375 32.6562 69.375 33.1406V33.9062C69.375 34.5677 69.4896 35.1276 69.7188 35.5859C69.9479 36.0443 70.2682 36.3932 70.6797 36.6328C71.0911 36.8672 71.5677 36.9844 72.1094 36.9844C72.4583 36.9844 72.776 36.9349 73.0625 36.8359C73.349 36.7318 73.5964 36.5781 73.8047 36.375C74.013 36.1667 74.1719 35.9115 74.2812 35.6094L75.5781 35.9844C75.4427 36.4219 75.2135 36.8073 74.8906 37.1406C74.5729 37.4688 74.1771 37.7266 73.7031 37.9141C73.2292 38.0964 72.6979 38.1875 72.1094 38.1875ZM83.1562 31.2344L81.9531 31.5625C81.8385 31.2656 81.6406 30.9844 81.3594 30.7188C81.0833 30.4479 80.651 30.3125 80.0625 30.3125C79.5312 30.3125 79.0885 30.4375 78.7344 30.6875C78.3802 30.9323 78.2031 31.2396 78.2031 31.6094C78.2031 31.9427 78.3229 32.2083 78.5625 32.4062C78.8073 32.6042 79.1875 32.7656 79.7031 32.8906L81 33.2031C81.776 33.3906 82.3542 33.6797 82.7344 34.0703C83.1198 34.4609 83.3125 34.9583 83.3125 35.5625C83.3125 36.0625 83.1693 36.5104 82.8828 36.9062C82.5964 37.3021 82.1979 37.6146 81.6875 37.8438C81.1771 38.0729 80.5833 38.1875 79.9062 38.1875C79.0156 38.1875 78.2786 37.9922 77.6953 37.6016C77.1172 37.2109 76.75 36.6458 76.5938 35.9062L77.8594 35.5938C77.9792 36.0625 78.2083 36.4141 78.5469 36.6484C78.8906 36.8828 79.3385 37 79.8906 37C80.5104 37 81.0052 36.8672 81.375 36.6016C81.75 36.3307 81.9375 36.0104 81.9375 35.6406C81.9375 35.026 81.5052 34.6146 80.6406 34.4062L79.1875 34.0625C78.3854 33.8698 77.7969 33.5755 77.4219 33.1797C77.0469 32.7839 76.8594 32.2865 76.8594 31.6875C76.8594 31.1927 76.9974 30.7552 77.2734 30.375C77.5547 29.9948 77.9375 29.6979 78.4219 29.4844C78.9062 29.2656 79.4531 29.1562 80.0625 29.1562C80.9323 29.1562 81.612 29.349 82.1016 29.7344C82.5964 30.1146 82.9479 30.6146 83.1562 31.2344Z" fill="#FCFCFC" fill-opacity="0.6"/>
<path d="M24.9219 69.6348V53.2695H25.959V69.6348H24.9219ZM25.4404 68.2109C24.4619 68.2109 23.6123 68.0586 22.8916 67.7539C22.1768 67.4434 21.6172 67.001 21.2129 66.4268C20.8086 65.8525 20.583 65.1699 20.5361 64.3789H22.5225C22.5635 64.8535 22.7158 65.249 22.9795 65.5654C23.249 65.876 23.5977 66.1074 24.0254 66.2598C24.4531 66.4121 24.9219 66.4883 25.4316 66.4883C25.9883 66.4883 26.4863 66.4004 26.9258 66.2246C27.3652 66.0488 27.708 65.8027 27.9541 65.4863C28.2061 65.1641 28.332 64.7891 28.332 64.3613C28.332 63.9746 28.2207 63.6582 27.998 63.4121C27.7812 63.166 27.4854 62.9639 27.1104 62.8057C26.7354 62.6416 26.3135 62.498 25.8447 62.375L24.3066 61.9531C23.252 61.6719 22.4199 61.2529 21.8105 60.6963C21.2012 60.1338 20.8965 59.3984 20.8965 58.4902C20.8965 57.7344 21.0986 57.0752 21.5029 56.5127C21.9131 55.9502 22.4668 55.5137 23.1641 55.2031C23.8672 54.8867 24.6553 54.7285 25.5283 54.7285C26.4189 54.7285 27.2012 54.8867 27.875 55.2031C28.5547 55.5137 29.0908 55.9414 29.4834 56.4863C29.8818 57.0254 30.0898 57.6436 30.1074 58.3408H28.1914C28.1211 57.7373 27.8398 57.2686 27.3477 56.9346C26.8613 56.6006 26.2402 56.4336 25.4844 56.4336C24.957 56.4336 24.4941 56.5186 24.0957 56.6885C23.7031 56.8525 23.3984 57.0811 23.1816 57.374C22.9707 57.667 22.8652 58.0039 22.8652 58.3848C22.8652 58.7949 22.9912 59.1289 23.2432 59.3867C23.501 59.6445 23.8115 59.8496 24.1748 60.002C24.5439 60.1484 24.8984 60.2686 25.2383 60.3623L26.5127 60.7051C26.9287 60.8105 27.3564 60.9512 27.7959 61.127C28.2354 61.3027 28.6426 61.5342 29.0176 61.8213C29.3984 62.1025 29.7031 62.4541 29.9316 62.876C30.166 63.292 30.2832 63.7959 30.2832 64.3877C30.2832 65.1201 30.0928 65.7764 29.7119 66.3564C29.3311 66.9307 28.7803 67.3848 28.0596 67.7188C27.3389 68.0469 26.4658 68.2109 25.4404 68.2109ZM36.4355 54.9043V68H34.4844V56.8906H34.3965L31.2852 58.9385V57.04L34.5371 54.9043H36.4355ZM42.6758 54.7197C43.2617 54.7256 43.8359 54.834 44.3984 55.0449C44.9668 55.25 45.4795 55.5898 45.9365 56.0645C46.3994 56.5391 46.7686 57.1807 47.0439 57.9893C47.3193 58.792 47.457 59.7939 47.457 60.9951C47.457 62.1377 47.3428 63.1543 47.1143 64.0449C46.8857 64.9355 46.5547 65.6885 46.1211 66.3037C45.6934 66.9189 45.1748 67.3877 44.5654 67.71C43.9561 68.0264 43.2734 68.1846 42.5176 68.1846C41.7383 68.1846 41.0439 68.0293 40.4346 67.7188C39.8252 67.4082 39.333 66.9834 38.958 66.4443C38.583 65.8994 38.3457 65.2754 38.2461 64.5723H40.1973C40.3262 65.1289 40.5869 65.583 40.9795 65.9346C41.3779 66.2803 41.8906 66.4531 42.5176 66.4531C43.4727 66.4531 44.2168 66.0342 44.75 65.1963C45.2891 64.3584 45.5615 63.1895 45.5674 61.6895H45.4707C45.2422 62.0586 44.9639 62.3779 44.6357 62.6475C44.3076 62.9111 43.9385 63.1133 43.5283 63.2539C43.1182 63.3945 42.6846 63.4648 42.2275 63.4648C41.4658 63.4648 40.7744 63.2803 40.1533 62.9111C39.5322 62.542 39.04 62.0352 38.6768 61.3906C38.3135 60.7402 38.1289 59.999 38.123 59.167C38.1289 58.335 38.3193 57.582 38.6943 56.9082C39.0752 56.2344 39.6055 55.7012 40.2852 55.3086C40.9648 54.9102 41.7617 54.7139 42.6758 54.7197ZM42.6846 56.3896C42.1865 56.3896 41.7383 56.5127 41.3398 56.7588C40.9414 57.0049 40.6279 57.3359 40.3994 57.752C40.1709 58.168 40.0566 58.6309 40.0566 59.1406C40.0566 59.6504 40.165 60.1104 40.3818 60.5205C40.6045 60.9307 40.9121 61.2588 41.3047 61.5049C41.6973 61.7451 42.1426 61.8652 42.6406 61.8652C43.1445 61.8652 43.5957 61.7393 43.9941 61.4873C44.3984 61.2295 44.7207 60.8926 44.9609 60.4766C45.2012 60.0547 45.3213 59.6006 45.3213 59.1143C45.3213 58.6338 45.207 58.1855 44.9785 57.7695C44.75 57.3535 44.4365 57.0195 44.0381 56.7676C43.6455 56.5156 43.1943 56.3896 42.6846 56.3896ZM48.3184 71.2432L49.0918 66.1191H51.1484L49.6982 71.2432H48.3184ZM53.5215 68L59.2344 56.6973V56.6006H52.625V54.9043H61.291V56.6709L55.5869 68H53.5215ZM66.8281 68.1758C66.248 68.1758 65.6738 68.0732 65.1055 67.8682C64.5371 67.6631 64.0244 67.3232 63.5674 66.8486C63.1104 66.3682 62.7412 65.7236 62.46 64.915C62.1846 64.1064 62.0469 63.1016 62.0469 61.9004C62.0469 60.7578 62.1611 59.7441 62.3896 58.8594C62.624 57.9688 62.9551 57.2188 63.3828 56.6094C63.8164 55.9941 64.3379 55.5283 64.9473 55.2119C65.5566 54.8896 66.2422 54.7285 67.0039 54.7285C67.7832 54.7285 68.4746 54.8838 69.0781 55.1943C69.6816 55.499 70.1709 55.9209 70.5459 56.46C70.9268 56.999 71.1641 57.6143 71.2578 58.3057H69.3242C69.1895 57.7607 68.9258 57.3184 68.5332 56.9785C68.1406 56.6328 67.6309 56.46 67.0039 56.46C66.043 56.46 65.293 56.8789 64.7539 57.7168C64.2207 58.5488 63.9541 59.709 63.9541 61.1973H64.0508C64.2793 60.8281 64.5576 60.5117 64.8857 60.248C65.2139 59.9785 65.5801 59.7734 65.9844 59.6328C66.3945 59.4922 66.8311 59.4219 67.2939 59.4219C68.0498 59.4219 68.7354 59.6064 69.3506 59.9756C69.9717 60.3447 70.4639 60.8545 70.8271 61.5049C71.1963 62.1494 71.3809 62.8906 71.3809 63.7285C71.3809 64.5605 71.1904 65.3135 70.8096 65.9873C70.4346 66.6611 69.9043 67.1943 69.2188 67.5869C68.5391 67.9795 67.7422 68.1758 66.8281 68.1758ZM66.8193 66.5146C67.3232 66.5146 67.7715 66.3916 68.1641 66.1455C68.5625 65.8994 68.8789 65.5684 69.1133 65.1523C69.3477 64.7305 69.4648 64.2617 69.4648 63.7461C69.4648 63.2422 69.3506 62.7852 69.1221 62.375C68.8994 61.9648 68.5918 61.6396 68.1992 61.3994C67.8125 61.1533 67.3672 61.0303 66.8633 61.0303C66.3652 61.0303 65.9141 61.1562 65.5098 61.4082C65.1055 61.6602 64.7832 61.9941 64.543 62.4102C64.3086 62.8262 64.1914 63.2773 64.1914 63.7637C64.1914 64.25 64.3057 64.7041 64.5342 65.126C64.7627 65.5479 65.0732 65.8848 65.4658 66.1367C65.8643 66.3887 66.3154 66.5146 66.8193 66.5146ZM77.2168 68.1758C76.4141 68.1758 75.6934 68.0234 75.0547 67.7188C74.4219 67.4082 73.915 66.9834 73.5342 66.4443C73.1533 65.8994 72.9512 65.2812 72.9277 64.5898H74.8438C74.8906 65.1465 75.1396 65.6064 75.5908 65.9697C76.042 66.333 76.584 66.5146 77.2168 66.5146C77.7207 66.5146 78.166 66.3975 78.5527 66.1631C78.9395 65.9287 79.2441 65.6094 79.4668 65.2051C79.6895 64.7949 79.8008 64.3262 79.8008 63.7988C79.8008 63.2715 79.6865 62.7998 79.458 62.3838C79.2295 61.9619 78.9131 61.6309 78.5088 61.3906C78.1104 61.1504 77.6504 61.0303 77.1289 61.0303C76.7305 61.0303 76.332 61.1006 75.9336 61.2412C75.5352 61.376 75.2129 61.5518 74.9668 61.7686L73.1475 61.5049L73.8857 54.9043H81.084V56.6006H75.5381L75.125 60.2656H75.1953C75.4473 60.0137 75.7842 59.8086 76.2061 59.6504C76.6338 59.4863 77.0938 59.4043 77.5859 59.4043C78.3828 59.4043 79.0918 59.5947 79.7129 59.9756C80.3398 60.3506 80.832 60.8662 81.1895 61.5225C81.5469 62.1729 81.7256 62.9199 81.7256 63.7637C81.7256 64.6133 81.5322 65.3721 81.1455 66.04C80.7588 66.7021 80.2256 67.2236 79.5459 67.6045C78.8721 67.9854 78.0957 68.1758 77.2168 68.1758ZM87.7988 68.1758C86.791 68.1758 85.9268 67.9121 85.2061 67.3848C84.4912 66.8574 83.9434 66.0957 83.5625 65.0996C83.1875 64.0977 83 62.8848 83 61.4609C83 60.043 83.1904 58.833 83.5713 57.8311C83.9521 56.8232 84.5 56.0557 85.2148 55.5283C85.9355 54.9951 86.7969 54.7285 87.7988 54.7285C88.8066 54.7285 89.668 54.9951 90.3828 55.5283C91.1035 56.0557 91.6514 56.8232 92.0264 57.8311C92.4072 58.833 92.5977 60.043 92.5977 61.4609C92.5977 62.8848 92.4102 64.0977 92.0352 65.0996C91.6602 66.0957 91.1152 66.8574 90.4004 67.3848C89.6855 67.9121 88.8184 68.1758 87.7988 68.1758ZM87.7988 66.4883C88.4141 66.4883 88.9326 66.292 89.3545 65.8994C89.7764 65.5068 90.0986 64.9355 90.3213 64.1855C90.5439 63.4297 90.6553 62.5215 90.6553 61.4609C90.6553 60.3945 90.5439 59.4863 90.3213 58.7363C90.0986 57.9805 89.7764 57.4062 89.3545 57.0137C88.9326 56.6152 88.4141 56.416 87.7988 56.416C86.8906 56.416 86.1875 56.8584 85.6895 57.7432C85.1973 58.6221 84.9512 59.8613 84.9512 61.4609C84.9512 62.5215 85.0625 63.4297 85.2852 64.1855C85.5078 64.9355 85.8301 65.5068 86.252 65.8994C86.6797 66.292 87.1953 66.4883 87.7988 66.4883Z" fill="#FCFCFC"/>
<path d="M163.574 72.1172C163.008 72.1172 162.506 72.0215 162.068 71.8301C161.631 71.6387 161.283 71.3711 161.025 71.0273C160.768 70.6797 160.629 70.2773 160.609 69.8203H161.676C161.699 70.1016 161.795 70.3438 161.963 70.5469C162.135 70.75 162.357 70.9062 162.631 71.0156C162.908 71.125 163.215 71.1797 163.551 71.1797C163.926 71.1797 164.258 71.1152 164.547 70.9863C164.84 70.8535 165.068 70.6719 165.232 70.4414C165.4 70.207 165.484 69.9375 165.484 69.6328C165.484 69.3086 165.404 69.0234 165.244 68.7773C165.084 68.5312 164.85 68.3398 164.541 68.2031C164.236 68.0625 163.863 67.9922 163.422 67.9922H162.719V67.0547H163.422C163.766 67.0547 164.068 66.9922 164.33 66.8672C164.592 66.7422 164.797 66.5664 164.945 66.3398C165.094 66.1133 165.168 65.8477 165.168 65.543C165.168 65.2461 165.104 64.9883 164.975 64.7695C164.846 64.5508 164.662 64.3809 164.424 64.2598C164.189 64.1387 163.91 64.0781 163.586 64.0781C163.285 64.0781 163.002 64.1328 162.736 64.2422C162.471 64.3516 162.254 64.5078 162.086 64.7109C161.918 64.9141 161.828 65.1602 161.816 65.4492H160.797C160.812 64.9922 160.949 64.5918 161.207 64.248C161.465 63.9043 161.803 63.6367 162.221 63.4453C162.643 63.25 163.105 63.1523 163.609 63.1523C164.148 63.1523 164.611 63.2617 164.998 63.4805C165.385 63.6953 165.682 63.9805 165.889 64.3359C166.096 64.6914 166.199 65.0742 166.199 65.4844C166.199 65.9805 166.07 66.4004 165.812 66.7441C165.559 67.0879 165.211 67.3281 164.77 67.4648V67.5352C165.316 67.625 165.744 67.8594 166.053 68.2383C166.361 68.6133 166.516 69.0781 166.516 69.6328C166.516 70.1055 166.387 70.5293 166.129 70.9043C165.875 71.2793 165.525 71.5762 165.08 71.7949C164.639 72.0098 164.137 72.1172 163.574 72.1172ZM167.699 72V71.2383L170.582 68.0742C170.918 67.707 171.193 67.3867 171.408 67.1133C171.627 66.8398 171.789 66.582 171.895 66.3398C172.004 66.0977 172.059 65.8438 172.059 65.5781C172.059 65.2695 171.984 65.0039 171.836 64.7812C171.691 64.5547 171.494 64.3809 171.244 64.2598C170.994 64.1387 170.711 64.0781 170.395 64.0781C170.059 64.0781 169.766 64.1465 169.516 64.2832C169.27 64.4199 169.078 64.6133 168.941 64.8633C168.809 65.1094 168.742 65.3984 168.742 65.7305H167.734C167.734 65.2188 167.852 64.7695 168.086 64.3828C168.324 63.9961 168.646 63.6953 169.053 63.4805C169.463 63.2617 169.922 63.1523 170.43 63.1523C170.941 63.1523 171.395 63.2617 171.789 63.4805C172.184 63.6953 172.492 63.9863 172.715 64.3535C172.941 64.7168 173.055 65.125 173.055 65.5781C173.055 65.8984 172.996 66.2109 172.879 66.5156C172.766 66.8164 172.566 67.1543 172.281 67.5293C172 67.9043 171.609 68.3594 171.109 68.8945L169.152 70.9922V71.0625H173.207V72H167.699ZM178.855 70.3594V69.9023C178.855 69.582 178.92 69.2891 179.049 69.0234C179.182 68.7578 179.375 68.5449 179.629 68.3848C179.883 68.2246 180.191 68.1445 180.555 68.1445C180.926 68.1445 181.236 68.2246 181.486 68.3848C181.736 68.5449 181.924 68.7578 182.049 69.0234C182.178 69.2891 182.242 69.582 182.242 69.9023V70.3594C182.242 70.6797 182.178 70.9727 182.049 71.2383C181.92 71.5039 181.73 71.7168 181.48 71.877C181.23 72.0371 180.922 72.1172 180.555 72.1172C180.188 72.1172 179.877 72.0371 179.623 71.877C179.369 71.7168 179.178 71.5039 179.049 71.2383C178.92 70.9727 178.855 70.6797 178.855 70.3594ZM179.723 69.9023V70.3594C179.723 70.625 179.785 70.8633 179.91 71.0742C180.035 71.2812 180.25 71.3867 180.555 71.3906C180.855 71.3867 181.066 71.2812 181.188 71.0742C181.312 70.8633 181.375 70.625 181.375 70.3594V69.9023C181.375 69.6367 181.314 69.4004 181.193 69.1934C181.076 68.9863 180.863 68.8828 180.555 68.8828C180.258 68.8828 180.045 68.9863 179.916 69.1934C179.787 69.4004 179.723 69.6367 179.723 69.9023ZM174.508 65.3672V64.9102C174.508 64.5898 174.574 64.2969 174.707 64.0312C174.84 63.7656 175.031 63.5527 175.281 63.3926C175.535 63.2324 175.844 63.1523 176.207 63.1523C176.578 63.1523 176.889 63.2324 177.139 63.3926C177.393 63.5527 177.582 63.7656 177.707 64.0312C177.836 64.2969 177.898 64.5898 177.895 64.9102V65.3672C177.898 65.6836 177.834 65.9766 177.701 66.2461C177.572 66.5117 177.383 66.7246 177.133 66.8848C176.883 67.0449 176.574 67.125 176.207 67.125C175.84 67.125 175.529 67.0449 175.275 66.8848C175.021 66.7246 174.83 66.5117 174.701 66.2461C174.572 65.9766 174.508 65.6836 174.508 65.3672ZM175.375 64.9102V65.3672C175.375 65.6328 175.438 65.8711 175.562 66.082C175.688 66.2891 175.902 66.3906 176.207 66.3867C176.508 66.3906 176.719 66.2891 176.84 66.082C176.965 65.8711 177.027 65.6328 177.027 65.3672V64.9102C177.027 64.6445 176.967 64.4082 176.846 64.2012C176.729 63.9902 176.516 63.8867 176.207 63.8906C175.91 63.8867 175.697 63.9902 175.568 64.2012C175.439 64.4082 175.375 64.6445 175.375 64.9102ZM174.836 72L180.836 63.2695H181.809L175.809 72H174.836Z" fill="#FCFCFC"/>
<path d="M190.436 73.2073C190.275 73.5185 190.396 73.9018 190.707 74.0635C191.018 74.2252 191.402 74.104 191.564 73.7927L190.436 73.2073ZM207.635 62.4958C207.633 62.1451 207.347 61.8627 206.996 61.865L201.281 61.9024C200.93 61.9046 200.648 62.1908 200.65 62.5415C200.652 62.8922 200.938 63.1746 201.289 63.1724L206.369 63.1391L206.402 68.2191C206.405 68.5698 206.691 68.8523 207.042 68.85C207.392 68.8477 207.675 68.5615 207.672 68.2108L207.635 62.4958ZM200.536 69.0491L200.084 68.603L200.536 69.0491ZM196.006 67.0525L195.628 67.5629L196.006 67.0525ZM191 73.5L191.564 73.7927L194.687 67.7805L194.123 67.4878L193.56 67.195L190.436 73.2073L191 73.5ZM196.006 67.0525L195.628 67.5629L198.498 69.688L198.876 69.1777L199.254 68.6673L196.384 66.5422L196.006 67.0525ZM200.536 69.0491L200.988 69.4952L207.452 62.9461L207 62.5L206.548 62.0539L200.084 68.603L200.536 69.0491ZM198.876 69.1777L198.498 69.688C199.261 70.2523 200.322 70.1701 200.988 69.4952L200.536 69.0491L200.084 68.603C199.862 68.828 199.508 68.8554 199.254 68.6673L198.876 69.1777ZM194.123 67.4878L194.687 67.7805C194.867 67.4339 195.314 67.3304 195.628 67.5629L196.006 67.0525L196.384 66.5422C195.442 65.8449 194.1 66.1551 193.56 67.195L194.123 67.4878Z" fill="#FCFCFC"/>
<rect width="6" height="12" rx="3" transform="matrix(1 0 0 -1 20 166)" fill="#C6F56F"/>
<rect width="6" height="20" rx="3" transform="matrix(1 0 0 -1 42 166)" fill="#C6F56F"/>
<rect width="6" height="28" rx="3" transform="matrix(1 0 0 -1 64 166)" fill="#C6F56F"/>
<rect width="6" height="36" rx="3" transform="matrix(1 0 0 -1 86 166)" fill="#C6F56F"/>
<rect width="6" height="44" rx="3" transform="matrix(1 0 0 -1 108 166)" fill="#C6F56F"/>
<rect width="6" height="52" rx="3" transform="matrix(1 0 0 -1 130 166)" fill="#C6F56F"/>
<rect width="6" height="60" rx="3" transform="matrix(1 0 0 -1 152 166)" fill="#C6F56F"/>
<rect width="6" height="68" rx="3" transform="matrix(1 0 0 -1 174 166)" fill="#C6F56F"/>
<rect width="6" height="76" rx="3" transform="matrix(1 0 0 -1 196 166)" fill="#C6F56F"/>
</svg>
