<svg width="408" height="345" viewBox="0 0 408 345" fill="none" xmlns="http://www.w3.org/2000/svg">
<rect width="408" height="345" fill="#181D26"/>
<path d="M25.07 149.063C24.445 149.063 23.904 148.964 23.447 148.765C22.9899 148.562 22.6305 148.28 22.3688 147.921C22.111 147.558 21.9645 147.138 21.9294 146.661H23.0192C23.0505 146.989 23.1618 147.261 23.3532 147.476C23.5485 147.69 23.7966 147.851 24.0973 147.956C24.3981 148.062 24.7223 148.114 25.07 148.114C25.4723 148.114 25.8337 148.048 26.154 147.915C26.4782 147.782 26.7341 147.597 26.9216 147.358C27.1091 147.12 27.2028 146.841 27.2028 146.521C27.2028 146.231 27.1208 145.997 26.9567 145.817C26.7927 145.638 26.5778 145.491 26.3122 145.378C26.0505 145.265 25.7653 145.165 25.4567 145.079L24.3903 144.774C23.7067 144.579 23.1657 144.3 22.7673 143.937C22.3727 143.569 22.1755 143.091 22.1755 142.501C22.1755 142.013 22.3063 141.587 22.568 141.224C22.8337 140.856 23.1911 140.571 23.6403 140.368C24.0934 140.165 24.5973 140.063 25.152 140.063C25.7145 140.063 26.2145 140.165 26.652 140.368C27.0895 140.567 27.4372 140.841 27.695 141.188C27.9528 141.532 28.0895 141.923 28.1052 142.36H27.0739C27.0231 141.931 26.8161 141.597 26.4528 141.358C26.0934 141.12 25.6481 141.001 25.1169 141.001C24.7341 141.001 24.3981 141.063 24.1091 141.188C23.82 141.313 23.5954 141.485 23.4352 141.704C23.2751 141.923 23.195 142.173 23.195 142.454C23.195 142.763 23.2907 143.013 23.4821 143.204C23.6735 143.392 23.9001 143.538 24.1618 143.644C24.4274 143.749 24.6677 143.833 24.8825 143.896L25.7614 144.142C25.988 144.204 26.2399 144.288 26.5173 144.394C26.7985 144.499 27.068 144.642 27.3259 144.821C27.5876 145.001 27.8024 145.231 27.9704 145.513C28.1384 145.79 28.2223 146.134 28.2223 146.544C28.2223 147.013 28.0993 147.438 27.8532 147.821C27.6071 148.2 27.2497 148.503 26.7809 148.729C26.3122 148.952 25.7419 149.063 25.07 149.063Z" fill="#FCFCFC"/>
<path d="M81.0477 140.181H82.3133L85.2781 147.423H85.3836L88.3485 140.181H89.6551V148.911H88.618V142.278H88.536L85.7879 148.911H84.8387L82.1258 142.278H82.0438V148.911H81.0477V140.181Z" fill="#FCFCFC"/>
<path d="M141.082 141.118V140.181H147.633V141.118H144.89V148.911H143.836V141.118H141.082Z" fill="#FCFCFC"/>
<path d="M201.577 148.911L199.198 140.181H200.264L202.093 147.294H202.175L204.038 140.181H205.233L207.085 147.294H207.179L208.995 140.181H210.073L207.682 148.911H206.593L204.671 141.962H204.6L202.679 148.911H201.577Z" fill="#FCFCFC"/>
<path d="M260.359 141.118V140.181H266.91V141.118H264.168V148.911H263.113V141.118H260.359Z" fill="#FCFCFC"/>
<path d="M321.447 148.911V140.181H326.686V141.118H322.502V144.165H326.287V145.103H322.502V148.911H321.447Z" fill="#FCFCFC"/>
<path d="M382.918 149.063C382.293 149.063 381.752 148.964 381.295 148.765C380.838 148.562 380.478 148.28 380.216 147.921C379.959 147.558 379.812 147.138 379.777 146.661H380.867C380.898 146.989 381.009 147.261 381.201 147.476C381.396 147.69 381.644 147.851 381.945 147.956C382.246 148.062 382.57 148.114 382.918 148.114C383.32 148.114 383.681 148.048 384.002 147.915C384.326 147.782 384.582 147.597 384.769 147.358C384.957 147.12 385.05 146.841 385.05 146.521C385.05 146.231 384.968 145.997 384.804 145.817C384.64 145.638 384.425 145.491 384.16 145.378C383.898 145.265 383.613 145.165 383.304 145.079L382.238 144.774C381.554 144.579 381.013 144.3 380.615 143.937C380.22 143.569 380.023 143.091 380.023 142.501C380.023 142.013 380.154 141.587 380.416 141.224C380.681 140.856 381.039 140.571 381.488 140.368C381.941 140.165 382.445 140.063 383 140.063C383.562 140.063 384.062 140.165 384.5 140.368C384.937 140.567 385.285 140.841 385.543 141.188C385.8 141.532 385.937 141.923 385.953 142.36H384.922C384.871 141.931 384.664 141.597 384.3 141.358C383.941 141.12 383.496 141.001 382.965 141.001C382.582 141.001 382.246 141.063 381.957 141.188C381.668 141.313 381.443 141.485 381.283 141.704C381.123 141.923 381.043 142.173 381.043 142.454C381.043 142.763 381.138 143.013 381.33 143.204C381.521 143.392 381.748 143.538 382.009 143.644C382.275 143.749 382.515 143.833 382.73 143.896L383.609 144.142C383.836 144.204 384.088 144.288 384.365 144.394C384.646 144.499 384.916 144.642 385.174 144.821C385.435 145.001 385.65 145.231 385.818 145.513C385.986 145.79 386.07 146.134 386.07 146.544C386.07 147.013 385.947 147.438 385.701 147.821C385.455 148.2 385.097 148.503 384.629 148.729C384.16 148.952 383.59 149.063 382.918 149.063Z" fill="#FCFCFC"/>
<path d="M25.0781 64.2859C39.3019 61.6328 58.5923 54.084 79.6116 72.245C91.0254 82.1067 105.62 99.1287 123.93 90.0204C140.249 81.9026 161.329 49.6941 192.303 72.245C204.001 80.7348 226.636 96.8698 248.155 72.245C271.57 45.4504 272.366 24.2261 314.543 45.4504C335.625 56.0591 353.927 55.2651 382.923 29" stroke="#864FFE" stroke-width="2" stroke-linecap="round"/>
<path d="M25.3516 107.115C71.754 90.881 97.2754 152.126 135.789 100.473C154.027 76.0139 163.167 61.0713 193.097 55.1676C230.807 47.7291 263.911 126.654 305.2 82.7257C346.489 38.7977 349.457 100.473 382.651 77.2291" stroke="#C6F56F" stroke-width="2" stroke-linecap="round"/>
<g filter="url(#filter0_d_1115_22697)">
<mask id="path-10-inside-1_1115_22697" fill="white">
<ellipse cx="287.439" cy="36.8119" rx="4.27907" ry="4.46429"/>
</mask>
<ellipse cx="287.439" cy="36.8119" rx="4.27907" ry="4.46429" fill="#864FFE"/>
<path d="M291.718 36.8119H285.718C285.718 36.2059 286.252 35.2762 287.439 35.2762V41.2762V47.2762C293.353 47.2762 297.718 42.3491 297.718 36.8119H291.718ZM287.439 41.2762V35.2762C288.627 35.2762 289.16 36.2059 289.16 36.8119H283.16H277.16C277.16 42.3491 281.525 47.2762 287.439 47.2762V41.2762ZM283.16 36.8119H289.16C289.16 37.4179 288.627 38.3477 287.439 38.3477V32.3477V26.3477C281.525 26.3477 277.16 31.2748 277.16 36.8119H283.16ZM287.439 32.3477V38.3477C286.252 38.3477 285.718 37.4179 285.718 36.8119H291.718H297.718C297.718 31.2748 293.353 26.3477 287.439 26.3477V32.3477Z" fill="white" mask="url(#path-10-inside-1_1115_22697)"/>
</g>
<path d="M20 199H388" stroke="#2A333E" stroke-linecap="round"/>
<path d="M20 247C20 240.373 25.3726 235 32 235H376C382.627 235 388 240.373 388 247V313C388 319.627 382.627 325 376 325H32C25.3726 325 20 319.627 20 313V247Z" fill="#C6F56F"/>
<path d="M42.3984 279.18V257.359H43.7812V279.18H42.3984ZM43.0781 277.305C41.8281 277.305 40.7461 277.105 39.832 276.707C38.918 276.301 38.1992 275.738 37.6758 275.02C37.1602 274.293 36.8672 273.453 36.7969 272.5H38.9766C39.0391 273.156 39.2617 273.699 39.6445 274.129C40.0352 274.559 40.5312 274.879 41.1328 275.09C41.7344 275.301 42.3828 275.406 43.0781 275.406C43.8828 275.406 44.6055 275.273 45.2461 275.008C45.8945 274.742 46.4062 274.371 46.7812 273.895C47.1562 273.418 47.3438 272.859 47.3438 272.219C47.3438 271.641 47.1797 271.172 46.8516 270.812C46.5234 270.453 46.0938 270.16 45.5625 269.934C45.0391 269.707 44.4688 269.508 43.8516 269.336L41.7188 268.727C40.3516 268.336 39.2695 267.777 38.4727 267.051C37.6836 266.316 37.2891 265.359 37.2891 264.18C37.2891 263.203 37.5508 262.352 38.0742 261.625C38.6055 260.891 39.3203 260.32 40.2188 259.914C41.125 259.508 42.1328 259.305 43.2422 259.305C44.3672 259.305 45.3672 259.508 46.2422 259.914C47.1172 260.312 47.8125 260.859 48.3281 261.555C48.8438 262.242 49.1172 263.023 49.1484 263.898H47.0859C46.9844 263.039 46.5703 262.371 45.8438 261.895C45.125 261.418 44.2344 261.18 43.1719 261.18C42.4062 261.18 41.7344 261.305 41.1562 261.555C40.5781 261.805 40.1289 262.148 39.8086 262.586C39.4883 263.023 39.3281 263.523 39.3281 264.086C39.3281 264.703 39.5195 265.203 39.9023 265.586C40.2852 265.961 40.7383 266.254 41.2617 266.465C41.793 266.676 42.2734 266.844 42.7031 266.969L44.4609 267.461C44.9141 267.586 45.418 267.754 45.9727 267.965C46.5352 268.176 47.0742 268.461 47.5898 268.82C48.1133 269.18 48.543 269.641 48.8789 270.203C49.2148 270.758 49.3828 271.445 49.3828 272.266C49.3828 273.203 49.1367 274.055 48.6445 274.82C48.1523 275.578 47.4375 276.184 46.5 276.637C45.5625 277.082 44.4219 277.305 43.0781 277.305ZM57.1641 259.539V277H55.1016V261.766H54.9844L50.7422 264.602V262.445L55.1016 259.539H57.1641ZM60.4922 277L68.2969 261.555V261.414H59.2969V259.539H70.5V261.531L62.7188 277H60.4922ZM69.0234 281.148L70.0547 274.562H72.375L70.5703 281.148H69.0234ZM80.4609 277.234C79.4609 277.234 78.5586 277.039 77.7539 276.648C76.957 276.25 76.3164 275.703 75.832 275.008C75.3477 274.312 75.0859 273.523 75.0469 272.641H77.0859C77.1641 273.422 77.5195 274.07 78.1523 274.586C78.793 275.102 79.5625 275.359 80.4609 275.359C81.1797 275.359 81.8164 275.191 82.3711 274.855C82.9258 274.52 83.3633 274.059 83.6836 273.473C84.0039 272.887 84.1641 272.219 84.1641 271.469C84.1641 270.711 83.9961 270.031 83.6602 269.43C83.332 268.828 82.8789 268.355 82.3008 268.012C81.7227 267.66 81.0625 267.484 80.3203 267.484C79.7812 267.484 79.2305 267.57 78.668 267.742C78.1133 267.906 77.6562 268.117 77.2969 268.375L75.3047 268.141L76.3594 259.539H85.4297V261.414H78.1406L77.5312 266.57H77.625C77.9844 266.281 78.4336 266.047 78.9727 265.867C79.5117 265.68 80.0781 265.586 80.6719 265.586C81.7422 265.586 82.6953 265.84 83.5312 266.348C84.3672 266.855 85.0234 267.551 85.5 268.434C85.9844 269.309 86.2266 270.312 86.2266 271.445C86.2266 272.555 85.9766 273.547 85.4766 274.422C84.9766 275.297 84.293 275.984 83.4258 276.484C82.5586 276.984 81.5703 277.234 80.4609 277.234ZM88.3359 277V275.477L94.1016 269.148C94.7734 268.414 95.3242 267.773 95.7539 267.227C96.1914 266.68 96.5156 266.164 96.7266 265.68C96.9453 265.195 97.0547 264.688 97.0547 264.156C97.0547 263.539 96.9062 263.008 96.6094 262.562C96.3203 262.109 95.9258 261.762 95.4258 261.52C94.9258 261.277 94.3594 261.156 93.7266 261.156C93.0547 261.156 92.4688 261.293 91.9688 261.566C91.4766 261.84 91.0938 262.227 90.8203 262.727C90.5547 263.219 90.4219 263.797 90.4219 264.461H88.4062C88.4062 263.438 88.6406 262.539 89.1094 261.766C89.5859 260.992 90.2305 260.391 91.043 259.961C91.8633 259.523 92.7812 259.305 93.7969 259.305C94.8203 259.305 95.7266 259.523 96.5156 259.961C97.3047 260.391 97.9219 260.973 98.3672 261.707C98.8203 262.434 99.0469 263.25 99.0469 264.156C99.0469 264.797 98.9297 265.422 98.6953 266.031C98.4688 266.633 98.0703 267.309 97.5 268.059C96.9375 268.809 96.1562 269.719 95.1562 270.789L91.2422 274.984V275.125H99.3516V277H88.3359ZM107.484 259.539V277H105.422V261.766H105.305L101.062 264.602V262.445L105.422 259.539H107.484ZM111.879 277.141C111.457 277.141 111.094 276.992 110.789 276.695C110.492 276.391 110.344 276.027 110.344 275.605C110.344 275.184 110.492 274.824 110.789 274.527C111.094 274.223 111.457 274.07 111.879 274.07C112.301 274.07 112.66 274.223 112.957 274.527C113.262 274.824 113.414 275.184 113.414 275.605C113.414 276.027 113.262 276.391 112.957 276.695C112.66 276.992 112.301 277.141 111.879 277.141ZM121.055 277.234C119.773 277.234 118.68 276.883 117.773 276.18C116.867 275.477 116.176 274.461 115.699 273.133C115.223 271.797 114.984 270.18 114.984 268.281C114.984 266.391 115.223 264.777 115.699 263.441C116.184 262.098 116.879 261.074 117.785 260.371C118.691 259.66 119.781 259.305 121.055 259.305C122.328 259.305 123.418 259.66 124.324 260.371C125.23 261.074 125.922 262.098 126.398 263.441C126.883 264.777 127.125 266.391 127.125 268.281C127.125 270.18 126.887 271.797 126.41 273.133C125.934 274.461 125.242 275.477 124.336 276.18C123.438 276.883 122.344 277.234 121.055 277.234ZM121.055 275.383C121.922 275.383 122.656 275.105 123.258 274.551C123.859 273.988 124.316 273.176 124.629 272.113C124.949 271.051 125.109 269.773 125.109 268.281C125.109 266.781 124.949 265.5 124.629 264.438C124.316 263.375 123.859 262.562 123.258 262C122.656 261.438 121.922 261.156 121.055 261.156C119.758 261.156 118.758 261.781 118.055 263.031C117.352 264.281 117 266.031 117 268.281C117 269.773 117.156 271.051 117.469 272.113C117.789 273.176 118.25 273.988 118.852 274.551C119.461 275.105 120.195 275.383 121.055 275.383ZM134.93 277.234C133.648 277.234 132.555 276.883 131.648 276.18C130.742 275.477 130.051 274.461 129.574 273.133C129.098 271.797 128.859 270.18 128.859 268.281C128.859 266.391 129.098 264.777 129.574 263.441C130.059 262.098 130.754 261.074 131.66 260.371C132.566 259.66 133.656 259.305 134.93 259.305C136.203 259.305 137.293 259.66 138.199 260.371C139.105 261.074 139.797 262.098 140.273 263.441C140.758 264.777 141 266.391 141 268.281C141 270.18 140.762 271.797 140.285 273.133C139.809 274.461 139.117 275.477 138.211 276.18C137.312 276.883 136.219 277.234 134.93 277.234ZM134.93 275.383C135.797 275.383 136.531 275.105 137.133 274.551C137.734 273.988 138.191 273.176 138.504 272.113C138.824 271.051 138.984 269.773 138.984 268.281C138.984 266.781 138.824 265.5 138.504 264.438C138.191 263.375 137.734 262.562 137.133 262C136.531 261.438 135.797 261.156 134.93 261.156C133.633 261.156 132.633 261.781 131.93 263.031C131.227 264.281 130.875 266.031 130.875 268.281C130.875 269.773 131.031 271.051 131.344 272.113C131.664 273.176 132.125 273.988 132.727 274.551C133.336 275.105 134.07 275.383 134.93 275.383Z" fill="#1A1A1C"/>
<path d="M42.3984 279.18V257.359H43.7812V279.18H42.3984ZM43.0781 277.305C41.8281 277.305 40.7461 277.105 39.832 276.707C38.918 276.301 38.1992 275.738 37.6758 275.02C37.1602 274.293 36.8672 273.453 36.7969 272.5H38.9766C39.0391 273.156 39.2617 273.699 39.6445 274.129C40.0352 274.559 40.5312 274.879 41.1328 275.09C41.7344 275.301 42.3828 275.406 43.0781 275.406C43.8828 275.406 44.6055 275.273 45.2461 275.008C45.8945 274.742 46.4062 274.371 46.7812 273.895C47.1562 273.418 47.3438 272.859 47.3438 272.219C47.3438 271.641 47.1797 271.172 46.8516 270.812C46.5234 270.453 46.0938 270.16 45.5625 269.934C45.0391 269.707 44.4688 269.508 43.8516 269.336L41.7188 268.727C40.3516 268.336 39.2695 267.777 38.4727 267.051C37.6836 266.316 37.2891 265.359 37.2891 264.18C37.2891 263.203 37.5508 262.352 38.0742 261.625C38.6055 260.891 39.3203 260.32 40.2188 259.914C41.125 259.508 42.1328 259.305 43.2422 259.305C44.3672 259.305 45.3672 259.508 46.2422 259.914C47.1172 260.312 47.8125 260.859 48.3281 261.555C48.8438 262.242 49.1172 263.023 49.1484 263.898H47.0859C46.9844 263.039 46.5703 262.371 45.8438 261.895C45.125 261.418 44.2344 261.18 43.1719 261.18C42.4062 261.18 41.7344 261.305 41.1562 261.555C40.5781 261.805 40.1289 262.148 39.8086 262.586C39.4883 263.023 39.3281 263.523 39.3281 264.086C39.3281 264.703 39.5195 265.203 39.9023 265.586C40.2852 265.961 40.7383 266.254 41.2617 266.465C41.793 266.676 42.2734 266.844 42.7031 266.969L44.4609 267.461C44.9141 267.586 45.418 267.754 45.9727 267.965C46.5352 268.176 47.0742 268.461 47.5898 268.82C48.1133 269.18 48.543 269.641 48.8789 270.203C49.2148 270.758 49.3828 271.445 49.3828 272.266C49.3828 273.203 49.1367 274.055 48.6445 274.82C48.1523 275.578 47.4375 276.184 46.5 276.637C45.5625 277.082 44.4219 277.305 43.0781 277.305ZM57.1641 259.539V277H55.1016V261.766H54.9844L50.7422 264.602V262.445L55.1016 259.539H57.1641ZM60.4922 277L68.2969 261.555V261.414H59.2969V259.539H70.5V261.531L62.7188 277H60.4922ZM69.0234 281.148L70.0547 274.562H72.375L70.5703 281.148H69.0234ZM80.4609 277.234C79.4609 277.234 78.5586 277.039 77.7539 276.648C76.957 276.25 76.3164 275.703 75.832 275.008C75.3477 274.312 75.0859 273.523 75.0469 272.641H77.0859C77.1641 273.422 77.5195 274.07 78.1523 274.586C78.793 275.102 79.5625 275.359 80.4609 275.359C81.1797 275.359 81.8164 275.191 82.3711 274.855C82.9258 274.52 83.3633 274.059 83.6836 273.473C84.0039 272.887 84.1641 272.219 84.1641 271.469C84.1641 270.711 83.9961 270.031 83.6602 269.43C83.332 268.828 82.8789 268.355 82.3008 268.012C81.7227 267.66 81.0625 267.484 80.3203 267.484C79.7812 267.484 79.2305 267.57 78.668 267.742C78.1133 267.906 77.6562 268.117 77.2969 268.375L75.3047 268.141L76.3594 259.539H85.4297V261.414H78.1406L77.5312 266.57H77.625C77.9844 266.281 78.4336 266.047 78.9727 265.867C79.5117 265.68 80.0781 265.586 80.6719 265.586C81.7422 265.586 82.6953 265.84 83.5312 266.348C84.3672 266.855 85.0234 267.551 85.5 268.434C85.9844 269.309 86.2266 270.312 86.2266 271.445C86.2266 272.555 85.9766 273.547 85.4766 274.422C84.9766 275.297 84.293 275.984 83.4258 276.484C82.5586 276.984 81.5703 277.234 80.4609 277.234ZM88.3359 277V275.477L94.1016 269.148C94.7734 268.414 95.3242 267.773 95.7539 267.227C96.1914 266.68 96.5156 266.164 96.7266 265.68C96.9453 265.195 97.0547 264.688 97.0547 264.156C97.0547 263.539 96.9062 263.008 96.6094 262.562C96.3203 262.109 95.9258 261.762 95.4258 261.52C94.9258 261.277 94.3594 261.156 93.7266 261.156C93.0547 261.156 92.4688 261.293 91.9688 261.566C91.4766 261.84 91.0938 262.227 90.8203 262.727C90.5547 263.219 90.4219 263.797 90.4219 264.461H88.4062C88.4062 263.438 88.6406 262.539 89.1094 261.766C89.5859 260.992 90.2305 260.391 91.043 259.961C91.8633 259.523 92.7812 259.305 93.7969 259.305C94.8203 259.305 95.7266 259.523 96.5156 259.961C97.3047 260.391 97.9219 260.973 98.3672 261.707C98.8203 262.434 99.0469 263.25 99.0469 264.156C99.0469 264.797 98.9297 265.422 98.6953 266.031C98.4688 266.633 98.0703 267.309 97.5 268.059C96.9375 268.809 96.1562 269.719 95.1562 270.789L91.2422 274.984V275.125H99.3516V277H88.3359ZM107.484 259.539V277H105.422V261.766H105.305L101.062 264.602V262.445L105.422 259.539H107.484ZM111.879 277.141C111.457 277.141 111.094 276.992 110.789 276.695C110.492 276.391 110.344 276.027 110.344 275.605C110.344 275.184 110.492 274.824 110.789 274.527C111.094 274.223 111.457 274.07 111.879 274.07C112.301 274.07 112.66 274.223 112.957 274.527C113.262 274.824 113.414 275.184 113.414 275.605C113.414 276.027 113.262 276.391 112.957 276.695C112.66 276.992 112.301 277.141 111.879 277.141ZM121.055 277.234C119.773 277.234 118.68 276.883 117.773 276.18C116.867 275.477 116.176 274.461 115.699 273.133C115.223 271.797 114.984 270.18 114.984 268.281C114.984 266.391 115.223 264.777 115.699 263.441C116.184 262.098 116.879 261.074 117.785 260.371C118.691 259.66 119.781 259.305 121.055 259.305C122.328 259.305 123.418 259.66 124.324 260.371C125.23 261.074 125.922 262.098 126.398 263.441C126.883 264.777 127.125 266.391 127.125 268.281C127.125 270.18 126.887 271.797 126.41 273.133C125.934 274.461 125.242 275.477 124.336 276.18C123.438 276.883 122.344 277.234 121.055 277.234ZM121.055 275.383C121.922 275.383 122.656 275.105 123.258 274.551C123.859 273.988 124.316 273.176 124.629 272.113C124.949 271.051 125.109 269.773 125.109 268.281C125.109 266.781 124.949 265.5 124.629 264.438C124.316 263.375 123.859 262.562 123.258 262C122.656 261.438 121.922 261.156 121.055 261.156C119.758 261.156 118.758 261.781 118.055 263.031C117.352 264.281 117 266.031 117 268.281C117 269.773 117.156 271.051 117.469 272.113C117.789 273.176 118.25 273.988 118.852 274.551C119.461 275.105 120.195 275.383 121.055 275.383ZM134.93 277.234C133.648 277.234 132.555 276.883 131.648 276.18C130.742 275.477 130.051 274.461 129.574 273.133C129.098 271.797 128.859 270.18 128.859 268.281C128.859 266.391 129.098 264.777 129.574 263.441C130.059 262.098 130.754 261.074 131.66 260.371C132.566 259.66 133.656 259.305 134.93 259.305C136.203 259.305 137.293 259.66 138.199 260.371C139.105 261.074 139.797 262.098 140.273 263.441C140.758 264.777 141 266.391 141 268.281C141 270.18 140.762 271.797 140.285 273.133C139.809 274.461 139.117 275.477 138.211 276.18C137.312 276.883 136.219 277.234 134.93 277.234ZM134.93 275.383C135.797 275.383 136.531 275.105 137.133 274.551C137.734 273.988 138.191 273.176 138.504 272.113C138.824 271.051 138.984 269.773 138.984 268.281C138.984 266.781 138.824 265.5 138.504 264.438C138.191 263.375 137.734 262.562 137.133 262C136.531 261.438 135.797 261.156 134.93 261.156C133.633 261.156 132.633 261.781 131.93 263.031C131.227 264.281 130.875 266.031 130.875 268.281C130.875 269.773 131.031 271.051 131.344 272.113C131.664 273.176 132.125 273.988 132.727 274.551C133.336 275.105 134.07 275.383 134.93 275.383Z" fill="black" fill-opacity="0.2"/>
<path d="M42.3984 279.18V257.359H43.7812V279.18H42.3984ZM43.0781 277.305C41.8281 277.305 40.7461 277.105 39.832 276.707C38.918 276.301 38.1992 275.738 37.6758 275.02C37.1602 274.293 36.8672 273.453 36.7969 272.5H38.9766C39.0391 273.156 39.2617 273.699 39.6445 274.129C40.0352 274.559 40.5312 274.879 41.1328 275.09C41.7344 275.301 42.3828 275.406 43.0781 275.406C43.8828 275.406 44.6055 275.273 45.2461 275.008C45.8945 274.742 46.4062 274.371 46.7812 273.895C47.1562 273.418 47.3438 272.859 47.3438 272.219C47.3438 271.641 47.1797 271.172 46.8516 270.812C46.5234 270.453 46.0938 270.16 45.5625 269.934C45.0391 269.707 44.4688 269.508 43.8516 269.336L41.7188 268.727C40.3516 268.336 39.2695 267.777 38.4727 267.051C37.6836 266.316 37.2891 265.359 37.2891 264.18C37.2891 263.203 37.5508 262.352 38.0742 261.625C38.6055 260.891 39.3203 260.32 40.2188 259.914C41.125 259.508 42.1328 259.305 43.2422 259.305C44.3672 259.305 45.3672 259.508 46.2422 259.914C47.1172 260.312 47.8125 260.859 48.3281 261.555C48.8438 262.242 49.1172 263.023 49.1484 263.898H47.0859C46.9844 263.039 46.5703 262.371 45.8438 261.895C45.125 261.418 44.2344 261.18 43.1719 261.18C42.4062 261.18 41.7344 261.305 41.1562 261.555C40.5781 261.805 40.1289 262.148 39.8086 262.586C39.4883 263.023 39.3281 263.523 39.3281 264.086C39.3281 264.703 39.5195 265.203 39.9023 265.586C40.2852 265.961 40.7383 266.254 41.2617 266.465C41.793 266.676 42.2734 266.844 42.7031 266.969L44.4609 267.461C44.9141 267.586 45.418 267.754 45.9727 267.965C46.5352 268.176 47.0742 268.461 47.5898 268.82C48.1133 269.18 48.543 269.641 48.8789 270.203C49.2148 270.758 49.3828 271.445 49.3828 272.266C49.3828 273.203 49.1367 274.055 48.6445 274.82C48.1523 275.578 47.4375 276.184 46.5 276.637C45.5625 277.082 44.4219 277.305 43.0781 277.305ZM57.1641 259.539V277H55.1016V261.766H54.9844L50.7422 264.602V262.445L55.1016 259.539H57.1641ZM60.4922 277L68.2969 261.555V261.414H59.2969V259.539H70.5V261.531L62.7188 277H60.4922ZM69.0234 281.148L70.0547 274.562H72.375L70.5703 281.148H69.0234ZM80.4609 277.234C79.4609 277.234 78.5586 277.039 77.7539 276.648C76.957 276.25 76.3164 275.703 75.832 275.008C75.3477 274.312 75.0859 273.523 75.0469 272.641H77.0859C77.1641 273.422 77.5195 274.07 78.1523 274.586C78.793 275.102 79.5625 275.359 80.4609 275.359C81.1797 275.359 81.8164 275.191 82.3711 274.855C82.9258 274.52 83.3633 274.059 83.6836 273.473C84.0039 272.887 84.1641 272.219 84.1641 271.469C84.1641 270.711 83.9961 270.031 83.6602 269.43C83.332 268.828 82.8789 268.355 82.3008 268.012C81.7227 267.66 81.0625 267.484 80.3203 267.484C79.7812 267.484 79.2305 267.57 78.668 267.742C78.1133 267.906 77.6562 268.117 77.2969 268.375L75.3047 268.141L76.3594 259.539H85.4297V261.414H78.1406L77.5312 266.57H77.625C77.9844 266.281 78.4336 266.047 78.9727 265.867C79.5117 265.68 80.0781 265.586 80.6719 265.586C81.7422 265.586 82.6953 265.84 83.5312 266.348C84.3672 266.855 85.0234 267.551 85.5 268.434C85.9844 269.309 86.2266 270.312 86.2266 271.445C86.2266 272.555 85.9766 273.547 85.4766 274.422C84.9766 275.297 84.293 275.984 83.4258 276.484C82.5586 276.984 81.5703 277.234 80.4609 277.234ZM88.3359 277V275.477L94.1016 269.148C94.7734 268.414 95.3242 267.773 95.7539 267.227C96.1914 266.68 96.5156 266.164 96.7266 265.68C96.9453 265.195 97.0547 264.688 97.0547 264.156C97.0547 263.539 96.9062 263.008 96.6094 262.562C96.3203 262.109 95.9258 261.762 95.4258 261.52C94.9258 261.277 94.3594 261.156 93.7266 261.156C93.0547 261.156 92.4688 261.293 91.9688 261.566C91.4766 261.84 91.0938 262.227 90.8203 262.727C90.5547 263.219 90.4219 263.797 90.4219 264.461H88.4062C88.4062 263.438 88.6406 262.539 89.1094 261.766C89.5859 260.992 90.2305 260.391 91.043 259.961C91.8633 259.523 92.7812 259.305 93.7969 259.305C94.8203 259.305 95.7266 259.523 96.5156 259.961C97.3047 260.391 97.9219 260.973 98.3672 261.707C98.8203 262.434 99.0469 263.25 99.0469 264.156C99.0469 264.797 98.9297 265.422 98.6953 266.031C98.4688 266.633 98.0703 267.309 97.5 268.059C96.9375 268.809 96.1562 269.719 95.1562 270.789L91.2422 274.984V275.125H99.3516V277H88.3359ZM107.484 259.539V277H105.422V261.766H105.305L101.062 264.602V262.445L105.422 259.539H107.484ZM111.879 277.141C111.457 277.141 111.094 276.992 110.789 276.695C110.492 276.391 110.344 276.027 110.344 275.605C110.344 275.184 110.492 274.824 110.789 274.527C111.094 274.223 111.457 274.07 111.879 274.07C112.301 274.07 112.66 274.223 112.957 274.527C113.262 274.824 113.414 275.184 113.414 275.605C113.414 276.027 113.262 276.391 112.957 276.695C112.66 276.992 112.301 277.141 111.879 277.141ZM121.055 277.234C119.773 277.234 118.68 276.883 117.773 276.18C116.867 275.477 116.176 274.461 115.699 273.133C115.223 271.797 114.984 270.18 114.984 268.281C114.984 266.391 115.223 264.777 115.699 263.441C116.184 262.098 116.879 261.074 117.785 260.371C118.691 259.66 119.781 259.305 121.055 259.305C122.328 259.305 123.418 259.66 124.324 260.371C125.23 261.074 125.922 262.098 126.398 263.441C126.883 264.777 127.125 266.391 127.125 268.281C127.125 270.18 126.887 271.797 126.41 273.133C125.934 274.461 125.242 275.477 124.336 276.18C123.438 276.883 122.344 277.234 121.055 277.234ZM121.055 275.383C121.922 275.383 122.656 275.105 123.258 274.551C123.859 273.988 124.316 273.176 124.629 272.113C124.949 271.051 125.109 269.773 125.109 268.281C125.109 266.781 124.949 265.5 124.629 264.438C124.316 263.375 123.859 262.562 123.258 262C122.656 261.438 121.922 261.156 121.055 261.156C119.758 261.156 118.758 261.781 118.055 263.031C117.352 264.281 117 266.031 117 268.281C117 269.773 117.156 271.051 117.469 272.113C117.789 273.176 118.25 273.988 118.852 274.551C119.461 275.105 120.195 275.383 121.055 275.383ZM134.93 277.234C133.648 277.234 132.555 276.883 131.648 276.18C130.742 275.477 130.051 274.461 129.574 273.133C129.098 271.797 128.859 270.18 128.859 268.281C128.859 266.391 129.098 264.777 129.574 263.441C130.059 262.098 130.754 261.074 131.66 260.371C132.566 259.66 133.656 259.305 134.93 259.305C136.203 259.305 137.293 259.66 138.199 260.371C139.105 261.074 139.797 262.098 140.273 263.441C140.758 264.777 141 266.391 141 268.281C141 270.18 140.762 271.797 140.285 273.133C139.809 274.461 139.117 275.477 138.211 276.18C137.312 276.883 136.219 277.234 134.93 277.234ZM134.93 275.383C135.797 275.383 136.531 275.105 137.133 274.551C137.734 273.988 138.191 273.176 138.504 272.113C138.824 271.051 138.984 269.773 138.984 268.281C138.984 266.781 138.824 265.5 138.504 264.438C138.191 263.375 137.734 262.562 137.133 262C136.531 261.438 135.797 261.156 134.93 261.156C133.633 261.156 132.633 261.781 131.93 263.031C131.227 264.281 130.875 266.031 130.875 268.281C130.875 269.773 131.031 271.051 131.344 272.113C131.664 273.176 132.125 273.988 132.727 274.551C133.336 275.105 134.07 275.383 134.93 275.383Z" fill="black" fill-opacity="0.2"/>
<path d="M42.3984 279.18V257.359H43.7812V279.18H42.3984ZM43.0781 277.305C41.8281 277.305 40.7461 277.105 39.832 276.707C38.918 276.301 38.1992 275.738 37.6758 275.02C37.1602 274.293 36.8672 273.453 36.7969 272.5H38.9766C39.0391 273.156 39.2617 273.699 39.6445 274.129C40.0352 274.559 40.5312 274.879 41.1328 275.09C41.7344 275.301 42.3828 275.406 43.0781 275.406C43.8828 275.406 44.6055 275.273 45.2461 275.008C45.8945 274.742 46.4062 274.371 46.7812 273.895C47.1562 273.418 47.3438 272.859 47.3438 272.219C47.3438 271.641 47.1797 271.172 46.8516 270.812C46.5234 270.453 46.0938 270.16 45.5625 269.934C45.0391 269.707 44.4688 269.508 43.8516 269.336L41.7188 268.727C40.3516 268.336 39.2695 267.777 38.4727 267.051C37.6836 266.316 37.2891 265.359 37.2891 264.18C37.2891 263.203 37.5508 262.352 38.0742 261.625C38.6055 260.891 39.3203 260.32 40.2188 259.914C41.125 259.508 42.1328 259.305 43.2422 259.305C44.3672 259.305 45.3672 259.508 46.2422 259.914C47.1172 260.312 47.8125 260.859 48.3281 261.555C48.8438 262.242 49.1172 263.023 49.1484 263.898H47.0859C46.9844 263.039 46.5703 262.371 45.8438 261.895C45.125 261.418 44.2344 261.18 43.1719 261.18C42.4062 261.18 41.7344 261.305 41.1562 261.555C40.5781 261.805 40.1289 262.148 39.8086 262.586C39.4883 263.023 39.3281 263.523 39.3281 264.086C39.3281 264.703 39.5195 265.203 39.9023 265.586C40.2852 265.961 40.7383 266.254 41.2617 266.465C41.793 266.676 42.2734 266.844 42.7031 266.969L44.4609 267.461C44.9141 267.586 45.418 267.754 45.9727 267.965C46.5352 268.176 47.0742 268.461 47.5898 268.82C48.1133 269.18 48.543 269.641 48.8789 270.203C49.2148 270.758 49.3828 271.445 49.3828 272.266C49.3828 273.203 49.1367 274.055 48.6445 274.82C48.1523 275.578 47.4375 276.184 46.5 276.637C45.5625 277.082 44.4219 277.305 43.0781 277.305ZM57.1641 259.539V277H55.1016V261.766H54.9844L50.7422 264.602V262.445L55.1016 259.539H57.1641ZM60.4922 277L68.2969 261.555V261.414H59.2969V259.539H70.5V261.531L62.7188 277H60.4922ZM69.0234 281.148L70.0547 274.562H72.375L70.5703 281.148H69.0234ZM80.4609 277.234C79.4609 277.234 78.5586 277.039 77.7539 276.648C76.957 276.25 76.3164 275.703 75.832 275.008C75.3477 274.312 75.0859 273.523 75.0469 272.641H77.0859C77.1641 273.422 77.5195 274.07 78.1523 274.586C78.793 275.102 79.5625 275.359 80.4609 275.359C81.1797 275.359 81.8164 275.191 82.3711 274.855C82.9258 274.52 83.3633 274.059 83.6836 273.473C84.0039 272.887 84.1641 272.219 84.1641 271.469C84.1641 270.711 83.9961 270.031 83.6602 269.43C83.332 268.828 82.8789 268.355 82.3008 268.012C81.7227 267.66 81.0625 267.484 80.3203 267.484C79.7812 267.484 79.2305 267.57 78.668 267.742C78.1133 267.906 77.6562 268.117 77.2969 268.375L75.3047 268.141L76.3594 259.539H85.4297V261.414H78.1406L77.5312 266.57H77.625C77.9844 266.281 78.4336 266.047 78.9727 265.867C79.5117 265.68 80.0781 265.586 80.6719 265.586C81.7422 265.586 82.6953 265.84 83.5312 266.348C84.3672 266.855 85.0234 267.551 85.5 268.434C85.9844 269.309 86.2266 270.312 86.2266 271.445C86.2266 272.555 85.9766 273.547 85.4766 274.422C84.9766 275.297 84.293 275.984 83.4258 276.484C82.5586 276.984 81.5703 277.234 80.4609 277.234ZM88.3359 277V275.477L94.1016 269.148C94.7734 268.414 95.3242 267.773 95.7539 267.227C96.1914 266.68 96.5156 266.164 96.7266 265.68C96.9453 265.195 97.0547 264.688 97.0547 264.156C97.0547 263.539 96.9062 263.008 96.6094 262.562C96.3203 262.109 95.9258 261.762 95.4258 261.52C94.9258 261.277 94.3594 261.156 93.7266 261.156C93.0547 261.156 92.4688 261.293 91.9688 261.566C91.4766 261.84 91.0938 262.227 90.8203 262.727C90.5547 263.219 90.4219 263.797 90.4219 264.461H88.4062C88.4062 263.438 88.6406 262.539 89.1094 261.766C89.5859 260.992 90.2305 260.391 91.043 259.961C91.8633 259.523 92.7812 259.305 93.7969 259.305C94.8203 259.305 95.7266 259.523 96.5156 259.961C97.3047 260.391 97.9219 260.973 98.3672 261.707C98.8203 262.434 99.0469 263.25 99.0469 264.156C99.0469 264.797 98.9297 265.422 98.6953 266.031C98.4688 266.633 98.0703 267.309 97.5 268.059C96.9375 268.809 96.1562 269.719 95.1562 270.789L91.2422 274.984V275.125H99.3516V277H88.3359ZM107.484 259.539V277H105.422V261.766H105.305L101.062 264.602V262.445L105.422 259.539H107.484ZM111.879 277.141C111.457 277.141 111.094 276.992 110.789 276.695C110.492 276.391 110.344 276.027 110.344 275.605C110.344 275.184 110.492 274.824 110.789 274.527C111.094 274.223 111.457 274.07 111.879 274.07C112.301 274.07 112.66 274.223 112.957 274.527C113.262 274.824 113.414 275.184 113.414 275.605C113.414 276.027 113.262 276.391 112.957 276.695C112.66 276.992 112.301 277.141 111.879 277.141ZM121.055 277.234C119.773 277.234 118.68 276.883 117.773 276.18C116.867 275.477 116.176 274.461 115.699 273.133C115.223 271.797 114.984 270.18 114.984 268.281C114.984 266.391 115.223 264.777 115.699 263.441C116.184 262.098 116.879 261.074 117.785 260.371C118.691 259.66 119.781 259.305 121.055 259.305C122.328 259.305 123.418 259.66 124.324 260.371C125.23 261.074 125.922 262.098 126.398 263.441C126.883 264.777 127.125 266.391 127.125 268.281C127.125 270.18 126.887 271.797 126.41 273.133C125.934 274.461 125.242 275.477 124.336 276.18C123.438 276.883 122.344 277.234 121.055 277.234ZM121.055 275.383C121.922 275.383 122.656 275.105 123.258 274.551C123.859 273.988 124.316 273.176 124.629 272.113C124.949 271.051 125.109 269.773 125.109 268.281C125.109 266.781 124.949 265.5 124.629 264.438C124.316 263.375 123.859 262.562 123.258 262C122.656 261.438 121.922 261.156 121.055 261.156C119.758 261.156 118.758 261.781 118.055 263.031C117.352 264.281 117 266.031 117 268.281C117 269.773 117.156 271.051 117.469 272.113C117.789 273.176 118.25 273.988 118.852 274.551C119.461 275.105 120.195 275.383 121.055 275.383ZM134.93 277.234C133.648 277.234 132.555 276.883 131.648 276.18C130.742 275.477 130.051 274.461 129.574 273.133C129.098 271.797 128.859 270.18 128.859 268.281C128.859 266.391 129.098 264.777 129.574 263.441C130.059 262.098 130.754 261.074 131.66 260.371C132.566 259.66 133.656 259.305 134.93 259.305C136.203 259.305 137.293 259.66 138.199 260.371C139.105 261.074 139.797 262.098 140.273 263.441C140.758 264.777 141 266.391 141 268.281C141 270.18 140.762 271.797 140.285 273.133C139.809 274.461 139.117 275.477 138.211 276.18C137.312 276.883 136.219 277.234 134.93 277.234ZM134.93 275.383C135.797 275.383 136.531 275.105 137.133 274.551C137.734 273.988 138.191 273.176 138.504 272.113C138.824 271.051 138.984 269.773 138.984 268.281C138.984 266.781 138.824 265.5 138.504 264.438C138.191 263.375 137.734 262.562 137.133 262C136.531 261.438 135.797 261.156 134.93 261.156C133.633 261.156 132.633 261.781 131.93 263.031C131.227 264.281 130.875 266.031 130.875 268.281C130.875 269.773 131.031 271.051 131.344 272.113C131.664 273.176 132.125 273.988 132.727 274.551C133.336 275.105 134.07 275.383 134.93 275.383Z" fill="black" fill-opacity="0.2"/>
<path d="M37.0312 303V291.359H40.9688C41.8802 291.359 42.625 291.516 43.2031 291.828C43.7865 292.135 44.2188 292.56 44.5 293.102C44.7812 293.638 44.9219 294.25 44.9219 294.938C44.9219 295.62 44.7812 296.227 44.5 296.758C44.224 297.289 43.7943 297.706 43.2109 298.008C42.6328 298.305 41.8906 298.453 40.9844 298.453H37.8125V297.188H40.9375C41.5625 297.188 42.0651 297.096 42.4453 296.914C42.8255 296.732 43.1016 296.474 43.2734 296.141C43.4453 295.802 43.5312 295.401 43.5312 294.938C43.5312 294.469 43.4427 294.06 43.2656 293.711C43.0938 293.362 42.8177 293.091 42.4375 292.898C42.0573 292.706 41.5521 292.609 40.9219 292.609H38.4375V303H37.0312ZM43.7344 303L40.9219 297.766H42.5156L45.375 303H43.7344ZM49.9062 303.188C49.0677 303.188 48.3411 303 47.7266 302.625C47.1172 302.25 46.6484 301.727 46.3203 301.055C45.9922 300.378 45.8281 299.594 45.8281 298.703C45.8281 297.807 45.9896 297.018 46.3125 296.336C46.6354 295.654 47.0885 295.12 47.6719 294.734C48.2604 294.349 48.9479 294.156 49.7344 294.156C50.1875 294.156 50.638 294.232 51.0859 294.383C51.5339 294.534 51.9401 294.779 52.3047 295.117C52.6745 295.456 52.9688 295.904 53.1875 296.461C53.4062 297.018 53.5156 297.703 53.5156 298.516V299.094H46.7812V297.938H52.7891L52.1719 298.375C52.1719 297.792 52.0807 297.273 51.8984 296.82C51.7161 296.367 51.4427 296.01 51.0781 295.75C50.7188 295.49 50.2708 295.359 49.7344 295.359C49.1979 295.359 48.737 295.492 48.3516 295.758C47.9714 296.018 47.6797 296.359 47.4766 296.781C47.2734 297.203 47.1719 297.656 47.1719 298.141V298.906C47.1719 299.568 47.2865 300.128 47.5156 300.586C47.7448 301.044 48.0651 301.393 48.4766 301.633C48.888 301.867 49.3646 301.984 49.9062 301.984C50.2552 301.984 50.5729 301.935 50.8594 301.836C51.1458 301.732 51.3932 301.578 51.6016 301.375C51.8099 301.167 51.9688 300.911 52.0781 300.609L53.375 300.984C53.2396 301.422 53.0104 301.807 52.6875 302.141C52.3698 302.469 51.974 302.727 51.5 302.914C51.026 303.096 50.4948 303.188 49.9062 303.188ZM61.5938 294.266L58.375 303H57L53.7812 294.266H55.2344L57.6406 301.234H57.7344L60.1406 294.266H61.5938ZM65.9688 303.188C65.1302 303.188 64.4036 303 63.7891 302.625C63.1797 302.25 62.7109 301.727 62.3828 301.055C62.0547 300.378 61.8906 299.594 61.8906 298.703C61.8906 297.807 62.0521 297.018 62.375 296.336C62.6979 295.654 63.151 295.12 63.7344 294.734C64.3229 294.349 65.0104 294.156 65.7969 294.156C66.25 294.156 66.7005 294.232 67.1484 294.383C67.5964 294.534 68.0026 294.779 68.3672 295.117C68.737 295.456 69.0312 295.904 69.25 296.461C69.4688 297.018 69.5781 297.703 69.5781 298.516V299.094H62.8438V297.938H68.8516L68.2344 298.375C68.2344 297.792 68.1432 297.273 67.9609 296.82C67.7786 296.367 67.5052 296.01 67.1406 295.75C66.7812 295.49 66.3333 295.359 65.7969 295.359C65.2604 295.359 64.7995 295.492 64.4141 295.758C64.0339 296.018 63.7422 296.359 63.5391 296.781C63.3359 297.203 63.2344 297.656 63.2344 298.141V298.906C63.2344 299.568 63.349 300.128 63.5781 300.586C63.8073 301.044 64.1276 301.393 64.5391 301.633C64.9505 301.867 65.4271 301.984 65.9688 301.984C66.3177 301.984 66.6354 301.935 66.9219 301.836C67.2083 301.732 67.4557 301.578 67.6641 301.375C67.8724 301.167 68.0312 300.911 68.1406 300.609L69.4375 300.984C69.3021 301.422 69.0729 301.807 68.75 302.141C68.4323 302.469 68.0365 302.727 67.5625 302.914C67.0885 303.096 66.5573 303.188 65.9688 303.188ZM72.1719 297.75V303H70.8438V294.266H72.125V295.641H72.25C72.4531 295.193 72.763 294.833 73.1797 294.562C73.5964 294.292 74.1354 294.156 74.7969 294.156C75.3854 294.156 75.901 294.276 76.3438 294.516C76.7865 294.755 77.1302 295.12 77.375 295.609C77.625 296.094 77.75 296.708 77.75 297.453V303H76.4219V297.547C76.4219 296.865 76.2422 296.331 75.8828 295.945C75.5234 295.555 75.0339 295.359 74.4141 295.359C73.987 295.359 73.6042 295.453 73.2656 295.641C72.9271 295.828 72.6589 296.099 72.4609 296.453C72.2682 296.807 72.1719 297.24 72.1719 297.75ZM84.9688 299.438V294.266H86.2969V303H84.9688V301.516H84.875C84.6667 301.958 84.3464 302.336 83.9141 302.648C83.487 302.961 82.9427 303.115 82.2812 303.109C81.7344 303.109 81.25 302.992 80.8281 302.758C80.4062 302.518 80.0729 302.154 79.8281 301.664C79.5885 301.174 79.4688 300.557 79.4688 299.812V294.266H80.7969V299.734C80.7969 300.365 80.9766 300.87 81.3359 301.25C81.7005 301.63 82.1615 301.818 82.7188 301.812C83.0521 301.812 83.3906 301.729 83.7344 301.562C84.0833 301.391 84.375 301.13 84.6094 300.781C84.849 300.427 84.9688 299.979 84.9688 299.438ZM91.6719 303.188C90.8333 303.188 90.1068 303 89.4922 302.625C88.8828 302.25 88.4141 301.727 88.0859 301.055C87.7578 300.378 87.5938 299.594 87.5938 298.703C87.5938 297.807 87.7552 297.018 88.0781 296.336C88.401 295.654 88.8542 295.12 89.4375 294.734C90.026 294.349 90.7135 294.156 91.5 294.156C91.9531 294.156 92.4036 294.232 92.8516 294.383C93.2995 294.534 93.7057 294.779 94.0703 295.117C94.4401 295.456 94.7344 295.904 94.9531 296.461C95.1719 297.018 95.2812 297.703 95.2812 298.516V299.094H88.5469V297.938H94.5547L93.9375 298.375C93.9375 297.792 93.8464 297.273 93.6641 296.82C93.4818 296.367 93.2083 296.01 92.8438 295.75C92.4844 295.49 92.0365 295.359 91.5 295.359C90.9635 295.359 90.5026 295.492 90.1172 295.758C89.737 296.018 89.4453 296.359 89.2422 296.781C89.0391 297.203 88.9375 297.656 88.9375 298.141V298.906C88.9375 299.568 89.0521 300.128 89.2812 300.586C89.5104 301.044 89.8307 301.393 90.2422 301.633C90.6536 301.867 91.1302 301.984 91.6719 301.984C92.0208 301.984 92.3385 301.935 92.625 301.836C92.9115 301.732 93.1589 301.578 93.3672 301.375C93.5755 301.167 93.7344 300.911 93.8438 300.609L95.1406 300.984C95.0052 301.422 94.776 301.807 94.4531 302.141C94.1354 302.469 93.7396 302.727 93.2656 302.914C92.7917 303.096 92.2604 303.188 91.6719 303.188ZM103.828 303.188C103.042 303.188 102.352 303 101.758 302.625C101.164 302.25 100.701 301.724 100.367 301.047C100.039 300.37 99.875 299.583 99.875 298.688C99.875 297.776 100.039 296.982 100.367 296.305C100.701 295.622 101.164 295.094 101.758 294.719C102.352 294.344 103.042 294.156 103.828 294.156C104.62 294.156 105.312 294.344 105.906 294.719C106.5 295.094 106.964 295.622 107.297 296.305C107.63 296.982 107.797 297.776 107.797 298.688C107.797 299.583 107.63 300.37 107.297 301.047C106.964 301.724 106.5 302.25 105.906 302.625C105.312 303 104.62 303.188 103.828 303.188ZM103.828 301.984C104.432 301.984 104.927 301.831 105.312 301.523C105.698 301.216 105.984 300.812 106.172 300.312C106.359 299.807 106.453 299.266 106.453 298.688C106.453 298.099 106.359 297.552 106.172 297.047C105.984 296.542 105.698 296.135 105.312 295.828C104.927 295.516 104.432 295.359 103.828 295.359C103.234 295.359 102.745 295.516 102.359 295.828C101.974 296.135 101.688 296.542 101.5 297.047C101.312 297.552 101.219 298.099 101.219 298.688C101.219 299.266 101.312 299.807 101.5 300.312C101.688 300.812 101.974 301.216 102.359 301.523C102.745 301.831 103.234 301.984 103.828 301.984ZM112.969 294.266V295.406H108.266V294.266H112.969ZM109.672 303V293.062C109.672 292.562 109.789 292.146 110.023 291.812C110.263 291.479 110.57 291.229 110.945 291.062C111.32 290.896 111.714 290.812 112.125 290.812C112.458 290.812 112.729 290.841 112.938 290.898C113.151 290.951 113.307 291 113.406 291.047L113.016 292.203C112.948 292.177 112.854 292.148 112.734 292.117C112.62 292.081 112.464 292.062 112.266 292.062C111.823 292.062 111.5 292.177 111.297 292.406C111.099 292.63 111 292.958 111 293.391V303H109.672ZM121.641 294.266V295.406H117.125V294.266H121.641ZM118.438 292.188H119.766V300.5C119.766 300.953 119.859 301.286 120.047 301.5C120.234 301.708 120.531 301.812 120.938 301.812C121.026 301.812 121.117 301.807 121.211 301.797C121.31 301.786 121.417 301.771 121.531 301.75L121.812 302.953C121.688 303 121.534 303.036 121.352 303.062C121.174 303.094 120.995 303.109 120.812 303.109C120.109 303.109 119.536 302.901 119.094 302.484C118.656 302.068 118.438 301.526 118.438 300.859V292.188ZM124.438 297.75V303H123.109V291.359H124.438V295.641H124.562C124.766 295.188 125.07 294.828 125.477 294.562C125.888 294.292 126.438 294.156 127.125 294.156C127.719 294.156 128.24 294.276 128.688 294.516C129.135 294.75 129.484 295.112 129.734 295.602C129.984 296.086 130.109 296.703 130.109 297.453V303H128.766V297.547C128.766 296.849 128.586 296.31 128.227 295.93C127.867 295.549 127.37 295.359 126.734 295.359C126.292 295.359 125.898 295.453 125.555 295.641C125.211 295.828 124.938 296.099 124.734 296.453C124.536 296.807 124.438 297.24 124.438 297.75ZM131.828 303V294.266H133.156V303H131.828ZM132.5 292.812C132.24 292.812 132.016 292.724 131.828 292.547C131.641 292.37 131.547 292.156 131.547 291.906C131.547 291.656 131.641 291.443 131.828 291.266C132.016 291.089 132.24 291 132.5 291C132.76 291 132.984 291.089 133.172 291.266C133.359 291.443 133.453 291.656 133.453 291.906C133.453 292.156 133.359 292.37 133.172 292.547C132.984 292.724 132.76 292.812 132.5 292.812ZM141.047 296.234L139.844 296.562C139.729 296.266 139.531 295.984 139.25 295.719C138.974 295.448 138.542 295.312 137.953 295.312C137.422 295.312 136.979 295.438 136.625 295.688C136.271 295.932 136.094 296.24 136.094 296.609C136.094 296.943 136.214 297.208 136.453 297.406C136.698 297.604 137.078 297.766 137.594 297.891L138.891 298.203C139.667 298.391 140.245 298.68 140.625 299.07C141.01 299.461 141.203 299.958 141.203 300.562C141.203 301.062 141.06 301.51 140.773 301.906C140.487 302.302 140.089 302.615 139.578 302.844C139.068 303.073 138.474 303.188 137.797 303.188C136.906 303.188 136.169 302.992 135.586 302.602C135.008 302.211 134.641 301.646 134.484 300.906L135.75 300.594C135.87 301.062 136.099 301.414 136.438 301.648C136.781 301.883 137.229 302 137.781 302C138.401 302 138.896 301.867 139.266 301.602C139.641 301.331 139.828 301.01 139.828 300.641C139.828 300.026 139.396 299.615 138.531 299.406L137.078 299.062C136.276 298.87 135.688 298.576 135.312 298.18C134.938 297.784 134.75 297.286 134.75 296.688C134.75 296.193 134.888 295.755 135.164 295.375C135.445 294.995 135.828 294.698 136.312 294.484C136.797 294.266 137.344 294.156 137.953 294.156C138.823 294.156 139.503 294.349 139.992 294.734C140.487 295.115 140.839 295.615 141.047 296.234ZM146.234 303V294.266H147.516V295.641H147.641C147.823 295.172 148.117 294.807 148.523 294.547C148.93 294.286 149.417 294.156 149.984 294.156C150.557 294.156 151.034 294.286 151.414 294.547C151.799 294.807 152.099 295.172 152.312 295.641H152.406C152.635 295.188 152.971 294.828 153.414 294.562C153.862 294.292 154.396 294.156 155.016 294.156C155.797 294.156 156.438 294.401 156.938 294.891C157.438 295.375 157.688 296.13 157.688 297.156V303H156.344V297.156C156.344 296.51 156.167 296.049 155.812 295.773C155.458 295.497 155.042 295.359 154.562 295.359C153.953 295.359 153.479 295.547 153.141 295.922C152.807 296.292 152.641 296.755 152.641 297.312V303H151.266V297.016C151.266 296.521 151.107 296.122 150.789 295.82C150.471 295.513 150.057 295.359 149.547 295.359C149.198 295.359 148.872 295.453 148.57 295.641C148.268 295.828 148.023 296.086 147.836 296.414C147.654 296.742 147.562 297.12 147.562 297.547V303H146.234ZM162.938 303.188C162.151 303.188 161.461 303 160.867 302.625C160.273 302.25 159.81 301.724 159.477 301.047C159.148 300.37 158.984 299.583 158.984 298.688C158.984 297.776 159.148 296.982 159.477 296.305C159.81 295.622 160.273 295.094 160.867 294.719C161.461 294.344 162.151 294.156 162.938 294.156C163.729 294.156 164.422 294.344 165.016 294.719C165.609 295.094 166.073 295.622 166.406 296.305C166.74 296.982 166.906 297.776 166.906 298.688C166.906 299.583 166.74 300.37 166.406 301.047C166.073 301.724 165.609 302.25 165.016 302.625C164.422 303 163.729 303.188 162.938 303.188ZM162.938 301.984C163.542 301.984 164.036 301.831 164.422 301.523C164.807 301.216 165.094 300.812 165.281 300.312C165.469 299.807 165.562 299.266 165.562 298.688C165.562 298.099 165.469 297.552 165.281 297.047C165.094 296.542 164.807 296.135 164.422 295.828C164.036 295.516 163.542 295.359 162.938 295.359C162.344 295.359 161.854 295.516 161.469 295.828C161.083 296.135 160.797 296.542 160.609 297.047C160.422 297.552 160.328 298.099 160.328 298.688C160.328 299.266 160.422 299.807 160.609 300.312C160.797 300.812 161.083 301.216 161.469 301.523C161.854 301.831 162.344 301.984 162.938 301.984ZM169.531 297.75V303H168.203V294.266H169.484V295.641H169.609C169.812 295.193 170.122 294.833 170.539 294.562C170.956 294.292 171.495 294.156 172.156 294.156C172.745 294.156 173.26 294.276 173.703 294.516C174.146 294.755 174.49 295.12 174.734 295.609C174.984 296.094 175.109 296.708 175.109 297.453V303H173.781V297.547C173.781 296.865 173.602 296.331 173.242 295.945C172.883 295.555 172.393 295.359 171.773 295.359C171.346 295.359 170.964 295.453 170.625 295.641C170.286 295.828 170.018 296.099 169.82 296.453C169.628 296.807 169.531 297.24 169.531 297.75ZM180.609 294.266V295.406H176.094V294.266H180.609ZM177.406 292.188H178.734V300.5C178.734 300.953 178.828 301.286 179.016 301.5C179.203 301.708 179.5 301.812 179.906 301.812C179.995 301.812 180.086 301.807 180.18 301.797C180.279 301.786 180.385 301.771 180.5 301.75L180.781 302.953C180.656 303 180.503 303.036 180.32 303.062C180.143 303.094 179.964 303.109 179.781 303.109C179.078 303.109 178.505 302.901 178.062 302.484C177.625 302.068 177.406 301.526 177.406 300.859V292.188ZM183.406 297.75V303H182.078V291.359H183.406V295.641H183.531C183.734 295.188 184.039 294.828 184.445 294.562C184.857 294.292 185.406 294.156 186.094 294.156C186.688 294.156 187.208 294.276 187.656 294.516C188.104 294.75 188.453 295.112 188.703 295.602C188.953 296.086 189.078 296.703 189.078 297.453V303H187.734V297.547C187.734 296.849 187.555 296.31 187.195 295.93C186.836 295.549 186.339 295.359 185.703 295.359C185.26 295.359 184.867 295.453 184.523 295.641C184.18 295.828 183.906 296.099 183.703 296.453C183.505 296.807 183.406 297.24 183.406 297.75Z" fill="#1A1A1C" fill-opacity="0.6"/>
<defs>
<filter id="filter0_d_1115_22697" x="273.16" y="26.3477" width="28.5586" height="28.9287" filterUnits="userSpaceOnUse" color-interpolation-filters="sRGB">
<feFlood flood-opacity="0" result="BackgroundImageFix"/>
<feColorMatrix in="SourceAlpha" type="matrix" values="0 0 0 0 0 0 0 0 0 0 0 0 0 0 0 0 0 0 127 0" result="hardAlpha"/>
<feOffset dy="4"/>
<feGaussianBlur stdDeviation="5"/>
<feComposite in2="hardAlpha" operator="out"/>
<feColorMatrix type="matrix" values="0 0 0 0 0 0 0 0 0 0 0 0 0 0 0 0 0 0 0.12 0"/>
<feBlend mode="normal" in2="BackgroundImageFix" result="effect1_dropShadow_1115_22697"/>
<feBlend mode="normal" in="SourceGraphic" in2="effect1_dropShadow_1115_22697" result="shape"/>
</filter>
</defs>
</svg>
