<svg width="408" height="332" viewBox="0 0 408 332" fill="none" xmlns="http://www.w3.org/2000/svg">
<rect width="408" height="332" fill="white"/>
<path d="M25.07 136.152C24.445 136.152 23.904 136.053 23.447 135.854C22.9899 135.65 22.6305 135.369 22.3688 135.01C22.111 134.646 21.9645 134.227 21.9294 133.75H23.0192C23.0505 134.078 23.1618 134.35 23.3532 134.564C23.5485 134.779 23.7966 134.939 24.0973 135.045C24.3981 135.15 24.7223 135.203 25.07 135.203C25.4723 135.203 25.8337 135.137 26.154 135.004C26.4782 134.871 26.7341 134.686 26.9216 134.447C27.1091 134.209 27.2028 133.93 27.2028 133.609C27.2028 133.32 27.1208 133.086 26.9567 132.906C26.7927 132.727 26.5778 132.58 26.3122 132.467C26.0505 132.354 25.7653 132.254 25.4567 132.168L24.3903 131.863C23.7067 131.668 23.1657 131.389 22.7673 131.025C22.3727 130.658 22.1755 130.18 22.1755 129.59C22.1755 129.102 22.3063 128.676 22.568 128.312C22.8337 127.945 23.1911 127.66 23.6403 127.457C24.0934 127.254 24.5973 127.152 25.152 127.152C25.7145 127.152 26.2145 127.254 26.652 127.457C27.0895 127.656 27.4372 127.93 27.695 128.277C27.9528 128.621 28.0895 129.012 28.1052 129.449H27.0739C27.0231 129.02 26.8161 128.686 26.4528 128.447C26.0934 128.209 25.6481 128.09 25.1169 128.09C24.7341 128.09 24.3981 128.152 24.1091 128.277C23.82 128.402 23.5954 128.574 23.4352 128.793C23.2751 129.012 23.195 129.262 23.195 129.543C23.195 129.852 23.2907 130.102 23.4821 130.293C23.6735 130.48 23.9001 130.627 24.1618 130.732C24.4274 130.838 24.6677 130.922 24.8825 130.984L25.7614 131.23C25.988 131.293 26.2399 131.377 26.5173 131.482C26.7985 131.588 27.068 131.73 27.3259 131.91C27.5876 132.09 27.8024 132.32 27.9704 132.602C28.1384 132.879 28.2223 133.223 28.2223 133.633C28.2223 134.102 28.0993 134.527 27.8532 134.91C27.6071 135.289 27.2497 135.592 26.7809 135.818C26.3122 136.041 25.7419 136.152 25.07 136.152Z" fill="black"/>
<path d="M81.0477 127.27H82.3133L85.2781 134.512H85.3836L88.3485 127.27H89.6551V136H88.618V129.367H88.536L85.7879 136H84.8387L82.1258 129.367H82.0438V136H81.0477V127.27Z" fill="black"/>
<path d="M141.082 128.207V127.27H147.633V128.207H144.89V136H143.836V128.207H141.082Z" fill="black"/>
<path d="M201.577 136L199.198 127.27H200.264L202.093 134.383H202.175L204.038 127.27H205.233L207.085 134.383H207.179L208.995 127.27H210.073L207.682 136H206.593L204.671 129.051H204.6L202.679 136H201.577Z" fill="black"/>
<path d="M260.363 128.207V127.27H266.914V128.207H264.172V136H263.117V128.207H260.363Z" fill="black"/>
<path d="M321.451 136V127.27H326.689V128.207H322.506V131.254H326.291V132.191H322.506V136H321.451Z" fill="black"/>
<path d="M382.922 136.152C382.297 136.152 381.756 136.053 381.299 135.854C380.841 135.65 380.482 135.369 380.22 135.01C379.963 134.646 379.816 134.227 379.781 133.75H380.871C380.902 134.078 381.013 134.35 381.205 134.564C381.4 134.779 381.648 134.939 381.949 135.045C382.25 135.15 382.574 135.203 382.922 135.203C383.324 135.203 383.685 135.137 384.006 135.004C384.33 134.871 384.586 134.686 384.773 134.447C384.961 134.209 385.054 133.93 385.054 133.609C385.054 133.32 384.972 133.086 384.808 132.906C384.644 132.727 384.429 132.58 384.164 132.467C383.902 132.354 383.617 132.254 383.308 132.168L382.242 131.863C381.558 131.668 381.017 131.389 380.619 131.025C380.224 130.658 380.027 130.18 380.027 129.59C380.027 129.102 380.158 128.676 380.42 128.312C380.685 127.945 381.043 127.66 381.492 127.457C381.945 127.254 382.449 127.152 383.004 127.152C383.566 127.152 384.066 127.254 384.504 127.457C384.941 127.656 385.289 127.93 385.547 128.277C385.804 128.621 385.941 129.012 385.957 129.449H384.925C384.875 129.02 384.668 128.686 384.304 128.447C383.945 128.209 383.5 128.09 382.968 128.09C382.586 128.09 382.25 128.152 381.961 128.277C381.672 128.402 381.447 128.574 381.287 128.793C381.127 129.012 381.047 129.262 381.047 129.543C381.047 129.852 381.142 130.102 381.334 130.293C381.525 130.48 381.752 130.627 382.013 130.732C382.279 130.838 382.519 130.922 382.734 130.984L383.613 131.23C383.84 131.293 384.091 131.377 384.369 131.482C384.65 131.588 384.92 131.73 385.177 131.91C385.439 132.09 385.654 132.32 385.822 132.602C385.99 132.879 386.074 133.223 386.074 133.633C386.074 134.102 385.951 134.527 385.705 134.91C385.459 135.289 385.101 135.592 384.633 135.818C384.164 136.041 383.593 136.152 382.922 136.152Z" fill="black"/>
<path d="M25.0781 60.6161C39.3019 58.239 58.5923 51.4752 79.6116 67.7475C91.0254 76.5836 105.62 91.8353 123.93 83.6743C140.249 76.4007 161.329 47.5419 192.303 67.7475C204.001 75.3543 226.636 89.8114 248.155 67.7475C271.57 43.7396 272.366 24.7226 314.543 43.7396C335.625 53.2449 353.927 52.5335 382.923 29" stroke="#864FFE" stroke-width="2" stroke-linecap="round"/>
<path d="M25.3516 98.9913C71.754 84.446 97.2754 139.322 135.789 93.0401C154.027 71.1251 163.167 57.7365 193.097 52.4468C230.807 45.7819 263.911 116.498 305.2 77.1389C346.489 37.7794 349.457 93.0401 382.651 72.2139" stroke="#C6F56F" stroke-width="2" stroke-linecap="round"/>
<g filter="url(#filter0_d_4601_23908)">
<mask id="path-10-inside-1_4601_23908" fill="white">
<ellipse cx="287.443" cy="36" rx="4.27907" ry="4"/>
</mask>
<ellipse cx="287.443" cy="36" rx="4.27907" ry="4" fill="#864FFE"/>
<path d="M291.722 36H285.722C285.722 34.5207 286.88 34 287.443 34V40V46C292.733 46 297.722 41.8976 297.722 36H291.722ZM287.443 40V34C288.006 34 289.164 34.5207 289.164 36H283.164H277.164C277.164 41.8976 282.154 46 287.443 46V40ZM283.164 36H289.164C289.164 37.4793 288.006 38 287.443 38V32V26C282.154 26 277.164 30.1024 277.164 36H283.164ZM287.443 32V38C286.88 38 285.722 37.4793 285.722 36H291.722H297.722C297.722 30.1024 292.733 26 287.443 26V32Z" fill="white" mask="url(#path-10-inside-1_4601_23908)"/>
</g>
<path d="M20 186H388" stroke="#1A1A1C" stroke-opacity="0.1" stroke-linecap="round"/>
<path d="M20 234C20 227.373 25.3726 222 32 222H376C382.627 222 388 227.373 388 234V300C388 306.627 382.627 312 376 312H32C25.3726 312 20 306.627 20 300V234Z" fill="#1A1A1C"/>
<path d="M42.3984 266.18V244.359H43.7812V266.18H42.3984ZM43.0781 264.305C41.8281 264.305 40.7461 264.105 39.832 263.707C38.918 263.301 38.1992 262.738 37.6758 262.02C37.1602 261.293 36.8672 260.453 36.7969 259.5H38.9766C39.0391 260.156 39.2617 260.699 39.6445 261.129C40.0352 261.559 40.5312 261.879 41.1328 262.09C41.7344 262.301 42.3828 262.406 43.0781 262.406C43.8828 262.406 44.6055 262.273 45.2461 262.008C45.8945 261.742 46.4062 261.371 46.7812 260.895C47.1562 260.418 47.3438 259.859 47.3438 259.219C47.3438 258.641 47.1797 258.172 46.8516 257.812C46.5234 257.453 46.0938 257.16 45.5625 256.934C45.0391 256.707 44.4688 256.508 43.8516 256.336L41.7188 255.727C40.3516 255.336 39.2695 254.777 38.4727 254.051C37.6836 253.316 37.2891 252.359 37.2891 251.18C37.2891 250.203 37.5508 249.352 38.0742 248.625C38.6055 247.891 39.3203 247.32 40.2188 246.914C41.125 246.508 42.1328 246.305 43.2422 246.305C44.3672 246.305 45.3672 246.508 46.2422 246.914C47.1172 247.312 47.8125 247.859 48.3281 248.555C48.8438 249.242 49.1172 250.023 49.1484 250.898H47.0859C46.9844 250.039 46.5703 249.371 45.8438 248.895C45.125 248.418 44.2344 248.18 43.1719 248.18C42.4062 248.18 41.7344 248.305 41.1562 248.555C40.5781 248.805 40.1289 249.148 39.8086 249.586C39.4883 250.023 39.3281 250.523 39.3281 251.086C39.3281 251.703 39.5195 252.203 39.9023 252.586C40.2852 252.961 40.7383 253.254 41.2617 253.465C41.793 253.676 42.2734 253.844 42.7031 253.969L44.4609 254.461C44.9141 254.586 45.418 254.754 45.9727 254.965C46.5352 255.176 47.0742 255.461 47.5898 255.82C48.1133 256.18 48.543 256.641 48.8789 257.203C49.2148 257.758 49.3828 258.445 49.3828 259.266C49.3828 260.203 49.1367 261.055 48.6445 261.82C48.1523 262.578 47.4375 263.184 46.5 263.637C45.5625 264.082 44.4219 264.305 43.0781 264.305ZM57.1641 246.539V264H55.1016V248.766H54.9844L50.7422 251.602V249.445L55.1016 246.539H57.1641ZM60.4922 264L68.2969 248.555V248.414H59.2969V246.539H70.5V248.531L62.7188 264H60.4922ZM69.0234 268.148L70.0547 261.562H72.375L70.5703 268.148H69.0234ZM80.4609 264.234C79.4609 264.234 78.5586 264.039 77.7539 263.648C76.957 263.25 76.3164 262.703 75.832 262.008C75.3477 261.312 75.0859 260.523 75.0469 259.641H77.0859C77.1641 260.422 77.5195 261.07 78.1523 261.586C78.793 262.102 79.5625 262.359 80.4609 262.359C81.1797 262.359 81.8164 262.191 82.3711 261.855C82.9258 261.52 83.3633 261.059 83.6836 260.473C84.0039 259.887 84.1641 259.219 84.1641 258.469C84.1641 257.711 83.9961 257.031 83.6602 256.43C83.332 255.828 82.8789 255.355 82.3008 255.012C81.7227 254.66 81.0625 254.484 80.3203 254.484C79.7812 254.484 79.2305 254.57 78.668 254.742C78.1133 254.906 77.6562 255.117 77.2969 255.375L75.3047 255.141L76.3594 246.539H85.4297V248.414H78.1406L77.5312 253.57H77.625C77.9844 253.281 78.4336 253.047 78.9727 252.867C79.5117 252.68 80.0781 252.586 80.6719 252.586C81.7422 252.586 82.6953 252.84 83.5312 253.348C84.3672 253.855 85.0234 254.551 85.5 255.434C85.9844 256.309 86.2266 257.312 86.2266 258.445C86.2266 259.555 85.9766 260.547 85.4766 261.422C84.9766 262.297 84.293 262.984 83.4258 263.484C82.5586 263.984 81.5703 264.234 80.4609 264.234ZM88.3359 264V262.477L94.1016 256.148C94.7734 255.414 95.3242 254.773 95.7539 254.227C96.1914 253.68 96.5156 253.164 96.7266 252.68C96.9453 252.195 97.0547 251.688 97.0547 251.156C97.0547 250.539 96.9062 250.008 96.6094 249.562C96.3203 249.109 95.9258 248.762 95.4258 248.52C94.9258 248.277 94.3594 248.156 93.7266 248.156C93.0547 248.156 92.4688 248.293 91.9688 248.566C91.4766 248.84 91.0938 249.227 90.8203 249.727C90.5547 250.219 90.4219 250.797 90.4219 251.461H88.4062C88.4062 250.438 88.6406 249.539 89.1094 248.766C89.5859 247.992 90.2305 247.391 91.043 246.961C91.8633 246.523 92.7812 246.305 93.7969 246.305C94.8203 246.305 95.7266 246.523 96.5156 246.961C97.3047 247.391 97.9219 247.973 98.3672 248.707C98.8203 249.434 99.0469 250.25 99.0469 251.156C99.0469 251.797 98.9297 252.422 98.6953 253.031C98.4688 253.633 98.0703 254.309 97.5 255.059C96.9375 255.809 96.1562 256.719 95.1562 257.789L91.2422 261.984V262.125H99.3516V264H88.3359ZM107.484 246.539V264H105.422V248.766H105.305L101.062 251.602V249.445L105.422 246.539H107.484ZM111.879 264.141C111.457 264.141 111.094 263.992 110.789 263.695C110.492 263.391 110.344 263.027 110.344 262.605C110.344 262.184 110.492 261.824 110.789 261.527C111.094 261.223 111.457 261.07 111.879 261.07C112.301 261.07 112.66 261.223 112.957 261.527C113.262 261.824 113.414 262.184 113.414 262.605C113.414 263.027 113.262 263.391 112.957 263.695C112.66 263.992 112.301 264.141 111.879 264.141ZM121.055 264.234C119.773 264.234 118.68 263.883 117.773 263.18C116.867 262.477 116.176 261.461 115.699 260.133C115.223 258.797 114.984 257.18 114.984 255.281C114.984 253.391 115.223 251.777 115.699 250.441C116.184 249.098 116.879 248.074 117.785 247.371C118.691 246.66 119.781 246.305 121.055 246.305C122.328 246.305 123.418 246.66 124.324 247.371C125.23 248.074 125.922 249.098 126.398 250.441C126.883 251.777 127.125 253.391 127.125 255.281C127.125 257.18 126.887 258.797 126.41 260.133C125.934 261.461 125.242 262.477 124.336 263.18C123.438 263.883 122.344 264.234 121.055 264.234ZM121.055 262.383C121.922 262.383 122.656 262.105 123.258 261.551C123.859 260.988 124.316 260.176 124.629 259.113C124.949 258.051 125.109 256.773 125.109 255.281C125.109 253.781 124.949 252.5 124.629 251.438C124.316 250.375 123.859 249.562 123.258 249C122.656 248.438 121.922 248.156 121.055 248.156C119.758 248.156 118.758 248.781 118.055 250.031C117.352 251.281 117 253.031 117 255.281C117 256.773 117.156 258.051 117.469 259.113C117.789 260.176 118.25 260.988 118.852 261.551C119.461 262.105 120.195 262.383 121.055 262.383ZM134.93 264.234C133.648 264.234 132.555 263.883 131.648 263.18C130.742 262.477 130.051 261.461 129.574 260.133C129.098 258.797 128.859 257.18 128.859 255.281C128.859 253.391 129.098 251.777 129.574 250.441C130.059 249.098 130.754 248.074 131.66 247.371C132.566 246.66 133.656 246.305 134.93 246.305C136.203 246.305 137.293 246.66 138.199 247.371C139.105 248.074 139.797 249.098 140.273 250.441C140.758 251.777 141 253.391 141 255.281C141 257.18 140.762 258.797 140.285 260.133C139.809 261.461 139.117 262.477 138.211 263.18C137.312 263.883 136.219 264.234 134.93 264.234ZM134.93 262.383C135.797 262.383 136.531 262.105 137.133 261.551C137.734 260.988 138.191 260.176 138.504 259.113C138.824 258.051 138.984 256.773 138.984 255.281C138.984 253.781 138.824 252.5 138.504 251.438C138.191 250.375 137.734 249.562 137.133 249C136.531 248.438 135.797 248.156 134.93 248.156C133.633 248.156 132.633 248.781 131.93 250.031C131.227 251.281 130.875 253.031 130.875 255.281C130.875 256.773 131.031 258.051 131.344 259.113C131.664 260.176 132.125 260.988 132.727 261.551C133.336 262.105 134.07 262.383 134.93 262.383Z" fill="#FCFCFC"/>
<path d="M37.0312 290V278.359H40.9688C41.8802 278.359 42.625 278.516 43.2031 278.828C43.7865 279.135 44.2188 279.56 44.5 280.102C44.7812 280.638 44.9219 281.25 44.9219 281.938C44.9219 282.62 44.7812 283.227 44.5 283.758C44.224 284.289 43.7943 284.706 43.2109 285.008C42.6328 285.305 41.8906 285.453 40.9844 285.453H37.8125V284.188H40.9375C41.5625 284.188 42.0651 284.096 42.4453 283.914C42.8255 283.732 43.1016 283.474 43.2734 283.141C43.4453 282.802 43.5312 282.401 43.5312 281.938C43.5312 281.469 43.4427 281.06 43.2656 280.711C43.0938 280.362 42.8177 280.091 42.4375 279.898C42.0573 279.706 41.5521 279.609 40.9219 279.609H38.4375V290H37.0312ZM43.7344 290L40.9219 284.766H42.5156L45.375 290H43.7344ZM49.9062 290.188C49.0677 290.188 48.3411 290 47.7266 289.625C47.1172 289.25 46.6484 288.727 46.3203 288.055C45.9922 287.378 45.8281 286.594 45.8281 285.703C45.8281 284.807 45.9896 284.018 46.3125 283.336C46.6354 282.654 47.0885 282.12 47.6719 281.734C48.2604 281.349 48.9479 281.156 49.7344 281.156C50.1875 281.156 50.638 281.232 51.0859 281.383C51.5339 281.534 51.9401 281.779 52.3047 282.117C52.6745 282.456 52.9688 282.904 53.1875 283.461C53.4062 284.018 53.5156 284.703 53.5156 285.516V286.094H46.7812V284.938H52.7891L52.1719 285.375C52.1719 284.792 52.0807 284.273 51.8984 283.82C51.7161 283.367 51.4427 283.01 51.0781 282.75C50.7188 282.49 50.2708 282.359 49.7344 282.359C49.1979 282.359 48.737 282.492 48.3516 282.758C47.9714 283.018 47.6797 283.359 47.4766 283.781C47.2734 284.203 47.1719 284.656 47.1719 285.141V285.906C47.1719 286.568 47.2865 287.128 47.5156 287.586C47.7448 288.044 48.0651 288.393 48.4766 288.633C48.888 288.867 49.3646 288.984 49.9062 288.984C50.2552 288.984 50.5729 288.935 50.8594 288.836C51.1458 288.732 51.3932 288.578 51.6016 288.375C51.8099 288.167 51.9688 287.911 52.0781 287.609L53.375 287.984C53.2396 288.422 53.0104 288.807 52.6875 289.141C52.3698 289.469 51.974 289.727 51.5 289.914C51.026 290.096 50.4948 290.188 49.9062 290.188ZM61.5938 281.266L58.375 290H57L53.7812 281.266H55.2344L57.6406 288.234H57.7344L60.1406 281.266H61.5938ZM65.9688 290.188C65.1302 290.188 64.4036 290 63.7891 289.625C63.1797 289.25 62.7109 288.727 62.3828 288.055C62.0547 287.378 61.8906 286.594 61.8906 285.703C61.8906 284.807 62.0521 284.018 62.375 283.336C62.6979 282.654 63.151 282.12 63.7344 281.734C64.3229 281.349 65.0104 281.156 65.7969 281.156C66.25 281.156 66.7005 281.232 67.1484 281.383C67.5964 281.534 68.0026 281.779 68.3672 282.117C68.737 282.456 69.0312 282.904 69.25 283.461C69.4688 284.018 69.5781 284.703 69.5781 285.516V286.094H62.8438V284.938H68.8516L68.2344 285.375C68.2344 284.792 68.1432 284.273 67.9609 283.82C67.7786 283.367 67.5052 283.01 67.1406 282.75C66.7812 282.49 66.3333 282.359 65.7969 282.359C65.2604 282.359 64.7995 282.492 64.4141 282.758C64.0339 283.018 63.7422 283.359 63.5391 283.781C63.3359 284.203 63.2344 284.656 63.2344 285.141V285.906C63.2344 286.568 63.349 287.128 63.5781 287.586C63.8073 288.044 64.1276 288.393 64.5391 288.633C64.9505 288.867 65.4271 288.984 65.9688 288.984C66.3177 288.984 66.6354 288.935 66.9219 288.836C67.2083 288.732 67.4557 288.578 67.6641 288.375C67.8724 288.167 68.0312 287.911 68.1406 287.609L69.4375 287.984C69.3021 288.422 69.0729 288.807 68.75 289.141C68.4323 289.469 68.0365 289.727 67.5625 289.914C67.0885 290.096 66.5573 290.188 65.9688 290.188ZM72.1719 284.75V290H70.8438V281.266H72.125V282.641H72.25C72.4531 282.193 72.763 281.833 73.1797 281.562C73.5964 281.292 74.1354 281.156 74.7969 281.156C75.3854 281.156 75.901 281.276 76.3438 281.516C76.7865 281.755 77.1302 282.12 77.375 282.609C77.625 283.094 77.75 283.708 77.75 284.453V290H76.4219V284.547C76.4219 283.865 76.2422 283.331 75.8828 282.945C75.5234 282.555 75.0339 282.359 74.4141 282.359C73.987 282.359 73.6042 282.453 73.2656 282.641C72.9271 282.828 72.6589 283.099 72.4609 283.453C72.2682 283.807 72.1719 284.24 72.1719 284.75ZM84.9688 286.438V281.266H86.2969V290H84.9688V288.516H84.875C84.6667 288.958 84.3464 289.336 83.9141 289.648C83.487 289.961 82.9427 290.115 82.2812 290.109C81.7344 290.109 81.25 289.992 80.8281 289.758C80.4062 289.518 80.0729 289.154 79.8281 288.664C79.5885 288.174 79.4688 287.557 79.4688 286.812V281.266H80.7969V286.734C80.7969 287.365 80.9766 287.87 81.3359 288.25C81.7005 288.63 82.1615 288.818 82.7188 288.812C83.0521 288.812 83.3906 288.729 83.7344 288.562C84.0833 288.391 84.375 288.13 84.6094 287.781C84.849 287.427 84.9688 286.979 84.9688 286.438ZM91.6719 290.188C90.8333 290.188 90.1068 290 89.4922 289.625C88.8828 289.25 88.4141 288.727 88.0859 288.055C87.7578 287.378 87.5938 286.594 87.5938 285.703C87.5938 284.807 87.7552 284.018 88.0781 283.336C88.401 282.654 88.8542 282.12 89.4375 281.734C90.026 281.349 90.7135 281.156 91.5 281.156C91.9531 281.156 92.4036 281.232 92.8516 281.383C93.2995 281.534 93.7057 281.779 94.0703 282.117C94.4401 282.456 94.7344 282.904 94.9531 283.461C95.1719 284.018 95.2812 284.703 95.2812 285.516V286.094H88.5469V284.938H94.5547L93.9375 285.375C93.9375 284.792 93.8464 284.273 93.6641 283.82C93.4818 283.367 93.2083 283.01 92.8438 282.75C92.4844 282.49 92.0365 282.359 91.5 282.359C90.9635 282.359 90.5026 282.492 90.1172 282.758C89.737 283.018 89.4453 283.359 89.2422 283.781C89.0391 284.203 88.9375 284.656 88.9375 285.141V285.906C88.9375 286.568 89.0521 287.128 89.2812 287.586C89.5104 288.044 89.8307 288.393 90.2422 288.633C90.6536 288.867 91.1302 288.984 91.6719 288.984C92.0208 288.984 92.3385 288.935 92.625 288.836C92.9115 288.732 93.1589 288.578 93.3672 288.375C93.5755 288.167 93.7344 287.911 93.8438 287.609L95.1406 287.984C95.0052 288.422 94.776 288.807 94.4531 289.141C94.1354 289.469 93.7396 289.727 93.2656 289.914C92.7917 290.096 92.2604 290.188 91.6719 290.188ZM103.828 290.188C103.042 290.188 102.352 290 101.758 289.625C101.164 289.25 100.701 288.724 100.367 288.047C100.039 287.37 99.875 286.583 99.875 285.688C99.875 284.776 100.039 283.982 100.367 283.305C100.701 282.622 101.164 282.094 101.758 281.719C102.352 281.344 103.042 281.156 103.828 281.156C104.62 281.156 105.312 281.344 105.906 281.719C106.5 282.094 106.964 282.622 107.297 283.305C107.63 283.982 107.797 284.776 107.797 285.688C107.797 286.583 107.63 287.37 107.297 288.047C106.964 288.724 106.5 289.25 105.906 289.625C105.312 290 104.62 290.188 103.828 290.188ZM103.828 288.984C104.432 288.984 104.927 288.831 105.312 288.523C105.698 288.216 105.984 287.812 106.172 287.312C106.359 286.807 106.453 286.266 106.453 285.688C106.453 285.099 106.359 284.552 106.172 284.047C105.984 283.542 105.698 283.135 105.312 282.828C104.927 282.516 104.432 282.359 103.828 282.359C103.234 282.359 102.745 282.516 102.359 282.828C101.974 283.135 101.688 283.542 101.5 284.047C101.312 284.552 101.219 285.099 101.219 285.688C101.219 286.266 101.312 286.807 101.5 287.312C101.688 287.812 101.974 288.216 102.359 288.523C102.745 288.831 103.234 288.984 103.828 288.984ZM112.969 281.266V282.406H108.266V281.266H112.969ZM109.672 290V280.062C109.672 279.562 109.789 279.146 110.023 278.812C110.263 278.479 110.57 278.229 110.945 278.062C111.32 277.896 111.714 277.812 112.125 277.812C112.458 277.812 112.729 277.841 112.938 277.898C113.151 277.951 113.307 278 113.406 278.047L113.016 279.203C112.948 279.177 112.854 279.148 112.734 279.117C112.62 279.081 112.464 279.062 112.266 279.062C111.823 279.062 111.5 279.177 111.297 279.406C111.099 279.63 111 279.958 111 280.391V290H109.672ZM121.641 281.266V282.406H117.125V281.266H121.641ZM118.438 279.188H119.766V287.5C119.766 287.953 119.859 288.286 120.047 288.5C120.234 288.708 120.531 288.812 120.938 288.812C121.026 288.812 121.117 288.807 121.211 288.797C121.31 288.786 121.417 288.771 121.531 288.75L121.812 289.953C121.688 290 121.534 290.036 121.352 290.062C121.174 290.094 120.995 290.109 120.812 290.109C120.109 290.109 119.536 289.901 119.094 289.484C118.656 289.068 118.438 288.526 118.438 287.859V279.188ZM124.438 284.75V290H123.109V278.359H124.438V282.641H124.562C124.766 282.188 125.07 281.828 125.477 281.562C125.888 281.292 126.438 281.156 127.125 281.156C127.719 281.156 128.24 281.276 128.688 281.516C129.135 281.75 129.484 282.112 129.734 282.602C129.984 283.086 130.109 283.703 130.109 284.453V290H128.766V284.547C128.766 283.849 128.586 283.31 128.227 282.93C127.867 282.549 127.37 282.359 126.734 282.359C126.292 282.359 125.898 282.453 125.555 282.641C125.211 282.828 124.938 283.099 124.734 283.453C124.536 283.807 124.438 284.24 124.438 284.75ZM131.828 290V281.266H133.156V290H131.828ZM132.5 279.812C132.24 279.812 132.016 279.724 131.828 279.547C131.641 279.37 131.547 279.156 131.547 278.906C131.547 278.656 131.641 278.443 131.828 278.266C132.016 278.089 132.24 278 132.5 278C132.76 278 132.984 278.089 133.172 278.266C133.359 278.443 133.453 278.656 133.453 278.906C133.453 279.156 133.359 279.37 133.172 279.547C132.984 279.724 132.76 279.812 132.5 279.812ZM141.047 283.234L139.844 283.562C139.729 283.266 139.531 282.984 139.25 282.719C138.974 282.448 138.542 282.312 137.953 282.312C137.422 282.312 136.979 282.438 136.625 282.688C136.271 282.932 136.094 283.24 136.094 283.609C136.094 283.943 136.214 284.208 136.453 284.406C136.698 284.604 137.078 284.766 137.594 284.891L138.891 285.203C139.667 285.391 140.245 285.68 140.625 286.07C141.01 286.461 141.203 286.958 141.203 287.562C141.203 288.062 141.06 288.51 140.773 288.906C140.487 289.302 140.089 289.615 139.578 289.844C139.068 290.073 138.474 290.188 137.797 290.188C136.906 290.188 136.169 289.992 135.586 289.602C135.008 289.211 134.641 288.646 134.484 287.906L135.75 287.594C135.87 288.062 136.099 288.414 136.438 288.648C136.781 288.883 137.229 289 137.781 289C138.401 289 138.896 288.867 139.266 288.602C139.641 288.331 139.828 288.01 139.828 287.641C139.828 287.026 139.396 286.615 138.531 286.406L137.078 286.062C136.276 285.87 135.688 285.576 135.312 285.18C134.938 284.784 134.75 284.286 134.75 283.688C134.75 283.193 134.888 282.755 135.164 282.375C135.445 281.995 135.828 281.698 136.312 281.484C136.797 281.266 137.344 281.156 137.953 281.156C138.823 281.156 139.503 281.349 139.992 281.734C140.487 282.115 140.839 282.615 141.047 283.234ZM146.234 290V281.266H147.516V282.641H147.641C147.823 282.172 148.117 281.807 148.523 281.547C148.93 281.286 149.417 281.156 149.984 281.156C150.557 281.156 151.034 281.286 151.414 281.547C151.799 281.807 152.099 282.172 152.312 282.641H152.406C152.635 282.188 152.971 281.828 153.414 281.562C153.862 281.292 154.396 281.156 155.016 281.156C155.797 281.156 156.438 281.401 156.938 281.891C157.438 282.375 157.688 283.13 157.688 284.156V290H156.344V284.156C156.344 283.51 156.167 283.049 155.812 282.773C155.458 282.497 155.042 282.359 154.562 282.359C153.953 282.359 153.479 282.547 153.141 282.922C152.807 283.292 152.641 283.755 152.641 284.312V290H151.266V284.016C151.266 283.521 151.107 283.122 150.789 282.82C150.471 282.513 150.057 282.359 149.547 282.359C149.198 282.359 148.872 282.453 148.57 282.641C148.268 282.828 148.023 283.086 147.836 283.414C147.654 283.742 147.562 284.12 147.562 284.547V290H146.234ZM162.938 290.188C162.151 290.188 161.461 290 160.867 289.625C160.273 289.25 159.81 288.724 159.477 288.047C159.148 287.37 158.984 286.583 158.984 285.688C158.984 284.776 159.148 283.982 159.477 283.305C159.81 282.622 160.273 282.094 160.867 281.719C161.461 281.344 162.151 281.156 162.938 281.156C163.729 281.156 164.422 281.344 165.016 281.719C165.609 282.094 166.073 282.622 166.406 283.305C166.74 283.982 166.906 284.776 166.906 285.688C166.906 286.583 166.74 287.37 166.406 288.047C166.073 288.724 165.609 289.25 165.016 289.625C164.422 290 163.729 290.188 162.938 290.188ZM162.938 288.984C163.542 288.984 164.036 288.831 164.422 288.523C164.807 288.216 165.094 287.812 165.281 287.312C165.469 286.807 165.562 286.266 165.562 285.688C165.562 285.099 165.469 284.552 165.281 284.047C165.094 283.542 164.807 283.135 164.422 282.828C164.036 282.516 163.542 282.359 162.938 282.359C162.344 282.359 161.854 282.516 161.469 282.828C161.083 283.135 160.797 283.542 160.609 284.047C160.422 284.552 160.328 285.099 160.328 285.688C160.328 286.266 160.422 286.807 160.609 287.312C160.797 287.812 161.083 288.216 161.469 288.523C161.854 288.831 162.344 288.984 162.938 288.984ZM169.531 284.75V290H168.203V281.266H169.484V282.641H169.609C169.812 282.193 170.122 281.833 170.539 281.562C170.956 281.292 171.495 281.156 172.156 281.156C172.745 281.156 173.26 281.276 173.703 281.516C174.146 281.755 174.49 282.12 174.734 282.609C174.984 283.094 175.109 283.708 175.109 284.453V290H173.781V284.547C173.781 283.865 173.602 283.331 173.242 282.945C172.883 282.555 172.393 282.359 171.773 282.359C171.346 282.359 170.964 282.453 170.625 282.641C170.286 282.828 170.018 283.099 169.82 283.453C169.628 283.807 169.531 284.24 169.531 284.75ZM180.609 281.266V282.406H176.094V281.266H180.609ZM177.406 279.188H178.734V287.5C178.734 287.953 178.828 288.286 179.016 288.5C179.203 288.708 179.5 288.812 179.906 288.812C179.995 288.812 180.086 288.807 180.18 288.797C180.279 288.786 180.385 288.771 180.5 288.75L180.781 289.953C180.656 290 180.503 290.036 180.32 290.062C180.143 290.094 179.964 290.109 179.781 290.109C179.078 290.109 178.505 289.901 178.062 289.484C177.625 289.068 177.406 288.526 177.406 287.859V279.188ZM183.406 284.75V290H182.078V278.359H183.406V282.641H183.531C183.734 282.188 184.039 281.828 184.445 281.562C184.857 281.292 185.406 281.156 186.094 281.156C186.688 281.156 187.208 281.276 187.656 281.516C188.104 281.75 188.453 282.112 188.703 282.602C188.953 283.086 189.078 283.703 189.078 284.453V290H187.734V284.547C187.734 283.849 187.555 283.31 187.195 282.93C186.836 282.549 186.339 282.359 185.703 282.359C185.26 282.359 184.867 282.453 184.523 282.641C184.18 282.828 183.906 283.099 183.703 283.453C183.505 283.807 183.406 284.24 183.406 284.75Z" fill="#FCFCFC" fill-opacity="0.6"/>
<defs>
<filter id="filter0_d_4601_23908" x="273.164" y="26" width="28.5547" height="28" filterUnits="userSpaceOnUse" color-interpolation-filters="sRGB">
<feFlood flood-opacity="0" result="BackgroundImageFix"/>
<feColorMatrix in="SourceAlpha" type="matrix" values="0 0 0 0 0 0 0 0 0 0 0 0 0 0 0 0 0 0 127 0" result="hardAlpha"/>
<feOffset dy="4"/>
<feGaussianBlur stdDeviation="5"/>
<feComposite in2="hardAlpha" operator="out"/>
<feColorMatrix type="matrix" values="0 0 0 0 0 0 0 0 0 0 0 0 0 0 0 0 0 0 0.12 0"/>
<feBlend mode="normal" in2="BackgroundImageFix" result="effect1_dropShadow_4601_23908"/>
<feBlend mode="normal" in="SourceGraphic" in2="effect1_dropShadow_4601_23908" result="shape"/>
</filter>
</defs>
</svg>
