<svg width="350" height="190" viewBox="0 0 350 190" fill="none" xmlns="http://www.w3.org/2000/svg">
<rect width="350" height="190" fill="#070B10"/>
<path d="M39.2109 29.9043H41.5752V38.4561C41.5752 39.3936 41.3555 40.2197 40.916 40.9346C40.4766 41.6436 39.8584 42.2002 39.0615 42.6045C38.2646 43.0029 37.333 43.2021 36.2666 43.2021C35.2002 43.2021 34.2686 43.0029 33.4717 42.6045C32.6748 42.2002 32.0537 41.6436 31.6084 40.9346C31.1689 40.2197 30.9492 39.3936 30.9492 38.4561V29.9043H33.3223V38.2627C33.3223 38.8135 33.4424 39.2998 33.6826 39.7217C33.9229 40.1436 34.2627 40.4775 34.7021 40.7236C35.1475 40.9639 35.6689 41.084 36.2666 41.084C36.8643 41.084 37.3828 40.9639 37.8223 40.7236C38.2617 40.4775 38.6016 40.1436 38.8418 39.7217C39.0879 39.2998 39.2109 38.8135 39.2109 38.2627V29.9043ZM51.1377 35.7842L49.0371 36.0039C48.9492 35.6816 48.7588 35.3975 48.4658 35.1514C48.1729 34.8994 47.7598 34.7734 47.2266 34.7734C46.7461 34.7734 46.3418 34.8789 46.0137 35.0898C45.6914 35.3008 45.5303 35.5703 45.5303 35.8984C45.5303 36.1855 45.6357 36.4229 45.8467 36.6104C46.0635 36.792 46.4209 36.9385 46.9189 37.0498L48.5977 37.4014C49.5176 37.5947 50.2061 37.9111 50.6631 38.3506C51.1201 38.79 51.3486 39.3584 51.3486 40.0557C51.3486 40.6709 51.1699 41.2158 50.8125 41.6904C50.4551 42.165 49.96 42.5342 49.3271 42.7979C48.7002 43.0615 47.9766 43.1934 47.1562 43.1934C45.9551 43.1934 44.9883 42.9414 44.2559 42.4375C43.5293 41.9277 43.0928 41.2217 42.9463 40.3193L45.2051 40.1084C45.3047 40.5479 45.5215 40.8818 45.8555 41.1104C46.1953 41.333 46.6289 41.4443 47.1562 41.4443C47.707 41.4443 48.1494 41.333 48.4834 41.1104C48.8174 40.8818 48.9844 40.6035 48.9844 40.2754C48.9844 39.7246 48.5449 39.3496 47.666 39.1504L45.9873 38.7988C45.0439 38.5938 44.3467 38.2627 43.8955 37.8057C43.4443 37.3428 43.2188 36.7539 43.2188 36.0391C43.2188 35.4297 43.3857 34.9023 43.7197 34.457C44.0537 34.0117 44.5195 33.666 45.1172 33.4199C45.7148 33.1738 46.4062 33.0508 47.1914 33.0508C48.3457 33.0508 49.251 33.2998 49.9072 33.7979C50.5693 34.29 50.9795 34.9521 51.1377 35.7842ZM56.9473 43.1934C55.9629 43.1934 55.1133 42.9883 54.3984 42.5781C53.6836 42.1621 53.1328 41.5762 52.7461 40.8203C52.3652 40.0645 52.1748 39.1738 52.1748 38.1484C52.1748 37.1348 52.3652 36.2471 52.7461 35.4854C53.127 34.7178 53.6631 34.1201 54.3545 33.6924C55.0459 33.2646 55.8604 33.0508 56.7979 33.0508C57.4014 33.0508 57.9727 33.1475 58.5117 33.3408C59.0566 33.5342 59.5371 33.833 59.9531 34.2373C60.375 34.6416 60.7061 35.1572 60.9463 35.7842C61.1865 36.4053 61.3066 37.1465 61.3066 38.0078V38.7285H53.2559V37.1729H60.1553L59.0742 37.6299C59.0742 37.0732 58.9893 36.5898 58.8193 36.1797C58.6494 35.7637 58.3975 35.4385 58.0635 35.2041C57.7295 34.9697 57.3135 34.8525 56.8154 34.8525C56.3174 34.8525 55.8926 34.9697 55.541 35.2041C55.1895 35.4385 54.9229 35.7549 54.7412 36.1533C54.5596 36.5459 54.4688 36.9854 54.4688 37.4717V38.5527C54.4688 39.1504 54.5713 39.6631 54.7764 40.0908C54.9873 40.5127 55.2803 40.835 55.6553 41.0576C56.0361 41.2803 56.4785 41.3916 56.9824 41.3916C57.3105 41.3916 57.6094 41.3447 57.8789 41.251C58.1543 41.1572 58.3887 41.0166 58.582 40.8291C58.7812 40.6357 58.9336 40.3984 59.0391 40.1172L61.2012 40.3721C61.0605 40.9404 60.7998 41.4385 60.4189 41.8662C60.0439 42.2881 59.5605 42.6162 58.9688 42.8506C58.3828 43.0791 57.709 43.1934 56.9473 43.1934ZM62.5635 43V33.1738H64.8047V34.8262H64.9102C65.0859 34.252 65.3936 33.8125 65.833 33.5078C66.2725 33.1973 66.7734 33.042 67.3359 33.042C67.459 33.042 67.5996 33.0479 67.7578 33.0596C67.9219 33.0713 68.0566 33.0859 68.1621 33.1035V35.2305C68.0625 35.1953 67.9072 35.166 67.6963 35.1426C67.4854 35.1191 67.2832 35.1074 67.0898 35.1074C66.6621 35.1074 66.2812 35.1982 65.9473 35.3799C65.6133 35.5615 65.3496 35.8105 65.1562 36.127C64.9688 36.4434 64.875 36.8125 64.875 37.2344V43H62.5635ZM75.6592 43.2021C75.0322 43.2021 74.4697 43.0908 73.9717 42.8682C73.4736 42.6396 73.0811 42.3057 72.7939 41.8662C72.5068 41.4268 72.3633 40.8848 72.3633 40.2402C72.3633 39.6895 72.4658 39.2324 72.6709 38.8691C72.876 38.5059 73.1543 38.2158 73.5059 37.999C73.8633 37.7822 74.2646 37.6182 74.71 37.5068C75.1553 37.3896 75.6152 37.3076 76.0898 37.2607C76.6699 37.1963 77.1387 37.1406 77.4961 37.0938C77.8535 37.0469 78.1113 36.9707 78.2695 36.8652C78.4336 36.7598 78.5156 36.5957 78.5156 36.373V36.3291C78.5156 35.8545 78.375 35.4854 78.0938 35.2217C77.8125 34.958 77.4023 34.8262 76.8633 34.8262C76.2949 34.8262 75.8438 34.9492 75.5098 35.1953C75.1816 35.4414 74.959 35.7314 74.8418 36.0654L72.6885 35.7578C72.8584 35.1602 73.1396 34.6621 73.5322 34.2637C73.9248 33.8594 74.4023 33.5576 74.9648 33.3584C75.5332 33.1533 76.1602 33.0508 76.8457 33.0508C77.3145 33.0508 77.7832 33.1064 78.252 33.2178C78.7207 33.3232 79.1514 33.5049 79.5439 33.7627C79.9365 34.0205 80.25 34.3662 80.4844 34.7998C80.7188 35.2334 80.8359 35.7754 80.8359 36.4258V43H78.6123V41.6465H78.542C78.4014 41.916 78.2021 42.1709 77.9443 42.4111C77.6924 42.6455 77.376 42.8359 76.9951 42.9824C76.6201 43.1289 76.1748 43.2021 75.6592 43.2021ZM76.248 41.4971C76.7168 41.4971 77.1211 41.4062 77.4609 41.2246C77.8008 41.0371 78.0645 40.791 78.252 40.4863C78.4395 40.1758 78.5332 39.8389 78.5332 39.4756V38.3242C78.457 38.3828 78.334 38.4385 78.1641 38.4912C77.9941 38.5381 77.8008 38.582 77.584 38.623C77.3672 38.6641 77.1533 38.6992 76.9424 38.7285C76.7373 38.7578 76.5586 38.7812 76.4062 38.7988C76.0605 38.8457 75.75 38.9248 75.4746 39.0361C75.2051 39.1416 74.9912 39.2881 74.833 39.4756C74.6748 39.6631 74.5957 39.9062 74.5957 40.2051C74.5957 40.6328 74.751 40.9551 75.0615 41.1719C75.3721 41.3887 75.7676 41.4971 76.248 41.4971ZM86.8301 43.1934C85.8516 43.1934 85.0107 42.9795 84.3076 42.5518C83.6045 42.1182 83.0654 41.5205 82.6904 40.7588C82.3154 39.9971 82.1279 39.1211 82.1279 38.1309C82.1279 37.1289 82.3184 36.2471 82.6992 35.4854C83.0801 34.7236 83.6221 34.1289 84.3252 33.7012C85.0283 33.2676 85.8574 33.0508 86.8125 33.0508C87.6152 33.0508 88.3242 33.1973 88.9395 33.4902C89.5547 33.7832 90.0439 34.1963 90.4072 34.7295C90.7764 35.2568 90.9873 35.875 91.04 36.584H88.8252C88.7666 36.2676 88.6523 35.9834 88.4824 35.7314C88.3125 35.4795 88.0898 35.2803 87.8145 35.1338C87.5449 34.9873 87.2227 34.9141 86.8477 34.9141C86.373 34.9141 85.957 35.043 85.5996 35.3008C85.248 35.5527 84.9727 35.916 84.7734 36.3906C84.5742 36.8652 84.4746 37.4336 84.4746 38.0957C84.4746 38.7637 84.5713 39.3408 84.7646 39.8271C84.958 40.3076 85.2334 40.6797 85.5908 40.9434C85.9482 41.2012 86.3672 41.3301 86.8477 41.3301C87.3574 41.3301 87.7881 41.1807 88.1396 40.8818C88.4971 40.583 88.7256 40.1699 88.8252 39.6426H91.04C90.9873 40.3398 90.7822 40.9551 90.4248 41.4883C90.0674 42.0215 89.584 42.4404 88.9746 42.7451C88.3652 43.0439 87.6504 43.1934 86.8301 43.1934ZM97.1836 33.1738V34.9668H91.5498V33.1738H97.1836ZM92.9297 30.8359H95.2412V40.0469C95.2412 40.4336 95.3262 40.7207 95.4961 40.9082C95.666 41.0898 95.9355 41.1807 96.3047 41.1807C96.4043 41.1807 96.5156 41.1719 96.6387 41.1543C96.7617 41.1367 96.873 41.1162 96.9727 41.0928L97.3682 42.9033C97.1221 42.9795 96.873 43.0352 96.6211 43.0703C96.3691 43.1113 96.1172 43.1318 95.8652 43.1318C94.9512 43.1318 94.2334 42.8916 93.7119 42.4111C93.1904 41.9248 92.9297 41.2627 92.9297 40.4248V30.8359ZM98.458 43V33.1738H100.77V43H98.458ZM99.6182 31.7939C99.249 31.7939 98.9326 31.6709 98.6689 31.4248C98.4053 31.1787 98.2734 30.8828 98.2734 30.5371C98.2734 30.1855 98.4053 29.8867 98.6689 29.6406C98.9326 29.3945 99.249 29.2715 99.6182 29.2715C99.9814 29.2715 100.295 29.3945 100.559 29.6406C100.822 29.8867 100.954 30.1826 100.954 30.5283C100.954 30.8799 100.822 31.1787 100.559 31.4248C100.295 31.6709 99.9814 31.7939 99.6182 31.7939ZM111.255 33.1738L107.757 43H105.19L101.701 33.1738H104.171L106.447 40.4775H106.553L108.812 33.1738H111.255ZM112.187 43V33.1738H114.498V43H112.187ZM113.347 31.7939C112.978 31.7939 112.661 31.6709 112.397 31.4248C112.134 31.1787 112.002 30.8828 112.002 30.5371C112.002 30.1855 112.134 29.8867 112.397 29.6406C112.661 29.3945 112.978 29.2715 113.347 29.2715C113.71 29.2715 114.023 29.3945 114.287 29.6406C114.551 29.8867 114.683 30.1826 114.683 30.5283C114.683 30.8799 114.551 31.1787 114.287 31.4248C114.023 31.6709 113.71 31.7939 113.347 31.7939ZM121.107 33.1738V34.9668H115.474V33.1738H121.107ZM116.854 30.8359H119.165V40.0469C119.165 40.4336 119.25 40.7207 119.42 40.9082C119.59 41.0898 119.859 41.1807 120.229 41.1807C120.328 41.1807 120.439 41.1719 120.562 41.1543C120.686 41.1367 120.797 41.1162 120.896 41.0928L121.292 42.9033C121.046 42.9795 120.797 43.0352 120.545 43.0703C120.293 43.1113 120.041 43.1318 119.789 43.1318C118.875 43.1318 118.157 42.8916 117.636 42.4111C117.114 41.9248 116.854 41.2627 116.854 40.4248V30.8359ZM123.823 46.6738C123.507 46.6797 123.214 46.6562 122.944 46.6035C122.681 46.5566 122.467 46.501 122.303 46.4365L122.848 44.6348L122.962 44.6699C123.431 44.793 123.829 44.8018 124.157 44.6963C124.491 44.5908 124.758 44.2715 124.957 43.7383L125.15 43.2109L121.6 33.1738H124.052L126.311 40.6006H126.416L128.684 33.1738H131.153L127.216 44.1865C127.034 44.708 126.794 45.1533 126.495 45.5225C126.196 45.8975 125.827 46.1816 125.388 46.375C124.948 46.5742 124.427 46.6738 123.823 46.6738Z" fill="#FCFCFC"/>
<path d="M312.5 28C311.672 28 311 27.3284 311 26.5C311 25.6716 311.672 25 312.5 25C313.328 25 314 25.6716 314 26.5C314 27.3284 313.328 28 312.5 28Z" fill="#FCFCFC" fill-opacity="0.6"/>
<path d="M312.5 34C311.672 34 311 33.3284 311 32.5C311 31.6716 311.672 31 312.5 31C313.328 31 314 31.6716 314 32.5C314 33.3284 313.328 34 312.5 34Z" fill="#FCFCFC" fill-opacity="0.6"/>
<path d="M312.5 40C311.672 40 311 39.3284 311 38.5C311 37.6716 311.672 37 312.5 37C313.328 37 314 37.6716 314 38.5C314 39.3284 313.328 40 312.5 40Z" fill="#FCFCFC" fill-opacity="0.6"/>
<path d="M46.5312 140.117C45.8906 140.117 45.3438 139.941 44.8906 139.59C44.4375 139.238 44.0918 138.73 43.8535 138.066C43.6152 137.398 43.4961 136.59 43.4961 135.641C43.4961 134.695 43.6152 133.889 43.8535 133.221C44.0957 132.549 44.4434 132.037 44.8965 131.686C45.3496 131.33 45.8945 131.152 46.5312 131.152C47.168 131.152 47.7129 131.33 48.166 131.686C48.6191 132.037 48.9648 132.549 49.2031 133.221C49.4453 133.889 49.5664 134.695 49.5664 135.641C49.5664 136.59 49.4473 137.398 49.209 138.066C48.9707 138.73 48.625 139.238 48.1719 139.59C47.7227 139.941 47.1758 140.117 46.5312 140.117ZM46.5312 139.191C46.9648 139.191 47.332 139.053 47.6328 138.775C47.9336 138.494 48.1621 138.088 48.3184 137.557C48.4785 137.025 48.5586 136.387 48.5586 135.641C48.5586 134.891 48.4785 134.25 48.3184 133.719C48.1621 133.188 47.9336 132.781 47.6328 132.5C47.332 132.219 46.9648 132.078 46.5312 132.078C45.8828 132.078 45.3828 132.391 45.0312 133.016C44.6797 133.641 44.5039 134.516 44.5039 135.641C44.5039 136.387 44.582 137.025 44.7383 137.557C44.8984 138.088 45.1289 138.494 45.4297 138.775C45.7344 139.053 46.1016 139.191 46.5312 139.191Z" fill="#FCFCFC"/>
<path d="M61.9941 159.152C61.3691 159.152 60.8281 159.053 60.3711 158.854C59.9141 158.65 59.5547 158.369 59.293 158.01C59.0352 157.646 58.8887 157.227 58.8535 156.75H59.9434C59.9746 157.078 60.0859 157.35 60.2773 157.564C60.4727 157.779 60.7207 157.939 61.0215 158.045C61.3223 158.15 61.6465 158.203 61.9941 158.203C62.3965 158.203 62.7578 158.137 63.0781 158.004C63.4023 157.871 63.6582 157.686 63.8457 157.447C64.0332 157.209 64.127 156.93 64.127 156.609C64.127 156.32 64.0449 156.086 63.8809 155.906C63.7168 155.727 63.502 155.58 63.2363 155.467C62.9746 155.354 62.6895 155.254 62.3809 155.168L61.3145 154.863C60.6309 154.668 60.0898 154.389 59.6914 154.025C59.2969 153.658 59.0996 153.18 59.0996 152.59C59.0996 152.102 59.2305 151.676 59.4922 151.312C59.7578 150.945 60.1152 150.66 60.5645 150.457C61.0176 150.254 61.5215 150.152 62.0762 150.152C62.6387 150.152 63.1387 150.254 63.5762 150.457C64.0137 150.656 64.3613 150.93 64.6191 151.277C64.877 151.621 65.0137 152.012 65.0293 152.449H63.998C63.9473 152.02 63.7402 151.686 63.377 151.447C63.0176 151.209 62.5723 151.09 62.041 151.09C61.6582 151.09 61.3223 151.152 61.0332 151.277C60.7441 151.402 60.5195 151.574 60.3594 151.793C60.1992 152.012 60.1191 152.262 60.1191 152.543C60.1191 152.852 60.2148 153.102 60.4062 153.293C60.5977 153.48 60.8242 153.627 61.0859 153.732C61.3516 153.838 61.5918 153.922 61.8066 153.984L62.6855 154.23C62.9121 154.293 63.1641 154.377 63.4414 154.482C63.7227 154.588 63.9922 154.73 64.25 154.91C64.5117 155.09 64.7266 155.32 64.8945 155.602C65.0625 155.879 65.1465 156.223 65.1465 156.633C65.1465 157.102 65.0234 157.527 64.7773 157.91C64.5312 158.289 64.1738 158.592 63.7051 158.818C63.2363 159.041 62.666 159.152 61.9941 159.152Z" fill="#FCFCFC"/>
<path d="M99.6934 150.27H100.959L103.924 157.512H104.029L106.994 150.27H108.301V159H107.264V152.367H107.182L104.434 159H103.484L100.771 152.367H100.689V159H99.6934V150.27Z" fill="#FCFCFC"/>
<path d="M142.225 151.207V150.27H148.775V151.207H146.033V159H144.979V151.207H142.225Z" fill="#FCFCFC"/>
<path d="M184.941 159L182.562 150.27H183.629L185.457 157.383H185.539L187.402 150.27H188.598L190.449 157.383H190.543L192.359 150.27H193.438L191.047 159H189.957L188.035 152.051H187.965L186.043 159H184.941Z" fill="#FCFCFC"/>
<path d="M227.225 151.207V150.27H233.775V151.207H231.033V159H229.979V151.207H227.225Z" fill="#FCFCFC"/>
<path d="M268.033 159V150.27H273.271V151.207H269.088V154.254H272.873V155.191H269.088V159H268.033Z" fill="#FCFCFC"/>
<path d="M311.494 159.152C310.869 159.152 310.328 159.053 309.871 158.854C309.414 158.65 309.055 158.369 308.793 158.01C308.535 157.646 308.389 157.227 308.354 156.75H309.443C309.475 157.078 309.586 157.35 309.777 157.564C309.973 157.779 310.221 157.939 310.521 158.045C310.822 158.15 311.146 158.203 311.494 158.203C311.896 158.203 312.258 158.137 312.578 158.004C312.902 157.871 313.158 157.686 313.346 157.447C313.533 157.209 313.627 156.93 313.627 156.609C313.627 156.32 313.545 156.086 313.381 155.906C313.217 155.727 313.002 155.58 312.736 155.467C312.475 155.354 312.189 155.254 311.881 155.168L310.814 154.863C310.131 154.668 309.59 154.389 309.191 154.025C308.797 153.658 308.6 153.18 308.6 152.59C308.6 152.102 308.73 151.676 308.992 151.312C309.258 150.945 309.615 150.66 310.064 150.457C310.518 150.254 311.021 150.152 311.576 150.152C312.139 150.152 312.639 150.254 313.076 150.457C313.514 150.656 313.861 150.93 314.119 151.277C314.377 151.621 314.514 152.012 314.529 152.449H313.498C313.447 152.02 313.24 151.686 312.877 151.447C312.518 151.209 312.072 151.09 311.541 151.09C311.158 151.09 310.822 151.152 310.533 151.277C310.244 151.402 310.02 151.574 309.859 151.793C309.699 152.012 309.619 152.262 309.619 152.543C309.619 152.852 309.715 153.102 309.906 153.293C310.098 153.48 310.324 153.627 310.586 153.732C310.852 153.838 311.092 153.922 311.307 153.984L312.186 154.23C312.412 154.293 312.664 154.377 312.941 154.482C313.223 154.588 313.492 154.73 313.75 154.91C314.012 155.09 314.227 155.32 314.395 155.602C314.562 155.879 314.646 156.223 314.646 156.633C314.646 157.102 314.523 157.527 314.277 157.91C314.031 158.289 313.674 158.592 313.205 158.818C312.736 159.041 312.166 159.152 311.494 159.152Z" fill="#FCFCFC"/>
<path d="M39.7461 108.117C39.2461 108.117 38.7949 108.02 38.3926 107.824C37.9941 107.625 37.6738 107.352 37.4316 107.004C37.1895 106.656 37.0586 106.262 37.0391 105.82H38.0586C38.0977 106.211 38.2754 106.535 38.5918 106.793C38.9121 107.051 39.2969 107.18 39.7461 107.18C40.1055 107.18 40.4238 107.096 40.7012 106.928C40.9785 106.76 41.1973 106.529 41.3574 106.236C41.5176 105.943 41.5977 105.609 41.5977 105.234C41.5977 104.855 41.5137 104.516 41.3457 104.215C41.1816 103.914 40.9551 103.678 40.666 103.506C40.377 103.33 40.0469 103.242 39.6758 103.242C39.4062 103.242 39.1309 103.285 38.8496 103.371C38.5723 103.453 38.3438 103.559 38.1641 103.688L37.168 103.57L37.6953 99.2695H42.2305V100.207H38.5859L38.2812 102.785H38.3281C38.5078 102.641 38.7324 102.523 39.002 102.434C39.2715 102.34 39.5547 102.293 39.8516 102.293C40.3867 102.293 40.8633 102.42 41.2812 102.674C41.6992 102.928 42.0273 103.275 42.2656 103.717C42.5078 104.154 42.6289 104.656 42.6289 105.223C42.6289 105.777 42.5039 106.273 42.2539 106.711C42.0039 107.148 41.6621 107.492 41.2285 107.742C40.7949 107.992 40.3008 108.117 39.7461 108.117ZM46.5312 108.117C45.8906 108.117 45.3438 107.941 44.8906 107.59C44.4375 107.238 44.0918 106.73 43.8535 106.066C43.6152 105.398 43.4961 104.59 43.4961 103.641C43.4961 102.695 43.6152 101.889 43.8535 101.221C44.0957 100.549 44.4434 100.037 44.8965 99.6855C45.3496 99.3301 45.8945 99.1523 46.5312 99.1523C47.168 99.1523 47.7129 99.3301 48.166 99.6855C48.6191 100.037 48.9648 100.549 49.2031 101.221C49.4453 101.889 49.5664 102.695 49.5664 103.641C49.5664 104.59 49.4473 105.398 49.209 106.066C48.9707 106.73 48.625 107.238 48.1719 107.59C47.7227 107.941 47.1758 108.117 46.5312 108.117ZM46.5312 107.191C46.9648 107.191 47.332 107.053 47.6328 106.775C47.9336 106.494 48.1621 106.088 48.3184 105.557C48.4785 105.025 48.5586 104.387 48.5586 103.641C48.5586 102.891 48.4785 102.25 48.3184 101.719C48.1621 101.188 47.9336 100.781 47.6328 100.5C47.332 100.219 46.9648 100.078 46.5312 100.078C45.8828 100.078 45.3828 100.391 45.0312 101.016C44.6797 101.641 44.5039 102.516 44.5039 103.641C44.5039 104.387 44.582 105.025 44.7383 105.557C44.8984 106.088 45.1289 106.494 45.4297 106.775C45.7344 107.053 46.1016 107.191 46.5312 107.191Z" fill="#FCFCFC"/>
<path d="M35.3516 67.2695V76H34.3203V68.3828H34.2617L32.1406 69.8008V68.7227L34.3203 67.2695H35.3516ZM39.5938 76.1172C38.9531 76.1172 38.4062 75.9414 37.9531 75.5898C37.5 75.2383 37.1543 74.7305 36.916 74.0664C36.6777 73.3984 36.5586 72.5898 36.5586 71.6406C36.5586 70.6953 36.6777 69.8887 36.916 69.2207C37.1582 68.5488 37.5059 68.0371 37.959 67.6855C38.4121 67.3301 38.957 67.1523 39.5938 67.1523C40.2305 67.1523 40.7754 67.3301 41.2285 67.6855C41.6816 68.0371 42.0273 68.5488 42.2656 69.2207C42.5078 69.8887 42.6289 70.6953 42.6289 71.6406C42.6289 72.5898 42.5098 73.3984 42.2715 74.0664C42.0332 74.7305 41.6875 75.2383 41.2344 75.5898C40.7852 75.9414 40.2383 76.1172 39.5938 76.1172ZM39.5938 75.1914C40.0273 75.1914 40.3945 75.0527 40.6953 74.7754C40.9961 74.4941 41.2246 74.0879 41.3809 73.5566C41.541 73.0254 41.6211 72.3867 41.6211 71.6406C41.6211 70.8906 41.541 70.25 41.3809 69.7188C41.2246 69.1875 40.9961 68.7812 40.6953 68.5C40.3945 68.2188 40.0273 68.0781 39.5938 68.0781C38.9453 68.0781 38.4453 68.3906 38.0938 69.0156C37.7422 69.6406 37.5664 70.5156 37.5664 71.6406C37.5664 72.3867 37.6445 73.0254 37.8008 73.5566C37.9609 74.0879 38.1914 74.4941 38.4922 74.7754C38.7969 75.0527 39.1641 75.1914 39.5938 75.1914ZM46.5312 76.1172C45.8906 76.1172 45.3438 75.9414 44.8906 75.5898C44.4375 75.2383 44.0918 74.7305 43.8535 74.0664C43.6152 73.3984 43.4961 72.5898 43.4961 71.6406C43.4961 70.6953 43.6152 69.8887 43.8535 69.2207C44.0957 68.5488 44.4434 68.0371 44.8965 67.6855C45.3496 67.3301 45.8945 67.1523 46.5312 67.1523C47.168 67.1523 47.7129 67.3301 48.166 67.6855C48.6191 68.0371 48.9648 68.5488 49.2031 69.2207C49.4453 69.8887 49.5664 70.6953 49.5664 71.6406C49.5664 72.5898 49.4473 73.3984 49.209 74.0664C48.9707 74.7305 48.625 75.2383 48.1719 75.5898C47.7227 75.9414 47.1758 76.1172 46.5312 76.1172ZM46.5312 75.1914C46.9648 75.1914 47.332 75.0527 47.6328 74.7754C47.9336 74.4941 48.1621 74.0879 48.3184 73.5566C48.4785 73.0254 48.5586 72.3867 48.5586 71.6406C48.5586 70.8906 48.4785 70.25 48.3184 69.7188C48.1621 69.1875 47.9336 68.7812 47.6328 68.5C47.332 68.2188 46.9648 68.0781 46.5312 68.0781C45.8828 68.0781 45.3828 68.3906 45.0312 69.0156C44.6797 69.6406 44.5039 70.5156 44.5039 71.6406C44.5039 72.3867 44.582 73.0254 44.7383 73.5566C44.8984 74.0879 45.1289 74.4941 45.4297 74.7754C45.7344 75.0527 46.1016 75.1914 46.5312 75.1914Z" fill="#FCFCFC"/>
<path d="M65 98.5L107.5 116L136 71L155 102L170 86.5L196.5 108L216 95.5L239.5 113L272 86.5L321.5 130.5" stroke="#C6F56F" stroke-width="2"/>
<line x1="134.5" y1="63.5" x2="134.5" y2="137.827" stroke="#864FFE" stroke-linecap="round" stroke-dasharray="8 8"/>
<g filter="url(#filter0_d_1075_29639)">
<mask id="path-16-inside-1_1075_29639" fill="white">
<ellipse cx="135" cy="70.9294" rx="4" ry="3.9646"/>
</mask>
<ellipse cx="135" cy="70.9294" rx="4" ry="3.9646" fill="#864FFE"/>
<path d="M139 70.9294H133C133 69.7552 133.946 68.894 135 68.894V74.894V80.894C140.472 80.894 145 76.4829 145 70.9294H139ZM135 74.894V68.894C136.054 68.894 137 69.7552 137 70.9294H131H125C125 76.4829 129.528 80.894 135 80.894V74.894ZM131 70.9294H137C137 72.1037 136.054 72.9648 135 72.9648V66.9648V60.9648C129.528 60.9648 125 65.376 125 70.9294H131ZM135 66.9648V72.9648C133.946 72.9648 133 72.1037 133 70.9294H139H145C145 65.376 140.472 60.9648 135 60.9648V66.9648Z" fill="white" mask="url(#path-16-inside-1_1075_29639)"/>
</g>
<defs>
<filter id="filter0_d_1075_29639" x="121" y="60.9648" width="28" height="27.9292" filterUnits="userSpaceOnUse" color-interpolation-filters="sRGB">
<feFlood flood-opacity="0" result="BackgroundImageFix"/>
<feColorMatrix in="SourceAlpha" type="matrix" values="0 0 0 0 0 0 0 0 0 0 0 0 0 0 0 0 0 0 127 0" result="hardAlpha"/>
<feOffset dy="4"/>
<feGaussianBlur stdDeviation="5"/>
<feComposite in2="hardAlpha" operator="out"/>
<feColorMatrix type="matrix" values="0 0 0 0 0 0 0 0 0 0 0 0 0 0 0 0 0 0 0.12 0"/>
<feBlend mode="normal" in2="BackgroundImageFix" result="effect1_dropShadow_1075_29639"/>
<feBlend mode="normal" in="SourceGraphic" in2="effect1_dropShadow_1075_29639" result="shape"/>
</filter>
</defs>
</svg>
