<svg width="331" height="217" viewBox="0 0 331 217" fill="none" xmlns="http://www.w3.org/2000/svg">
<rect y="22" width="253" height="195" rx="16" fill="#1F252F"/>
<path d="M16.3906 45.6094V44.3594H25.125V45.6094H21.4688V56H20.0625V45.6094H16.3906ZM25.4688 56V47.2656H26.75V48.5938H26.8438C27.0052 48.1615 27.2943 47.8125 27.7109 47.5469C28.1328 47.276 28.6042 47.1406 29.125 47.1406C29.224 47.1406 29.3464 47.1432 29.4922 47.1484C29.638 47.1484 29.75 47.151 29.8281 47.1562V48.5156C29.7812 48.5052 29.6771 48.4896 29.5156 48.4688C29.3542 48.4479 29.1823 48.4375 29 48.4375C28.5781 48.4375 28.2005 48.526 27.8672 48.7031C27.5339 48.8802 27.2708 49.1224 27.0781 49.4297C26.8906 49.737 26.7969 50.0885 26.7969 50.4844V56H25.4688ZM33.2344 56.2031C32.6823 56.2031 32.1797 56.099 31.7266 55.8906C31.2734 55.6771 30.9141 55.3698 30.6484 54.9688C30.3828 54.5677 30.25 54.0833 30.25 53.5156C30.25 53.0156 30.349 52.612 30.5469 52.3047C30.7448 51.9922 31.0078 51.7474 31.3359 51.5703C31.6693 51.388 32.0339 51.2526 32.4297 51.1641C32.8307 51.0755 33.2344 51.0052 33.6406 50.9531C34.1719 50.8854 34.6016 50.8333 34.9297 50.7969C35.263 50.7604 35.5052 50.6979 35.6562 50.6094C35.8125 50.5208 35.8906 50.3698 35.8906 50.1562V50.1094C35.8906 49.5521 35.737 49.1198 35.4297 48.8125C35.1276 48.5 34.6667 48.3438 34.0469 48.3438C33.4115 48.3438 32.9115 48.4844 32.5469 48.7656C32.1823 49.0417 31.9271 49.3385 31.7812 49.6562L30.5 49.2031C30.7292 48.6719 31.0339 48.2578 31.4141 47.9609C31.7995 47.6641 32.2161 47.4557 32.6641 47.3359C33.1172 47.2161 33.5625 47.1562 34 47.1562C34.2812 47.1562 34.6042 47.1901 34.9688 47.2578C35.3333 47.3203 35.6875 47.4557 36.0312 47.6641C36.3802 47.8672 36.6667 48.1771 36.8906 48.5938C37.1198 49.0052 37.2344 49.5573 37.2344 50.25V56H35.8906V54.8125H35.8281C35.7396 55 35.5885 55.2031 35.375 55.4219C35.1615 55.6354 34.8776 55.8203 34.5234 55.9766C34.1745 56.1276 33.7448 56.2031 33.2344 56.2031ZM33.4375 55C33.9688 55 34.4167 54.8958 34.7812 54.6875C35.1458 54.4792 35.4219 54.2109 35.6094 53.8828C35.7969 53.5495 35.8906 53.2031 35.8906 52.8438V51.6094C35.8333 51.6771 35.7083 51.7396 35.5156 51.7969C35.3281 51.849 35.1094 51.8958 34.8594 51.9375C34.6146 51.9792 34.375 52.0156 34.1406 52.0469C33.9062 52.0729 33.7188 52.0938 33.5781 52.1094C33.2292 52.1562 32.9036 52.2318 32.6016 52.3359C32.2995 52.4349 32.0547 52.5833 31.8672 52.7812C31.6849 52.9792 31.5938 53.25 31.5938 53.5938C31.5938 54.0573 31.7656 54.4089 32.1094 54.6484C32.4583 54.8828 32.901 55 33.4375 55ZM40.2812 50.75V56H38.9531V47.2656H40.2344V48.6406H40.3594C40.5625 48.1927 40.8724 47.8333 41.2891 47.5625C41.7057 47.2917 42.2448 47.1562 42.9062 47.1562C43.4948 47.1562 44.0104 47.276 44.4531 47.5156C44.8958 47.7552 45.2396 48.1198 45.4844 48.6094C45.7344 49.0938 45.8594 49.7083 45.8594 50.4531V56H44.5312V50.5469C44.5312 49.8646 44.3516 49.3307 43.9922 48.9453C43.6328 48.5547 43.1432 48.3594 42.5234 48.3594C42.0964 48.3594 41.7135 48.4531 41.375 48.6406C41.0365 48.8281 40.7682 49.099 40.5703 49.4531C40.3776 49.8073 40.2812 50.2396 40.2812 50.75ZM53.75 49.2344L52.5469 49.5625C52.4323 49.2656 52.2344 48.9844 51.9531 48.7188C51.6771 48.4479 51.2448 48.3125 50.6562 48.3125C50.125 48.3125 49.6823 48.4375 49.3281 48.6875C48.974 48.9323 48.7969 49.2396 48.7969 49.6094C48.7969 49.9427 48.9167 50.2083 49.1562 50.4062C49.401 50.6042 49.7812 50.7656 50.2969 50.8906L51.5938 51.2031C52.3698 51.3906 52.9479 51.6797 53.3281 52.0703C53.7135 52.4609 53.9062 52.9583 53.9062 53.5625C53.9062 54.0625 53.763 54.5104 53.4766 54.9062C53.1901 55.3021 52.7917 55.6146 52.2812 55.8438C51.7708 56.0729 51.1771 56.1875 50.5 56.1875C49.6094 56.1875 48.8724 55.9922 48.2891 55.6016C47.7109 55.2109 47.3438 54.6458 47.1875 53.9062L48.4531 53.5938C48.5729 54.0625 48.8021 54.4141 49.1406 54.6484C49.4844 54.8828 49.9323 55 50.4844 55C51.1042 55 51.599 54.8672 51.9688 54.6016C52.3438 54.3307 52.5312 54.0104 52.5312 53.6406C52.5312 53.026 52.099 52.6146 51.2344 52.4062L49.7812 52.0625C48.9792 51.8698 48.3906 51.5755 48.0156 51.1797C47.6406 50.7839 47.4531 50.2865 47.4531 49.6875C47.4531 49.1927 47.5911 48.7552 47.8672 48.375C48.1484 47.9948 48.5312 47.6979 49.0156 47.4844C49.5 47.2656 50.0469 47.1562 50.6562 47.1562C51.526 47.1562 52.2057 47.349 52.6953 47.7344C53.1901 48.1146 53.5417 48.6146 53.75 49.2344ZM57.75 56.2031C57.1979 56.2031 56.6953 56.099 56.2422 55.8906C55.7891 55.6771 55.4297 55.3698 55.1641 54.9688C54.8984 54.5677 54.7656 54.0833 54.7656 53.5156C54.7656 53.0156 54.8646 52.612 55.0625 52.3047C55.2604 51.9922 55.5234 51.7474 55.8516 51.5703C56.1849 51.388 56.5495 51.2526 56.9453 51.1641C57.3464 51.0755 57.75 51.0052 58.1562 50.9531C58.6875 50.8854 59.1172 50.8333 59.4453 50.7969C59.7786 50.7604 60.0208 50.6979 60.1719 50.6094C60.3281 50.5208 60.4062 50.3698 60.4062 50.1562V50.1094C60.4062 49.5521 60.2526 49.1198 59.9453 48.8125C59.6432 48.5 59.1823 48.3438 58.5625 48.3438C57.9271 48.3438 57.4271 48.4844 57.0625 48.7656C56.6979 49.0417 56.4427 49.3385 56.2969 49.6562L55.0156 49.2031C55.2448 48.6719 55.5495 48.2578 55.9297 47.9609C56.3151 47.6641 56.7318 47.4557 57.1797 47.3359C57.6328 47.2161 58.0781 47.1562 58.5156 47.1562C58.7969 47.1562 59.1198 47.1901 59.4844 47.2578C59.849 47.3203 60.2031 47.4557 60.5469 47.6641C60.8958 47.8672 61.1823 48.1771 61.4062 48.5938C61.6354 49.0052 61.75 49.5573 61.75 50.25V56H60.4062V54.8125H60.3438C60.2552 55 60.1042 55.2031 59.8906 55.4219C59.6771 55.6354 59.3932 55.8203 59.0391 55.9766C58.6901 56.1276 58.2604 56.2031 57.75 56.2031ZM57.9531 55C58.4844 55 58.9323 54.8958 59.2969 54.6875C59.6615 54.4792 59.9375 54.2109 60.125 53.8828C60.3125 53.5495 60.4062 53.2031 60.4062 52.8438V51.6094C60.349 51.6771 60.224 51.7396 60.0312 51.7969C59.8438 51.849 59.625 51.8958 59.375 51.9375C59.1302 51.9792 58.8906 52.0156 58.6562 52.0469C58.4219 52.0729 58.2344 52.0938 58.0938 52.1094C57.7448 52.1562 57.4193 52.2318 57.1172 52.3359C56.8151 52.4349 56.5703 52.5833 56.3828 52.7812C56.2005 52.9792 56.1094 53.25 56.1094 53.5938C56.1094 54.0573 56.2812 54.4089 56.625 54.6484C56.974 54.8828 57.4167 55 57.9531 55ZM67 56.1875C66.1875 56.1875 65.4844 55.9948 64.8906 55.6094C64.3021 55.2188 63.8464 54.6849 63.5234 54.0078C63.2057 53.3307 63.0469 52.5573 63.0469 51.6875C63.0469 50.7969 63.2109 50.013 63.5391 49.3359C63.8672 48.6536 64.3255 48.1198 64.9141 47.7344C65.5078 47.349 66.1979 47.1562 66.9844 47.1562C67.599 47.1562 68.151 47.2708 68.6406 47.5C69.1354 47.724 69.5391 48.0417 69.8516 48.4531C70.1693 48.8646 70.3646 49.3438 70.4375 49.8906H69.0938C69.026 49.625 68.9036 49.375 68.7266 49.1406C68.5495 48.9062 68.3151 48.7188 68.0234 48.5781C67.737 48.4323 67.3958 48.3594 67 48.3594C66.4792 48.3594 66.0234 48.4948 65.6328 48.7656C65.2422 49.0365 64.9375 49.4193 64.7188 49.9141C64.5 50.4036 64.3906 50.9792 64.3906 51.6406C64.3906 52.3125 64.4974 52.901 64.7109 53.4062C64.9245 53.9062 65.2266 54.2943 65.6172 54.5703C66.013 54.8464 66.474 54.9844 67 54.9844C67.526 54.9844 67.9766 54.849 68.3516 54.5781C68.7266 54.3021 68.974 53.9271 69.0938 53.4531H70.4375C70.3646 53.9688 70.1771 54.4323 69.875 54.8438C69.5781 55.2552 69.1849 55.5833 68.6953 55.8281C68.2109 56.0677 67.6458 56.1875 67 56.1875ZM75.4844 47.2656V48.4062H70.9688V47.2656H75.4844ZM72.2812 45.1875H73.6094V53.5C73.6094 53.9531 73.7031 54.2865 73.8906 54.5C74.0781 54.7083 74.375 54.8125 74.7812 54.8125C74.8698 54.8125 74.9609 54.8073 75.0547 54.7969C75.1536 54.7865 75.2604 54.7708 75.375 54.75L75.6562 55.9531C75.5312 56 75.3776 56.0365 75.1953 56.0625C75.0182 56.0938 74.8385 56.1094 74.6562 56.1094C73.9531 56.1094 73.3802 55.901 72.9375 55.4844C72.5 55.0677 72.2812 54.526 72.2812 53.8594V45.1875ZM76.7656 56V47.2656H78.0938V56H76.7656ZM77.4375 45.8125C77.1771 45.8125 76.9531 45.724 76.7656 45.5469C76.5781 45.3698 76.4844 45.1562 76.4844 44.9062C76.4844 44.6562 76.5781 44.4427 76.7656 44.2656C76.9531 44.0885 77.1771 44 77.4375 44C77.6979 44 77.9219 44.0885 78.1094 44.2656C78.2969 44.4427 78.3906 44.6562 78.3906 44.9062C78.3906 45.1562 78.2969 45.3698 78.1094 45.5469C77.9219 45.724 77.6979 45.8125 77.4375 45.8125ZM83.3438 56.1875C82.5573 56.1875 81.8672 56 81.2734 55.625C80.6797 55.25 80.2161 54.724 79.8828 54.0469C79.5547 53.3698 79.3906 52.5833 79.3906 51.6875C79.3906 50.776 79.5547 49.9818 79.8828 49.3047C80.2161 48.6224 80.6797 48.0938 81.2734 47.7188C81.8672 47.3438 82.5573 47.1562 83.3438 47.1562C84.1354 47.1562 84.8281 47.3438 85.4219 47.7188C86.0156 48.0938 86.4792 48.6224 86.8125 49.3047C87.1458 49.9818 87.3125 50.776 87.3125 51.6875C87.3125 52.5833 87.1458 53.3698 86.8125 54.0469C86.4792 54.724 86.0156 55.25 85.4219 55.625C84.8281 56 84.1354 56.1875 83.3438 56.1875ZM83.3438 54.9844C83.9479 54.9844 84.4427 54.8307 84.8281 54.5234C85.2135 54.2161 85.5 53.8125 85.6875 53.3125C85.875 52.8073 85.9688 52.2656 85.9688 51.6875C85.9688 51.099 85.875 50.5521 85.6875 50.0469C85.5 49.5417 85.2135 49.1354 84.8281 48.8281C84.4427 48.5156 83.9479 48.3594 83.3438 48.3594C82.75 48.3594 82.2604 48.5156 81.875 48.8281C81.4896 49.1354 81.2031 49.5417 81.0156 50.0469C80.8281 50.5521 80.7344 51.099 80.7344 51.6875C80.7344 52.2656 80.8281 52.8073 81.0156 53.3125C81.2031 53.8125 81.4896 54.2161 81.875 54.5234C82.2604 54.8307 82.75 54.9844 83.3438 54.9844ZM89.9375 50.75V56H88.6094V47.2656H89.8906V48.6406H90.0156C90.2188 48.1927 90.5286 47.8333 90.9453 47.5625C91.362 47.2917 91.901 47.1562 92.5625 47.1562C93.151 47.1562 93.6667 47.276 94.1094 47.5156C94.5521 47.7552 94.8958 48.1198 95.1406 48.6094C95.3906 49.0938 95.5156 49.7083 95.5156 50.4531V56H94.1875V50.5469C94.1875 49.8646 94.0078 49.3307 93.6484 48.9453C93.2891 48.5547 92.7995 48.3594 92.1797 48.3594C91.7526 48.3594 91.3698 48.4531 91.0312 48.6406C90.6927 48.8281 90.4245 49.099 90.2266 49.4531C90.0339 49.8073 89.9375 50.2396 89.9375 50.75ZM107.156 49.2344L105.953 49.5625C105.839 49.2656 105.641 48.9844 105.359 48.7188C105.083 48.4479 104.651 48.3125 104.062 48.3125C103.531 48.3125 103.089 48.4375 102.734 48.6875C102.38 48.9323 102.203 49.2396 102.203 49.6094C102.203 49.9427 102.323 50.2083 102.562 50.4062C102.807 50.6042 103.188 50.7656 103.703 50.8906L105 51.2031C105.776 51.3906 106.354 51.6797 106.734 52.0703C107.12 52.4609 107.312 52.9583 107.312 53.5625C107.312 54.0625 107.169 54.5104 106.883 54.9062C106.596 55.3021 106.198 55.6146 105.688 55.8438C105.177 56.0729 104.583 56.1875 103.906 56.1875C103.016 56.1875 102.279 55.9922 101.695 55.6016C101.117 55.2109 100.75 54.6458 100.594 53.9062L101.859 53.5938C101.979 54.0625 102.208 54.4141 102.547 54.6484C102.891 54.8828 103.339 55 103.891 55C104.51 55 105.005 54.8672 105.375 54.6016C105.75 54.3307 105.938 54.0104 105.938 53.6406C105.938 53.026 105.505 52.6146 104.641 52.4062L103.188 52.0625C102.385 51.8698 101.797 51.5755 101.422 51.1797C101.047 50.7839 100.859 50.2865 100.859 49.6875C100.859 49.1927 100.997 48.7552 101.273 48.375C101.555 47.9948 101.938 47.6979 102.422 47.4844C102.906 47.2656 103.453 47.1562 104.062 47.1562C104.932 47.1562 105.612 47.349 106.102 47.7344C106.596 48.1146 106.948 48.6146 107.156 49.2344ZM112.375 47.2656V48.4062H107.859V47.2656H112.375ZM109.172 45.1875H110.5V53.5C110.5 53.9531 110.594 54.2865 110.781 54.5C110.969 54.7083 111.266 54.8125 111.672 54.8125C111.76 54.8125 111.852 54.8073 111.945 54.7969C112.044 54.7865 112.151 54.7708 112.266 54.75L112.547 55.9531C112.422 56 112.268 56.0365 112.086 56.0625C111.909 56.0938 111.729 56.1094 111.547 56.1094C110.844 56.1094 110.271 55.901 109.828 55.4844C109.391 55.0677 109.172 54.526 109.172 53.8594V45.1875ZM116.219 56.2031C115.667 56.2031 115.164 56.099 114.711 55.8906C114.258 55.6771 113.898 55.3698 113.633 54.9688C113.367 54.5677 113.234 54.0833 113.234 53.5156C113.234 53.0156 113.333 52.612 113.531 52.3047C113.729 51.9922 113.992 51.7474 114.32 51.5703C114.654 51.388 115.018 51.2526 115.414 51.1641C115.815 51.0755 116.219 51.0052 116.625 50.9531C117.156 50.8854 117.586 50.8333 117.914 50.7969C118.247 50.7604 118.49 50.6979 118.641 50.6094C118.797 50.5208 118.875 50.3698 118.875 50.1562V50.1094C118.875 49.5521 118.721 49.1198 118.414 48.8125C118.112 48.5 117.651 48.3438 117.031 48.3438C116.396 48.3438 115.896 48.4844 115.531 48.7656C115.167 49.0417 114.911 49.3385 114.766 49.6562L113.484 49.2031C113.714 48.6719 114.018 48.2578 114.398 47.9609C114.784 47.6641 115.201 47.4557 115.648 47.3359C116.102 47.2161 116.547 47.1562 116.984 47.1562C117.266 47.1562 117.589 47.1901 117.953 47.2578C118.318 47.3203 118.672 47.4557 119.016 47.6641C119.365 47.8672 119.651 48.1771 119.875 48.5938C120.104 49.0052 120.219 49.5573 120.219 50.25V56H118.875V54.8125H118.812C118.724 55 118.573 55.2031 118.359 55.4219C118.146 55.6354 117.862 55.8203 117.508 55.9766C117.159 56.1276 116.729 56.2031 116.219 56.2031ZM116.422 55C116.953 55 117.401 54.8958 117.766 54.6875C118.13 54.4792 118.406 54.2109 118.594 53.8828C118.781 53.5495 118.875 53.2031 118.875 52.8438V51.6094C118.818 51.6771 118.693 51.7396 118.5 51.7969C118.312 51.849 118.094 51.8958 117.844 51.9375C117.599 51.9792 117.359 52.0156 117.125 52.0469C116.891 52.0729 116.703 52.0938 116.562 52.1094C116.214 52.1562 115.888 52.2318 115.586 52.3359C115.284 52.4349 115.039 52.5833 114.852 52.7812C114.669 52.9792 114.578 53.25 114.578 53.5938C114.578 54.0573 114.75 54.4089 115.094 54.6484C115.443 54.8828 115.885 55 116.422 55ZM125.719 47.2656V48.4062H121.203V47.2656H125.719ZM122.516 45.1875H123.844V53.5C123.844 53.9531 123.938 54.2865 124.125 54.5C124.312 54.7083 124.609 54.8125 125.016 54.8125C125.104 54.8125 125.195 54.8073 125.289 54.7969C125.388 54.7865 125.495 54.7708 125.609 54.75L125.891 55.9531C125.766 56 125.612 56.0365 125.43 56.0625C125.253 56.0938 125.073 56.1094 124.891 56.1094C124.188 56.1094 123.615 55.901 123.172 55.4844C122.734 55.0677 122.516 54.526 122.516 53.8594V45.1875ZM127 56V47.2656H128.328V56H127ZM127.672 45.8125C127.411 45.8125 127.188 45.724 127 45.5469C126.812 45.3698 126.719 45.1562 126.719 44.9062C126.719 44.6562 126.812 44.4427 127 44.2656C127.188 44.0885 127.411 44 127.672 44C127.932 44 128.156 44.0885 128.344 44.2656C128.531 44.4427 128.625 44.6562 128.625 44.9062C128.625 45.1562 128.531 45.3698 128.344 45.5469C128.156 45.724 127.932 45.8125 127.672 45.8125ZM136.219 49.2344L135.016 49.5625C134.901 49.2656 134.703 48.9844 134.422 48.7188C134.146 48.4479 133.714 48.3125 133.125 48.3125C132.594 48.3125 132.151 48.4375 131.797 48.6875C131.443 48.9323 131.266 49.2396 131.266 49.6094C131.266 49.9427 131.385 50.2083 131.625 50.4062C131.87 50.6042 132.25 50.7656 132.766 50.8906L134.062 51.2031C134.839 51.3906 135.417 51.6797 135.797 52.0703C136.182 52.4609 136.375 52.9583 136.375 53.5625C136.375 54.0625 136.232 54.5104 135.945 54.9062C135.659 55.3021 135.26 55.6146 134.75 55.8438C134.24 56.0729 133.646 56.1875 132.969 56.1875C132.078 56.1875 131.341 55.9922 130.758 55.6016C130.18 55.2109 129.812 54.6458 129.656 53.9062L130.922 53.5938C131.042 54.0625 131.271 54.4141 131.609 54.6484C131.953 54.8828 132.401 55 132.953 55C133.573 55 134.068 54.8672 134.438 54.6016C134.812 54.3307 135 54.0104 135 53.6406C135 53.026 134.568 52.6146 133.703 52.4062L132.25 52.0625C131.448 51.8698 130.859 51.5755 130.484 51.1797C130.109 50.7839 129.922 50.2865 129.922 49.6875C129.922 49.1927 130.06 48.7552 130.336 48.375C130.617 47.9948 131 47.6979 131.484 47.4844C131.969 47.2656 132.516 47.1562 133.125 47.1562C133.995 47.1562 134.674 47.349 135.164 47.7344C135.659 48.1146 136.01 48.6146 136.219 49.2344ZM141.438 47.2656V48.4062H136.922V47.2656H141.438ZM138.234 45.1875H139.562V53.5C139.562 53.9531 139.656 54.2865 139.844 54.5C140.031 54.7083 140.328 54.8125 140.734 54.8125C140.823 54.8125 140.914 54.8073 141.008 54.7969C141.107 54.7865 141.214 54.7708 141.328 54.75L141.609 55.9531C141.484 56 141.331 56.0365 141.148 56.0625C140.971 56.0938 140.792 56.1094 140.609 56.1094C139.906 56.1094 139.333 55.901 138.891 55.4844C138.453 55.0677 138.234 54.526 138.234 53.8594V45.1875ZM142.719 56V47.2656H144.047V56H142.719ZM143.391 45.8125C143.13 45.8125 142.906 45.724 142.719 45.5469C142.531 45.3698 142.438 45.1562 142.438 44.9062C142.438 44.6562 142.531 44.4427 142.719 44.2656C142.906 44.0885 143.13 44 143.391 44C143.651 44 143.875 44.0885 144.062 44.2656C144.25 44.4427 144.344 44.6562 144.344 44.9062C144.344 45.1562 144.25 45.3698 144.062 45.5469C143.875 45.724 143.651 45.8125 143.391 45.8125ZM149.297 56.1875C148.484 56.1875 147.781 55.9948 147.188 55.6094C146.599 55.2188 146.143 54.6849 145.82 54.0078C145.503 53.3307 145.344 52.5573 145.344 51.6875C145.344 50.7969 145.508 50.013 145.836 49.3359C146.164 48.6536 146.622 48.1198 147.211 47.7344C147.805 47.349 148.495 47.1562 149.281 47.1562C149.896 47.1562 150.448 47.2708 150.938 47.5C151.432 47.724 151.836 48.0417 152.148 48.4531C152.466 48.8646 152.661 49.3438 152.734 49.8906H151.391C151.323 49.625 151.201 49.375 151.023 49.1406C150.846 48.9062 150.612 48.7188 150.32 48.5781C150.034 48.4323 149.693 48.3594 149.297 48.3594C148.776 48.3594 148.32 48.4948 147.93 48.7656C147.539 49.0365 147.234 49.4193 147.016 49.9141C146.797 50.4036 146.688 50.9792 146.688 51.6406C146.688 52.3125 146.794 52.901 147.008 53.4062C147.221 53.9062 147.523 54.2943 147.914 54.5703C148.31 54.8464 148.771 54.9844 149.297 54.9844C149.823 54.9844 150.273 54.849 150.648 54.5781C151.023 54.3021 151.271 53.9271 151.391 53.4531H152.734C152.661 53.9688 152.474 54.4323 152.172 54.8438C151.875 55.2552 151.482 55.5833 150.992 55.8281C150.508 56.0677 149.943 56.1875 149.297 56.1875ZM160.172 49.2344L158.969 49.5625C158.854 49.2656 158.656 48.9844 158.375 48.7188C158.099 48.4479 157.667 48.3125 157.078 48.3125C156.547 48.3125 156.104 48.4375 155.75 48.6875C155.396 48.9323 155.219 49.2396 155.219 49.6094C155.219 49.9427 155.339 50.2083 155.578 50.4062C155.823 50.6042 156.203 50.7656 156.719 50.8906L158.016 51.2031C158.792 51.3906 159.37 51.6797 159.75 52.0703C160.135 52.4609 160.328 52.9583 160.328 53.5625C160.328 54.0625 160.185 54.5104 159.898 54.9062C159.612 55.3021 159.214 55.6146 158.703 55.8438C158.193 56.0729 157.599 56.1875 156.922 56.1875C156.031 56.1875 155.294 55.9922 154.711 55.6016C154.133 55.2109 153.766 54.6458 153.609 53.9062L154.875 53.5938C154.995 54.0625 155.224 54.4141 155.562 54.6484C155.906 54.8828 156.354 55 156.906 55C157.526 55 158.021 54.8672 158.391 54.6016C158.766 54.3307 158.953 54.0104 158.953 53.6406C158.953 53.026 158.521 52.6146 157.656 52.4062L156.203 52.0625C155.401 51.8698 154.812 51.5755 154.438 51.1797C154.062 50.7839 153.875 50.2865 153.875 49.6875C153.875 49.1927 154.013 48.7552 154.289 48.375C154.57 47.9948 154.953 47.6979 155.438 47.4844C155.922 47.2656 156.469 47.1562 157.078 47.1562C157.948 47.1562 158.628 47.349 159.117 47.7344C159.612 48.1146 159.964 48.6146 160.172 49.2344Z" fill="#FCFCFC" fill-opacity="0.6"/>
<path d="M19.8281 78.2715V65.543H20.6348V78.2715H19.8281ZM20.2314 77.1641C19.4704 77.1641 18.8096 77.0456 18.249 76.8086C17.693 76.5671 17.2578 76.223 16.9434 75.7764C16.6289 75.3298 16.4535 74.7988 16.417 74.1836H17.9619C17.9938 74.5527 18.1123 74.8604 18.3174 75.1064C18.527 75.348 18.7982 75.528 19.1309 75.6465C19.4635 75.765 19.8281 75.8242 20.2246 75.8242C20.6576 75.8242 21.0449 75.7559 21.3867 75.6191C21.7285 75.4824 21.9951 75.291 22.1865 75.0449C22.3825 74.7943 22.4805 74.5026 22.4805 74.1699C22.4805 73.8691 22.3939 73.623 22.2207 73.4316C22.0521 73.2402 21.8219 73.083 21.5303 72.96C21.2386 72.8324 20.9105 72.7207 20.5459 72.625L19.3496 72.2969C18.5293 72.0781 17.8822 71.7523 17.4082 71.3193C16.9342 70.8818 16.6973 70.3099 16.6973 69.6035C16.6973 69.0156 16.8545 68.5029 17.1689 68.0654C17.488 67.6279 17.9186 67.2884 18.4609 67.0469C19.0078 66.8008 19.6208 66.6777 20.2998 66.6777C20.9925 66.6777 21.6009 66.8008 22.125 67.0469C22.6536 67.2884 23.0706 67.6211 23.376 68.0449C23.6859 68.4642 23.8477 68.945 23.8613 69.4873H22.3711C22.3164 69.0179 22.0977 68.6533 21.7148 68.3936C21.3366 68.1338 20.8535 68.0039 20.2656 68.0039C19.8555 68.0039 19.4954 68.07 19.1855 68.2021C18.8802 68.3298 18.6432 68.5075 18.4746 68.7354C18.3105 68.9632 18.2285 69.2253 18.2285 69.5215C18.2285 69.8405 18.3265 70.1003 18.5225 70.3008C18.723 70.5013 18.9645 70.6608 19.2471 70.7793C19.5342 70.8932 19.8099 70.9867 20.0742 71.0596L21.0654 71.3262C21.389 71.4082 21.7217 71.5176 22.0635 71.6543C22.4053 71.791 22.722 71.971 23.0137 72.1943C23.3099 72.4131 23.5469 72.6865 23.7246 73.0146C23.9069 73.3382 23.998 73.7301 23.998 74.1904C23.998 74.7601 23.8499 75.2705 23.5537 75.7217C23.2575 76.1683 22.8291 76.5215 22.2686 76.7812C21.708 77.0365 21.029 77.1641 20.2314 77.1641ZM28.0176 75.0107V73.7734L32.4131 66.8145H33.3906V68.6465H32.7617L29.6172 73.623V73.7051H35.6533V75.0107H28.0176ZM32.8301 77V74.6348L32.8438 74.0674V66.8145H34.3066V77H32.8301ZM40.3223 66.8145V77H38.8047V68.3594H38.7363L36.3164 69.9521V68.4756L38.8457 66.8145H40.3223ZM42.9609 77.0957C42.6829 77.0957 42.446 77 42.25 76.8086C42.0586 76.6172 41.9629 76.3825 41.9629 76.1045C41.9629 75.8265 42.0586 75.5918 42.25 75.4004C42.446 75.209 42.6829 75.1133 42.9609 75.1133C43.2389 75.1133 43.4736 75.209 43.665 75.4004C43.861 75.5918 43.959 75.8265 43.959 76.1045C43.959 76.3825 43.861 76.6172 43.665 76.8086C43.4736 77 43.2389 77.0957 42.9609 77.0957ZM48.6553 77.1367C47.9671 77.1367 47.3564 77.0205 46.8232 76.7881C46.29 76.5511 45.8685 76.223 45.5586 75.8037C45.2487 75.3844 45.0846 74.8991 45.0664 74.3477H46.6113C46.6341 74.6484 46.7367 74.9082 46.9189 75.127C47.1012 75.3457 47.3405 75.5166 47.6367 75.6396C47.9375 75.7581 48.2725 75.8174 48.6416 75.8174C49.0426 75.8174 49.3981 75.7467 49.708 75.6055C50.0179 75.4642 50.2594 75.2705 50.4326 75.0244C50.6104 74.7738 50.6992 74.4844 50.6992 74.1562C50.6992 73.8145 50.6126 73.5137 50.4395 73.2539C50.2663 72.9896 50.0133 72.7845 49.6807 72.6387C49.348 72.4928 48.9469 72.4199 48.4775 72.4199H47.6094V71.1621H48.4775C48.8512 71.1621 49.1816 71.0938 49.4688 70.957C49.7559 70.8203 49.9792 70.6312 50.1387 70.3896C50.3027 70.1481 50.3848 69.8633 50.3848 69.5352C50.3848 69.2207 50.3141 68.9473 50.1729 68.7148C50.0316 68.4779 49.8333 68.2956 49.5781 68.168C49.3229 68.0358 49.0221 67.9697 48.6758 67.9697C48.3431 67.9697 48.0332 68.029 47.7461 68.1475C47.459 68.266 47.2243 68.4368 47.042 68.6602C46.8643 68.8789 46.7708 69.1455 46.7617 69.46H45.2783C45.292 68.9085 45.4515 68.4255 45.7568 68.0107C46.0667 67.5915 46.4769 67.2656 46.9873 67.0332C47.5023 66.7962 48.0719 66.6777 48.6963 66.6777C49.348 66.6777 49.9108 66.8053 50.3848 67.0605C50.8633 67.3112 51.2324 67.6484 51.4922 68.0723C51.752 68.4915 51.8818 68.9495 51.8818 69.4463C51.8818 70.0251 51.7223 70.5127 51.4033 70.9092C51.0843 71.3011 50.6582 71.5677 50.125 71.709V71.7842C50.7995 71.889 51.3213 72.1579 51.6904 72.5908C52.0641 73.0238 52.251 73.5615 52.251 74.2041C52.251 74.7646 52.0938 75.266 51.7793 75.708C51.4694 76.1501 51.0433 76.4987 50.501 76.7539C49.9632 77.0091 49.348 77.1367 48.6553 77.1367ZM53.8848 77L58.3281 68.209V68.1338H53.1875V66.8145H59.9277V68.1885L55.4912 77H53.8848ZM64.1387 66.6709C64.5944 66.6755 65.041 66.7598 65.4785 66.9238C65.9206 67.0833 66.3193 67.3477 66.6748 67.7168C67.0348 68.0859 67.3219 68.585 67.5361 69.2139C67.7503 69.8382 67.8574 70.6175 67.8574 71.5518C67.8574 72.4404 67.7686 73.2311 67.5908 73.9238C67.4131 74.6165 67.1556 75.2021 66.8184 75.6807C66.4857 76.1592 66.0824 76.5238 65.6084 76.7744C65.1344 77.0205 64.6035 77.1436 64.0156 77.1436C63.4095 77.1436 62.8695 77.0228 62.3955 76.7812C61.9215 76.5397 61.5387 76.2093 61.2471 75.79C60.9554 75.3662 60.7708 74.8809 60.6934 74.334H62.2109C62.3112 74.7669 62.514 75.1201 62.8193 75.3936C63.1292 75.6624 63.528 75.7969 64.0156 75.7969C64.7585 75.7969 65.3372 75.471 65.752 74.8193C66.1712 74.1676 66.3831 73.2585 66.3877 72.0918H66.3125C66.1348 72.3789 65.9183 72.6273 65.6631 72.8369C65.4079 73.042 65.1208 73.1992 64.8018 73.3086C64.4827 73.418 64.1455 73.4727 63.79 73.4727C63.1976 73.4727 62.6598 73.3291 62.1768 73.042C61.6937 72.7549 61.3109 72.3607 61.0283 71.8594C60.7458 71.3535 60.6022 70.777 60.5977 70.1299C60.6022 69.4827 60.7503 68.8971 61.042 68.373C61.3382 67.849 61.7507 67.4342 62.2793 67.1289C62.8079 66.819 63.4277 66.6663 64.1387 66.6709ZM64.1455 67.9697C63.7581 67.9697 63.4095 68.0654 63.0996 68.2568C62.7897 68.4482 62.5459 68.7057 62.3682 69.0293C62.1904 69.3529 62.1016 69.7129 62.1016 70.1094C62.1016 70.5059 62.1859 70.8636 62.3545 71.1826C62.5277 71.5016 62.7669 71.7568 63.0723 71.9482C63.3776 72.1351 63.724 72.2285 64.1113 72.2285C64.5033 72.2285 64.8542 72.1305 65.1641 71.9346C65.4785 71.734 65.7292 71.472 65.916 71.1484C66.1029 70.8203 66.1963 70.4671 66.1963 70.0889C66.1963 69.7152 66.1074 69.3665 65.9297 69.043C65.752 68.7194 65.5081 68.4596 65.1982 68.2637C64.8929 68.0677 64.542 67.9697 64.1455 67.9697Z" fill="#FCFCFC"/>
<path d="M16 186L16 151.714C16 147.296 19.5817 143.714 24 143.714C28.4183 143.714 32 147.296 32 151.714L32 186L16 186Z" fill="url(#paint0_linear_533_20958)"/>
<path d="M50.168 186L50.168 164.286C50.168 159.867 53.7497 156.286 58.168 156.286C62.5862 156.286 66.168 159.867 66.168 164.286L66.168 186L50.168 186Z" fill="url(#paint1_linear_533_20958)"/>
<path d="M84.332 186L84.332 135.714C84.332 131.296 87.9137 127.714 92.332 127.714C96.7503 127.714 100.332 131.296 100.332 135.714L100.332 186L84.332 186Z" fill="url(#paint2_linear_533_20958)"/>
<path d="M118.5 186L118.5 157.429C118.5 153.01 122.082 149.429 126.5 149.429C130.918 149.429 134.5 153.01 134.5 157.429L134.5 186L118.5 186Z" fill="url(#paint3_linear_533_20958)"/>
<path d="M152.668 186L152.668 144.857C152.668 140.439 156.25 136.857 160.668 136.857C165.086 136.857 168.668 140.439 168.668 144.857L168.668 186L152.668 186Z" fill="url(#paint4_linear_533_20958)"/>
<path d="M186.832 186L186.832 130C186.832 125.582 190.414 122 194.832 122C199.25 122 202.832 125.582 202.832 130L202.832 186L186.832 186Z" fill="url(#paint5_linear_533_20958)"/>
<path d="M221 186L221 176.857C221 172.439 224.582 168.857 229 168.857C233.418 168.857 237 172.439 237 176.857L237 186L221 186Z" fill="url(#paint6_linear_533_20958)"/>
<path d="M24.1712 202.144C23.6112 202.144 23.0912 202.04 22.6112 201.832C22.1312 201.616 21.7232 201.324 21.3872 200.956C21.0512 200.588 20.8032 200.164 20.6432 199.684L21.8432 199.18C22.0592 199.732 22.3752 200.156 22.7912 200.452C23.2072 200.748 23.6872 200.896 24.2312 200.896C24.5512 200.896 24.8312 200.848 25.0712 200.752C25.3112 200.648 25.4952 200.504 25.6232 200.32C25.7592 200.136 25.8272 199.924 25.8272 199.684C25.8272 199.356 25.7352 199.096 25.5512 198.904C25.3672 198.712 25.0952 198.56 24.7352 198.448L23.0552 197.92C22.3832 197.712 21.8712 197.396 21.5192 196.972C21.1672 196.54 20.9912 196.036 20.9912 195.46C20.9912 194.956 21.1152 194.516 21.3632 194.14C21.6112 193.756 21.9512 193.456 22.3832 193.24C22.8232 193.024 23.3232 192.916 23.8832 192.916C24.4192 192.916 24.9072 193.012 25.3472 193.204C25.7872 193.388 26.1632 193.644 26.4752 193.972C26.7952 194.3 27.0272 194.68 27.1712 195.112L25.9952 195.628C25.8192 195.156 25.5432 194.792 25.1672 194.536C24.7992 194.28 24.3712 194.152 23.8832 194.152C23.5872 194.152 23.3272 194.204 23.1032 194.308C22.8792 194.404 22.7032 194.548 22.5752 194.74C22.4552 194.924 22.3952 195.14 22.3952 195.388C22.3952 195.676 22.4872 195.932 22.6712 196.156C22.8552 196.38 23.1352 196.548 23.5112 196.66L25.0712 197.152C25.7832 197.368 26.3192 197.68 26.6792 198.088C27.0392 198.488 27.2192 198.988 27.2192 199.588C27.2192 200.084 27.0872 200.524 26.8232 200.908C26.5672 201.292 26.2112 201.596 25.7552 201.82C25.2992 202.036 24.7712 202.144 24.1712 202.144Z" fill="#FCFCFC"/>
<path d="M54.3478 202V193.06H55.6678L59.0278 197.716H58.3678L61.6678 193.06H62.9878V202H61.5838V194.728L62.1118 194.872L58.7398 199.48H58.5958L55.2958 194.872L55.7638 194.728V202H54.3478Z" fill="#FCFCFC"/>
<path d="M92.1467 202V194.32H89.7707V193.06H95.8907V194.32H93.5507V202H92.1467Z" fill="#FCFCFC"/>
<path d="M124.545 202L122.085 193.06H123.585L125.577 200.8H125.205L127.269 193.06H128.745L130.809 200.8H130.425L132.429 193.06H133.917L131.469 202H129.873L127.797 194.38H128.217L126.129 202H124.545Z" fill="#FCFCFC"/>
<path d="M162.483 202V194.32H160.107V193.06H166.227V194.32H163.887V202H162.483Z" fill="#FCFCFC"/>
<path d="M193.252 202V193.06H199.072V194.32H194.668V197.008H198.592V198.268H194.668V202H193.252Z" fill="#FCFCFC"/>
<path d="M229.171 202.144C228.611 202.144 228.091 202.04 227.611 201.832C227.131 201.616 226.723 201.324 226.387 200.956C226.051 200.588 225.803 200.164 225.643 199.684L226.843 199.18C227.059 199.732 227.375 200.156 227.791 200.452C228.207 200.748 228.687 200.896 229.231 200.896C229.551 200.896 229.831 200.848 230.071 200.752C230.311 200.648 230.495 200.504 230.623 200.32C230.759 200.136 230.827 199.924 230.827 199.684C230.827 199.356 230.735 199.096 230.551 198.904C230.367 198.712 230.095 198.56 229.735 198.448L228.055 197.92C227.383 197.712 226.871 197.396 226.519 196.972C226.167 196.54 225.991 196.036 225.991 195.46C225.991 194.956 226.115 194.516 226.363 194.14C226.611 193.756 226.951 193.456 227.383 193.24C227.823 193.024 228.323 192.916 228.883 192.916C229.419 192.916 229.907 193.012 230.347 193.204C230.787 193.388 231.163 193.644 231.475 193.972C231.795 194.3 232.027 194.68 232.171 195.112L230.995 195.628C230.819 195.156 230.543 194.792 230.167 194.536C229.799 194.28 229.371 194.152 228.883 194.152C228.587 194.152 228.327 194.204 228.103 194.308C227.879 194.404 227.703 194.548 227.575 194.74C227.455 194.924 227.395 195.14 227.395 195.388C227.395 195.676 227.487 195.932 227.671 196.156C227.855 196.38 228.135 196.548 228.511 196.66L230.071 197.152C230.783 197.368 231.319 197.68 231.679 198.088C232.039 198.488 232.219 198.988 232.219 199.588C232.219 200.084 232.087 200.524 231.823 200.908C231.567 201.292 231.211 201.596 230.755 201.82C230.299 202.036 229.771 202.144 229.171 202.144Z" fill="#FCFCFC"/>
<g filter="url(#filter0_dd_533_20958)">
<rect x="198.902" y="54" width="62" height="50" rx="8" transform="rotate(-14 198.902 54)" fill="#F9EB57"/>
<path d="M216.097 84.7533L215.728 83.2752L219.792 75.7402C220.266 74.8651 220.645 74.1102 220.93 73.4757C221.222 72.8392 221.412 72.2604 221.5 71.7394C221.595 71.2165 221.578 70.6973 221.449 70.1819C221.3 69.583 221.028 69.1034 220.632 68.7432C220.242 68.3734 219.775 68.1316 219.231 68.0175C218.687 67.9035 218.108 67.923 217.494 68.0761C216.842 68.2387 216.307 68.5131 215.888 68.8993C215.477 69.2837 215.199 69.7516 215.054 70.3029C214.916 70.8447 214.927 71.4378 215.087 72.0821L213.132 72.5697C212.884 71.5767 212.894 70.6483 213.162 69.7844C213.437 68.9186 213.917 68.179 214.601 67.5655C215.291 66.9426 216.129 66.5082 217.115 66.2625C218.108 66.0149 219.04 66.008 219.911 66.2416C220.781 66.4676 221.521 66.883 222.13 67.4879C222.746 68.0832 223.163 68.8206 223.382 69.6999C223.537 70.3215 223.575 70.9563 223.495 71.6043C223.421 72.2428 223.197 72.9949 222.826 73.8606C222.461 74.7244 221.923 75.7965 221.212 77.0769L218.429 82.0945L218.463 82.231L226.332 80.2691L226.785 82.0884L216.097 84.7533ZM234.688 80.3597C233.444 80.6696 232.298 80.5931 231.249 80.1301C230.199 79.6671 229.283 78.8489 228.499 77.6756C227.713 76.4946 227.091 74.9831 226.632 73.141C226.174 71.3066 226.015 69.6836 226.154 68.272C226.299 66.851 226.726 65.6898 227.436 64.7883C228.143 63.8792 229.114 63.2706 230.35 62.9626C231.586 62.6545 232.729 62.7358 233.781 63.2063C234.83 63.6693 235.748 64.4951 236.536 65.6836C237.329 66.8627 237.954 68.3695 238.412 70.204C238.871 72.046 239.031 73.6728 238.892 75.0843C238.751 76.4883 238.326 77.641 237.616 78.5425C236.915 79.4421 235.938 80.0478 234.688 80.3597ZM234.24 78.5631C235.081 78.3533 235.727 77.9066 236.176 77.2228C236.624 76.5315 236.871 75.6326 236.917 74.526C236.971 73.4176 236.817 72.1394 236.456 70.6916C236.093 69.2361 235.628 68.0317 235.06 67.0782C234.5 66.1229 233.86 65.4451 233.14 65.0448C232.42 64.6446 231.639 64.5493 230.798 64.7591C229.54 65.0729 228.721 65.9212 228.341 67.3042C227.961 68.6872 228.043 70.4702 228.587 72.6534C228.948 74.1013 229.409 75.3029 229.969 76.2582C230.537 77.2117 231.181 77.8885 231.901 78.2888C232.626 78.6796 233.406 78.771 234.24 78.5631ZM250.416 72.815L250.194 71.9281C250.039 71.3065 250.023 70.7068 250.144 70.129C250.274 69.5492 250.546 69.0425 250.961 68.6089C251.376 68.1752 251.936 67.8705 252.641 67.6948C253.362 67.5152 254.003 67.5203 254.566 67.7102C255.128 67.9 255.595 68.2224 255.966 68.6774C256.345 69.1305 256.612 69.6679 256.767 70.2895L256.988 71.1764C257.143 71.798 257.159 72.3977 257.038 72.9755C256.916 73.5534 256.652 74.0582 256.244 74.4899C255.836 74.9217 255.276 75.2264 254.564 75.4041C253.851 75.5817 253.21 75.5766 252.639 75.3886C252.069 75.2007 251.595 74.8802 251.216 74.4271C250.837 73.974 250.571 73.4366 250.416 72.815ZM251.877 71.5085L252.098 72.3954C252.227 72.9109 252.464 73.3431 252.808 73.6919C253.151 74.0332 253.619 74.1339 254.212 73.9941C254.794 73.841 255.152 73.5343 255.287 73.0739C255.427 72.6041 255.433 72.1114 255.305 71.596L255.084 70.709C254.955 70.1936 254.723 69.7643 254.388 69.4211C254.061 69.076 253.598 68.9781 252.999 69.1275C252.423 69.2711 252.059 69.575 251.91 70.0391C251.76 70.5033 251.749 70.9931 251.877 71.5085ZM239.563 65.2308L239.342 64.3439C239.187 63.7223 239.174 63.1216 239.303 62.5419C239.433 61.9622 239.701 61.4564 240.109 61.0247C240.524 60.591 241.084 60.2863 241.789 60.1105C242.509 59.931 243.151 59.9361 243.713 60.126C244.283 60.3139 244.754 60.6354 245.125 61.0904C245.504 61.5435 245.767 62.0818 245.914 62.7053L246.135 63.5922C246.296 64.2043 246.313 64.804 246.185 65.3913C246.064 65.9692 245.799 66.474 245.391 66.9057C244.984 67.3375 244.424 67.6422 243.711 67.8198C242.999 67.9975 242.357 67.9924 241.787 67.8044C241.217 67.6165 240.742 67.2959 240.364 66.8428C239.983 66.3822 239.716 65.8448 239.563 65.2308ZM241.025 63.9243L241.246 64.8112C241.375 65.3267 241.611 65.7589 241.956 66.1077C242.298 66.449 242.765 66.5421 243.354 66.3871C243.939 66.2492 244.3 65.95 244.435 65.4897C244.575 65.0199 244.581 64.5272 244.453 64.0117L244.231 63.1248C244.103 62.6094 243.871 62.18 243.536 61.8369C243.206 61.4842 242.743 61.3864 242.146 61.5432C241.568 61.6793 241.205 61.9832 241.057 62.4549C240.907 62.919 240.896 63.4088 241.025 63.9243ZM243.409 77.9436L250.828 58.0983L252.716 57.6277L245.297 77.473L243.409 77.9436Z" fill="#1A1A1C"/>
<path d="M216.097 84.7533L215.728 83.2752L219.792 75.7402C220.266 74.8651 220.645 74.1102 220.93 73.4757C221.222 72.8392 221.412 72.2604 221.5 71.7394C221.595 71.2165 221.578 70.6973 221.449 70.1819C221.3 69.583 221.028 69.1034 220.632 68.7432C220.242 68.3734 219.775 68.1316 219.231 68.0175C218.687 67.9035 218.108 67.923 217.494 68.0761C216.842 68.2387 216.307 68.5131 215.888 68.8993C215.477 69.2837 215.199 69.7516 215.054 70.3029C214.916 70.8447 214.927 71.4378 215.087 72.0821L213.132 72.5697C212.884 71.5767 212.894 70.6483 213.162 69.7844C213.437 68.9186 213.917 68.179 214.601 67.5655C215.291 66.9426 216.129 66.5082 217.115 66.2625C218.108 66.0149 219.04 66.008 219.911 66.2416C220.781 66.4676 221.521 66.883 222.13 67.4879C222.746 68.0832 223.163 68.8206 223.382 69.6999C223.537 70.3215 223.575 70.9563 223.495 71.6043C223.421 72.2428 223.197 72.9949 222.826 73.8606C222.461 74.7244 221.923 75.7965 221.212 77.0769L218.429 82.0945L218.463 82.231L226.332 80.2691L226.785 82.0884L216.097 84.7533ZM234.688 80.3597C233.444 80.6696 232.298 80.5931 231.249 80.1301C230.199 79.6671 229.283 78.8489 228.499 77.6756C227.713 76.4946 227.091 74.9831 226.632 73.141C226.174 71.3066 226.015 69.6836 226.154 68.272C226.299 66.851 226.726 65.6898 227.436 64.7883C228.143 63.8792 229.114 63.2706 230.35 62.9626C231.586 62.6545 232.729 62.7358 233.781 63.2063C234.83 63.6693 235.748 64.4951 236.536 65.6836C237.329 66.8627 237.954 68.3695 238.412 70.204C238.871 72.046 239.031 73.6728 238.892 75.0843C238.751 76.4883 238.326 77.641 237.616 78.5425C236.915 79.4421 235.938 80.0478 234.688 80.3597ZM234.24 78.5631C235.081 78.3533 235.727 77.9066 236.176 77.2228C236.624 76.5315 236.871 75.6326 236.917 74.526C236.971 73.4176 236.817 72.1394 236.456 70.6916C236.093 69.2361 235.628 68.0317 235.06 67.0782C234.5 66.1229 233.86 65.4451 233.14 65.0448C232.42 64.6446 231.639 64.5493 230.798 64.7591C229.54 65.0729 228.721 65.9212 228.341 67.3042C227.961 68.6872 228.043 70.4702 228.587 72.6534C228.948 74.1013 229.409 75.3029 229.969 76.2582C230.537 77.2117 231.181 77.8885 231.901 78.2888C232.626 78.6796 233.406 78.771 234.24 78.5631ZM250.416 72.815L250.194 71.9281C250.039 71.3065 250.023 70.7068 250.144 70.129C250.274 69.5492 250.546 69.0425 250.961 68.6089C251.376 68.1752 251.936 67.8705 252.641 67.6948C253.362 67.5152 254.003 67.5203 254.566 67.7102C255.128 67.9 255.595 68.2224 255.966 68.6774C256.345 69.1305 256.612 69.6679 256.767 70.2895L256.988 71.1764C257.143 71.798 257.159 72.3977 257.038 72.9755C256.916 73.5534 256.652 74.0582 256.244 74.4899C255.836 74.9217 255.276 75.2264 254.564 75.4041C253.851 75.5817 253.21 75.5766 252.639 75.3886C252.069 75.2007 251.595 74.8802 251.216 74.4271C250.837 73.974 250.571 73.4366 250.416 72.815ZM251.877 71.5085L252.098 72.3954C252.227 72.9109 252.464 73.3431 252.808 73.6919C253.151 74.0332 253.619 74.1339 254.212 73.9941C254.794 73.841 255.152 73.5343 255.287 73.0739C255.427 72.6041 255.433 72.1114 255.305 71.596L255.084 70.709C254.955 70.1936 254.723 69.7643 254.388 69.4211C254.061 69.076 253.598 68.9781 252.999 69.1275C252.423 69.2711 252.059 69.575 251.91 70.0391C251.76 70.5033 251.749 70.9931 251.877 71.5085ZM239.563 65.2308L239.342 64.3439C239.187 63.7223 239.174 63.1216 239.303 62.5419C239.433 61.9622 239.701 61.4564 240.109 61.0247C240.524 60.591 241.084 60.2863 241.789 60.1105C242.509 59.931 243.151 59.9361 243.713 60.126C244.283 60.3139 244.754 60.6354 245.125 61.0904C245.504 61.5435 245.767 62.0818 245.914 62.7053L246.135 63.5922C246.296 64.2043 246.313 64.804 246.185 65.3913C246.064 65.9692 245.799 66.474 245.391 66.9057C244.984 67.3375 244.424 67.6422 243.711 67.8198C242.999 67.9975 242.357 67.9924 241.787 67.8044C241.217 67.6165 240.742 67.2959 240.364 66.8428C239.983 66.3822 239.716 65.8448 239.563 65.2308ZM241.025 63.9243L241.246 64.8112C241.375 65.3267 241.611 65.7589 241.956 66.1077C242.298 66.449 242.765 66.5421 243.354 66.3871C243.939 66.2492 244.3 65.95 244.435 65.4897C244.575 65.0199 244.581 64.5272 244.453 64.0117L244.231 63.1248C244.103 62.6094 243.871 62.18 243.536 61.8369C243.206 61.4842 242.743 61.3864 242.146 61.5432C241.568 61.6793 241.205 61.9832 241.057 62.4549C240.907 62.919 240.896 63.4088 241.025 63.9243ZM243.409 77.9436L250.828 58.0983L252.716 57.6277L245.297 77.473L243.409 77.9436Z" fill="black" fill-opacity="0.2"/>
<path d="M216.097 84.7533L215.728 83.2752L219.792 75.7402C220.266 74.8651 220.645 74.1102 220.93 73.4757C221.222 72.8392 221.412 72.2604 221.5 71.7394C221.595 71.2165 221.578 70.6973 221.449 70.1819C221.3 69.583 221.028 69.1034 220.632 68.7432C220.242 68.3734 219.775 68.1316 219.231 68.0175C218.687 67.9035 218.108 67.923 217.494 68.0761C216.842 68.2387 216.307 68.5131 215.888 68.8993C215.477 69.2837 215.199 69.7516 215.054 70.3029C214.916 70.8447 214.927 71.4378 215.087 72.0821L213.132 72.5697C212.884 71.5767 212.894 70.6483 213.162 69.7844C213.437 68.9186 213.917 68.179 214.601 67.5655C215.291 66.9426 216.129 66.5082 217.115 66.2625C218.108 66.0149 219.04 66.008 219.911 66.2416C220.781 66.4676 221.521 66.883 222.13 67.4879C222.746 68.0832 223.163 68.8206 223.382 69.6999C223.537 70.3215 223.575 70.9563 223.495 71.6043C223.421 72.2428 223.197 72.9949 222.826 73.8606C222.461 74.7244 221.923 75.7965 221.212 77.0769L218.429 82.0945L218.463 82.231L226.332 80.2691L226.785 82.0884L216.097 84.7533ZM234.688 80.3597C233.444 80.6696 232.298 80.5931 231.249 80.1301C230.199 79.6671 229.283 78.8489 228.499 77.6756C227.713 76.4946 227.091 74.9831 226.632 73.141C226.174 71.3066 226.015 69.6836 226.154 68.272C226.299 66.851 226.726 65.6898 227.436 64.7883C228.143 63.8792 229.114 63.2706 230.35 62.9626C231.586 62.6545 232.729 62.7358 233.781 63.2063C234.83 63.6693 235.748 64.4951 236.536 65.6836C237.329 66.8627 237.954 68.3695 238.412 70.204C238.871 72.046 239.031 73.6728 238.892 75.0843C238.751 76.4883 238.326 77.641 237.616 78.5425C236.915 79.4421 235.938 80.0478 234.688 80.3597ZM234.24 78.5631C235.081 78.3533 235.727 77.9066 236.176 77.2228C236.624 76.5315 236.871 75.6326 236.917 74.526C236.971 73.4176 236.817 72.1394 236.456 70.6916C236.093 69.2361 235.628 68.0317 235.06 67.0782C234.5 66.1229 233.86 65.4451 233.14 65.0448C232.42 64.6446 231.639 64.5493 230.798 64.7591C229.54 65.0729 228.721 65.9212 228.341 67.3042C227.961 68.6872 228.043 70.4702 228.587 72.6534C228.948 74.1013 229.409 75.3029 229.969 76.2582C230.537 77.2117 231.181 77.8885 231.901 78.2888C232.626 78.6796 233.406 78.771 234.24 78.5631ZM250.416 72.815L250.194 71.9281C250.039 71.3065 250.023 70.7068 250.144 70.129C250.274 69.5492 250.546 69.0425 250.961 68.6089C251.376 68.1752 251.936 67.8705 252.641 67.6948C253.362 67.5152 254.003 67.5203 254.566 67.7102C255.128 67.9 255.595 68.2224 255.966 68.6774C256.345 69.1305 256.612 69.6679 256.767 70.2895L256.988 71.1764C257.143 71.798 257.159 72.3977 257.038 72.9755C256.916 73.5534 256.652 74.0582 256.244 74.4899C255.836 74.9217 255.276 75.2264 254.564 75.4041C253.851 75.5817 253.21 75.5766 252.639 75.3886C252.069 75.2007 251.595 74.8802 251.216 74.4271C250.837 73.974 250.571 73.4366 250.416 72.815ZM251.877 71.5085L252.098 72.3954C252.227 72.9109 252.464 73.3431 252.808 73.6919C253.151 74.0332 253.619 74.1339 254.212 73.9941C254.794 73.841 255.152 73.5343 255.287 73.0739C255.427 72.6041 255.433 72.1114 255.305 71.596L255.084 70.709C254.955 70.1936 254.723 69.7643 254.388 69.4211C254.061 69.076 253.598 68.9781 252.999 69.1275C252.423 69.2711 252.059 69.575 251.91 70.0391C251.76 70.5033 251.749 70.9931 251.877 71.5085ZM239.563 65.2308L239.342 64.3439C239.187 63.7223 239.174 63.1216 239.303 62.5419C239.433 61.9622 239.701 61.4564 240.109 61.0247C240.524 60.591 241.084 60.2863 241.789 60.1105C242.509 59.931 243.151 59.9361 243.713 60.126C244.283 60.3139 244.754 60.6354 245.125 61.0904C245.504 61.5435 245.767 62.0818 245.914 62.7053L246.135 63.5922C246.296 64.2043 246.313 64.804 246.185 65.3913C246.064 65.9692 245.799 66.474 245.391 66.9057C244.984 67.3375 244.424 67.6422 243.711 67.8198C242.999 67.9975 242.357 67.9924 241.787 67.8044C241.217 67.6165 240.742 67.2959 240.364 66.8428C239.983 66.3822 239.716 65.8448 239.563 65.2308ZM241.025 63.9243L241.246 64.8112C241.375 65.3267 241.611 65.7589 241.956 66.1077C242.298 66.449 242.765 66.5421 243.354 66.3871C243.939 66.2492 244.3 65.95 244.435 65.4897C244.575 65.0199 244.581 64.5272 244.453 64.0117L244.231 63.1248C244.103 62.6094 243.871 62.18 243.536 61.8369C243.206 61.4842 242.743 61.3864 242.146 61.5432C241.568 61.6793 241.205 61.9832 241.057 62.4549C240.907 62.919 240.896 63.4088 241.025 63.9243ZM243.409 77.9436L250.828 58.0983L252.716 57.6277L245.297 77.473L243.409 77.9436Z" fill="black" fill-opacity="0.2"/>
<path d="M216.097 84.7533L215.728 83.2752L219.792 75.7402C220.266 74.8651 220.645 74.1102 220.93 73.4757C221.222 72.8392 221.412 72.2604 221.5 71.7394C221.595 71.2165 221.578 70.6973 221.449 70.1819C221.3 69.583 221.028 69.1034 220.632 68.7432C220.242 68.3734 219.775 68.1316 219.231 68.0175C218.687 67.9035 218.108 67.923 217.494 68.0761C216.842 68.2387 216.307 68.5131 215.888 68.8993C215.477 69.2837 215.199 69.7516 215.054 70.3029C214.916 70.8447 214.927 71.4378 215.087 72.0821L213.132 72.5697C212.884 71.5767 212.894 70.6483 213.162 69.7844C213.437 68.9186 213.917 68.179 214.601 67.5655C215.291 66.9426 216.129 66.5082 217.115 66.2625C218.108 66.0149 219.04 66.008 219.911 66.2416C220.781 66.4676 221.521 66.883 222.13 67.4879C222.746 68.0832 223.163 68.8206 223.382 69.6999C223.537 70.3215 223.575 70.9563 223.495 71.6043C223.421 72.2428 223.197 72.9949 222.826 73.8606C222.461 74.7244 221.923 75.7965 221.212 77.0769L218.429 82.0945L218.463 82.231L226.332 80.2691L226.785 82.0884L216.097 84.7533ZM234.688 80.3597C233.444 80.6696 232.298 80.5931 231.249 80.1301C230.199 79.6671 229.283 78.8489 228.499 77.6756C227.713 76.4946 227.091 74.9831 226.632 73.141C226.174 71.3066 226.015 69.6836 226.154 68.272C226.299 66.851 226.726 65.6898 227.436 64.7883C228.143 63.8792 229.114 63.2706 230.35 62.9626C231.586 62.6545 232.729 62.7358 233.781 63.2063C234.83 63.6693 235.748 64.4951 236.536 65.6836C237.329 66.8627 237.954 68.3695 238.412 70.204C238.871 72.046 239.031 73.6728 238.892 75.0843C238.751 76.4883 238.326 77.641 237.616 78.5425C236.915 79.4421 235.938 80.0478 234.688 80.3597ZM234.24 78.5631C235.081 78.3533 235.727 77.9066 236.176 77.2228C236.624 76.5315 236.871 75.6326 236.917 74.526C236.971 73.4176 236.817 72.1394 236.456 70.6916C236.093 69.2361 235.628 68.0317 235.06 67.0782C234.5 66.1229 233.86 65.4451 233.14 65.0448C232.42 64.6446 231.639 64.5493 230.798 64.7591C229.54 65.0729 228.721 65.9212 228.341 67.3042C227.961 68.6872 228.043 70.4702 228.587 72.6534C228.948 74.1013 229.409 75.3029 229.969 76.2582C230.537 77.2117 231.181 77.8885 231.901 78.2888C232.626 78.6796 233.406 78.771 234.24 78.5631ZM250.416 72.815L250.194 71.9281C250.039 71.3065 250.023 70.7068 250.144 70.129C250.274 69.5492 250.546 69.0425 250.961 68.6089C251.376 68.1752 251.936 67.8705 252.641 67.6948C253.362 67.5152 254.003 67.5203 254.566 67.7102C255.128 67.9 255.595 68.2224 255.966 68.6774C256.345 69.1305 256.612 69.6679 256.767 70.2895L256.988 71.1764C257.143 71.798 257.159 72.3977 257.038 72.9755C256.916 73.5534 256.652 74.0582 256.244 74.4899C255.836 74.9217 255.276 75.2264 254.564 75.4041C253.851 75.5817 253.21 75.5766 252.639 75.3886C252.069 75.2007 251.595 74.8802 251.216 74.4271C250.837 73.974 250.571 73.4366 250.416 72.815ZM251.877 71.5085L252.098 72.3954C252.227 72.9109 252.464 73.3431 252.808 73.6919C253.151 74.0332 253.619 74.1339 254.212 73.9941C254.794 73.841 255.152 73.5343 255.287 73.0739C255.427 72.6041 255.433 72.1114 255.305 71.596L255.084 70.709C254.955 70.1936 254.723 69.7643 254.388 69.4211C254.061 69.076 253.598 68.9781 252.999 69.1275C252.423 69.2711 252.059 69.575 251.91 70.0391C251.76 70.5033 251.749 70.9931 251.877 71.5085ZM239.563 65.2308L239.342 64.3439C239.187 63.7223 239.174 63.1216 239.303 62.5419C239.433 61.9622 239.701 61.4564 240.109 61.0247C240.524 60.591 241.084 60.2863 241.789 60.1105C242.509 59.931 243.151 59.9361 243.713 60.126C244.283 60.3139 244.754 60.6354 245.125 61.0904C245.504 61.5435 245.767 62.0818 245.914 62.7053L246.135 63.5922C246.296 64.2043 246.313 64.804 246.185 65.3913C246.064 65.9692 245.799 66.474 245.391 66.9057C244.984 67.3375 244.424 67.6422 243.711 67.8198C242.999 67.9975 242.357 67.9924 241.787 67.8044C241.217 67.6165 240.742 67.2959 240.364 66.8428C239.983 66.3822 239.716 65.8448 239.563 65.2308ZM241.025 63.9243L241.246 64.8112C241.375 65.3267 241.611 65.7589 241.956 66.1077C242.298 66.449 242.765 66.5421 243.354 66.3871C243.939 66.2492 244.3 65.95 244.435 65.4897C244.575 65.0199 244.581 64.5272 244.453 64.0117L244.231 63.1248C244.103 62.6094 243.871 62.18 243.536 61.8369C243.206 61.4842 242.743 61.3864 242.146 61.5432C241.568 61.6793 241.205 61.9832 241.057 62.4549C240.907 62.919 240.896 63.4088 241.025 63.9243ZM243.409 77.9436L250.828 58.0983L252.716 57.6277L245.297 77.473L243.409 77.9436Z" fill="black" fill-opacity="0.2"/>
</g>
<defs>
<filter id="filter0_dd_533_20958" x="138.902" y="-1" width="192.254" height="183.516" filterUnits="userSpaceOnUse" color-interpolation-filters="sRGB">
<feFlood flood-opacity="0" result="BackgroundImageFix"/>
<feColorMatrix in="SourceAlpha" type="matrix" values="0 0 0 0 0 0 0 0 0 0 0 0 0 0 0 0 0 0 127 0" result="hardAlpha"/>
<feMorphology radius="5" operator="erode" in="SourceAlpha" result="effect1_dropShadow_533_20958"/>
<feOffset dy="20"/>
<feGaussianBlur stdDeviation="32.5"/>
<feColorMatrix type="matrix" values="0 0 0 0 0.109804 0 0 0 0 0.133333 0 0 0 0 0.168627 0 0 0 0.05 0"/>
<feBlend mode="normal" in2="BackgroundImageFix" result="effect1_dropShadow_533_20958"/>
<feColorMatrix in="SourceAlpha" type="matrix" values="0 0 0 0 0 0 0 0 0 0 0 0 0 0 0 0 0 0 127 0" result="hardAlpha"/>
<feMorphology radius="5" operator="erode" in="SourceAlpha" result="effect2_dropShadow_533_20958"/>
<feOffset dy="10"/>
<feGaussianBlur stdDeviation="10"/>
<feColorMatrix type="matrix" values="0 0 0 0 0.109804 0 0 0 0 0.133333 0 0 0 0 0.168627 0 0 0 0.05 0"/>
<feBlend mode="normal" in2="effect1_dropShadow_533_20958" result="effect2_dropShadow_533_20958"/>
<feBlend mode="normal" in="SourceGraphic" in2="effect2_dropShadow_533_20958" result="shape"/>
</filter>
<linearGradient id="paint0_linear_533_20958" x1="23.9998" y1="146.063" x2="23.9998" y2="186" gradientUnits="userSpaceOnUse">
<stop stop-color="#23EED6"/>
<stop offset="1" stop-color="#23EED6" stop-opacity="0"/>
</linearGradient>
<linearGradient id="paint1_linear_533_20958" x1="58.1677" y1="157.937" x2="58.1677" y2="186" gradientUnits="userSpaceOnUse">
<stop stop-color="#23EED6"/>
<stop offset="1" stop-color="#23EED6" stop-opacity="0"/>
</linearGradient>
<linearGradient id="paint2_linear_533_20958" x1="92.3318" y1="130.952" x2="92.3318" y2="186" gradientUnits="userSpaceOnUse">
<stop stop-color="#23EED6"/>
<stop offset="1" stop-color="#23EED6" stop-opacity="0"/>
</linearGradient>
<linearGradient id="paint3_linear_533_20958" x1="126.5" y1="151.46" x2="126.5" y2="186" gradientUnits="userSpaceOnUse">
<stop stop-color="#23EED6"/>
<stop offset="1" stop-color="#23EED6" stop-opacity="0"/>
</linearGradient>
<linearGradient id="paint4_linear_533_20958" x1="160.668" y1="139.587" x2="160.668" y2="186" gradientUnits="userSpaceOnUse">
<stop stop-color="#23EED6"/>
<stop offset="1" stop-color="#23EED6" stop-opacity="0"/>
</linearGradient>
<linearGradient id="paint5_linear_533_20958" x1="194.832" y1="125.556" x2="194.832" y2="186" gradientUnits="userSpaceOnUse">
<stop stop-color="#23EED6"/>
<stop offset="1" stop-color="#23EED6" stop-opacity="0"/>
</linearGradient>
<linearGradient id="paint6_linear_533_20958" x1="229" y1="169.81" x2="229" y2="186" gradientUnits="userSpaceOnUse">
<stop stop-color="#23EED6"/>
<stop offset="1" stop-color="#23EED6" stop-opacity="0"/>
</linearGradient>
</defs>
</svg>
