<svg width="350" height="190" viewBox="0 0 350 190" fill="none" xmlns="http://www.w3.org/2000/svg">
<rect width="350" height="190" fill="#0F1217"/>
<path d="M33.2109 30.9043H35.5752V39.4561C35.5752 40.3936 35.3555 41.2197 34.916 41.9346C34.4766 42.6436 33.8584 43.2002 33.0615 43.6045C32.2646 44.0029 31.333 44.2021 30.2666 44.2021C29.2002 44.2021 28.2686 44.0029 27.4717 43.6045C26.6748 43.2002 26.0537 42.6436 25.6084 41.9346C25.1689 41.2197 24.9492 40.3936 24.9492 39.4561V30.9043H27.3223V39.2627C27.3223 39.8135 27.4424 40.2998 27.6826 40.7217C27.9229 41.1436 28.2627 41.4775 28.7021 41.7236C29.1475 41.9639 29.6689 42.084 30.2666 42.084C30.8643 42.084 31.3828 41.9639 31.8223 41.7236C32.2617 41.4775 32.6016 41.1436 32.8418 40.7217C33.0879 40.2998 33.2109 39.8135 33.2109 39.2627V30.9043ZM45.1377 36.7842L43.0371 37.0039C42.9492 36.6816 42.7588 36.3975 42.4658 36.1514C42.1729 35.8994 41.7598 35.7734 41.2266 35.7734C40.7461 35.7734 40.3418 35.8789 40.0137 36.0898C39.6914 36.3008 39.5303 36.5703 39.5303 36.8984C39.5303 37.1855 39.6357 37.4229 39.8467 37.6104C40.0635 37.792 40.4209 37.9385 40.9189 38.0498L42.5977 38.4014C43.5176 38.5947 44.2061 38.9111 44.6631 39.3506C45.1201 39.79 45.3486 40.3584 45.3486 41.0557C45.3486 41.6709 45.1699 42.2158 44.8125 42.6904C44.4551 43.165 43.96 43.5342 43.3271 43.7979C42.7002 44.0615 41.9766 44.1934 41.1562 44.1934C39.9551 44.1934 38.9883 43.9414 38.2559 43.4375C37.5293 42.9277 37.0928 42.2217 36.9463 41.3193L39.2051 41.1084C39.3047 41.5479 39.5215 41.8818 39.8555 42.1104C40.1953 42.333 40.6289 42.4443 41.1562 42.4443C41.707 42.4443 42.1494 42.333 42.4834 42.1104C42.8174 41.8818 42.9844 41.6035 42.9844 41.2754C42.9844 40.7246 42.5449 40.3496 41.666 40.1504L39.9873 39.7988C39.0439 39.5938 38.3467 39.2627 37.8955 38.8057C37.4443 38.3428 37.2188 37.7539 37.2188 37.0391C37.2188 36.4297 37.3857 35.9023 37.7197 35.457C38.0537 35.0117 38.5195 34.666 39.1172 34.4199C39.7148 34.1738 40.4062 34.0508 41.1914 34.0508C42.3457 34.0508 43.251 34.2998 43.9072 34.7979C44.5693 35.29 44.9795 35.9521 45.1377 36.7842ZM50.9473 44.1934C49.9629 44.1934 49.1133 43.9883 48.3984 43.5781C47.6836 43.1621 47.1328 42.5762 46.7461 41.8203C46.3652 41.0645 46.1748 40.1738 46.1748 39.1484C46.1748 38.1348 46.3652 37.2471 46.7461 36.4854C47.127 35.7178 47.6631 35.1201 48.3545 34.6924C49.0459 34.2646 49.8604 34.0508 50.7979 34.0508C51.4014 34.0508 51.9727 34.1475 52.5117 34.3408C53.0566 34.5342 53.5371 34.833 53.9531 35.2373C54.375 35.6416 54.7061 36.1572 54.9463 36.7842C55.1865 37.4053 55.3066 38.1465 55.3066 39.0078V39.7285H47.2559V38.1729H54.1553L53.0742 38.6299C53.0742 38.0732 52.9893 37.5898 52.8193 37.1797C52.6494 36.7637 52.3975 36.4385 52.0635 36.2041C51.7295 35.9697 51.3135 35.8525 50.8154 35.8525C50.3174 35.8525 49.8926 35.9697 49.541 36.2041C49.1895 36.4385 48.9229 36.7549 48.7412 37.1533C48.5596 37.5459 48.4688 37.9854 48.4688 38.4717V39.5527C48.4688 40.1504 48.5713 40.6631 48.7764 41.0908C48.9873 41.5127 49.2803 41.835 49.6553 42.0576C50.0361 42.2803 50.4785 42.3916 50.9824 42.3916C51.3105 42.3916 51.6094 42.3447 51.8789 42.251C52.1543 42.1572 52.3887 42.0166 52.582 41.8291C52.7812 41.6357 52.9336 41.3984 53.0391 41.1172L55.2012 41.3721C55.0605 41.9404 54.7998 42.4385 54.4189 42.8662C54.0439 43.2881 53.5605 43.6162 52.9688 43.8506C52.3828 44.0791 51.709 44.1934 50.9473 44.1934ZM56.5635 44V34.1738H58.8047V35.8262H58.9102C59.0859 35.252 59.3936 34.8125 59.833 34.5078C60.2725 34.1973 60.7734 34.042 61.3359 34.042C61.459 34.042 61.5996 34.0479 61.7578 34.0596C61.9219 34.0713 62.0566 34.0859 62.1621 34.1035V36.2305C62.0625 36.1953 61.9072 36.166 61.6963 36.1426C61.4854 36.1191 61.2832 36.1074 61.0898 36.1074C60.6621 36.1074 60.2812 36.1982 59.9473 36.3799C59.6133 36.5615 59.3496 36.8105 59.1562 37.127C58.9688 37.4434 58.875 37.8125 58.875 38.2344V44H56.5635ZM69.6592 44.2021C69.0322 44.2021 68.4697 44.0908 67.9717 43.8682C67.4736 43.6396 67.0811 43.3057 66.7939 42.8662C66.5068 42.4268 66.3633 41.8848 66.3633 41.2402C66.3633 40.6895 66.4658 40.2324 66.6709 39.8691C66.876 39.5059 67.1543 39.2158 67.5059 38.999C67.8633 38.7822 68.2646 38.6182 68.71 38.5068C69.1553 38.3896 69.6152 38.3076 70.0898 38.2607C70.6699 38.1963 71.1387 38.1406 71.4961 38.0938C71.8535 38.0469 72.1113 37.9707 72.2695 37.8652C72.4336 37.7598 72.5156 37.5957 72.5156 37.373V37.3291C72.5156 36.8545 72.375 36.4854 72.0938 36.2217C71.8125 35.958 71.4023 35.8262 70.8633 35.8262C70.2949 35.8262 69.8438 35.9492 69.5098 36.1953C69.1816 36.4414 68.959 36.7314 68.8418 37.0654L66.6885 36.7578C66.8584 36.1602 67.1396 35.6621 67.5322 35.2637C67.9248 34.8594 68.4023 34.5576 68.9648 34.3584C69.5332 34.1533 70.1602 34.0508 70.8457 34.0508C71.3145 34.0508 71.7832 34.1064 72.252 34.2178C72.7207 34.3232 73.1514 34.5049 73.5439 34.7627C73.9365 35.0205 74.25 35.3662 74.4844 35.7998C74.7188 36.2334 74.8359 36.7754 74.8359 37.4258V44H72.6123V42.6465H72.542C72.4014 42.916 72.2021 43.1709 71.9443 43.4111C71.6924 43.6455 71.376 43.8359 70.9951 43.9824C70.6201 44.1289 70.1748 44.2021 69.6592 44.2021ZM70.248 42.4971C70.7168 42.4971 71.1211 42.4062 71.4609 42.2246C71.8008 42.0371 72.0645 41.791 72.252 41.4863C72.4395 41.1758 72.5332 40.8389 72.5332 40.4756V39.3242C72.457 39.3828 72.334 39.4385 72.1641 39.4912C71.9941 39.5381 71.8008 39.582 71.584 39.623C71.3672 39.6641 71.1533 39.6992 70.9424 39.7285C70.7373 39.7578 70.5586 39.7812 70.4062 39.7988C70.0605 39.8457 69.75 39.9248 69.4746 40.0361C69.2051 40.1416 68.9912 40.2881 68.833 40.4756C68.6748 40.6631 68.5957 40.9062 68.5957 41.2051C68.5957 41.6328 68.751 41.9551 69.0615 42.1719C69.3721 42.3887 69.7676 42.4971 70.248 42.4971ZM80.8301 44.1934C79.8516 44.1934 79.0107 43.9795 78.3076 43.5518C77.6045 43.1182 77.0654 42.5205 76.6904 41.7588C76.3154 40.9971 76.1279 40.1211 76.1279 39.1309C76.1279 38.1289 76.3184 37.2471 76.6992 36.4854C77.0801 35.7236 77.6221 35.1289 78.3252 34.7012C79.0283 34.2676 79.8574 34.0508 80.8125 34.0508C81.6152 34.0508 82.3242 34.1973 82.9395 34.4902C83.5547 34.7832 84.0439 35.1963 84.4072 35.7295C84.7764 36.2568 84.9873 36.875 85.04 37.584H82.8252C82.7666 37.2676 82.6523 36.9834 82.4824 36.7314C82.3125 36.4795 82.0898 36.2803 81.8145 36.1338C81.5449 35.9873 81.2227 35.9141 80.8477 35.9141C80.373 35.9141 79.957 36.043 79.5996 36.3008C79.248 36.5527 78.9727 36.916 78.7734 37.3906C78.5742 37.8652 78.4746 38.4336 78.4746 39.0957C78.4746 39.7637 78.5713 40.3408 78.7646 40.8271C78.958 41.3076 79.2334 41.6797 79.5908 41.9434C79.9482 42.2012 80.3672 42.3301 80.8477 42.3301C81.3574 42.3301 81.7881 42.1807 82.1396 41.8818C82.4971 41.583 82.7256 41.1699 82.8252 40.6426H85.04C84.9873 41.3398 84.7822 41.9551 84.4248 42.4883C84.0674 43.0215 83.584 43.4404 82.9746 43.7451C82.3652 44.0439 81.6504 44.1934 80.8301 44.1934ZM91.1836 34.1738V35.9668H85.5498V34.1738H91.1836ZM86.9297 31.8359H89.2412V41.0469C89.2412 41.4336 89.3262 41.7207 89.4961 41.9082C89.666 42.0898 89.9355 42.1807 90.3047 42.1807C90.4043 42.1807 90.5156 42.1719 90.6387 42.1543C90.7617 42.1367 90.873 42.1162 90.9727 42.0928L91.3682 43.9033C91.1221 43.9795 90.873 44.0352 90.6211 44.0703C90.3691 44.1113 90.1172 44.1318 89.8652 44.1318C88.9512 44.1318 88.2334 43.8916 87.7119 43.4111C87.1904 42.9248 86.9297 42.2627 86.9297 41.4248V31.8359ZM92.458 44V34.1738H94.7695V44H92.458ZM93.6182 32.7939C93.249 32.7939 92.9326 32.6709 92.6689 32.4248C92.4053 32.1787 92.2734 31.8828 92.2734 31.5371C92.2734 31.1855 92.4053 30.8867 92.6689 30.6406C92.9326 30.3945 93.249 30.2715 93.6182 30.2715C93.9814 30.2715 94.2949 30.3945 94.5586 30.6406C94.8223 30.8867 94.9541 31.1826 94.9541 31.5283C94.9541 31.8799 94.8223 32.1787 94.5586 32.4248C94.2949 32.6709 93.9814 32.7939 93.6182 32.7939ZM105.255 34.1738L101.757 44H99.1904L95.7012 34.1738H98.1709L100.447 41.4775H100.553L102.812 34.1738H105.255ZM106.187 44V34.1738H108.498V44H106.187ZM107.347 32.7939C106.978 32.7939 106.661 32.6709 106.397 32.4248C106.134 32.1787 106.002 31.8828 106.002 31.5371C106.002 31.1855 106.134 30.8867 106.397 30.6406C106.661 30.3945 106.978 30.2715 107.347 30.2715C107.71 30.2715 108.023 30.3945 108.287 30.6406C108.551 30.8867 108.683 31.1826 108.683 31.5283C108.683 31.8799 108.551 32.1787 108.287 32.4248C108.023 32.6709 107.71 32.7939 107.347 32.7939ZM115.107 34.1738V35.9668H109.474V34.1738H115.107ZM110.854 31.8359H113.165V41.0469C113.165 41.4336 113.25 41.7207 113.42 41.9082C113.59 42.0898 113.859 42.1807 114.229 42.1807C114.328 42.1807 114.439 42.1719 114.562 42.1543C114.686 42.1367 114.797 42.1162 114.896 42.0928L115.292 43.9033C115.046 43.9795 114.797 44.0352 114.545 44.0703C114.293 44.1113 114.041 44.1318 113.789 44.1318C112.875 44.1318 112.157 43.8916 111.636 43.4111C111.114 42.9248 110.854 42.2627 110.854 41.4248V31.8359ZM117.823 47.6738C117.507 47.6797 117.214 47.6562 116.944 47.6035C116.681 47.5566 116.467 47.501 116.303 47.4365L116.848 45.6348L116.962 45.6699C117.431 45.793 117.829 45.8018 118.157 45.6963C118.491 45.5908 118.758 45.2715 118.957 44.7383L119.15 44.2109L115.6 34.1738H118.052L120.311 41.6006H120.416L122.684 34.1738H125.153L121.216 45.1865C121.034 45.708 120.794 46.1533 120.495 46.5225C120.196 46.8975 119.827 47.1816 119.388 47.375C118.948 47.5742 118.427 47.6738 117.823 47.6738Z" fill="#FCFCFC"/>
<path d="M324.5 33C323.672 33 323 32.3284 323 31.5C323 30.6716 323.672 30 324.5 30C325.328 30 326 30.6716 326 31.5C326 32.3284 325.328 33 324.5 33Z" fill="#FCFCFC" fill-opacity="0.6"/>
<path d="M324.5 39C323.672 39 323 38.3284 323 37.5C323 36.6716 323.672 36 324.5 36C325.328 36 326 36.6716 326 37.5C326 38.3284 325.328 39 324.5 39Z" fill="#FCFCFC" fill-opacity="0.6"/>
<path d="M324.5 45C323.672 45 323 44.3284 323 43.5C323 42.6716 323.672 42 324.5 42C325.328 42 326 42.6716 326 43.5C326 44.3284 325.328 45 324.5 45Z" fill="#FCFCFC" fill-opacity="0.6"/>
<path d="M55.9941 159.152C55.3691 159.152 54.8281 159.053 54.3711 158.854C53.9141 158.65 53.5547 158.369 53.293 158.01C53.0352 157.646 52.8887 157.227 52.8535 156.75H53.9434C53.9746 157.078 54.0859 157.35 54.2773 157.564C54.4727 157.779 54.7207 157.939 55.0215 158.045C55.3223 158.15 55.6465 158.203 55.9941 158.203C56.3965 158.203 56.7578 158.137 57.0781 158.004C57.4023 157.871 57.6582 157.686 57.8457 157.447C58.0332 157.209 58.127 156.93 58.127 156.609C58.127 156.32 58.0449 156.086 57.8809 155.906C57.7168 155.727 57.502 155.58 57.2363 155.467C56.9746 155.354 56.6895 155.254 56.3809 155.168L55.3145 154.863C54.6309 154.668 54.0898 154.389 53.6914 154.025C53.2969 153.658 53.0996 153.18 53.0996 152.59C53.0996 152.102 53.2305 151.676 53.4922 151.312C53.7578 150.945 54.1152 150.66 54.5645 150.457C55.0176 150.254 55.5215 150.152 56.0762 150.152C56.6387 150.152 57.1387 150.254 57.5762 150.457C58.0137 150.656 58.3613 150.93 58.6191 151.277C58.877 151.621 59.0137 152.012 59.0293 152.449H57.998C57.9473 152.02 57.7402 151.686 57.377 151.447C57.0176 151.209 56.5723 151.09 56.041 151.09C55.6582 151.09 55.3223 151.152 55.0332 151.277C54.7441 151.402 54.5195 151.574 54.3594 151.793C54.1992 152.012 54.1191 152.262 54.1191 152.543C54.1191 152.852 54.2148 153.102 54.4062 153.293C54.5977 153.48 54.8242 153.627 55.0859 153.732C55.3516 153.838 55.5918 153.922 55.8066 153.984L56.6855 154.23C56.9121 154.293 57.1641 154.377 57.4414 154.482C57.7227 154.588 57.9922 154.73 58.25 154.91C58.5117 155.09 58.7266 155.32 58.8945 155.602C59.0625 155.879 59.1465 156.223 59.1465 156.633C59.1465 157.102 59.0234 157.527 58.7773 157.91C58.5312 158.289 58.1738 158.592 57.7051 158.818C57.2363 159.041 56.666 159.152 55.9941 159.152Z" fill="#FCFCFC"/>
<path d="M94.1934 150.27H95.459L98.4238 157.512H98.5293L101.494 150.27H102.801V159H101.764V152.367H101.682L98.9336 159H97.9844L95.2715 152.367H95.1895V159H94.1934V150.27Z" fill="#FCFCFC"/>
<path d="M136.725 151.207V150.27H143.275V151.207H140.533V159H139.479V151.207H136.725Z" fill="#FCFCFC"/>
<path d="M178.441 159L176.062 150.27H177.129L178.957 157.383H179.039L180.902 150.27H182.098L183.949 157.383H184.043L185.859 150.27H186.938L184.547 159H183.457L181.535 152.051H181.465L179.543 159H178.441Z" fill="#FCFCFC"/>
<path d="M219.725 151.207V150.27H226.275V151.207H223.533V159H222.479V151.207H219.725Z" fill="#FCFCFC"/>
<path d="M260.033 159V150.27H265.271V151.207H261.088V154.254H264.873V155.191H261.088V159H260.033Z" fill="#FCFCFC"/>
<path d="M301.994 159.152C301.369 159.152 300.828 159.053 300.371 158.854C299.914 158.65 299.555 158.369 299.293 158.01C299.035 157.646 298.889 157.227 298.854 156.75H299.943C299.975 157.078 300.086 157.35 300.277 157.564C300.473 157.779 300.721 157.939 301.021 158.045C301.322 158.15 301.646 158.203 301.994 158.203C302.396 158.203 302.758 158.137 303.078 158.004C303.402 157.871 303.658 157.686 303.846 157.447C304.033 157.209 304.127 156.93 304.127 156.609C304.127 156.32 304.045 156.086 303.881 155.906C303.717 155.727 303.502 155.58 303.236 155.467C302.975 155.354 302.689 155.254 302.381 155.168L301.314 154.863C300.631 154.668 300.09 154.389 299.691 154.025C299.297 153.658 299.1 153.18 299.1 152.59C299.1 152.102 299.23 151.676 299.492 151.312C299.758 150.945 300.115 150.66 300.564 150.457C301.018 150.254 301.521 150.152 302.076 150.152C302.639 150.152 303.139 150.254 303.576 150.457C304.014 150.656 304.361 150.93 304.619 151.277C304.877 151.621 305.014 152.012 305.029 152.449H303.998C303.947 152.02 303.74 151.686 303.377 151.447C303.018 151.209 302.572 151.09 302.041 151.09C301.658 151.09 301.322 151.152 301.033 151.277C300.744 151.402 300.52 151.574 300.359 151.793C300.199 152.012 300.119 152.262 300.119 152.543C300.119 152.852 300.215 153.102 300.406 153.293C300.598 153.48 300.824 153.627 301.086 153.732C301.352 153.838 301.592 153.922 301.807 153.984L302.686 154.23C302.912 154.293 303.164 154.377 303.441 154.482C303.723 154.588 303.992 154.73 304.25 154.91C304.512 155.09 304.727 155.32 304.895 155.602C305.062 155.879 305.146 156.223 305.146 156.633C305.146 157.102 305.023 157.527 304.777 157.91C304.531 158.289 304.174 158.592 303.705 158.818C303.236 159.041 302.666 159.152 301.994 159.152Z" fill="#FCFCFC"/>
<path d="M29.3516 67.2695V76H28.3203V68.3828H28.2617L26.1406 69.8008V68.7227L28.3203 67.2695H29.3516ZM33.5938 76.1172C32.9531 76.1172 32.4062 75.9414 31.9531 75.5898C31.5 75.2383 31.1543 74.7305 30.916 74.0664C30.6777 73.3984 30.5586 72.5898 30.5586 71.6406C30.5586 70.6953 30.6777 69.8887 30.916 69.2207C31.1582 68.5488 31.5059 68.0371 31.959 67.6855C32.4121 67.3301 32.957 67.1523 33.5938 67.1523C34.2305 67.1523 34.7754 67.3301 35.2285 67.6855C35.6816 68.0371 36.0273 68.5488 36.2656 69.2207C36.5078 69.8887 36.6289 70.6953 36.6289 71.6406C36.6289 72.5898 36.5098 73.3984 36.2715 74.0664C36.0332 74.7305 35.6875 75.2383 35.2344 75.5898C34.7852 75.9414 34.2383 76.1172 33.5938 76.1172ZM33.5938 75.1914C34.0273 75.1914 34.3945 75.0527 34.6953 74.7754C34.9961 74.4941 35.2246 74.0879 35.3809 73.5566C35.541 73.0254 35.6211 72.3867 35.6211 71.6406C35.6211 70.8906 35.541 70.25 35.3809 69.7188C35.2246 69.1875 34.9961 68.7812 34.6953 68.5C34.3945 68.2188 34.0273 68.0781 33.5938 68.0781C32.9453 68.0781 32.4453 68.3906 32.0938 69.0156C31.7422 69.6406 31.5664 70.5156 31.5664 71.6406C31.5664 72.3867 31.6445 73.0254 31.8008 73.5566C31.9609 74.0879 32.1914 74.4941 32.4922 74.7754C32.7969 75.0527 33.1641 75.1914 33.5938 75.1914ZM40.5312 76.1172C39.8906 76.1172 39.3438 75.9414 38.8906 75.5898C38.4375 75.2383 38.0918 74.7305 37.8535 74.0664C37.6152 73.3984 37.4961 72.5898 37.4961 71.6406C37.4961 70.6953 37.6152 69.8887 37.8535 69.2207C38.0957 68.5488 38.4434 68.0371 38.8965 67.6855C39.3496 67.3301 39.8945 67.1523 40.5312 67.1523C41.168 67.1523 41.7129 67.3301 42.166 67.6855C42.6191 68.0371 42.9648 68.5488 43.2031 69.2207C43.4453 69.8887 43.5664 70.6953 43.5664 71.6406C43.5664 72.5898 43.4473 73.3984 43.209 74.0664C42.9707 74.7305 42.625 75.2383 42.1719 75.5898C41.7227 75.9414 41.1758 76.1172 40.5312 76.1172ZM40.5312 75.1914C40.9648 75.1914 41.332 75.0527 41.6328 74.7754C41.9336 74.4941 42.1621 74.0879 42.3184 73.5566C42.4785 73.0254 42.5586 72.3867 42.5586 71.6406C42.5586 70.8906 42.4785 70.25 42.3184 69.7188C42.1621 69.1875 41.9336 68.7812 41.6328 68.5C41.332 68.2188 40.9648 68.0781 40.5312 68.0781C39.8828 68.0781 39.3828 68.3906 39.0312 69.0156C38.6797 69.6406 38.5039 70.5156 38.5039 71.6406C38.5039 72.3867 38.582 73.0254 38.7383 73.5566C38.8984 74.0879 39.1289 74.4941 39.4297 74.7754C39.7344 75.0527 40.1016 75.1914 40.5312 75.1914Z" fill="#FCFCFC"/>
<path d="M33.7461 108.117C33.2461 108.117 32.7949 108.02 32.3926 107.824C31.9941 107.625 31.6738 107.352 31.4316 107.004C31.1895 106.656 31.0586 106.262 31.0391 105.82H32.0586C32.0977 106.211 32.2754 106.535 32.5918 106.793C32.9121 107.051 33.2969 107.18 33.7461 107.18C34.1055 107.18 34.4238 107.096 34.7012 106.928C34.9785 106.76 35.1973 106.529 35.3574 106.236C35.5176 105.943 35.5977 105.609 35.5977 105.234C35.5977 104.855 35.5137 104.516 35.3457 104.215C35.1816 103.914 34.9551 103.678 34.666 103.506C34.377 103.33 34.0469 103.242 33.6758 103.242C33.4062 103.242 33.1309 103.285 32.8496 103.371C32.5723 103.453 32.3438 103.559 32.1641 103.688L31.168 103.57L31.6953 99.2695H36.2305V100.207H32.5859L32.2812 102.785H32.3281C32.5078 102.641 32.7324 102.523 33.002 102.434C33.2715 102.34 33.5547 102.293 33.8516 102.293C34.3867 102.293 34.8633 102.42 35.2812 102.674C35.6992 102.928 36.0273 103.275 36.2656 103.717C36.5078 104.154 36.6289 104.656 36.6289 105.223C36.6289 105.777 36.5039 106.273 36.2539 106.711C36.0039 107.148 35.6621 107.492 35.2285 107.742C34.7949 107.992 34.3008 108.117 33.7461 108.117ZM40.5312 108.117C39.8906 108.117 39.3438 107.941 38.8906 107.59C38.4375 107.238 38.0918 106.73 37.8535 106.066C37.6152 105.398 37.4961 104.59 37.4961 103.641C37.4961 102.695 37.6152 101.889 37.8535 101.221C38.0957 100.549 38.4434 100.037 38.8965 99.6855C39.3496 99.3301 39.8945 99.1523 40.5312 99.1523C41.168 99.1523 41.7129 99.3301 42.166 99.6855C42.6191 100.037 42.9648 100.549 43.2031 101.221C43.4453 101.889 43.5664 102.695 43.5664 103.641C43.5664 104.59 43.4473 105.398 43.209 106.066C42.9707 106.73 42.625 107.238 42.1719 107.59C41.7227 107.941 41.1758 108.117 40.5312 108.117ZM40.5312 107.191C40.9648 107.191 41.332 107.053 41.6328 106.775C41.9336 106.494 42.1621 106.088 42.3184 105.557C42.4785 105.025 42.5586 104.387 42.5586 103.641C42.5586 102.891 42.4785 102.25 42.3184 101.719C42.1621 101.188 41.9336 100.781 41.6328 100.5C41.332 100.219 40.9648 100.078 40.5312 100.078C39.8828 100.078 39.3828 100.391 39.0312 101.016C38.6797 101.641 38.5039 102.516 38.5039 103.641C38.5039 104.387 38.582 105.025 38.7383 105.557C38.8984 106.088 39.1289 106.494 39.4297 106.775C39.7344 107.053 40.1016 107.191 40.5312 107.191Z" fill="#FCFCFC"/>
<path d="M40.5312 140.117C39.8906 140.117 39.3438 139.941 38.8906 139.59C38.4375 139.238 38.0918 138.73 37.8535 138.066C37.6152 137.398 37.4961 136.59 37.4961 135.641C37.4961 134.695 37.6152 133.889 37.8535 133.221C38.0957 132.549 38.4434 132.037 38.8965 131.686C39.3496 131.33 39.8945 131.152 40.5312 131.152C41.168 131.152 41.7129 131.33 42.166 131.686C42.6191 132.037 42.9648 132.549 43.2031 133.221C43.4453 133.889 43.5664 134.695 43.5664 135.641C43.5664 136.59 43.4473 137.398 43.209 138.066C42.9707 138.73 42.625 139.238 42.1719 139.59C41.7227 139.941 41.1758 140.117 40.5312 140.117ZM40.5312 139.191C40.9648 139.191 41.332 139.053 41.6328 138.775C41.9336 138.494 42.1621 138.088 42.3184 137.557C42.4785 137.025 42.5586 136.387 42.5586 135.641C42.5586 134.891 42.4785 134.25 42.3184 133.719C42.1621 133.188 41.9336 132.781 41.6328 132.5C41.332 132.219 40.9648 132.078 40.5312 132.078C39.8828 132.078 39.3828 132.391 39.0312 133.016C38.6797 133.641 38.5039 134.516 38.5039 135.641C38.5039 136.387 38.582 137.025 38.7383 137.557C38.8984 138.088 39.1289 138.494 39.4297 138.775C39.7344 139.053 40.1016 139.191 40.5312 139.191Z" fill="#FCFCFC"/>
<path d="M59 98.5L89.0784 110.885C96.2615 113.843 104.531 111.214 108.688 104.651L119.215 88.0294C124.189 80.1754 135.675 80.2599 140.534 88.1863L142.409 91.2469C145.748 96.6938 153.328 97.5278 157.771 92.9369V92.9369C161.296 89.2945 167.02 88.9501 170.956 92.1436L181.52 100.714C186.88 105.063 194.424 105.484 200.235 101.759L200.684 101.472C206.29 97.8784 213.535 98.1322 218.875 102.109L223.498 105.552C229.378 109.931 237.483 109.752 243.165 105.119L255.442 95.1092C261.527 90.1473 270.314 90.3344 276.182 95.551L315.5 130.5" stroke="#C6F56F" stroke-width="2"/>
<line x1="128.5" y1="63.5" x2="128.5" y2="137.827" stroke="#864FFE" stroke-linecap="round" stroke-dasharray="8 8"/>
<g filter="url(#filter0_d_1230_20904)">
<mask id="path-15-inside-1_1230_20904" fill="white">
<ellipse cx="129" cy="70.9294" rx="4" ry="3.9646"/>
</mask>
<ellipse cx="129" cy="70.9294" rx="4" ry="3.9646" fill="#864FFE"/>
<path d="M133 70.9294H127C127 69.7552 127.946 68.894 129 68.894V74.894V80.894C134.472 80.894 139 76.4829 139 70.9294H133ZM129 74.894V68.894C130.054 68.894 131 69.7552 131 70.9294H125H119C119 76.4829 123.528 80.894 129 80.894V74.894ZM125 70.9294H131C131 72.1037 130.054 72.9648 129 72.9648V66.9648V60.9648C123.528 60.9648 119 65.376 119 70.9294H125ZM129 66.9648V72.9648C127.946 72.9648 127 72.1037 127 70.9294H133H139C139 65.376 134.472 60.9648 129 60.9648V66.9648Z" fill="#FCFCFC" mask="url(#path-15-inside-1_1230_20904)"/>
</g>
<defs>
<filter id="filter0_d_1230_20904" x="115" y="60.9648" width="28" height="27.9297" filterUnits="userSpaceOnUse" color-interpolation-filters="sRGB">
<feFlood flood-opacity="0" result="BackgroundImageFix"/>
<feColorMatrix in="SourceAlpha" type="matrix" values="0 0 0 0 0 0 0 0 0 0 0 0 0 0 0 0 0 0 127 0" result="hardAlpha"/>
<feOffset dy="4"/>
<feGaussianBlur stdDeviation="5"/>
<feComposite in2="hardAlpha" operator="out"/>
<feColorMatrix type="matrix" values="0 0 0 0 0 0 0 0 0 0 0 0 0 0 0 0 0 0 0.12 0"/>
<feBlend mode="normal" in2="BackgroundImageFix" result="effect1_dropShadow_1230_20904"/>
<feBlend mode="normal" in="SourceGraphic" in2="effect1_dropShadow_1230_20904" result="shape"/>
</filter>
</defs>
</svg>
