<svg width="227" height="186" viewBox="0 0 227 186" fill="none" xmlns="http://www.w3.org/2000/svg">
<rect x="0.5" y="0.5" width="226" height="185" stroke="#303B49"/>
<rect width="227" height="186" rx="16" fill="#0F1217"/>
<path d="M31.4141 26.3594V38H30.0234L23.6953 28.8594H23.5703V38H22.1641V26.3594H23.5234L29.8984 35.5156H30.0078V26.3594H31.4141ZM36.9609 38.1875C36.1224 38.1875 35.3958 38 34.7812 37.625C34.1719 37.25 33.7031 36.7266 33.375 36.0547C33.0469 35.3776 32.8828 34.5938 32.8828 33.7031C32.8828 32.8073 33.0443 32.0182 33.3672 31.3359C33.6901 30.6536 34.1432 30.1198 34.7266 29.7344C35.3151 29.349 36.0026 29.1562 36.7891 29.1562C37.2422 29.1562 37.6927 29.2318 38.1406 29.3828C38.5885 29.5339 38.9948 29.7786 39.3594 30.1172C39.7292 30.4557 40.0234 30.9036 40.2422 31.4609C40.4609 32.0182 40.5703 32.7031 40.5703 33.5156V34.0938H33.8359V32.9375H39.8438L39.2266 33.375C39.2266 32.7917 39.1354 32.2734 38.9531 31.8203C38.7708 31.3672 38.4974 31.0104 38.1328 30.75C37.7734 30.4896 37.3255 30.3594 36.7891 30.3594C36.2526 30.3594 35.7917 30.4922 35.4062 30.7578C35.026 31.0182 34.7344 31.3594 34.5312 31.7812C34.3281 32.2031 34.2266 32.6562 34.2266 33.1406V33.9062C34.2266 34.5677 34.3411 35.1276 34.5703 35.5859C34.7995 36.0443 35.1198 36.3932 35.5312 36.6328C35.9427 36.8672 36.4193 36.9844 36.9609 36.9844C37.3099 36.9844 37.6276 36.9349 37.9141 36.8359C38.2005 36.7318 38.4479 36.5781 38.6562 36.375C38.8646 36.1667 39.0234 35.9115 39.1328 35.6094L40.4297 35.9844C40.2943 36.4219 40.0651 36.8073 39.7422 37.1406C39.4245 37.4688 39.0286 37.7266 38.5547 37.9141C38.0807 38.0964 37.5495 38.1875 36.9609 38.1875ZM45.6172 29.2656V30.4062H41.1016V29.2656H45.6172ZM42.4141 27.1875H43.7422V35.5C43.7422 35.9531 43.8359 36.2865 44.0234 36.5C44.2109 36.7083 44.5078 36.8125 44.9141 36.8125C45.0026 36.8125 45.0938 36.8073 45.1875 36.7969C45.2865 36.7865 45.3932 36.7708 45.5078 36.75L45.7891 37.9531C45.6641 38 45.5104 38.0365 45.3281 38.0625C45.151 38.0938 44.9714 38.1094 44.7891 38.1094C44.0859 38.1094 43.513 37.901 43.0703 37.4844C42.6328 37.0677 42.4141 36.526 42.4141 35.8594V27.1875ZM56.8203 31.2344L55.6172 31.5625C55.5026 31.2656 55.3047 30.9844 55.0234 30.7188C54.7474 30.4479 54.3151 30.3125 53.7266 30.3125C53.1953 30.3125 52.7526 30.4375 52.3984 30.6875C52.0443 30.9323 51.8672 31.2396 51.8672 31.6094C51.8672 31.9427 51.987 32.2083 52.2266 32.4062C52.4714 32.6042 52.8516 32.7656 53.3672 32.8906L54.6641 33.2031C55.4401 33.3906 56.0182 33.6797 56.3984 34.0703C56.7839 34.4609 56.9766 34.9583 56.9766 35.5625C56.9766 36.0625 56.8333 36.5104 56.5469 36.9062C56.2604 37.3021 55.862 37.6146 55.3516 37.8438C54.8411 38.0729 54.2474 38.1875 53.5703 38.1875C52.6797 38.1875 51.9427 37.9922 51.3594 37.6016C50.7812 37.2109 50.4141 36.6458 50.2578 35.9062L51.5234 35.5938C51.6432 36.0625 51.8724 36.4141 52.2109 36.6484C52.5547 36.8828 53.0026 37 53.5547 37C54.1745 37 54.6693 36.8672 55.0391 36.6016C55.4141 36.3307 55.6016 36.0104 55.6016 35.6406C55.6016 35.026 55.1693 34.6146 54.3047 34.4062L52.8516 34.0625C52.0495 33.8698 51.4609 33.5755 51.0859 33.1797C50.7109 32.7839 50.5234 32.2865 50.5234 31.6875C50.5234 31.1927 50.6615 30.7552 50.9375 30.375C51.2188 29.9948 51.6016 29.6979 52.0859 29.4844C52.5703 29.2656 53.1172 29.1562 53.7266 29.1562C54.5964 29.1562 55.276 29.349 55.7656 29.7344C56.2604 30.1146 56.612 30.6146 56.8203 31.2344ZM60.8203 38.2031C60.2682 38.2031 59.7656 38.099 59.3125 37.8906C58.8594 37.6771 58.5 37.3698 58.2344 36.9688C57.9688 36.5677 57.8359 36.0833 57.8359 35.5156C57.8359 35.0156 57.9349 34.612 58.1328 34.3047C58.3307 33.9922 58.5938 33.7474 58.9219 33.5703C59.2552 33.388 59.6198 33.2526 60.0156 33.1641C60.4167 33.0755 60.8203 33.0052 61.2266 32.9531C61.7578 32.8854 62.1875 32.8333 62.5156 32.7969C62.849 32.7604 63.0911 32.6979 63.2422 32.6094C63.3984 32.5208 63.4766 32.3698 63.4766 32.1562V32.1094C63.4766 31.5521 63.3229 31.1198 63.0156 30.8125C62.7135 30.5 62.2526 30.3438 61.6328 30.3438C60.9974 30.3438 60.4974 30.4844 60.1328 30.7656C59.7682 31.0417 59.513 31.3385 59.3672 31.6562L58.0859 31.2031C58.3151 30.6719 58.6198 30.2578 59 29.9609C59.3854 29.6641 59.8021 29.4557 60.25 29.3359C60.7031 29.2161 61.1484 29.1562 61.5859 29.1562C61.8672 29.1562 62.1901 29.1901 62.5547 29.2578C62.9193 29.3203 63.2734 29.4557 63.6172 29.6641C63.9661 29.8672 64.2526 30.1771 64.4766 30.5938C64.7057 31.0052 64.8203 31.5573 64.8203 32.25V38H63.4766V36.8125H63.4141C63.3255 37 63.1745 37.2031 62.9609 37.4219C62.7474 37.6354 62.4635 37.8203 62.1094 37.9766C61.7604 38.1276 61.3307 38.2031 60.8203 38.2031ZM61.0234 37C61.5547 37 62.0026 36.8958 62.3672 36.6875C62.7318 36.4792 63.0078 36.2109 63.1953 35.8828C63.3828 35.5495 63.4766 35.2031 63.4766 34.8438V33.6094C63.4193 33.6771 63.2943 33.7396 63.1016 33.7969C62.9141 33.849 62.6953 33.8958 62.4453 33.9375C62.2005 33.9792 61.9609 34.0156 61.7266 34.0469C61.4922 34.0729 61.3047 34.0938 61.1641 34.1094C60.8151 34.1562 60.4896 34.2318 60.1875 34.3359C59.8854 34.4349 59.6406 34.5833 59.4531 34.7812C59.2708 34.9792 59.1797 35.25 59.1797 35.5938C59.1797 36.0573 59.3516 36.4089 59.6953 36.6484C60.0443 36.8828 60.487 37 61.0234 37ZM67.8672 26.3594V38H66.5391V26.3594H67.8672ZM73.2422 38.1875C72.4036 38.1875 71.6771 38 71.0625 37.625C70.4531 37.25 69.9844 36.7266 69.6562 36.0547C69.3281 35.3776 69.1641 34.5938 69.1641 33.7031C69.1641 32.8073 69.3255 32.0182 69.6484 31.3359C69.9714 30.6536 70.4245 30.1198 71.0078 29.7344C71.5964 29.349 72.2839 29.1562 73.0703 29.1562C73.5234 29.1562 73.974 29.2318 74.4219 29.3828C74.8698 29.5339 75.276 29.7786 75.6406 30.1172C76.0104 30.4557 76.3047 30.9036 76.5234 31.4609C76.7422 32.0182 76.8516 32.7031 76.8516 33.5156V34.0938H70.1172V32.9375H76.125L75.5078 33.375C75.5078 32.7917 75.4167 32.2734 75.2344 31.8203C75.0521 31.3672 74.7786 31.0104 74.4141 30.75C74.0547 30.4896 73.6068 30.3594 73.0703 30.3594C72.5339 30.3594 72.0729 30.4922 71.6875 30.7578C71.3073 31.0182 71.0156 31.3594 70.8125 31.7812C70.6094 32.2031 70.5078 32.6562 70.5078 33.1406V33.9062C70.5078 34.5677 70.6224 35.1276 70.8516 35.5859C71.0807 36.0443 71.401 36.3932 71.8125 36.6328C72.224 36.8672 72.7005 36.9844 73.2422 36.9844C73.5911 36.9844 73.9089 36.9349 74.1953 36.8359C74.4818 36.7318 74.7292 36.5781 74.9375 36.375C75.1458 36.1667 75.3047 35.9115 75.4141 35.6094L76.7109 35.9844C76.5755 36.4219 76.3464 36.8073 76.0234 37.1406C75.7057 37.4688 75.3099 37.7266 74.8359 37.9141C74.362 38.0964 73.8307 38.1875 73.2422 38.1875ZM84.2891 31.2344L83.0859 31.5625C82.9714 31.2656 82.7734 30.9844 82.4922 30.7188C82.2161 30.4479 81.7839 30.3125 81.1953 30.3125C80.6641 30.3125 80.2214 30.4375 79.8672 30.6875C79.513 30.9323 79.3359 31.2396 79.3359 31.6094C79.3359 31.9427 79.4557 32.2083 79.6953 32.4062C79.9401 32.6042 80.3203 32.7656 80.8359 32.8906L82.1328 33.2031C82.9089 33.3906 83.487 33.6797 83.8672 34.0703C84.2526 34.4609 84.4453 34.9583 84.4453 35.5625C84.4453 36.0625 84.3021 36.5104 84.0156 36.9062C83.7292 37.3021 83.3307 37.6146 82.8203 37.8438C82.3099 38.0729 81.7161 38.1875 81.0391 38.1875C80.1484 38.1875 79.4115 37.9922 78.8281 37.6016C78.25 37.2109 77.8828 36.6458 77.7266 35.9062L78.9922 35.5938C79.112 36.0625 79.3411 36.4141 79.6797 36.6484C80.0234 36.8828 80.4714 37 81.0234 37C81.6432 37 82.138 36.8672 82.5078 36.6016C82.8828 36.3307 83.0703 36.0104 83.0703 35.6406C83.0703 35.026 82.638 34.6146 81.7734 34.4062L80.3203 34.0625C79.5182 33.8698 78.9297 33.5755 78.5547 33.1797C78.1797 32.7839 77.9922 32.2865 77.9922 31.6875C77.9922 31.1927 78.1302 30.7552 78.4062 30.375C78.6875 29.9948 79.0703 29.6979 79.5547 29.4844C80.0391 29.2656 80.5859 29.1562 81.1953 29.1562C82.0651 29.1562 82.7448 29.349 83.2344 29.7344C83.7292 30.1146 84.0807 30.6146 84.2891 31.2344Z" fill="#FCFCFC" fill-opacity="0.6"/>
<path d="M24.9219 70.6348V54.2695H25.959V70.6348H24.9219ZM25.4404 69.2109C24.4619 69.2109 23.6123 69.0586 22.8916 68.7539C22.1768 68.4434 21.6172 68.001 21.2129 67.4268C20.8086 66.8525 20.583 66.1699 20.5361 65.3789H22.5225C22.5635 65.8535 22.7158 66.249 22.9795 66.5654C23.249 66.876 23.5977 67.1074 24.0254 67.2598C24.4531 67.4121 24.9219 67.4883 25.4316 67.4883C25.9883 67.4883 26.4863 67.4004 26.9258 67.2246C27.3652 67.0488 27.708 66.8027 27.9541 66.4863C28.2061 66.1641 28.332 65.7891 28.332 65.3613C28.332 64.9746 28.2207 64.6582 27.998 64.4121C27.7812 64.166 27.4854 63.9639 27.1104 63.8057C26.7354 63.6416 26.3135 63.498 25.8447 63.375L24.3066 62.9531C23.252 62.6719 22.4199 62.2529 21.8105 61.6963C21.2012 61.1338 20.8965 60.3984 20.8965 59.4902C20.8965 58.7344 21.0986 58.0752 21.5029 57.5127C21.9131 56.9502 22.4668 56.5137 23.1641 56.2031C23.8672 55.8867 24.6553 55.7285 25.5283 55.7285C26.4189 55.7285 27.2012 55.8867 27.875 56.2031C28.5547 56.5137 29.0908 56.9414 29.4834 57.4863C29.8818 58.0254 30.0898 58.6436 30.1074 59.3408H28.1914C28.1211 58.7373 27.8398 58.2686 27.3477 57.9346C26.8613 57.6006 26.2402 57.4336 25.4844 57.4336C24.957 57.4336 24.4941 57.5186 24.0957 57.6885C23.7031 57.8525 23.3984 58.0811 23.1816 58.374C22.9707 58.667 22.8652 59.0039 22.8652 59.3848C22.8652 59.7949 22.9912 60.1289 23.2432 60.3867C23.501 60.6445 23.8115 60.8496 24.1748 61.002C24.5439 61.1484 24.8984 61.2686 25.2383 61.3623L26.5127 61.7051C26.9287 61.8105 27.3564 61.9512 27.7959 62.127C28.2354 62.3027 28.6426 62.5342 29.0176 62.8213C29.3984 63.1025 29.7031 63.4541 29.9316 63.876C30.166 64.292 30.2832 64.7959 30.2832 65.3877C30.2832 66.1201 30.0928 66.7764 29.7119 67.3564C29.3311 67.9307 28.7803 68.3848 28.0596 68.7188C27.3389 69.0469 26.4658 69.2109 25.4404 69.2109ZM36.4355 55.9043V69H34.4844V57.8906H34.3965L31.2852 59.9385V58.04L34.5371 55.9043H36.4355ZM42.6758 55.7197C43.2617 55.7256 43.8359 55.834 44.3984 56.0449C44.9668 56.25 45.4795 56.5898 45.9365 57.0645C46.3994 57.5391 46.7686 58.1807 47.0439 58.9893C47.3193 59.792 47.457 60.7939 47.457 61.9951C47.457 63.1377 47.3428 64.1543 47.1143 65.0449C46.8857 65.9355 46.5547 66.6885 46.1211 67.3037C45.6934 67.9189 45.1748 68.3877 44.5654 68.71C43.9561 69.0264 43.2734 69.1846 42.5176 69.1846C41.7383 69.1846 41.0439 69.0293 40.4346 68.7188C39.8252 68.4082 39.333 67.9834 38.958 67.4443C38.583 66.8994 38.3457 66.2754 38.2461 65.5723H40.1973C40.3262 66.1289 40.5869 66.583 40.9795 66.9346C41.3779 67.2803 41.8906 67.4531 42.5176 67.4531C43.4727 67.4531 44.2168 67.0342 44.75 66.1963C45.2891 65.3584 45.5615 64.1895 45.5674 62.6895H45.4707C45.2422 63.0586 44.9639 63.3779 44.6357 63.6475C44.3076 63.9111 43.9385 64.1133 43.5283 64.2539C43.1182 64.3945 42.6846 64.4648 42.2275 64.4648C41.4658 64.4648 40.7744 64.2803 40.1533 63.9111C39.5322 63.542 39.04 63.0352 38.6768 62.3906C38.3135 61.7402 38.1289 60.999 38.123 60.167C38.1289 59.335 38.3193 58.582 38.6943 57.9082C39.0752 57.2344 39.6055 56.7012 40.2852 56.3086C40.9648 55.9102 41.7617 55.7139 42.6758 55.7197ZM42.6846 57.3896C42.1865 57.3896 41.7383 57.5127 41.3398 57.7588C40.9414 58.0049 40.6279 58.3359 40.3994 58.752C40.1709 59.168 40.0566 59.6309 40.0566 60.1406C40.0566 60.6504 40.165 61.1104 40.3818 61.5205C40.6045 61.9307 40.9121 62.2588 41.3047 62.5049C41.6973 62.7451 42.1426 62.8652 42.6406 62.8652C43.1445 62.8652 43.5957 62.7393 43.9941 62.4873C44.3984 62.2295 44.7207 61.8926 44.9609 61.4766C45.2012 61.0547 45.3213 60.6006 45.3213 60.1143C45.3213 59.6338 45.207 59.1855 44.9785 58.7695C44.75 58.3535 44.4365 58.0195 44.0381 57.7676C43.6455 57.5156 43.1943 57.3896 42.6846 57.3896ZM48.3184 72.2432L49.0918 67.1191H51.1484L49.6982 72.2432H48.3184ZM53.5215 69L59.2344 57.6973V57.6006H52.625V55.9043H61.291V57.6709L55.5869 69H53.5215ZM66.8281 69.1758C66.248 69.1758 65.6738 69.0732 65.1055 68.8682C64.5371 68.6631 64.0244 68.3232 63.5674 67.8486C63.1104 67.3682 62.7412 66.7236 62.46 65.915C62.1846 65.1064 62.0469 64.1016 62.0469 62.9004C62.0469 61.7578 62.1611 60.7441 62.3896 59.8594C62.624 58.9688 62.9551 58.2188 63.3828 57.6094C63.8164 56.9941 64.3379 56.5283 64.9473 56.2119C65.5566 55.8896 66.2422 55.7285 67.0039 55.7285C67.7832 55.7285 68.4746 55.8838 69.0781 56.1943C69.6816 56.499 70.1709 56.9209 70.5459 57.46C70.9268 57.999 71.1641 58.6143 71.2578 59.3057H69.3242C69.1895 58.7607 68.9258 58.3184 68.5332 57.9785C68.1406 57.6328 67.6309 57.46 67.0039 57.46C66.043 57.46 65.293 57.8789 64.7539 58.7168C64.2207 59.5488 63.9541 60.709 63.9541 62.1973H64.0508C64.2793 61.8281 64.5576 61.5117 64.8857 61.248C65.2139 60.9785 65.5801 60.7734 65.9844 60.6328C66.3945 60.4922 66.8311 60.4219 67.2939 60.4219C68.0498 60.4219 68.7354 60.6064 69.3506 60.9756C69.9717 61.3447 70.4639 61.8545 70.8271 62.5049C71.1963 63.1494 71.3809 63.8906 71.3809 64.7285C71.3809 65.5605 71.1904 66.3135 70.8096 66.9873C70.4346 67.6611 69.9043 68.1943 69.2188 68.5869C68.5391 68.9795 67.7422 69.1758 66.8281 69.1758ZM66.8193 67.5146C67.3232 67.5146 67.7715 67.3916 68.1641 67.1455C68.5625 66.8994 68.8789 66.5684 69.1133 66.1523C69.3477 65.7305 69.4648 65.2617 69.4648 64.7461C69.4648 64.2422 69.3506 63.7852 69.1221 63.375C68.8994 62.9648 68.5918 62.6396 68.1992 62.3994C67.8125 62.1533 67.3672 62.0303 66.8633 62.0303C66.3652 62.0303 65.9141 62.1562 65.5098 62.4082C65.1055 62.6602 64.7832 62.9941 64.543 63.4102C64.3086 63.8262 64.1914 64.2773 64.1914 64.7637C64.1914 65.25 64.3057 65.7041 64.5342 66.126C64.7627 66.5479 65.0732 66.8848 65.4658 67.1367C65.8643 67.3887 66.3154 67.5146 66.8193 67.5146ZM77.2168 69.1758C76.4141 69.1758 75.6934 69.0234 75.0547 68.7188C74.4219 68.4082 73.915 67.9834 73.5342 67.4443C73.1533 66.8994 72.9512 66.2812 72.9277 65.5898H74.8438C74.8906 66.1465 75.1396 66.6064 75.5908 66.9697C76.042 67.333 76.584 67.5146 77.2168 67.5146C77.7207 67.5146 78.166 67.3975 78.5527 67.1631C78.9395 66.9287 79.2441 66.6094 79.4668 66.2051C79.6895 65.7949 79.8008 65.3262 79.8008 64.7988C79.8008 64.2715 79.6865 63.7998 79.458 63.3838C79.2295 62.9619 78.9131 62.6309 78.5088 62.3906C78.1104 62.1504 77.6504 62.0303 77.1289 62.0303C76.7305 62.0303 76.332 62.1006 75.9336 62.2412C75.5352 62.376 75.2129 62.5518 74.9668 62.7686L73.1475 62.5049L73.8857 55.9043H81.084V57.6006H75.5381L75.125 61.2656H75.1953C75.4473 61.0137 75.7842 60.8086 76.2061 60.6504C76.6338 60.4863 77.0938 60.4043 77.5859 60.4043C78.3828 60.4043 79.0918 60.5947 79.7129 60.9756C80.3398 61.3506 80.832 61.8662 81.1895 62.5225C81.5469 63.1729 81.7256 63.9199 81.7256 64.7637C81.7256 65.6133 81.5322 66.3721 81.1455 67.04C80.7588 67.7021 80.2256 68.2236 79.5459 68.6045C78.8721 68.9854 78.0957 69.1758 77.2168 69.1758ZM87.7988 69.1758C86.791 69.1758 85.9268 68.9121 85.2061 68.3848C84.4912 67.8574 83.9434 67.0957 83.5625 66.0996C83.1875 65.0977 83 63.8848 83 62.4609C83 61.043 83.1904 59.833 83.5713 58.8311C83.9521 57.8232 84.5 57.0557 85.2148 56.5283C85.9355 55.9951 86.7969 55.7285 87.7988 55.7285C88.8066 55.7285 89.668 55.9951 90.3828 56.5283C91.1035 57.0557 91.6514 57.8232 92.0264 58.8311C92.4072 59.833 92.5977 61.043 92.5977 62.4609C92.5977 63.8848 92.4102 65.0977 92.0352 66.0996C91.6602 67.0957 91.1152 67.8574 90.4004 68.3848C89.6855 68.9121 88.8184 69.1758 87.7988 69.1758ZM87.7988 67.4883C88.4141 67.4883 88.9326 67.292 89.3545 66.8994C89.7764 66.5068 90.0986 65.9355 90.3213 65.1855C90.5439 64.4297 90.6553 63.5215 90.6553 62.4609C90.6553 61.3945 90.5439 60.4863 90.3213 59.7363C90.0986 58.9805 89.7764 58.4062 89.3545 58.0137C88.9326 57.6152 88.4141 57.416 87.7988 57.416C86.8906 57.416 86.1875 57.8584 85.6895 58.7432C85.1973 59.6221 84.9512 60.8613 84.9512 62.4609C84.9512 63.5215 85.0625 64.4297 85.2852 65.1855C85.5078 65.9355 85.8301 66.5068 86.252 66.8994C86.6797 67.292 87.1953 67.4883 87.7988 67.4883Z" fill="#FCFCFC"/>
<path d="M163.574 72.1172C163.008 72.1172 162.506 72.0215 162.068 71.8301C161.631 71.6387 161.283 71.3711 161.025 71.0273C160.768 70.6797 160.629 70.2773 160.609 69.8203H161.676C161.699 70.1016 161.795 70.3438 161.963 70.5469C162.135 70.75 162.357 70.9062 162.631 71.0156C162.908 71.125 163.215 71.1797 163.551 71.1797C163.926 71.1797 164.258 71.1152 164.547 70.9863C164.84 70.8535 165.068 70.6719 165.232 70.4414C165.4 70.207 165.484 69.9375 165.484 69.6328C165.484 69.3086 165.404 69.0234 165.244 68.7773C165.084 68.5312 164.85 68.3398 164.541 68.2031C164.236 68.0625 163.863 67.9922 163.422 67.9922H162.719V67.0547H163.422C163.766 67.0547 164.068 66.9922 164.33 66.8672C164.592 66.7422 164.797 66.5664 164.945 66.3398C165.094 66.1133 165.168 65.8477 165.168 65.543C165.168 65.2461 165.104 64.9883 164.975 64.7695C164.846 64.5508 164.662 64.3809 164.424 64.2598C164.189 64.1387 163.91 64.0781 163.586 64.0781C163.285 64.0781 163.002 64.1328 162.736 64.2422C162.471 64.3516 162.254 64.5078 162.086 64.7109C161.918 64.9141 161.828 65.1602 161.816 65.4492H160.797C160.812 64.9922 160.949 64.5918 161.207 64.248C161.465 63.9043 161.803 63.6367 162.221 63.4453C162.643 63.25 163.105 63.1523 163.609 63.1523C164.148 63.1523 164.611 63.2617 164.998 63.4805C165.385 63.6953 165.682 63.9805 165.889 64.3359C166.096 64.6914 166.199 65.0742 166.199 65.4844C166.199 65.9805 166.07 66.4004 165.812 66.7441C165.559 67.0879 165.211 67.3281 164.77 67.4648V67.5352C165.316 67.625 165.744 67.8594 166.053 68.2383C166.361 68.6133 166.516 69.0781 166.516 69.6328C166.516 70.1055 166.387 70.5293 166.129 70.9043C165.875 71.2793 165.525 71.5762 165.08 71.7949C164.639 72.0098 164.137 72.1172 163.574 72.1172ZM167.699 72V71.2383L170.582 68.0742C170.918 67.707 171.193 67.3867 171.408 67.1133C171.627 66.8398 171.789 66.582 171.895 66.3398C172.004 66.0977 172.059 65.8438 172.059 65.5781C172.059 65.2695 171.984 65.0039 171.836 64.7812C171.691 64.5547 171.494 64.3809 171.244 64.2598C170.994 64.1387 170.711 64.0781 170.395 64.0781C170.059 64.0781 169.766 64.1465 169.516 64.2832C169.27 64.4199 169.078 64.6133 168.941 64.8633C168.809 65.1094 168.742 65.3984 168.742 65.7305H167.734C167.734 65.2188 167.852 64.7695 168.086 64.3828C168.324 63.9961 168.646 63.6953 169.053 63.4805C169.463 63.2617 169.922 63.1523 170.43 63.1523C170.941 63.1523 171.395 63.2617 171.789 63.4805C172.184 63.6953 172.492 63.9863 172.715 64.3535C172.941 64.7168 173.055 65.125 173.055 65.5781C173.055 65.8984 172.996 66.2109 172.879 66.5156C172.766 66.8164 172.566 67.1543 172.281 67.5293C172 67.9043 171.609 68.3594 171.109 68.8945L169.152 70.9922V71.0625H173.207V72H167.699ZM178.855 70.3594V69.9023C178.855 69.582 178.92 69.2891 179.049 69.0234C179.182 68.7578 179.375 68.5449 179.629 68.3848C179.883 68.2246 180.191 68.1445 180.555 68.1445C180.926 68.1445 181.236 68.2246 181.486 68.3848C181.736 68.5449 181.924 68.7578 182.049 69.0234C182.178 69.2891 182.242 69.582 182.242 69.9023V70.3594C182.242 70.6797 182.178 70.9727 182.049 71.2383C181.92 71.5039 181.73 71.7168 181.48 71.877C181.23 72.0371 180.922 72.1172 180.555 72.1172C180.188 72.1172 179.877 72.0371 179.623 71.877C179.369 71.7168 179.178 71.5039 179.049 71.2383C178.92 70.9727 178.855 70.6797 178.855 70.3594ZM179.723 69.9023V70.3594C179.723 70.625 179.785 70.8633 179.91 71.0742C180.035 71.2812 180.25 71.3867 180.555 71.3906C180.855 71.3867 181.066 71.2812 181.188 71.0742C181.312 70.8633 181.375 70.625 181.375 70.3594V69.9023C181.375 69.6367 181.314 69.4004 181.193 69.1934C181.076 68.9863 180.863 68.8828 180.555 68.8828C180.258 68.8828 180.045 68.9863 179.916 69.1934C179.787 69.4004 179.723 69.6367 179.723 69.9023ZM174.508 65.3672V64.9102C174.508 64.5898 174.574 64.2969 174.707 64.0312C174.84 63.7656 175.031 63.5527 175.281 63.3926C175.535 63.2324 175.844 63.1523 176.207 63.1523C176.578 63.1523 176.889 63.2324 177.139 63.3926C177.393 63.5527 177.582 63.7656 177.707 64.0312C177.836 64.2969 177.898 64.5898 177.895 64.9102V65.3672C177.898 65.6836 177.834 65.9766 177.701 66.2461C177.572 66.5117 177.383 66.7246 177.133 66.8848C176.883 67.0449 176.574 67.125 176.207 67.125C175.84 67.125 175.529 67.0449 175.275 66.8848C175.021 66.7246 174.83 66.5117 174.701 66.2461C174.572 65.9766 174.508 65.6836 174.508 65.3672ZM175.375 64.9102V65.3672C175.375 65.6328 175.438 65.8711 175.562 66.082C175.688 66.2891 175.902 66.3906 176.207 66.3867C176.508 66.3906 176.719 66.2891 176.84 66.082C176.965 65.8711 177.027 65.6328 177.027 65.3672V64.9102C177.027 64.6445 176.967 64.4082 176.846 64.2012C176.729 63.9902 176.516 63.8867 176.207 63.8906C175.91 63.8867 175.697 63.9902 175.568 64.2012C175.439 64.4082 175.375 64.6445 175.375 64.9102ZM174.836 72L180.836 63.2695H181.809L175.809 72H174.836Z" fill="#FCFCFC"/>
<path d="M190.436 73.2073C190.275 73.5185 190.396 73.9018 190.707 74.0635C191.018 74.2252 191.402 74.104 191.564 73.7927L190.436 73.2073ZM207.635 62.4958C207.633 62.1451 207.347 61.8627 206.996 61.865L201.281 61.9024C200.93 61.9046 200.648 62.1908 200.65 62.5415C200.652 62.8922 200.938 63.1746 201.289 63.1724L206.369 63.1391L206.402 68.2191C206.405 68.5698 206.691 68.8523 207.042 68.85C207.392 68.8477 207.675 68.5615 207.672 68.2108L207.635 62.4958ZM200.536 69.0491L200.084 68.603L200.536 69.0491ZM196.006 67.0525L195.628 67.5629L196.006 67.0525ZM191 73.5L191.564 73.7927L194.687 67.7805L194.123 67.4878L193.56 67.195L190.436 73.2073L191 73.5ZM196.006 67.0525L195.628 67.5629L198.498 69.688L198.876 69.1777L199.254 68.6673L196.384 66.5422L196.006 67.0525ZM200.536 69.0491L200.988 69.4952L207.452 62.9461L207 62.5L206.548 62.0539L200.084 68.603L200.536 69.0491ZM198.876 69.1777L198.498 69.688C199.261 70.2523 200.322 70.1701 200.988 69.4952L200.536 69.0491L200.084 68.603C199.862 68.828 199.508 68.8554 199.254 68.6673L198.876 69.1777ZM194.123 67.4878L194.687 67.7805C194.867 67.4339 195.314 67.3304 195.628 67.5629L196.006 67.0525L196.384 66.5422C195.442 65.8449 194.1 66.1551 193.56 67.195L194.123 67.4878Z" fill="#FCFCFC"/>
<rect width="6" height="12" rx="3" transform="matrix(1 0 0 -1 20 166)" fill="#C6F56F"/>
<rect width="6" height="20" rx="3" transform="matrix(1 0 0 -1 42 166)" fill="#C6F56F"/>
<rect width="6" height="28" rx="3" transform="matrix(1 0 0 -1 64 166)" fill="#C6F56F"/>
<rect width="6" height="36" rx="3" transform="matrix(1 0 0 -1 86 166)" fill="#C6F56F"/>
<rect width="6" height="44" rx="3" transform="matrix(1 0 0 -1 108 166)" fill="#C6F56F"/>
<rect width="6" height="52" rx="3" transform="matrix(1 0 0 -1 130 166)" fill="#C6F56F"/>
<rect width="6" height="60" rx="3" transform="matrix(1 0 0 -1 152 166)" fill="#C6F56F"/>
<rect width="6" height="68" rx="3" transform="matrix(1 0 0 -1 174 166)" fill="#C6F56F"/>
<rect width="6" height="76" rx="3" transform="matrix(1 0 0 -1 196 166)" fill="#C6F56F"/>
</svg>
