<svg width="103" height="52" viewBox="0 0 103 52" fill="none" xmlns="http://www.w3.org/2000/svg">
<rect x="10" y="11.0039" width="93" height="41" rx="20.5" fill="#F9EB57"/>
<path d="M46.2383 37.168C45.7507 37.168 45.3587 37.0859 45.0625 36.9219C44.7663 36.7533 44.5384 36.5641 44.3789 36.3545C44.2194 36.1403 44.0964 35.9648 44.0098 35.8281H43.873V37.0039H42.752V26.8184H43.9141V30.5781H44.0098C44.0964 30.446 44.2171 30.2773 44.3721 30.0723C44.527 29.8626 44.7503 29.6758 45.042 29.5117C45.3337 29.3477 45.7279 29.2656 46.2246 29.2656C46.8672 29.2656 47.4323 29.4274 47.9199 29.751C48.4076 30.07 48.7881 30.5257 49.0615 31.1182C49.3395 31.7061 49.4785 32.401 49.4785 33.2031C49.4785 34.0098 49.3418 34.7116 49.0684 35.3086C48.7949 35.901 48.4144 36.359 47.9268 36.6826C47.4391 37.0062 46.8763 37.168 46.2383 37.168ZM46.0879 36.1152C46.5755 36.1152 46.9834 35.9854 47.3115 35.7256C47.6396 35.4613 47.8857 35.1081 48.0498 34.666C48.2184 34.224 48.3027 33.7318 48.3027 33.1895C48.3027 32.6517 48.2207 32.1663 48.0566 31.7334C47.8926 31.3005 47.6465 30.9564 47.3184 30.7012C46.9948 30.446 46.5846 30.3184 46.0879 30.3184C45.6094 30.3184 45.2083 30.4391 44.8848 30.6807C44.5612 30.9176 44.3151 31.2526 44.1465 31.6855C43.9824 32.1139 43.9004 32.6152 43.9004 33.1895C43.9004 33.7637 43.9847 34.2718 44.1533 34.7139C44.3219 35.1514 44.568 35.4954 44.8916 35.7461C45.2197 35.9922 45.6185 36.1152 46.0879 36.1152ZM55.4258 33.8867V29.3613H56.5879V37.0039H55.4258V35.7051H55.3438C55.1615 36.0924 54.8812 36.4229 54.5029 36.6963C54.1292 36.9697 53.653 37.1042 53.0742 37.0996C52.5957 37.0996 52.1719 36.9971 51.8027 36.792C51.4336 36.5824 51.1419 36.2633 50.9277 35.835C50.7181 35.4066 50.6133 34.8665 50.6133 34.2148V29.3613H51.7754V34.1465C51.7754 34.6979 51.9326 35.14 52.2471 35.4727C52.5661 35.8053 52.9694 35.9694 53.457 35.9648C53.7487 35.9648 54.0449 35.8919 54.3457 35.7461C54.651 35.5957 54.9062 35.3678 55.1113 35.0625C55.321 34.7526 55.4258 34.3607 55.4258 33.8867ZM58.0918 37.0039V29.3613H59.2539V37.0039H58.0918ZM58.6797 28.0898C58.4518 28.0898 58.2559 28.0124 58.0918 27.8574C57.9277 27.7025 57.8457 27.5156 57.8457 27.2969C57.8457 27.0781 57.9277 26.8913 58.0918 26.7363C58.2559 26.5814 58.4518 26.5039 58.6797 26.5039C58.9076 26.5039 59.1035 26.5814 59.2676 26.7363C59.4316 26.8913 59.5137 27.0781 59.5137 27.2969C59.5137 27.5156 59.4316 27.7025 59.2676 27.8574C59.1035 28.0124 58.9076 28.0898 58.6797 28.0898ZM61.9199 26.8184V37.0039H60.7578V26.8184H61.9199ZM66.2949 37.168C65.6569 37.168 65.0941 37.0062 64.6064 36.6826C64.1188 36.359 63.7383 35.901 63.4648 35.3086C63.1914 34.7116 63.0547 34.0098 63.0547 33.2031C63.0547 32.401 63.1914 31.7061 63.4648 31.1182C63.7428 30.5257 64.1257 30.07 64.6133 29.751C65.1009 29.4274 65.666 29.2656 66.3086 29.2656C66.8099 29.2656 67.2041 29.3477 67.4912 29.5117C67.7829 29.6758 68.0062 29.8626 68.1611 30.0723C68.3161 30.2773 68.4368 30.446 68.5234 30.5781H68.6191V26.8184H69.7812V37.0039H68.6602V35.8281H68.5234C68.4368 35.9648 68.3138 36.1403 68.1543 36.3545C67.9948 36.5641 67.7669 36.7533 67.4707 36.9219C67.179 37.0859 66.7871 37.168 66.2949 37.168ZM66.4453 36.1152C66.9193 36.1152 67.318 35.9922 67.6416 35.7461C67.9652 35.4954 68.2113 35.1514 68.3799 34.7139C68.5485 34.2718 68.6328 33.7637 68.6328 33.1895C68.6328 32.6152 68.5508 32.1139 68.3867 31.6855C68.2227 31.2526 67.9766 30.9176 67.6484 30.6807C67.3249 30.4391 66.9238 30.3184 66.4453 30.3184C65.9531 30.3184 65.543 30.446 65.2148 30.7012C64.8867 30.9564 64.6406 31.3005 64.4766 31.7334C64.3125 32.1663 64.2305 32.6517 64.2305 33.1895C64.2305 33.7318 64.3125 34.224 64.4766 34.666C64.6452 35.1081 64.8936 35.4613 65.2217 35.7256C65.5498 35.9854 65.9577 36.1152 66.4453 36.1152Z" fill="#1A1A1C"/>
<g clip-path="url(#clip0_1378_21949)">
<path d="M0.713322 0.0521298L19.5956 6.35228C20.1297 6.53058 20.1297 6.82776 19.6253 7.03578L10.6441 10.6316L6.1337 19.6559C5.89631 20.1314 5.5699 20.1116 5.42153 19.5866L0.04072 0.686107C-0.107647 0.171001 0.19898 -0.11627 0.713322 0.0521298Z" fill="#F9EB57"/>
</g>
<defs>
<clipPath id="clip0_1378_21949">
<rect width="20" height="20" fill="white" transform="matrix(-1 0 0 1 20 0.00195312)"/>
</clipPath>
</defs>
</svg>
