<svg width="1440" height="766" viewBox="0 0 1440 766" fill="none" xmlns="http://www.w3.org/2000/svg">
<path d="M1827.3 343.545C1762.6 203.188 1656.34 32.4705 1495.15 4.48129C1231.12 -41.3664 1073.11 339.756 704.003 442.727C509.248 497.058 214.23 485.527 -220.926 186.699" stroke="#FCFCFC" stroke-opacity="0.2" stroke-width="0.5" stroke-miterlimit="10"/>
<path opacity="0.9677" d="M1826.98 351.596C1753.08 206.103 1636.16 33.214 1467.99 9.02005C1198.65 -29.7278 1040.6 355.05 676.471 453.02C484.894 504.846 196.247 489.171 -226.285 185.36" stroke="#FCFCFC" stroke-opacity="0.2" stroke-width="0.5" stroke-miterlimit="10"/>
<path opacity="0.9355" d="M1826.67 359.648C1743.56 209.018 1616.05 33.8782 1440.83 13.5598C1166.29 -18.2766 1008.08 370.344 648.939 463.313C460.539 512.634 178.265 492.815 -231.645 184.022" stroke="#FCFCFC" stroke-opacity="0.2" stroke-width="0.5" stroke-miterlimit="10"/>
<path opacity="0.9032" d="M1826.36 367.698C1734.05 211.931 1595.99 34.4589 1413.68 18.0969C1134 -7.0032 975.395 384.908 621.411 473.605C436.092 520.039 160.287 496.458 -237 182.681" stroke="#FCFCFC" stroke-opacity="0.2" stroke-width="0.5" stroke-miterlimit="10"/>
<path opacity="0.871" d="M1826.05 375.748C1724.53 214.845 1575.97 34.9612 1386.52 22.6354C1101.77 4.10966 942.841 399.972 593.882 483.897C411.715 527.708 142.309 500.101 -242.355 181.341" stroke="#FCFCFC" stroke-opacity="0.2" stroke-width="0.5" stroke-miterlimit="10"/>
<path opacity="0.8387" d="M1825.73 383.801C1715.02 217.76 1555.98 35.3854 1359.36 27.1751C1069.58 15.0748 910.289 415.046 566.351 494.191C387.34 535.384 124.327 503.746 -247.715 180.003" stroke="#FCFCFC" stroke-opacity="0.2" stroke-width="0.5" stroke-miterlimit="10"/>
<path opacity="0.8065" d="M1825.42 391.852C1705.5 220.675 1536.01 35.7325 1332.2 31.7144C1037.43 25.9032 877.749 430.128 538.822 504.484C362.971 543.064 106.349 507.391 -253.07 178.665" stroke="#FCFCFC" stroke-opacity="0.2" stroke-width="0.5" stroke-miterlimit="10"/>
<path opacity="0.7742" d="M1825.11 399.902C1695.98 223.589 1516.05 36.0035 1305.04 36.2522C1005.3 36.6055 845.212 445.218 511.29 514.776C338.602 550.748 88.3668 511.034 -258.43 177.324" stroke="#FCFCFC" stroke-opacity="0.2" stroke-width="0.5" stroke-miterlimit="10"/>
<path opacity="0.7419" d="M1824.8 407.953C1686.47 226.502 1496.11 36.2036 1277.89 40.7903C973.177 47.1949 812.686 460.318 483.762 525.068C314.241 558.438 70.3888 514.677 -263.785 175.984" stroke="#FCFCFC" stroke-opacity="0.2" stroke-width="0.5" stroke-miterlimit="10"/>
<path opacity="0.7097" d="M1824.49 416.004C1676.95 229.417 1476.17 36.3364 1250.73 45.3299C941.065 57.6832 780.167 475.431 456.234 535.361C289.884 566.137 52.4108 518.322 -269.141 174.646" stroke="#FCFCFC" stroke-opacity="0.2" stroke-width="0.5" stroke-miterlimit="10"/>
<path opacity="0.6774" d="M1824.18 424.054C1667.44 232.331 1456.23 36.4026 1223.57 49.8676C908.95 68.0758 747.652 490.555 428.702 545.653C265.527 573.841 34.4285 521.965 -274.5 173.305" stroke="#FCFCFC" stroke-opacity="0.2" stroke-width="0.5" stroke-miterlimit="10"/>
<path opacity="0.6452" d="M1823.87 432.107C1657.92 235.247 1436.29 36.4094 1196.41 54.4081C876.834 78.3871 715.148 505.695 401.174 555.947C241.177 581.556 16.4501 525.61 -279.855 171.968" stroke="#FCFCFC" stroke-opacity="0.2" stroke-width="0.5" stroke-miterlimit="10"/>
<path opacity="0.6129" d="M1823.55 440.158C1648.4 238.161 1416.34 36.3554 1169.25 58.9464C844.707 88.6191 682.647 520.847 373.642 566.24C216.827 589.276 -1.53192 529.254 -285.215 170.628" stroke="#FCFCFC" stroke-opacity="0.2" stroke-width="0.5" stroke-miterlimit="10"/>
<path opacity="0.5806" d="M1823.24 448.207C1638.89 241.074 1396.39 36.2449 1142.1 63.4835C812.574 98.7808 650.157 536.013 346.113 576.531C192.484 597.004 -19.5099 532.896 -290.57 169.288" stroke="#FCFCFC" stroke-opacity="0.2" stroke-width="0.5" stroke-miterlimit="10"/>
<path opacity="0.5484" d="M1822.93 456.259C1629.37 243.988 1376.42 36.0842 1114.94 68.0227C780.425 108.882 617.67 551.199 318.582 586.824C168.142 604.743 -37.4918 536.54 -295.93 167.948" stroke="#FCFCFC" stroke-opacity="0.2" stroke-width="0.5" stroke-miterlimit="10"/>
<path opacity="0.5161" d="M1822.62 464.31C1619.86 246.903 1356.45 35.8735 1087.78 72.5618C748.264 118.925 585.194 566.403 291.053 597.117C143.806 612.493 -55.4702 540.185 -301.285 166.61" stroke="#FCFCFC" stroke-opacity="0.2" stroke-width="0.5" stroke-miterlimit="10"/>
<path opacity="0.4839" d="M1822.31 472.362C1610.34 249.817 1336.46 35.6165 1060.63 77.1006C716.088 128.917 552.723 581.628 263.525 607.41C119.473 620.253 -73.4482 543.829 -306.641 165.271" stroke="#FCFCFC" stroke-opacity="0.2" stroke-width="0.5" stroke-miterlimit="10"/>
<path opacity="0.4516" d="M1821.99 480.413C1600.82 252.732 1316.45 35.3158 1033.47 81.6393C683.892 138.862 520.254 596.874 235.993 617.703C95.1388 628.023 -91.4302 547.473 -312 163.931" stroke="#FCFCFC" stroke-opacity="0.2" stroke-width="0.5" stroke-miterlimit="10"/>
<path opacity="0.4194" d="M1821.68 488.464C1591.31 255.647 1296.44 34.9747 1006.31 86.1785C651.682 148.766 487.793 612.144 208.465 627.996C70.8108 635.808 -109.409 551.118 -317.355 162.592" stroke="#FCFCFC" stroke-opacity="0.2" stroke-width="0.5" stroke-miterlimit="10"/>
<path opacity="0.3871" d="M1821.37 496.515C1581.79 258.561 1276.41 34.5941 979.15 90.7171C619.451 158.63 455.331 627.44 180.933 638.288C46.4808 643.604 -127.391 554.761 -322.715 161.253" stroke="#FCFCFC" stroke-opacity="0.2" stroke-width="0.5" stroke-miterlimit="10"/>
<path opacity="0.3548" d="M1821.06 504.567C1572.28 261.475 1256.36 34.1779 951.994 95.2563C587.206 168.46 422.876 642.764 153.404 648.582C22.1556 651.415 -145.369 558.406 -328.07 159.915" stroke="#FCFCFC" stroke-opacity="0.2" stroke-width="0.5" stroke-miterlimit="10"/>
<path opacity="0.3226" d="M1820.75 512.616C1562.76 264.388 1236.29 33.7256 924.834 99.7935C554.939 178.256 390.419 658.117 125.873 658.873C-2.17275 659.239 -163.35 562.048 -333.43 158.573" stroke="#FCFCFC" stroke-opacity="0.2" stroke-width="0.5" stroke-miterlimit="10"/>
<path opacity="0.2903" d="M1820.43 520.667C1553.24 267.303 1216.22 33.2434 897.677 104.332C522.657 188.026 357.963 673.503 98.3442 669.165C-26.498 667.08 -181.329 565.692 -338.785 157.234" stroke="#FCFCFC" stroke-opacity="0.2" stroke-width="0.5" stroke-miterlimit="10"/>
<path opacity="0.2581" d="M1820.12 528.718C1543.73 270.217 1196.12 32.731 870.518 108.871C490.355 197.768 325.502 688.925 70.8124 679.458C-50.8279 674.937 -199.311 569.335 -344.145 155.895" stroke="#FCFCFC" stroke-opacity="0.2" stroke-width="0.5" stroke-miterlimit="10"/>
<path opacity="0.2258" d="M1819.81 536.771C1534.21 273.133 1176.01 32.1926 843.361 113.411C458.039 207.489 293.038 704.386 43.2841 689.752C-75.1571 682.813 -217.289 572.981 -349.5 154.557" stroke="#FCFCFC" stroke-opacity="0.2" stroke-width="0.5" stroke-miterlimit="10"/>
<path opacity="0.1935" d="M1819.5 544.822C1524.69 276.047 1155.89 31.6261 816.202 117.95C425.702 217.188 260.563 719.885 15.7522 700.045C-99.4937 690.706 -235.271 576.625 -354.859 153.218" stroke="#FCFCFC" stroke-opacity="0.2" stroke-width="0.5" stroke-miterlimit="10"/>
<path opacity="0.1613" d="M1819.19 552.872C1515.18 278.961 1135.75 31.034 789.045 122.488C393.351 226.865 228.08 735.426 -11.7761 710.337C-123.833 698.616 -253.249 580.268 -360.215 151.878" stroke="#FCFCFC" stroke-opacity="0.2" stroke-width="0.5" stroke-miterlimit="10"/>
<path opacity="0.129" d="M1818.88 560.923C1505.66 281.875 1115.6 30.4192 761.889 127.026C360.984 236.524 195.581 751.012 -39.3045 720.63C-148.179 706.546 -271.228 583.912 -365.57 150.538" stroke="#FCFCFC" stroke-opacity="0.2" stroke-width="0.5" stroke-miterlimit="10"/>
<path opacity="0.0968" d="M1818.56 568.975C1496.15 284.79 1095.42 29.784 734.729 131.566C328.597 246.169 163.058 766.648 -66.8363 730.923C-172.537 714.498 -289.209 587.556 -370.93 149.2" stroke="#FCFCFC" stroke-opacity="0.2" stroke-width="0.5" stroke-miterlimit="10"/>
<path opacity="0.0645" d="M1818.25 577.025C1486.63 287.704 1075.24 29.1268 707.573 136.104C296.198 255.798 130.513 782.33 -94.3647 741.215C-196.905 722.467 -307.188 591.2 -376.285 147.86" stroke="#FCFCFC" stroke-opacity="0.2" stroke-width="0.5" stroke-miterlimit="10"/>
<path opacity="0.0323" d="M1817.94 585.075C1477.11 290.617 1054.88 27.9079 680.413 140.642C263.6 264.81 97.9341 798.063 -121.897 751.507C-221.289 730.457 -325.169 594.842 -381.645 146.52" stroke="#FCFCFC" stroke-opacity="0.2" stroke-width="0.5" stroke-miterlimit="10"/>
</svg>
