<svg width="205" height="143" viewBox="0 0 205 143" fill="none" xmlns="http://www.w3.org/2000/svg">
<rect width="205" height="143" fill="#070B10"/>
<rect x="12.8633" y="12.8633" width="32.1569" height="32.1569" rx="6.43137" fill="#FCFCFC"/>
<path d="M33.3916 31.7285L33.3906 31.7295L28.9443 36.1768L24.498 31.7314L24.4961 31.7295L26.1338 30.0957L28.9443 32.9062L31.7559 30.0947L33.3916 31.7285ZM30.6006 28.9404H30.6016L30.6006 28.9414L28.9424 30.6016L27.2842 28.9443L27.2812 28.9404L27.2842 28.9385L27.5742 28.6484L27.7158 28.5078L28.9424 27.2812L30.6006 28.9404ZM24.9775 28.9404L23.3428 30.5752L21.707 28.9404L23.3428 27.3057L24.9775 28.9404ZM36.1787 28.9404L34.5439 30.5752L32.9092 28.9404L34.5439 27.3057L36.1787 28.9404ZM33.3916 26.1523L31.7568 27.7881L28.9453 24.9766L26.1348 27.7861L24.499 26.1514L28.9453 21.7051L33.3916 26.1523Z" fill="#F3BA2F"/>
<path d="M13.6367 70.8828V62.1523H16.6953C17.3008 62.1523 17.8008 62.2578 18.1953 62.4688C18.5898 62.6758 18.8828 62.9551 19.0742 63.3066C19.2695 63.6582 19.3672 64.0469 19.3672 64.4727C19.3672 64.8477 19.3008 65.1582 19.168 65.4043C19.0352 65.6465 18.8613 65.8398 18.6465 65.9844C18.4316 66.125 18.1992 66.2305 17.9492 66.3008V66.3828C18.2188 66.3984 18.4883 66.4922 18.7578 66.6641C19.0273 66.8359 19.252 67.0801 19.4316 67.3965C19.6152 67.7129 19.707 68.1016 19.707 68.5625C19.707 69 19.6074 69.3945 19.4082 69.7461C19.209 70.0938 18.8945 70.3711 18.4648 70.5781C18.0391 70.7812 17.4805 70.8828 16.7891 70.8828H13.6367ZM14.6914 69.9453H16.7891C17.4805 69.9453 17.9707 69.8105 18.2598 69.541C18.5527 69.2715 18.6992 68.9453 18.6992 68.5625C18.6992 68.2656 18.623 67.9922 18.4707 67.7422C18.3223 67.4922 18.1094 67.291 17.832 67.1387C17.5547 66.9863 17.2266 66.9102 16.8477 66.9102H14.6914V69.9453ZM14.6914 65.9961H16.6602C16.9766 65.9961 17.2637 65.9336 17.5215 65.8086C17.7793 65.6797 17.9824 65.502 18.1309 65.2754C18.2832 65.0449 18.3594 64.7773 18.3594 64.4727C18.3594 64.0898 18.2266 63.7637 17.9609 63.4941C17.6953 63.2246 17.2734 63.0898 16.6953 63.0898H14.6914V65.9961ZM27.8164 62.1523V70.8828H26.7734L22.0273 64.0273H21.9336V70.8828H20.8789V62.1523H21.8984L26.6797 69.0195H26.7617V62.1523H27.8164ZM29.3633 70.8828V62.1523H32.4219C33.0273 62.1523 33.5273 62.2578 33.9219 62.4688C34.3164 62.6758 34.6094 62.9551 34.8008 63.3066C34.9961 63.6582 35.0938 64.0469 35.0938 64.4727C35.0938 64.8477 35.0273 65.1582 34.8945 65.4043C34.7617 65.6465 34.5879 65.8398 34.373 65.9844C34.1582 66.125 33.9258 66.2305 33.6758 66.3008V66.3828C33.9453 66.3984 34.2148 66.4922 34.4844 66.6641C34.7539 66.8359 34.9785 67.0801 35.1582 67.3965C35.3418 67.7129 35.4336 68.1016 35.4336 68.5625C35.4336 69 35.334 69.3945 35.1348 69.7461C34.9355 70.0938 34.6211 70.3711 34.1914 70.5781C33.7656 70.7812 33.207 70.8828 32.5156 70.8828H29.3633ZM30.418 69.9453H32.5156C33.207 69.9453 33.6973 69.8105 33.9863 69.541C34.2793 69.2715 34.4258 68.9453 34.4258 68.5625C34.4258 68.2656 34.3496 67.9922 34.1973 67.7422C34.0488 67.4922 33.8359 67.291 33.5586 67.1387C33.2812 66.9863 32.9531 66.9102 32.5742 66.9102H30.418V69.9453ZM30.418 65.9961H32.3867C32.7031 65.9961 32.9902 65.9336 33.248 65.8086C33.5059 65.6797 33.709 65.502 33.8574 65.2754C34.0098 65.0449 34.0859 64.7773 34.0859 64.4727C34.0859 64.0898 33.9531 63.7637 33.6875 63.4941C33.4219 63.2246 33 63.0898 32.4219 63.0898H30.418V65.9961Z" fill="#FCFCFC"/>
<path d="M52.7692 63.9929C52.6929 63.9929 52.6165 63.9648 52.5562 63.9045C52.4396 63.7879 52.4396 63.595 52.5562 63.4784L53.8384 62.1962L52.5562 60.9139C52.4396 60.7973 52.4396 60.6044 52.5562 60.4878C52.6727 60.3712 52.8657 60.3712 52.9823 60.4878L54.4776 61.9831C54.5338 62.0394 54.566 62.1158 54.566 62.1962C54.566 62.2765 54.5338 62.3529 54.4776 62.4092L52.9823 63.9045C52.922 63.9608 52.8456 63.9929 52.7692 63.9929Z" fill="#FCFCFC" fill-opacity="0.6"/>
<path d="M54.2633 62.4975H47.028C46.8632 62.4975 46.7266 62.3608 46.7266 62.196C46.7266 62.0312 46.8632 61.8945 47.028 61.8945H54.2633C54.4281 61.8945 54.5648 62.0312 54.5648 62.196C54.5648 62.3608 54.4281 62.4975 54.2633 62.4975Z" fill="#FCFCFC" fill-opacity="0.6"/>
<path d="M48.5233 68.2331C48.4469 68.2331 48.3706 68.205 48.3103 68.1447L46.815 66.6494C46.7587 66.5931 46.7266 66.5168 46.7266 66.4364C46.7266 66.356 46.7587 66.2796 46.815 66.2233L48.3103 64.7281C48.4269 64.6115 48.6198 64.6115 48.7364 64.7281C48.8529 64.8446 48.8529 65.0376 48.7364 65.1541L47.4541 66.4364L48.7364 67.7186C48.8529 67.8352 48.8529 68.0281 48.7364 68.1447C48.6801 68.205 48.6037 68.2331 48.5233 68.2331Z" fill="#FCFCFC" fill-opacity="0.6"/>
<path d="M54.2633 66.7338H47.028C46.8632 66.7338 46.7266 66.5971 46.7266 66.4323C46.7266 66.2675 46.8632 66.1309 47.028 66.1309H54.2633C54.4281 66.1309 54.5648 66.2675 54.5648 66.4323C54.5648 66.5971 54.4281 66.7338 54.2633 66.7338Z" fill="#FCFCFC" fill-opacity="0.6"/>
<path d="M69.2109 62.1523H70.2656V67.9297C70.2656 68.5273 70.125 69.0605 69.8438 69.5293C69.5664 69.9941 69.1738 70.3613 68.666 70.6309C68.1582 70.9004 67.5625 71.0352 66.8789 71.0352C66.1953 71.0352 65.5977 70.9004 65.0859 70.6309C64.5781 70.3613 64.1836 69.9941 63.9023 69.5293C63.6211 69.0605 63.4805 68.5273 63.4805 67.9297V62.1523H64.5352V67.8477C64.5352 68.2734 64.6289 68.6523 64.8164 68.9844C65.0039 69.3164 65.2734 69.5781 65.625 69.7695C65.9766 69.957 66.3945 70.0508 66.8789 70.0508C67.3633 70.0508 67.7793 69.957 68.127 69.7695C68.4746 69.5781 68.7422 69.3164 68.9297 68.9844C69.1172 68.6523 69.2109 68.2734 69.2109 67.8477V62.1523ZM74.5781 71.0352C73.9531 71.0352 73.4121 70.9355 72.9551 70.7363C72.498 70.5332 72.1387 70.252 71.877 69.8926C71.6191 69.5293 71.4727 69.1094 71.4375 68.6328H72.5273C72.5586 68.9609 72.6699 69.2324 72.8613 69.4473C73.0566 69.6621 73.3047 69.8223 73.6055 69.9277C73.9062 70.0332 74.2305 70.0859 74.5781 70.0859C74.9805 70.0859 75.3418 70.0195 75.6621 69.8867C75.9863 69.7539 76.2422 69.5684 76.4297 69.3301C76.6172 69.0918 76.7109 68.8125 76.7109 68.4922C76.7109 68.2031 76.6289 67.9688 76.4648 67.7891C76.3008 67.6094 76.0859 67.4629 75.8203 67.3496C75.5586 67.2363 75.2734 67.1367 74.9648 67.0508L73.8984 66.7461C73.2148 66.5508 72.6738 66.2715 72.2754 65.9082C71.8809 65.541 71.6836 65.0625 71.6836 64.4727C71.6836 63.9844 71.8145 63.5586 72.0762 63.1953C72.3418 62.8281 72.6992 62.543 73.1484 62.3398C73.6016 62.1367 74.1055 62.0352 74.6602 62.0352C75.2227 62.0352 75.7227 62.1367 76.1602 62.3398C76.5977 62.5391 76.9453 62.8125 77.2031 63.1602C77.4609 63.5039 77.5977 63.8945 77.6133 64.332H76.582C76.5312 63.9023 76.3242 63.5684 75.9609 63.3301C75.6016 63.0918 75.1562 62.9727 74.625 62.9727C74.2422 62.9727 73.9062 63.0352 73.6172 63.1602C73.3281 63.2852 73.1035 63.457 72.9434 63.6758C72.7832 63.8945 72.7031 64.1445 72.7031 64.4258C72.7031 64.7344 72.7988 64.9844 72.9902 65.1758C73.1816 65.3633 73.4082 65.5098 73.6699 65.6152C73.9355 65.7207 74.1758 65.8047 74.3906 65.8672L75.2695 66.1133C75.4961 66.1758 75.748 66.2598 76.0254 66.3652C76.3066 66.4707 76.5762 66.6133 76.834 66.793C77.0957 66.9727 77.3105 67.2031 77.4785 67.4844C77.6465 67.7617 77.7305 68.1055 77.7305 68.5156C77.7305 68.9844 77.6074 69.4102 77.3613 69.793C77.1152 70.1719 76.7578 70.4746 76.2891 70.7012C75.8203 70.9238 75.25 71.0352 74.5781 71.0352ZM81.5977 70.8828H79.5V69.9453H81.5273C82.25 69.9453 82.8477 69.8066 83.3203 69.5293C83.7969 69.252 84.1523 68.8555 84.3867 68.3398C84.6211 67.8242 84.7383 67.2109 84.7383 66.5C84.7383 65.7969 84.623 65.1914 84.3926 64.6836C84.1621 64.1719 83.8164 63.7793 83.3555 63.5059C82.8984 63.2285 82.3281 63.0898 81.6445 63.0898H79.4531V62.1523H81.7148C82.5625 62.1523 83.2871 62.3262 83.8887 62.6738C84.4941 63.0215 84.957 63.5215 85.2773 64.1738C85.5977 64.8223 85.7578 65.5977 85.7578 66.5C85.7578 67.4102 85.5957 68.1934 85.2715 68.8496C84.9473 69.502 84.4746 70.0039 83.8535 70.3555C83.2363 70.707 82.4844 70.8828 81.5977 70.8828ZM79.957 62.1523V70.8828H78.9023V62.1523H79.957Z" fill="#FCFCFC"/>
<path d="M18.6445 96.9414C18.0521 96.9414 17.4564 96.834 16.8574 96.6191C16.2585 96.3978 15.7116 96.0299 15.2168 95.5156C14.7285 94.9948 14.3346 94.2884 14.0352 93.3965C13.7357 92.5046 13.5859 91.388 13.5859 90.0469C13.5859 88.7578 13.7064 87.6152 13.9473 86.6191C14.1947 85.623 14.5462 84.7832 15.002 84.0996C15.4642 83.4095 16.0208 82.8887 16.6719 82.5371C17.3229 82.179 18.0586 82 18.8789 82C19.6927 82 20.4154 82.1628 21.0469 82.4883C21.6849 82.8138 22.2057 83.2663 22.6094 83.8457C23.013 84.4186 23.2734 85.0794 23.3906 85.8281H21.6719C21.5091 85.1771 21.1934 84.6367 20.7246 84.207C20.2624 83.7773 19.6471 83.5625 18.8789 83.5625C17.7526 83.5625 16.8639 84.054 16.2129 85.0371C15.5684 86.0137 15.2461 87.3906 15.2461 89.168H15.3633C15.6302 88.7643 15.946 88.4193 16.3105 88.1328C16.6751 87.8398 17.0788 87.6185 17.5215 87.4688C17.9642 87.3125 18.4362 87.2344 18.9375 87.2344C19.7708 87.2344 20.5326 87.4427 21.2227 87.8594C21.9128 88.2695 22.4661 88.8392 22.8828 89.5684C23.2995 90.291 23.5078 91.1211 23.5078 92.0586C23.5078 92.957 23.306 93.7773 22.9023 94.5195C22.5052 95.2552 21.9421 95.8444 21.2129 96.2871C20.4837 96.7233 19.6276 96.9414 18.6445 96.9414ZM18.6445 95.3789C19.2435 95.3789 19.7806 95.2324 20.2559 94.9395C20.7311 94.64 21.1087 94.2396 21.3887 93.7383C21.6686 93.2305 21.8086 92.6706 21.8086 92.0586C21.8086 91.4531 21.6719 90.9062 21.3984 90.418C21.1315 89.9232 20.7637 89.5293 20.2949 89.2363C19.8327 88.9434 19.3021 88.7969 18.7031 88.7969C18.1042 88.7969 17.5605 88.9499 17.0723 89.2559C16.5905 89.5618 16.2064 89.9655 15.9199 90.4668C15.64 90.9616 15.5 91.4987 15.5 92.0781C15.5 92.6576 15.6367 93.2012 15.9102 93.709C16.1836 94.2103 16.5547 94.6139 17.0234 94.9199C17.4987 95.2259 18.0391 95.3789 18.6445 95.3789ZM29.8164 96.9414C28.9831 96.9414 28.2311 96.7786 27.5605 96.4531C26.8965 96.1211 26.3626 95.6654 25.959 95.0859C25.5553 94.5065 25.3372 93.849 25.3047 93.1133H27.0039C27.069 93.7643 27.3652 94.3047 27.8926 94.7344C28.4264 95.1641 29.0677 95.3789 29.8164 95.3789C30.4154 95.3789 30.946 95.2389 31.4082 94.959C31.8704 94.679 32.235 94.2949 32.502 93.8066C32.7689 93.3184 32.9023 92.7617 32.9023 92.1367C32.9023 91.5052 32.7624 90.9388 32.4824 90.4375C32.209 89.9362 31.8314 89.5423 31.3496 89.2559C30.8678 88.9629 30.3177 88.8164 29.6992 88.8164C29.25 88.8164 28.791 88.888 28.3223 89.0312C27.86 89.168 27.4792 89.3438 27.1797 89.5586L25.5195 89.3633L26.3984 82.1953H33.957V83.7578H27.8828L27.375 88.0547H27.4531C27.7526 87.8138 28.127 87.6185 28.5762 87.4688C29.0254 87.3125 29.4974 87.2344 29.9922 87.2344C30.8841 87.2344 31.6784 87.446 32.375 87.8691C33.0716 88.2923 33.6185 88.8717 34.0156 89.6074C34.4193 90.3366 34.6211 91.1732 34.6211 92.1172C34.6211 93.0417 34.4128 93.8685 33.9961 94.5977C33.5794 95.3268 33.0098 95.8997 32.2871 96.3164C31.5645 96.7331 30.7409 96.9414 29.8164 96.9414ZM36.0469 93.7578V92.3125L42.4336 82.1953H43.4883V84.4414H42.7656L37.9414 92.0781V92.1953H46.5547V93.7578H36.0469ZM42.8828 96.7461V93.3281V92.6445V82.1953H44.5625V96.7461H42.8828ZM48.7227 96.7461L55.2266 83.875V83.7578H47.7266V82.1953H57.0625V83.8555L50.5781 96.7461H48.7227ZM57.4238 96.8633C57.0723 96.8633 56.7695 96.7396 56.5156 96.4922C56.2682 96.2383 56.1445 95.9355 56.1445 95.584C56.1445 95.2324 56.2682 94.9329 56.5156 94.6855C56.7695 94.4316 57.0723 94.3047 57.4238 94.3047C57.7754 94.3047 58.0749 94.4316 58.3223 94.6855C58.5762 94.9329 58.7031 95.2324 58.7031 95.584C58.7031 95.9355 58.5762 96.2383 58.3223 96.4922C58.0749 96.7396 57.7754 96.8633 57.4238 96.8633ZM60.9883 96.7461L67.4922 83.875V83.7578H59.9922V82.1953H69.3281V83.8555L62.8438 96.7461H60.9883ZM75.207 82C75.806 82.0065 76.4017 82.1204 76.9941 82.3418C77.5931 82.5632 78.14 82.931 78.6348 83.4453C79.1296 83.9596 79.5234 84.6595 79.8164 85.5449C80.1159 86.4303 80.2656 87.5404 80.2656 88.875C80.2656 90.1706 80.1452 91.3197 79.9043 92.3223C79.6634 93.3184 79.3118 94.1615 78.8496 94.8516C78.3939 95.5352 77.8405 96.056 77.1895 96.4141C76.5384 96.7656 75.806 96.9414 74.9922 96.9414C74.1784 96.9414 73.4492 96.7786 72.8047 96.4531C72.1667 96.1276 71.6458 95.6751 71.2422 95.0957C70.8385 94.5163 70.5781 93.8424 70.4609 93.0742H72.1992C72.3555 93.7448 72.668 94.2982 73.1367 94.7344C73.6055 95.1641 74.224 95.3789 74.9922 95.3789C76.112 95.3789 76.9941 94.8906 77.6387 93.9141C78.2897 92.931 78.6185 91.5443 78.625 89.7539H78.5078C78.2409 90.151 77.9251 90.4961 77.5605 90.7891C77.196 91.0755 76.7923 91.2969 76.3496 91.4531C75.9069 91.6094 75.4349 91.6875 74.9336 91.6875C74.1003 91.6875 73.3353 91.4824 72.6387 91.0723C71.9421 90.6556 71.3854 90.0859 70.9688 89.3633C70.5586 88.6341 70.3503 87.8008 70.3438 86.8633C70.3503 85.9714 70.5521 85.1576 70.9492 84.4219C71.3529 83.6797 71.916 83.0872 72.6387 82.6445C73.3678 82.2018 74.224 81.987 75.207 82ZM75.207 83.5625C74.6146 83.5625 74.0775 83.7122 73.5957 84.0117C73.1204 84.3047 72.7461 84.7018 72.4727 85.2031C72.1992 85.6979 72.0625 86.2513 72.0625 86.8633C72.0625 87.4688 72.1927 88.0189 72.4531 88.5137C72.7201 89.0085 73.0879 89.4023 73.5566 89.6953C74.0254 89.9818 74.556 90.125 75.1484 90.125C75.7474 90.125 76.2878 89.972 76.7695 89.666C77.2578 89.3535 77.6452 88.9466 77.9316 88.4453C78.2246 87.944 78.3711 87.4036 78.3711 86.8242C78.3711 86.2578 78.2344 85.7272 77.9609 85.2324C77.6875 84.7311 77.3132 84.3275 76.8379 84.0215C76.3626 83.7155 75.819 83.5625 75.207 83.5625Z" fill="#FCFCFC"/>
<path d="M23.8096 114.076H22.2021V112.936L19.5498 115.588L18.9814 116.157L18.4131 115.588L16.7178 113.893L14 116.61L12.8633 115.474L16.7178 111.619L18.9814 113.883L21.2002 111.664H19.79V110.057H23.8096V114.076Z" fill="#00DEA3"/>
<path d="M30.375 108.486C30.7344 108.49 31.0918 108.559 31.4473 108.691C31.8066 108.824 32.1348 109.045 32.4316 109.354C32.7285 109.662 32.9648 110.082 33.1406 110.613C33.3203 111.145 33.4102 111.811 33.4102 112.611C33.4102 113.389 33.3379 114.078 33.1934 114.68C33.0488 115.277 32.8379 115.783 32.5605 116.197C32.2871 116.607 31.9551 116.92 31.5645 117.135C31.1738 117.346 30.7344 117.451 30.2461 117.451C29.7578 117.451 29.3203 117.354 28.9336 117.158C28.5508 116.963 28.2383 116.691 27.9961 116.344C27.7539 115.996 27.5977 115.592 27.5273 115.131H28.5703C28.6641 115.533 28.8516 115.865 29.1328 116.127C29.4141 116.385 29.7852 116.514 30.2461 116.514C30.918 116.514 31.4473 116.221 31.834 115.635C32.2246 115.045 32.4219 114.213 32.4258 113.139H32.3555C32.1953 113.377 32.0059 113.584 31.7871 113.76C31.5684 113.932 31.3262 114.064 31.0605 114.158C30.7949 114.252 30.5117 114.299 30.2109 114.299C29.7109 114.299 29.252 114.176 28.834 113.93C28.416 113.68 28.082 113.338 27.832 112.904C27.5859 112.467 27.4609 111.967 27.457 111.404C27.4609 110.869 27.582 110.381 27.8203 109.939C28.0625 109.494 28.4004 109.139 28.834 108.873C29.2715 108.607 29.7852 108.479 30.375 108.486ZM30.375 109.424C30.0195 109.424 29.6973 109.514 29.4082 109.693C29.123 109.869 28.8984 110.107 28.7344 110.408C28.5703 110.705 28.4883 111.037 28.4883 111.404C28.4883 111.768 28.5664 112.098 28.7227 112.395C28.8828 112.691 29.1035 112.928 29.3848 113.104C29.666 113.275 29.9844 113.361 30.3398 113.361C30.6992 113.361 31.0234 113.27 31.3125 113.086C31.6055 112.898 31.8379 112.654 32.0098 112.354C32.1855 112.053 32.2734 111.729 32.2734 111.381C32.2734 111.041 32.1914 110.723 32.0273 110.426C31.8633 110.125 31.6387 109.883 31.3535 109.699C31.0684 109.516 30.7422 109.424 30.375 109.424ZM34.9629 117.404C34.752 117.404 34.5703 117.33 34.418 117.182C34.2695 117.029 34.1953 116.848 34.1953 116.637C34.1953 116.426 34.2695 116.246 34.418 116.098C34.5703 115.945 34.752 115.869 34.9629 115.869C35.1738 115.869 35.3535 115.945 35.502 116.098C35.6543 116.246 35.7305 116.426 35.7305 116.637C35.7305 116.848 35.6543 117.029 35.502 117.182C35.3535 117.33 35.1738 117.404 34.9629 117.404ZM39.5625 117.451C39.0625 117.451 38.6113 117.354 38.209 117.158C37.8105 116.959 37.4902 116.686 37.248 116.338C37.0059 115.99 36.875 115.596 36.8555 115.154H37.875C37.9141 115.545 38.0918 115.869 38.4082 116.127C38.7285 116.385 39.1133 116.514 39.5625 116.514C39.9219 116.514 40.2402 116.43 40.5176 116.262C40.7949 116.094 41.0137 115.863 41.1738 115.57C41.334 115.277 41.4141 114.943 41.4141 114.568C41.4141 114.189 41.3301 113.85 41.1621 113.549C40.998 113.248 40.7715 113.012 40.4824 112.84C40.1934 112.664 39.8633 112.576 39.4922 112.576C39.2227 112.576 38.9473 112.619 38.666 112.705C38.3887 112.787 38.1602 112.893 37.9805 113.021L36.9844 112.904L37.5117 108.604H42.0469V109.541H38.4023L38.0977 112.119H38.1445C38.3242 111.975 38.5488 111.857 38.8184 111.768C39.0879 111.674 39.3711 111.627 39.668 111.627C40.2031 111.627 40.6797 111.754 41.0977 112.008C41.5156 112.262 41.8438 112.609 42.082 113.051C42.3242 113.488 42.4453 113.99 42.4453 114.557C42.4453 115.111 42.3203 115.607 42.0703 116.045C41.8203 116.482 41.4785 116.826 41.0449 117.076C40.6113 117.326 40.1172 117.451 39.5625 117.451ZM47.9531 115.693V115.236C47.9531 114.916 48.0176 114.623 48.1465 114.357C48.2793 114.092 48.4727 113.879 48.7266 113.719C48.9805 113.559 49.2891 113.479 49.6523 113.479C50.0234 113.479 50.334 113.559 50.584 113.719C50.834 113.879 51.0215 114.092 51.1465 114.357C51.2754 114.623 51.3398 114.916 51.3398 115.236V115.693C51.3398 116.014 51.2754 116.307 51.1465 116.572C51.0176 116.838 50.8281 117.051 50.5781 117.211C50.3281 117.371 50.0195 117.451 49.6523 117.451C49.2852 117.451 48.9746 117.371 48.7207 117.211C48.4668 117.051 48.2754 116.838 48.1465 116.572C48.0176 116.307 47.9531 116.014 47.9531 115.693ZM48.8203 115.236V115.693C48.8203 115.959 48.8828 116.197 49.0078 116.408C49.1328 116.615 49.3477 116.721 49.6523 116.725C49.9531 116.721 50.1641 116.615 50.2852 116.408C50.4102 116.197 50.4727 115.959 50.4727 115.693V115.236C50.4727 114.971 50.4121 114.734 50.291 114.527C50.1738 114.32 49.9609 114.217 49.6523 114.217C49.3555 114.217 49.1426 114.32 49.0137 114.527C48.8848 114.734 48.8203 114.971 48.8203 115.236ZM43.6055 110.701V110.244C43.6055 109.924 43.6719 109.631 43.8047 109.365C43.9375 109.1 44.1289 108.887 44.3789 108.727C44.6328 108.566 44.9414 108.486 45.3047 108.486C45.6758 108.486 45.9863 108.566 46.2363 108.727C46.4902 108.887 46.6797 109.1 46.8047 109.365C46.9336 109.631 46.9961 109.924 46.9922 110.244V110.701C46.9961 111.018 46.9316 111.311 46.7988 111.58C46.6699 111.846 46.4805 112.059 46.2305 112.219C45.9805 112.379 45.6719 112.459 45.3047 112.459C44.9375 112.459 44.627 112.379 44.373 112.219C44.1191 112.059 43.9277 111.846 43.7988 111.58C43.6699 111.311 43.6055 111.018 43.6055 110.701ZM44.4727 110.244V110.701C44.4727 110.967 44.5352 111.205 44.6602 111.416C44.7852 111.623 45 111.725 45.3047 111.721C45.6055 111.725 45.8164 111.623 45.9375 111.416C46.0625 111.205 46.125 110.967 46.125 110.701V110.244C46.125 109.979 46.0645 109.742 45.9434 109.535C45.8262 109.324 45.6133 109.221 45.3047 109.225C45.0078 109.221 44.7949 109.324 44.666 109.535C44.5371 109.742 44.4727 109.979 44.4727 110.244ZM43.9336 117.334L49.9336 108.604H50.9062L44.9062 117.334H43.9336Z" fill="#00DEA3"/>
<path d="M192.137 48.9902C186.477 60.2451 181.14 74.6131 169.78 74.6131C155.916 74.9581 153.083 62.1609 141.197 62.8793C121.104 62.8793 128.462 94.0098 101.294 94.0098" stroke="url(#paint0_linear_654_15552)" stroke-width="1.60784"/>
<defs>
<linearGradient id="paint0_linear_654_15552" x1="192.137" y1="48.9902" x2="121.134" y2="115.265" gradientUnits="userSpaceOnUse">
<stop offset="0.125" stop-color="#00DEA3" stop-opacity="0"/>
<stop offset="0.488932" stop-color="#00DEA3"/>
<stop offset="1" stop-color="#00DEA3" stop-opacity="0"/>
</linearGradient>
</defs>
</svg>
