<svg width="205" height="144" viewBox="0 0 205 144" fill="none" xmlns="http://www.w3.org/2000/svg">
<rect width="205" height="143.098" fill="white"/>
<rect x="12.8594" y="12.8633" width="32.1569" height="32.1569" rx="6.43137" fill="#1A1A1C"/>
<path fill-rule="evenodd" clip-rule="evenodd" d="M26.1292 27.7874L28.9398 24.9781L31.7515 27.7897L33.3859 26.1542L28.9398 21.707L24.4936 26.153L26.1292 27.7874ZM21.7031 28.9427L23.3381 27.3078L24.9731 28.9427L23.3381 30.5776L21.7031 28.9427ZM28.9397 32.9076L26.1292 30.0971L24.4913 31.7304L24.4936 31.7327L28.9397 36.1775L33.3859 31.7304L33.387 31.7292L31.7514 30.096L28.9397 32.9076ZM32.9035 28.9427L34.5384 27.3078L36.1734 28.9427L34.5384 30.5776L32.9035 28.9427ZM28.9395 27.2823L30.5979 28.9418H30.5991L30.5979 28.9429L28.9395 30.6025L27.281 28.9452L27.2788 28.9418L27.281 28.9395L27.5714 28.6492L27.7131 28.5086L28.9395 27.2823Z" fill="#F3BA2F"/>
<path d="M13.6328 70.8828V62.1523H16.6914C17.2969 62.1523 17.7969 62.2578 18.1914 62.4688C18.5859 62.6758 18.8789 62.9551 19.0703 63.3066C19.2656 63.6582 19.3633 64.0469 19.3633 64.4727C19.3633 64.8477 19.2969 65.1582 19.1641 65.4043C19.0312 65.6465 18.8574 65.8398 18.6426 65.9844C18.4277 66.125 18.1953 66.2305 17.9453 66.3008V66.3828C18.2148 66.3984 18.4844 66.4922 18.7539 66.6641C19.0234 66.8359 19.248 67.0801 19.4277 67.3965C19.6113 67.7129 19.7031 68.1016 19.7031 68.5625C19.7031 69 19.6035 69.3945 19.4043 69.7461C19.2051 70.0938 18.8906 70.3711 18.4609 70.5781C18.0352 70.7812 17.4766 70.8828 16.7852 70.8828H13.6328ZM14.6875 69.9453H16.7852C17.4766 69.9453 17.9668 69.8105 18.2559 69.541C18.5488 69.2715 18.6953 68.9453 18.6953 68.5625C18.6953 68.2656 18.6191 67.9922 18.4668 67.7422C18.3184 67.4922 18.1055 67.291 17.8281 67.1387C17.5508 66.9863 17.2227 66.9102 16.8438 66.9102H14.6875V69.9453ZM14.6875 65.9961H16.6562C16.9727 65.9961 17.2598 65.9336 17.5176 65.8086C17.7754 65.6797 17.9785 65.502 18.127 65.2754C18.2793 65.0449 18.3555 64.7773 18.3555 64.4727C18.3555 64.0898 18.2227 63.7637 17.957 63.4941C17.6914 63.2246 17.2695 63.0898 16.6914 63.0898H14.6875V65.9961ZM27.8125 62.1523V70.8828H26.7695L22.0234 64.0273H21.9297V70.8828H20.875V62.1523H21.8945L26.6758 69.0195H26.7578V62.1523H27.8125ZM29.3594 70.8828V62.1523H32.418C33.0234 62.1523 33.5234 62.2578 33.918 62.4688C34.3125 62.6758 34.6055 62.9551 34.7969 63.3066C34.9922 63.6582 35.0898 64.0469 35.0898 64.4727C35.0898 64.8477 35.0234 65.1582 34.8906 65.4043C34.7578 65.6465 34.584 65.8398 34.3691 65.9844C34.1543 66.125 33.9219 66.2305 33.6719 66.3008V66.3828C33.9414 66.3984 34.2109 66.4922 34.4805 66.6641C34.75 66.8359 34.9746 67.0801 35.1543 67.3965C35.3379 67.7129 35.4297 68.1016 35.4297 68.5625C35.4297 69 35.3301 69.3945 35.1309 69.7461C34.9316 70.0938 34.6172 70.3711 34.1875 70.5781C33.7617 70.7812 33.2031 70.8828 32.5117 70.8828H29.3594ZM30.4141 69.9453H32.5117C33.2031 69.9453 33.6934 69.8105 33.9824 69.541C34.2754 69.2715 34.4219 68.9453 34.4219 68.5625C34.4219 68.2656 34.3457 67.9922 34.1934 67.7422C34.0449 67.4922 33.832 67.291 33.5547 67.1387C33.2773 66.9863 32.9492 66.9102 32.5703 66.9102H30.4141V69.9453ZM30.4141 65.9961H32.3828C32.6992 65.9961 32.9863 65.9336 33.2441 65.8086C33.502 65.6797 33.7051 65.502 33.8535 65.2754C34.0059 65.0449 34.082 64.7773 34.082 64.4727C34.082 64.0898 33.9492 63.7637 33.6836 63.4941C33.418 63.2246 32.9961 63.0898 32.418 63.0898H30.4141V65.9961Z" fill="#1A1A1C"/>
<path d="M52.7614 63.9929C52.685 63.9929 52.6087 63.9648 52.5484 63.9045C52.4318 63.7879 52.4318 63.595 52.5484 63.4784L53.8306 62.1962L52.5484 60.9139C52.4318 60.7973 52.4318 60.6044 52.5484 60.4878C52.6649 60.3712 52.8579 60.3712 52.9744 60.4878L54.4697 61.9831C54.526 62.0394 54.5582 62.1158 54.5582 62.1962C54.5582 62.2765 54.526 62.3529 54.4697 62.4092L52.9744 63.9045C52.9141 63.9608 52.8378 63.9929 52.7614 63.9929Z" fill="#1A1A1C" fill-opacity="0.6"/>
<path d="M54.2633 62.4975H47.028C46.8632 62.4975 46.7266 62.3608 46.7266 62.196C46.7266 62.0312 46.8632 61.8945 47.028 61.8945H54.2633C54.4281 61.8945 54.5648 62.0312 54.5648 62.196C54.5648 62.3608 54.4281 62.4975 54.2633 62.4975Z" fill="#1A1A1C" fill-opacity="0.6"/>
<path d="M48.5233 68.2331C48.4469 68.2331 48.3706 68.205 48.3103 68.1447L46.815 66.6494C46.7587 66.5931 46.7266 66.5168 46.7266 66.4364C46.7266 66.356 46.7587 66.2796 46.815 66.2233L48.3103 64.7281C48.4269 64.6115 48.6198 64.6115 48.7364 64.7281C48.8529 64.8446 48.8529 65.0376 48.7364 65.1541L47.4541 66.4364L48.7364 67.7186C48.8529 67.8352 48.8529 68.0281 48.7364 68.1447C48.6801 68.205 48.6037 68.2331 48.5233 68.2331Z" fill="#1A1A1C" fill-opacity="0.6"/>
<path d="M54.2633 66.7338H47.028C46.8632 66.7338 46.7266 66.5971 46.7266 66.4323C46.7266 66.2675 46.8632 66.1309 47.028 66.1309H54.2633C54.4281 66.1309 54.5648 66.2675 54.5648 66.4323C54.5648 66.5971 54.4281 66.7338 54.2633 66.7338Z" fill="#1A1A1C" fill-opacity="0.6"/>
<path d="M69.207 62.1523H70.2617V67.9297C70.2617 68.5273 70.1211 69.0605 69.8398 69.5293C69.5625 69.9941 69.1699 70.3613 68.6621 70.6309C68.1543 70.9004 67.5586 71.0352 66.875 71.0352C66.1914 71.0352 65.5938 70.9004 65.082 70.6309C64.5742 70.3613 64.1797 69.9941 63.8984 69.5293C63.6172 69.0605 63.4766 68.5273 63.4766 67.9297V62.1523H64.5312V67.8477C64.5312 68.2734 64.625 68.6523 64.8125 68.9844C65 69.3164 65.2695 69.5781 65.6211 69.7695C65.9727 69.957 66.3906 70.0508 66.875 70.0508C67.3594 70.0508 67.7754 69.957 68.123 69.7695C68.4707 69.5781 68.7383 69.3164 68.9258 68.9844C69.1133 68.6523 69.207 68.2734 69.207 67.8477V62.1523ZM74.5742 71.0352C73.9492 71.0352 73.4082 70.9355 72.9512 70.7363C72.4941 70.5332 72.1348 70.252 71.873 69.8926C71.6152 69.5293 71.4688 69.1094 71.4336 68.6328H72.5234C72.5547 68.9609 72.666 69.2324 72.8574 69.4473C73.0527 69.6621 73.3008 69.8223 73.6016 69.9277C73.9023 70.0332 74.2266 70.0859 74.5742 70.0859C74.9766 70.0859 75.3379 70.0195 75.6582 69.8867C75.9824 69.7539 76.2383 69.5684 76.4258 69.3301C76.6133 69.0918 76.707 68.8125 76.707 68.4922C76.707 68.2031 76.625 67.9688 76.4609 67.7891C76.2969 67.6094 76.082 67.4629 75.8164 67.3496C75.5547 67.2363 75.2695 67.1367 74.9609 67.0508L73.8945 66.7461C73.2109 66.5508 72.6699 66.2715 72.2715 65.9082C71.877 65.541 71.6797 65.0625 71.6797 64.4727C71.6797 63.9844 71.8105 63.5586 72.0723 63.1953C72.3379 62.8281 72.6953 62.543 73.1445 62.3398C73.5977 62.1367 74.1016 62.0352 74.6562 62.0352C75.2188 62.0352 75.7188 62.1367 76.1562 62.3398C76.5938 62.5391 76.9414 62.8125 77.1992 63.1602C77.457 63.5039 77.5938 63.8945 77.6094 64.332H76.5781C76.5273 63.9023 76.3203 63.5684 75.957 63.3301C75.5977 63.0918 75.1523 62.9727 74.6211 62.9727C74.2383 62.9727 73.9023 63.0352 73.6133 63.1602C73.3242 63.2852 73.0996 63.457 72.9395 63.6758C72.7793 63.8945 72.6992 64.1445 72.6992 64.4258C72.6992 64.7344 72.7949 64.9844 72.9863 65.1758C73.1777 65.3633 73.4043 65.5098 73.666 65.6152C73.9316 65.7207 74.1719 65.8047 74.3867 65.8672L75.2656 66.1133C75.4922 66.1758 75.7441 66.2598 76.0215 66.3652C76.3027 66.4707 76.5723 66.6133 76.8301 66.793C77.0918 66.9727 77.3066 67.2031 77.4746 67.4844C77.6426 67.7617 77.7266 68.1055 77.7266 68.5156C77.7266 68.9844 77.6035 69.4102 77.3574 69.793C77.1113 70.1719 76.7539 70.4746 76.2852 70.7012C75.8164 70.9238 75.2461 71.0352 74.5742 71.0352ZM81.5938 70.8828H79.4961V69.9453H81.5234C82.2461 69.9453 82.8438 69.8066 83.3164 69.5293C83.793 69.252 84.1484 68.8555 84.3828 68.3398C84.6172 67.8242 84.7344 67.2109 84.7344 66.5C84.7344 65.7969 84.6191 65.1914 84.3887 64.6836C84.1582 64.1719 83.8125 63.7793 83.3516 63.5059C82.8945 63.2285 82.3242 63.0898 81.6406 63.0898H79.4492V62.1523H81.7109C82.5586 62.1523 83.2832 62.3262 83.8848 62.6738C84.4902 63.0215 84.9531 63.5215 85.2734 64.1738C85.5938 64.8223 85.7539 65.5977 85.7539 66.5C85.7539 67.4102 85.5918 68.1934 85.2676 68.8496C84.9434 69.502 84.4707 70.0039 83.8496 70.3555C83.2324 70.707 82.4805 70.8828 81.5938 70.8828ZM79.9531 62.1523V70.8828H78.8984V62.1523H79.9531Z" fill="#1A1A1C"/>
<path d="M18.6406 96.9414C18.0482 96.9414 17.4525 96.834 16.8535 96.6191C16.2546 96.3978 15.7077 96.0299 15.2129 95.5156C14.7246 94.9948 14.3307 94.2884 14.0312 93.3965C13.7318 92.5046 13.582 91.388 13.582 90.0469C13.582 88.7578 13.7025 87.6152 13.9434 86.6191C14.1908 85.623 14.5423 84.7832 14.998 84.0996C15.4603 83.4095 16.0169 82.8887 16.668 82.5371C17.319 82.179 18.0547 82 18.875 82C19.6888 82 20.4115 82.1628 21.043 82.4883C21.681 82.8138 22.2018 83.2663 22.6055 83.8457C23.0091 84.4186 23.2695 85.0794 23.3867 85.8281H21.668C21.5052 85.1771 21.1895 84.6367 20.7207 84.207C20.2585 83.7773 19.6432 83.5625 18.875 83.5625C17.7487 83.5625 16.86 84.054 16.209 85.0371C15.5645 86.0137 15.2422 87.3906 15.2422 89.168H15.3594C15.6263 88.7643 15.9421 88.4193 16.3066 88.1328C16.6712 87.8398 17.0749 87.6185 17.5176 87.4688C17.9603 87.3125 18.4323 87.2344 18.9336 87.2344C19.7669 87.2344 20.5286 87.4427 21.2188 87.8594C21.9089 88.2695 22.4622 88.8392 22.8789 89.5684C23.2956 90.291 23.5039 91.1211 23.5039 92.0586C23.5039 92.957 23.3021 93.7773 22.8984 94.5195C22.5013 95.2552 21.9382 95.8444 21.209 96.2871C20.4798 96.7233 19.6237 96.9414 18.6406 96.9414ZM18.6406 95.3789C19.2396 95.3789 19.7767 95.2324 20.252 94.9395C20.7272 94.64 21.1048 94.2396 21.3848 93.7383C21.6647 93.2305 21.8047 92.6706 21.8047 92.0586C21.8047 91.4531 21.668 90.9062 21.3945 90.418C21.1276 89.9232 20.7598 89.5293 20.291 89.2363C19.8288 88.9434 19.2982 88.7969 18.6992 88.7969C18.1003 88.7969 17.5566 88.9499 17.0684 89.2559C16.5866 89.5618 16.2025 89.9655 15.916 90.4668C15.6361 90.9616 15.4961 91.4987 15.4961 92.0781C15.4961 92.6576 15.6328 93.2012 15.9062 93.709C16.1797 94.2103 16.5508 94.6139 17.0195 94.9199C17.4948 95.2259 18.0352 95.3789 18.6406 95.3789ZM29.8125 96.9414C28.9792 96.9414 28.2272 96.7786 27.5566 96.4531C26.8926 96.1211 26.3587 95.6654 25.9551 95.0859C25.5514 94.5065 25.3333 93.849 25.3008 93.1133H27C27.0651 93.7643 27.3613 94.3047 27.8887 94.7344C28.4225 95.1641 29.0638 95.3789 29.8125 95.3789C30.4115 95.3789 30.9421 95.2389 31.4043 94.959C31.8665 94.679 32.2311 94.2949 32.498 93.8066C32.765 93.3184 32.8984 92.7617 32.8984 92.1367C32.8984 91.5052 32.7585 90.9388 32.4785 90.4375C32.2051 89.9362 31.8275 89.5423 31.3457 89.2559C30.8639 88.9629 30.3138 88.8164 29.6953 88.8164C29.2461 88.8164 28.7871 88.888 28.3184 89.0312C27.8561 89.168 27.4753 89.3438 27.1758 89.5586L25.5156 89.3633L26.3945 82.1953H33.9531V83.7578H27.8789L27.3711 88.0547H27.4492C27.7487 87.8138 28.123 87.6185 28.5723 87.4688C29.0215 87.3125 29.4935 87.2344 29.9883 87.2344C30.8802 87.2344 31.6745 87.446 32.3711 87.8691C33.0677 88.2923 33.6146 88.8717 34.0117 89.6074C34.4154 90.3366 34.6172 91.1732 34.6172 92.1172C34.6172 93.0417 34.4089 93.8685 33.9922 94.5977C33.5755 95.3268 33.0059 95.8997 32.2832 96.3164C31.5605 96.7331 30.737 96.9414 29.8125 96.9414ZM36.043 93.7578V92.3125L42.4297 82.1953H43.4844V84.4414H42.7617L37.9375 92.0781V92.1953H46.5508V93.7578H36.043ZM42.8789 96.7461V93.3281V92.6445V82.1953H44.5586V96.7461H42.8789ZM48.7188 96.7461L55.2227 83.875V83.7578H47.7227V82.1953H57.0586V83.8555L50.5742 96.7461H48.7188ZM57.4199 96.8633C57.0684 96.8633 56.7656 96.7396 56.5117 96.4922C56.2643 96.2383 56.1406 95.9355 56.1406 95.584C56.1406 95.2324 56.2643 94.9329 56.5117 94.6855C56.7656 94.4316 57.0684 94.3047 57.4199 94.3047C57.7715 94.3047 58.071 94.4316 58.3184 94.6855C58.5723 94.9329 58.6992 95.2324 58.6992 95.584C58.6992 95.9355 58.5723 96.2383 58.3184 96.4922C58.071 96.7396 57.7715 96.8633 57.4199 96.8633ZM60.9844 96.7461L67.4883 83.875V83.7578H59.9883V82.1953H69.3242V83.8555L62.8398 96.7461H60.9844ZM75.2031 82C75.8021 82.0065 76.3978 82.1204 76.9902 82.3418C77.5892 82.5632 78.1361 82.931 78.6309 83.4453C79.1257 83.9596 79.5195 84.6595 79.8125 85.5449C80.112 86.4303 80.2617 87.5404 80.2617 88.875C80.2617 90.1706 80.1413 91.3197 79.9004 92.3223C79.6595 93.3184 79.3079 94.1615 78.8457 94.8516C78.39 95.5352 77.8366 96.056 77.1855 96.4141C76.5345 96.7656 75.8021 96.9414 74.9883 96.9414C74.1745 96.9414 73.4453 96.7786 72.8008 96.4531C72.1628 96.1276 71.6419 95.6751 71.2383 95.0957C70.8346 94.5163 70.5742 93.8424 70.457 93.0742H72.1953C72.3516 93.7448 72.6641 94.2982 73.1328 94.7344C73.6016 95.1641 74.2201 95.3789 74.9883 95.3789C76.1081 95.3789 76.9902 94.8906 77.6348 93.9141C78.2858 92.931 78.6146 91.5443 78.6211 89.7539H78.5039C78.237 90.151 77.9212 90.4961 77.5566 90.7891C77.1921 91.0755 76.7884 91.2969 76.3457 91.4531C75.903 91.6094 75.431 91.6875 74.9297 91.6875C74.0964 91.6875 73.3314 91.4824 72.6348 91.0723C71.9382 90.6556 71.3815 90.0859 70.9648 89.3633C70.5547 88.6341 70.3464 87.8008 70.3398 86.8633C70.3464 85.9714 70.5482 85.1576 70.9453 84.4219C71.349 83.6797 71.9121 83.0872 72.6348 82.6445C73.3639 82.2018 74.2201 81.987 75.2031 82ZM75.2031 83.5625C74.6107 83.5625 74.0736 83.7122 73.5918 84.0117C73.1165 84.3047 72.7422 84.7018 72.4688 85.2031C72.1953 85.6979 72.0586 86.2513 72.0586 86.8633C72.0586 87.4688 72.1888 88.0189 72.4492 88.5137C72.7161 89.0085 73.084 89.4023 73.5527 89.6953C74.0215 89.9818 74.5521 90.125 75.1445 90.125C75.7435 90.125 76.2839 89.972 76.7656 89.666C77.2539 89.3535 77.6413 88.9466 77.9277 88.4453C78.2207 87.944 78.3672 87.4036 78.3672 86.8242C78.3672 86.2578 78.2305 85.7272 77.957 85.2324C77.6836 84.7311 77.3092 84.3275 76.834 84.0215C76.3587 83.7155 75.8151 83.5625 75.2031 83.5625Z" fill="#1A1A1C"/>
<path fill-rule="evenodd" clip-rule="evenodd" d="M21.1957 111.664H19.7858V110.057H23.0014H23.8054V110.861V114.076H22.1975V112.937L19.5464 115.588L18.9779 116.156L18.4094 115.588L16.7138 113.892L13.9963 116.61L12.8594 115.473L16.1453 112.187L16.7138 111.618L17.2822 112.187L18.9779 113.882L21.1957 111.664Z" fill="#00DEA3"/>
<path d="M30.375 108.486C30.7344 108.49 31.0918 108.559 31.4473 108.691C31.8066 108.824 32.1348 109.045 32.4316 109.354C32.7285 109.662 32.9648 110.082 33.1406 110.613C33.3203 111.145 33.4102 111.811 33.4102 112.611C33.4102 113.389 33.3379 114.078 33.1934 114.68C33.0488 115.277 32.8379 115.783 32.5605 116.197C32.2871 116.607 31.9551 116.92 31.5645 117.135C31.1738 117.346 30.7344 117.451 30.2461 117.451C29.7578 117.451 29.3203 117.354 28.9336 117.158C28.5508 116.963 28.2383 116.691 27.9961 116.344C27.7539 115.996 27.5977 115.592 27.5273 115.131H28.5703C28.6641 115.533 28.8516 115.865 29.1328 116.127C29.4141 116.385 29.7852 116.514 30.2461 116.514C30.918 116.514 31.4473 116.221 31.834 115.635C32.2246 115.045 32.4219 114.213 32.4258 113.139H32.3555C32.1953 113.377 32.0059 113.584 31.7871 113.76C31.5684 113.932 31.3262 114.064 31.0605 114.158C30.7949 114.252 30.5117 114.299 30.2109 114.299C29.7109 114.299 29.252 114.176 28.834 113.93C28.416 113.68 28.082 113.338 27.832 112.904C27.5859 112.467 27.4609 111.967 27.457 111.404C27.4609 110.869 27.582 110.381 27.8203 109.939C28.0625 109.494 28.4004 109.139 28.834 108.873C29.2715 108.607 29.7852 108.479 30.375 108.486ZM30.375 109.424C30.0195 109.424 29.6973 109.514 29.4082 109.693C29.123 109.869 28.8984 110.107 28.7344 110.408C28.5703 110.705 28.4883 111.037 28.4883 111.404C28.4883 111.768 28.5664 112.098 28.7227 112.395C28.8828 112.691 29.1035 112.928 29.3848 113.104C29.666 113.275 29.9844 113.361 30.3398 113.361C30.6992 113.361 31.0234 113.27 31.3125 113.086C31.6055 112.898 31.8379 112.654 32.0098 112.354C32.1855 112.053 32.2734 111.729 32.2734 111.381C32.2734 111.041 32.1914 110.723 32.0273 110.426C31.8633 110.125 31.6387 109.883 31.3535 109.699C31.0684 109.516 30.7422 109.424 30.375 109.424ZM34.9629 117.404C34.752 117.404 34.5703 117.33 34.418 117.182C34.2695 117.029 34.1953 116.848 34.1953 116.637C34.1953 116.426 34.2695 116.246 34.418 116.098C34.5703 115.945 34.752 115.869 34.9629 115.869C35.1738 115.869 35.3535 115.945 35.502 116.098C35.6543 116.246 35.7305 116.426 35.7305 116.637C35.7305 116.848 35.6543 117.029 35.502 117.182C35.3535 117.33 35.1738 117.404 34.9629 117.404ZM39.5625 117.451C39.0625 117.451 38.6113 117.354 38.209 117.158C37.8105 116.959 37.4902 116.686 37.248 116.338C37.0059 115.99 36.875 115.596 36.8555 115.154H37.875C37.9141 115.545 38.0918 115.869 38.4082 116.127C38.7285 116.385 39.1133 116.514 39.5625 116.514C39.9219 116.514 40.2402 116.43 40.5176 116.262C40.7949 116.094 41.0137 115.863 41.1738 115.57C41.334 115.277 41.4141 114.943 41.4141 114.568C41.4141 114.189 41.3301 113.85 41.1621 113.549C40.998 113.248 40.7715 113.012 40.4824 112.84C40.1934 112.664 39.8633 112.576 39.4922 112.576C39.2227 112.576 38.9473 112.619 38.666 112.705C38.3887 112.787 38.1602 112.893 37.9805 113.021L36.9844 112.904L37.5117 108.604H42.0469V109.541H38.4023L38.0977 112.119H38.1445C38.3242 111.975 38.5488 111.857 38.8184 111.768C39.0879 111.674 39.3711 111.627 39.668 111.627C40.2031 111.627 40.6797 111.754 41.0977 112.008C41.5156 112.262 41.8438 112.609 42.082 113.051C42.3242 113.488 42.4453 113.99 42.4453 114.557C42.4453 115.111 42.3203 115.607 42.0703 116.045C41.8203 116.482 41.4785 116.826 41.0449 117.076C40.6113 117.326 40.1172 117.451 39.5625 117.451ZM47.9531 115.693V115.236C47.9531 114.916 48.0176 114.623 48.1465 114.357C48.2793 114.092 48.4727 113.879 48.7266 113.719C48.9805 113.559 49.2891 113.479 49.6523 113.479C50.0234 113.479 50.334 113.559 50.584 113.719C50.834 113.879 51.0215 114.092 51.1465 114.357C51.2754 114.623 51.3398 114.916 51.3398 115.236V115.693C51.3398 116.014 51.2754 116.307 51.1465 116.572C51.0176 116.838 50.8281 117.051 50.5781 117.211C50.3281 117.371 50.0195 117.451 49.6523 117.451C49.2852 117.451 48.9746 117.371 48.7207 117.211C48.4668 117.051 48.2754 116.838 48.1465 116.572C48.0176 116.307 47.9531 116.014 47.9531 115.693ZM48.8203 115.236V115.693C48.8203 115.959 48.8828 116.197 49.0078 116.408C49.1328 116.615 49.3477 116.721 49.6523 116.725C49.9531 116.721 50.1641 116.615 50.2852 116.408C50.4102 116.197 50.4727 115.959 50.4727 115.693V115.236C50.4727 114.971 50.4121 114.734 50.291 114.527C50.1738 114.32 49.9609 114.217 49.6523 114.217C49.3555 114.217 49.1426 114.32 49.0137 114.527C48.8848 114.734 48.8203 114.971 48.8203 115.236ZM43.6055 110.701V110.244C43.6055 109.924 43.6719 109.631 43.8047 109.365C43.9375 109.1 44.1289 108.887 44.3789 108.727C44.6328 108.566 44.9414 108.486 45.3047 108.486C45.6758 108.486 45.9863 108.566 46.2363 108.727C46.4902 108.887 46.6797 109.1 46.8047 109.365C46.9336 109.631 46.9961 109.924 46.9922 110.244V110.701C46.9961 111.018 46.9316 111.311 46.7988 111.58C46.6699 111.846 46.4805 112.059 46.2305 112.219C45.9805 112.379 45.6719 112.459 45.3047 112.459C44.9375 112.459 44.627 112.379 44.373 112.219C44.1191 112.059 43.9277 111.846 43.7988 111.58C43.6699 111.311 43.6055 111.018 43.6055 110.701ZM44.4727 110.244V110.701C44.4727 110.967 44.5352 111.205 44.6602 111.416C44.7852 111.623 45 111.725 45.3047 111.721C45.6055 111.725 45.8164 111.623 45.9375 111.416C46.0625 111.205 46.125 110.967 46.125 110.701V110.244C46.125 109.979 46.0645 109.742 45.9434 109.535C45.8262 109.324 45.6133 109.221 45.3047 109.225C45.0078 109.221 44.7949 109.324 44.666 109.535C44.5371 109.742 44.4727 109.979 44.4727 110.244ZM43.9336 117.334L49.9336 108.604H50.9062L44.9062 117.334H43.9336Z" fill="#00DEA3"/>
<path d="M192.133 49.0391C186.473 60.294 181.136 74.6619 169.776 74.6619C155.912 75.0069 153.079 62.2097 141.193 62.9281C121.1 62.9281 128.458 94.0587 101.29 94.0587" stroke="url(#paint0_linear_654_15552)" stroke-width="1.60784"/>
<defs>
<linearGradient id="paint0_linear_654_15552" x1="192.133" y1="49.0391" x2="121.13" y2="115.314" gradientUnits="userSpaceOnUse">
<stop offset="0.125" stop-color="#00DEA3" stop-opacity="0"/>
<stop offset="0.488932" stop-color="#00DEA3"/>
<stop offset="1" stop-color="#00DEA3" stop-opacity="0"/>
</linearGradient>
</defs>
</svg>
